<?xml version="1.0" encoding="utf-8"?>
<!-- Generator: Adobe Illustrator 16.0.3, SVG Export Plug-In . SVG Version: 6.00 Build 0)  -->
<!DOCTYPE svg PUBLIC "-//W3C//DTD SVG 1.1//EN" "http://www.w3.org/Graphics/SVG/1.1/DTD/svg11.dtd">
<svg version="1.1" id="Capa_1" xmlns="http://www.w3.org/2000/svg" xmlns:xlink="http://www.w3.org/1999/xlink" x="0px" y="0px"
	 width="612px" height="792px" viewBox="0 0 612 792" enable-background="new 0 0 612 792" xml:space="preserve">
<g>
	<g>
		<path fill-rule="evenodd" clip-rule="evenodd" fill="#FEFEFE" d="M564.116,654.105c-170.991,0.004-341.984,0.004-513.047,0.004
			c0-170.943,0-341.895,0-512.978c170.97,0,342.009,0,513.047,0C564.116,312.108,564.116,483.105,564.116,654.105z M212.129,572.885
			c2.5,0,5.007,0.129,7.497-0.022c10.202-0.624,19.866-2.48,26.496-11.473c2.465-3.344,4.923-6.771,7.869-9.669
			c10.237-10.076,14.886-22.116,14.156-36.469c-0.32-6.301-0.865-12.878,0.509-18.915c2.543-11.178,1.498-21.093-5.994-30.02
			c-0.85-1.013-1.521-2.181-2.239-3.299c-5.234-8.148-9.088-16.458-6.615-26.722c1.525-6.332-1.599-11.533-6.281-15.949
			c-2.991-2.822-6.004-5.88-8.056-9.389c-6.905-11.808-17.831-17.038-30.595-17.767c-23.177-1.322-44.229,6.31-63.967,17.813
			c-2.665,1.553-4.967,4.27-6.585,6.961c-3.177,5.28-6.596,9.781-12.922,11.697c-5.275,1.599-8.134,5.838-8.352,11.307
			c-0.282,7.093-3.649,11.883-9.827,14.974c-0.893,0.447-1.846,0.859-2.592,1.496c-8.411,7.192-13.38,14.808-3.525,23.532
			c4.876,4.317,5.7,10.43,4.957,16.592c-0.686,5.685,1.657,9.782,6.096,12.755c6.479,4.339,9.708,9.842,9.188,17.99
			c-0.374,5.855,1.161,11.959,6.517,15.455c8.874,5.79,18.609,8.945,29.326,6.172c4.102-1.061,6.814,0.107,8.673,3.665
			c3.474,6.651,9.137,10.845,15.589,14.235C191.124,572.923,201.679,572.614,212.129,572.885z M358.64,506.444
			c0.424,3.404,0.18,7.109,1.396,10.249c6.064,15.647,12.482,31.159,18.862,46.683c0.88,2.139,2.29,4.052,3.372,6.113
			c3.785,7.209,9.933,10.695,17.866,10.604c12.031-0.139,23.78-0.198,34.947,5.964c3.209,1.769,8.726,0.306,12.851-0.858
			c3.004-0.847,5.734-3.349,8.104-5.618c4.765-4.563,10.045-5.473,16.069-3.305c1.408,0.508,2.763,1.21,4.204,1.574
			c8.131,2.05,12.413-0.808,13.707-9.061c0.334-2.132,0.816-4.251,0.969-6.396c0.445-6.28,3.145-10.417,9.506-12.511
			c2.893-0.951,6.171-3.388,7.481-6.037c5.677-11.476,9.41-24.069,7.396-36.585c-1.841-11.437-6.681-22.537-11.323-33.3
			c-1.62-3.757-6.141-7.111-10.122-8.84c-11.846-5.146-23.86-10.136-36.223-13.79c-13.74-4.063-27.035-8.442-38.727-17.138
			c-4.778-3.553-10.746-3.187-16.215-0.521c-12.218,5.957-22.315,14.961-30.325,25.458
			C362.031,472.766,360.412,489.727,358.64,506.444z M525.193,333.661c-0.073,0-0.146,0-0.219,0c0-3,0.003-6-0.001-9
			c-0.013-10.596-2.279-20.305-9.467-28.693c-2.297-2.681-3.97-6.821-4.008-10.314c-0.073-6.648-3.833-9.764-8.761-12.776
			c-5.51-3.367-10.622-7.382-16.116-10.779c-5.89-3.642-11.656-8.376-18.133-9.962c-9.402-2.303-19.188-1.637-26.217,7.158
			c-0.78,0.976-2.511,1.486-3.867,1.645c-2.471,0.287-5.008-0.024-7.487,0.215c-16.233,1.566-32.316,9.961-34.477,30.603
			c-0.894,8.548-3.445,15.662-9.375,21.824c-4.978,5.174-5.453,11.487-2.21,17.598c15.505,29.211,34.311,54.462,70.436,59.601
			c12.173,1.731,23.8,2.306,34.804-4.25c3.714-2.212,7.558-4.213,11.395-6.209c12.793-6.658,16.206-20.321,23.273-31.238
			c0.715-1.104,0.394-2.929,0.414-4.422C525.227,340.994,525.193,337.327,525.193,333.661z M165.119,316.731
			c12.77-2.016,25.584-3.796,38.293-6.142c7.032-1.298,12.088-5.648,15.797-11.949c4.368-7.419,9.277-14.528,14.15-21.635
			c2.818-4.107,5.899-8.054,9.089-11.884c7.323-8.792,10.159-18.69,8.739-30.11c-1.432-11.525-1.293-23.436-9.76-32.787
			c-3.238-3.576-6.849-6.813-10.117-10.364c-3.149-3.423-6.571-4.394-11.198-3.122c-6.694,1.838-13.522,3.635-20.397,4.219
			c-4.814,0.408-9.807-1.214-14.712-1.977c-10.025-1.561-18.484,3.15-27.104,6.938c-4.215,1.852-9.01,3.646-11.949,6.902
			c-8.044,8.913-13.857,19.363-13.807,31.769c0.031,7.7-1.11,14.834-4.715,21.602c-3.363,6.315-2.391,12.333,1.987,17.628
			c4.971,6.012,10.631,11.464,15.458,17.581c2.361,2.992,4.228,6.776,5.072,10.485C152.161,313.624,154.68,315.938,165.119,316.731z
			"/>
		<path fill-rule="evenodd" clip-rule="evenodd" fill="#D491BB" d="M212.129,572.885c-10.451-0.271-21.006,0.038-30.68-5.048
			c-6.452-3.391-12.115-7.584-15.589-14.235c-1.858-3.558-4.571-4.726-8.673-3.665c-10.716,2.773-20.452-0.382-29.326-6.172
			c-5.356-3.496-6.891-9.6-6.517-15.455c0.521-8.148-2.709-13.651-9.188-17.99c-4.438-2.973-6.781-7.07-6.096-12.755
			c0.743-6.162-0.081-12.274-4.957-16.592c-9.854-8.725-4.886-16.34,3.525-23.532c0.746-0.637,1.699-1.049,2.592-1.496
			c6.178-3.091,9.544-7.881,9.827-14.974c0.218-5.469,3.077-9.708,8.352-11.307c6.327-1.916,9.745-6.417,12.922-11.697
			c1.619-2.691,3.921-5.408,6.585-6.961c19.738-11.504,40.791-19.135,63.967-17.813c12.765,0.729,23.69,5.959,30.595,17.767
			c2.052,3.509,5.065,6.566,8.056,9.389c4.682,4.416,7.806,9.617,6.281,15.949c-2.473,10.264,1.381,18.573,6.615,26.722
			c0.718,1.118,1.389,2.286,2.239,3.299c7.492,8.927,8.538,18.842,5.994,30.02c-1.374,6.037-0.829,12.614-0.509,18.915
			c0.73,14.353-3.919,26.393-14.156,36.469c-2.945,2.897-5.403,6.325-7.869,9.669c-6.629,8.992-16.294,10.849-26.496,11.473
			C217.137,573.014,214.629,572.885,212.129,572.885z M211.062,567.587c0.019-0.164,0.038-0.328,0.057-0.492
			c2.333,0,4.681,0.177,6.994-0.032c8.251-0.745,16.698-1.043,22.646-8.197c3.388-4.075,6.596-8.321,10.229-12.164
			c8.191-8.668,12.094-18.6,11.207-30.706c-0.493-6.726-0.327-13.731,1.019-20.309c2.358-11.527-0.188-21.278-7.795-29.977
			c-0.649-0.743-1.186-1.612-1.64-2.491c-4.196-8.13-8.522-16.116-5.896-25.948c1.206-4.515-0.337-8.703-3.854-12.233
			c-3.601-3.615-7.312-7.341-9.953-11.645c-6.553-10.675-16.882-14.806-28.174-14.744c-20.403,0.112-39.491,6.312-57.125,16.628
			c-1.891,1.106-3.448,3.03-4.742,4.868c-4.49,6.379-8.473,13.088-16.945,15.238c-1.676,0.425-3.234,3.12-3.952,5.095
			c-1.114,3.062-1.138,6.511-2.198,9.599c-2.036,5.928-7.201,8.816-12.284,11.707c-6.173,3.512-8.755,9.265-5.173,12.855
			c7.05,7.068,9.296,15.366,8.684,25.003c-0.109,1.717,1.303,4.102,2.749,5.253c7.601,6.05,13.473,12.657,12.23,23.454
			c-0.53,4.601,1.29,9.085,5.596,11.518c7.372,4.164,15.164,6.696,23.795,4.175c5.416-1.582,9.917,0.117,12.814,4.771
			c5.246,8.429,12.293,14.42,22.056,16.404C197.853,566.526,204.502,566.832,211.062,567.587z"/>
		<path fill-rule="evenodd" clip-rule="evenodd" fill="#D391BB" d="M358.64,506.444c1.772-16.718,3.392-33.679,13.796-47.314
			c8.01-10.497,18.107-19.501,30.325-25.458c5.469-2.665,11.437-3.031,16.215,0.521c11.691,8.695,24.986,13.075,38.727,17.138
			c12.362,3.654,24.377,8.645,36.223,13.79c3.981,1.729,8.502,5.083,10.122,8.84c4.643,10.763,9.482,21.863,11.323,33.3
			c2.015,12.516-1.719,25.109-7.396,36.585c-1.311,2.649-4.589,5.086-7.481,6.037c-6.361,2.094-9.061,6.23-9.506,12.511
			c-0.152,2.145-0.635,4.264-0.969,6.396c-1.294,8.253-5.576,11.11-13.707,9.061c-1.441-0.364-2.796-1.066-4.204-1.574
			c-6.024-2.168-11.305-1.258-16.069,3.305c-2.37,2.27-5.101,4.771-8.104,5.618c-4.125,1.164-9.642,2.627-12.851,0.858
			c-11.167-6.162-22.916-6.103-34.947-5.964c-7.934,0.092-14.081-3.395-17.866-10.604c-1.082-2.062-2.492-3.975-3.372-6.113
			c-6.38-15.523-12.798-31.035-18.862-46.683C358.819,513.554,359.063,509.849,358.64,506.444z M510.245,511.297
			c-0.614-12.049-6.143-22.221-10.344-32.831c-2.263-5.714-6.791-7.747-12.041-9.313c-4.583-1.366-9.124-2.891-13.618-4.525
			c-10.406-3.783-20.819-7.554-31.135-11.573c-5.781-2.253-11.468-4.803-17.017-7.583c-3.235-1.621-5.874-4.85-9.213-5.745
			c-3.885-1.042-8.993-1.784-12.257-0.104c-11.48,5.909-21.722,14.33-28.379,25.154c-5.109,8.309-7.03,18.73-9.572,28.422
			c-2.239,8.534-3.056,17.438,0.347,25.949c5.355,13.399,11.382,26.538,16.479,40.031c4.412,11.674,12.036,16.54,24.507,15.05
			c8.3-0.992,16.643-0.038,24.105,4.405c6.398,3.811,12.358,3.503,17.733-1.757c7.105-6.952,14.957-9.927,24.814-6.121
			c7.102,2.741,9.17,2.35,9.559-6.175c0.089-1.965,0.583-3.915,0.949-5.862c1.216-6.464,4.192-11.643,10.956-13.456
			c4.767-1.277,7.52-4.533,8.629-8.844C506.885,528.123,508.446,519.68,510.245,511.297z"/>
		<path fill-rule="evenodd" clip-rule="evenodd" fill="#D391BB" d="M525.193,333.661c0,3.666,0.033,7.333-0.016,10.998
			c-0.021,1.493,0.301,3.318-0.414,4.422c-7.067,10.917-10.48,24.58-23.273,31.238c-3.837,1.997-7.681,3.997-11.395,6.209
			c-11.004,6.556-22.631,5.981-34.804,4.25c-36.125-5.138-54.931-30.389-70.436-59.601c-3.243-6.111-2.768-12.424,2.21-17.598
			c5.93-6.162,8.481-13.276,9.375-21.824c2.16-20.641,18.243-29.037,34.477-30.603c2.479-0.239,5.017,0.072,7.487-0.215
			c1.356-0.158,3.087-0.669,3.867-1.645c7.029-8.795,16.814-9.461,26.217-7.158c6.477,1.586,12.243,6.321,18.133,9.962
			c5.494,3.397,10.606,7.412,16.116,10.779c4.928,3.012,8.688,6.128,8.761,12.776c0.038,3.494,1.711,7.633,4.008,10.314
			c7.188,8.389,9.454,18.097,9.467,28.693c0.004,3,0.001,6,0.001,9C525.048,333.661,525.12,333.661,525.193,333.661z
			 M471.455,386.427c2.841-0.911,8.366-2.408,13.665-4.481c3.527-1.381,6.619-3.843,10.104-5.369
			c6.789-2.972,12.344-6.842,14.542-14.523c0.687-2.401,2.698-4.523,4.41-6.508c3.154-3.655,5.232-7.578,4.956-12.592
			c-0.434-7.87-0.963-15.75-0.948-23.625c0.014-7.387-2.792-13.287-7.115-19.121c-2.819-3.802-4.957-8.649-5.689-13.298
			c-0.65-4.13-2.006-6.543-5.487-8.593c-5.121-3.011-9.872-6.641-14.891-9.834c-5.833-3.712-11.415-8.368-17.811-10.46
			c-4.561-1.493-10.358,0.203-15.447,1.247c-1.797,0.369-2.91,3.346-4.724,4.549c-2.112,1.402-4.564,2.616-7.026,3.088
			c-2.732,0.524-5.653-0.038-8.473,0.15c-11.387,0.759-27.121,8.027-28.482,24.169c-0.813,9.626-3.176,18.481-10.649,25.44
			c-3.563,3.318-4.039,7.6-1.897,12.34c6.021,13.322,14.818,24.768,24.589,35.341C429.338,379.779,448.238,384.801,471.455,386.427z
			"/>
		<path fill-rule="evenodd" clip-rule="evenodd" fill="#D491BB" d="M165.119,316.731c-10.439-0.793-12.958-3.108-15.174-12.846
			c-0.844-3.709-2.711-7.493-5.072-10.485c-4.827-6.117-10.487-11.569-15.458-17.581c-4.377-5.295-5.35-11.313-1.987-17.628
			c3.604-6.767,4.746-13.902,4.715-21.602c-0.05-12.406,5.763-22.856,13.807-31.769c2.939-3.256,7.734-5.05,11.949-6.902
			c8.621-3.788,17.079-8.499,27.104-6.938c4.905,0.763,9.898,2.385,14.712,1.977c6.875-0.583,13.704-2.38,20.397-4.219
			c4.627-1.272,8.049-0.301,11.198,3.122c3.268,3.551,6.879,6.788,10.117,10.364c8.466,9.351,8.328,21.262,9.76,32.787
			c1.419,11.42-1.416,21.318-8.739,30.11c-3.19,3.83-6.271,7.776-9.089,11.884c-4.874,7.107-9.782,14.216-14.15,21.635
			c-3.709,6.3-8.765,10.651-15.797,11.949C190.703,312.936,177.889,314.715,165.119,316.731z M166.832,311.05
			c12.346-2.149,24.73-4.104,37.019-6.545c4.703-0.934,7.847-4.229,10.374-8.561c4.404-7.551,9.208-14.924,14.444-21.923
			c9.079-12.135,19.879-23.23,16.49-40.59c-2.012-10.305-1.446-21.315-10.06-29.293c-2.415-2.236-5.048-4.298-7.133-6.811
			c-2.782-3.352-5.692-3.665-9.694-2.337c-10.632,3.528-21.31,5.514-32.649,2.228c-4.072-1.18-9,0.1-13.437,0.847
			c-2.882,0.486-5.549,2.144-8.372,3.101c-18.442,6.256-24.935,21.072-25.502,34.47c-0.383,9.028-1.586,17.398-5.745,25.36
			c-1.858,3.559-1.743,7.027,0.951,10.145c4.438,5.138,9.247,9.987,13.335,15.384c3.426,4.523,7.101,9.319,8.786,14.596
			C158.42,309.834,157.782,310.038,166.832,311.05z"/>
		<path fill-rule="evenodd" clip-rule="evenodd" fill="#D18FEC" d="M211.062,567.587c-6.559-0.755-13.209-1.061-19.655-2.37
			c-9.763-1.984-16.81-7.976-22.056-16.404c-2.896-4.654-7.398-6.354-12.814-4.771c-8.632,2.521-16.424-0.011-23.795-4.175
			c-4.306-2.433-6.126-6.917-5.596-11.518c1.243-10.797-4.629-17.404-12.23-23.454c-1.446-1.151-2.858-3.536-2.749-5.253
			c0.612-9.637-1.633-17.935-8.684-25.003c-3.582-3.591-1-9.344,5.173-12.855c5.083-2.891,10.248-5.779,12.284-11.707
			c1.06-3.088,1.084-6.537,2.198-9.599c0.718-1.975,2.276-4.67,3.952-5.095c8.472-2.15,12.456-8.859,16.945-15.238
			c1.293-1.838,2.851-3.762,4.742-4.868c17.634-10.316,36.722-16.516,57.125-16.628c11.292-0.062,21.622,4.069,28.174,14.744
			c2.642,4.304,6.353,8.029,9.953,11.645c3.517,3.53,5.06,7.719,3.854,12.233c-2.626,9.832,1.7,17.818,5.896,25.948
			c0.454,0.879,0.991,1.748,1.64,2.491c7.606,8.698,10.153,18.449,7.795,29.977c-1.346,6.577-1.512,13.583-1.019,20.309
			c0.887,12.106-3.016,22.038-11.207,30.706c-3.633,3.843-6.841,8.089-10.229,12.164c-5.948,7.154-14.395,7.452-22.646,8.197
			c-2.313,0.209-4.662,0.032-6.994,0.032C211.099,567.259,211.08,567.423,211.062,567.587z"/>
		<path fill-rule="evenodd" clip-rule="evenodd" fill="#D18FEC" d="M510.245,511.297c-1.799,8.383-3.36,16.826-5.496,25.122
			c-1.109,4.311-3.862,7.566-8.629,8.844c-6.764,1.813-9.74,6.992-10.956,13.456c-0.366,1.947-0.86,3.897-0.949,5.862
			c-0.389,8.524-2.457,8.916-9.559,6.175c-9.857-3.806-17.709-0.831-24.814,6.121c-5.375,5.26-11.335,5.567-17.733,1.757
			c-7.463-4.443-15.806-5.397-24.105-4.405c-12.471,1.49-20.095-3.376-24.507-15.05c-5.098-13.493-11.124-26.632-16.479-40.031
			c-3.402-8.512-2.586-17.415-0.347-25.949c2.542-9.691,4.463-20.113,9.572-28.422c6.657-10.824,16.898-19.245,28.379-25.154
			c3.264-1.681,8.372-0.938,12.257,0.104c3.339,0.896,5.978,4.124,9.213,5.745c5.549,2.78,11.235,5.33,17.017,7.583
			c10.315,4.02,20.729,7.79,31.135,11.573c4.494,1.635,9.035,3.159,13.618,4.525c5.25,1.566,9.778,3.6,12.041,9.313
			C504.103,489.076,509.631,499.248,510.245,511.297z"/>
		<path fill-rule="evenodd" clip-rule="evenodd" fill="#D18FEC" d="M471.455,386.427c-23.217-1.626-42.117-6.648-56.375-22.078
			c-9.771-10.573-18.567-22.019-24.589-35.341c-2.142-4.74-1.666-9.021,1.897-12.34c7.474-6.959,9.837-15.814,10.649-25.44
			c1.361-16.142,17.096-23.411,28.482-24.169c2.819-0.188,5.74,0.374,8.473-0.15c2.462-0.473,4.914-1.686,7.026-3.088
			c1.813-1.204,2.927-4.181,4.724-4.549c5.089-1.044,10.887-2.74,15.447-1.247c6.396,2.092,11.978,6.749,17.811,10.46
			c5.019,3.193,9.77,6.823,14.891,9.834c3.481,2.049,4.837,4.463,5.487,8.593c0.732,4.648,2.87,9.496,5.689,13.298
			c4.323,5.833,7.129,11.733,7.115,19.121c-0.015,7.875,0.515,15.755,0.948,23.625c0.276,5.014-1.802,8.937-4.956,12.592
			c-1.712,1.985-3.724,4.107-4.41,6.508c-2.198,7.681-7.753,11.551-14.542,14.523c-3.484,1.526-6.576,3.988-10.104,5.369
			C479.821,384.019,474.296,385.516,471.455,386.427z"/>
		<path fill-rule="evenodd" clip-rule="evenodd" fill="#D18FEC" d="M166.832,311.05c-9.05-1.012-8.412-1.215-11.194-9.929
			c-1.685-5.277-5.359-10.073-8.786-14.596c-4.088-5.397-8.897-10.247-13.335-15.384c-2.693-3.118-2.809-6.586-0.951-10.145
			c4.158-7.962,5.362-16.333,5.745-25.36c0.568-13.397,7.06-28.213,25.502-34.47c2.823-0.957,5.49-2.615,8.372-3.101
			c4.438-0.747,9.365-2.027,13.437-0.847c11.34,3.286,22.017,1.3,32.649-2.228c4.001-1.328,6.912-1.014,9.694,2.337
			c2.085,2.513,4.718,4.575,7.133,6.811c8.614,7.979,8.048,18.989,10.06,29.293c3.389,17.36-7.411,28.455-16.49,40.59
			c-5.236,6.999-10.04,14.372-14.444,21.923c-2.527,4.332-5.671,7.627-10.374,8.561C191.562,306.945,179.178,308.9,166.832,311.05z"
			/>
	</g>
</g>
</svg>
