<?xml version="1.0" encoding="utf-8"?>
<!-- Generator: Adobe Illustrator 16.0.3, SVG Export Plug-In . SVG Version: 6.00 Build 0)  -->
<!DOCTYPE svg PUBLIC "-//W3C//DTD SVG 1.1//EN" "http://www.w3.org/Graphics/SVG/1.1/DTD/svg11.dtd">
<svg version="1.1" id="Capa_1" xmlns="http://www.w3.org/2000/svg" xmlns:xlink="http://www.w3.org/1999/xlink" x="0px" y="0px"
	 width="612px" height="792px" viewBox="0 0 612 792" enable-background="new 0 0 612 792" xml:space="preserve">
<g>
	<g>
		<path fill-rule="evenodd" clip-rule="evenodd" fill="#FEFEFE" d="M51.056,654.116c0-170.959,0-341.919,0-512.998
			c170.862,0,341.781,0,512.879,0c0,170.921,0,341.96,0,512.998C393.107,654.116,222.11,654.116,51.056,654.116z M389.96,506.022
			c-0.298,8.82-0.693,17.639-0.839,26.461c-0.047,2.879,0.559,5.769,0.865,8.652c0.029,1.999,0.023,3.999,0.093,5.997
			c0.388,11.028,3.585,17.991,15.511,21.209c6.67,1.799,12.657,4.45,17.385,9.945c6.583,7.653,10.032,8.657,19.177,4.449
			c7.268-3.345,12.699-2.565,18.331,3.042c4.208,4.188,8.845,3.215,12.126-1.775c1.823-2.771,3.345-5.751,4.883-8.698
			c1.724-3.302,3.838-5.205,8.059-5.438c3.41-0.189,7.652-1.479,9.892-3.835c8.559-9.003,15.616-19.311,17.544-31.834
			c1.303-8.464,0.751-17.206,1.145-25.818c0.302-6.578-2.6-11.236-7.669-15.271c-5.566-4.43-10.637-9.489-15.855-14.349
			c-3.396-3.164-6.191-7.304-10.1-9.516c-7.435-4.208-12.416-10.164-16.563-17.396c-3.39-5.907-8.464-10.319-15.923-8.695
			c-12.621,2.748-24.817,7.29-34.363,16.079c-9.862,9.081-16.491,20.839-21.383,33.309
			C390.643,496.697,390.683,501.51,389.96,506.022z M185.347,412.906c-2.982,0.164-6.07-0.113-8.93,0.566
			c-17.935,4.253-33.919,12.457-47.843,24.534c-1.639,1.422-2.93,3.535-3.723,5.583c-2.092,5.4-4.563,10.13-10.204,12.921
			c-4.088,2.021-6.358,5.86-5.617,10.773c0.911,6.037-1.104,10.713-6.053,14.304c-1.592,1.156-3.028,2.681-4.147,4.304
			c-6.228,9.031-5.253,13.09,2.367,18.495c3.785,2.684,5.38,6.185,5.806,10.468c0.582,5.843,1.952,11.098,8.266,13.411
			c1.069,0.392,1.964,1.24,2.967,1.832c3.26,1.927,5.279,4.331,6.204,8.403c1.353,5.96,2.15,12.693,8.637,16.008
			c7.551,3.859,15.792,5.508,23.597,2.323c6.367-2.598,9.874-1.019,14.207,3.554c6.853,7.23,16.042,9.927,25.811,9.493
			c6.072-0.27,12.139-1.567,18.117-2.833c6.95-1.471,14.98-1.907,19.397-8.015c6.29-8.696,11.442-18.246,16.652-27.669
			c1.258-2.275,1.289-5.508,1.112-8.251c-0.851-13.189-1.959-26.363-3.01-39.539c-0.05-0.636-0.3-1.32-0.65-1.857
			c-3.208-4.917-6.139-10.06-9.772-14.644c-5.36-6.765-11.243-12.871-10.682-22.653c0.333-5.805-2.432-10.818-7.987-13.91
			c-2.581-1.436-5.329-3.163-7.037-5.472C205.901,415.668,196.358,412.812,185.347,412.906z M446.239,255.621
			c-14.711,0.429-24.557,6.345-29.014,18.748c-2.581,7.184-6.276,12.968-12.945,16.934c-5.718,3.4-7.324,8.893-5.844,15.134
			c1.294,5.455,2.755,10.913,4.702,16.16c9.062,24.408,23.737,43.416,49.657,51.885c7.699,2.515,15.152,4.585,23.225,2.386
			c3.835-1.044,7.678-2.136,11.585-2.822c13.808-2.426,20.912-13.623,29.606-22.645c1.398-1.452,1.369-4.327,1.888-6.571
			c0.925-4.004,1.448-8.129,2.701-12.023c3.256-10.125,2.828-19.8-2.011-29.405c-1.128-2.24-0.742-5.25-1.013-7.91
			c-0.311-3.048,0.567-7.066-1.054-8.989c-7.916-9.385-16.247-18.46-24.932-27.145c-5.266-5.267-20.937-7.823-25.785-4.073
			c-4.257,3.291-8.091,2.753-12.512,1.713C451.784,256.361,448.994,256.068,446.239,255.621z M169.362,194.342
			c-0.174-0.448-0.348-0.897-0.522-1.346c-8.164-0.015-10.897,1.747-21.642,8.799c-17.532,11.506-22.292,30.604-16.771,47.462
			c1.153,3.519,0.636,7.84-0.013,11.638c-1.176,6.89,0.042,12.524,6.177,16.526c2.779,1.813,5.547,3.644,8.266,5.542
			c5.603,3.914,12.672,5.76,15.855,12.986c3.337,7.575,6.943,9.097,14.839,6.225c10.584-3.849,20.978-8.247,31.333-12.69
			c5.939-2.549,9.412-7.141,11.457-13.539c3.322-10.393,7.46-20.543,11.641-30.636c3.141-7.583,5.772-15.292,3.966-23.444
			c-2.527-11.406-6.093-22.569-15.26-30.7c-11.753-10.426-18.031-10.825-32.073-3.591
			C181.152,190.39,175.13,192.119,169.362,194.342z"/>
		<path fill-rule="evenodd" clip-rule="evenodd" fill="#D79EC2" d="M185.347,412.906c11.011-0.095,20.555,2.762,27.486,12.13
			c1.708,2.309,4.456,4.036,7.037,5.472c5.556,3.092,8.32,8.105,7.987,13.91c-0.562,9.782,5.321,15.889,10.682,22.653
			c3.633,4.584,6.564,9.727,9.772,14.644c0.35,0.537,0.6,1.222,0.65,1.857c1.05,13.176,2.159,26.35,3.01,39.539
			c0.177,2.743,0.146,5.976-1.112,8.251c-5.21,9.423-10.363,18.973-16.652,27.669c-4.417,6.107-12.447,6.544-19.397,8.015
			c-5.979,1.266-12.045,2.563-18.117,2.833c-9.769,0.434-18.958-2.263-25.811-9.493c-4.333-4.572-7.84-6.151-14.207-3.554
			c-7.805,3.185-16.046,1.536-23.597-2.323c-6.487-3.314-7.284-10.048-8.637-16.008c-0.925-4.072-2.944-6.477-6.204-8.403
			c-1.002-0.592-1.898-1.44-2.967-1.832c-6.314-2.313-7.685-7.568-8.266-13.411c-0.426-4.283-2.021-7.784-5.806-10.468
			c-7.621-5.405-8.595-9.464-2.367-18.495c1.12-1.623,2.556-3.147,4.147-4.304c4.949-3.591,6.964-8.267,6.053-14.304
			c-0.741-4.913,1.529-8.752,5.617-10.773c5.641-2.791,8.111-7.521,10.204-12.921c0.793-2.048,2.084-4.161,3.723-5.583
			c13.924-12.077,29.909-20.281,47.843-24.534C179.277,412.793,182.364,413.07,185.347,412.906z"/>
		<path fill-rule="evenodd" clip-rule="evenodd" fill="#D79EC2" d="M389.96,506.022c0.723-4.513,0.683-9.325,2.313-13.482
			c4.892-12.47,11.521-24.228,21.383-33.309c9.546-8.789,21.742-13.331,34.363-16.079c7.459-1.624,12.533,2.788,15.923,8.695
			c4.147,7.232,9.129,13.188,16.563,17.396c3.908,2.212,6.704,6.352,10.1,9.516c5.219,4.859,10.289,9.919,15.855,14.349
			c5.069,4.034,7.971,8.692,7.669,15.271c-0.394,8.612,0.158,17.354-1.145,25.818c-1.928,12.523-8.985,22.831-17.544,31.834
			c-2.239,2.355-6.481,3.646-9.892,3.835c-4.221,0.233-6.335,2.137-8.059,5.438c-1.538,2.947-3.06,5.927-4.883,8.698
			c-3.281,4.99-7.918,5.964-12.126,1.775c-5.632-5.607-11.063-6.387-18.331-3.042c-9.145,4.208-12.594,3.204-19.177-4.449
			c-4.728-5.495-10.715-8.146-17.385-9.945c-11.926-3.218-15.123-10.181-15.511-21.209c-0.069-1.998-0.063-3.998-0.093-5.998
			C389.979,529.432,389.969,517.727,389.96,506.022z"/>
		<path fill-rule="evenodd" clip-rule="evenodd" fill="#D79EC2" d="M446.239,255.621c2.755,0.447,5.545,0.74,8.256,1.377
			c4.421,1.041,8.255,1.578,12.512-1.713c4.849-3.75,20.52-1.194,25.785,4.073c8.685,8.685,17.016,17.76,24.932,27.145
			c1.621,1.923,0.743,5.941,1.054,8.989c0.271,2.66-0.115,5.67,1.013,7.91c4.839,9.605,5.267,19.28,2.011,29.405
			c-1.253,3.894-1.776,8.019-2.701,12.023c-0.519,2.244-0.489,5.119-1.888,6.571c-8.694,9.022-15.799,20.219-29.606,22.645
			c-3.907,0.686-7.75,1.778-11.585,2.822c-8.072,2.199-15.525,0.129-23.225-2.386c-25.92-8.469-40.596-27.477-49.657-51.885
			c-1.947-5.248-3.408-10.706-4.702-16.16c-1.48-6.242,0.126-11.734,5.844-15.134c6.669-3.966,10.364-9.75,12.945-16.934
			C421.683,261.966,431.528,256.05,446.239,255.621z"/>
		<path fill-rule="evenodd" clip-rule="evenodd" fill="#D79EC2" d="M169.362,194.342c5.768-2.223,11.791-3.952,17.254-6.766
			c14.042-7.234,20.32-6.835,32.073,3.591c9.167,8.131,12.732,19.294,15.26,30.7c1.806,8.151-0.825,15.861-3.966,23.444
			c-4.181,10.092-8.319,20.243-11.641,30.636c-2.045,6.398-5.518,10.99-11.457,13.539c-10.355,4.443-20.75,8.841-31.333,12.69
			c-7.896,2.872-11.502,1.35-14.839-6.225c-3.183-7.226-10.252-9.072-15.855-12.986c-2.719-1.898-5.487-3.729-8.266-5.542
			c-6.135-4.002-7.354-9.636-6.177-16.526c0.649-3.798,1.166-8.119,0.013-11.638c-5.521-16.858-0.761-35.956,16.771-47.462
			c10.745-7.052,13.478-8.813,21.642-8.799C169.014,193.445,169.188,193.894,169.362,194.342z"/>
		<path fill-rule="evenodd" clip-rule="evenodd" fill="#FDC6DD" d="M389.96,506.022c0.009,11.704,0.019,23.409,0.026,35.112
			c-0.307-2.883-0.912-5.772-0.865-8.651C389.267,523.661,389.662,514.843,389.96,506.022z"/>
	</g>
</g>
</svg>
