<?xml version="1.0" encoding="utf-8"?>
<!-- Generator: Adobe Illustrator 16.0.3, SVG Export Plug-In . SVG Version: 6.00 Build 0)  -->
<!DOCTYPE svg PUBLIC "-//W3C//DTD SVG 1.1//EN" "http://www.w3.org/Graphics/SVG/1.1/DTD/svg11.dtd">
<svg version="1.1" id="Capa_1" xmlns="http://www.w3.org/2000/svg" xmlns:xlink="http://www.w3.org/1999/xlink" x="0px" y="0px"
	 width="612px" height="792px" viewBox="0 0 612 792" enable-background="new 0 0 612 792" xml:space="preserve">
<g>
	<g>
		<path fill-rule="evenodd" clip-rule="evenodd" fill="#FEFEFE" d="M51.014,654.116c-0.005-170.99-0.005-341.981-0.005-513.045
			c170.94,0,341.89,0,512.973,0c0,170.968,0,342.007,0,513.045C393.014,654.116,222.016,654.116,51.014,654.116z M186.325,560.787
			c9.51-0.045,16.639-5.064,23.901-9.781c8.814-5.722,17.601-11.416,15.897-24.094c-0.101-0.753,0.532-1.576,0.606-2.388
			c0.665-7.329,2.883-14.733-1.36-21.795c-4.756-7.915-9.641-15.768-13.995-23.903c-3.304-6.173-9.583-7.047-14.864-9.934
			c-4.472-2.445-8.498-5.854-12.317-9.286c-2.211-1.986-3.099-6.021-5.5-7.107c-6.044-2.735-12.481-5.168-18.998-6.146
			c-7.479-1.122-15.141-0.963-22.042,3.777c-8.494,5.835-15.473,13.071-21.259,21.445c-5.378,7.783-10.938,15.622-9.471,26.016
			c0.154,1.085-0.725,2.511-1.488,3.496c-3.167,4.09-4.013,8.298-1.036,12.822c2.061,3.133,1.886,6.179,0.106,9.389
			c-0.957,1.726-1.766,3.609-2.231,5.521c-1.906,7.835-0.381,10.803,7.32,12.961c4.676,1.312,7.672,4.088,10.361,7.924
			c1.354,1.931,3.997,4.175,6.053,4.171c6.849-0.013,11.524,2.582,15.223,8.353c2.272,3.545,6.257,5.743,10.775,4.782
			c6.109-1.299,12.301-2.524,16.841-7.618c2.128-2.387,4.875-2.91,8.148-1.385C179.907,559.362,183.201,559.893,186.325,560.787z
			 M428.473,290.456c0.858,5.407,1.542,12.518,3.188,19.397c2.261,9.451,7.919,16.822,14.891,23.642
			c6.162,6.027,12.398,11.297,20.968,13.099c3.394,0.713,6.863,1.42,10.305,1.458c4.339,0.047,8.765-0.204,13.006-1.061
			c3.527-0.712,6.914-2.325,10.224-3.843c2.174-0.998,4.5-2.178,6.051-3.911c2.746-3.068,4.797-6.747,7.421-9.939
			c4.341-5.281,6.196-11.082,5.77-18.001c-0.175-2.823,1.866-5.734,2.604-8.679c0.601-2.394,1.658-5.198,0.956-7.299
			c-2.568-7.679-5.491-15.277-8.847-22.646c-3.359-7.377-9.891-11.836-17.586-12.317c-5.48-0.342-9.42-2.278-13.713-5.022
			c-7.938-5.075-23.268-6.282-30.235,1.933c-3.87,4.564-8.524,7.004-14.434,7.886c-5.259,0.785-8.56,4.033-9.001,9.708
			C429.681,279.473,429.124,284.071,428.473,290.456z M174.705,177.998c-1.333,0-2.668,0.048-3.999-0.008
			c-7.377-0.308-12.936,1.693-16.104,9.401c-1.89,4.597-5.066,9.561-9.083,12.204c-8.926,5.872-12.91,14.41-16.078,23.813
			c-3.766,11.171,0.109,24.364,8.909,32.45c2.903,2.667,4.521,6.685,7.169,9.695c2.416,2.745,5.087,6.262,8.264,7.102
			c4.501,1.188,9.719,0.957,14.357,0.003c5.427-1.118,10.25-0.541,14.871,2.047c4.158,2.328,7.725,1.904,10.592-1.769
			c5.909-7.57,11.662-15.263,17.42-22.952c4.572-6.104,4.766-12.597,2.638-19.848c-1.95-6.643-2.461-13.696-3.925-20.5
			c-1.101-5.113-1.34-11.222-4.356-14.956C197.676,185.146,187.993,177.9,174.705,177.998z M472.104,492.658
			c-15.248,0.836-27.368,6.334-35.914,16.613c-6.876,8.271-11.044,18.791-16.412,28.314c-3.284,5.827-1.36,10.516,2.505,15.439
			c3.286,4.185,6.202,8.956,8.004,13.931c2.05,5.66,5.683,8.533,11.181,9.031c4.772,0.432,7.463,2.581,9.157,6.992
			c2.437,6.341,4.338,6.896,10.467,3.961c2.089-1.001,4.11-2.176,6.27-2.99c1.142-0.43,2.869-0.817,3.721-0.271
			c7.601,4.876,13.967,0.522,20.439-2.577c9.271-4.442,14.772-12.19,19.428-21.143c2.865-5.51,2.167-10.02-0.07-15.06
			c-1.063-2.395-1.822-4.927-2.698-7.404c-2.084-5.9-4.263-11.771-6.192-17.724c-1.157-3.571-2.729-7.281-2.686-10.912
			c0.089-7.409-2.367-11.806-9.489-13.318C483.542,494.208,477.146,493.459,472.104,492.658z"/>
		<path fill-rule="evenodd" clip-rule="evenodd" fill="#E5B9D3" d="M186.325,560.787c-3.124-0.895-6.418-1.425-9.328-2.78
			c-3.274-1.525-6.021-1.002-8.148,1.385c-4.541,5.094-10.732,6.319-16.841,7.618c-4.519,0.961-8.503-1.237-10.775-4.782
			c-3.699-5.771-8.374-8.365-15.223-8.353c-2.057,0.004-4.7-2.24-6.053-4.171c-2.689-3.836-5.686-6.612-10.361-7.924
			c-7.701-2.158-9.226-5.126-7.32-12.961c0.465-1.911,1.274-3.795,2.231-5.521c1.779-3.21,1.955-6.256-0.106-9.389
			c-2.977-4.524-2.13-8.732,1.036-12.822c0.763-0.985,1.642-2.411,1.488-3.496c-1.467-10.394,4.093-18.232,9.471-26.016
			c5.786-8.374,12.766-15.61,21.259-21.445c6.901-4.74,14.563-4.899,22.042-3.777c6.516,0.978,12.954,3.41,18.998,6.146
			c2.401,1.087,3.289,5.121,5.5,7.107c3.82,3.432,7.846,6.841,12.317,9.286c5.281,2.887,11.561,3.761,14.864,9.934
			c4.354,8.136,9.238,15.988,13.995,23.903c4.243,7.062,2.024,14.466,1.36,21.795c-0.074,0.812-0.707,1.635-0.606,2.388
			c1.704,12.678-7.083,18.372-15.897,24.094C202.964,555.723,195.835,560.742,186.325,560.787z M105.422,536.384
			c10.264,2.148,13.31,5.704,17.368,10.891c1.53,1.955,4.803,3.101,7.45,3.505c4.793,0.731,9.04,1.083,11.966,6.149
			c4.272,7.4,7.729,8.18,15.686,4.652c3.096-1.372,6.009-3.391,8.614-5.58c3.567-3,6.931-3.578,11.408-1.829
			c3.558,1.392,7.729,2.153,11.515,1.84c10.53-0.875,18.08-8.036,26.032-13.932c4.203-3.115,7.357-7.424,6.94-13.448
			c-0.202-2.915-0.024-6.13,1.021-8.805c2.301-5.893,0.8-11.053-2.087-16.043c-3.573-6.177-8.146-11.889-10.912-18.386
			c-3.008-7.062-8.171-10.313-14.856-12.686c-7.185-2.55-13.11-6.721-16.509-14.103c-0.926-2.013-3.769-3.526-6.063-4.446
			c-4.427-1.775-9.071-3.031-13.665-4.363c-1.561-0.453-3.439-1.078-4.835-0.612c-5.902,1.966-12.374,3.318-17.32,6.777
			c-5.973,4.178-11.362,9.722-15.634,15.659c-5.005,6.958-11.008,13.831-9.807,23.786c0.33,2.732-2.302,5.718-3.042,8.718
			c-0.627,2.548-1.516,5.811-0.483,7.835c2.683,5.258,1.699,9.817-0.409,14.791C106.569,529.66,106.236,532.944,105.422,536.384z"/>
		<path fill-rule="evenodd" clip-rule="evenodd" fill="#E6BAD4" d="M428.473,290.456c0.651-6.385,1.208-10.983,1.567-15.596
			c0.441-5.675,3.742-8.923,9.001-9.708c5.909-0.882,10.563-3.322,14.434-7.886c6.968-8.214,22.297-7.007,30.235-1.933
			c4.293,2.745,8.232,4.681,13.713,5.022c7.695,0.481,14.227,4.94,17.586,12.317c3.355,7.37,6.278,14.967,8.847,22.646
			c0.702,2.101-0.355,4.905-0.956,7.299c-0.738,2.945-2.779,5.855-2.604,8.679c0.427,6.919-1.429,12.72-5.77,18.001
			c-2.624,3.192-4.675,6.871-7.421,9.939c-1.551,1.732-3.877,2.913-6.051,3.911c-3.31,1.518-6.696,3.131-10.224,3.843
			c-4.241,0.857-8.667,1.108-13.006,1.061c-3.441-0.037-6.911-0.745-10.305-1.458c-8.569-1.801-14.806-7.072-20.968-13.099
			c-6.972-6.82-12.63-14.191-14.891-23.642C430.015,302.974,429.331,295.863,428.473,290.456z M432.799,287.481
			c1.63,10.182,0.302,20.952,6.56,30.146c1.819,2.672,3.965,5.184,5.388,8.053c3.597,7.258,9.938,11.472,16.831,14.478
			c10.69,4.665,21.841,5.552,32.973,0.935c2.83-1.174,6.581-1.526,8.346-3.592c4.377-5.123,8.037-10.902,11.583-16.665
			c1.174-1.908,1.471-4.557,1.555-6.889c0.178-4.922-0.525-9.918,3.216-14.073c0.654-0.727,0.866-2.421,0.516-3.391
			c-2.532-7-5.222-13.944-7.942-20.873c-2.563-6.534-9.996-12.513-15.413-11.393c-4.729,0.977-7.62-1.15-11.24-3.345
			c-12.105-7.338-21.212-8.35-31.664,2.331c-3.438,3.513-7.223,5.617-12.173,5.893c-3.973,0.222-6.458,2.655-7.129,6.51
			C433.524,279.503,433.255,283.473,432.799,287.481z"/>
		<path fill-rule="evenodd" clip-rule="evenodd" fill="#E6BAD4" d="M174.705,177.998c13.288-0.098,22.972,7.148,30.674,16.683
			c3.016,3.733,3.256,9.842,4.356,14.956c1.464,6.804,1.975,13.857,3.925,20.5c2.128,7.251,1.935,13.744-2.638,19.848
			c-5.758,7.688-11.511,15.381-17.42,22.952c-2.867,3.673-6.434,4.097-10.592,1.769c-4.62-2.588-9.443-3.165-14.871-2.047
			c-4.638,0.954-9.855,1.186-14.357-0.003c-3.176-0.839-5.848-4.356-8.264-7.102c-2.648-3.01-4.266-7.028-7.169-9.695
			c-8.8-8.086-12.674-21.278-8.909-32.45c3.168-9.403,7.152-17.941,16.078-23.813c4.017-2.644,7.193-7.607,9.083-12.204
			c3.168-7.708,8.727-9.709,16.104-9.401C172.037,178.046,173.372,177.998,174.705,177.998z M174.823,182.011
			c-0.833,0-1.666,0.016-2.498-0.002c-6.718-0.147-11.672,1.536-14.964,8.61c-2.535,5.444-7.243,10.271-11.969,14.186
			c-4.162,3.448-7.182,7.219-9.221,12.043c-3.351,7.925-6.167,15.997-2.078,24.409c1.955,4.02,4.035,8.853,7.498,11.042
			c4.28,2.707,6.655,5.959,7.66,10.347c1.058,4.616,4.008,6.158,8.128,6.321c2.471,0.099,4.965-0.412,7.437-0.326
			c7.064,0.246,14.417-2.578,21.131,2.175c0.896,0.635,3.534,0.031,4.533-0.896c8.208-7.615,14.557-16.678,19.356-26.749
			c0.97-2.035,1.007-4.848,0.599-7.147c-1.612-9.091-4.013-18.058-5.301-27.187C203.121,194.573,189.311,182.012,174.823,182.011z"
			/>
		<path fill-rule="evenodd" clip-rule="evenodd" fill="#E7B8D3" d="M472.104,492.658c5.041,0.801,11.438,1.55,17.709,2.883
			c7.122,1.513,9.578,5.909,9.489,13.318c-0.044,3.631,1.528,7.341,2.686,10.912c1.93,5.952,4.108,11.823,6.192,17.724
			c0.876,2.478,1.636,5.01,2.698,7.404c2.237,5.04,2.936,9.55,0.07,15.06c-4.655,8.952-10.157,16.7-19.428,21.143
			c-6.473,3.1-12.839,7.453-20.439,2.577c-0.852-0.546-2.579-0.158-3.721,0.271c-2.159,0.814-4.181,1.989-6.27,2.99
			c-6.129,2.936-8.03,2.38-10.467-3.961c-1.694-4.411-4.385-6.561-9.157-6.992c-5.498-0.498-9.131-3.371-11.181-9.031
			c-1.802-4.975-4.718-9.746-8.004-13.931c-3.865-4.924-5.789-9.612-2.505-15.439c5.368-9.523,9.536-20.044,16.412-28.314
			C444.736,498.992,456.856,493.494,472.104,492.658z M470.096,495.897c-1.403,0.271-2.861,0.523-4.308,0.833
			c-24.469,5.229-34.379,24.599-43.273,44.822c-1.297,2.947-0.457,5.848,1.958,8.654c3.505,4.074,7.839,8.486,8.876,13.379
			c1.426,6.729,5.063,8.839,10.716,9.307c4.818,0.397,7.451,3.151,9.115,7.189c2.251,5.463,2.798,5.796,8.062,2.382
			c4.993-3.238,9.826-4.305,15.099-0.674c0.862,0.594,2.46,0.691,3.508,0.358c12.195-3.872,21.478-11.153,27.29-22.833
			c1.713-3.441,2.686-6.565,1.432-10.203c-1.836-5.319-4.09-10.526-5.49-15.957c-2.274-8.826-8.119-16.527-7.422-26.374
			c0.312-4.413-3.059-7.563-7.814-8.285C481.968,497.604,476.084,496.771,470.096,495.897z"/>
		<path fill-rule="evenodd" clip-rule="evenodd" fill="#E2B9F3" d="M105.422,536.384c0.814-3.439,1.147-6.724,2.378-9.629
			c2.107-4.974,3.091-9.533,0.409-14.791c-1.033-2.024-0.144-5.287,0.483-7.835c0.739-3,3.371-5.985,3.042-8.718
			c-1.201-9.955,4.802-16.828,9.807-23.786c4.272-5.938,9.662-11.481,15.634-15.659c4.946-3.459,11.417-4.812,17.32-6.777
			c1.396-0.466,3.274,0.159,4.835,0.612c4.594,1.332,9.237,2.588,13.665,4.363c2.293,0.92,5.136,2.434,6.063,4.446
			c3.399,7.382,9.324,11.553,16.509,14.103c6.685,2.373,11.848,5.624,14.856,12.686c2.767,6.497,7.339,12.209,10.912,18.386
			c2.887,4.99,4.389,10.15,2.087,16.043c-1.044,2.675-1.222,5.89-1.021,8.805c0.417,6.024-2.737,10.333-6.94,13.448
			c-7.952,5.896-15.502,13.057-26.032,13.932c-3.786,0.313-7.957-0.448-11.515-1.84c-4.477-1.749-7.841-1.171-11.408,1.829
			c-2.604,2.189-5.518,4.208-8.614,5.58c-7.957,3.527-11.414,2.748-15.686-4.652c-2.926-5.066-7.172-5.418-11.966-6.149
			c-2.647-0.404-5.92-1.55-7.45-3.505C118.732,542.088,115.686,538.532,105.422,536.384z"/>
		<path fill-rule="evenodd" clip-rule="evenodd" fill="#E2B9F3" d="M432.799,287.481c0.456-4.008,0.726-7.978,1.404-11.876
			c0.671-3.855,3.156-6.289,7.129-6.51c4.95-0.276,8.734-2.38,12.173-5.893c10.452-10.68,19.559-9.669,31.664-2.331
			c3.62,2.195,6.511,4.321,11.24,3.345c5.417-1.12,12.85,4.859,15.413,11.393c2.721,6.929,5.41,13.874,7.942,20.873
			c0.351,0.97,0.139,2.665-0.516,3.391c-3.741,4.154-3.038,9.151-3.216,14.073c-0.084,2.333-0.381,4.981-1.555,6.889
			c-3.546,5.763-7.206,11.542-11.583,16.665c-1.765,2.066-5.516,2.418-8.346,3.592c-11.132,4.618-22.282,3.73-32.973-0.935
			c-6.893-3.006-13.234-7.22-16.831-14.478c-1.423-2.87-3.568-5.381-5.388-8.053C433.101,308.433,434.429,297.663,432.799,287.481z"
			/>
		<path fill-rule="evenodd" clip-rule="evenodd" fill="#E2B9F3" d="M174.823,182.011c14.487,0.001,28.298,12.562,30.311,26.826
			c1.289,9.129,3.689,18.096,5.301,27.187c0.408,2.299,0.371,5.112-0.599,7.147c-4.799,10.071-11.148,19.134-19.356,26.749
			c-0.999,0.927-3.637,1.531-4.533,0.896c-6.713-4.753-14.066-1.929-21.131-2.175c-2.472-0.086-4.966,0.425-7.437,0.326
			c-4.121-0.163-7.071-1.705-8.128-6.321c-1.005-4.388-3.38-7.64-7.66-10.347c-3.462-2.19-5.543-7.023-7.498-11.042
			c-4.089-8.412-1.273-16.483,2.078-24.409c2.04-4.824,5.059-8.595,9.221-12.043c4.726-3.914,9.434-8.741,11.969-14.186
			c3.292-7.074,8.247-8.758,14.964-8.61C173.158,182.026,173.991,182.011,174.823,182.011z"/>
		<path fill-rule="evenodd" clip-rule="evenodd" fill="#E2B9F3" d="M470.096,495.897c5.988,0.874,11.872,1.706,17.747,2.599
			c4.756,0.723,8.126,3.872,7.814,8.285c-0.697,9.847,5.147,17.548,7.422,26.374c1.4,5.431,3.654,10.638,5.49,15.957
			c1.254,3.638,0.281,6.762-1.432,10.203c-5.813,11.68-15.095,18.961-27.29,22.833c-1.048,0.333-2.646,0.235-3.508-0.358
			c-5.272-3.631-10.105-2.564-15.099,0.674c-5.264,3.414-5.811,3.081-8.062-2.382c-1.664-4.038-4.297-6.792-9.115-7.189
			c-5.652-0.468-9.29-2.578-10.716-9.307c-1.037-4.893-5.371-9.305-8.876-13.379c-2.415-2.807-3.255-5.707-1.958-8.654
			c8.895-20.224,18.805-39.593,43.273-44.822C467.234,496.421,468.692,496.168,470.096,495.897z"/>
	</g>
</g>
</svg>
