<?xml version="1.0" encoding="utf-8"?>
<!-- Generator: Adobe Illustrator 16.0.3, SVG Export Plug-In . SVG Version: 6.00 Build 0)  -->
<!DOCTYPE svg PUBLIC "-//W3C//DTD SVG 1.1//EN" "http://www.w3.org/Graphics/SVG/1.1/DTD/svg11.dtd">
<svg version="1.1" id="Capa_1" xmlns="http://www.w3.org/2000/svg" xmlns:xlink="http://www.w3.org/1999/xlink" x="0px" y="0px"
	 width="612px" height="792px" viewBox="0 0 612 792" enable-background="new 0 0 612 792" xml:space="preserve">
<g>
	<g>
		<path fill-rule="evenodd" clip-rule="evenodd" fill="#FEFEFE" d="M564.116,654.095c-170.982,0-341.965,0-513.032,0
			c0-170.919,0-341.86,0-512.948c170.955,0,341.994,0,513.032,0C564.116,312.079,564.116,483.076,564.116,654.095z M206.637,526.56
			c-0.666-5.069-1.383-10.133-1.982-15.21c-0.637-5.4-3.127-9.501-7.526-12.826c-3.557-2.688-7.328-5.631-9.629-9.319
			c-3.556-5.696-8.282-7.553-14.574-8.33c-4.767-0.589-10.71-1.685-13.626-4.856c-4.257-4.631-8.397-6.46-14.271-6.021
			c-2.888,0.216-5.829,0.053-8.722-0.203c-7.56-0.67-13.386,2.736-17.258,8.619c-4.536,6.89-8.453,14.261-11.925,21.755
			c-2.87,6.19-4.452,12.821-1.753,19.776c0.568,1.465-0.434,3.467-0.348,5.204c0.146,2.937-0.359,6.495,1.099,8.65
			c2.668,3.944,3.464,7.493,2.186,12.058c-1.393,4.971,1.057,9.798,5.54,10.515c5.478,0.876,10.52,1.747,14.701,6.061
			c1.278,1.318,4.799,0.279,7.219,0.723c2.99,0.548,6.332,0.854,8.77,2.429c7.383,4.768,14.198,3.987,19.716-2.958
			c3.183-4.005,5.983-8.721,12.463-5.749c0.709,0.325,1.88-0.413,2.849-0.586c6.903-1.234,12.164-5.633,16.608-10.33
			C201.266,540.577,207.516,535.281,206.637,526.56z M443.279,289.185c1.454,5.562,2.311,11.558,4.573,16.964
			c5.563,13.285,14.254,23.219,29.152,27.052c8.346,2.147,15.922-0.566,23.831-1.196c1.101-0.087,2.126-1.494,3.131-2.357
			c1.886-1.623,4.035-3.058,5.532-4.992c3.54-4.575,9.198-7.767,9.014-14.88c-0.06-2.292,2.281-4.568,3.176-6.981
			c0.982-2.65,2.185-5.455,2.162-8.183c-0.029-3.522-1.156-7.039-1.853-10.549c-0.645-3.252-1.115-6.562-2.067-9.724
			c-1.852-6.148-6.117-10.937-12.15-11.949c-4.372-0.734-7.388-2.243-10.074-5.28c-6.657-7.526-19.315-10.054-28.87-2.697
			c-2.786,2.147-6.988,3.401-10.54,3.396c-5.741-0.01-8.893,2.442-10.089,7.575C446.407,273.1,444.976,280.9,443.279,289.185z
			 M130.024,229.206c0.015,9.671,7.036,19.082,16.341,22.871c3.197,1.301,6.061,3.725,8.67,6.085
			c2.829,2.558,5.298,4.849,9.577,3.197c4.45-1.717,9.036-3.129,13.645-4.371c3.309-0.892,6.803-1.985,10.126-1.75
			c6.852,0.484,8.785,0.072,11.626-6.279c3.558-7.954,6.956-16.021,9.672-24.286c0.929-2.825,0.44-6.798-0.87-9.547
			c-3.6-7.551-7.776-14.854-12.113-22.02c-3.525-5.826-7.508-11.195-14.839-13.115c-10.053-2.634-19.61-4.726-29.825,0.556
			c-4.667,2.414-7.292,4.615-8.368,9.717c-0.973,4.611-2.143,9.862-5.064,13.241C132.03,211.107,130.083,219.71,130.024,229.206z
			 M476.928,589.43c0.213-0.475,0.426-0.949,0.64-1.424c11.525,1.068,20.034-4.845,27.941-12.047
			c0.781-0.711,1.391-1.944,1.506-2.998c0.662-6.077,1.188-12.169,1.689-18.263c0.553-6.726-1.47-13.467,2.022-20.24
			c1.977-3.835,0.792-8.812-3.621-11.905c-6.529-4.577-12.896-9.332-21.588-8.525c-2.447,0.227-5.025-0.657-7.428-0.283
			c-4.692,0.73-10.054,0.836-13.79,3.27c-7.745,5.046-14.662,11.38-21.813,17.314c-3.625,3.008-3.96,6.84-2.754,11.316
			c1.192,4.427,2.254,9.074,2.177,13.604c-0.078,4.618,1.585,7.857,5.148,10.031c3.67,2.238,5.359,4.909,5.131,9.335
			c-0.236,4.593,1.649,5.514,6.192,4.993c2.792-0.319,5.878-0.006,8.533,0.899C470.406,585.698,473.604,587.749,476.928,589.43z"/>
		<path fill-rule="evenodd" clip-rule="evenodd" fill="#EAC7DC" d="M206.637,526.56c0.879,8.722-5.372,14.018-10.465,19.4
			c-4.445,4.697-9.706,9.096-16.608,10.33c-0.969,0.173-2.14,0.911-2.849,0.586c-6.479-2.972-9.28,1.744-12.463,5.749
			c-5.518,6.945-12.333,7.726-19.716,2.958c-2.438-1.574-5.78-1.881-8.77-2.429c-2.42-0.443-5.941,0.596-7.219-0.723
			c-4.181-4.313-9.223-5.185-14.701-6.061c-4.483-0.717-6.933-5.544-5.54-10.515c1.279-4.564,0.482-8.113-2.186-12.058
			c-1.458-2.155-0.954-5.714-1.099-8.65c-0.086-1.737,0.916-3.739,0.348-5.204c-2.699-6.955-1.116-13.586,1.753-19.776
			c3.472-7.494,7.39-14.865,11.925-21.755c3.872-5.883,9.699-9.289,17.258-8.619c2.893,0.256,5.834,0.419,8.722,0.203
			c5.874-0.439,10.014,1.39,14.271,6.021c2.916,3.172,8.859,4.268,13.626,4.856c6.292,0.777,11.019,2.634,14.574,8.33
			c2.301,3.688,6.072,6.632,9.629,9.319c4.399,3.325,6.89,7.426,7.526,12.826C205.254,516.427,205.972,521.49,206.637,526.56z
			 M111.908,546.693c-0.737,4.781,1.065,6.467,6.033,6.663c2.989,0.118,6.134,2.23,8.746,4.096c2.111,1.509,3.744,1.989,6.49,2.07
			c4.728,0.142,10.063,1.225,13.897,3.779c3.519,2.346,6.3,2.98,9.34,0.933c3.068-2.066,6.072-4.621,8.182-7.611
			c2.463-3.49,5.285-4.442,9.264-4.186c2.874,0.185,5.958,0.094,8.668-0.763c6.283-1.987,10.107-7.152,14.399-11.817
			c5.017-5.453,7.967-11.054,6.155-18.763c-1.724-7.329-1.414-15.184-8.107-20.72c-4.56-3.772-8.252-8.587-12.772-12.416
			c-2.24-1.898-5.358-3.174-8.276-3.772c-6.483-1.331-13.66-1.359-18-7.093c-2.517-3.323-5.063-4.315-8.795-4.051
			c-2.319,0.165-4.772,0.465-6.97-0.081c-5.337-1.323-9.806,0.361-13.922,3.379c-8.139,5.967-12.082,14.777-15.283,23.87
			c-1.672,4.751-2.763,9.805-3.343,14.812c-0.515,4.448,0.033,9.021,0.122,13.538c0.018,0.926-0.301,2.201,0.178,2.72
			C112.04,535.737,114.062,540.666,111.908,546.693z"/>
		<path fill-rule="evenodd" clip-rule="evenodd" fill="#EDC7DC" d="M443.279,289.185c1.696-8.285,3.128-16.085,4.928-23.801
			c1.196-5.133,4.348-7.584,10.089-7.575c3.552,0.006,7.754-1.249,10.54-3.396c9.555-7.357,22.213-4.829,28.87,2.697
			c2.687,3.037,5.702,4.546,10.074,5.28c6.033,1.012,10.299,5.8,12.15,11.949c0.952,3.162,1.423,6.472,2.067,9.724
			c0.696,3.511,1.823,7.027,1.853,10.549c0.022,2.728-1.18,5.532-2.162,8.183c-0.895,2.413-3.235,4.689-3.176,6.981
			c0.185,7.114-5.474,10.305-9.014,14.88c-1.497,1.934-3.646,3.37-5.532,4.992c-1.005,0.863-2.03,2.27-3.131,2.357
			c-7.909,0.629-15.485,3.343-23.831,1.196c-14.898-3.833-23.59-13.767-29.152-27.052
			C445.59,300.743,444.733,294.747,443.279,289.185z M448.09,285.965c-0.002,21.096,10.673,35.722,26.974,42.417
			c6.382,2.622,11.97,2.04,18.268,0.834c7.455-1.427,19.552-10.637,21.456-17.865c1.158-4.398,0.805-9.264,4.775-12.646
			c0.572-0.487,0.652-1.925,0.49-2.84c-1.292-7.301-1.753-14.958-4.438-21.724c-1.506-3.792-6.344-7.342-10.44-8.692
			c-3.394-1.117-6.295-2.029-8.823-4.605c-8.068-8.217-15.944-8.811-25.947-2.827c-2.83,1.693-6.465,2.84-9.727,2.831
			c-5.342-0.017-8.304,2.46-9.344,7.124C449.757,275.046,448.743,282.246,448.09,285.965z"/>
		<path fill-rule="evenodd" clip-rule="evenodd" fill="#EBC6DC" d="M130.024,229.206c0.059-9.496,2.006-18.099,8.578-25.701
			c2.922-3.379,4.091-8.63,5.064-13.241c1.076-5.102,3.701-7.303,8.368-9.717c10.215-5.282,19.772-3.189,29.825-0.556
			c7.331,1.92,11.314,7.29,14.839,13.115c4.336,7.166,8.513,14.469,12.113,22.02c1.31,2.749,1.799,6.722,0.87,9.547
			c-2.717,8.265-6.115,16.332-9.672,24.286c-2.841,6.351-4.774,6.763-11.626,6.279c-3.323-0.235-6.817,0.858-10.126,1.75
			c-4.609,1.242-9.195,2.654-13.645,4.371c-4.278,1.652-6.748-0.639-9.577-3.197c-2.609-2.361-5.474-4.784-8.67-6.085
			C137.061,248.288,130.04,238.877,130.024,229.206z M134.022,228.39c0,10.382,5.578,17.556,16.393,20.763
			c2.108,0.625,4.643,1.914,5.681,3.666c3.56,6.01,8.242,5.678,13.667,3.425c2.297-0.954,4.611-2.034,7.025-2.505
			c4.957-0.968,10.024-1.386,14.967-2.411c1.792-0.371,4.23-1.428,4.883-2.855c3.313-7.236,6.614-14.552,8.908-22.146
			c0.982-3.25,0.43-7.668-1.031-10.808c-3.275-7.041-7.909-13.441-11.323-20.427c-3.14-6.425-7.669-10.169-14.511-12.507
			c-9.844-3.362-18.855-2.596-27.627,2.515c-1.331,0.774-2.351,2.458-3.009,3.944c-2.788,6.296-4.586,13.191-8.265,18.887
			C135.777,214.126,133.841,220.386,134.022,228.39z"/>
		<path fill-rule="evenodd" clip-rule="evenodd" fill="#ECC7DC" d="M476.928,589.43c-3.324-1.681-6.521-3.731-10.013-4.922
			c-2.655-0.905-5.741-1.219-8.533-0.899c-4.543,0.521-6.429-0.4-6.192-4.993c0.229-4.426-1.461-7.097-5.131-9.335
			c-3.563-2.174-5.227-5.413-5.148-10.031c0.077-4.53-0.984-9.178-2.177-13.604c-1.206-4.477-0.871-8.309,2.754-11.316
			c7.15-5.935,14.067-12.269,21.813-17.314c3.736-2.434,9.098-2.539,13.79-3.27c2.402-0.374,4.98,0.51,7.428,0.283
			c8.691-0.807,15.059,3.948,21.588,8.525c4.413,3.094,5.598,8.07,3.621,11.905c-3.492,6.773-1.47,13.515-2.022,20.24
			c-0.501,6.094-1.027,12.186-1.689,18.263c-0.115,1.054-0.725,2.287-1.506,2.998c-7.907,7.202-16.416,13.115-27.941,12.047
			C477.354,588.48,477.141,588.955,476.928,589.43z M455.109,579.771c1.908,0.149,3.049,0.215,4.183,0.333
			c3.079,0.321,7.392-0.488,8.991,1.227c4.12,4.416,8.88,3.927,13.765,3.725c7.959-0.328,13.776-5.058,19.535-9.895
			c3.582-3.008,3.858-6.625,2.678-10.753c-0.153-0.534,0.466-1.243,0.524-1.89c0.466-5.101,0.839-10.21,1.328-15.309
			c0.417-4.339,0.67-8.722,1.515-12.981c0.769-3.873,0.885-7.143-2.749-9.716c-10.097-7.146-20.939-10.645-33.194-6.718
			c-11.78,3.775-20.188,12.299-28.267,21.061c-1.06,1.149-0.612,3.969-0.393,5.962c0.546,4.972,1.218,9.94,2.141,14.855
			c0.396,2.104,0.977,5.13,2.444,5.908C453.314,568.606,455.812,573.029,455.109,579.771z"/>
		<path fill-rule="evenodd" clip-rule="evenodd" fill="#E8C7F5" d="M111.908,546.693c2.153-6.027,0.131-10.956-3.994-15.413
			c-0.479-0.519-0.16-1.794-0.178-2.72c-0.088-4.518-0.637-9.09-0.122-13.538c0.58-5.007,1.671-10.061,3.343-14.812
			c3.201-9.093,7.144-17.903,15.283-23.87c4.116-3.018,8.584-4.702,13.922-3.379c2.198,0.546,4.651,0.246,6.97,0.081
			c3.732-0.265,6.279,0.728,8.795,4.051c4.34,5.733,11.517,5.762,18,7.093c2.917,0.599,6.036,1.874,8.276,3.772
			c4.52,3.829,8.212,8.644,12.772,12.416c6.693,5.536,6.383,13.391,8.107,20.72c1.813,7.709-1.138,13.31-6.155,18.763
			c-4.292,4.665-8.116,9.83-14.399,11.817c-2.71,0.856-5.794,0.947-8.668,0.763c-3.979-0.257-6.801,0.695-9.264,4.186
			c-2.11,2.99-5.114,5.545-8.182,7.611c-3.04,2.048-5.821,1.413-9.34-0.933c-3.834-2.555-9.169-3.638-13.897-3.779
			c-2.746-0.081-4.378-0.562-6.49-2.07c-2.611-1.865-5.757-3.978-8.746-4.096C112.973,553.16,111.171,551.475,111.908,546.693z"/>
		<path fill-rule="evenodd" clip-rule="evenodd" fill="#E8C7F5" d="M448.09,285.965c0.653-3.719,1.667-10.918,3.243-17.994
			c1.04-4.664,4.002-7.141,9.344-7.124c3.262,0.01,6.896-1.138,9.727-2.831c10.003-5.984,17.879-5.39,25.947,2.827
			c2.528,2.577,5.43,3.488,8.823,4.605c4.097,1.35,8.935,4.9,10.44,8.692c2.686,6.766,3.146,14.422,4.438,21.724
			c0.162,0.915,0.082,2.353-0.49,2.84c-3.971,3.382-3.617,8.248-4.775,12.646c-1.904,7.228-14.001,16.438-21.456,17.865
			c-6.298,1.206-11.886,1.788-18.268-0.834C458.763,321.687,448.088,307.061,448.09,285.965z"/>
		<path fill-rule="evenodd" clip-rule="evenodd" fill="#E8C7F5" d="M134.022,228.39c-0.181-8.004,1.755-14.264,5.757-20.459
			c3.678-5.696,5.477-12.591,8.265-18.887c0.658-1.487,1.679-3.17,3.009-3.944c8.772-5.111,17.784-5.877,27.627-2.515
			c6.842,2.337,11.371,6.082,14.511,12.507c3.414,6.986,8.047,13.387,11.323,20.427c1.461,3.14,2.014,7.559,1.031,10.808
			c-2.294,7.594-5.595,14.91-8.908,22.146c-0.653,1.427-3.09,2.484-4.883,2.855c-4.943,1.024-10.01,1.442-14.967,2.411
			c-2.414,0.472-4.728,1.551-7.025,2.505c-5.425,2.253-10.107,2.585-13.667-3.425c-1.038-1.752-3.572-3.041-5.681-3.666
			C139.6,245.946,134.021,238.772,134.022,228.39z"/>
		<path fill-rule="evenodd" clip-rule="evenodd" fill="#E8C7F5" d="M455.109,579.771c0.702-6.741-1.795-11.164-7.499-14.19
			c-1.468-0.778-2.049-3.804-2.444-5.908c-0.923-4.915-1.595-9.884-2.141-14.855c-0.22-1.993-0.667-4.813,0.393-5.962
			c8.078-8.762,16.486-17.285,28.267-21.061c12.255-3.927,23.098-0.429,33.194,6.718c3.634,2.573,3.518,5.843,2.749,9.716
			c-0.845,4.26-1.098,8.643-1.515,12.981c-0.489,5.099-0.862,10.208-1.328,15.309c-0.059,0.646-0.678,1.355-0.524,1.89
			c1.181,4.128,0.904,7.745-2.678,10.753c-5.759,4.837-11.576,9.566-19.535,9.895c-4.885,0.202-9.645,0.691-13.765-3.725
			c-1.6-1.715-5.912-0.905-8.991-1.227C458.158,579.985,457.018,579.92,455.109,579.771z"/>
	</g>
</g>
</svg>
