<?xml version="1.0" encoding="utf-8"?>
<!-- Generator: Adobe Illustrator 16.0.3, SVG Export Plug-In . SVG Version: 6.00 Build 0)  -->
<!DOCTYPE svg PUBLIC "-//W3C//DTD SVG 1.1//EN" "http://www.w3.org/Graphics/SVG/1.1/DTD/svg11.dtd">
<svg version="1.1" id="Capa_1" xmlns="http://www.w3.org/2000/svg" xmlns:xlink="http://www.w3.org/1999/xlink" x="0px" y="0px"
	 width="612px" height="792px" viewBox="0 0 612 792" enable-background="new 0 0 612 792" xml:space="preserve">
<g>
	<g>
		<path fill-rule="evenodd" clip-rule="evenodd" fill="#FEFEFE" d="M51,141c171.039,0,342.078,0,513.116,0
			c0,171.039,0,342.078,0,513.116c-171.038,0-342.077,0-513.116,0C51,483.078,51,312.039,51,141z M162.074,563.146
			c1.667-1.814,3.581-3.464,4.933-5.489c1.448-2.168,1.823-6.13,3.611-6.805c7.357-2.771,11.329-8.088,14.901-14.742
			c7.428-13.839-3.024-34.323-16.174-36.917c-3.837-0.757-7.43-2.689-11.244-3.651c-3.188-0.805-6.65-1.736-9.788-1.264
			c-5.764,0.868-11.181,3.358-17.175,0.05c-1.812-1-5.11,0.369-7.618,1.055c-1.894,0.518-3.545,2.213-5.422,2.446
			c-6.837,0.853-9.866,5.868-12.1,11.209c-6.691,15.993-1.573,30.815,5.249,45.344c0.268,0.569,0.783,1.24,1.332,1.428
			c4.5,1.534,5.991,5.225,7.407,9.314c1.38,3.989,3.618,7.27,8.806,4.287c1.03-0.592,2.631-0.431,3.928-0.277
			c5.05,0.599,9.968,1.27,14.56-2.132c1.116-0.827,3.441,0.147,5.17-0.054c3.516-0.411,8.447,2.551,9.628-3.804L162.074,563.146z
			 M453.914,283.079c0.811,10.524,4.882,21.12,15.146,28.29c5.795,4.048,11.965,6.774,19.674,7.106
			c10.618,0.456,23.952-5.948,28.332-15.766c0.573-1.287,1.805-2.264,2.583-3.479c0.906-1.417,2.196-2.877,2.364-4.423
			c0.565-5.201,0.798-10.445,0.983-15.678c0.181-5.075-5.532-12.922-9.798-14.737c-2.506-1.067-5.145-2.826-6.67-5.009
			c-4.844-6.934-12.791-10.175-20.816-8.541c-4.562,0.929-9.342,1.178-14.01,1.076c-4.313-0.093-8.004,0.526-10.201,4.553
			C457.252,264.254,454.185,272.422,453.914,283.079z M192.442,215.276c-0.134-0.015-0.269-0.029-0.403-0.044
			c0-2-0.113-4.006,0.023-5.996c0.324-4.729-1.062-8.574-4.775-11.778c-5.193-4.48-9.997-9.41-15.152-13.936
			c-8.407-7.379-17.901-8.665-27.489-3.225c-6.466,3.667-12.11,8.243-10.717,17.226c0.501,3.229,0.645,6.87-0.343,9.899
			c-2.063,6.333-2.04,12.254-0.83,18.871c1.921,10.506,11.513,15.799,19.184,16.766c2.092,0.264,4.498,0.458,6.123,1.595
			c6.367,4.455,10.431,2.299,15.337-2.459c3.678-3.568,7.471-6.932,12.836-7.791c3.2-0.512,4.783-2.317,4.889-5.81
			C191.261,224.145,191.977,219.714,192.442,215.276z M487.096,531.096c-8.595-0.75-15.978,3.924-23.863,6.844
			c-4.293,1.59-6.033,4.647-6.227,9.164c-0.153,3.569-1.365,7.095-1.525,10.666c-0.111,2.49,0.219,5.3,1.328,7.467
			c1.405,2.743,2.948,5.018,1.53,8.311c-0.482,1.121,0.127,3.969,0.588,4.05c6.306,1.115,9.554,7.084,14.841,9.273
			c4.412,1.827,9.816,2.555,14.554,1.958c5.62-0.707,11.992-1.335,14.77-8.195c3.389-8.369,7.147-16.59,10.846-24.831
			c1.619-3.609,2.506-6.832-0.101-10.629C507.406,535.808,498.917,530.74,487.096,531.096z"/>
		<path fill-rule="evenodd" clip-rule="evenodd" fill="#EAC7DC" d="M162.077,563.145c-1.181,6.354-6.112,3.393-9.628,3.804
			c-1.729,0.201-4.054-0.773-5.17,0.054c-4.591,3.401-9.51,2.73-14.56,2.132c-1.297-0.153-2.898-0.314-3.928,0.277
			c-5.188,2.982-7.425-0.298-8.806-4.287c-1.416-4.09-2.907-7.78-7.407-9.314c-0.548-0.188-1.063-0.858-1.332-1.428
			c-6.822-14.528-11.94-29.351-5.249-45.344c2.234-5.341,5.263-10.356,12.1-11.209c1.876-0.233,3.528-1.929,5.422-2.446
			c2.508-0.686,5.806-2.055,7.618-1.055c5.994,3.309,11.411,0.818,17.175-0.05c3.138-0.473,6.6,0.459,9.788,1.264
			c3.814,0.962,7.407,2.895,11.244,3.651c13.15,2.594,23.602,23.078,16.174,36.917c-3.572,6.654-7.543,11.971-14.901,14.742
			c-1.788,0.675-2.163,4.637-3.611,6.805c-1.352,2.025-3.266,3.675-4.933,5.489c1.331-3.902,2.493-7.875,4.083-11.667
			c0.564-1.348,1.997-2.897,3.331-3.26c7.27-1.976,11.674-6.667,13.559-13.738c1.18-4.426,3.791-9.686,2.432-13.329
			c-3.131-8.398-7.151-16.996-17.431-19.63c-3.824-0.979-7.403-2.898-11.216-3.944c-2.404-0.659-5.049-0.777-7.56-0.644
			c-5.021,0.268-10.56,2.468-14.921,1.004c-8.614-2.892-14.626,1.569-20.759,5.33c-6.113,3.748-6.499,10.979-7.131,17.336
			c-0.793,7.979-1.01,15.921,3.759,23.327c3.089,4.798,3.708,11.221,9.701,14.043c0.236,0.111,0.385,0.558,0.446,0.872
			c1.353,6.989,4.256,9.974,12.3,7.61c4.527-1.329,10.12,1.284,14.669-2.474c0.676-0.559,2.165-0.106,3.275-0.168
			C154.434,563.604,158.255,563.37,162.077,563.145z"/>
		<path fill-rule="evenodd" clip-rule="evenodd" fill="#EBC7DD" d="M453.914,283.079c0.271-10.657,3.338-18.825,7.587-26.608
			c2.197-4.026,5.889-4.646,10.201-4.553c4.668,0.102,9.448-0.147,14.01-1.076c8.025-1.634,15.973,1.607,20.816,8.541
			c1.525,2.183,4.164,3.942,6.67,5.009c4.266,1.815,9.979,9.662,9.798,14.737c-0.186,5.233-0.418,10.477-0.983,15.678
			c-0.168,1.545-1.458,3.006-2.364,4.423c-0.778,1.215-2.01,2.193-2.583,3.479c-4.38,9.818-17.714,16.222-28.332,15.766
			c-7.709-0.332-13.879-3.058-19.674-7.106C458.796,304.199,454.725,293.603,453.914,283.079z M519.514,294.54
			c0.126-2.019,0.323-4.253,0.388-6.492c0.064-2.251-0.277-4.546,0.043-6.751c0.674-4.646-2.795-13.076-6.746-13.924
			c-4.023-0.863-6.243-3.186-8.535-6.181c-5.115-6.683-11.554-10.994-22.706-6.387c-2.233,0.923-5.11,0.554-7.662,0.379
			c-3.727-0.256-7.942-1.011-9.637,3.146c-2.914,7.158-6.684,14.51-7.201,21.981c-0.858,12.4,3.953,22.567,15.282,30.078
			c7.283,4.828,15.002,6.791,22.14,5.017c7.521-1.869,16.233-4.77,19.01-14.487C514.559,298.572,517.401,296.846,519.514,294.54z"/>
		<path fill-rule="evenodd" clip-rule="evenodd" fill="#EBC7DC" d="M192.442,215.276c-0.465,4.438-1.182,8.869-1.317,13.317
			c-0.106,3.493-1.689,5.298-4.889,5.81c-5.366,0.859-9.158,4.223-12.836,7.791c-4.906,4.759-8.97,6.915-15.337,2.459
			c-1.625-1.137-4.03-1.332-6.123-1.595c-7.671-0.967-17.263-6.259-19.184-16.766c-1.209-6.617-1.233-12.537,0.83-18.871
			c0.987-3.03,0.844-6.67,0.343-9.899c-1.394-8.983,4.25-13.558,10.717-17.226c9.588-5.44,19.082-4.154,27.489,3.225
			c5.155,4.526,9.959,9.456,15.152,13.936c3.713,3.204,5.099,7.049,4.775,11.778c-0.136,1.99-0.023,3.996-0.023,5.996
			C192.174,215.247,192.308,215.261,192.442,215.276z M158.698,180.69c-3.43,0.468-6.901,0.736-10.279,1.447
			c-6.441,1.353-11.369,7.667-11.41,14.163c-0.025,3.983,0.993,8.467-0.479,11.845c-2.843,6.524-1.707,12.49-0.076,18.763
			c1.999,7.69,5.729,11.027,13.438,12.189c3.25,0.489,7.201,0.565,9.474,2.46c5.364,4.47,8.574,1,12.539-1.81
			c4.229-2.997,8.931-5.33,13.133-8.359c1.726-1.243,3.486-3.414,3.825-5.401c0.714-4.189,0.738-8.544,0.608-12.817
			c-0.163-5.34,0.08-10.707-5.241-14.57c-4.367-3.17-8.477-6.99-11.799-11.228C168.758,182.688,164.526,180.523,158.698,180.69z"/>
		<path fill-rule="evenodd" clip-rule="evenodd" fill="#EDC8DD" d="M487.096,531.096c11.821-0.355,20.311,4.712,26.74,14.077
			c2.606,3.797,1.72,7.02,0.101,10.629c-3.698,8.241-7.457,16.462-10.846,24.831c-2.777,6.86-9.149,7.488-14.77,8.195
			c-4.737,0.597-10.142-0.131-14.554-1.958c-5.287-2.189-8.535-8.158-14.841-9.273c-0.461-0.081-1.07-2.929-0.588-4.05
			c1.418-3.293-0.125-5.567-1.53-8.311c-1.109-2.167-1.439-4.977-1.328-7.467c0.16-3.571,1.372-7.097,1.525-10.666
			c0.193-4.517,1.934-7.574,6.227-9.164C471.118,535.02,478.501,530.346,487.096,531.096z M484.291,532.831
			c-4.881,1.818-11.942,4.559-19.087,7.063c-3.66,1.282-5.214,3.523-5.196,7.43c0.014,3.081,0,6.538-1.326,9.157
			c-1.739,3.436-1.348,6.016,0.992,8.481c2.175,2.289,2.963,4.531,1.799,7.639c-1.06,2.826,0.333,4.024,3.318,4.659
			c2.213,0.47,4.188,2.252,6.159,3.608c2.203,1.518,4.076,3.683,6.459,4.737c5.465,2.417,10.899,1.148,16.374-0.728
			c3.93-1.347,6.044-3.437,7.566-7.503c3.05-8.14,7.28-15.831,10.642-23.866c0.739-1.768,0.601-4.606-0.344-6.259
			C506.229,537.775,497.386,533.91,484.291,532.831z"/>
		<path fill-rule="evenodd" clip-rule="evenodd" fill="#E8C7F5" d="M162.077,563.145c-3.822,0.226-7.643,0.459-11.465,0.671
			c-1.11,0.062-2.6-0.391-3.275,0.168c-4.55,3.758-10.143,1.145-14.669,2.474c-8.044,2.363-10.947-0.621-12.3-7.61
			c-0.061-0.314-0.209-0.761-0.446-0.872c-5.993-2.822-6.612-9.245-9.701-14.043c-4.769-7.406-4.552-15.348-3.759-23.327
			c0.632-6.356,1.019-13.588,7.131-17.336c6.133-3.761,12.145-8.222,20.759-5.33c4.362,1.464,9.9-0.736,14.921-1.004
			c2.51-0.134,5.156-0.016,7.56,0.644c3.813,1.046,7.392,2.965,11.216,3.944c10.28,2.634,14.3,11.231,17.431,19.63
			c1.359,3.644-1.252,8.903-2.432,13.329c-1.884,7.071-6.289,11.763-13.559,13.738c-1.333,0.362-2.766,1.912-3.331,3.26
			c-1.591,3.792-2.752,7.765-4.083,11.667L162.077,563.145z"/>
		<path fill-rule="evenodd" clip-rule="evenodd" fill="#E8C7F5" d="M519.514,294.54c-2.112,2.306-4.955,4.032-5.625,6.379
			c-2.776,9.717-11.489,12.618-19.01,14.487c-7.138,1.773-14.856-0.189-22.14-5.017c-11.329-7.511-16.141-17.678-15.282-30.078
			c0.518-7.471,4.287-14.824,7.201-21.981c1.694-4.157,5.91-3.402,9.637-3.146c2.552,0.175,5.429,0.544,7.662-0.379
			c11.152-4.606,17.591-0.296,22.706,6.387c2.292,2.995,4.512,5.318,8.535,6.181c3.951,0.848,7.42,9.279,6.746,13.924
			c-0.32,2.206,0.021,4.5-0.043,6.751C519.837,290.287,519.64,292.521,519.514,294.54z"/>
		<path fill-rule="evenodd" clip-rule="evenodd" fill="#E8C7F5" d="M158.698,180.69c5.828-0.167,10.06,1.998,13.732,6.681
			c3.323,4.238,7.432,8.058,11.799,11.228c5.321,3.863,5.078,9.23,5.241,14.57c0.13,4.273,0.106,8.628-0.608,12.817
			c-0.339,1.988-2.1,4.158-3.825,5.401c-4.202,3.029-8.904,5.363-13.133,8.359c-3.965,2.81-7.175,6.28-12.539,1.81
			c-2.273-1.895-6.224-1.971-9.474-2.46c-7.709-1.162-11.438-4.499-13.438-12.189c-1.631-6.272-2.767-12.239,0.076-18.763
			c1.472-3.378,0.454-7.861,0.479-11.845c0.041-6.497,4.969-12.811,11.41-14.163C151.797,181.426,155.269,181.158,158.698,180.69z"
			/>
		<path fill-rule="evenodd" clip-rule="evenodd" fill="#E8C7F5" d="M484.291,532.831c13.095,1.079,21.938,4.944,27.356,14.42
			c0.944,1.652,1.083,4.491,0.344,6.259c-3.361,8.035-7.592,15.727-10.642,23.866c-1.522,4.066-3.637,6.156-7.566,7.503
			c-5.475,1.876-10.909,3.145-16.374,0.728c-2.383-1.055-4.256-3.22-6.459-4.737c-1.972-1.356-3.946-3.139-6.159-3.608
			c-2.985-0.635-4.378-1.833-3.318-4.659c1.164-3.107,0.376-5.35-1.799-7.639c-2.34-2.466-2.731-5.046-0.992-8.481
			c1.326-2.619,1.34-6.076,1.326-9.157c-0.018-3.906,1.536-6.147,5.196-7.43C472.349,537.39,479.41,534.649,484.291,532.831z"/>
	</g>
</g>
</svg>
