<?xml version="1.0" encoding="utf-8"?>
<!-- Generator: Adobe Illustrator 16.0.3, SVG Export Plug-In . SVG Version: 6.00 Build 0)  -->
<!DOCTYPE svg PUBLIC "-//W3C//DTD SVG 1.1//EN" "http://www.w3.org/Graphics/SVG/1.1/DTD/svg11.dtd">
<svg version="1.1" id="Capa_1" xmlns="http://www.w3.org/2000/svg" xmlns:xlink="http://www.w3.org/1999/xlink" x="0px" y="0px"
	 width="612px" height="792px" viewBox="0 0 612 792" enable-background="new 0 0 612 792" xml:space="preserve">
<g>
	<g>
		<path fill-rule="evenodd" clip-rule="evenodd" fill="#FEFEFE" d="M51,141c171.039,0,342.078,0,513.116,0
			c0,171.039,0,342.078,0,513.116c-171.038,0-342.077,0-513.116,0C51,483.078,51,312.039,51,141z M232.782,585.188
			c10.986,0.104,19.566-4.382,27.147-11.586c3.617-3.438,7.233-6.948,11.239-9.896c10.798-7.943,16.716-18.51,18.924-31.658
			c1.974-11.755,4.556-23.416,7.207-35.043c1.469-6.443,1.077-12.533-1.662-18.471c-1.672-3.627-3.589-7.141-5.334-10.735
			c-4.699-9.668-7.676-19.473-3.345-30.221c2.293-5.689,0.88-11.063-2.368-16.126c-4.196-6.538-8.215-13.191-12.368-19.758
			c-0.971-1.537-2.06-3.033-3.292-4.364c-10.962-11.831-24.85-16.794-40.659-17.102c-22.088-0.43-43.339,3.735-63.721,12.146
			c-2.716,1.122-5.207,3.31-7.207,5.538c-4.803,5.352-9.221,10.784-17.169,11.815c-6.902,0.895-10.802,5.66-12.076,12.308
			c-1.331,6.949-5.402,11.188-11.889,13.478c-1.877,0.662-3.842,1.286-5.491,2.354c-11.832,7.663-16.244,14.006-6.994,26.072
			c2.594,3.384,3.988,9.228,3.157,13.389c-1.979,9.919,0.555,17.396,7.948,23.938c4.698,4.156,5.905,9.47,4.637,15.863
			c-1.496,7.543-1.126,15.368,5.386,20.746c9.255,7.646,20.003,12.083,32.235,10.837c4.909-0.5,7.708,1.224,9.428,5.317
			c5.604,13.343,16.112,21.282,29.537,24.701C208.064,581.789,220.521,583.104,232.782,585.188z M343.588,514.471
			c1.582,6.711,1.882,17.972,6.785,26.624c9.221,16.272,21.032,31.087,31.895,46.416c7.533,10.63,17.414,13.923,30.137,10.094
			c9.504-2.86,19.21-5.089,29.315-1.484c8.871,3.164,15.857-0.712,21.582-7.437c1.617-1.899,3.236-3.817,4.66-5.861
			c3.387-4.858,8.32-5.649,13.665-5.377c2.48,0.127,4.953,0.664,7.426,0.637c7.674-0.086,11.117-4.102,10.493-11.805
			c-0.295-3.645-0.197-7.324-0.58-10.957c-0.534-5.079,1.433-8.579,5.8-11.127c4.79-2.796,8.769-6.767,8.973-12.479
			c0.374-10.411,1.106-21.022-0.399-31.241c-2.364-16.032-12.65-28.342-22.919-40.163c-2.365-2.723-6.738-4.356-10.465-5.098
			c-6.145-1.221-12.563-0.989-18.776-1.943c-9.669-1.485-19.239-4.717-28.894-4.893c-12.175-0.222-23.475-1.862-34.758-6.789
			c-12.001-5.24-20.761-2.296-29.019,8.155c-6.176,7.817-12.019,15.934-17.481,24.263c-2.309,3.52-4.012,7.811-4.67,11.961
			C345.061,494.143,344.687,502.466,343.588,514.471z M457.087,406.863c3.539,0,5.713,0.119,7.869-0.021
			c11.76-0.76,23.163-2.645,32.546-10.681c4.163-3.567,8.389-7.059,12.527-10.653c6.41-5.569,11.819-11.694,12.372-20.842
			c0.123-2.042,1.148-4.186,2.249-5.982c4.85-7.923,5.688-16.123,2.565-24.879c-1.053-2.953-1.567-6.115-2.161-9.212
			c-2.767-14.454-6.688-28.171-19.839-37.219c-2.135-1.468-3.54-4.783-4.162-7.5c-1.376-6.016-4.356-10.131-10.221-12.476
			c-9.387-3.752-18.795-7.534-27.867-11.97c-12.288-6.01-24.032-5.654-35.586,1.462c-2.215,1.364-5.354,2.935-5.894,4.983
			c-1.538,5.827-5.815,6.353-10.463,7.346c-22.882,4.887-36.659,23.168-33.482,44.62c1.123,7.586,0.229,14.36-4.039,20.928
			c-5.13,7.895-5.371,16.294,0.949,23.609c6.948,8.041,14.237,15.87,22.047,23.063C413.932,397.499,433.876,407.988,457.087,406.863
			z M192.422,332.158c0.034-0.406,0.068-0.813,0.102-1.219c9.582,0.986,18.643-0.188,25.031-8.141
			c8.994-11.196,20.552-19.361,31.75-27.975c10.231-7.871,19.181-16.572,21.366-30.124c0.607-3.766,1.445-7.5,1.915-11.281
			c1.482-11.926,3.097-23.889-3.805-34.918c-2.03-3.243-4.525-6.324-5.875-9.838c-2.978-7.749-8.861-9.679-16.259-9.264
			c-1.652,0.094-3.292,0.417-4.945,0.498c-10.16,0.5-19.694-1.047-28.642-6.583c-9.492-5.873-20.048-3.58-30.171-1.838
			c-6.799,1.169-14.38,1.972-19.898,5.568c-12.41,8.087-21.426,19.641-24.643,34.493c-1.51,6.974-4.387,12.743-9.04,17.935
			c-5.996,6.69-7.649,14.299-3.619,22.543c3.935,8.051,8.565,15.776,12.228,23.941c1.765,3.936,2.994,8.614,2.742,12.854
			c-0.645,10.88,1.337,14.9,11.988,16.986C165.814,328.377,179.155,330.077,192.422,332.158z"/>
		<path fill-rule="evenodd" clip-rule="evenodd" fill="#CF82B2" d="M232.782,585.188c-12.261-2.084-24.718-3.398-36.73-6.457
			c-13.424-3.419-23.933-11.358-29.537-24.701c-1.719-4.094-4.519-5.817-9.428-5.317c-12.232,1.246-22.979-3.191-32.235-10.837
			c-6.512-5.378-6.882-13.203-5.386-20.746c1.268-6.394,0.062-11.707-4.637-15.863c-7.393-6.542-9.927-14.02-7.948-23.938
			c0.831-4.161-0.563-10.005-3.157-13.389c-9.25-12.066-4.838-18.409,6.994-26.072c1.649-1.067,3.614-1.691,5.491-2.354
			c6.487-2.29,10.558-6.528,11.889-13.478c1.273-6.647,5.173-11.413,12.076-12.308c7.948-1.031,12.366-6.464,17.169-11.815
			c2-2.228,4.491-4.416,7.207-5.538c20.382-8.411,41.633-12.576,63.721-12.146c15.809,0.308,29.696,5.271,40.659,17.102
			c1.233,1.331,2.321,2.827,3.292,4.364c4.153,6.566,8.171,13.22,12.368,19.758c3.249,5.063,4.661,10.437,2.368,16.126
			c-4.332,10.748-1.354,20.553,3.345,30.221c1.746,3.595,3.662,7.108,5.334,10.735c2.738,5.938,3.131,12.027,1.662,18.471
			c-2.65,11.627-5.233,23.288-7.207,35.043c-2.208,13.148-8.126,23.715-18.924,31.658c-4.006,2.947-7.622,6.457-11.239,9.896
			C252.348,580.806,243.769,585.292,232.782,585.188z M232.338,578.134c7.48,1.139,14.012-1.113,19.643-5.68
			c6.047-4.903,11.63-10.375,17.621-15.352c8.033-6.673,12.484-14.994,14.236-25.364c2.142-12.676,5.717-25.11,7.874-37.785
			c0.705-4.14-0.526-8.892-1.894-13.025c-1.499-4.535-4.373-8.595-6.304-13.012c-4.543-10.396-7.081-21.076-2.454-32.139
			c1.806-4.318,0.43-7.73-1.951-11.139c-3.224-4.612-7.511-8.825-9.431-13.929c-3.372-8.962-9.695-14.399-17.63-18.643
			c-11.116-5.945-22.921-5.752-35.217-5.326c-16.388,0.567-31.777,4.47-46.894,10.027c-3.342,1.229-6.411,3.903-8.917,6.561
			c-5.068,5.376-10.01,10.753-17.813,11.816c-5.286,0.721-8.248,3.501-9.316,8.757c-1.385,6.813-4.666,12.389-11.349,15.381
			c-3.333,1.492-6.926,2.607-9.916,4.617c-7.518,5.052-10.262,8.396-4.219,15.711c4.424,5.358,7.276,12.3,4.728,20.027
			c-2.211,6.704,0.059,11.926,5.363,16.587c6.889,6.055,9.296,13.753,6.812,22.954c-0.689,2.555-0.222,5.67,0.504,8.311
			c2.347,8.535,20.028,17.375,30.322,15.418c7.418-1.412,13.036,1.277,15.919,8.447c3.628,9.021,10.255,15.019,18.672,18.97
			C203.881,576.5,218.27,576.818,232.338,578.134z"/>
		<path fill-rule="evenodd" clip-rule="evenodd" fill="#CF82B2" d="M343.588,514.471c1.099-12.005,1.473-20.328,2.77-28.505
			c0.658-4.15,2.361-8.441,4.67-11.961c5.463-8.329,11.306-16.445,17.481-24.263c8.258-10.451,17.018-13.396,29.019-8.155
			c11.283,4.927,22.583,6.567,34.758,6.789c9.654,0.176,19.225,3.407,28.894,4.893c6.214,0.954,12.632,0.723,18.776,1.943
			c3.727,0.741,8.1,2.375,10.465,5.098c10.269,11.821,20.555,24.131,22.919,40.163c1.506,10.219,0.773,20.83,0.399,31.241
			c-0.204,5.713-4.183,9.684-8.973,12.479c-4.367,2.548-6.334,6.048-5.8,11.127c0.383,3.633,0.285,7.313,0.58,10.957
			c0.624,7.703-2.819,11.719-10.493,11.805c-2.473,0.027-4.945-0.51-7.426-0.637c-5.345-0.272-10.278,0.519-13.665,5.377
			c-1.424,2.044-3.043,3.962-4.66,5.861c-5.725,6.725-12.711,10.601-21.582,7.437c-10.105-3.604-19.812-1.376-29.315,1.484
			c-12.723,3.829-22.604,0.536-30.137-10.094c-10.862-15.329-22.674-30.144-31.895-46.416
			C345.47,532.442,345.17,521.182,343.588,514.471z M484.706,572.096c8.39,0.009,8.391,0.009,8.393-7.433
			c0.002-3.332,0.245-6.686-0.05-9.991c-0.62-6.927,2.052-12.028,8.13-15.18c5.34-2.77,6.546-7.541,6.913-12.857
			c0.104-1.492,0.049-2.996,0.154-4.488c0.699-9.902,1.108-20.026-3.357-29.036c-4.379-8.834-10.283-16.915-15.554-25.304
			c-3.644-5.801-9.313-7.521-15.741-7.748c-3.969-0.14-7.979-0.112-11.889-0.701c-13.386-2.017-26.458-5.771-40.257-5.524
			c-6.06,0.107-12.207-2.238-18.233-3.784c-2.7-0.692-5.172-2.235-7.8-3.258c-6.062-2.355-12.708-3.319-17.171,1.921
			c-8.24,9.676-15.721,20.031-23.022,30.452c-1.97,2.81-2.821,6.828-3.038,10.363c-0.668,10.865-1.25,21.777-0.945,32.646
			c0.208,7.424,2.161,14.646,6.79,20.957c9.992,13.622,19.952,27.277,29.499,41.21c5.492,8.015,12.26,10.086,21.494,7.894
			c10.507-2.494,20.944-5.871,32.152-2.271c9.013,2.896,13.557,0.847,19.029-7.256c4.328-6.409,9.474-11.076,17.676-10.989
			C480.495,571.746,483.11,572.003,484.706,572.096z"/>
		<path fill-rule="evenodd" clip-rule="evenodd" fill="#CF82B2" d="M457.087,406.863c-23.211,1.125-43.155-9.364-60.589-25.424
			c-7.81-7.193-15.099-15.022-22.047-23.063c-6.32-7.315-6.079-15.715-0.949-23.609c4.268-6.568,5.162-13.342,4.039-20.928
			c-3.177-21.451,10.601-39.733,33.482-44.62c4.647-0.993,8.925-1.519,10.463-7.346c0.54-2.048,3.679-3.619,5.894-4.983
			c11.554-7.116,23.298-7.472,35.586-1.462c9.072,4.437,18.48,8.218,27.867,11.97c5.864,2.344,8.845,6.459,10.221,12.476
			c0.622,2.717,2.027,6.033,4.162,7.5c13.151,9.047,17.072,22.765,19.839,37.219c0.594,3.097,1.108,6.259,2.161,9.212
			c3.122,8.756,2.284,16.956-2.565,24.879c-1.101,1.797-2.126,3.941-2.249,5.982c-0.553,9.148-5.962,15.272-12.372,20.842
			c-4.139,3.595-8.364,7.086-12.527,10.653c-9.383,8.036-20.786,9.921-32.546,10.681C462.8,406.982,460.626,406.863,457.087,406.863
			z M458.799,401.094c2.654-0.252,6.76-0.766,10.881-1.011c8.799-0.521,16.944-2.579,23.696-8.732
			c4.034-3.676,8.452-6.93,12.469-10.624c4.737-4.356,9.547-8.584,10.383-15.786c0.442-3.813,1.999-7.664,3.793-11.111
			c2.395-4.597,3.725-8.974,2.239-14.209c-1.759-6.196-2.993-12.543-4.36-18.845c-2.255-10.386-5.403-20.413-14.607-26.829
			c-5.172-3.606-8.032-8.316-9.012-14.21c-0.607-3.653-2.697-5.438-5.774-6.739c-10.051-4.252-20.228-8.246-30.077-12.926
			c-10.258-4.873-19.661-2.914-28.863,2.351c-1.444,0.826-3.069,2.588-3.272,4.097c-0.604,4.507-3.522,6.101-7.289,7.037
			c-3.531,0.877-7.135,1.518-10.602,2.598c-14.145,4.41-26.827,17.024-24.544,35.457c1.162,9.389,0.865,18.793-5.447,27.15
			c-4.005,5.302-3.466,11.183,1.072,16.024c8.349,8.907,16.972,17.587,25.873,25.943
			C419.899,394.384,437.505,400.657,458.799,401.094z"/>
		<path fill-rule="evenodd" clip-rule="evenodd" fill="#CF82B2" d="M192.422,332.158c-13.267-2.081-26.608-3.781-39.776-6.362
			c-10.65-2.086-12.633-6.106-11.988-16.986c0.251-4.239-0.977-8.918-2.742-12.854c-3.662-8.165-8.292-15.89-12.228-23.941
			c-4.03-8.244-2.376-15.853,3.619-22.543c4.652-5.192,7.53-10.961,9.04-17.935c3.216-14.853,12.233-26.406,24.643-34.493
			c5.518-3.596,13.099-4.399,19.898-5.568c10.123-1.742,20.679-4.034,30.171,1.838c8.948,5.535,18.482,7.083,28.642,6.583
			c1.653-0.081,3.293-0.404,4.945-0.498c7.397-0.416,13.281,1.515,16.259,9.264c1.351,3.514,3.846,6.595,5.875,9.838
			c6.902,11.029,5.287,22.993,3.805,34.918c-0.47,3.781-1.308,7.515-1.915,11.281c-2.185,13.552-11.135,22.253-21.366,30.124
			c-11.198,8.614-22.756,16.779-31.75,27.975c-6.388,7.952-15.449,9.127-25.031,8.141
			C192.49,331.345,192.456,331.751,192.422,332.158z M192.484,326.233c0.063-0.398,0.127-0.794,0.191-1.192
			c2.5,0,5.182,0.582,7.46-0.128c4.109-1.28,9.173-2.297,11.73-5.25c9.207-10.633,20.061-19.251,31.195-27.562
			c11.654-8.698,21.08-18.417,22.588-34.013c1.395-14.409,4.208-28.755-5.389-41.673c-1.376-1.851-2.484-3.938-3.48-6.028
			c-2.205-4.63-5.619-5.805-10.626-5.019c-9.414,1.48-19.271,1.597-27.641-2.914c-10.922-5.885-21.784-8.346-33.814-5.429
			c-6.238,1.512-13.547,1.523-18.468,4.949c-10.419,7.252-18.93,16.999-21.507,30.021c-1.577,7.969-4.791,14.69-10.036,20.662
			c-0.981,1.119-1.95,2.282-2.717,3.55c-4.703,7.767-0.467,14.499,2.926,21.024c5.777,11.111,14.19,21.232,12.11,35.011
			c-0.709,4.694,1.778,6.904,5.887,7.595C166.076,322.051,179.285,324.112,192.484,326.233z"/>
		<path fill-rule="evenodd" clip-rule="evenodd" fill="#CC80E9" d="M232.338,578.134c-14.068-1.315-28.457-1.634-41.612-7.81
			c-8.417-3.951-15.044-9.948-18.672-18.97c-2.883-7.17-8.501-9.859-15.919-8.447c-10.294,1.957-27.975-6.883-30.322-15.418
			c-0.726-2.641-1.193-5.756-0.504-8.311c2.484-9.201,0.077-16.899-6.812-22.954c-5.304-4.661-7.574-9.883-5.363-16.587
			c2.548-7.728-0.303-14.669-4.728-20.027c-6.043-7.315-3.298-10.659,4.219-15.711c2.99-2.01,6.583-3.125,9.916-4.617
			c6.683-2.992,9.964-8.568,11.349-15.381c1.068-5.256,4.031-8.036,9.316-8.757c7.804-1.063,12.746-6.44,17.813-11.816
			c2.505-2.657,5.574-5.332,8.917-6.561c15.117-5.557,30.506-9.459,46.894-10.027c12.295-0.426,24.101-0.619,35.217,5.326
			c7.935,4.244,14.259,9.681,17.63,18.643c1.92,5.104,6.208,9.316,9.431,13.929c2.381,3.408,3.757,6.82,1.951,11.139
			c-4.626,11.063-2.089,21.742,2.454,32.139c1.931,4.417,4.805,8.477,6.304,13.012c1.367,4.134,2.599,8.886,1.894,13.025
			c-2.157,12.675-5.732,25.109-7.874,37.785c-1.752,10.37-6.204,18.691-14.236,25.364c-5.991,4.977-11.574,10.448-17.621,15.352
			C246.35,577.021,239.818,579.272,232.338,578.134z"/>
		<path fill-rule="evenodd" clip-rule="evenodd" fill="#CC80E9" d="M484.706,572.096c-1.596-0.093-4.211-0.35-6.827-0.377
			c-8.202-0.087-13.348,4.58-17.676,10.989c-5.473,8.103-10.017,10.151-19.029,7.256c-11.208-3.601-21.646-0.224-32.152,2.271
			c-9.234,2.192-16.002,0.121-21.494-7.894c-9.547-13.933-19.507-27.588-29.499-41.21c-4.629-6.311-6.582-13.533-6.79-20.957
			c-0.305-10.869,0.277-21.781,0.945-32.646c0.217-3.535,1.068-7.554,3.038-10.363c7.302-10.421,14.782-20.776,23.022-30.452
			c4.463-5.24,11.109-4.276,17.171-1.921c2.628,1.022,5.1,2.565,7.8,3.258c6.026,1.546,12.174,3.892,18.233,3.784
			c13.799-0.246,26.871,3.508,40.257,5.524c3.91,0.589,7.92,0.562,11.889,0.701c6.428,0.227,12.098,1.947,15.741,7.748
			c5.271,8.389,11.175,16.47,15.554,25.304c4.466,9.01,4.057,19.134,3.357,29.036c-0.105,1.492-0.051,2.996-0.154,4.488
			c-0.367,5.316-1.573,10.088-6.913,12.857c-6.078,3.151-8.75,8.253-8.13,15.18c0.295,3.306,0.052,6.659,0.05,9.991
			C493.097,572.104,493.096,572.104,484.706,572.096z"/>
		<path fill-rule="evenodd" clip-rule="evenodd" fill="#CC80E9" d="M458.799,401.094c-21.294-0.437-38.899-6.71-53.442-20.364
			c-8.901-8.356-17.524-17.036-25.873-25.943c-4.538-4.842-5.077-10.722-1.072-16.024c6.313-8.357,6.609-17.762,5.447-27.15
			c-2.283-18.432,10.399-31.046,24.544-35.457c3.467-1.08,7.07-1.721,10.602-2.598c3.767-0.936,6.686-2.53,7.289-7.037
			c0.203-1.508,1.828-3.271,3.272-4.097c9.202-5.265,18.605-7.224,28.863-2.351c9.85,4.68,20.026,8.674,30.077,12.926
			c3.077,1.301,5.167,3.085,5.774,6.739c0.979,5.894,3.84,10.604,9.012,14.21c9.204,6.416,12.353,16.443,14.607,26.829
			c1.367,6.302,2.602,12.649,4.36,18.845c1.485,5.235,0.155,9.612-2.239,14.209c-1.794,3.447-3.351,7.298-3.793,11.111
			c-0.836,7.202-5.646,11.429-10.383,15.786c-4.017,3.693-8.435,6.948-12.469,10.624c-6.752,6.153-14.897,8.21-23.696,8.732
			C465.559,400.328,461.453,400.842,458.799,401.094z"/>
		<path fill-rule="evenodd" clip-rule="evenodd" fill="#CC80E9" d="M192.484,326.233c-13.199-2.121-26.408-4.182-39.591-6.396
			c-4.109-0.691-6.596-2.9-5.887-7.595c2.081-13.778-6.333-23.9-12.11-35.011c-3.393-6.526-7.629-13.258-2.926-21.024
			c0.768-1.268,1.736-2.431,2.717-3.55c5.245-5.972,8.459-12.692,10.036-20.662c2.577-13.022,11.087-22.769,21.507-30.021
			c4.921-3.426,12.23-3.437,18.468-4.949c12.031-2.917,22.893-0.456,33.814,5.429c8.371,4.511,18.227,4.394,27.641,2.914
			c5.007-0.786,8.421,0.389,10.626,5.019c0.996,2.09,2.104,4.177,3.48,6.028c9.597,12.918,6.783,27.265,5.389,41.673
			c-1.508,15.596-10.934,25.314-22.588,34.013c-11.134,8.311-21.988,16.929-31.195,27.562c-2.557,2.953-7.621,3.97-11.73,5.25
			c-2.278,0.71-4.96,0.128-7.46,0.128C192.611,325.438,192.547,325.835,192.484,326.233z"/>
	</g>
</g>
</svg>
