<?xml version="1.0" encoding="utf-8"?>
<!-- Generator: Adobe Illustrator 16.0.3, SVG Export Plug-In . SVG Version: 6.00 Build 0)  -->
<!DOCTYPE svg PUBLIC "-//W3C//DTD SVG 1.1//EN" "http://www.w3.org/Graphics/SVG/1.1/DTD/svg11.dtd">
<svg version="1.1" id="Capa_1" xmlns="http://www.w3.org/2000/svg" xmlns:xlink="http://www.w3.org/1999/xlink" x="0px" y="0px"
	 width="612px" height="792px" viewBox="0 0 612 792" enable-background="new 0 0 612 792" xml:space="preserve">
<g>
	<g>
		<path fill-rule="evenodd" clip-rule="evenodd" fill="#FEFEFE" d="M564.116,654.095c-170.987,0.007-341.975,0.007-513.039,0.007
			c0-170.931,0-341.877,0-512.962c170.962,0,342.001,0,513.039,0C564.116,312.094,564.116,483.091,564.116,654.095z
			 M198.152,461.494c9.418,2.485,18.837,4.971,28.255,7.455c-3.157,9.84-6.315,19.679-9.473,29.518
			c-6.517,3.373-9.894,9.449-8.766,15.774c1.133,6.359,6.311,11.489,12.795,12.337c5.587,0.729,10.162-1.43,13.563-5.814
			c3.998-5.154,4.028-10.715,1.142-16.414c3.14-10.184,6.279-20.367,9.419-30.55c11.977,3.081,23.954,6.163,35.93,9.245
			c1.685,3.527,3.369,7.054,5.053,10.581c0.694,10.651,1.389,21.303,2.084,31.954c-1.135,1.62-2.479,3.134-3.367,4.88
			c-3.378,6.638-1.111,14.621,5.173,18.724c6.022,3.932,14.16,2.736,18.915-2.779c5.479-6.354,4.799-13.637-1.989-21.317
			c-0.29-10.591-0.58-21.182-0.869-31.775c1.709-3.307,3.418-6.612,5.128-9.919c19.164-5.235,38.313-10.532,57.503-15.675
			c6.348-1.7,12.802-3.004,19.208-4.487c3.771,5.89,9.244,7.487,15.829,6.279c8.512,7.906,17.023,15.813,25.535,23.72
			c1.956,9.616,9.294,15.073,17.643,13.117c7.547-1.767,12.784-8.96,11.778-16.173c-1.187-8.502-7.857-13.394-17.614-12.918
			c-1.694-1.296-3.473-2.495-5.066-3.905c-6.958-6.155-13.862-12.372-20.785-18.567c-0.86-6.412-3.725-11.363-10.055-13.788
			c0.669-6.247,1.337-12.492,2.003-18.741c7.715,0.207,15.429,0.414,23.142,0.62c0.814,0.827,1.604,1.679,2.445,2.476
			c4.644,4.395,10.485,5.436,16.129,2.806c5.697-2.656,8.552-7.313,8.748-13.462c0.186-5.771-3.839-11.225-9.428-13.524
			c-5.969-2.456-11.023-0.366-15.847,3.037c-7.479-0.402-14.957-0.805-22.435-1.208c0.248-2.142,0.475-4.287,0.748-6.427
			c3.175-24.851,6.355-49.7,9.534-74.548c7.023-1.496,11.515-5.777,13.772-12.516c1.982-0.782,3.989-1.506,5.941-2.356
			c6.476-2.82,12.932-5.685,19.395-8.533c1.128,0.288,2.243,0.657,3.388,0.85c7.71,1.296,15.227-4.149,16.832-12.156
			c1.483-7.406-3.545-14.904-11.354-16.928c-7.393-1.916-14.976,2.746-17.111,10.518c-8.618,4.086-17.235,8.172-25.854,12.259
			c-6.503-2.021-12.474-1.724-17.205,3.956c-1.564-0.185-3.268-0.033-4.671-0.608c-7.502-3.079-14.929-6.338-22.382-9.537
			c0.465-2.079,0.884-4.169,1.402-6.234c1.233-4.913,2.515-9.814,3.776-14.721l-0.046,0.023c0.334-0.237,0.667-0.473,1-0.709
			c1.087-0.767,2.239-1.455,3.248-2.312c5.84-4.96,7.007-13.096,2.818-19.338c-4.173-6.219-12.158-8.305-18.911-4.938
			c-7.993,3.985-9.974,12.487-5.172,22.202c-2.17,6.042-4.341,12.085-6.51,18.127c-21.248-9.011-42.495-18.023-63.741-27.033
			c0.722-6.119-1.274-11.187-5.891-15.242c-0.694-11.949-1.388-23.898-2.083-35.847c0.608-0.992,1.258-1.961,1.818-2.98
			c4.26-7.757,1.206-16.942-6.826-20.577c-7.965-3.604-16.876,0.273-19.822,8.689c-2.6,7.429,0.664,12.875,6.097,17.541
			c0.433,11.449,0.867,22.897,1.3,34.347c-3.813,4.811-5.91,9.967-3.238,16.083c-1.259,1.06-2.459,2.2-3.785,3.168
			c-15.439,11.285-30.898,22.544-46.351,33.811c-13.205-2.186-20.23,2.835-20.994,15.002c-1.76,1.365-3.52,2.729-5.28,4.094
			c-5.482-1.082-10.924-2.736-16.454-3.119c-9.197-0.639-12.259,3.859-9.419,12.76c-3.824,0.811-7.647,1.62-11.471,2.431
			c-11.297-4.053-22.595-8.104-33.892-12.156c-1.337-1.686-2.485-3.575-4.045-5.02c-5.657-5.24-14.33-5.034-19.847,0.31
			c-5.48,5.307-5.875,14.016-0.901,19.865c4.854,5.708,11.063,6.518,19.877,2.593c10.961,3.811,21.921,7.621,32.881,11.431
			c2.571,6.06,6.845,9.936,13.61,10.621c5.132,29.73,10.264,59.461,15.395,89.193c-4.829,3.902-8.964,8.188-8.328,15.104
			c-10.779,8.1-21.559,16.2-32.339,24.3c-1.155-0.112-2.309-0.31-3.465-0.325c-8.015-0.107-14.594,5.682-15.274,13.399
			c-0.684,7.754,4.722,14.853,12.379,16.257c8.239,1.511,14.91-3.97,17.57-14.436c11.723-8.445,23.445-16.89,35.166-25.336
			C190.936,468.709,194.988,465.988,198.152,461.494z"/>
		<path fill-rule="evenodd" clip-rule="evenodd" fill="#2E2F2F" d="M167.847,319.779c-2.837-8.911,0.225-13.409,9.422-12.77
			c5.53,0.383,10.972,2.037,16.456,3.119c2.457,1.517,4.911,3.034,7.365,4.551c1.977,1.401,3.953,2.801,5.929,4.203
			c10.875,10.606,21.805,21.156,32.587,31.854c2.553,2.533,4.614,5.563,6.901,8.364c-0.096,1.336-0.191,2.671-0.287,4.008
			c-0.319,0.654-0.639,1.309-0.958,1.963c-1.395,0.922-2.791,1.844-4.185,2.766c-1.242,0.426-2.484,0.852-3.726,1.277
			c2.135,7.618,0.241,14.799-2.376,21.903l0.028-0.022c-0.635,0.696-1.271,1.394-1.907,2.09c-2.375,2.92-4.749,5.838-7.123,8.758
			c-1.51,0.604-3.082,1.09-4.521,1.83c-11.537,5.94-31.676,6.15-41.545-9.713c-3.787-5.822-4.236-12.365-4.113-19.032
			c2.274-12.331,7.439-22.711,19.964-28.417c-1.291-0.706-1.993-1.091-2.695-1.475c-0.683-0.334-1.365-0.669-2.047-1.003
			l0.028,0.021c-1.364-1.143-2.639-2.417-4.105-3.406c-5.833-3.938-11.979-7.496-15.846-13.701
			C170.01,324.56,168.928,322.169,167.847,319.779z M198.679,380.066c6.85,0.118,12.529-5.339,12.599-12.105
			c0.07-6.864-5.4-12.29-12.39-12.289c-6.619,0.001-12.236,5.336-12.45,11.825C186.221,374.098,191.92,379.95,198.679,380.066z
			 M211.681,390.701c0.129,3.872,2.23,6.082,5.847,6.157c3.713,0.077,5.942-2.359,5.928-5.972c-0.012-3.339-1.991-5.658-5.583-5.755
			C214.132,385.028,212.05,387.025,211.681,390.701z"/>
		<path fill-rule="evenodd" clip-rule="evenodd" fill="#2CAEA9" d="M298.775,252.038c21.248,9.011,42.495,18.022,63.74,27.033
			c-0.528,2.008-1.055,4.017-1.579,6.026c-1.117-0.272-2.297-0.396-3.343-0.839c-15.879-6.725-31.737-13.5-47.618-20.225
			c-1.035-0.439-2.204-0.566-3.312-0.837c6.451,7.324,13.441,13.544,20.367,19.834c7.709,7,15.36,14.064,23.036,21.099
			c-1.249,1.632-2.498,3.264-3.747,4.896c-0.432-0.247-0.925-0.423-1.285-0.748c-17.683-15.911-35.34-31.847-53.042-47.734
			c-1.878-1.686-4.011-3.088-6.526-5.003c-4.553,31.803-8.968,62.641-13.383,93.48c-1.752,0.043-3.504,0.085-5.256,0.127
			c-0.34-0.366-0.681-0.732-1.021-1.1c4.056-29.86,8.111-59.722,12.361-91.016c-18.412,13.326-35.489,25.684-52.566,38.042
			c-1.868-1.347-3.737-2.694-5.605-4.041c15.453-11.266,30.912-22.525,46.351-33.811c1.326-0.969,2.526-2.108,3.785-3.169
			c2.327-1.527,4.857-2.82,6.938-4.63c3.802-3.309,7.467-4.34,12.115-1.466C292.106,249.762,295.56,250.707,298.775,252.038z"/>
		<path fill-rule="evenodd" clip-rule="evenodd" fill="#2BACA9" d="M380.911,286.972c7.453,3.198,14.88,6.458,22.382,9.537
			c1.403,0.575,3.106,0.424,4.672,0.607c2.873,1.613,5.576,3.786,8.654,4.707c4.403,1.317,5.697,4.081,5.269,8.098
			c-0.432,4.049-1.14,8.068-1.726,12.101c-3.181,24.85-6.361,49.7-9.536,74.55c-0.273,2.14-0.5,4.285-0.748,6.427
			c-2.266-0.036-4.53-0.072-6.795-0.108c3.036-23.585,6.07-47.17,9.106-70.754c-1.574,1.061-2.352,2.3-2.869,3.642
			c-6.74,17.471-13.491,34.938-20.114,52.453c-1.335,3.528-2.152,7.253-3.208,10.886c-1.974-1.685-3.948-3.37-5.922-5.054
			c10.597-27.787,21.194-55.574,32.284-84.656c-12.807,2.323-24.573,4.458-36.341,6.592c-0.785-2.088-1.572-4.176-2.358-6.264
			c-0.021-0.347,0.099-0.634,0.359-0.863c9.164-1.339,18.329-2.678,27.492-4.016c0.078-0.648,0.156-1.294,0.234-1.941
			c-7.733-3.02-15.466-6.039-23.198-9.058C379.337,291.563,380.124,289.267,380.911,286.972z"/>
		<path fill-rule="evenodd" clip-rule="evenodd" fill="#2CADA9" d="M407.125,422.257c-0.668,6.246-1.336,12.491-2.005,18.738
			c-0.352,2.277-0.864,4.546-1.021,6.838c-0.51,7.42-3.423,11.005-10.454,12.957c-2.002,0.556-3.864,1.612-5.791,2.438
			c-6.404,1.485-12.858,2.789-19.206,4.489c-19.189,5.143-38.339,10.439-57.503,15.675c-0.357-2.112-0.715-4.223-1.073-6.334
			c0.327-0.331,0.653-0.662,0.979-0.993c1.463-0.215,2.968-0.276,4.382-0.667c24.402-6.735,48.762-13.634,73.219-20.165
			c4.475-1.194,4.863-2.658,2.859-6.424c-4.672-8.781-9.036-17.726-13.525-26.604c0.38-0.363,0.76-0.729,1.14-1.093
			c1.973,0.275,3.944,0.551,5.918,0.827c3.822,7.321,7.645,14.644,11.468,21.966c0.471-0.129,0.942-0.258,1.414-0.387
			c0.73-7.121,1.462-14.241,2.192-21.36C402.453,422.191,404.789,422.224,407.125,422.257z"/>
		<path fill-rule="evenodd" clip-rule="evenodd" fill="#F9DD8C" d="M385.043,421.939c-1.974-0.276-3.945-0.552-5.919-0.827
			c-5.813-3.403-7.821-6.752-6.744-11.236c1.104-4.596,5.177-7.316,11.382-7.601c1.147-0.052,2.294-0.103,3.441-0.154
			c5.294,0.256,10.587,0.512,15.88,0.769c2.265,0.036,4.529,0.072,6.795,0.108c7.478,0.403,14.956,0.806,22.435,1.208
			c-4.434,5.813-5.491,11.993-2.048,18.668c-7.713-0.206-15.427-0.413-23.141-0.618c-2.335-0.032-4.671-0.064-7.008-0.098
			C395.092,422.085,390.067,422.013,385.043,421.939z"/>
		<path fill-rule="evenodd" clip-rule="evenodd" fill="#F9DC8B" d="M380.911,286.972c-0.787,2.295-1.574,4.591-2.36,6.887
			c-1.509,5.005-3.019,10.009-4.53,15.014c-0.261,0.229-0.381,0.516-0.358,0.865c-4.012,8.827-5.658,9.963-13.331,9.193
			c0.701-4.691-1.645-6.709-6.062-6.912c0.298-3.309,0.595-6.616,0.893-9.924l-0.055,0.016c0.286-0.338,0.572-0.677,0.857-1.015
			c1.656-5.333,3.313-10.666,4.971-15.998c0.524-2.009,1.051-4.018,1.579-6.026c2.172-6.042,4.343-12.084,6.513-18.125
			c4.661,5.146,10.559,6.131,17.063,5.072c-1.262,4.906-2.543,9.808-3.776,14.721C381.795,282.803,381.376,284.893,380.911,286.972z
			"/>
		<path fill-rule="evenodd" clip-rule="evenodd" fill="#FADE8C" d="M138.79,478.441c10.78-8.1,21.56-16.2,32.338-24.301
			c1.848-1.068,3.654-2.221,5.554-3.188c4.358-2.215,9.415-1.2,12.083,2.331c2.407,3.187,2.108,8.637-0.737,11.98
			c-0.851,1-1.902,1.83-2.861,2.737c-11.723,8.445-23.445,16.89-35.167,25.332C149.236,486.13,145.589,481.099,138.79,478.441z"/>
		<path fill-rule="evenodd" clip-rule="evenodd" fill="#2DAEA9" d="M175.793,374.929c-0.123,6.667,0.327,13.21,4.114,19.034
			c-0.094,1.537-0.474,3.117-0.238,4.6c2.096,13.159,4.302,26.302,6.475,39.448c-2.229,0.342-4.458,0.683-6.687,1.024
			c-5.132-29.73-10.264-59.461-15.396-89.191c-0.606-3.869-1.519-7.724-1.713-11.614c-0.129-2.581-0.027-5.856,1.422-7.647
			c1.557-1.925,4.809-2.481,7.321-3.635c3.868,6.207,10.013,9.764,15.846,13.702c1.466,0.99,2.742,2.263,4.105,3.406
			c-6.871-1.302-13.742-2.604-21.751-4.122C171.582,352.259,173.688,363.595,175.793,374.929z"/>
		<path fill-rule="evenodd" clip-rule="evenodd" fill="#FADE8C" d="M245.086,473.8c-3.14,10.183-6.279,20.366-9.418,30.551
			c-0.912,1.773-1.709,3.618-2.762,5.305c-2.55,4.086-6.921,5.734-11.219,4.158c-4.355-1.599-6.048-5.022-5.742-9.467
			c0.136-1.974,0.646-3.921,0.988-5.88c3.158-9.839,6.316-19.678,9.471-29.518C232.631,470.566,238.858,472.183,245.086,473.8z"/>
		<path fill-rule="evenodd" clip-rule="evenodd" fill="#FADE8C" d="M415.175,454.783c6.923,6.195,13.827,12.412,20.785,18.567
			c1.594,1.41,3.372,2.609,5.068,3.904c0.938,1.142,1.891,2.27,2.81,3.425c3.219,4.059,3.439,9.396,0.541,12.728
			c-2.996,3.444-8.059,4.002-12.646,1.378c-0.855-0.488-1.676-1.036-2.513-1.556c-8.512-7.907-17.023-15.813-25.536-23.718
			C410.59,467.003,414.297,461.997,415.175,454.783z"/>
		<path fill-rule="evenodd" clip-rule="evenodd" fill="#FADE8C" d="M306.016,493.313c0.29,10.593,0.58,21.184,0.871,31.775
			c-6.353-3.97-12.594-3.69-18.733,0.492c-0.695-10.651-1.39-21.303-2.084-31.955c0.172-1.313,0.276-2.64,0.528-3.938
			c1.132-5.835,4.134-8.676,9.124-8.702c5.042-0.025,8.47,3.249,9.48,9.001C305.398,491.108,305.74,492.205,306.016,493.313z"/>
		<path fill-rule="evenodd" clip-rule="evenodd" fill="#25DE8C" d="M138.79,478.441c6.8,2.657,10.447,7.688,11.21,14.893
			c-2.661,10.469-9.332,15.949-17.571,14.438c-7.657-1.404-13.063-8.503-12.379-16.257c0.68-7.718,7.26-13.507,15.274-13.399
			C136.481,478.132,137.635,478.329,138.79,478.441z"/>
		<path fill-rule="evenodd" clip-rule="evenodd" fill="#FADE8C" d="M425.169,293.161c8.618-4.087,17.235-8.173,25.854-12.258
			c0.918-0.362,1.826-0.749,2.754-1.082c5.456-1.956,10.29-0.549,12.516,3.63c2.409,4.526,0.913,9.489-3.86,12.85
			c-1.069,0.752-2.11,1.544-3.164,2.318c-6.463,2.848-12.919,5.713-19.395,8.533c-1.952,0.85-3.959,1.574-5.939,2.351
			C434.368,302.251,431.294,296.887,425.169,293.161z"/>
		<path fill-rule="evenodd" clip-rule="evenodd" fill="#25DE8C" d="M272.071,203.623c-5.434-4.666-8.697-10.112-6.097-17.541
			c2.946-8.417,11.857-12.293,19.822-8.689c8.031,3.635,11.085,12.82,6.826,20.577c-0.56,1.019-1.21,1.988-1.817,2.979
			C285.127,205.808,278.899,206.821,272.071,203.623z"/>
		<path fill-rule="evenodd" clip-rule="evenodd" fill="#25DE8C" d="M386.09,266.017c-6.504,1.06-12.401,0.074-17.063-5.072
			c-4.802-9.716-2.821-18.218,5.172-22.203c6.753-3.366,14.738-1.281,18.911,4.938c4.188,6.243,3.021,14.378-2.818,19.338
			c-1.009,0.857-2.161,1.545-3.247,2.311c-0.334,0.236-0.667,0.473-1.001,0.71L386.09,266.017z"/>
		<path fill-rule="evenodd" clip-rule="evenodd" fill="#23DD8C" d="M219.997,291.032c1.869,1.347,3.737,2.694,5.608,4.041
			c1.095,3.616,2.188,7.231,3.279,10.846c-1.759,6.477-5.009,11.587-12.084,13.197c-3.26-0.078-6.52-0.157-9.78-0.235
			c-1.977-1.401-3.953-2.801-5.93-4.201c-0.695-2.881-1.391-5.763-2.087-8.646C199.766,293.867,206.792,288.846,219.997,291.032z"/>
		<path fill-rule="evenodd" clip-rule="evenodd" fill="#25DE8C" d="M430.265,422.874c-3.443-6.675-2.386-12.855,2.048-18.668
			c4.823-3.403,9.878-5.493,15.847-3.037c5.589,2.3,9.613,7.753,9.428,13.524c-0.196,6.148-3.051,10.806-8.748,13.462
			c-5.644,2.63-11.485,1.589-16.129-2.806C431.868,424.553,431.079,423.701,430.265,422.874z"/>
		<path fill-rule="evenodd" clip-rule="evenodd" fill="#25DE8C" d="M288.154,525.58c6.139-4.183,12.38-4.462,18.733-0.492
			c6.787,7.68,7.467,14.963,1.988,21.316c-4.755,5.516-12.893,6.711-18.915,2.779c-6.285-4.103-8.551-12.086-5.173-18.724
			C285.675,528.714,287.019,527.2,288.154,525.58z"/>
		<path fill-rule="evenodd" clip-rule="evenodd" fill="#28DE8D" d="M117.57,327.792c-8.814,3.925-15.023,3.114-19.877-2.593
			c-4.974-5.849-4.58-14.558,0.901-19.865c5.517-5.343,14.19-5.549,19.847-0.31c1.56,1.444,2.708,3.333,4.046,5.02
			C124.394,316.943,122.849,322.885,117.57,327.792z"/>
		<path fill-rule="evenodd" clip-rule="evenodd" fill="#FCDE8D" d="M117.57,327.792c5.278-4.907,6.824-10.849,4.917-17.748
			c11.296,4.052,22.594,8.104,33.889,12.157c-5.136,4.575-7.54,10.1-5.924,17.021C139.491,335.414,128.531,331.603,117.57,327.792z"
			/>
		<path fill-rule="evenodd" clip-rule="evenodd" fill="#FCDE8D" d="M272.071,203.623c6.829,3.198,13.056,2.185,18.734-2.674
			c0.693,11.95,1.387,23.899,2.083,35.849c-6.774-4.1-13.282-3.749-19.517,1.171C272.938,226.521,272.504,215.072,272.071,203.623z"
			/>
		<path fill-rule="evenodd" clip-rule="evenodd" fill="#2FAEA9" d="M245.086,473.8c-6.228-1.617-12.456-3.233-18.681-4.851
			c-9.416-2.484-18.835-4.97-28.255-7.453c0.933-2.141,1.868-4.282,2.803-6.425c9.778,2.443,19.554,4.886,29.331,7.328
			c0.178,1.457,0.356,2.916,0.702,5.744c1.845-2.093,2.736-3.104,3.628-4.117c15.833,4.082,31.667,8.164,47.5,12.246
			c-0.366,2.258-0.731,4.515-1.097,6.772C269.04,479.963,257.063,476.881,245.086,473.8z"/>
		<path fill-rule="evenodd" clip-rule="evenodd" fill="#2ADE8E" d="M429.22,493.229c0.837,0.52,1.657,1.067,2.513,1.556
			c4.588,2.624,9.65,2.066,12.646-1.378c2.898-3.331,2.678-8.669-0.541-12.728c-0.919-1.155-1.871-2.283-2.81-3.425
			c9.755-0.475,16.426,4.417,17.612,12.919c1.006,7.213-4.231,14.406-11.778,16.173C438.514,508.303,431.176,502.846,429.22,493.229
			z"/>
		<path fill-rule="evenodd" clip-rule="evenodd" fill="#27DD8D" d="M200.953,455.071c-0.935,2.143-1.869,4.284-2.802,6.425
			c-3.163,4.492-7.215,7.213-12.984,6.506c0.96-0.907,2.011-1.737,2.862-2.737c2.845-3.344,3.144-8.794,0.737-11.98
			c-2.667-3.531-7.725-4.546-12.083-2.331c-1.9,0.967-3.706,2.119-5.554,3.188c-0.635-6.916,3.5-11.201,8.329-15.105
			c2.229-0.342,4.458-0.683,6.687-1.023c2.629,0.732,5.258,1.465,7.887,2.197c1.646,1.323,3.291,2.646,4.937,3.97
			C199.63,447.81,200.292,451.439,200.953,455.071z"/>
		<path fill-rule="evenodd" clip-rule="evenodd" fill="#2BDE8E" d="M459.269,298.618c1.054-0.774,2.095-1.566,3.164-2.318
			c4.773-3.36,6.27-8.323,3.86-12.85c-2.226-4.179-7.06-5.585-12.516-3.63c-0.928,0.333-1.836,0.72-2.754,1.082
			c2.135-7.773,9.718-12.435,17.11-10.519c7.81,2.024,12.838,9.522,11.354,16.928c-1.605,8.007-9.122,13.453-16.832,12.156
			C461.512,299.275,460.396,298.906,459.269,298.618z"/>
		<path fill-rule="evenodd" clip-rule="evenodd" fill="#2BDE8E" d="M216.934,498.467c-0.341,1.959-0.852,3.906-0.988,5.88
			c-0.307,4.444,1.387,7.868,5.742,9.467c4.297,1.576,8.668-0.072,11.219-4.158c1.052-1.687,1.85-3.531,2.762-5.305
			c2.886,5.698,2.855,11.259-1.143,16.413c-3.401,4.385-7.976,6.544-13.563,5.814c-6.484-0.848-11.662-5.978-12.795-12.337
			C207.04,507.916,210.417,501.84,216.934,498.467z"/>
		<path fill-rule="evenodd" clip-rule="evenodd" fill="#27DD8D" d="M281.017,483.045c0.366-2.258,0.731-4.515,1.097-6.773
			c1.833-1.801,3.666-3.601,5.499-5.4c0.577,0.619,1.152,1.237,1.728,1.855c0.497-1.205,0.995-2.411,1.492-3.617
			c1.793-0.378,3.585-0.757,5.377-1.136c3.265,1.146,6.529,2.292,9.793,3.438c1.325,1.552,2.65,3.105,3.976,4.657
			c0.004,0.333,0.035,0.663,0.093,0.99c0.358,2.111,0.716,4.222,1.073,6.334c-1.71,3.307-3.419,6.612-5.129,9.92
			c-0.275-1.107-0.617-2.204-0.814-3.326c-1.01-5.752-4.438-9.026-9.48-9.001c-4.99,0.026-7.992,2.867-9.124,8.702
			c-0.252,1.298-0.356,2.624-0.528,3.938C284.385,490.099,282.701,486.572,281.017,483.045z"/>
		<path fill-rule="evenodd" clip-rule="evenodd" fill="#25DE8C" d="M425.169,293.161c6.125,3.727,9.199,9.091,8.766,16.342
			c-2.26,6.744-6.751,11.025-13.773,12.52c0.587-4.033,1.295-8.053,1.727-12.102c0.429-4.017-0.865-6.781-5.269-8.098
			c-3.078-0.921-5.781-3.094-8.654-4.707C412.695,291.437,418.666,291.14,425.169,293.161z"/>
		<path fill-rule="evenodd" clip-rule="evenodd" fill="#25DE8C" d="M415.175,454.783c-0.878,7.214-4.585,12.22-11.491,14.729
			c-6.584,1.206-12.058-0.392-15.828-6.282c1.925-0.827,3.787-1.884,5.789-2.439c7.031-1.952,9.944-5.537,10.454-12.957
			c0.157-2.292,0.67-4.561,1.021-6.838C411.45,443.42,414.314,448.371,415.175,454.783z"/>
		<path fill-rule="evenodd" clip-rule="evenodd" fill="#25DE8C" d="M273.371,237.97c6.234-4.92,12.743-5.271,19.517-1.171
			c4.615,4.054,6.611,9.122,5.888,15.24c-3.215-1.331-6.669-2.276-9.59-4.082c-4.648-2.874-8.313-1.842-12.115,1.466
			c-2.08,1.81-4.61,3.103-6.938,4.63C267.461,247.937,269.558,242.78,273.371,237.97z"/>
		<path fill-rule="evenodd" clip-rule="evenodd" fill="#23DD8C" d="M150.452,339.223c-1.615-6.922,0.788-12.446,5.924-17.021
			c3.826-0.812,7.65-1.622,11.472-2.427c1.08,2.395,2.162,4.785,3.244,7.174c-2.513,1.152-5.764,1.708-7.321,3.634
			c-1.449,1.791-1.551,5.066-1.422,7.647c0.195,3.891,1.107,7.745,1.713,11.614C157.297,349.159,153.023,345.283,150.452,339.223z"
			/>
		<path fill-rule="evenodd" clip-rule="evenodd" fill="#2FAEA9" d="M199.002,306.035c0.696,2.882,1.392,5.764,2.087,8.646
			c-2.454-1.518-4.908-3.035-7.365-4.552C195.482,308.764,197.242,307.399,199.002,306.035z"/>
		<path fill-rule="evenodd" clip-rule="evenodd" fill="#F9DC8B" d="M386.044,266.041c0.334-0.238,0.667-0.474,1.001-0.71
			C386.711,265.567,386.378,265.804,386.044,266.041z"/>
		<path fill-rule="evenodd" clip-rule="evenodd" fill="#81DADC" d="M194.031,440.209c-2.629-0.732-5.258-1.465-7.887-2.197
			c-2.172-13.147-4.378-26.29-6.474-39.449c-0.236-1.482,0.145-3.063,0.238-4.6c9.868,15.861,30.008,15.651,41.544,9.711
			c1.439-0.74,3.011-1.227,4.522-1.83c-0.913,1.505-1.638,3.172-2.767,4.491C213.523,417.662,203.766,428.926,194.031,440.209z"/>
		<path fill-rule="evenodd" clip-rule="evenodd" fill="#2CAEA9" d="M194.031,440.209c9.735-11.283,19.493-22.547,29.176-33.874
			c1.129-1.319,1.854-2.986,2.767-4.491c2.374-2.92,4.748-5.838,7.122-8.759c0.635-0.697,1.271-1.393,1.907-2.089l-0.028,0.022
			c1.365-1.004,2.943-1.815,4.06-3.045c5.379-5.929,10.633-11.971,15.932-17.973c1.36,1.724,2.72,3.448,4.079,5.172
			c-13.107,15.194-26.18,30.419-39.335,45.572c-6.839,7.877-13.824,15.628-20.743,23.436
			C197.321,442.855,195.676,441.532,194.031,440.209z"/>
		<path fill-rule="evenodd" clip-rule="evenodd" fill="#F7F7F7" d="M198.679,380.066c-6.759-0.116-12.458-5.968-12.24-12.569
			c0.214-6.489,5.831-11.824,12.45-11.825c6.989-0.001,12.46,5.425,12.39,12.289C211.208,374.727,205.529,380.185,198.679,380.066z"
			/>
		<path fill-rule="evenodd" clip-rule="evenodd" fill="#7FD8DB" d="M175.793,374.929c-2.106-11.334-4.211-22.67-6.502-34.995
			c8.01,1.518,14.88,2.82,21.751,4.122l-0.028-0.021c0.682,0.335,1.364,0.669,2.047,1.003c0.703,0.384,1.405,0.769,2.695,1.475
			C183.232,352.218,178.068,362.598,175.793,374.929z"/>
		<path fill-rule="evenodd" clip-rule="evenodd" fill="#7FD8DB" d="M254.967,370c-5.299,6.001-10.553,12.043-15.932,17.973
			c-1.116,1.23-2.694,2.041-4.06,3.045c2.617-7.104,4.512-14.285,2.377-21.903c1.242-0.426,2.483-0.852,3.725-1.277
			c1.395-0.922,2.79-1.844,4.185-2.766c0.319-0.655,0.639-1.309,0.958-1.963c0.096-1.336,0.191-2.672,0.287-4.008
			c1.312,0.277,2.624,0.556,3.934,0.833c1.228,1.436,2.458,2.871,3.688,4.306C254.408,366.16,254.687,368.08,254.967,370z"/>
		<path fill-rule="evenodd" clip-rule="evenodd" fill="#79CCC9" d="M250.443,359.934c-1.312-0.277-2.624-0.556-3.936-0.833
			c-2.287-2.802-4.347-5.832-6.9-8.364c-10.782-10.698-21.712-21.248-32.587-31.854c3.261,0.077,6.521,0.156,9.784,0.233
			c3.593,4.676,7.034,9.476,10.805,14.001C235.124,342.136,242.821,351.004,250.443,359.934z"/>
		<path fill-rule="evenodd" clip-rule="evenodd" fill="#F4F4F4" d="M211.681,390.701c0.369-3.676,2.452-5.673,6.193-5.57
			c3.592,0.098,5.57,2.417,5.583,5.755c0.014,3.613-2.215,6.049-5.928,5.972C213.911,396.783,211.81,394.573,211.681,390.701z"/>
		<path fill-rule="evenodd" clip-rule="evenodd" fill="#79CCC9" d="M241.078,367.838c-1.242,0.426-2.483,0.852-3.725,1.277
			C238.594,368.689,239.835,368.264,241.078,367.838z"/>
		<path fill-rule="evenodd" clip-rule="evenodd" fill="#79CCC9" d="M246.221,363.108c-0.32,0.654-0.639,1.309-0.958,1.963
			C245.582,364.417,245.901,363.763,246.221,363.108z"/>
		<path fill-rule="evenodd" clip-rule="evenodd" fill="#7FD8DB" d="M235.003,390.996c-0.635,0.696-1.271,1.393-1.907,2.089
			C233.731,392.389,234.368,391.692,235.003,390.996z"/>
		<path fill-rule="evenodd" clip-rule="evenodd" fill="#2DAEA9" d="M193.063,345.038c-0.683-0.334-1.365-0.668-2.047-1.003
			C191.697,344.369,192.379,344.704,193.063,345.038z"/>
		<path fill-rule="evenodd" clip-rule="evenodd" fill="#81DBDE" d="M272.084,349.02c4.415-30.839,8.83-61.677,13.382-93.48
			c2.515,1.915,4.648,3.317,6.526,5.003c17.702,15.887,35.359,31.824,53.042,47.734c0.36,0.324,0.854,0.501,1.283,0.748
			c-0.072,1.645-0.142,3.291-0.212,4.937c-11.549,3.43-23.327,5.748-34.235,11.593c-12.839,6.882-25.886,12.921-31.766,27.571
			C277.431,351.757,274.757,350.389,272.084,349.02z"/>
		<path fill-rule="evenodd" clip-rule="evenodd" fill="#82DCDE" d="M228.884,305.919c-1.092-3.615-2.184-7.23-3.279-10.846
			c17.074-12.358,34.151-24.716,52.563-38.042c-4.25,31.294-8.306,61.156-12.36,91.018
			C253.501,334.006,241.193,319.963,228.884,305.919z"/>
		<path fill-rule="evenodd" clip-rule="evenodd" fill="#FADD8B" d="M228.884,305.919c12.309,14.043,24.617,28.086,36.923,42.13
			c0.339,0.365,0.68,0.731,1.02,1.098c2.04,2.585,4.273,5.045,6.075,7.787c2.907,4.424,2.176,9.386-1.528,12.537
			c-3.479,2.958-8.887,2.643-12.647-0.789c-1.574-1.436-3.068-2.959-4.599-4.443c-1.23-1.435-2.459-2.87-3.688-4.306
			c-7.62-8.93-15.317-17.798-22.833-26.816c-3.771-4.525-7.212-9.326-10.805-14.001
			C223.875,317.507,227.125,312.396,228.884,305.919z"/>
		<path fill-rule="evenodd" clip-rule="evenodd" fill="#3F87BB" d="M360.936,285.097c-1.657,5.333-3.314,10.666-4.971,15.998
			c-0.285,0.338-0.571,0.676-0.857,1.015l0.055-0.016c-1.699,0.678-3.396,1.357-5.096,2.035
			c-7.676-7.035-15.327-14.099-23.036-21.099c-6.926-6.29-13.916-12.51-20.367-19.834c1.107,0.271,2.276,0.398,3.312,0.837
			c15.881,6.725,31.739,13.5,47.618,20.225C358.639,284.701,359.818,284.825,360.936,285.097z"/>
		<path fill-rule="evenodd" clip-rule="evenodd" fill="#29DB8B" d="M254.128,364.239c1.531,1.484,3.024,3.008,4.599,4.443
			c3.76,3.432,9.168,3.747,12.647,0.789c3.704-3.151,4.435-8.113,1.528-12.537c-1.802-2.742-4.035-5.202-6.075-7.787
			c1.752-0.042,3.504-0.084,5.256-0.127c2.673,1.369,5.347,2.737,8.021,4.105c-0.791,1.769-1.817,3.475-2.313,5.323
			c-0.582,2.171-1.532,4.856-0.726,6.568c0.517,1.1,3.912,0.845,6.017,1.196c-0.34,1.611-0.68,3.223-1.019,4.833
			c-2.326,2.309-4.652,4.619-6.978,6.928c-2.034,0.368-4.069,0.735-6.103,1.104c-3.313-1.302-6.625-2.603-9.937-3.904
			c-1.359-1.724-2.719-3.448-4.079-5.172C254.687,368.08,254.408,366.16,254.128,364.239z"/>
		<path fill-rule="evenodd" clip-rule="evenodd" fill="#29DB8B" d="M350.066,304.129c1.699-0.678,3.396-1.356,5.096-2.035
			c-0.298,3.309-0.595,6.616-0.894,9.923c-2.722,0.647-5.442,1.296-8.162,1.944c0.069-1.646,0.139-3.292,0.211-4.937
			C347.568,307.393,348.817,305.761,350.066,304.129z"/>
		<path fill-rule="evenodd" clip-rule="evenodd" fill="#3E86BB" d="M376.02,315.999c11.768-2.134,23.534-4.27,36.341-6.592
			c-11.09,29.082-21.688,56.869-32.284,84.656c-1.641-0.372-3.279-0.744-4.92-1.114c-3.329-21.264-6.657-42.527-9.985-63.791
			C371.355,326.888,374.276,321.929,376.02,315.999z"/>
		<path fill-rule="evenodd" clip-rule="evenodd" fill="#3F87BB" d="M403.083,402.89c-5.293-0.257-10.586-0.513-15.881-0.769
			c-0.402-1.002-0.804-2.004-1.204-3.005c1.056-3.633,1.873-7.358,3.208-10.886c6.623-17.515,13.374-34.982,20.114-52.453
			c0.518-1.341,1.295-2.581,2.869-3.642C409.153,355.72,406.119,379.304,403.083,402.89z"/>
		<path fill-rule="evenodd" clip-rule="evenodd" fill="#23DD8C" d="M385.998,399.116c0.4,1.001,0.802,2.003,1.204,3.005
			c-1.146,0.052-2.293,0.103-3.44,0.154c-6.205,0.284-10.278,3.005-11.382,7.601c-1.077,4.484,0.932,7.833,6.744,11.236
			c-0.379,0.364-0.759,0.729-1.138,1.092c-3.965-0.341-7.93-0.68-11.896-1.02c-1.35-1.08-2.698-2.159-4.048-3.237
			c-1.016-3.941-2.031-7.883-3.046-11.823c0.692-2.046,1.384-4.09,2.075-6.135c2.683-2.277,5.364-4.554,8.045-6.831
			c2.014-0.07,4.026-0.141,6.04-0.211c1.64,0.371,3.278,0.743,4.919,1.115C382.05,395.747,384.024,397.432,385.998,399.116z"/>
		<path fill-rule="evenodd" clip-rule="evenodd" fill="#3F87BB" d="M374.021,308.872c1.512-5.005,3.021-10.009,4.53-15.014
			c7.73,3.018,15.463,6.037,23.196,9.057c-0.078,0.646-0.156,1.293-0.234,1.941C392.35,306.194,383.185,307.533,374.021,308.872z"/>
		<path fill-rule="evenodd" clip-rule="evenodd" fill="#29DB8B" d="M376.02,315.999c-1.743,5.93-4.664,10.889-10.85,13.157
			c-2.062,0.289-4.123,0.579-6.184,0.869c-1.948-0.735-3.896-1.47-5.846-2.206c2.396-2.963,4.794-5.927,7.19-8.89
			c7.673,0.77,9.319-0.366,13.331-9.193C374.447,311.823,375.234,313.911,376.02,315.999z"/>
		<path fill-rule="evenodd" clip-rule="evenodd" fill="#3E86BB" d="M366.091,421.186c3.966,0.339,7.931,0.678,11.896,1.019
			c4.488,8.88,8.853,17.824,13.524,26.605c2.004,3.766,1.615,5.229-2.859,6.424c-24.457,6.531-48.816,13.43-73.219,20.165
			c-1.414,0.391-2.919,0.452-4.382,0.667l0.017,0.021c3.45-3.303,6.925-6.58,10.347-9.911
			c14.017-13.646,28.033-27.292,41.992-40.996C364.527,424.079,365.207,422.528,366.091,421.186z"/>
		<path fill-rule="evenodd" clip-rule="evenodd" fill="#3E86BB" d="M385.043,421.939c5.024,0.073,10.049,0.146,15.073,0.219
			c-0.729,7.119-1.461,14.239-2.191,21.36c-0.472,0.129-0.943,0.258-1.414,0.387C392.688,436.583,388.865,429.261,385.043,421.939z"
			/>
		<path fill-rule="evenodd" clip-rule="evenodd" fill="#3E86BB" d="M310.071,477.059c-0.058-0.327-0.089-0.657-0.092-0.989
			c0.363,0.006,0.726,0.012,1.088,0.018l-0.017-0.021C310.725,476.396,310.398,476.728,310.071,477.059z"/>
		<path fill-rule="evenodd" clip-rule="evenodd" fill="#2E2F2F" d="M360.331,318.93c-2.396,2.963-4.794,5.926-7.191,8.891
			c-6.213,6.893-12.425,13.784-18.636,20.675c0.488,0.49,2.341,1.853,3.995,3.423c7.624,7.238,14.216,15.259,13.872,26.44
			c-0.171,5.526-1.994,11.001-3.068,16.5c-1.074,2.019-2.146,4.035-3.221,6.054c-8.918,13.108-21.811,13.967-35.6,11.165
			c-13.057-2.652-21.349-10.546-23.506-23.939c-0.84-5.217-0.733-10.587-1.058-15.887c0.578-1.958,1.155-3.915,1.982-6.714
			c-2.185,0.307-3.501,0.491-4.817,0.676c-2.105-0.352-5.5-0.097-6.018-1.196c-0.806-1.711,0.145-4.397,0.726-6.568
			c0.496-1.848,1.521-3.554,2.313-5.323c5.88-14.65,18.927-20.688,31.766-27.571c10.908-5.846,22.687-8.163,34.235-11.593
			c2.721-0.647,5.441-1.296,8.163-1.944C358.687,312.221,361.032,314.239,360.331,318.93z M314.84,382.321
			c6.752,0.003,12.361-5.681,12.244-12.406c-0.114-6.554-5.705-12.109-12.099-12.02c-6.843,0.095-12.418,5.746-12.289,12.454
			C302.824,376.957,308.262,382.318,314.84,382.321z M338.295,397.521c-0.039-4.027-2.114-6.188-5.741-6.345
			c-3.742-0.163-6.022,2.246-6.129,5.785c-0.106,3.535,1.938,5.996,5.784,6.047C335.932,403.056,338.044,401.113,338.295,397.521z"
			/>
		<path fill-rule="evenodd" clip-rule="evenodd" fill="#29DB8B" d="M355.107,302.11c0.286-0.339,0.572-0.677,0.857-1.015
			C355.68,301.433,355.394,301.772,355.107,302.11z"/>
		<path fill-rule="evenodd" clip-rule="evenodd" fill="#81DBDE" d="M259.045,375.172c3.313,1.301,6.625,2.602,9.938,3.904
			c3.505,15.293,7.106,30.566,10.453,45.893c0.947,4.342,1.149,8.846,1.693,13.274c-1.121-0.987-2.2-2.028-3.371-2.953
			c-17.205-13.601-39.466-6.169-44.832,14.992c-1.015,4.005-1.769,8.077-2.643,12.117c-9.777-2.443-19.554-4.886-29.332-7.329
			c-0.662-3.632-1.323-7.262-1.986-10.893c6.918-7.807,13.904-15.558,20.743-23.435
			C232.866,405.592,245.938,390.366,259.045,375.172z"/>
		<path fill-rule="evenodd" clip-rule="evenodd" fill="#81DADC" d="M287.612,470.871c-1.833,1.8-3.667,3.6-5.5,5.4
			c-15.833-4.081-31.666-8.163-47.498-12.244c2.944-7.201,7.365-13.254,13.507-18.118c8.741-6.924,17.155-7.096,24.122,1.362
			C278.175,454.473,282.549,462.956,287.612,470.871z"/>
		<path fill-rule="evenodd" clip-rule="evenodd" fill="#2B3030" d="M287.612,470.871c-5.063-7.915-9.438-16.398-15.369-23.6
			c-6.967-8.458-15.381-8.286-24.122-1.362c-6.142,4.864-10.563,10.917-13.507,18.118c-0.893,1.012-1.784,2.023-3.629,4.116
			c-0.345-2.828-0.523-4.287-0.702-5.744c0.875-4.039,1.628-8.111,2.643-12.116c5.366-21.161,27.626-28.593,44.832-14.992
			c1.17,0.925,2.25,1.966,3.369,2.952c2.364,4.604,5.417,8.999,6.912,13.873c1.668,5.438,1.922,11.311,2.792,16.993
			c-0.497,1.206-0.994,2.412-1.491,3.617C288.765,472.108,288.189,471.49,287.612,470.871z"/>
		<path fill-rule="evenodd" clip-rule="evenodd" fill="#81DBDE" d="M285.918,372.251c0.325,5.3,0.218,10.67,1.058,15.887
			c2.157,13.393,10.449,21.287,23.506,23.939c13.789,2.802,26.682,1.943,35.6-11.164c4.304,1.737,8.609,3.474,12.914,5.211
			c1.016,3.94,2.031,7.882,3.047,11.824c-4.875,4.469-9.838,8.842-14.605,13.42c-13.854,13.304-27.628,26.689-41.434,40.043
			c-3.265-1.146-6.529-2.292-9.794-3.437c-3.895-16.973-7.733-33.958-11.702-50.912c-3.055-13.05-6.275-26.061-9.422-39.089
			c2.326-2.309,4.652-4.619,6.978-6.928C283.348,371.447,284.633,371.849,285.918,372.251z"/>
		<path fill-rule="evenodd" clip-rule="evenodd" fill="#2CADA9" d="M275.085,377.973c3.146,13.028,6.367,26.04,9.422,39.089
			c3.969,16.954,7.807,33.939,11.702,50.912c-1.792,0.378-3.584,0.757-5.377,1.135c-0.871-5.683-1.125-11.555-2.793-16.993
			c-1.495-4.874-4.547-9.269-6.912-13.873c-0.542-4.428-0.745-8.932-1.692-13.273c-3.347-15.327-6.948-30.6-10.453-45.893
			C271.017,378.708,273.051,378.341,275.085,377.973z"/>
		<path fill-rule="evenodd" clip-rule="evenodd" fill="#2BACA9" d="M306.004,471.411c13.806-13.354,27.58-26.739,41.434-40.043
			c4.768-4.578,9.73-8.951,14.605-13.42c1.35,1.077,2.698,2.156,4.048,3.236c-0.884,1.344-1.563,2.895-2.685,3.995
			c-13.959,13.704-27.976,27.351-41.992,40.996c-3.422,3.331-6.896,6.608-10.347,9.911c-0.362-0.006-0.725-0.012-1.088-0.018
			C308.653,474.517,307.328,472.963,306.004,471.411z"/>
		<path fill-rule="evenodd" clip-rule="evenodd" fill="#2BACA9" d="M285.918,372.251c-1.285-0.402-2.57-0.804-3.855-1.206
			c0.339-1.61,0.679-3.222,1.019-4.833c1.316-0.185,2.633-0.369,4.818-0.676C287.074,368.336,286.496,370.293,285.918,372.251z"/>
		<path fill-rule="evenodd" clip-rule="evenodd" fill="#2BACA9" d="M358.986,330.025c2.061-0.29,4.122-0.58,6.184-0.869
			c3.329,21.265,6.657,42.528,9.986,63.792c-2.013,0.069-4.025,0.14-6.039,0.208c-1.504-8.954-3.065-17.899-4.497-26.864
			C362.69,354.212,360.859,342.115,358.986,330.025z"/>
		<path fill-rule="evenodd" clip-rule="evenodd" fill="#81DADC" d="M358.986,330.025c1.873,12.09,3.704,24.187,5.634,36.267
			c1.432,8.965,2.993,17.91,4.497,26.864c-2.681,2.279-5.362,4.556-8.045,6.834c-3.923-1.71-7.847-3.421-11.77-5.132
			c1.074-5.498,2.897-10.973,3.068-16.5c0.344-11.181-6.248-19.202-13.872-26.44c-1.654-1.57-3.507-2.933-3.995-3.423
			c6.211-6.891,12.423-13.782,18.636-20.675C355.09,328.556,357.038,329.29,358.986,330.025z"/>
		<path fill-rule="evenodd" clip-rule="evenodd" fill="#2DAEA9" d="M349.303,394.858c3.923,1.711,7.847,3.422,11.77,5.132
			c-0.691,2.044-1.383,4.088-2.075,6.134c-4.306-1.737-8.611-3.474-12.915-5.211C347.156,398.894,348.229,396.877,349.303,394.858z"
			/>
		<path fill-rule="evenodd" clip-rule="evenodd" fill="#F4F4F4" d="M314.84,382.321c-6.578-0.003-12.016-5.364-12.144-11.972
			c-0.129-6.708,5.446-12.359,12.289-12.454c6.394-0.09,11.984,5.465,12.099,12.02C327.201,376.64,321.592,382.324,314.84,382.321z"
			/>
		<path fill-rule="evenodd" clip-rule="evenodd" fill="#F4F4F4" d="M338.295,397.521c-0.251,3.593-2.363,5.535-6.086,5.486
			c-3.847-0.051-5.891-2.512-5.784-6.047c0.106-3.539,2.387-5.948,6.129-5.785C336.181,391.333,338.256,393.493,338.295,397.521z"/>
	</g>
</g>
</svg>
