<?xml version="1.0" encoding="utf-8"?>
<!-- Generator: Adobe Illustrator 16.0.3, SVG Export Plug-In . SVG Version: 6.00 Build 0)  -->
<!DOCTYPE svg PUBLIC "-//W3C//DTD SVG 1.1//EN" "http://www.w3.org/Graphics/SVG/1.1/DTD/svg11.dtd">
<svg version="1.1" id="Capa_1" xmlns="http://www.w3.org/2000/svg" xmlns:xlink="http://www.w3.org/1999/xlink" x="0px" y="0px"
	 width="612px" height="792px" viewBox="0 0 612 792" enable-background="new 0 0 612 792" xml:space="preserve">
<g>
	<g>
		<path fill-rule="evenodd" clip-rule="evenodd" fill="#FEFEFE" d="M51.009,654.116c-0.003-170.992-0.003-341.985-0.003-513.048
			c170.945,0,341.897,0,512.979,0c0,170.971,0,342.01,0,513.048C393.007,654.116,222.01,654.116,51.009,654.116z M126.505,418.906
			c-0.866,0.126-1.732,0.251-2.599,0.377c1.404,11.195,2.381,22.467,4.34,33.565c1.735,9.831,5.45,19.018,14.428,24.761
			c7.178,4.594,10.662,11.13,11.458,19.441c1.133,11.823,6.851,21.006,16.353,28.016c3.75,2.767,7.67,5.467,10.833,8.835
			c10.617,11.305,23.193,15.994,38.904,15.48c12.822-0.42,26.386-0.594,38.094,6.032c13.761,7.788,28.19,9.593,43.437,7.556
			c11.197-1.496,22.719-2.156,31.853-10.115c5.773-5.029,12.498-7.407,20.052-7.918c24.624-1.668,45.091-11.471,61.311-30.414
			c4.003-4.674,9.83-7.823,14.945-11.499c9.318-6.694,19.321-12.574,27.976-20.028c15.252-13.139,23.171-29.782,20.253-50.513
			c-1.021-7.252-2.05-14.512-2.711-21.801c-0.57-6.277-1.459-12.699-0.72-18.879c1.284-10.739-1.013-19.815-7.622-28.515
			c-3.452-4.543-6.23-10.601-6.715-16.2c-1.227-14.199-6.278-26.012-16.8-35.644c-2.127-1.947-4.146-4.635-4.909-7.349
			c-4.579-16.285-17.613-23.218-31.469-29.523c-2.708-1.232-5.283-3.242-7.268-5.473c-3.64-4.093-6.292-9.179-10.317-12.772
			c-2.854-2.547-7.336-4.706-11.01-4.586c-6.504,0.214-12.106-1.384-17.667-4.241c-5.33-2.739-10.731-5.342-16.104-8
			c-5.816-2.876-11.881-3.639-18.404-3.393c-4.425,0.166-8.936-1.498-13.381-2.464c-4.466-0.972-9.022-3.297-13.318-2.86
			c-5.994,0.61-12.419,2.18-17.507,5.25c-7.247,4.372-14.442,4.867-22.455,4.468c-5.647-0.281-11.403,1.147-17.076,2.034
			c-4.812,0.751-9.599,2.703-14.354,2.57c-11.36-0.317-21.764,2.508-30.102,9.835c-12.108,10.64-23.153,22.479-35.014,33.414
			c-8.565,7.896-15.645,16.848-21.268,26.941c-1.822,3.271-3.221,7.02-3.782,10.706c-1.636,10.747-3.795,21.257-8.627,31.126
			c-2.335,4.77-4.145,9.809-6.01,14.794c-2.265,6.052-2.654,12.191-1.421,18.646C123.906,399.949,125.072,409.453,126.505,418.906z"
			/>
		<path fill-rule="evenodd" clip-rule="evenodd" fill="#F82B82" d="M126.505,418.906c-1.434-9.453-2.6-18.957-4.393-28.342
			c-1.233-6.455-0.844-12.593,1.421-18.646c1.866-4.986,3.675-10.025,6.01-14.794c4.832-9.87,6.991-20.38,8.627-31.126
			c0.561-3.686,1.96-7.434,3.782-10.706c5.624-10.094,12.703-19.045,21.268-26.941c11.86-10.935,22.906-22.774,35.014-33.414
			c8.338-7.327,18.742-10.152,30.102-9.835c4.755,0.133,9.542-1.819,14.354-2.57c5.672-0.886,11.429-2.315,17.076-2.034
			c8.013,0.399,15.208-0.096,22.455-4.468c5.088-3.069,11.513-4.639,17.507-5.25c4.296-0.437,8.852,1.888,13.318,2.86
			c4.445,0.967,8.956,2.63,13.381,2.464c6.523-0.246,12.588,0.517,18.404,3.393c5.372,2.658,10.773,5.261,16.104,8
			c5.561,2.857,11.163,4.455,17.667,4.241c3.674-0.12,8.155,2.039,11.01,4.586c4.025,3.594,6.678,8.68,10.317,12.772
			c1.984,2.231,4.56,4.24,7.268,5.473c13.855,6.306,26.89,13.239,31.469,29.523c0.764,2.714,2.782,5.402,4.909,7.349
			c10.521,9.632,15.573,21.444,16.8,35.644c0.484,5.599,3.263,11.657,6.715,16.2c6.609,8.7,8.906,17.776,7.622,28.515
			c-0.739,6.18,0.149,12.602,0.72,18.879c0.661,7.289,1.69,14.549,2.711,21.801c2.918,20.73-5.001,37.374-20.253,50.513
			c-8.654,7.454-18.657,13.334-27.976,20.028c-5.115,3.676-10.942,6.825-14.945,11.499c-16.22,18.943-36.687,28.746-61.311,30.414
			c-7.554,0.511-14.278,2.889-20.052,7.918c-9.134,7.959-20.655,8.619-31.853,10.115c-15.247,2.037-29.676,0.232-43.437-7.556
			c-11.708-6.626-25.272-6.452-38.094-6.032c-15.711,0.514-28.288-4.176-38.904-15.48c-3.163-3.368-7.083-6.068-10.833-8.835
			c-9.502-7.01-15.219-16.192-16.353-28.016c-0.796-8.312-4.28-14.848-11.458-19.441c-8.978-5.743-12.693-14.93-14.428-24.761
			c-1.959-11.099-2.936-22.37-4.34-33.565C124.773,419.157,125.639,419.032,126.505,418.906z M133.289,418.201
			c-0.731,0.098-1.461,0.194-2.191,0.292c0.988,9.905,1.55,19.878,3.087,29.698c1.454,9.289,4.114,18.434,12.64,24.056
			c8.92,5.884,13.114,14.228,14.208,24.572c0.959,9.074,5.305,16.295,12.417,22.004c5.967,4.79,11.825,9.725,17.582,14.765
			c6.526,5.714,13.754,8.889,22.683,8.686c8.298-0.188,16.686,0.109,24.909,1.165c7.022,0.901,14.559,1.882,20.649,5.12
			c13.529,7.193,27.381,9.926,42.389,7.556c8.827-1.395,18.462-1.015,25.564-7.199c9.693-8.439,21.14-10.502,33.195-11.782
			c18.303-1.941,33.358-10.268,46.084-23.502c5.367-5.581,11.555-10.466,17.793-15.096c6.262-4.648,13.178-8.405,19.585-12.872
			c12.272-8.557,22.171-18.926,26.609-33.854c3.399-11.434-0.348-22.44-0.818-33.635c-0.417-9.908-1.444-19.806-1.45-29.708
			c-0.005-7.043-0.364-13.658-5.354-19.145c-6.191-6.811-9.266-14.864-9.812-23.998c-0.563-9.421-3.281-18.063-10.274-24.76
			c-6.004-5.75-11.028-11.962-12.636-20.414c-0.232-1.223-1.077-2.547-2.028-3.381c-7.233-6.347-14.156-12.975-23.771-16.091
			c-3.761-1.219-7.089-4.549-9.956-7.547c-3.539-3.704-6.102-8.346-9.671-12.014c-1.618-1.661-4.575-2.266-7.044-2.797
			c-5.098-1.099-10.546-1.097-15.355-2.881c-6.995-2.594-13.377-6.829-20.358-9.472c-4.667-1.766-9.982-2.961-14.897-2.651
			c-6.472,0.409-12.056-0.921-17.699-3.751c-2.704-1.355-6.203-2.785-8.893-2.181c-6.256,1.404-12.596,3.349-18.238,6.331
			c-6.051,3.198-11.941,4.421-18.659,3.699c-7.42-0.797-14.747-1.149-21.827,2.94c-3.149,1.819-7.685,2.026-11.503,1.75
			c-10.654-0.77-20.55,1.374-28.323,8.583c-14.753,13.685-29.343,27.609-43.083,42.292c-5.763,6.159-11.534,14.017-13.174,21.955
			c-3.087,14.949-7.181,29.27-13.413,43.162c-2.958,6.593-5.213,13.433-3.443,21.248
			C130.956,398.813,131.852,408.568,133.289,418.201z"/>
		<path fill-rule="evenodd" clip-rule="evenodd" fill="#EAA7CD" d="M133.289,418.201c-1.437-9.633-2.333-19.388-4.478-28.859
			c-1.77-7.815,0.485-14.655,3.443-21.248c6.232-13.893,10.326-28.213,13.413-43.162c1.64-7.938,7.411-15.796,13.174-21.955
			c13.74-14.683,28.33-28.607,43.083-42.292c7.773-7.209,17.669-9.353,28.323-8.583c3.819,0.276,8.354,0.069,11.503-1.75
			c7.08-4.089,14.406-3.737,21.827-2.94c6.718,0.722,12.608-0.501,18.659-3.699c5.642-2.982,11.982-4.927,18.238-6.331
			c2.69-0.604,6.188,0.826,8.893,2.181c5.644,2.83,11.228,4.16,17.699,3.751c4.915-0.311,10.23,0.885,14.897,2.651
			c6.981,2.643,13.363,6.878,20.358,9.472c4.81,1.784,10.258,1.782,15.355,2.881c2.469,0.531,5.426,1.136,7.044,2.797
			c3.569,3.668,6.132,8.31,9.671,12.014c2.867,2.999,6.195,6.329,9.956,7.547c9.615,3.116,16.538,9.744,23.771,16.091
			c0.951,0.834,1.796,2.159,2.028,3.381c1.607,8.452,6.632,14.664,12.636,20.414c6.993,6.698,9.711,15.339,10.274,24.76
			c0.546,9.134,3.62,17.188,9.812,23.998c4.989,5.487,5.349,12.102,5.354,19.145c0.006,9.902,1.033,19.8,1.45,29.708
			c0.471,11.194,4.218,22.201,0.818,33.635c-4.438,14.928-14.337,25.297-26.609,33.854c-6.407,4.467-13.323,8.224-19.585,12.872
			c-6.238,4.63-12.426,9.515-17.793,15.096c-12.726,13.234-27.781,21.561-46.084,23.502c-12.056,1.28-23.502,3.343-33.195,11.782
			c-7.103,6.185-16.737,5.805-25.564,7.199c-15.008,2.37-28.86-0.362-42.389-7.556c-6.091-3.238-13.627-4.219-20.649-5.12
			c-8.223-1.056-16.611-1.354-24.909-1.165c-8.929,0.203-16.157-2.972-22.683-8.686c-5.757-5.04-11.615-9.975-17.582-14.765
			c-7.112-5.709-11.458-12.93-12.417-22.004c-1.094-10.345-5.287-18.688-14.208-24.572c-8.525-5.622-11.186-14.767-12.64-24.056
			c-1.538-9.82-2.1-19.793-3.087-29.698C131.828,418.396,132.558,418.299,133.289,418.201z M226.604,299.65
			c-1.455-3.332-2.275-7.176-4.479-9.902c-7.628-9.435-18.283-9.986-29.119-8.249c-2.94,0.472-5.766,2.886-8.208,4.931
			c-2.965,2.484-5.286,5.729-8.207,8.276c-6.777,5.91-7.458,13.656-1.548,20.649c2.685,3.175,5.57,6.206,8.004,9.563
			c3.404,4.695,7.814,6.427,13.445,5.734c2.927-0.361,5.887-0.455,8.665-0.657c4.317,10.657,6.439,20.709-1.261,30.284
			c-0.086,0.107-0.034,0.325-0.047,0.492c-6.962,1.771-13.871,3.805-20.901,5.236c-6.045,1.231-9.35,3.968-9.664,10.133
			c-0.465,9.147,2.753,16.893,8.848,23.918c9.293,10.712,27.29,12.168,37.066,2.168c2.983-3.052,5.294-6.759,7.913-10.167
			c0.638-0.001,1.275-0.002,1.912-0.003c4.314,8.815,7.988,18.212,19.577,20.386c-1.499,3.808-2.754,6.995-4.023,10.22
			c-7.241-0.754-12.097-4.262-15.837-9.854c-0.752-1.124-2.873-1.333-4.362-1.965c-0.047,1.735-0.748,3.828-0.028,5.145
			c2.977,5.45,7.562,9.15,13.56,11.104c1.979,0.644,4.022,1.538,5.614,2.835c3.02,2.463,4.909,1.377,6.187-1.599
			c1.703-3.968,2.98-8.119,4.717-12.07c2.824-6.425,6.029-12.569,12.125-16.729c4.361-2.975,8.254-3.798,13.265-0.91
			c4.403,2.538,7.822,5.488,9.901,10.062c1.927,4.237,3.633,8.609,5.977,12.605c0.913,1.557,3.303,2.246,5.021,3.33
			c0.366-1.903,1.429-4.007,0.954-5.671c-1.029-3.608-2.844-6.993-4.894-11.762c7.907,1.522,14.658,2.941,21.458,4.046
			c1.582,0.257,3.974-0.01,4.836-1.021c0.877-1.028,0.94-3.555,0.307-4.943c-6.256-13.695-13.688-26.385-29.254-31.485
			c-1.247-0.409-2.365-1.209-3.537-1.824c4.301-5.482,4.887-11.853,4.168-18.425c-0.955-8.73-3.5-16.188-13.628-18.509
			c-3.199-0.734-5.835-3.651-8.97-5.016c-3.226-1.403-6.732-2.93-10.139-2.986c-6.593-0.108-11.819,3.68-15.583,8.688
			c-2.394,3.187-4.859,3.911-8.418,3.651c-4.032-0.294-9.786,1.409-11.715-0.645c-2.438-2.596-2.139-8.095-2.292-12.368
			c-0.078-2.192,0.835-5.007,2.322-6.567C233.346,312.423,233.563,307.661,226.604,299.65z M380.755,402.736
			c0.334,0.275,0.668,0.551,1.002,0.826c-1.439,3.718-2.965,7.405-4.291,11.163c-0.855,2.425-2.54,5.484,0.996,6.896
			c3.648,1.459,4.283-2.012,5.288-4.381c1.685-3.976,3.039-8.111,4.978-11.957c4.995-9.912,15.464-12.111,23.686-4.811
			c2.394,2.125,4.082,5.231,5.56,8.158c2.393,4.742,4.167,9.798,6.598,14.519c0.66,1.282,2.736,1.836,4.162,2.724
			c0.768-1.312,1.521-2.631,2.307-3.935c0.84-1.396,1.395-3.234,2.624-4.074c3.675-2.51,6.189-5.694,6.446-10.132
			c0.113-1.978-0.84-4.017-1.308-6.027c-1.349,1.497-3.414,2.794-3.899,4.533c-1.059,3.803-2.73,6.599-6.966,7.776
			c-1.394-3.084-2.743-6.073-3.566-7.897c2.736-4.576,5.267-8.198,7.053-12.157c0.555-1.23-0.911-3.372-1.452-5.096
			c-1.298,1.127-2.875,2.058-3.833,3.423c-1.612,2.302-2.832,4.88-4.592,8.006c-2.15-2.435-3.419-3.871-4.238-4.797
			c2.197-3.596,5.698-6.708,5.613-9.719c-0.191-6.798,4.193-10.933,6.914-16.077c1.087-2.055,2.207-4.13,2.958-6.317
			c2.255-6.566-1.072-11.249-7.994-11.523c-8.423-0.334-15.87,2.042-23.058,6.618c-17.678,11.253-30.827,27.324-45.53,41.743
			c-2.912,2.856-3.64,6.566-0.959,9.946c2.873,3.621,6.579,3.254,10.32,1.118C370.617,408.407,375.693,405.584,380.755,402.736z
			 M362.507,481.718c0.32-10.125-4.275-17.712-11.649-23.89c-9.215-7.723-21.9-6.282-28.866,3.55
			c-7.86,11.092-10.44,23.076-5.146,36.226c3.992,9.918,11.339,15.445,21.072,15.235c10.242-0.221,19.497-7.038,22.218-16.931
			C361.399,491.309,361.744,486.455,362.507,481.718z M246.699,493.645c5.417-0.676,10.87-1.14,16.237-2.094
			c4.146-0.737,7.798-2.748,7.985-7.595c0.19-4.906-3.076-7.406-7.347-8.888c-9.986-3.465-20.284-3.333-30.408-1.529
			c-2.671,0.476-5.664,4.202-6.701,7.086c-0.743,2.067,0.907,5.715,2.572,7.787C233.594,494.079,240.331,493.096,246.699,493.645z
			 M426.032,484.82c4.594-0.823,9.863-1.38,14.89-2.798c3.754-1.058,7.006-3.577,6.883-8.111c-0.109-4.05-4.668-8.983-8.885-9.659
			c-8.398-1.344-16.838-1.261-25.04,1.117c-4.04,1.17-7.241,4.148-7.327,8.528c-0.078,3.946,1.888,7.715,6.057,8.852
			C416.694,483.861,421.021,484.089,426.032,484.82z"/>
		<path fill-rule="evenodd" clip-rule="evenodd" fill="#312F30" d="M290.58,371.955c1.178,0.618,2.297,1.419,3.543,1.828
			c15.565,5.1,22.998,17.79,29.254,31.485c0.634,1.389,0.57,3.915-0.307,4.943c-0.862,1.012-3.254,1.278-4.836,1.021
			c-6.801-1.104-13.552-2.523-21.458-4.046c2.05,4.769,3.865,8.153,4.894,11.762c0.475,1.664-0.588,3.768-0.954,5.671
			c-1.717-1.084-4.107-1.773-5.021-3.33c-2.344-3.996-4.049-8.368-5.977-12.605c-2.08-4.573-5.498-7.523-9.901-10.062
			c-5.011-2.888-8.904-2.064-13.265,0.91c-6.096,4.159-9.301,10.304-12.125,16.729c-1.737,3.951-3.014,8.103-4.717,12.07
			c-1.277,2.976-3.167,4.062-6.187,1.599c-1.592-1.297-3.634-2.191-5.614-2.835c-5.999-1.954-10.583-5.654-13.56-11.104
			c-0.719-1.316-0.019-3.409,0.028-5.145c1.489,0.632,3.61,0.841,4.362,1.965c3.741,5.592,8.596,9.1,15.837,9.854
			c1.27-3.225,2.525-6.412,4.023-10.22c-11.589-2.174-15.263-11.571-19.577-20.386c-0.587-1.876-1.173-3.754-1.797-5.747
			c2.703-3.476,4.709-2.64,6.366,1.139c1.671,3.812,2.863,8.044,5.369,11.221c2.534,3.213,6.325,5.502,9.802,7.844
			c0.671,0.452,2.88-0.347,3.615-1.216c2.106-2.491,3.819-5.315,5.637-7.936c-0.186-0.308-0.241-0.53-0.364-0.579
			c-0.616-0.241-1.237-0.495-1.88-0.638c-9.525-2.111-12.946-9.749-15.764-17.748c-0.375-1.064,0.97-2.733,1.519-4.122
			c1.155,0.729,2.61,1.229,3.39,2.247c0.985,1.284,1.496,2.961,2.08,4.52c3.198,8.535,10.11,10.596,17.931,10.788
			c-7.699-8.399-15.542-16.723-23.098-25.298c-3.762-4.27-2.86-7.014,2.447-9.489c1.589,0.27,3.179,0.538,4.768,0.809
			c0.662,0.055,1.324,0.108,1.985,0.162c0.715,0.348,1.4,0.792,2.15,1.028c10.867,3.399,21.742,6.771,32.615,10.148
			C287.389,370.113,288.984,371.034,290.58,371.955z"/>
		<path fill-rule="evenodd" clip-rule="evenodd" fill="#312F30" d="M380.755,402.736c-5.062,2.848-10.138,5.671-15.183,8.551
			c-3.741,2.136-7.447,2.503-10.32-1.118c-2.681-3.38-1.953-7.09,0.959-9.946c14.703-14.419,27.853-30.49,45.53-41.743
			c7.188-4.577,14.635-6.952,23.058-6.618c6.922,0.275,10.249,4.958,7.994,11.523c-0.751,2.187-1.871,4.262-2.958,6.317
			c-2.721,5.144-7.105,9.278-6.914,16.077c0.085,3.012-3.416,6.124-5.613,9.719c0.819,0.926,2.088,2.363,4.238,4.797
			c1.76-3.126,2.979-5.704,4.592-8.006c0.958-1.365,2.535-2.296,3.833-3.423c0.541,1.724,2.007,3.866,1.452,5.096
			c-1.786,3.959-4.316,7.581-7.053,12.157c0.823,1.824,2.173,4.813,3.566,7.897c4.235-1.178,5.907-3.974,6.966-7.776
			c0.485-1.739,2.551-3.036,3.899-4.533c0.468,2.011,1.421,4.05,1.308,6.027c-0.257,4.438-2.771,7.622-6.446,10.132
			c-1.229,0.84-1.784,2.679-2.624,4.074c-0.785,1.304-1.539,2.623-2.307,3.935c-1.426-0.888-3.502-1.441-4.162-2.724
			c-2.431-4.721-4.205-9.776-6.598-14.519c-1.478-2.927-3.166-6.033-5.56-8.158c-8.222-7.301-18.69-5.101-23.686,4.811
			c-1.938,3.846-3.293,7.981-4.978,11.957c-1.005,2.369-1.64,5.84-5.288,4.381c-3.536-1.412-1.852-4.472-0.996-6.896
			c1.326-3.758,2.852-7.445,4.289-11.163c0.048-0.401,0.098-0.802,0.147-1.201C381.521,402.486,381.138,402.611,380.755,402.736z
			 M406.691,389.828c5.823,2.19,9.376-0.095,10.32-6.648C413.363,385.529,410.35,387.471,406.691,389.828z"/>
		<path fill-rule="evenodd" clip-rule="evenodd" fill="#2F2E2F" d="M362.507,481.718c-0.763,4.737-1.107,9.591-2.372,14.19
			c-2.721,9.893-11.976,16.71-22.218,16.931c-9.733,0.21-17.08-5.317-21.072-15.235c-5.294-13.149-2.714-25.134,5.146-36.226
			c6.966-9.832,19.651-11.272,28.866-3.55C358.231,464.006,362.827,471.593,362.507,481.718z"/>
		<path fill-rule="evenodd" clip-rule="evenodd" fill="#AD1355" d="M249.044,357.852c-1.589-0.27-3.179-0.538-4.769-0.808
			c-0.374-0.313-0.703-0.818-1.124-0.912c-9.176-2.041-22.211,6.291-24.221,15.542c-0.173,0.797,0.165,2.124,0.754,2.602
			c5.692,4.621,6.64,11.157,7.426,17.784c-2.619,3.407-4.93,7.115-7.913,10.167c-9.777,10-27.773,8.544-37.066-2.168
			c-6.094-7.025-9.313-14.771-8.848-23.918c0.314-6.166,3.619-8.902,9.664-10.133c7.031-1.431,13.939-3.465,20.902-5.236
			c3.621,1.395,3.36-2.621,5.19-3.723c0.677,0.338,1.355,0.677,2.033,1.015c-3.555,7.987-3.468,8.307,3.119,10.77
			c0.291-0.517,0.531-1.117,0.917-1.6c5.581-6.968,9.845-15.74,20.85-15.335c1.957,1.437,3.826,2.306,5.08-0.788
			c1.016-2.83,3.354-6.034-1.996-7.066c-0.587-0.641-1.359-1.907-1.725-1.799c-0.862,0.255-1.53,1.165-2.277,1.809
			c-1.319,0.03-2.648-0.039-3.956,0.104c-10.532,1.151-10.918,0.812-11.113-10.067c-0.012-0.66-0.044-1.319-0.067-1.979
			c-0.263-0.688-0.525-1.378-0.788-2.068c-2.517-0.464-5.032-0.929-8.35-1.541c0.584,3.058,0.917,4.799,1.249,6.54
			c-0.66,0.001-1.319,0.001-1.98,0.002c-1.334-3.342-2.67-6.683-4.005-10.025c7.521,0.246,12.493-3.671,17.061-9.289
			c2.912-3.582,3.785-6.639,1.855-10.641c0.364-1.686,0.728-3.371,1.091-5.057c0.184-0.138,0.374-0.267,0.571-0.387
			c6.955,8.014,6.737,12.775-0.276,20.136c-1.487,1.56-2.4,4.375-2.322,6.567c0.152,4.272-0.146,9.771,2.292,12.368
			c1.93,2.054,7.684,0.351,11.715,0.645c3.559,0.26,6.024-0.464,8.418-3.651c3.763-5.009,8.989-8.797,15.583-8.688
			c3.407,0.056,6.914,1.583,10.139,2.986c3.135,1.365,5.771,4.282,8.97,5.016c10.128,2.321,12.673,9.778,13.628,18.509
			c0.719,6.573,0.133,12.943-4.172,18.423c-1.599-0.923-3.194-1.844-4.787-2.767c1.094-2.047,2.187-4.093,3.279-6.14
			c0.985-0.767,2.881-1.639,2.807-2.285c-0.497-4.325,2.333-9.505-2.911-12.724c-1.64-2.333-3.278-4.668-4.918-7.002
			c-0.541-2.421-1.365-4.217-4.079-1.853c-2.979-1.372-5.958-2.743-8.936-4.113c-0.889-1.587-1.645-3.285-2.796-4.652
			c-0.196-0.232-2.082,0.958-3.187,1.491c-1.338,0.014-2.675,0.027-4.013,0.041c-0.457-0.581-0.914-1.162-1.372-1.744
			c-0.517,0.67-1.035,1.34-1.552,2.01c-6.472,4.606-11.721,9.926-10.949,18.76c0.289,0.688,0.578,1.377,0.867,2.066
			c0.347,0.974,0.694,1.947,1.042,2.92C249.067,356.596,249.056,357.224,249.044,357.852z M195.033,367.952
			c-3.992,1.033-8.078,1.81-11.931,3.224c-1.569,0.577-3.459,2.363-3.781,3.897c-1.459,6.953,0.682,13.239,4.201,19.286
			c3.53,6.068,9.551,7.734,15.512,9.691c2.294,2.466,5.732,2.466,8.002,0.001c10.189-3.873,19.337-14.768,10.969-24.919
			c0.263-2.979-1.093-4.324-4.071-4.033c-1.652-1.063-3.203-2.35-4.976-3.145c-3.916-1.758-7.942-3.269-11.923-4.88
			c-0.402-0.513-0.805-1.026-1.207-1.539C195.563,366.34,195.298,367.146,195.033,367.952z"/>
		<path fill-rule="evenodd" clip-rule="evenodd" fill="#E4A2C8" d="M227.111,392.061c-0.787-6.627-1.734-13.163-7.426-17.784
			c-0.589-0.479-0.928-1.805-0.754-2.602c2.009-9.251,15.045-17.583,24.221-15.542c0.421,0.094,0.75,0.599,1.124,0.912
			c-5.306,2.475-6.208,5.22-2.446,9.489c7.556,8.575,15.398,16.898,23.098,25.298c-7.821-0.191-14.733-2.252-17.931-10.788
			c-0.584-1.558-1.095-3.235-2.08-4.52c-0.78-1.018-2.235-1.517-3.39-2.247c-0.549,1.389-1.894,3.058-1.519,4.122
			c2.818,7.999,6.239,15.636,15.764,17.748c0.643,0.143,1.264,0.396,1.88,0.638c0.123,0.049,0.178,0.271,0.364,0.579
			c-1.818,2.62-3.531,5.444-5.637,7.936c-0.734,0.869-2.943,1.668-3.615,1.216c-3.477-2.342-7.268-4.631-9.802-7.844
			c-2.506-3.177-3.697-7.41-5.369-11.221c-1.657-3.779-3.663-4.615-6.366-1.139c0.624,1.993,1.21,3.87,1.797,5.747
			C228.386,392.059,227.749,392.06,227.111,392.061z"/>
		<path fill-rule="evenodd" clip-rule="evenodd" fill="#E98A8E" d="M246.699,493.645c-6.368-0.549-13.105,0.435-17.661-5.232
			c-1.666-2.072-3.315-5.72-2.572-7.787c1.037-2.884,4.03-6.61,6.701-7.086c10.125-1.804,20.422-1.936,30.408,1.529
			c4.271,1.481,7.537,3.981,7.347,8.888c-0.187,4.847-3.839,6.857-7.985,7.595C257.569,492.505,252.115,492.969,246.699,493.645z"/>
		<path fill-rule="evenodd" clip-rule="evenodd" fill="#E98A8E" d="M426.032,484.82c-5.012-0.731-9.338-0.959-13.423-2.071
			c-4.169-1.137-6.135-4.905-6.057-8.852c0.086-4.38,3.287-7.358,7.327-8.528c8.202-2.378,16.642-2.461,25.04-1.117
			c4.217,0.676,8.775,5.609,8.885,9.659c0.123,4.534-3.129,7.054-6.883,8.111C435.896,483.44,430.626,483.997,426.032,484.82z"/>
		<path fill-rule="evenodd" clip-rule="evenodd" fill="#AA0E51" d="M206.031,325.021c1.335,3.342,2.671,6.683,4.005,10.025
			c-0.081,2.156-0.166,4.313,3.022,4.002c0.057,0.308,0.088,0.62,0.092,0.933c-0.617,0.697-1.715,1.358-1.769,2.095
			c-0.266,3.646-0.256,7.312-0.343,10.971c-0.666,1.333-1.332,2.667-1.998,4.001c-1.83,1.102-1.57,5.117-5.19,3.723
			c0.012-0.167-0.041-0.384,0.046-0.492c7.7-9.575,5.579-19.627,1.261-30.284c-2.778,0.202-5.738,0.296-8.665,0.657
			c-5.631,0.693-10.041-1.039-13.445-5.734c-2.434-3.357-5.319-6.388-8.004-9.563c-5.91-6.993-5.229-14.74,1.548-20.649
			c2.921-2.547,5.241-5.792,8.207-8.276c2.441-2.044,5.267-4.459,8.208-4.931c10.835-1.737,21.49-1.186,29.119,8.249
			c2.205,2.726,3.025,6.571,4.481,9.901c-0.195,0.118-0.385,0.247-0.569,0.385c-0.667,0.001-1.332,0.001-1.998,0.002
			c-0.667-1.667-1.335-3.334-2.003-5.001c-0.508-1.339-0.714-2.924-1.573-3.979c-5.821-7.142-19.655-10.813-28.241-7.514
			c-1.333,0.512-2.568,1.524-3.584,2.565c-3.696,3.787-7.139,7.83-10.944,11.5c-4.113,3.97-5.284,9.668-2.006,14.358
			c2.832,4.052,5.797,8.188,9.473,11.409c2.632,2.306,6.535,3.161,9.87,4.664c2.139-0.672,5.829,1.881,5.998-2.885
			C202.697,325.109,204.365,325.065,206.031,325.021z"/>
		<path fill-rule="evenodd" clip-rule="evenodd" fill="#651145" d="M261.043,331.955c1.338-0.014,2.675-0.027,4.013-0.04
			c1.994,1.054,3.988,2.107,5.982,3.16c2.978,1.37,5.957,2.742,8.936,4.112c1.36,0.617,2.719,1.235,4.078,1.854
			c1.64,2.333,3.278,4.668,4.919,7.002c0.035,5.003,0.069,10.005,0.103,15.008c-1.092,2.046-2.185,4.093-3.279,6.14
			c-10.875-3.376-21.75-6.749-32.617-10.147c-0.75-0.235-1.435-0.68-2.149-1.027c-0.65-0.683-1.3-1.365-1.95-2.048
			c-0.348-0.974-0.695-1.947-1.042-2.92c-0.289-0.688-0.578-1.377-0.867-2.066c-0.771-8.834,4.477-14.154,10.949-18.762
			C259.093,332.129,260.068,332.042,261.043,331.955z"/>
		<path fill-rule="evenodd" clip-rule="evenodd" fill="#AC1557" d="M249.08,355.968c0.65,0.683,1.3,1.366,1.95,2.048
			c-0.662-0.055-1.324-0.108-1.986-0.163C249.056,357.224,249.067,356.596,249.08,355.968z"/>
		<path fill-rule="evenodd" clip-rule="evenodd" fill="#D89BBF" d="M406.691,389.828c3.658-2.357,6.672-4.299,10.32-6.648
			C416.067,389.733,412.515,392.018,406.691,389.828z"/>
		<path fill-rule="evenodd" clip-rule="evenodd" fill="#EAA7CD" d="M380.755,402.736c0.383-0.125,0.766-0.25,1.147-0.375
			c-0.05,0.399-0.1,0.8-0.147,1.201C381.423,403.287,381.089,403.012,380.755,402.736z"/>
		<path fill-rule="evenodd" clip-rule="evenodd" fill="#651145" d="M206.031,325.021c-1.667,0.044-3.334,0.088-5.001,0.131
			c-1.664,0.286-3.327,0.574-4.991,0.862c-2.57-0.825-5.758-0.969-7.58-2.62c-3.648-3.307-6.775-7.278-9.66-11.302
			c-1.334-1.86-2.127-4.47-2.213-6.775c-0.118-3.13,15.521-19.471,18.721-20.182c10.614-2.353,21.142,2.589,25.661,12.046
			c0.617,0.982,1.233,1.962,1.85,2.944c0.71,1.655,1.419,3.311,2.129,4.965c1.93,4.002,1.057,7.059-1.855,10.641
			C218.524,321.351,213.552,325.268,206.031,325.021z"/>
		<path fill-rule="evenodd" clip-rule="evenodd" fill="#661145" d="M197.035,367.074c3.981,1.611,8.008,3.122,11.923,4.88
			c1.772,0.795,3.324,2.082,4.977,3.144c1.357,1.345,2.713,2.689,4.07,4.034c8.368,10.152-0.78,21.046-10.969,24.919
			c-2.667,0-5.335,0-8.002-0.001c-5.96-1.957-11.981-3.623-15.512-9.691c-3.519-6.046-5.66-12.333-4.201-19.286
			c0.322-1.534,2.211-3.321,3.781-3.897c3.853-1.414,7.939-2.191,11.931-3.223C195.7,367.661,196.367,367.367,197.035,367.074z"/>
		<path fill-rule="evenodd" clip-rule="evenodd" fill="#671145" d="M213.151,339.982c-0.004-0.313-0.036-0.625-0.093-0.933
			c-0.347-1.335-0.694-2.669-1.042-4.004c-0.332-1.741-0.665-3.481-1.249-6.54c3.317,0.612,5.833,1.077,8.349,1.541
			c0.263,0.69,0.526,1.379,0.789,2.068c0.022,0.66,0.055,1.319,0.067,1.979c0.195,10.878,0.582,11.218,11.113,10.067
			c1.307-0.144,2.636-0.074,3.956-0.104c1.334-0.003,2.667-0.006,4.001-0.01c5.351,1.032,3.012,4.236,1.996,7.066
			c-1.693,0.263-3.386,0.525-5.08,0.788c-11.005-0.405-15.269,8.367-20.85,15.335c-0.386,0.482-0.626,1.083-0.917,1.6
			c-6.586-2.463-6.673-2.783-3.119-10.77c0.69-1.661,1.38-3.323,2.07-4.984c0.303-0.675,0.606-1.35,0.909-2.024
			c0.263-0.667,0.525-1.333,0.788-2C214.277,346.031,213.714,343.006,213.151,339.982z"/>
		<path fill-rule="evenodd" clip-rule="evenodd" fill="#AC1557" d="M289.075,363.051c-0.034-5.003-0.068-10.005-0.103-15.008
			c5.244,3.218,2.413,8.398,2.91,12.724C291.957,361.412,290.06,362.284,289.075,363.051z"/>
		<path fill-rule="evenodd" clip-rule="evenodd" fill="#AC1557" d="M271.039,335.075c-1.995-1.053-3.989-2.106-5.982-3.16
			c1.105-0.534,2.991-1.724,3.187-1.492C269.394,331.79,270.15,333.487,271.039,335.075z"/>
		<path fill-rule="evenodd" clip-rule="evenodd" fill="#AC1557" d="M199.034,404.051c2.667,0.001,5.335,0.001,8.002,0.001
			C204.766,406.517,201.328,406.517,199.034,404.051z"/>
		<path fill-rule="evenodd" clip-rule="evenodd" fill="#AC1557" d="M224.947,305.091c-0.709-1.655-1.419-3.311-2.127-4.966
			c0.408-0.03,0.814-0.06,1.22-0.089c0.666-0.001,1.332-0.001,1.998-0.002C225.674,301.72,225.311,303.405,224.947,305.091z"/>
		<path fill-rule="evenodd" clip-rule="evenodd" fill="#AC1557" d="M213.144,353.08c-0.69,1.662-1.38,3.323-2.07,4.984
			c-0.677-0.338-1.355-0.677-2.032-1.015c0.666-1.334,1.332-2.667,1.998-4.001C211.74,353.059,212.441,353.069,213.144,353.08z"/>
		<path fill-rule="evenodd" clip-rule="evenodd" fill="#AC1557" d="M212.017,335.044c0.347,1.335,0.694,2.669,1.042,4.004
			c-3.187,0.311-3.103-1.847-3.021-4.002C210.697,335.045,211.357,335.045,212.017,335.044z"/>
		<path fill-rule="evenodd" clip-rule="evenodd" fill="#AC1557" d="M235.959,351.899c1.693-0.263,3.387-0.525,5.08-0.788
			C239.785,354.205,237.916,353.336,235.959,351.899z"/>
		<path fill-rule="evenodd" clip-rule="evenodd" fill="#AC1557" d="M218.005,379.132c-1.356-1.345-2.712-2.689-4.07-4.034
			C216.912,374.808,218.268,376.153,218.005,379.132z"/>
		<path fill-rule="evenodd" clip-rule="evenodd" fill="#AC1557" d="M284.053,341.041c-1.359-0.618-2.718-1.236-4.078-1.854
			C282.688,336.823,283.513,338.619,284.053,341.041z"/>
		<path fill-rule="evenodd" clip-rule="evenodd" fill="#AC1557" d="M239.043,344.045c-1.334,0.004-2.667,0.007-4.001,0.01
			c0.747-0.645,1.415-1.554,2.277-1.809C237.684,342.139,238.456,343.404,239.043,344.045z"/>
		<path fill-rule="evenodd" clip-rule="evenodd" fill="#AC1557" d="M261.043,331.955c-0.975,0.087-1.95,0.175-2.924,0.265
			c0.518-0.668,1.035-1.338,1.552-2.008C260.129,330.792,260.586,331.374,261.043,331.955z"/>
		<path fill-rule="evenodd" clip-rule="evenodd" fill="#AC1557" d="M197.035,367.074c-0.667,0.293-1.334,0.587-2.002,0.879
			c0.265-0.807,0.53-1.613,0.795-2.417C196.23,366.048,196.632,366.561,197.035,367.074z"/>
		<path fill-rule="evenodd" clip-rule="evenodd" fill="#AC1557" d="M219.906,332.114c-0.263-0.688-0.526-1.378-0.789-2.068
			C219.38,330.736,219.643,331.425,219.906,332.114z"/>
		<path fill-rule="evenodd" clip-rule="evenodd" fill="#AC1557" d="M247.171,350.981c0.289,0.688,0.578,1.377,0.867,2.066
			C247.749,352.359,247.46,351.67,247.171,350.981z"/>
		<path fill-rule="evenodd" clip-rule="evenodd" fill="#AC1557" d="M220.968,297.182c-4.519-9.457-15.047-14.399-25.661-12.046
			c-3.2,0.71-18.839,17.052-18.721,20.182c0.086,2.305,0.879,4.915,2.213,6.775c2.885,4.024,6.011,7.995,9.66,11.302
			c1.822,1.651,5.01,1.794,7.58,2.62c-0.335,0.675-0.67,1.349-1.006,2.024c-3.335-1.503-7.238-2.358-9.87-4.664
			c-3.676-3.22-6.642-7.357-9.473-11.409c-3.277-4.689-2.106-10.388,2.006-14.358c3.805-3.67,7.248-7.713,10.944-11.5
			c1.016-1.041,2.251-2.053,3.584-2.565c8.585-3.299,22.42,0.372,28.241,7.514c0.859,1.054,1.065,2.639,1.573,3.979
			C221.681,295.751,221.325,296.466,220.968,297.182z"/>
		<path fill-rule="evenodd" clip-rule="evenodd" fill="#AD1355" d="M213.144,353.08c-0.702-0.011-1.404-0.021-2.105-0.031
			c0.087-3.659,0.077-7.325,0.343-10.971c0.054-0.737,1.152-1.398,1.769-2.095c0.564,3.024,1.127,6.049,1.692,9.073
			c-0.262,0.667-0.526,1.333-0.79,2C213.75,351.729,213.447,352.405,213.144,353.08z"/>
		<path fill-rule="evenodd" clip-rule="evenodd" fill="#AD1355" d="M195.032,328.039c0.336-0.675,0.671-1.349,1.006-2.024
			c1.664-0.288,3.327-0.576,4.991-0.862C200.861,329.92,197.171,327.367,195.032,328.039z"/>
		<path fill-rule="evenodd" clip-rule="evenodd" fill="#AD1355" d="M220.968,297.182c0.356-0.716,0.712-1.431,1.068-2.147
			c0.667,1.667,1.335,3.334,2.003,5.001c-0.406,0.029-0.812,0.059-1.22,0.089C222.201,299.145,221.585,298.164,220.968,297.182z"/>
		<path fill-rule="evenodd" clip-rule="evenodd" fill="#AC1557" d="M214.053,351.056c0.264-0.667,0.527-1.333,0.79-2
			C214.578,349.722,214.315,350.389,214.053,351.056z"/>
	</g>
</g>
</svg>
