<?xml version="1.0" encoding="utf-8"?>
<!-- Generator: Adobe Illustrator 16.0.3, SVG Export Plug-In . SVG Version: 6.00 Build 0)  -->
<!DOCTYPE svg PUBLIC "-//W3C//DTD SVG 1.1//EN" "http://www.w3.org/Graphics/SVG/1.1/DTD/svg11.dtd">
<svg version="1.1" id="Capa_1" xmlns="http://www.w3.org/2000/svg" xmlns:xlink="http://www.w3.org/1999/xlink" x="0px" y="0px"
	 width="612px" height="792px" viewBox="0 0 612 792" enable-background="new 0 0 612 792" xml:space="preserve">
<g>
	<g>
		<path fill-rule="evenodd" clip-rule="evenodd" fill="#FEFEFE" d="M51.011,654.116c-0.004-170.991-0.004-341.983-0.004-513.046
			c170.943,0,341.894,0,512.976,0c0,170.969,0,342.008,0,513.046C393.01,654.116,222.012,654.116,51.011,654.116z M301.474,560.163
			c18.335,0.413,35.326-2.477,51.829-8.234c6.684-2.333,13.093-5.359,16.984-11.649c4.555-7.364,10.849-10.676,19.544-10.549
			c8.628,0.127,16.157-3.191,21.043-10.513c5.319-7.973,12.588-12.755,21.683-14.835c13.747-3.146,22.213-11.391,25.313-25.152
			c1.085-4.814,4.094-8.095,7.964-11.064c2.949-2.263,6.256-5.074,7.51-8.364c6.061-15.886,9.209-32.094,1.206-48.392
			c-3.549-7.227-3.744-14.468-2.18-22.33c1.276-6.411,1.934-13.322,0.977-19.731c-2.846-19.075-12.838-34.457-27.248-46.929
			c-5.789-5.01-9.11-10.575-9.218-18.458c-0.054-3.972-1.44-8.271-3.362-11.803c-5.112-9.399-13.246-15.74-22.959-19.963
			c-7.717-3.353-14.954-7.015-19.705-14.549c-2.937-4.659-7.837-6.098-13.421-6.319c-4.497-0.178-8.98-1.523-13.4-2.629
			c-4.303-1.076-8.497-2.579-12.774-3.767c-11.157-3.102-22.927-4.833-33.333-9.569c-9.979-4.542-18.891-6.017-29.172-2.198
			c-11.794,4.38-23.538,9.142-36.814,7.148c-3.122-0.469-6.777,2.743-10.214,4.199c-2.958,1.254-5.868,3.116-8.948,3.492
			c-8.577,1.048-17.247,1.313-25.842,2.234c-2.146,0.229-4.579,1.314-6.149,2.786c-6.554,6.146-12.613,12.828-19.27,18.853
			c-6.134,5.551-12.221,11.584-19.379,15.464c-8.921,4.835-14.274,11.108-15.246,21.134c-0.672,6.944-3.078,12.967-7.518,18.612
			c-5.707,7.254-8.182,15.651-6.704,25.296c1.802,11.752,1.269,23.385-2.541,35.018c-3.239,9.893-5.115,20.289-6.917,30.581
			c-1.867,10.665-0.239,20.361,6.987,29.518c12.721,16.117,22.222,33.925,22.945,55.28c0.308,9.074,4.174,16.709,12.599,20.728
			c9.368,4.468,16.483,10.848,21.787,19.781c3.964,6.678,10.462,9.613,18.308,8.871c3.135-0.296,6.218-1.098,9.344-1.536
			c13.695-1.915,27.714-4.845,40.874,1.048C270.94,558.335,286.335,560.358,301.474,560.163z"/>
		<path fill-rule="evenodd" clip-rule="evenodd" fill="#F82B82" d="M301.474,560.163c-15.139,0.195-30.534-1.828-45.417-8.491
			c-13.16-5.893-27.179-2.963-40.874-1.048c-3.126,0.438-6.209,1.24-9.344,1.536c-7.845,0.742-14.343-2.193-18.308-8.871
			c-5.304-8.934-12.419-15.313-21.787-19.781c-8.425-4.019-12.291-11.653-12.599-20.728c-0.724-21.355-10.225-39.163-22.945-55.28
			c-7.226-9.156-8.854-18.853-6.987-29.518c1.801-10.292,3.677-20.688,6.917-30.581c3.81-11.632,4.343-23.265,2.541-35.018
			c-1.479-9.645,0.997-18.042,6.704-25.296c4.44-5.645,6.846-11.667,7.518-18.612c0.971-10.025,6.324-16.298,15.246-21.134
			c7.159-3.88,13.246-9.913,19.379-15.464c6.657-6.025,12.716-12.707,19.27-18.853c1.57-1.472,4.002-2.556,6.149-2.786
			c8.596-0.921,17.266-1.186,25.842-2.234c3.08-0.376,5.99-2.238,8.948-3.492c3.437-1.457,7.092-4.668,10.214-4.199
			c13.277,1.994,25.021-2.769,36.814-7.148c10.281-3.819,19.193-2.344,29.172,2.198c10.406,4.736,22.176,6.467,33.333,9.569
			c4.277,1.188,8.472,2.691,12.774,3.767c4.42,1.106,8.903,2.451,13.4,2.629c5.584,0.221,10.484,1.66,13.421,6.319
			c4.751,7.534,11.988,11.196,19.705,14.549c9.713,4.223,17.847,10.564,22.959,19.963c1.922,3.532,3.309,7.832,3.362,11.803
			c0.107,7.883,3.429,13.447,9.218,18.458c14.41,12.472,24.402,27.854,27.248,46.929c0.957,6.409,0.3,13.32-0.977,19.731
			c-1.564,7.862-1.369,15.104,2.18,22.33c8.003,16.298,4.854,32.506-1.206,48.392c-1.254,3.29-4.561,6.102-7.51,8.364
			c-3.87,2.97-6.879,6.25-7.964,11.064c-3.101,13.762-11.566,22.006-25.313,25.152c-9.095,2.08-16.363,6.862-21.683,14.835
			c-4.886,7.321-12.415,10.64-21.043,10.513c-8.695-0.127-14.989,3.185-19.544,10.549c-3.892,6.29-10.301,9.316-16.984,11.649
			C336.8,557.687,319.809,560.576,301.474,560.163z M301.993,553.203c15.811,0.638,30.696-1.892,45.243-6.369
			c7.158-2.204,14.212-4.797,18.536-11.756c5.299-8.526,13.128-12.306,23.157-12.054c6.899,0.173,12.996-2.307,16.784-8.19
			c5.978-9.288,14.511-14.471,24.936-16.918c11.114-2.608,18.216-8.979,20.61-20.428c1.399-6.686,5.498-11.568,11.235-15.281
			c1.858-1.203,3.834-3.051,4.566-5.041c5.214-14.161,8.305-28.435,1.244-43.044c-3.953-8.181-5.322-16.682-2.566-25.68
			c1.006-3.286,1.459-6.878,1.427-10.324c-0.196-21.195-10.662-37.406-25.886-50.863c-6.947-6.14-11.232-13.042-11.073-22.378
			c0.097-5.715-2.014-10.756-6.107-14.267c-5.614-4.815-11.597-9.502-18.13-12.866c-7.507-3.865-14.819-7.441-19.545-14.859
			c-2.076-3.259-5.284-4.494-9.32-4.805c-5.154-0.396-10.271-1.664-15.318-2.909c-2.86-0.708-5.487-2.862-8.324-3.094
			c-15.313-1.253-29.77-5.222-43.239-12.632c-5.022-2.762-10.094-2.838-15.402-0.983c-6.907,2.413-13.761,5.099-20.835,6.876
			c-5.042,1.267-10.402,1.481-15.64,1.7c-4.447,0.185-9.055-0.964-12.62,2.918c-3.656,3.981-8.37,4.914-13.574,5.14
			c-7.791,0.337-15.563,1.146-23.333,1.866c-1.252,0.116-2.76,0.481-3.623,1.292c-5.816,5.47-11.79,10.821-17.137,16.731
			c-6.999,7.738-14.499,14.763-23.962,19.269c-5.961,2.838-9.386,7.086-10.195,13.658c-1.066,8.662-3.353,16.634-9.339,23.67
			c-4.786,5.626-6.362,12.707-5.047,20.636c1.824,11.011,1.626,22.109-1.617,33.087c-2.958,10.007-5.601,20.16-7.506,30.411
			c-1.734,9.329-2.518,18.685,4.701,26.924c4.447,5.075,8.021,11.026,11.365,16.937c7.085,12.525,13.197,25.516,13.352,40.321
			c0.098,9.338,3.899,15.84,12.619,19.588c8.226,3.536,14.251,9.62,18.835,17.27c4.852,8.097,9.239,9.948,18.399,8.086
			c1.955-0.396,3.871-1.035,5.841-1.289c14.348-1.851,28.943-4.495,42.748,1.647C272.476,551.532,287.179,553.738,301.993,553.203z"
			/>
		<path fill-rule="evenodd" clip-rule="evenodd" fill="#EAA7CD" d="M301.993,553.203c-14.813,0.535-29.517-1.671-43.742-8.002
			c-13.805-6.143-28.4-3.498-42.748-1.647c-1.97,0.254-3.886,0.893-5.841,1.289c-9.16,1.862-13.547,0.011-18.399-8.086
			c-4.584-7.649-10.61-13.733-18.835-17.27c-8.72-3.748-12.521-10.25-12.619-19.588c-0.155-14.806-6.267-27.796-13.352-40.321
			c-3.343-5.91-6.917-11.861-11.365-16.937c-7.219-8.239-6.435-17.595-4.701-26.924c1.906-10.251,4.549-20.404,7.506-30.411
			c3.243-10.978,3.441-22.076,1.617-33.087c-1.314-7.929,0.261-15.009,5.047-20.636c5.987-7.037,8.273-15.008,9.339-23.67
			c0.809-6.572,4.234-10.82,10.195-13.658c9.463-4.506,16.963-11.531,23.962-19.269c5.347-5.911,11.32-11.261,17.137-16.731
			c0.863-0.811,2.371-1.175,3.623-1.292c7.77-0.72,15.542-1.529,23.333-1.866c5.204-0.226,9.918-1.159,13.574-5.14
			c3.565-3.883,8.173-2.734,12.62-2.918c5.237-0.219,10.597-0.433,15.64-1.7c7.075-1.778,13.928-4.464,20.835-6.876
			c5.308-1.855,10.379-1.779,15.402,0.983c13.47,7.41,27.926,11.379,43.239,12.632c2.837,0.231,5.464,2.386,8.324,3.094
			c5.047,1.245,10.164,2.513,15.318,2.909c4.036,0.311,7.244,1.545,9.32,4.805c4.726,7.417,12.038,10.994,19.545,14.859
			c6.533,3.364,12.516,8.051,18.13,12.866c4.094,3.511,6.204,8.552,6.107,14.267c-0.159,9.336,4.126,16.238,11.073,22.378
			c15.224,13.457,25.689,29.668,25.886,50.863c0.032,3.446-0.421,7.039-1.427,10.324c-2.756,8.999-1.387,17.5,2.566,25.68
			c7.061,14.609,3.97,28.883-1.244,43.044c-0.732,1.99-2.708,3.838-4.566,5.041c-5.737,3.713-9.836,8.596-11.235,15.281
			c-2.395,11.448-9.496,17.819-20.61,20.428c-10.425,2.447-18.958,7.63-24.936,16.918c-3.788,5.884-9.885,8.363-16.784,8.19
			c-10.029-0.252-17.858,3.527-23.157,12.054c-4.324,6.959-11.378,9.552-18.536,11.756
			C332.688,551.312,317.804,553.841,301.993,553.203z M247.029,423.27c-7.779-0.911-13.867-3.635-18.052-10.084
			c-0.811-1.249-3.064-1.562-4.652-2.307c0.078,1.881-0.474,4.108,0.339,5.584c3.999,7.264,10.771,10.759,18.632,11.979
			c3.496,0.543,4.917,1.936,5.851,5.303c5.32,19.181,16.097,26.343,35.908,24.257c16.117-1.699,25.608-10.384,28.512-26.092
			c4.745-25.668-17.039-47.346-41.245-41.043c-13.018,3.389-20.978-0.375-26.448-12.504c-0.41-0.91-0.621-2.093-1.322-2.639
			c-0.915-0.713-2.482-1.52-3.297-1.174c-0.834,0.354-1.431,2.028-1.514,3.168c-0.077,1.067,0.622,2.206,1.035,3.292
			c3.399,8.95,9.111,15.276,19.838,16.191c-1.915,2.36-3.281,3.998-4.596,5.675c-3.82,4.87-6.428,5.476-11.502,1.823
			c-2.35-1.692-4.425-4.054-5.95-6.528c-1.906-3.091-2.858-6.769-4.737-9.883c-0.989-1.64-3.073-2.621-4.662-3.898
			c-0.143,2.082-0.988,4.433-0.312,6.202c3.849,10.078,8.032,20.042,20.583,22.047C248.567,416.482,247.844,419.676,247.029,423.27z
			 M414.623,398.183c3.273-4.908,6.365-8.913,8.638-13.339c0.668-1.301-0.985-3.795-1.576-5.743
			c-1.238,1.458-3.052,2.725-3.613,4.409c-2.274,6.82-7.524,9.532-14.578,7.948c-4.811-1.08-9.981-2.114-14.763-1.473
			c-14.155,1.899-26.701,16.903-26.933,31.182c-0.237,14.56,10.83,27.681,25.822,30.615c17.131,3.354,33.097-5.572,35.854-21.219
			c1.077-6.113,3.762-9.345,8.71-11.862c4.962-2.523,7.905-6.658,8.204-12.232c0.085-1.584-1.211-3.242-1.874-4.866
			c-1.175,1.144-3.231,2.186-3.378,3.448c-0.782,6.783-5.818,8.98-11.14,11.61c-1.185-3.533-2.228-6.641-2.768-8.25
			c3.858-5.304,7.322-9.578,10.109-14.256c0.646-1.083-1.021-3.543-1.623-5.369c-1.23,1.242-3.079,2.278-3.577,3.765
			c-1.497,4.483-4.368,7.193-8.76,8.683C416.138,399.859,415.044,398.648,414.623,398.183z M202.335,363.828
			c-0.944-0.203-2.048-0.506-3.172-0.671c-9.179-1.343-17.943,2.893-22.44,10.82c-2.649,4.67-0.971,17.13,4.111,21.856
			c5.431,5.052,11.639,9.414,17.992,13.281c4.711,2.868,19.482-1.228,22.658-5.426c4.509-5.961,3.035-20.912-2.421-26.196
			c-1.001-0.97-2.266-3.246-1.852-3.848c3.651-5.312,7.172-10.885,11.771-15.298c2.095-2.01,6.558-2.171,9.876-1.974
			c1.272,0.075,2.387,3.459,3.503,5.377c1.591,2.734,3.022,5.565,4.688,8.252c5.293,8.545,14.02,10.233,22.684,9.278
			c12.957-1.426,23.377-21.055,17.219-32.548c-3.349-6.253-8.414-12.169-14.045-16.486c-9.521-7.297-21.493-3.797-27.637,6.616
			c-0.784,1.328-2.616,2.77-4.042,2.857c-5.45,0.334-10.933,0.135-17.008,0.135c0.511-6.5-4.357-13.602,3.183-19.13
			c0.808-0.593,1.088-2.036,1.407-3.145c2.67-9.265,0.663-17.82-4.339-25.744c-5.831-9.237-14.451-12.301-24.913-9.154
			c-2.55,0.768-5.032,1.844-7.628,2.362c-12.946,2.584-20.271,19.845-12.799,30.987c2.22,3.312,4.306,6.719,6.34,10.149
			c2.852,4.811,7.319,6.586,12.582,6.835c2.772,0.131,5.556,0.022,8.419,0.022C211.465,343.761,210.715,354.18,202.335,363.828z
			 M367.655,473.995c-0.79,1.369-1.487,2.804-2.385,4.099c-4.815,6.937-9.08,14.378-14.675,20.624
			c-7.784,8.693-16.572,8.896-24.79,0.673c-4.958-4.961-8.547-11.29-12.732-17.018c-0.956-1.31-1.835-2.675-2.75-4.015
			c-0.426,0.145-0.851,0.288-1.275,0.432c-0.096,1.208-0.419,2.45-0.246,3.619c0.705,4.766,1.313,9.566,2.408,14.249
			c4.146,17.72,23.63,26.245,39.642,17.466C363.76,507.047,370.702,491.583,367.655,473.995z M246.751,493.651
			c5.415-0.685,10.866-1.163,16.231-2.118c4.16-0.74,7.784-2.781,7.939-7.627c0.157-4.899-3.12-7.38-7.396-8.853
			c-9.991-3.44-20.286-3.318-30.407-1.499c-2.662,0.479-5.64,4.23-6.66,7.119c-0.731,2.071,0.94,5.705,2.614,7.774
			C233.646,494.1,240.385,493.085,246.751,493.651z M425.522,484.106c0.051,0.279,0.101,0.56,0.151,0.839
			c5.156-0.96,10.42-1.549,15.432-3.005c3.751-1.09,6.949-3.678,6.659-8.225c-0.268-4.197-4.784-9.296-9.04-9.4
			c-7.857-0.192-15.776,0.033-23.589,0.858c-5.144,0.542-9.03,5.497-8.691,9.416c0.428,4.962,5.061,9.19,10.596,9.49
			C419.86,484.232,422.695,484.106,425.522,484.106z"/>
		<path fill-rule="evenodd" clip-rule="evenodd" fill="#302F2F" d="M247.029,423.27c0.814-3.594,1.538-6.787,2.41-10.631
			c-12.551-2.005-16.734-11.969-20.583-22.047c-0.676-1.77,0.169-4.121,0.312-6.202c1.589,1.277,3.673,2.258,4.662,3.898
			c1.878,3.114,2.831,6.792,4.737,9.883c1.525,2.475,3.601,4.836,5.95,6.528c5.074,3.652,7.682,3.047,11.502-1.823
			c1.314-1.677,2.681-3.314,4.596-5.675c-10.727-0.915-16.439-7.241-19.838-16.191c-0.413-1.086-1.112-2.225-1.035-3.292
			c0.083-1.141,0.68-2.814,1.514-3.168c0.814-0.346,2.382,0.461,3.297,1.174c0.702,0.546,0.913,1.729,1.322,2.639
			c5.47,12.128,13.43,15.893,26.448,12.504c24.206-6.302,45.99,15.375,41.245,41.043c-2.903,15.708-12.395,24.393-28.512,26.092
			c-19.811,2.086-30.588-5.076-35.908-24.257c-0.934-3.367-2.354-4.76-5.851-5.303c-7.861-1.221-14.633-4.716-18.632-11.979
			c-0.813-1.476-0.261-3.703-0.339-5.584c1.588,0.745,3.841,1.058,4.652,2.307C233.162,419.635,239.25,422.358,247.029,423.27z
			 M285.447,427.33c6.616-0.098,11.942-5.527,11.951-12.184c0.009-6.923-5.488-12.367-12.363-12.245
			c-6.548,0.115-11.961,5.597-12.005,12.155C272.985,421.793,278.687,427.43,285.447,427.33z M267.832,448.102
			c3.885-0.328,5.991-2.599,5.857-6.155c-0.132-3.536-2.413-5.943-6.151-5.756c-3.606,0.18-5.771,2.31-5.676,6.147
			C261.957,446.239,264.306,447.848,267.832,448.102z"/>
		<path fill-rule="evenodd" clip-rule="evenodd" fill="#302F2F" d="M414.623,398.183c0.421,0.466,1.515,1.677,2.756,3.052
			c4.392-1.49,7.263-4.2,8.76-8.683c0.498-1.487,2.347-2.523,3.577-3.765c0.603,1.826,2.269,4.286,1.623,5.369
			c-2.787,4.678-6.251,8.952-10.109,14.256c0.54,1.609,1.583,4.717,2.768,8.25c5.321-2.63,10.357-4.827,11.14-11.61
			c0.146-1.263,2.203-2.305,3.378-3.448c0.663,1.624,1.959,3.282,1.874,4.866c-0.299,5.574-3.242,9.709-8.204,12.232
			c-4.948,2.518-7.633,5.749-8.71,11.862c-2.758,15.646-18.724,24.573-35.854,21.219c-14.992-2.935-26.06-16.056-25.822-30.615
			c0.231-14.278,12.777-29.283,26.933-31.182c4.781-0.641,9.952,0.394,14.763,1.473c7.054,1.583,12.304-1.128,14.578-7.948
			c0.562-1.684,2.375-2.951,3.613-4.409c0.591,1.948,2.244,4.441,1.576,5.743C420.988,389.27,417.896,393.274,414.623,398.183z
			 M401.436,425.074c6.752-0.114,12.46-5.975,12.232-12.565c-0.224-6.524-5.786-11.802-12.441-11.802
			c-7.035,0-12.461,5.371-12.388,12.263C388.911,419.739,394.583,425.189,401.436,425.074z M388.414,436.277
			c-0.134-3.848-2.035-6.048-5.793-6.135c-3.824-0.089-5.93,2.272-5.954,5.865c-0.022,3.363,2.069,5.715,5.534,5.845
			C385.848,441.988,388.013,439.919,388.414,436.277z"/>
		<path fill-rule="evenodd" clip-rule="evenodd" fill="#AD1659" d="M202.335,363.828c8.38-9.648,9.13-20.067,4.135-30.793
			c-2.864,0-5.647,0.108-8.419-0.022c-5.263-0.249-9.73-2.024-12.582-6.835c-2.034-3.43-4.12-6.837-6.34-10.149
			c-7.471-11.142-0.147-28.403,12.799-30.987c2.596-0.518,5.078-1.594,7.628-2.362c10.462-3.147,19.082-0.083,24.913,9.154
			c5.002,7.923,7.009,16.479,4.339,25.744c-0.319,1.109-0.599,2.552-1.407,3.145c-7.54,5.529-2.672,12.63-3.183,19.13
			c6.076,0,11.558,0.199,17.008-0.135c1.426-0.087,3.258-1.529,4.042-2.857c6.145-10.414,18.117-13.914,27.637-6.616
			c5.632,4.317,10.696,10.233,14.045,16.486c6.158,11.494-4.262,31.123-17.219,32.548c-8.665,0.955-17.391-0.733-22.684-9.278
			c-1.665-2.687-3.097-5.518-4.688-8.252c-1.116-1.917-2.23-5.302-3.503-5.377c-3.318-0.197-7.782-0.036-9.876,1.974
			c-4.598,4.413-8.12,9.986-11.771,15.298c-0.414,0.603,0.851,2.878,1.852,3.848c5.456,5.285,6.93,20.235,2.421,26.196
			c-3.176,4.198-17.947,8.294-22.658,5.426c-6.353-3.867-12.561-8.229-17.992-13.281c-5.082-4.727-6.761-17.187-4.111-21.856
			c4.498-7.927,13.261-12.163,22.44-10.82C200.288,363.322,201.391,363.625,202.335,363.828z M199.429,327.958
			c0.663,0,2.076,0.293,3.311-0.052c4.572-1.279,9.242-2.406,13.571-4.289c3.806-1.654,6.779-4.278,7.961-8.923
			c1.591-6.252,0.616-11.994-2.198-17.379c-5.112-9.781-12.259-13.992-22.846-9.392c-1.825,0.793-3.729,1.417-5.62,2.048
			c-11.728,3.909-15.605,13.219-9.951,24.257c1.51,2.948,3.5,5.647,5.182,8.512C191.08,326.557,194.267,328.504,199.429,327.958z
			 M260.605,331.541c-2.353,0.546-5.886,0.309-6.855,1.771c-4.338,6.539-9.873,13.081-8.501,21.593
			c0.682,4.236,3.284,8.273,5.494,12.127c3.004,5.236,14.089,8.628,20.046,7.338c7.537-1.631,14.353-16.852,13.088-23.171
			C282.098,342.306,269.583,332.071,260.605,331.541z M196.472,368.013c-13.072,0.008-19.001,9.119-13.743,20.459
			c0.28,0.603,0.419,1.348,0.861,1.787c4.031,4.012,7.976,8.126,12.218,11.905c5.203,4.634,10.853,3.363,16.691,0.961
			c5.986-2.461,9.688-15.127,5.639-20.31c-0.304-0.39-0.688-0.722-1.06-1.053c-2.601-2.311-5.059-4.818-7.85-6.874
			C205.213,371.933,202.148,366.996,196.472,368.013z M211.261,329.826c0.106,0.77,0.091,1.602,0.343,2.343
			c3.684,10.833,4.299,21.319-2.694,31.307c-2.616,3.737,0.449,5.601,3.505,7.771c1.656-2.578,3.072-4.96,4.661-7.222
			c4.544-6.473,9.228-13.026,18.269-12.855c5.079,0.097,5.695-2.51,5.313-7.139c-5.117,0.435-10.096,0.434-14.88,1.4
			c-3.854,0.778-5.305-0.593-5.839-3.966c-0.336-2.122-0.786-4.249-0.859-6.385C218.861,328.761,218.106,328.184,211.261,329.826z"
			/>
		<path fill-rule="evenodd" clip-rule="evenodd" fill="#312E30" d="M367.655,473.995c3.047,17.588-3.896,33.052-16.804,40.129
			c-16.012,8.779-35.496,0.254-39.642-17.466c-1.096-4.683-1.703-9.483-2.408-14.249c-0.173-1.169,0.15-2.411,0.246-3.619
			c0.425-0.144,0.85-0.287,1.275-0.432c0.915,1.34,1.794,2.705,2.75,4.015c4.186,5.728,7.774,12.057,12.732,17.018
			c8.218,8.224,17.006,8.021,24.79-0.673c5.595-6.246,9.859-13.688,14.675-20.624C366.168,476.799,366.865,475.364,367.655,473.995z
			"/>
		<path fill-rule="evenodd" clip-rule="evenodd" fill="#E98A8E" d="M246.751,493.651c-6.366-0.566-13.105,0.448-17.679-5.203
			c-1.674-2.069-3.345-5.703-2.614-7.774c1.02-2.889,3.998-6.64,6.66-7.119c10.121-1.819,20.416-1.941,30.407,1.499
			c4.276,1.473,7.553,3.953,7.396,8.853c-0.155,4.846-3.779,6.887-7.939,7.627C257.617,492.488,252.166,492.967,246.751,493.651z"/>
		<path fill-rule="evenodd" clip-rule="evenodd" fill="#E98A8E" d="M425.522,484.106c-2.827,0-5.662,0.126-8.482-0.026
			c-5.535-0.3-10.168-4.528-10.596-9.49c-0.339-3.919,3.548-8.874,8.691-9.416c7.813-0.825,15.731-1.051,23.589-0.858
			c4.256,0.104,8.772,5.203,9.04,9.4c0.29,4.547-2.908,7.135-6.659,8.225c-5.012,1.456-10.275,2.045-15.432,3.005
			C425.623,484.666,425.573,484.386,425.522,484.106z"/>
		<path fill-rule="evenodd" clip-rule="evenodd" fill="#F4F4F4" d="M285.447,427.33c-6.76,0.1-12.462-5.537-12.417-12.273
			c0.044-6.559,5.457-12.04,12.005-12.155c6.875-0.122,12.372,5.322,12.363,12.245C297.389,421.803,292.063,427.232,285.447,427.33z
			"/>
		<path fill-rule="evenodd" clip-rule="evenodd" fill="#F4F4F4" d="M267.832,448.102c-3.526-0.254-5.875-1.862-5.97-5.764
			c-0.094-3.838,2.07-5.968,5.676-6.147c3.738-0.188,6.019,2.22,6.151,5.756C273.822,445.503,271.717,447.773,267.832,448.102z"/>
		<path fill-rule="evenodd" clip-rule="evenodd" fill="#F7F7F7" d="M401.436,425.074c-6.853,0.115-12.524-5.335-12.597-12.104
			c-0.073-6.892,5.353-12.263,12.388-12.263c6.655,0,12.218,5.277,12.441,11.802C413.896,419.1,408.188,424.96,401.436,425.074z"/>
		<path fill-rule="evenodd" clip-rule="evenodd" fill="#F6F6F6" d="M388.414,436.277c-0.401,3.642-2.566,5.711-6.213,5.575
			c-3.465-0.13-5.557-2.481-5.534-5.845c0.024-3.593,2.13-5.954,5.954-5.865C386.379,430.229,388.28,432.43,388.414,436.277z"/>
		<path fill-rule="evenodd" clip-rule="evenodd" fill="#661246" d="M199.429,327.958c-5.162,0.545-8.35-1.401-10.589-5.217
			c-1.682-2.865-3.672-5.564-5.182-8.512c-5.655-11.039-1.777-20.348,9.951-24.257c1.892-0.631,3.795-1.255,5.62-2.048
			c10.587-4.601,17.734-0.39,22.846,9.392c2.814,5.385,3.789,11.126,2.198,17.379c-1.182,4.645-4.155,7.269-7.961,8.923
			c-4.329,1.883-9,3.01-13.571,4.289C201.505,328.252,200.092,327.958,199.429,327.958z"/>
		<path fill-rule="evenodd" clip-rule="evenodd" fill="#661246" d="M260.605,331.541c8.977,0.53,21.492,10.765,23.272,19.658
			c1.264,6.32-5.551,21.54-13.088,23.171c-5.958,1.29-17.042-2.102-20.046-7.338c-2.21-3.854-4.812-7.891-5.494-12.127
			c-1.371-8.512,4.163-15.054,8.501-21.593C254.72,331.849,258.252,332.086,260.605,331.541z"/>
		<path fill-rule="evenodd" clip-rule="evenodd" fill="#671246" d="M196.472,368.013c5.676-1.017,8.741,3.92,12.757,6.875
			c2.791,2.055,5.249,4.563,7.85,6.874c0.372,0.331,0.755,0.664,1.06,1.053c4.049,5.183,0.348,17.849-5.639,20.31
			c-5.839,2.402-11.488,3.673-16.691-0.961c-4.242-3.779-8.188-7.894-12.218-11.905c-0.442-0.439-0.582-1.185-0.861-1.787
			C177.471,377.132,183.4,368.021,196.472,368.013z"/>
		<path fill-rule="evenodd" clip-rule="evenodd" fill="#681246" d="M211.261,329.826c6.846-1.642,7.601-1.065,7.817,5.253
			c0.073,2.136,0.523,4.264,0.859,6.385c0.535,3.373,1.985,4.744,5.839,3.966c4.784-0.966,9.763-0.965,14.88-1.4
			c0.382,4.629-0.234,7.236-5.313,7.139c-9.041-0.171-13.724,6.382-18.269,12.855c-1.588,2.261-3.005,4.644-4.661,7.222
			c-3.056-2.17-6.121-4.033-3.505-7.771c6.994-9.988,6.378-20.474,2.694-31.307C211.352,331.428,211.367,330.596,211.261,329.826z"
			/>
	</g>
</g>
</svg>
