<?xml version="1.0" encoding="utf-8"?>
<!-- Generator: Adobe Illustrator 16.0.3, SVG Export Plug-In . SVG Version: 6.00 Build 0)  -->
<!DOCTYPE svg PUBLIC "-//W3C//DTD SVG 1.1//EN" "http://www.w3.org/Graphics/SVG/1.1/DTD/svg11.dtd">
<svg version="1.1" id="Capa_1" xmlns="http://www.w3.org/2000/svg" xmlns:xlink="http://www.w3.org/1999/xlink" x="0px" y="0px"
	 width="612px" height="792px" viewBox="0 0 612 792" enable-background="new 0 0 612 792" xml:space="preserve">
<g>
	<g>
		<path fill-rule="evenodd" clip-rule="evenodd" fill="#FEFEFE" d="M51,141c171.039,0,342.078,0,513.116,0
			c0,171.039,0,342.078,0,513.116c-171.038,0-342.077,0-513.116,0C51,483.078,51,312.039,51,141z M301.349,560.165
			c18.309,0.383,35.141-2.419,51.501-8.093c6.858-2.38,13.439-5.381,17.452-11.813c4.575-7.332,10.821-10.696,19.548-10.536
			c8.627,0.158,16.152-3.196,21.035-10.52c5.318-7.976,12.596-12.753,21.689-14.824c13.769-3.139,22.171-11.445,25.301-25.171
			c1.098-4.813,4.084-8.113,7.984-11.048c2.846-2.141,6.054-4.793,7.282-7.93c6.21-15.846,9.451-32.061,1.6-48.384
			c-3.653-7.595-4.015-15.066-2.222-23.271c1.322-6.052,1.797-12.653,0.911-18.758c-2.796-19.285-12.807-34.817-27.351-47.411
			c-5.79-5.014-9.05-10.592-9.213-18.465c-0.085-4.12-1.601-8.566-3.63-12.222c-5.101-9.188-13.143-15.4-22.702-19.533
			c-7.728-3.341-14.943-7.034-19.698-14.558c-2.943-4.659-7.844-6.114-13.432-6.291c-4.338-0.137-8.668-1.419-12.943-2.436
			c-5.107-1.213-10.169-2.63-15.223-4.057c-10.365-2.926-21.304-4.67-30.904-9.224c-10.037-4.762-19.11-6.41-29.612-2.455
			c-11.772,4.434-23.541,9.174-36.811,7.13c-3.005-0.463-6.52,2.568-9.836,3.902c-3.414,1.374-6.779,3.342-10.33,3.813
			c-8.397,1.115-16.909,1.354-25.337,2.279c-1.98,0.218-4.188,1.356-5.654,2.744c-6.524,6.179-12.6,12.842-19.258,18.867
			c-6.135,5.55-12.225,11.581-19.385,15.457c-8.933,4.835-14.255,11.133-15.223,21.149c-0.671,6.949-3.101,12.963-7.533,18.606
			c-5.704,7.262-8.151,15.66-6.689,25.303c1.677,11.058,1.497,22.088-1.945,33.105c-3.209,10.273-5.496,20.891-7.392,31.499
			c-1.954,10.932-0.65,20.989,6.886,30.506c12.736,16.082,22.249,33.911,22.936,55.283c0.292,9.077,4.191,16.706,12.617,20.714
			c9.378,4.461,16.47,10.866,21.779,19.79c3.973,6.677,10.479,9.606,18.319,8.842c3.297-0.321,6.532-1.233,9.823-1.672
			c13.538-1.808,27.401-4.649,40.39,1.193C270.954,558.366,286.359,560.355,301.349,560.165z"/>
		<path fill-rule="evenodd" clip-rule="evenodd" fill="#F82B82" d="M301.349,560.165c-14.989,0.19-30.395-1.799-45.268-8.489
			c-12.989-5.843-26.852-3.001-40.39-1.193c-3.291,0.438-6.525,1.351-9.823,1.672c-7.84,0.765-14.347-2.165-18.319-8.842
			c-5.309-8.924-12.401-15.329-21.779-19.79c-8.426-4.008-12.326-11.637-12.617-20.714c-0.687-21.372-10.199-39.201-22.936-55.283
			c-7.536-9.517-8.84-19.574-6.886-30.506c1.896-10.608,4.182-21.226,7.392-31.499c3.441-11.017,3.622-22.047,1.945-33.105
			c-1.462-9.643,0.985-18.041,6.689-25.303c4.432-5.643,6.862-11.657,7.533-18.606c0.967-10.017,6.29-16.314,15.223-21.149
			c7.161-3.875,13.25-9.906,19.385-15.457c6.658-6.025,12.733-12.688,19.258-18.867c1.466-1.388,3.674-2.526,5.654-2.744
			c8.429-0.925,16.94-1.164,25.337-2.279c3.551-0.472,6.916-2.44,10.33-3.813c3.316-1.334,6.831-4.365,9.836-3.902
			c13.27,2.044,25.038-2.696,36.811-7.13c10.502-3.956,19.575-2.307,29.612,2.455c9.601,4.554,20.539,6.298,30.904,9.224
			c5.054,1.427,10.115,2.843,15.223,4.057c4.275,1.017,8.605,2.299,12.943,2.436c5.588,0.177,10.488,1.632,13.432,6.291
			c4.755,7.524,11.971,11.216,19.698,14.558c9.56,4.133,17.602,10.344,22.702,19.533c2.029,3.655,3.545,8.102,3.63,12.222
			c0.163,7.873,3.423,13.451,9.213,18.465c14.544,12.594,24.555,28.126,27.351,47.411c0.886,6.105,0.411,12.706-0.911,18.758
			c-1.793,8.205-1.432,15.677,2.222,23.271c7.852,16.323,4.61,32.538-1.6,48.384c-1.229,3.137-4.437,5.789-7.282,7.93
			c-3.9,2.935-6.887,6.234-7.984,11.048c-3.13,13.726-11.532,22.032-25.301,25.171c-9.094,2.071-16.371,6.849-21.689,14.824
			c-4.883,7.323-12.408,10.678-21.035,10.52c-8.727-0.16-14.973,3.204-19.548,10.536c-4.013,6.433-10.594,9.434-17.452,11.813
			C336.489,557.746,319.657,560.548,301.349,560.165z M302.358,553.197c15.416,0.692,30.454-1.874,45.156-6.449
			c7.173-2.233,14.131-4.953,18.444-11.896c5.201-8.37,12.942-12.044,22.764-11.813c7.103,0.168,13.247-2.407,17.192-8.424
			c5.93-9.045,14.266-14.262,24.55-16.642c11.318-2.618,18.499-9.11,20.895-20.777c1.337-6.507,5.404-11.249,10.984-14.869
			c1.866-1.211,3.893-3.008,4.632-4.989c5.275-14.141,8.405-28.416,1.395-43.035c-4.009-8.36-5.402-17.005-2.545-26.158
			c0.975-3.122,1.373-6.553,1.346-9.838c-0.173-21.389-10.715-37.692-26.128-51.248c-6.813-5.991-10.978-12.853-10.825-21.994
			c0.099-5.905-2.098-11.038-6.322-14.694c-5.344-4.625-11.058-9.128-17.307-12.326c-7.802-3.992-15.237-7.82-20.521-15.286
			c-1.688-2.387-5.623-3.579-8.771-4.454c-5.151-1.432-10.54-1.99-15.749-3.248c-2.863-0.692-5.505-2.769-8.349-3.008
			c-14.963-1.261-29.137-5.076-42.316-12.281c-5.349-2.924-10.63-3.265-16.313-1.223c-6.729,2.417-13.453,4.958-20.363,6.719
			c-4.884,1.245-10.086,1.812-15.129,1.72c-5.836-0.106-10.868,0.23-15.599,4.624c-2.464,2.288-6.941,2.849-10.618,3.3
			c-7.903,0.969-15.884,1.287-23.815,2.057c-1.535,0.148-3.319,0.787-4.421,1.809c-5.607,5.208-11.353,10.325-16.435,16.023
			c-7.063,7.92-14.718,14.997-24.334,19.583c-5.792,2.763-9.147,6.949-9.907,13.307c-1.059,8.865-3.53,16.939-9.542,24.121
			c-4.759,5.685-6.113,12.776-4.871,20.687c1.753,11.168,1.588,22.412-1.888,33.548c-3.058,9.795-5.507,19.846-7.315,29.945
			c-1.639,9.154-2.438,18.368,4.633,26.474c4.438,5.087,8.014,11.029,11.38,16.928c7.219,12.654,13.308,25.811,13.487,40.79
			c0.109,9.133,3.885,15.517,12.408,19.198c8.38,3.621,14.524,9.793,19.171,17.619c4.547,7.658,8.846,9.521,17.554,7.992
			c2.127-0.373,4.201-1.084,6.335-1.369c14.513-1.938,29.274-4.555,43.23,1.673C272.605,551.577,287.156,553.666,302.358,553.197z"
			/>
		<path fill-rule="evenodd" clip-rule="evenodd" fill="#EAA7CD" d="M302.358,553.197c-15.202,0.469-29.753-1.62-43.828-7.901
			c-13.956-6.228-28.718-3.61-43.23-1.673c-2.134,0.285-4.208,0.996-6.335,1.369c-8.708,1.528-13.007-0.334-17.554-7.992
			c-4.647-7.826-10.791-13.998-19.171-17.619c-8.523-3.682-12.299-10.065-12.408-19.198c-0.179-14.979-6.268-28.136-13.487-40.79
			c-3.366-5.898-6.942-11.841-11.38-16.928c-7.07-8.105-6.271-17.319-4.633-26.474c1.808-10.1,4.257-20.15,7.315-29.945
			c3.477-11.136,3.642-22.38,1.888-33.548c-1.242-7.91,0.112-15.001,4.871-20.687c6.013-7.181,8.483-15.255,9.542-24.121
			c0.76-6.358,4.114-10.543,9.907-13.307c9.617-4.587,17.271-11.663,24.334-19.583c5.082-5.699,10.828-10.816,16.435-16.023
			c1.102-1.022,2.887-1.661,4.421-1.809c7.931-0.771,15.912-1.088,23.815-2.057c3.677-0.451,8.154-1.013,10.618-3.3
			c4.731-4.394,9.763-4.73,15.599-4.624c5.042,0.092,10.245-0.476,15.129-1.72c6.911-1.761,13.635-4.302,20.363-6.719
			c5.683-2.042,10.964-1.702,16.313,1.223c13.18,7.205,27.354,11.021,42.316,12.281c2.844,0.239,5.485,2.316,8.349,3.008
			c5.209,1.258,10.598,1.815,15.749,3.248c3.147,0.875,7.082,2.067,8.771,4.454c5.283,7.465,12.719,11.293,20.521,15.286
			c6.249,3.198,11.963,7.701,17.307,12.326c4.225,3.656,6.421,8.789,6.322,14.694c-0.152,9.142,4.013,16.003,10.825,21.994
			c15.413,13.556,25.955,29.859,26.128,51.248c0.027,3.285-0.371,6.716-1.346,9.838c-2.857,9.153-1.464,17.797,2.545,26.158
			c7.011,14.619,3.881,28.895-1.395,43.035c-0.739,1.981-2.766,3.778-4.632,4.989c-5.58,3.62-9.647,8.362-10.984,14.869
			c-2.396,11.667-9.576,18.159-20.895,20.777c-10.284,2.38-18.62,7.597-24.55,16.642c-3.945,6.017-10.09,8.592-17.192,8.424
			c-9.821-0.231-17.563,3.442-22.764,11.813c-4.313,6.942-11.271,9.662-18.444,11.896
			C332.812,551.323,317.773,553.89,302.358,553.197z M263.632,391.549c-9.087,0.277-14.473-4.421-17.694-12.59
			c-0.733-1.86-3.784-4.672-4.564-4.326c-3.593,1.59-1.282,4.458-0.402,6.767c3.354,8.815,9.093,14.944,19.735,15.745
			c-1.92,2.343-3.295,3.963-4.606,5.632c-3.971,5.059-6.667,5.657-11.881,1.707c-2.428-1.84-4.469-4.448-6.046-7.089
			c-1.95-3.266-3.031-7.045-4.915-10.358c-0.708-1.247-2.615-1.811-3.976-2.686c-0.378,1.595-1.504,3.482-1.015,4.74
			c4.068,10.45,7.866,21.284,21.228,23.576c-0.9,3.78-1.69,7.097-2.512,10.55c-7.839-0.765-13.93-3.714-18.193-10.288
			c-0.75-1.156-3.108-1.269-4.724-1.863c0.041,1.632-0.478,3.567,0.216,4.845c3.935,7.251,10.461,11.171,18.373,12.377
			c4.097,0.624,5.654,2.333,6.73,6.255c2.838,10.345,7.909,19.428,19.179,22.419c10.833,2.875,21.499,1.636,31.467-3.802
			c6.008-3.277,9.791-8.456,11.874-14.857c2.994-9.197,3.19-18.512,0.185-28.354c2.34,0.515,4.071,1.182,5.81,1.199
			c1.815,0.018,4.403,0,5.244-1.089c0.875-1.134,0.591-3.801-0.114-5.386c-1.754-3.941-4.228-7.558-6.063-11.469
			c-3.328-7.095-8.474-12.21-15.5-15.623c-5.69-2.762-11.261-5.77-16.885-8.669c0.76-2.024,1.433-4.086,2.295-6.065
			c3.57-8.19,2.148-15.694-3.363-22.418c-2.734-3.334-5.73-6.556-9.054-9.286c-9.554-7.848-23.175-5.095-29.046,5.475
			c-0.758,1.365-2.458,3.014-3.81,3.098c-5.603,0.348-11.239,0.146-17.333,0.146c0.252-6.637-4.279-13.755,3.204-19.232
			c0.7-0.512,0.969-1.736,1.243-2.686c2.884-10.007,0.818-19.306-5.225-27.403c-5.273-7.066-13.35-12.28-24.069-7.845
			c-2.451,1.015-5.023,1.85-7.619,2.382c-12.98,2.661-19.993,20.111-12.831,30.618c2.244,3.292,4.275,6.736,6.282,10.181
			c3.018,5.184,7.77,7.061,13.426,7.156c2.603,0.045,5.211-0.222,7.662-0.341c5.053,11.174,4.34,21.593-3.973,31.1
			c-0.426-0.051-0.915-0.069-1.387-0.17c-9.853-2.096-18.666,1.451-23.825,9.597c-3.123,4.933-2.08,16.938,3.466,22.302
			c5.66,5.475,12.458,9.93,19.247,14.023c3.999,2.411,18.301-1.994,21.368-5.61c0.527-0.621,1.123-1.394,1.205-2.149
			c0.625-5.762,1.964-11.628,1.339-17.27c-0.333-3.008-4.127-5.628-6.346-8.436c-0.302-0.382-0.522-0.828-1.247-1.994
			c3.484-4.688,6.84-9.833,10.847-14.411c3.819-4.364,10.695-4.799,14.006-1.562c-2.647,3.513-1.294,6.486,1.299,9.239
			c7.333,7.785,14.69,15.547,22.039,23.317C264.131,390.962,263.881,391.255,263.632,391.549z M414.419,397.979
			c3.191-4.346,8.137-8.051,8.301-11.956c0.305-7.267,5.078-11.663,7.636-17.4c0.946-2.121,2.137-4.183,2.725-6.402
			c1.52-5.73-1.594-9.981-7.504-10.301c-8.182-0.443-16.102,0.745-22.665,6.019c-9.699,7.796-19.327,15.708-28.606,23.994
			c-6.321,5.645-12.238,11.805-17.813,18.188c-1.68,1.925-2.792,5.8-2.003,8.007c0.752,2.103,4.312,3.219,6.673,4.71
			c0.496,0.313,1.155,0.372,1.714,0.54c-3.739,18.689,6.703,34.805,24.637,38.378c17.473,3.481,34.042-6.217,36.185-22.077
			c0.716-5.299,2.868-8.064,7.112-10.148c5.616-2.762,9.321-7.024,9.691-13.447c0.082-1.439-1.229-2.961-1.898-4.444
			c-1.198,1.103-3.307,2.104-3.445,3.327c-0.766,6.779-5.805,9.055-11.206,11.754c-1.148-3.584-2.187-6.817-3.224-10.052
			c0.523,0.233,1.047,0.467,1.57,0.7c3.143-4.643,6.462-9.183,9.267-14.021c0.51-0.879-1.087-2.979-1.711-4.514
			c-1.232,1.019-3.222,1.831-3.564,3.092c-1.302,4.797-4.246,7.673-8.873,9.343C416.214,399.949,415.107,398.734,414.419,397.979z
			 M368.604,512.913c0.688-1.935,1.406-2.888,1.241-3.649c-1.511-6.973-2.457-14.184-4.959-20.798
			c-3.892-10.287-18.265-17.037-29.035-14.596c-18.949,4.295-30.467,23.961-25.393,44.745c1.127-1.92,1.845-3.29,2.696-4.571
			c4.863-7.317,9.136-15.146,14.802-21.782c7.1-8.317,15.783-8.739,23.649-1.319c5.226,4.929,9.163,11.229,13.631,16.954
			C366.281,509.233,367.141,510.717,368.604,512.913z M246.675,493.642c5.417-0.672,10.872-1.13,16.239-2.083
			c4.14-0.736,7.805-2.734,8.006-7.58c0.204-4.906-3.055-7.417-7.325-8.903c-9.983-3.479-20.283-3.344-30.408-1.544
			c-2.675,0.476-5.675,4.19-6.719,7.072c-0.748,2.065,0.892,5.719,2.554,7.792C233.571,494.071,240.306,493.1,246.675,493.642z
			 M426.205,484.812c4.338-0.802,9.938-1.077,14.867-3.038c2.838-1.129,5.704-4.675,6.545-7.692c0.996-3.58-4.223-9.013-8.457-9.743
			c-8.553-1.475-17.28-1.575-25.439,1.308c-3,1.06-6.221,4.931-6.962,8.08c-0.917,3.896,1.736,7.929,6.072,9.131
			C416.752,483.942,420.934,484.086,426.205,484.812z"/>
		<path fill-rule="evenodd" clip-rule="evenodd" fill="#2F2E2F" d="M284.58,368.913c5.624,2.899,11.195,5.907,16.885,8.669
			c7.027,3.413,12.172,8.528,15.5,15.623c1.835,3.911,4.309,7.527,6.063,11.469c0.705,1.585,0.989,4.252,0.114,5.386
			c-0.841,1.089-3.429,1.106-5.244,1.089c-1.738-0.018-3.47-0.685-5.81-1.199c3.006,9.842,2.81,19.156-0.185,28.354
			c-2.083,6.401-5.865,11.58-11.874,14.857c-9.968,5.438-20.633,6.677-31.467,3.802c-11.27-2.991-16.341-12.074-19.179-22.419
			c-1.077-3.922-2.634-5.631-6.73-6.255c-7.912-1.206-14.438-5.126-18.373-12.377c-0.693-1.277-0.175-3.213-0.216-4.845
			c1.616,0.595,3.974,0.707,4.724,1.863c4.263,6.574,10.354,9.523,18.193,10.288c0.822-3.453,1.611-6.77,2.512-10.55
			c-13.362-2.292-17.16-13.126-21.228-23.576c-0.489-1.258,0.637-3.146,1.015-4.74c1.36,0.875,3.267,1.439,3.976,2.686
			c1.884,3.313,2.965,7.092,4.915,10.358c1.578,2.641,3.618,5.249,6.046,7.089c5.215,3.95,7.911,3.352,11.881-1.707
			c1.311-1.669,2.686-3.289,4.606-5.632c-10.642-0.801-16.38-6.93-19.735-15.745c-0.879-2.309-3.191-5.177,0.402-6.767
			c0.78-0.346,3.831,2.466,4.564,4.326c3.222,8.169,8.607,12.867,17.696,12.587c0.605,0.051,1.209,0.104,1.813,0.158
			c-0.355-0.346-0.711-0.69-1.066-1.037c-7.348-7.77-14.706-15.533-22.039-23.317c-2.593-2.753-3.946-5.726-1.299-9.239
			c1.339-0.351,2.678-0.699,4.017-1.049c11.607,3.029,23.215,6.058,34.823,9.087C281.449,367.071,283.014,367.992,284.58,368.913z
			 M297.4,414.962c-0.092-6.705-5.879-12.212-12.671-12.058c-6.401,0.145-11.808,5.884-11.7,12.418
			c0.111,6.731,5.902,12.229,12.643,12.003C292.273,427.104,297.491,421.604,297.4,414.962z M267.817,448.1
			c3.883-0.318,5.996-2.582,5.872-6.138c-0.124-3.535-2.398-5.949-6.136-5.771c-3.603,0.172-5.776,2.292-5.69,6.132
			C261.949,446.223,264.29,447.839,267.817,448.1z"/>
		<path fill-rule="evenodd" clip-rule="evenodd" fill="#2F2E2F" d="M414.419,397.979c0.688,0.756,1.795,1.971,2.996,3.29
			c4.627-1.67,7.571-4.546,8.873-9.343c0.343-1.261,2.332-2.074,3.564-3.092c0.624,1.535,2.221,3.634,1.711,4.514
			c-2.805,4.838-6.124,9.378-9.267,14.021c-0.523-0.233-1.047-0.467-1.57-0.7c1.037,3.234,2.075,6.468,3.224,10.052
			c5.401-2.699,10.44-4.975,11.206-11.754c0.139-1.224,2.247-2.225,3.445-3.327c0.669,1.483,1.98,3.005,1.898,4.444
			c-0.37,6.423-4.075,10.686-9.691,13.447c-4.244,2.084-6.396,4.85-7.112,10.148c-2.143,15.86-18.712,25.559-36.185,22.077
			c-17.934-3.573-28.376-19.688-24.637-38.378c-0.559-0.168-1.218-0.227-1.714-0.54c-2.361-1.491-5.921-2.607-6.673-4.71
			c-0.789-2.207,0.323-6.082,2.003-8.007c5.575-6.384,11.492-12.543,17.813-18.188c9.279-8.286,18.907-16.198,28.606-23.994
			c6.563-5.274,14.483-6.462,22.665-6.019c5.91,0.32,9.023,4.571,7.504,10.301c-0.588,2.219-1.778,4.281-2.725,6.402
			c-2.558,5.738-7.331,10.133-7.636,17.4C422.556,389.928,417.61,393.633,414.419,397.979z M401.126,425.074
			c6.764,0.048,12.565-5.618,12.552-12.257c-0.014-6.469-5.533-11.983-12.142-12.132c-6.97-0.157-12.611,5.163-12.699,11.976
			C388.749,419.449,394.271,425.026,401.126,425.074z M382.32,430.045c-3.779,0.441-5.845,2.682-5.65,6.288
			c0.181,3.348,2.385,5.635,5.86,5.536c3.593-0.102,5.894-2.188,5.83-6.02C388.296,431.995,385.938,430.31,382.32,430.045z
			 M417.215,385.111c-0.255-0.526-0.51-1.053-0.765-1.58c-3.912,2.533-7.824,5.067-12.083,7.825
			C409.965,393.58,414.038,391.405,417.215,385.111z"/>
		<path fill-rule="evenodd" clip-rule="evenodd" fill="#AD1658" d="M284.58,368.913c-1.566-0.921-3.131-1.842-4.696-2.764
			c6.803-12.775,2.699-26.026-10.108-32.638c-4.99-2.576-15.546-2.292-17.231,0.932c-3.709,7.093-8.99,13.77-7.485,22.621
			c-1.339,0.35-2.678,0.698-4.017,1.049c-3.311-3.237-10.187-2.802-14.006,1.562c-4.006,4.577-7.362,9.723-10.847,14.411
			c0.724,1.166,0.945,1.612,1.247,1.994c2.218,2.807,6.013,5.428,6.346,8.436c0.625,5.642-0.713,11.508-1.339,17.27
			c-0.082,0.756-0.678,1.528-1.205,2.149c-3.067,3.616-17.369,8.021-21.368,5.61c-6.789-4.093-13.587-8.548-19.247-14.023
			c-5.546-5.365-6.589-17.369-3.466-22.302c5.159-8.146,13.973-11.693,23.825-9.597c0.472,0.101,0.961,0.119,1.387,0.17
			c8.313-9.507,9.026-19.925,3.973-31.1c-2.451,0.119-5.059,0.386-7.662,0.341c-5.656-0.096-10.408-1.972-13.426-7.156
			c-2.006-3.445-4.038-6.889-6.282-10.181c-7.162-10.506-0.149-27.957,12.831-30.618c2.596-0.532,5.168-1.367,7.619-2.382
			c10.719-4.436,18.795,0.779,24.069,7.845c6.042,8.097,8.109,17.396,5.225,27.403c-0.273,0.95-0.543,2.174-1.243,2.686
			c-7.483,5.477-2.952,12.595-3.204,19.232c6.094,0,11.73,0.202,17.333-0.146c1.353-0.084,3.052-1.733,3.81-3.098
			c5.871-10.57,19.492-13.322,29.046-5.475c3.324,2.73,6.32,5.952,9.054,9.286c5.511,6.724,6.933,14.228,3.363,22.418
			C286.013,364.827,285.34,366.889,284.58,368.913z M198.829,328.556c2.202-0.588,4.419-1.125,6.602-1.778
			c2.819-0.845,5.553-2.092,8.423-2.617c5.108-0.934,8.811-4.387,10.336-9.419c1.874-6.184,0.71-11.966-2.086-17.37
			c-4.985-9.637-12.178-14.101-22.815-9.47c-1.825,0.794-3.727,1.424-5.618,2.055c-11.749,3.916-15.673,13.229-10.041,24.217
			c1.587,3.096,3.599,5.976,5.434,8.943C191.276,326.698,194.421,328.492,198.829,328.556z M196.452,368.013
			c-13.072,0.016-18.974,9.121-13.711,20.482c0.279,0.604,0.417,1.349,0.859,1.788c4.034,4.009,7.967,8.141,12.233,11.891
			c5.005,4.399,10.456,3.509,16.22,1.099c6.233-2.604,10.222-15.204,6.068-20.478c-0.306-0.389-0.691-0.719-1.063-1.05
			c-2.602-2.311-5.059-4.819-7.85-6.874C205.195,371.914,202.124,366.98,196.452,368.013z M240.98,344.011
			c-5.417,0.456-10.396,0.446-15.178,1.413c-3.837,0.776-5.32-0.547-5.862-3.933c-0.339-2.122-0.79-4.249-0.862-6.385
			c-0.217-6.338-0.934-6.894-7.825-5.297c0.162,0.93,0.213,1.909,0.508,2.809c3.504,10.691,4.052,21.025-2.838,30.837
			c-2.586,3.684,0.316,5.65,3.536,7.712c1.598-2.483,3.018-4.858,4.603-7.119c4.541-6.475,9.219-13.072,18.254-12.858
			C240.091,351.303,240.808,348.82,240.98,344.011z"/>
		<path fill-rule="evenodd" clip-rule="evenodd" fill="#302E2F" d="M368.604,512.913c-1.464-2.196-2.323-3.68-3.367-5.017
			c-4.468-5.725-8.405-12.025-13.631-16.954c-7.866-7.42-16.55-6.998-23.649,1.319c-5.666,6.637-9.938,14.465-14.802,21.782
			c-0.852,1.281-1.569,2.651-2.696,4.571c-5.075-20.784,6.443-40.45,25.393-44.745c10.771-2.441,25.144,4.309,29.035,14.596
			c2.502,6.614,3.448,13.825,4.959,20.798C370.011,510.025,369.293,510.979,368.604,512.913z"/>
		<path fill-rule="evenodd" clip-rule="evenodd" fill="#E98A8E" d="M246.675,493.642c-6.369-0.542-13.104,0.43-17.653-5.246
			c-1.662-2.073-3.301-5.727-2.554-7.792c1.044-2.882,4.044-6.597,6.719-7.072c10.125-1.8,20.425-1.935,30.408,1.544
			c4.27,1.486,7.528,3.997,7.325,8.903c-0.201,4.846-3.866,6.844-8.006,7.58C257.547,492.512,252.093,492.97,246.675,493.642z"/>
		<path fill-rule="evenodd" clip-rule="evenodd" fill="#E98A8E" d="M426.205,484.812c-5.271-0.726-9.453-0.869-13.374-1.955
			c-4.336-1.202-6.989-5.234-6.072-9.131c0.741-3.149,3.962-7.021,6.962-8.08c8.159-2.883,16.887-2.782,25.439-1.308
			c4.234,0.73,9.453,6.163,8.457,9.743c-0.841,3.018-3.707,6.563-6.545,7.692C436.144,483.734,430.543,484.01,426.205,484.812z"/>
		<path fill-rule="evenodd" clip-rule="evenodd" fill="#661246" d="M245.06,357.063c-1.505-8.851,3.775-15.528,7.485-22.621
			c1.686-3.223,12.242-3.507,17.231-0.932c12.807,6.612,16.911,19.863,10.108,32.638
			C268.274,363.121,256.667,360.092,245.06,357.063z"/>
		<path fill-rule="evenodd" clip-rule="evenodd" fill="#F4F4F4" d="M297.4,414.962c0.091,6.642-5.127,12.143-11.729,12.363
			c-6.741,0.226-12.531-5.271-12.643-12.003c-0.108-6.534,5.299-12.273,11.7-12.418C291.521,402.75,297.308,408.257,297.4,414.962z"
			/>
		<path fill-rule="evenodd" clip-rule="evenodd" fill="#F5F5F5" d="M267.817,448.1c-3.527-0.261-5.868-1.877-5.955-5.777
			c-0.086-3.84,2.087-5.96,5.69-6.132c3.737-0.178,6.012,2.236,6.136,5.771C273.813,445.518,271.7,447.781,267.817,448.1z"/>
		<path fill-rule="evenodd" clip-rule="evenodd" fill="#EAA7CD" d="M264.38,390.668c0.355,0.346,0.711,0.691,1.066,1.037
			c-0.604-0.054-1.208-0.107-1.813-0.158C263.881,391.255,264.131,390.962,264.38,390.668z"/>
		<path fill-rule="evenodd" clip-rule="evenodd" fill="#F7F7F7" d="M401.126,425.074c-6.855-0.048-12.377-5.625-12.289-12.413
			c0.088-6.813,5.729-12.133,12.699-11.976c6.608,0.148,12.128,5.663,12.142,12.132C413.691,419.456,407.89,425.122,401.126,425.074
			z"/>
		<path fill-rule="evenodd" clip-rule="evenodd" fill="#F6F6F6" d="M382.32,430.045c3.618,0.265,5.976,1.95,6.04,5.805
			c0.063,3.831-2.237,5.918-5.83,6.02c-3.476,0.099-5.68-2.188-5.86-5.536C376.476,432.727,378.541,430.486,382.32,430.045z"/>
		<path fill-rule="evenodd" clip-rule="evenodd" fill="#D89BBE" d="M417.215,385.111c-3.177,6.293-7.25,8.469-12.848,6.246
			c4.259-2.758,8.171-5.292,12.083-7.825C416.705,384.058,416.96,384.585,417.215,385.111z"/>
		<path fill-rule="evenodd" clip-rule="evenodd" fill="#661246" d="M198.829,328.556c-4.408-0.063-7.553-1.858-9.767-5.438
			c-1.835-2.967-3.847-5.847-5.434-8.943c-5.632-10.988-1.708-20.301,10.041-24.217c1.892-0.631,3.793-1.261,5.618-2.055
			c10.637-4.631,17.83-0.167,22.815,9.47c2.796,5.404,3.96,11.186,2.086,17.37c-1.525,5.033-5.228,8.485-10.336,9.419
			c-2.87,0.524-5.604,1.771-8.423,2.617C203.248,327.431,201.03,327.967,198.829,328.556z"/>
		<path fill-rule="evenodd" clip-rule="evenodd" fill="#671246" d="M196.452,368.013c5.671-1.032,8.743,3.901,12.758,6.858
			c2.791,2.054,5.248,4.563,7.85,6.874c0.372,0.331,0.757,0.662,1.063,1.05c4.153,5.274,0.165,17.874-6.068,20.478
			c-5.764,2.41-11.215,3.301-16.22-1.099c-4.266-3.75-8.199-7.882-12.233-11.891c-0.442-0.439-0.58-1.185-0.859-1.788
			C177.479,377.134,183.38,368.028,196.452,368.013z"/>
		<path fill-rule="evenodd" clip-rule="evenodd" fill="#681246" d="M240.98,344.011c-0.172,4.809-0.889,7.292-5.665,7.178
			c-9.035-0.214-13.713,6.383-18.254,12.858c-1.584,2.26-3.004,4.636-4.603,7.119c-3.22-2.062-6.122-4.029-3.536-7.712
			c6.89-9.812,6.342-20.146,2.838-30.837c-0.295-0.9-0.346-1.878-0.508-2.809c6.891-1.597,7.608-1.041,7.825,5.297
			c0.073,2.136,0.523,4.264,0.862,6.385c0.542,3.386,2.025,4.709,5.862,3.933C230.583,344.458,235.563,344.467,240.98,344.011z"/>
	</g>
</g>
</svg>
