<?xml version="1.0" encoding="utf-8"?>
<!-- Generator: Adobe Illustrator 16.0.3, SVG Export Plug-In . SVG Version: 6.00 Build 0)  -->
<!DOCTYPE svg PUBLIC "-//W3C//DTD SVG 1.1//EN" "http://www.w3.org/Graphics/SVG/1.1/DTD/svg11.dtd">
<svg version="1.1" id="Capa_1" xmlns="http://www.w3.org/2000/svg" xmlns:xlink="http://www.w3.org/1999/xlink" x="0px" y="0px"
	 width="612px" height="792px" viewBox="0 0 612 792" enable-background="new 0 0 612 792" xml:space="preserve">
<g>
	<g>
		<path fill-rule="evenodd" clip-rule="evenodd" fill="#FEFEFE" d="M51.016,654.116c-0.005-170.989-0.005-341.979-0.005-513.043
			c170.938,0,341.887,0,512.97,0c0,170.966,0,342.005,0,513.043C393.017,654.116,222.019,654.116,51.016,654.116z M228.96,382.458
			c-9.013,0.967-16.65,1.5-24.187,2.675c-7.368,1.148-14.687,2.749-21.917,4.58c-2.367,0.601-4.65,2.259-6.528,3.932
			c-5.458,4.86-10.356,11.063-18.288,11.212c-9.783,0.182-15.466,4.755-18.409,13.731c-2.101,6.406-6.866,9.764-13.289,11.578
			c-4.732,1.338-9.533,3.106-13.688,5.677c-9.558,5.912-11.201,11.052-5.957,20.82c4.365,8.131,5.031,16.08,1.765,24.391
			c-2.455,6.247-1.728,11.759,2.637,16.713c7.354,8.346,9.062,17.316,5.451,28.127c-2.29,6.855-1.401,14.436,4.253,20.081
			c9.042,9.028,19.385,15.827,32.723,16.03c5.345,0.082,8.387,2.293,9.731,7.372c4.588,17.34,16.716,27.661,32.743,33.63
			c9.771,3.638,19.979,6.187,30.105,8.774c13.522,3.455,26.008,1.416,37.046-7.786c3.949-3.293,8.264-6.252,12.737-8.788
			c13.603-7.713,21.208-19.467,25.346-34.319c3.33-11.952,7.857-23.578,12.032-35.284c1.986-5.572,3.641-11.089,1.869-17.015
			c-1.758-5.883-3.526-11.762-5.368-17.618c-3.573-11.364-5.268-22.519,0.879-33.793c1.692-3.104,2.806-7.908,1.634-10.949
			c-4.924-12.782-9.643-25.901-16.68-37.541c-7.152-11.831-19.003-19.167-32.889-21.678
			C251.136,384.917,239.38,383.828,228.96,382.458z M320.857,509.667c2.029,11.783,3.235,23.063,6.073,33.917
			c2.322,8.879,4.767,18.745,10.349,25.56c15.394,18.788,32.732,35.937,52.164,50.729c4.831,3.679,10.599,5.459,16.48,3.33
			c7.777-2.813,15.113-6.894,22.956-9.458c5.52-1.803,11.572-2.76,17.378-2.724c10.044,0.062,17.945-2.915,22.791-12.116
			c1.474-2.796,3.106-5.558,4.158-8.515c1.957-5.503,6.036-8.151,11.389-9.289c2.266-0.482,4.583-0.76,6.893-0.987
			c10.752-1.061,14.575-6.393,12.001-16.897c-0.908-3.707-1.934-7.385-2.892-11.08c-1.391-5.356-0.861-10.118,3.625-14.078
			c5.496-4.852,7.729-11.089,6.881-18.393c-0.307-2.638-0.584-5.282-0.988-7.907c-2.481-16.118-6.411-31.687-18.044-44.016
			c-5.6-5.933-11.391-11.694-17.28-17.34c-5.944-5.696-13.179-7.273-21.239-6.209c-6.891,0.909-13.814,1.646-20.748,2.122
			c-10.771,0.739-21.885-0.213-32.256,2.162c-10.619,2.431-20.389,2.275-30.832-0.085c-15.671-3.544-23.618,0.044-31.429,14.22
			c-4.95,8.983-8.791,18.637-12.451,28.249C323.514,496.959,322.436,503.529,320.857,509.667z M438.049,429.088
			c17.026,0.027,36.115-4.429,47.715-9.863c7.069-3.313,13.197-7.749,17.775-14.136c4.163-5.808,8.281-11.646,12.35-17.518
			c4.687-6.766,7.197-14.05,6.405-22.525c-0.344-3.679,0.543-7.61,1.536-11.245c1.899-6.949,1.208-13.519-1.883-19.884
			c-4.288-8.828-8.759-17.568-13.023-26.408c-4.511-9.352-11.208-16.473-20.743-20.729c-5.099-2.276-8.857-5.631-10.754-11.077
			c-1.986-5.706-6.643-7.851-12.3-8.722c-9.326-1.438-18.646-2.965-27.902-4.786c-8.017-1.578-16.051-3.8-24.102-1.119
			c-9.362,3.117-18.564,7.979-21.748,17.526c-1.965,5.896-4.977,8.587-9.709,11.03c-21.721,11.212-33.229,32.128-22.957,58.544
			c2.612,6.72,2.89,13.418,0.62,20.461c-1.339,4.154-1.921,8.82-1.626,13.174c0.518,7.649,5.905,12.838,11.803,16.518
			c13.517,8.434,27.274,16.563,41.417,23.884C420.725,427.286,431.712,428.993,438.049,429.088z M197.344,350.893
			c7.55-0.196,13.142-3.876,18.674-8.136c6.963-5.361,14.065-10.582,21.412-15.398c6.391-4.189,13.144-7.847,19.848-11.536
			c12.956-7.13,21.25-17.847,25.223-32.022c0.941-3.357,2.149-6.643,2.987-10.023c2.51-10.12,6.256-20.247,3.42-30.813
			c-2.361-8.799-5.3-17.489-8.731-25.924c-1.005-2.469-4.356-4.314-7.026-5.67c-2.119-1.075-4.826-1.075-7.293-1.366
			c-12.593-1.482-24.291-4.596-33.796-14.048c-3.168-3.149-8.37-5.482-12.837-5.859c-11.871-0.997-23.848-0.774-35.785-0.889
			c-1.407-0.013-2.984,0.644-4.21,1.42c-11.465,7.267-22.79,14.892-28.445,27.888c-4.962,11.404-11.104,21.671-20.395,30.228
			c-2.745,2.529-3.888,7.638-4.288,11.709c-0.986,10.06,3.241,19.213,6.544,28.405c3.438,9.563,5.261,18.958,2.36,29.148
			c-2.08,7.311,0.156,11.977,7.167,14.973c11.273,4.817,22.8,9.107,34.426,13.011C183.304,348.245,190.415,349.299,197.344,350.893z
			"/>
		<path fill-rule="evenodd" clip-rule="evenodd" fill="#C975A9" d="M228.96,382.458c10.42,1.369,22.176,2.458,33.751,4.552
			c13.886,2.511,25.736,9.847,32.889,21.678c7.037,11.64,11.756,24.759,16.68,37.541c1.172,3.041,0.059,7.845-1.634,10.949
			c-6.146,11.274-4.452,22.429-0.879,33.793c1.842,5.856,3.61,11.735,5.368,17.618c1.771,5.926,0.117,11.442-1.869,17.015
			c-4.175,11.706-8.702,23.332-12.032,35.284c-4.138,14.853-11.743,26.606-25.346,34.319c-4.473,2.536-8.788,5.495-12.737,8.788
			c-11.038,9.202-23.524,11.241-37.046,7.786c-10.127-2.588-20.334-5.137-30.105-8.774c-16.027-5.969-28.155-16.29-32.743-33.63
			c-1.344-5.079-4.386-7.29-9.731-7.372c-13.338-0.203-23.681-7.002-32.723-16.03c-5.654-5.646-6.542-13.226-4.253-20.081
			c3.611-10.811,1.903-19.781-5.451-28.127c-4.365-4.954-5.092-10.466-2.637-16.713c3.266-8.311,2.601-16.26-1.765-24.391
			c-5.245-9.769-3.601-14.908,5.957-20.82c4.155-2.57,8.956-4.339,13.688-5.677c6.423-1.814,11.188-5.172,13.289-11.578
			c2.942-8.977,8.626-13.55,18.409-13.731c7.932-0.148,12.83-6.352,18.288-11.212c1.878-1.672,4.161-3.331,6.528-3.932
			c7.231-1.832,14.549-3.432,21.917-4.58C212.311,383.958,219.948,383.425,228.96,382.458z M227.671,389.117
			c-10.413,1.563-20.831,3.326-31.305,4.637c-8.17,1.021-15.098,3.546-20.903,10.017c-4.529,5.048-10.897,8.27-18.105,8.232
			c-5.56-0.027-8.916,2.217-10.701,7.583c-3.264,9.808-10.071,15.761-20.374,17.619c-1.939,0.351-3.931,0.951-5.653,1.889
			c-9.182,4.999-12.605,6.835-6.642,16.944c4.813,8.159,4.698,16.927,1.589,25.363c-2.076,5.638-1.116,9.808,2.39,14.185
			c7.055,8.808,9.983,18.232,5.81,29.615c-1.443,3.936-1.425,9.984,0.677,13.349c6.169,9.874,15.943,15.911,27.596,16.297
			c11.45,0.379,15.797,4.943,18.497,14.439c3.569,12.559,12.508,20.554,23.581,25.429c10.374,4.566,21.659,7.186,32.693,10.094
			c11.437,3.015,22.295,1.904,31.935-6.005c4.729-3.88,9.807-7.439,15.092-10.516c11.229-6.535,16.92-16.551,20.406-28.694
			c3.372-11.744,7.888-23.16,11.892-34.725c1.725-4.98,3.975-9.788,2.028-15.383c-2.284-6.564-4.288-13.24-6.087-19.956
			c-2.95-11.01-4.526-22.21,1.229-32.744c3.726-6.822,2.521-12.484-1.406-18.546c-2.594-4.004-5.42-8.283-6.42-12.819
			c-3.959-17.95-16.718-26.81-32.779-31.125C251.479,391.279,239.569,390.782,227.671,389.117z"/>
		<path fill-rule="evenodd" clip-rule="evenodd" fill="#C975A9" d="M320.857,509.667c1.578-6.138,2.656-12.708,4.979-18.805
			c3.66-9.612,7.501-19.266,12.451-28.249c7.811-14.176,15.758-17.764,31.429-14.22c10.443,2.36,20.213,2.516,30.832,0.085
			c10.371-2.375,21.484-1.423,32.256-2.162c6.934-0.477,13.857-1.213,20.748-2.122c8.061-1.064,15.295,0.513,21.239,6.209
			c5.89,5.646,11.681,11.407,17.28,17.34c11.633,12.329,15.563,27.897,18.044,44.016c0.404,2.625,0.682,5.27,0.988,7.907
			c0.848,7.304-1.385,13.541-6.881,18.393c-4.486,3.96-5.016,8.722-3.625,14.078c0.958,3.695,1.983,7.373,2.892,11.08
			c2.574,10.505-1.249,15.837-12.001,16.897c-2.31,0.228-4.627,0.505-6.893,0.987c-5.353,1.138-9.432,3.786-11.389,9.289
			c-1.052,2.957-2.685,5.719-4.158,8.515c-4.846,9.201-12.747,12.178-22.791,12.116c-5.806-0.036-11.858,0.921-17.378,2.724
			c-7.843,2.564-15.179,6.646-22.956,9.458c-5.882,2.129-11.649,0.349-16.48-3.33c-19.432-14.793-36.771-31.941-52.164-50.729
			c-5.582-6.814-8.026-16.681-10.349-25.56C324.093,532.73,322.887,521.45,320.857,509.667z M328.087,510.841
			c1.76,10.58,3.091,21.255,5.409,31.711c2.008,9.056,4.325,18.536,11.052,25.284c15.375,15.426,31.192,30.425,47.208,45.186
			c4.531,4.177,10.49,5.564,16.702,2.41c4.738-2.405,9.639-4.492,14.458-6.737c7.555-3.52,15.184-6.363,23.831-4.697
			c2.166,0.416,4.599-0.221,6.852-0.663c7.613-1.493,9.958-8.077,12.23-13.979c4.424-11.49,13.464-15.246,24.522-16.233
			c6.378-0.569,7.857-2.455,6.348-8.733c-1.007-4.186-2.317-8.307-3.141-12.525c-1.259-6.46-1.033-12.737,4.637-17.321
			c6.327-5.113,6.623-11.844,5.557-19.04c-0.217-1.469-0.368-2.95-0.665-4.403c-2.521-12.344-4.452-24.973-13.3-34.835
			c-5.99-6.679-12.536-12.864-18.474-19.587c-4.636-5.25-10.312-6.147-16.726-5.534c-10.692,1.025-21.382,2.527-32.097,2.771
			c-10.831,0.247-21.569,0.188-31.961,3.809c-1.211,0.422-2.669,0.507-3.944,0.309c-7.336-1.137-14.643-2.472-21.979-3.61
			c-6.452-1.001-12.57-0.084-16.218,5.904c-4.296,7.055-8.549,14.261-11.67,21.873C332.99,491.288,327.464,500.088,328.087,510.841z
			"/>
		<path fill-rule="evenodd" clip-rule="evenodd" fill="#C975A9" d="M438.049,429.088c-6.337-0.095-17.324-1.802-27.126-6.875
			c-14.143-7.321-27.9-15.45-41.417-23.884c-5.897-3.68-11.285-8.868-11.803-16.518c-0.295-4.354,0.287-9.02,1.626-13.174
			c2.27-7.043,1.992-13.741-0.62-20.461c-10.271-26.417,1.236-47.332,22.957-58.544c4.732-2.443,7.744-5.134,9.709-11.03
			c3.184-9.547,12.386-14.409,21.748-17.526c8.051-2.681,16.085-0.459,24.102,1.119c9.257,1.821,18.576,3.348,27.902,4.786
			c5.657,0.871,10.313,3.016,12.3,8.722c1.896,5.446,5.655,8.801,10.754,11.077c9.535,4.257,16.232,11.378,20.743,20.729
			c4.265,8.84,8.735,17.58,13.023,26.408c3.091,6.366,3.782,12.936,1.883,19.884c-0.993,3.635-1.88,7.566-1.536,11.245
			c0.792,8.475-1.719,15.759-6.405,22.525c-4.068,5.873-8.187,11.71-12.35,17.518c-4.578,6.387-10.706,10.823-17.775,14.136
			C474.164,424.659,455.075,429.115,438.049,429.088z M440.479,422.113c13.966,0.172,25.027-3.248,36.114-6.725
			c10.588-3.32,18.894-9.394,24.616-18.947c1.617-2.701,2.98-5.678,5.097-7.932c6.359-6.771,9.699-14.375,8.928-23.869
			c-0.286-3.523,0.546-7.269,1.512-10.735c1.884-6.758,1.209-12.94-2.191-19.125c-3.036-5.521-5.457-11.38-8.153-17.088
			c-5.105-10.814-10.897-20.811-22.937-25.671c-5.531-2.234-10.06-6.194-11.804-12.604c-1.024-3.77-4.081-5.318-8.044-5.438
			c-4.374-0.132-8.805-0.297-13.086-1.107c-5.843-1.108-11.639-2.608-17.33-4.348c-13.359-4.086-24.548-0.841-33.617,9.622
			c-1.282,1.48-2.422,3.743-2.355,5.598c0.152,4.225-2.204,6.474-5.293,8.293c-2.719,1.6-5.691,2.764-8.451,4.301
			c-17.602,9.793-26.193,26.231-19.334,45.879c3.761,10.775,5.059,21.177,0.895,31.933c-2.247,5.807-0.579,10.766,4.017,14.233
			c8.698,6.564,17.482,13.122,26.806,18.726C410.192,415.723,425.385,422.314,440.479,422.113z"/>
		<path fill-rule="evenodd" clip-rule="evenodd" fill="#C975A9" d="M197.344,350.893c-6.929-1.593-14.04-2.648-20.748-4.9
			c-11.625-3.903-23.153-8.193-34.426-13.011c-7.011-2.996-9.247-7.662-7.167-14.973c2.901-10.191,1.078-19.585-2.36-29.148
			c-3.304-9.191-7.531-18.345-6.544-28.405c0.4-4.071,1.542-9.18,4.288-11.709c9.291-8.557,15.433-18.823,20.395-30.228
			c5.655-12.996,16.98-20.621,28.445-27.888c1.226-0.777,2.803-1.433,4.21-1.42c11.937,0.114,23.914-0.108,35.785,0.889
			c4.468,0.376,9.669,2.709,12.837,5.859c9.505,9.452,21.203,12.565,33.796,14.048c2.468,0.291,5.175,0.291,7.293,1.366
			c2.67,1.356,6.021,3.201,7.026,5.67c3.431,8.435,6.37,17.125,8.731,25.924c2.836,10.566-0.911,20.692-3.42,30.813
			c-0.838,3.38-2.046,6.666-2.987,10.023c-3.973,14.175-12.267,24.892-25.223,32.022c-6.704,3.689-13.457,7.346-19.848,11.536
			c-7.347,4.816-14.448,10.037-21.412,15.398C210.485,347.017,204.894,350.696,197.344,350.893z M196.306,344.471
			c0.131-0.506,0.263-1.012,0.394-1.519c5.376,0.758,9.753-1.234,13.677-4.7c3.225-2.849,6.331-5.944,9.931-8.237
			c9.504-6.055,19.258-11.715,28.892-17.569c7.497-4.556,16.35-8.095,20.066-16.518c4.709-10.675,8.365-21.88,11.614-33.106
			c1.508-5.21,2.02-11.182,1.132-16.5c-1.27-7.598-4.497-14.847-6.383-22.372c-1.114-4.44-3.797-6.246-7.882-6.824
			c-2.782-0.395-5.597-0.61-8.351-1.151c-10.104-1.982-20.12-3.87-27.91-11.782c-4.283-4.351-9.673-7.887-16.114-8.089
			c-9.901-0.312-19.819-0.121-29.729-0.035c-1.266,0.012-2.68,0.423-3.765,1.079c-11.985,7.254-22.869,15.941-27.51,29.61
			c-3.547,10.445-10.333,17.933-17.75,25.413c-1.974,1.991-3.231,5.413-3.458,8.285c-0.866,10.965,4.213,20.669,7.498,30.699
			c2.961,9.042,4.357,18.011,1.096,27.179c-1.561,4.386,0.213,7.169,3.906,8.944c4.483,2.155,9.02,4.312,13.737,5.84
			C171.641,337.087,183.995,340.71,196.306,344.471z"/>
		<path fill-rule="evenodd" clip-rule="evenodd" fill="#C674E7" d="M227.671,389.117c11.897,1.665,23.807,2.162,35.039,5.179
			c16.062,4.315,28.82,13.175,32.779,31.125c1,4.536,3.826,8.815,6.42,12.819c3.927,6.062,5.132,11.724,1.406,18.546
			c-5.755,10.534-4.179,21.734-1.229,32.744c1.799,6.716,3.803,13.392,6.087,19.956c1.946,5.595-0.304,10.402-2.028,15.383
			c-4.003,11.564-8.52,22.98-11.892,34.725c-3.486,12.144-9.177,22.159-20.406,28.694c-5.285,3.076-10.363,6.636-15.092,10.516
			c-9.639,7.909-20.498,9.02-31.935,6.005c-11.034-2.908-22.32-5.527-32.693-10.094c-11.072-4.875-20.012-12.87-23.581-25.429
			c-2.699-9.496-7.046-14.061-18.497-14.439c-11.652-0.386-21.427-6.423-27.596-16.297c-2.102-3.364-2.12-9.413-0.677-13.349
			c4.173-11.383,1.245-20.808-5.81-29.615c-3.506-4.377-4.466-8.547-2.39-14.185c3.109-8.437,3.224-17.204-1.589-25.363
			c-5.963-10.109-2.54-11.945,6.642-16.944c1.722-0.938,3.713-1.538,5.653-1.889c10.302-1.858,17.11-7.812,20.374-17.619
			c1.785-5.366,5.142-7.61,10.701-7.583c7.208,0.037,13.576-3.185,18.105-8.232c5.805-6.471,12.732-8.995,20.903-10.017
			C206.841,392.443,217.258,390.681,227.671,389.117z"/>
		<path fill-rule="evenodd" clip-rule="evenodd" fill="#C674E7" d="M328.087,510.841c-0.623-10.753,4.903-19.553,8.632-28.644
			c3.121-7.612,7.374-14.818,11.67-21.873c3.647-5.988,9.766-6.905,16.218-5.904c7.337,1.139,14.644,2.474,21.979,3.61
			c1.275,0.198,2.733,0.113,3.944-0.309c10.392-3.62,21.13-3.562,31.961-3.809c10.715-0.244,21.404-1.746,32.097-2.771
			c6.414-0.613,12.09,0.284,16.726,5.534c5.938,6.723,12.483,12.908,18.474,19.587c8.848,9.862,10.779,22.491,13.3,34.835
			c0.297,1.453,0.448,2.935,0.665,4.403c1.066,7.196,0.771,13.927-5.557,19.04c-5.67,4.584-5.896,10.861-4.637,17.321
			c0.823,4.219,2.134,8.34,3.141,12.525c1.51,6.278,0.03,8.164-6.348,8.733c-11.059,0.987-20.099,4.743-24.522,16.233
			c-2.272,5.902-4.617,12.486-12.23,13.979c-2.253,0.442-4.686,1.079-6.852,0.663c-8.647-1.666-16.276,1.178-23.831,4.697
			c-4.819,2.245-9.72,4.332-14.458,6.737c-6.212,3.154-12.171,1.767-16.702-2.41c-16.016-14.761-31.833-29.76-47.208-45.186
			c-6.727-6.748-9.044-16.229-11.052-25.284C331.178,532.096,329.847,521.421,328.087,510.841z"/>
		<path fill-rule="evenodd" clip-rule="evenodd" fill="#C674E7" d="M440.479,422.113c-15.095,0.201-30.287-6.391-44.612-15.002
			c-9.323-5.604-18.107-12.162-26.806-18.726c-4.596-3.467-6.264-8.426-4.017-14.233c4.164-10.756,2.866-21.158-0.895-31.933
			c-6.859-19.648,1.732-36.086,19.334-45.879c2.76-1.537,5.732-2.701,8.451-4.301c3.089-1.819,5.445-4.068,5.293-8.293
			c-0.066-1.855,1.073-4.118,2.355-5.598c9.069-10.463,20.258-13.708,33.617-9.622c5.691,1.739,11.487,3.24,17.33,4.348
			c4.281,0.811,8.712,0.976,13.086,1.107c3.963,0.12,7.02,1.668,8.044,5.438c1.744,6.41,6.272,10.37,11.804,12.604
			c12.039,4.86,17.831,14.857,22.937,25.671c2.696,5.708,5.117,11.567,8.153,17.088c3.4,6.184,4.075,12.366,2.191,19.125
			c-0.966,3.466-1.798,7.212-1.512,10.735c0.771,9.494-2.568,17.098-8.928,23.869c-2.116,2.253-3.479,5.23-5.097,7.932
			c-5.723,9.554-14.028,15.627-24.616,18.947C465.507,418.865,454.445,422.285,440.479,422.113z"/>
		<path fill-rule="evenodd" clip-rule="evenodd" fill="#C674E7" d="M196.306,344.471c-12.311-3.761-24.665-7.384-36.909-11.351
			c-4.717-1.529-9.254-3.686-13.737-5.84c-3.692-1.775-5.466-4.559-3.906-8.944c3.261-9.168,1.866-18.137-1.096-27.179
			c-3.285-10.03-8.364-19.734-7.498-30.699c0.227-2.873,1.484-6.294,3.458-8.285c7.417-7.48,14.203-14.968,17.75-25.413
			c4.641-13.669,15.525-22.356,27.51-29.61c1.085-0.656,2.499-1.067,3.765-1.079c9.91-0.086,19.828-0.276,29.729,0.035
			c6.441,0.202,11.831,3.738,16.114,8.089c7.79,7.912,17.806,9.8,27.91,11.782c2.753,0.541,5.568,0.756,8.351,1.151
			c4.085,0.578,6.769,2.383,7.882,6.824c1.886,7.525,5.113,14.774,6.383,22.372c0.888,5.318,0.376,11.29-1.132,16.5
			c-3.249,11.226-6.905,22.431-11.614,33.106c-3.716,8.423-12.569,11.962-20.066,16.518c-9.633,5.854-19.388,11.515-28.892,17.569
			c-3.6,2.293-6.706,5.388-9.931,8.237c-3.924,3.466-8.301,5.458-13.677,4.7C196.568,343.459,196.437,343.965,196.306,344.471z"/>
	</g>
</g>
</svg>
