<?xml version="1.0" encoding="utf-8"?>
<!-- Generator: Adobe Illustrator 16.0.3, SVG Export Plug-In . SVG Version: 6.00 Build 0)  -->
<!DOCTYPE svg PUBLIC "-//W3C//DTD SVG 1.1//EN" "http://www.w3.org/Graphics/SVG/1.1/DTD/svg11.dtd">
<svg version="1.1" id="Capa_1" xmlns="http://www.w3.org/2000/svg" xmlns:xlink="http://www.w3.org/1999/xlink" x="0px" y="0px"
	 width="612px" height="792px" viewBox="0 0 612 792" enable-background="new 0 0 612 792" xml:space="preserve">
<g>
	<g>
		<path fill-rule="evenodd" clip-rule="evenodd" fill="#FEFEFE" d="M51.008,654.116c-0.002-170.993-0.002-341.987-0.002-513.049
			c170.947,0,341.899,0,512.981,0c0,170.972,0,342.011,0,513.049C393.005,654.116,222.008,654.116,51.008,654.116z M191.028,566.24
			c12.808-0.707,24.692-4.744,35.873-10.759c2.755-1.483,5.341-4.249,6.757-7.056c3.34-6.616,6.541-13.432,8.604-20.516
			c1.371-4.706,1.662-10.208,0.707-15.01c-1.896-9.529-5.828-18.691-7.306-28.254c-1.077-6.97-5.171-10.833-9.709-14.927
			c-1.352-1.221-2.974-2.136-4.381-3.3c-5.925-4.902-11.332-9.813-11.91-18.571c-0.201-3.042-3.817-6.292-6.577-8.609
			c-2.735-2.299-6.865-2.979-9.497-5.353c-9.811-8.847-21.445-8.929-32.586-5.439c-16.321,5.109-29.777,15.375-41.042,28.263
			c-1.832,2.096-3.259,4.833-4.017,7.516c-1.332,4.713-2.67,9.166-6.896,12.261c-4.55,3.332-4.162,8.141-3.881,13.133
			c0.161,2.858-0.832,5.93-1.918,8.659c-0.766,1.926-2.815,3.299-3.856,5.161c-5.574,9.974-4.813,12.646,4.231,18.131
			c3.098,1.879,5.987,5.562,7.048,9.012c1.768,5.746,4.781,9.169,10.529,10.589c3.87,0.957,6.7,3.067,8.088,7.241
			c2.476,7.445,6.782,13.927,15.352,14.201c5.743,0.185,11.793-1.144,17.261-3.063c4.342-1.524,7.9-2.256,11.546,0.802
			C178.541,564.62,184.426,566.386,191.028,566.24z M474.251,363.071c1.331,0,2.684-0.152,3.991,0.023
			c12.273,1.646,20.361-7.321,30.174-11.894c0.831-0.388,1.566-1.332,1.989-2.194c3.521-7.157,7.614-14.131,10.166-21.627
			c1.506-4.419,0.767-9.693,0.585-14.566c-0.139-3.691-1.046-6.981,0.998-10.874c1.336-2.546,0.245-7.115-1.121-10.169
			c-2.408-5.384-6.209-10.132-8.805-15.451c-7.237-14.828-16.052-19.678-32.433-17.426c-1.058,0.146-2.269-0.313-3.321-0.718
			c-3.393-1.301-6.729-2.749-10.114-4.068c-11.271-4.392-24.849-0.8-31.638,9.175c-3.861,5.675-8.55,9.382-14.971,11.537
			c-6.008,2.016-8.881,6.483-8.707,13.004c0.407,15.224,2.753,30.178,10.783,43.214
			C433.721,350.344,449.951,363.571,474.251,363.071z M462.406,472.067c-4.269,0.875-13.515,0.908-20.85,4.669
			c-14.611,7.49-27.38,17.781-32.085,34.853c-2.541,9.218-4.896,18.489-7.28,27.749c-2.506,9.725,0.255,16.962,9.432,21.958
			c3.958,2.155,8.299,5.229,10.296,9.027c4.102,7.799,9.773,10.943,18.188,9.765c5.7-0.798,9.684,1.154,12.975,6.091
			c3.428,5.144,7.099,5.09,11.631,0.85c1.945-1.82,3.529-4.181,5.751-5.501c2.085-1.241,5.02-2.399,7.184-1.896
			c5.068,1.181,9.133-0.181,13.084-2.98c12.329-8.738,20.318-20.206,23.19-35.28c1.349-7.078,1.188-13.153-4.076-18.867
			c-3.668-3.98-6.222-8.979-9.328-13.485c-2.443-3.542-5.097-6.946-7.432-10.556c-2.833-4.378-6.137-8.635-7.985-13.426
			C481.099,474.663,477.864,471.995,462.406,472.067z M128.324,230.309c-0.583,0.112-1.165,0.225-1.748,0.337
			c1.908,6.236,3.811,12.474,5.727,18.708c1.229,3.997,3.094,7.918,3.559,12c0.583,5.126,2.394,9.181,7.121,11.077
			c4.866,1.951,10.006,3.275,15.099,4.588c4.668,1.202,9.252,2.066,12.743,6.054c4.465,5.102,7.734,5.823,13.546,2.109
			c9.072-5.797,17.761-12.21,26.455-18.577c5.694-4.169,7.279-10.057,7.45-17.061c0.184-7.528,1.66-15.054,2.949-22.517
			c1.242-7.19,3.154-14.84-0.204-21.341c-6.036-11.684-13.281-22.649-28.019-25.312c-7.989-1.444-15.13-3.005-21.25,4.947
			c-3.069,3.988-8.116,7.752-12.906,8.86c-12.205,2.825-18.993,11.457-25.988,20.449
			C129.202,219.333,126.744,224.109,128.324,230.309z"/>
		<path fill-rule="evenodd" clip-rule="evenodd" fill="#DEACCB" d="M191.028,566.24c-6.602,0.146-12.487-1.62-17.579-5.889
			c-3.646-3.058-7.205-2.326-11.546-0.802c-5.468,1.92-11.518,3.248-17.261,3.063c-8.57-0.274-12.875-6.756-15.352-14.201
			c-1.388-4.174-4.219-6.284-8.088-7.241c-5.748-1.42-8.761-4.843-10.529-10.589c-1.062-3.45-3.951-7.133-7.048-9.012
			c-9.044-5.484-9.806-8.157-4.231-18.131c1.041-1.862,3.09-3.235,3.856-5.161c1.086-2.729,2.08-5.801,1.918-8.659
			c-0.281-4.992-0.668-9.801,3.881-13.133c4.226-3.095,5.564-7.548,6.896-12.261c0.758-2.683,2.186-5.42,4.017-7.516
			c11.264-12.888,24.721-23.153,41.042-28.263c11.141-3.489,22.775-3.407,32.586,5.439c2.631,2.373,6.762,3.054,9.497,5.353
			c2.759,2.317,6.376,5.567,6.577,8.609c0.579,8.759,5.985,13.669,11.91,18.571c1.407,1.164,3.029,2.079,4.381,3.3
			c4.539,4.094,8.633,7.957,9.709,14.927c1.478,9.563,5.409,18.725,7.306,28.254c0.955,4.802,0.664,10.304-0.707,15.01
			c-2.063,7.084-5.265,13.899-8.604,20.516c-1.416,2.807-4.002,5.572-6.757,7.056C215.72,561.496,203.836,565.533,191.028,566.24z
			 M189.41,561.616c13.351-1.995,24.498-4.758,34.762-10.552c6.007-3.39,7.334-9.639,9.288-15.288
			c2.295-6.641,5.821-13.863,4.997-20.35c-1.44-11.333-5.07-22.581-9.263-33.284c-1.862-4.752-7.106-8.34-11.213-12.011
			c-6.217-5.558-12.048-10.985-13.218-20.073c-0.333-2.591-3.558-5.1-5.941-7.057c-2.522-2.07-5.943-3.063-8.411-5.18
			c-8.493-7.285-18.393-8.223-27.869-4.205c-9.952,4.22-19.546,9.832-28.256,16.249c-6.021,4.435-12.19,9.491-14.325,17.912
			c-1.128,4.449-4.917,8.206-7.404,12.336c-0.973,1.615-2.714,3.698-2.323,5.055c2.412,8.359-0.188,14.705-6.191,20.64
			c-4.239,4.19-3.419,7.354,1.748,10.684c5.195,3.347,8.937,7.535,10.593,13.744c0.525,1.969,2.891,4.134,4.91,4.894
			c6.876,2.589,12.016,6.279,14.429,13.791c0.984,3.062,4.333,7.197,6.996,7.508c5.71,0.667,12.503,0.729,17.329-1.833
			c6.565-3.484,10.99-1.975,16.468,1.33C180.917,558.58,185.978,560.144,189.41,561.616z"/>
		<path fill-rule="evenodd" clip-rule="evenodd" fill="#DEACCC" d="M474.251,363.071c-24.3,0.5-40.53-12.728-52.423-32.033
			c-8.03-13.036-10.376-27.99-10.783-43.214c-0.174-6.521,2.699-10.988,8.707-13.004c6.421-2.155,11.109-5.862,14.971-11.537
			c6.789-9.975,20.366-13.566,31.638-9.175c3.386,1.32,6.722,2.767,10.114,4.068c1.053,0.404,2.264,0.863,3.321,0.718
			c16.381-2.252,25.195,2.598,32.433,17.426c2.596,5.319,6.396,10.067,8.805,15.451c1.366,3.054,2.457,7.623,1.121,10.169
			c-2.044,3.893-1.137,7.183-0.998,10.874c0.182,4.873,0.921,10.147-0.585,14.566c-2.552,7.496-6.646,14.47-10.166,21.627
			c-0.423,0.862-1.158,1.806-1.989,2.194c-9.813,4.572-17.9,13.54-30.174,11.894C476.935,362.919,475.582,363.071,474.251,363.071z
			 M474.44,357.659c10.365,3.981,18.204-5.212,27.719-8.82c1.89-0.716,3.318-3.153,4.512-5.074c1.651-2.66,2.835-5.606,4.298-8.387
			c4.309-8.188,8.185-16.273,4.414-26.038c-0.9-2.334,0.912-5.68,1.344-8.58c0.275-1.836,1.073-4.14,0.314-5.496
			c-4.835-8.645-9.923-17.156-15.171-25.56c-2.508-4.016-13.67-8.609-17.18-6.786c-4.68,2.433-8.342,0.963-12.516-1.11
			c-12.862-6.391-26.437-6.365-34.817,7.483c-3.11,5.139-7.733,8.188-13.401,9.601c-5.026,1.255-7.252,4.277-6.868,9.344
			c0.3,3.959,0.633,7.915,0.961,11.871c1.448,17.546,7.599,32.949,21.393,44.427C449.09,352.563,459.349,359.702,474.44,357.659z"/>
		<path fill-rule="evenodd" clip-rule="evenodd" fill="#DEACCC" d="M462.406,472.067c15.458-0.072,18.692,2.596,22.693,12.97
			c1.849,4.791,5.152,9.048,7.985,13.426c2.335,3.609,4.988,7.014,7.432,10.556c3.106,4.506,5.66,9.505,9.328,13.485
			c5.264,5.714,5.425,11.789,4.076,18.867c-2.872,15.074-10.861,26.542-23.19,35.28c-3.951,2.8-8.016,4.161-13.084,2.98
			c-2.164-0.504-5.099,0.654-7.184,1.896c-2.222,1.32-3.806,3.681-5.751,5.501c-4.532,4.24-8.203,4.294-11.631-0.85
			c-3.291-4.937-7.274-6.889-12.975-6.091c-8.414,1.179-14.086-1.966-18.188-9.765c-1.997-3.798-6.338-6.872-10.296-9.027
			c-9.177-4.996-11.938-12.233-9.432-21.958c2.385-9.26,4.739-18.531,7.28-27.749c4.705-17.071,17.474-27.362,32.085-34.853
			C448.892,472.976,458.138,472.942,462.406,472.067z M458.439,586.057c3.067-2.913,5.077-4.841,7.109-6.747
			c3.193-2.997,6.647-6.349,11.292-5.042c5.586,1.571,9.805-0.012,13.528-3.793c4.396-4.464,9.79-8.493,12.588-13.842
			c3.525-6.736,5.912-14.509,6.692-22.05c0.377-3.64-4.016-7.793-6.308-11.68c-1.348-2.286-2.798-4.511-4.225-6.75
			c-2.674-4.196-4.691-9.097-8.2-12.413c-6.061-5.73-9.68-12.423-11.948-20.257c-0.979-3.38-3.143-6.354-7.357-6.386
			c-13.558-0.098-26.814,0.504-37.953,10.089c-7.349,6.323-15.182,12.313-18.263,21.819c-3.26,10.059-6.215,20.354-7.812,30.774
			c-1.438,9.385-3.811,10.854,6.876,17.174c6.14,3.63,11.003,8.312,14.513,14.604c0.924,1.657,3.578,3.461,5.332,3.359
			C444.126,574.352,453.553,574.133,458.439,586.057z"/>
		<path fill-rule="evenodd" clip-rule="evenodd" fill="#DEACCC" d="M128.324,230.309c-1.58-6.2,0.878-10.976,4.534-15.676
			c6.995-8.993,13.783-17.625,25.988-20.449c4.791-1.108,9.837-4.872,12.906-8.86c6.119-7.952,13.26-6.391,21.25-4.947
			c14.738,2.663,21.983,13.628,28.019,25.312c3.358,6.501,1.446,14.151,0.204,21.341c-1.289,7.463-2.765,14.989-2.949,22.517
			c-0.171,7.003-1.756,12.892-7.45,17.061c-8.694,6.367-17.382,12.779-26.455,18.577c-5.813,3.713-9.082,2.993-13.546-2.109
			c-3.491-3.988-8.075-4.852-12.743-6.054c-5.093-1.313-10.233-2.637-15.099-4.588c-4.727-1.896-6.538-5.951-7.121-11.077
			c-0.465-4.082-2.33-8.003-3.559-12c-1.916-6.235-3.818-12.473-5.727-18.708C127.159,230.533,127.741,230.421,128.324,230.309z
			 M133.122,229.842c-0.817,7.509,2.358,13.504,5.677,19.533c1.146,2.082,1.992,4.565,2.138,6.917
			c0.603,9.697,1.981,11.547,11.437,13.973c1.122,0.289,2.25,0.557,3.365,0.869c7.455,2.083,15.365,3.01,20.865,9.637
			c0.846,1.02,4.337,1.088,5.723,0.208c7.688-4.884,15.313-9.924,22.53-15.469c4.077-3.131,7.977-6.456,8.367-12.785
			c0.66-10.686,2.101-21.372,4.016-31.911c0.892-4.909,0.612-9.284-1.586-13.449c-6.504-12.322-14.736-22.43-30.195-23.593
			c-2.738-0.206-4.401-0.023-6.569,1.719c-6.273,5.039-11.247,12.223-19.724,13.852c-7.026,1.351-12.285,5.217-16.338,10.55
			C138.257,215.906,131.361,221.029,133.122,229.842z"/>
		<path fill-rule="evenodd" clip-rule="evenodd" fill="#DDABF1" d="M189.41,561.616c-3.432-1.473-8.494-3.036-12.896-5.69
			c-5.478-3.305-9.902-4.814-16.468-1.33c-4.826,2.563-11.619,2.5-17.329,1.833c-2.663-0.311-6.012-4.446-6.996-7.508
			c-2.414-7.512-7.553-11.202-14.429-13.791c-2.019-0.76-4.385-2.925-4.91-4.894c-1.656-6.209-5.397-10.397-10.593-13.744
			c-5.167-3.329-5.987-6.493-1.748-10.684c6.003-5.935,8.604-12.28,6.191-20.64c-0.391-1.356,1.35-3.439,2.323-5.055
			c2.487-4.13,6.276-7.887,7.404-12.336c2.134-8.421,8.304-13.478,14.325-17.912c8.71-6.417,18.304-12.029,28.256-16.249
			c9.476-4.018,19.376-3.08,27.869,4.205c2.467,2.117,5.889,3.109,8.411,5.18c2.383,1.957,5.608,4.466,5.941,7.057
			c1.17,9.088,7.001,14.516,13.218,20.073c4.107,3.671,9.351,7.259,11.213,12.011c4.193,10.703,7.823,21.951,9.263,33.284
			c0.824,6.486-2.702,13.709-4.997,20.35c-1.954,5.649-3.281,11.898-9.288,15.288C213.908,556.858,202.761,559.621,189.41,561.616z"
			/>
		<path fill-rule="evenodd" clip-rule="evenodd" fill="#DDABF1" d="M474.44,357.659c-15.092,2.043-25.351-5.096-34.999-13.125
			c-13.794-11.478-19.944-26.881-21.393-44.427c-0.328-3.956-0.661-7.912-0.961-11.871c-0.384-5.067,1.842-8.089,6.868-9.344
			c5.668-1.413,10.291-4.462,13.401-9.601c8.381-13.848,21.955-13.874,34.817-7.483c4.174,2.074,7.836,3.543,12.516,1.11
			c3.51-1.824,14.672,2.77,17.18,6.786c5.248,8.403,10.336,16.915,15.171,25.56c0.759,1.356-0.039,3.659-0.314,5.496
			c-0.432,2.9-2.244,6.246-1.344,8.58c3.771,9.765-0.105,17.85-4.414,26.038c-1.463,2.781-2.646,5.727-4.298,8.387
			c-1.193,1.921-2.622,4.358-4.512,5.074C492.645,352.447,484.806,361.64,474.44,357.659z"/>
		<path fill-rule="evenodd" clip-rule="evenodd" fill="#DDABF1" d="M458.439,586.057c-4.887-11.924-14.313-11.705-24.135-11.139
			c-1.754,0.102-4.408-1.702-5.332-3.359c-3.51-6.293-8.373-10.975-14.513-14.604c-10.687-6.32-8.314-7.789-6.876-17.174
			c1.597-10.421,4.552-20.716,7.812-30.774c3.081-9.507,10.914-15.496,18.263-21.819c11.139-9.585,24.396-10.187,37.953-10.089
			c4.215,0.031,6.378,3.006,7.357,6.386c2.269,7.834,5.888,14.526,11.948,20.257c3.509,3.316,5.526,8.217,8.2,12.413
			c1.427,2.239,2.877,4.464,4.225,6.75c2.292,3.887,6.685,8.04,6.308,11.68c-0.78,7.541-3.167,15.313-6.692,22.05
			c-2.798,5.349-8.192,9.378-12.588,13.842c-3.724,3.781-7.942,5.364-13.528,3.793c-4.645-1.307-8.099,2.045-11.292,5.042
			C463.517,581.216,461.507,583.144,458.439,586.057z"/>
		<path fill-rule="evenodd" clip-rule="evenodd" fill="#DDABF1" d="M133.122,229.842c-1.761-8.813,5.135-13.936,9.706-19.95
			c4.053-5.333,9.312-9.199,16.338-10.55c8.477-1.629,13.451-8.813,19.724-13.852c2.168-1.743,3.831-1.925,6.569-1.719
			c15.458,1.164,23.691,11.271,30.195,23.593c2.198,4.165,2.478,8.54,1.586,13.449c-1.915,10.539-3.356,21.225-4.016,31.911
			c-0.391,6.33-4.291,9.654-8.367,12.785c-7.218,5.544-14.843,10.584-22.53,15.469c-1.386,0.881-4.877,0.813-5.723-0.208
			c-5.5-6.626-13.41-7.553-20.865-9.637c-1.115-0.312-2.243-0.58-3.365-0.869c-9.456-2.425-10.834-4.275-11.437-13.973
			c-0.146-2.352-0.992-4.836-2.138-6.917C135.48,243.346,132.305,237.351,133.122,229.842z"/>
	</g>
</g>
</svg>
