<?xml version="1.0" encoding="utf-8"?>
<!-- Generator: Adobe Illustrator 16.0.3, SVG Export Plug-In . SVG Version: 6.00 Build 0)  -->
<!DOCTYPE svg PUBLIC "-//W3C//DTD SVG 1.1//EN" "http://www.w3.org/Graphics/SVG/1.1/DTD/svg11.dtd">
<svg version="1.1" id="Capa_1" xmlns="http://www.w3.org/2000/svg" xmlns:xlink="http://www.w3.org/1999/xlink" x="0px" y="0px"
	 width="612px" height="792px" viewBox="0 0 612 792" enable-background="new 0 0 612 792" xml:space="preserve">
<g>
	<g>
		<path fill-rule="evenodd" clip-rule="evenodd" fill="#FEFEFE" d="M564.116,654.097c-170.987,0.007-341.977,0.007-513.04,0.007
			c0-170.934,0-341.881,0-512.966c170.963,0,342.002,0,513.04,0C564.116,312.097,564.116,483.094,564.116,654.097z M207.879,299.872
			c-4.718,3.42-9.436,6.84-14.154,10.259c-5.481-1.083-10.922-2.738-16.452-3.122c-9.199-0.639-12.267,3.863-9.421,12.754
			c-3.825,0.812-7.65,1.624-11.476,2.437c-8.415-3.104-16.831-6.209-25.247-9.315c-0.696-1.318-1.288-2.705-2.103-3.945
			c-4.799-7.299-14.446-8.888-21.3-3.551c-6.603,5.14-7.436,14.931-1.709,21.152c5.054,5.491,11.156,5.879,17.77,3.373
			c8.887,3.103,17.774,6.205,26.662,9.306c2.574,6.059,6.846,9.941,13.615,10.625c5.132,29.73,10.264,59.461,15.395,89.19
			c-4.828,3.904-8.963,8.189-8.328,15.105c-8.784,6.754-17.568,13.508-26.352,20.262c-1.16-0.101-2.319-0.276-3.48-0.288
			c-7.86-0.077-14.325,5.456-15.228,12.993c-0.922,7.698,4.354,14.983,12.021,16.596c8.449,1.777,15.489-3.969,17.888-14.601
			c9.73-7.034,19.46-14.066,29.188-21.102c5.771,0.708,9.822-2.013,12.986-6.507c9.418,2.484,18.837,4.971,28.255,7.455
			c-3.158,9.84-6.316,19.679-9.474,29.518c-6.517,3.373-9.894,9.449-8.766,15.774c1.133,6.359,6.311,11.489,12.794,12.337
			c5.588,0.729,10.162-1.43,13.563-5.814c3.998-5.154,4.029-10.715,1.142-16.414c3.14-10.184,6.279-20.367,9.419-30.55
			c11.977,3.081,23.953,6.163,35.93,9.245c1.685,3.527,3.369,7.054,5.053,10.581c0.46,9.229,0.92,18.456,1.38,27.686
			c-1.248,1.741-2.747,3.355-3.7,5.246c-3.362,6.66-1.017,14.639,5.316,18.692c6.067,3.883,14.199,2.61,18.901-2.96
			c5.059-5.99,4.707-12.643-1.075-20.326c-0.292-9.551-0.584-19.102-0.874-28.653c1.708-3.306,3.417-6.611,5.127-9.918
			c19.164-5.235,38.313-10.532,57.503-15.675c6.348-1.7,12.802-3.004,19.208-4.487c3.771,5.89,9.243,7.488,15.828,6.279
			c8.513,7.906,17.024,15.813,25.536,23.72c1.957,9.617,9.294,15.073,17.644,13.117c7.546-1.767,12.783-8.959,11.777-16.172
			c-1.187-8.502-7.856-13.395-17.613-12.919c-1.694-1.296-3.474-2.494-5.066-3.905c-6.959-6.155-13.863-12.372-20.787-18.567
			c-0.859-6.412-3.724-11.363-10.054-13.788c0.668-6.247,1.336-12.492,2.004-18.738c6.979,0.216,13.957,0.432,20.936,0.647
			c0.996,0.874,1.944,1.81,2.996,2.611c6.734,5.144,16.339,3.487,20.993-3.59c4.834-7.349,2.436-16.836-5.298-20.955
			c-6.897-3.674-12.801-1.623-18.224,3.176c-6.217-0.383-12.434-0.766-18.65-1.148c0.249-2.142,0.476-4.288,0.749-6.427
			c3.175-24.851,6.355-49.701,9.534-74.548c7.023-1.496,11.515-5.776,13.772-12.516c1.982-0.782,3.989-1.505,5.941-2.356
			c6.476-2.82,12.933-5.685,19.396-8.533c1.128,0.288,2.243,0.658,3.387,0.85c7.711,1.296,15.227-4.149,16.832-12.156
			c1.483-7.406-3.546-14.904-11.354-16.928c-7.393-1.916-14.977,2.746-17.11,10.518c-8.619,4.086-17.237,8.172-25.855,12.259
			c-6.503-2.022-12.473-1.723-17.204,3.956c-1.564-0.185-3.267-0.033-4.671-0.608c-7.502-3.079-14.929-6.338-22.382-9.536
			c1.394-5.798,2.788-11.595,4.182-17.394c0.868-0.464,1.773-0.87,2.599-1.4c6.755-4.345,8.882-12.815,4.954-19.642
			c-3.912-6.797-12.336-9.318-19.412-5.811c-7.663,3.8-9.788,11.594-5.817,21.336c-1.634,5.003-3.267,10.006-4.899,15.009
			c-21.247-9.011-42.494-18.023-63.74-27.034c0.721-6.116-1.271-11.183-5.887-15.237c-0.687-10.686-1.374-21.372-2.061-32.058
			c0.496-1.045,1.029-2.074,1.48-3.137c2.475-5.833,1.186-12.17-3.316-16.413c-4.639-4.372-10.725-5.209-16.555-2.631
			c-8.52,3.768-13.335,18.077-0.311,26.581c0.413,9.611,0.827,19.221,1.24,28.832c-3.811,4.81-5.904,9.965-3.235,16.078
			c-1.387,1.16-2.713,2.403-4.171,3.466c-18.778,13.684-37.574,27.342-56.364,41.008
			C209.024,298.976,208.452,299.424,207.879,299.872z"/>
		<path fill-rule="evenodd" clip-rule="evenodd" fill="#2E2F2F" d="M167.849,319.772c-2.843-8.9,0.225-13.402,9.424-12.763
			c5.53,0.384,10.971,2.039,16.455,3.122c1.966,1.366,3.929,2.731,5.893,4.098c2.463,1.725,4.925,3.45,7.387,5.174
			c1.998,1.542,3.996,3.082,5.994,4.624c0.359,0.347,0.718,0.693,1.077,1.04l-0.068-0.061c8.542,8.57,17.141,17.085,25.59,25.746
			c2.514,2.578,4.607,5.565,6.893,8.366c-0.094,1.327-0.188,2.656-0.281,3.983c-0.323,0.659-0.646,1.319-0.968,1.979
			c-0.389,0.407-0.778,0.814-1.167,1.222c-2.247,0.929-4.493,1.858-6.739,2.787c2.186,7.631,0.233,14.815-2.364,21.931l0.03-0.025
			c-0.634,0.694-1.269,1.389-1.903,2.083c-2.376,2.922-4.752,5.844-7.128,8.766c-1.511,0.604-3.082,1.09-4.521,1.831
			c-11.538,5.939-31.676,6.149-41.545-9.714c-3.787-5.822-4.236-12.365-4.113-19.032c2.274-12.331,7.439-22.711,19.964-28.417
			c-1.291-0.706-1.993-1.091-2.695-1.475c-0.683-0.334-1.365-0.669-2.047-1.003l0.028,0.021c-1.364-1.143-2.639-2.416-4.105-3.406
			c-5.833-3.939-11.979-7.496-15.844-13.702C170.012,324.557,168.93,322.165,167.849,319.772z M211.278,367.959
			c0.069-6.863-5.403-12.289-12.392-12.287c-6.619,0.001-12.235,5.338-12.448,11.827c-0.216,6.601,5.482,12.452,12.242,12.567
			C205.53,380.184,211.209,374.725,211.278,367.959z M211.661,391.166c0.324,3.512,2.383,5.739,6.039,5.69
			c3.718-0.049,5.875-2.535,5.755-6.142c-0.111-3.333-2.161-5.593-5.755-5.591C213.945,385.125,211.94,387.196,211.661,391.166z"/>
		<path fill-rule="evenodd" clip-rule="evenodd" fill="#2CAEA9" d="M298.775,252.037c21.247,9.012,42.494,18.023,63.738,27.034
			c-0.529,2.008-1.054,4.017-1.579,6.026c-1.116-0.272-2.296-0.396-3.342-0.839c-15.88-6.725-31.737-13.5-47.618-20.225
			c-1.035-0.439-2.204-0.566-3.312-0.837c6.451,7.324,13.441,13.544,20.368,19.834c7.708,7,15.359,14.063,23.035,21.099
			c-1.249,1.632-2.498,3.265-3.748,4.896c-0.432-0.246-0.925-0.423-1.285-0.748c-17.682-15.91-35.339-31.847-53.041-47.734
			c-1.878-1.686-4.011-3.087-6.525-5.002c-4.553,31.802-8.968,62.64-13.383,93.479c-1.752,0.043-3.504,0.085-5.257,0.127
			c-0.34-0.367-0.681-0.734-1.021-1.101c4.049-29.861,8.098-59.722,12.32-90.861c-18.904,13.555-36.571,26.223-54.238,38.89
			c-4.604,1.004-9.208,2.008-13.813,3.012c-0.157-0.19-0.317-0.378-0.48-0.563c18.792-13.666,37.588-27.324,56.366-41.007
			c1.458-1.063,2.784-2.306,4.171-3.466c2.327-1.527,4.858-2.819,6.938-4.629c3.802-3.31,7.467-4.341,12.115-1.467
			C292.106,249.762,295.56,250.707,298.775,252.037z"/>
		<path fill-rule="evenodd" clip-rule="evenodd" fill="#2BACA9" d="M380.911,286.973c7.453,3.197,14.88,6.457,22.382,9.536
			c1.404,0.575,3.106,0.424,4.672,0.607c2.873,1.613,5.576,3.786,8.654,4.707c4.403,1.317,5.697,4.082,5.269,8.098
			c-0.432,4.049-1.14,8.068-1.726,12.101c-3.181,24.849-6.361,49.7-9.536,74.55c-0.273,2.139-0.5,4.285-0.749,6.427
			c-2.265-0.036-4.529-0.073-6.794-0.109c3.036-23.584,6.07-47.169,9.106-70.753c-1.573,1.061-2.352,2.3-2.869,3.642
			c-6.74,17.471-13.491,34.938-20.114,52.453c-1.335,3.528-2.151,7.252-3.207,10.885c-1.974-1.685-3.949-3.37-5.923-5.054
			c10.597-27.787,21.194-55.573,32.285-84.655c-12.808,2.323-24.574,4.458-36.342,6.592c-0.785-2.088-1.571-4.176-2.357-6.263
			c-0.021-0.347,0.099-0.635,0.359-0.864c9.163-1.339,18.328-2.678,27.491-4.017c0.078-0.647,0.156-1.293,0.233-1.94
			c-7.731-3.02-15.464-6.038-23.195-9.057C379.338,291.563,380.125,289.268,380.911,286.973z"/>
		<path fill-rule="evenodd" clip-rule="evenodd" fill="#2CADA9" d="M387.854,463.229c-6.404,1.485-12.858,2.789-19.206,4.489
			c-19.189,5.143-38.339,10.439-57.503,15.675c-0.357-2.112-0.715-4.223-1.073-6.334c0.327-0.331,0.653-0.662,0.979-0.993
			c1.463-0.215,2.968-0.276,4.382-0.667c24.402-6.735,48.761-13.634,73.219-20.165c4.475-1.194,4.864-2.657,2.859-6.424
			c-4.672-8.78-9.037-17.726-13.526-26.604c0.38-0.364,0.761-0.73,1.141-1.095c1.974,0.276,3.945,0.552,5.918,0.828
			c3.822,7.322,7.646,14.645,11.468,21.966c0.472-0.131,0.943-0.262,1.415-0.393c0.73-7.118,1.461-14.236,2.191-21.354
			c2.336,0.033,4.671,0.066,7.007,0.099c-0.668,6.246-1.336,12.491-2.004,18.738c-0.352,2.277-0.864,4.546-1.021,6.838
			c-0.51,7.42-3.423,11.005-10.454,12.958C391.643,461.346,389.78,462.402,387.854,463.229z"/>
		<path fill-rule="evenodd" clip-rule="evenodd" fill="#F9DD8C" d="M407.124,422.257c-2.336-0.032-4.671-0.065-7.008-0.099
			c-5.024-0.072-10.049-0.146-15.073-0.219c-1.973-0.276-3.944-0.552-5.918-0.828c-5.813-3.403-7.821-6.752-6.744-11.234
			c1.104-4.594,5.18-7.315,11.382-7.601c1.147-0.052,2.294-0.103,3.441-0.154c5.293,0.255,10.586,0.511,15.879,0.767
			c2.265,0.036,4.529,0.073,6.794,0.109c6.217,0.383,12.434,0.766,18.649,1.149c-4.102,6.155-4.47,12.401-0.467,18.757
			C421.081,422.688,414.104,422.473,407.124,422.257z"/>
		<path fill-rule="evenodd" clip-rule="evenodd" fill="#F9DC8B" d="M380.911,286.973c-0.786,2.295-1.573,4.59-2.358,6.887
			c-1.509,5.004-3.02,10.009-4.531,15.013c-0.261,0.229-0.38,0.517-0.358,0.866c-4.014,8.829-5.658,9.963-13.333,9.193
			c0.701-4.691-1.645-6.71-6.062-6.913c0.297-3.309,0.595-6.617,0.893-9.925l-0.054,0.017c0.286-0.338,0.571-0.677,0.856-1.015
			c1.657-5.333,3.314-10.666,4.971-15.998c0.525-2.009,1.05-4.018,1.579-6.026c1.636-5.002,3.269-10.005,4.9-15.01
			c4.719,5.594,10.537,7.675,17.679,5.519C383.699,275.377,382.305,281.175,380.911,286.973z"/>
		<path fill-rule="evenodd" clip-rule="evenodd" fill="#2DAEA9" d="M175.793,374.929c-0.123,6.667,0.327,13.21,4.114,19.034
			c-0.094,1.537-0.474,3.117-0.238,4.6c2.096,13.159,4.302,26.302,6.475,39.448c-2.229,0.342-4.458,0.683-6.687,1.024
			c-5.132-29.729-10.264-59.46-15.395-89.189c-0.607-3.87-1.519-7.726-1.713-11.616c-0.129-2.581-0.026-5.856,1.422-7.647
			c1.557-1.926,4.809-2.482,7.322-3.636c3.865,6.208,10.011,9.764,15.844,13.703c1.466,0.991,2.742,2.263,4.105,3.406
			c-6.871-1.302-13.742-2.604-21.751-4.122C171.581,352.257,173.687,363.594,175.793,374.929z"/>
		<path fill-rule="evenodd" clip-rule="evenodd" fill="#FADE8C" d="M144.777,474.402c8.784-6.754,17.568-13.508,26.351-20.263
			c1.847-1.08,3.61-2.352,5.558-3.199c3.885-1.692,7.773-1.945,11.088,1.299c3.083,3.015,3.697,6.724,1.804,10.479
			c-1.006,1.995-2.912,3.538-4.41,5.284c-9.73,7.034-19.46,14.066-29.19,21.101C155.203,481.947,151.422,477.083,144.777,474.402z"
			/>
		<path fill-rule="evenodd" clip-rule="evenodd" fill="#FADE8C" d="M245.087,473.8c-3.14,10.183-6.279,20.366-9.418,30.552
			c-0.912,1.773-1.709,3.619-2.762,5.305c-2.55,4.085-6.921,5.734-11.219,4.157c-4.355-1.599-6.048-5.021-5.742-9.466
			c0.136-1.974,0.646-3.921,0.988-5.881c3.158-9.839,6.315-19.678,9.471-29.519C232.63,470.565,238.859,472.182,245.087,473.8z"/>
		<path fill-rule="evenodd" clip-rule="evenodd" fill="#FADE8C" d="M429.22,493.229c-8.512-7.906-17.023-15.813-25.536-23.718
			c6.905-2.51,10.612-7.515,11.49-14.729c6.924,6.195,13.828,12.412,20.787,18.567c1.593,1.411,3.372,2.609,5.068,3.904
			c0.938,1.142,1.891,2.27,2.809,3.426c3.219,4.059,3.44,9.396,0.542,12.728c-2.997,3.444-8.059,4.002-12.647,1.378
			C430.877,494.297,430.057,493.75,429.22,493.229z"/>
		<path fill-rule="evenodd" clip-rule="evenodd" fill="#25DE8C" d="M144.777,474.402c6.645,2.681,10.426,7.545,11.201,14.7
			c-2.399,10.632-9.439,16.378-17.888,14.601c-7.666-1.612-12.942-8.897-12.021-16.596c0.903-7.537,7.368-13.07,15.228-12.993
			C142.458,474.126,143.617,474.302,144.777,474.402z"/>
		<path fill-rule="evenodd" clip-rule="evenodd" fill="#FADE8C" d="M287.45,521.312c-0.46-9.229-0.92-18.457-1.38-27.687
			c0.14-1.319,0.188-2.655,0.436-3.955c1.117-5.861,4.48-8.835,9.728-8.683c4.787,0.14,7.976,3.358,8.968,8.992
			c0.198,1.125,0.539,2.223,0.814,3.333c0.292,9.55,0.584,19.101,0.877,28.652C300.565,517.218,294.081,517.084,287.45,521.312z"/>
		<path fill-rule="evenodd" clip-rule="evenodd" fill="#FADE8C" d="M425.168,293.161c8.618-4.087,17.236-8.173,25.856-12.258
			c0.917-0.362,1.825-0.75,2.753-1.082c5.457-1.957,10.291-0.549,12.516,3.629c2.41,4.527,0.914,9.49-3.86,12.851
			c-1.068,0.752-2.109,1.544-3.163,2.318c-6.463,2.848-12.92,5.713-19.396,8.533c-1.952,0.851-3.959,1.574-5.94,2.351
			C434.367,302.251,431.294,296.887,425.168,293.161z"/>
		<path fill-rule="evenodd" clip-rule="evenodd" fill="#25DE8C" d="M272.127,209.143c-13.025-8.504-8.209-22.813,0.311-26.581
			c5.831-2.578,11.916-1.741,16.555,2.631c4.502,4.243,5.791,10.581,3.316,16.413c-0.452,1.063-0.985,2.092-1.48,3.137
			C285.543,210.244,279.367,211.951,272.127,209.143z"/>
		<path fill-rule="evenodd" clip-rule="evenodd" fill="#25DE8C" d="M385.093,269.579c-7.142,2.157-12.96,0.075-17.679-5.519
			c-3.969-9.74-1.844-17.534,5.819-21.334c7.076-3.508,15.5-0.987,19.412,5.811c3.928,6.826,1.801,15.297-4.954,19.642
			C386.866,268.709,385.961,269.115,385.093,269.579z"/>
		<path fill-rule="evenodd" clip-rule="evenodd" fill="#25DE8C" d="M428.06,422.904c-4.003-6.355-3.635-12.602,0.467-18.757
			c5.424-4.8,11.327-6.851,18.225-3.177c7.733,4.119,10.132,13.606,5.298,20.955c-4.654,7.077-14.259,8.733-20.993,3.59
			C430.004,424.714,429.056,423.778,428.06,422.904z"/>
		<path fill-rule="evenodd" clip-rule="evenodd" fill="#25DE8C" d="M287.45,521.312c6.631-4.228,13.115-4.094,19.443,0.653
			c5.781,7.683,6.133,14.335,1.074,20.325c-4.702,5.57-12.834,6.843-18.901,2.96c-6.333-4.054-8.679-12.032-5.316-18.692
			C284.703,524.667,286.202,523.053,287.45,521.312z"/>
		<path fill-rule="evenodd" clip-rule="evenodd" fill="#28DE8D" d="M123.786,329.914c-6.613,2.506-12.715,2.119-17.77-3.373
			c-5.726-6.221-4.894-16.013,1.709-21.152c6.854-5.336,16.501-3.748,21.3,3.551c0.815,1.241,1.407,2.627,2.104,3.946
			C132.111,320.043,129.755,325.758,123.786,329.914z"/>
		<path fill-rule="evenodd" clip-rule="evenodd" fill="#2FAEA9" d="M245.087,473.8c-6.228-1.618-12.457-3.234-18.682-4.852
			c-9.416-2.483-18.835-4.97-28.254-7.452c0.933-2.141,1.868-4.282,2.803-6.425c9.778,2.443,19.554,4.886,29.331,7.328
			c0.178,1.457,0.356,2.916,0.702,5.744c1.845-2.093,2.736-3.104,3.628-4.117c15.833,4.082,31.667,8.164,47.5,12.246
			c-0.366,2.258-0.731,4.515-1.097,6.772C269.04,479.963,257.063,476.881,245.087,473.8z"/>
		<path fill-rule="evenodd" clip-rule="evenodd" fill="#FBDE8D" d="M272.127,209.143c7.24,2.809,13.417,1.101,18.702-4.399
			c0.687,10.686,1.374,21.372,2.062,32.059c-6.776-4.103-13.287-3.751-19.524,1.172C272.954,228.364,272.54,218.753,272.127,209.143
			z"/>
		<path fill-rule="evenodd" clip-rule="evenodd" fill="#2ADE8E" d="M429.22,493.229c0.837,0.521,1.657,1.067,2.513,1.557
			c4.589,2.624,9.65,2.066,12.647-1.378c2.898-3.332,2.677-8.669-0.542-12.728c-0.918-1.156-1.87-2.284-2.809-3.426
			c9.755-0.475,16.425,4.418,17.611,12.92c1.006,7.213-4.231,14.405-11.777,16.172C438.514,508.303,431.177,502.847,429.22,493.229z
			"/>
		<path fill-rule="evenodd" clip-rule="evenodd" fill="#FBDE8D" d="M123.786,329.914c5.97-4.156,8.326-9.871,7.343-17.027
			c8.416,3.104,16.832,6.209,25.244,9.316c-5.134,4.574-7.532,10.099-5.926,17.018C141.56,336.119,132.673,333.017,123.786,329.914z
			"/>
		<path fill-rule="evenodd" clip-rule="evenodd" fill="#2BDE8E" d="M459.27,298.618c1.054-0.774,2.095-1.566,3.163-2.318
			c4.774-3.36,6.271-8.323,3.86-12.851c-2.225-4.178-7.059-5.585-12.516-3.629c-0.928,0.332-1.836,0.72-2.753,1.082
			c2.133-7.773,9.717-12.435,17.109-10.519c7.809,2.024,12.838,9.522,11.354,16.928c-1.605,8.007-9.121,13.453-16.832,12.156
			C461.513,299.276,460.397,298.906,459.27,298.618z"/>
		<path fill-rule="evenodd" clip-rule="evenodd" fill="#27DD8D" d="M200.953,455.071c-0.935,2.143-1.869,4.284-2.802,6.425
			c-3.163,4.492-7.214,7.213-12.984,6.505c1.5-1.745,3.405-3.288,4.411-5.283c1.893-3.755,1.278-7.464-1.804-10.479
			c-3.314-3.244-7.203-2.991-11.088-1.299c-1.948,0.848-3.711,2.119-5.558,3.199c-0.635-6.915,3.5-11.2,8.329-15.104
			c2.229-0.342,4.458-0.683,6.687-1.023c2.629,0.731,5.258,1.465,7.887,2.197c1.646,1.323,3.291,2.646,4.938,3.97
			C199.63,447.81,200.292,451.439,200.953,455.071z"/>
		<path fill-rule="evenodd" clip-rule="evenodd" fill="#2BDE8E" d="M216.934,498.467c-0.341,1.96-0.852,3.907-0.988,5.881
			c-0.307,4.444,1.387,7.867,5.742,9.466c4.298,1.577,8.669-0.072,11.219-4.157c1.052-1.686,1.85-3.531,2.762-5.305
			c2.886,5.697,2.855,11.258-1.143,16.412c-3.401,4.385-7.976,6.544-13.563,5.814c-6.484-0.848-11.661-5.978-12.794-12.337
			C207.04,507.916,210.417,501.84,216.934,498.467z"/>
		<path fill-rule="evenodd" clip-rule="evenodd" fill="#27DD8D" d="M281.017,483.045c0.366-2.258,0.731-4.515,1.097-6.773
			c1.833-1.801,3.666-3.601,5.499-5.4c0.577,0.619,1.152,1.237,1.728,1.855c0.497-1.205,0.995-2.411,1.492-3.617
			c1.793-0.378,3.585-0.757,5.377-1.136c3.265,1.146,6.529,2.292,9.793,3.438c1.325,1.552,2.65,3.105,3.976,4.657
			c0.004,0.333,0.035,0.663,0.093,0.99c0.358,2.111,0.716,4.222,1.073,6.334c-1.71,3.307-3.419,6.612-5.129,9.919
			c-0.275-1.109-0.617-2.207-0.814-3.332c-0.992-5.634-4.181-8.853-8.968-8.992c-5.247-0.152-8.611,2.821-9.728,8.683
			c-0.248,1.3-0.296,2.636-0.436,3.955C284.385,490.099,282.701,486.572,281.017,483.045z"/>
		<path fill-rule="evenodd" clip-rule="evenodd" fill="#25DE8C" d="M425.168,293.161c6.126,3.727,9.199,9.091,8.766,16.342
			c-2.259,6.745-6.75,11.025-13.772,12.52c0.587-4.033,1.295-8.053,1.727-12.102c0.429-4.016-0.865-6.781-5.269-8.098
			c-3.078-0.921-5.781-3.094-8.654-4.707C412.695,291.438,418.665,291.139,425.168,293.161z"/>
		<path fill-rule="evenodd" clip-rule="evenodd" fill="#25DE8C" d="M415.174,454.783c-0.878,7.214-4.585,12.219-11.49,14.729
			c-6.585,1.207-12.058-0.392-15.828-6.282c1.925-0.827,3.787-1.884,5.789-2.438c7.031-1.953,9.944-5.538,10.454-12.958
			c0.157-2.292,0.67-4.561,1.021-6.838C411.45,443.42,414.314,448.371,415.174,454.783z"/>
		<path fill-rule="evenodd" clip-rule="evenodd" fill="#25DE8C" d="M273.367,237.975c6.237-4.923,12.748-5.275,19.524-1.172
			c4.614,4.053,6.606,9.12,5.885,15.236c-3.216-1.331-6.669-2.276-9.591-4.082c-4.648-2.874-8.313-1.842-12.115,1.467
			c-2.08,1.81-4.611,3.102-6.938,4.629C267.463,247.939,269.557,242.784,273.367,237.975z"/>
		<path fill-rule="evenodd" clip-rule="evenodd" fill="#24DD8B" d="M150.447,339.22c-1.606-6.919,0.792-12.443,5.926-17.018
			c3.828-0.815,7.653-1.627,11.477-2.434c1.081,2.396,2.163,4.788,3.244,7.179c-2.513,1.152-5.765,1.708-7.322,3.635
			c-1.449,1.791-1.552,5.066-1.422,7.647c0.194,3.891,1.106,7.746,1.713,11.616C157.293,349.162,153.021,345.279,150.447,339.22z"/>
		<path fill-rule="evenodd" clip-rule="evenodd" fill="#2CAEA9" d="M199.619,314.228c-1.963-1.366-3.926-2.731-5.892-4.097
			c4.715-3.419,9.433-6.839,14.151-10.259l0.333,0.335c-1.073,3.29-2.145,6.581-3.218,9.871
			C203.202,311.461,201.41,312.845,199.619,314.228z"/>
		<path fill-rule="evenodd" clip-rule="evenodd" fill="#2CAEA9" d="M207.879,299.872c0.573-0.448,1.146-0.896,1.717-1.346
			c0.162,0.184,0.322,0.371,0.479,0.562c-0.621,0.373-1.242,0.746-1.863,1.119L207.879,299.872z"/>
		<path fill-rule="evenodd" clip-rule="evenodd" fill="#81DADC" d="M194.031,440.209c-2.629-0.732-5.258-1.466-7.887-2.197
			c-2.172-13.147-4.378-26.29-6.474-39.449c-0.236-1.482,0.145-3.063,0.238-4.6c9.868,15.861,30.006,15.651,41.544,9.712
			c1.439-0.741,3.011-1.227,4.522-1.831c-0.912,1.506-1.638,3.172-2.767,4.492C213.523,417.662,203.766,428.926,194.031,440.209z"/>
		<path fill-rule="evenodd" clip-rule="evenodd" fill="#22DC8B" d="M208.211,300.207c0.621-0.373,1.242-0.746,1.863-1.119
			c4.605-1.004,9.209-2.008,13.814-3.012c6.811,3.581,11.181,8.671,10.459,16.909c-1.534,6.687-5.483,10.942-12.347,12.263
			c-2.664-0.08-5.328-0.161-7.991-0.241l0.068,0.061c-0.359-0.347-0.718-0.693-1.077-1.04c-1.998-1.542-3.996-3.082-5.994-4.625
			c-0.671-3.108-1.343-6.216-2.014-9.324C206.066,306.788,207.139,303.497,208.211,300.207z"/>
		<path fill-rule="evenodd" clip-rule="evenodd" fill="#2CAEA9" d="M194.031,440.209c9.735-11.283,19.492-22.547,29.176-33.873
			c1.129-1.32,1.854-2.986,2.767-4.492c2.375-2.922,4.751-5.844,7.127-8.766c0.634-0.696,1.269-1.389,1.903-2.083
			c0,0-0.03,0.025-0.03,0.024c1.365-1.006,2.94-1.822,4.057-3.053c5.377-5.929,10.63-11.97,15.927-17.972
			c1.363,1.726,2.725,3.452,4.087,5.178c-13.107,15.195-26.18,30.419-39.335,45.572c-6.839,7.877-13.824,15.628-20.743,23.437
			C197.321,442.855,195.676,441.532,194.031,440.209z"/>
		<path fill-rule="evenodd" clip-rule="evenodd" fill="#F7F7F7" d="M211.278,367.959c-0.069,6.766-5.748,12.225-12.597,12.107
			c-6.76-0.115-12.458-5.966-12.242-12.567c0.213-6.489,5.829-11.826,12.448-11.827C205.875,355.67,211.347,361.096,211.278,367.959
			z"/>
		<path fill-rule="evenodd" clip-rule="evenodd" fill="#7FD8DB" d="M175.793,374.929c-2.106-11.335-4.212-22.672-6.502-34.995
			c8.01,1.518,14.88,2.82,21.751,4.122l-0.028-0.021c0.682,0.335,1.364,0.669,2.047,1.003c0.703,0.384,1.405,0.769,2.695,1.475
			C183.232,352.218,178.068,362.598,175.793,374.929z"/>
		<path fill-rule="evenodd" clip-rule="evenodd" fill="#81DADC" d="M254.958,369.994c-5.297,6.002-10.55,12.043-15.927,17.973
			c-1.117,1.231-2.692,2.046-4.057,3.053c2.597-7.115,4.55-14.299,2.364-21.93c2.247-0.929,4.492-1.857,6.738-2.787
			c0.389-0.407,0.778-0.814,1.166-1.222c0.323-0.66,0.646-1.32,0.969-1.979c0.093-1.328,0.187-2.656,0.28-3.983
			c1.319,0.274,2.639,0.549,3.956,0.824c1.224,1.43,2.451,2.86,3.677,4.291C254.403,366.154,254.681,368.073,254.958,369.994z"/>
		<path fill-rule="evenodd" clip-rule="evenodd" fill="#76C7C4" d="M250.45,359.942c-1.319-0.275-2.639-0.55-3.958-0.824
			c-2.286-2.801-4.378-5.789-6.893-8.366c-8.449-8.661-17.048-17.176-25.59-25.746c2.664,0.08,5.328,0.161,7.993,0.241
			c1.871,2.647,3.563,5.444,5.639,7.919C235.175,342.149,242.837,351.025,250.45,359.942z"/>
		<path fill-rule="evenodd" clip-rule="evenodd" fill="#F4F4F4" d="M211.661,391.166c0.279-3.97,2.284-6.041,6.039-6.042
			c3.594-0.002,5.644,2.258,5.755,5.591c0.12,3.606-2.037,6.093-5.755,6.142C214.044,396.904,211.984,394.678,211.661,391.166z"/>
		<path fill-rule="evenodd" clip-rule="evenodd" fill="#7FD8DB" d="M204.994,310.078c0.671,3.108,1.343,6.216,2.014,9.324
			c-2.462-1.723-4.924-3.448-7.387-5.173C201.41,312.845,203.202,311.461,204.994,310.078z"/>
		<path fill-rule="evenodd" clip-rule="evenodd" fill="#76C7C4" d="M244.077,366.302c-2.246,0.929-4.492,1.858-6.738,2.787
			C239.584,368.16,241.831,367.231,244.077,366.302z"/>
		<path fill-rule="evenodd" clip-rule="evenodd" fill="#76C7C4" d="M246.212,363.102c-0.323,0.659-0.646,1.319-0.969,1.979
			C245.566,364.421,245.889,363.761,246.212,363.102z"/>
		<path fill-rule="evenodd" clip-rule="evenodd" fill="#81DADC" d="M235.004,390.995c-0.634,0.694-1.269,1.388-1.903,2.083
			C233.735,392.383,234.37,391.689,235.004,390.995z"/>
		<path fill-rule="evenodd" clip-rule="evenodd" fill="#2DAEA9" d="M193.063,345.038c-0.683-0.334-1.365-0.668-2.047-1.003
			C191.697,344.369,192.379,344.704,193.063,345.038z"/>
		<path fill-rule="evenodd" clip-rule="evenodd" fill="#76C7C4" d="M213.001,324.026c0.359,0.347,0.718,0.693,1.077,1.04
			C213.719,324.72,213.36,324.373,213.001,324.026z"/>
		<path fill-rule="evenodd" clip-rule="evenodd" fill="#81DBDE" d="M272.084,349.02c4.415-30.839,8.83-61.677,13.382-93.479
			c2.515,1.915,4.647,3.316,6.525,5.002c17.702,15.887,35.359,31.825,53.041,47.734c0.36,0.324,0.854,0.502,1.283,0.748
			c-0.071,1.645-0.141,3.291-0.211,4.937c-11.549,3.43-23.327,5.748-34.235,11.593c-12.839,6.882-25.886,12.921-31.766,27.571
			C277.431,351.757,274.757,350.389,272.084,349.02z"/>
		<path fill-rule="evenodd" clip-rule="evenodd" fill="#82DCDE" d="M234.348,312.984c0.722-8.238-3.648-13.328-10.459-16.909
			c17.666-12.667,35.333-25.335,54.237-38.89c-4.222,31.139-8.271,61-12.318,90.862c-3.292-3.712-6.564-7.443-9.881-11.133
			C248.746,328.927,241.542,320.96,234.348,312.984z"/>
		<path fill-rule="evenodd" clip-rule="evenodd" fill="#FADE8C" d="M234.348,312.984c7.194,7.976,14.398,15.942,21.579,23.93
			c3.317,3.69,6.589,7.421,9.881,11.133c0.339,0.365,0.68,0.732,1.02,1.1c2.041,2.588,4.273,5.051,6.08,7.795
			c2.948,4.479,2.236,9.314-1.525,12.522c-3.48,2.967-8.89,2.656-12.655-0.781c-1.576-1.438-3.07-2.964-4.602-4.45
			c-1.227-1.431-2.453-2.861-3.677-4.291c-7.611-8.917-15.273-17.793-22.806-26.776c-2.076-2.475-3.768-5.272-5.639-7.919
			C228.865,323.927,232.813,319.671,234.348,312.984z"/>
		<path fill-rule="evenodd" clip-rule="evenodd" fill="#3F87BB" d="M360.935,285.097c-1.656,5.333-3.313,10.666-4.97,15.998
			c-0.285,0.338-0.571,0.676-0.857,1.015l0.054-0.017c-1.698,0.679-3.396,1.358-5.095,2.036
			c-7.676-7.036-15.327-14.099-23.035-21.099c-6.927-6.29-13.917-12.51-20.368-19.834c1.107,0.271,2.276,0.398,3.312,0.837
			c15.881,6.725,31.738,13.5,47.618,20.225C358.639,284.701,359.818,284.825,360.935,285.097z"/>
		<path fill-rule="evenodd" clip-rule="evenodd" fill="#29DB8B" d="M254.125,364.233c1.532,1.486,3.026,3.013,4.602,4.45
			c3.766,3.437,9.175,3.748,12.655,0.781c3.761-3.208,4.473-8.044,1.525-12.522c-1.806-2.744-4.039-5.207-6.08-7.795
			c1.752-0.042,3.504-0.084,5.256-0.127c2.673,1.369,5.347,2.737,8.02,4.105c-0.791,1.769-1.817,3.475-2.313,5.323
			c-0.582,2.171-1.532,4.856-0.726,6.568c0.517,1.1,3.912,0.845,6.017,1.196c-0.34,1.611-0.68,3.223-1.019,4.833
			c-2.326,2.309-4.652,4.619-6.978,6.928c-2.034,0.368-4.069,0.735-6.103,1.104c-3.313-1.301-6.625-2.603-9.937-3.904
			c-1.362-1.726-2.724-3.452-4.087-5.178C254.681,368.073,254.403,366.154,254.125,364.233z"/>
		<path fill-rule="evenodd" clip-rule="evenodd" fill="#29DB8B" d="M350.066,304.129c1.698-0.678,3.396-1.356,5.095-2.036
			c-0.298,3.309-0.596,6.617-0.894,9.925c-2.721,0.647-5.441,1.295-8.161,1.943c0.069-1.646,0.139-3.292,0.21-4.937
			C347.568,307.394,348.817,305.761,350.066,304.129z"/>
		<path fill-rule="evenodd" clip-rule="evenodd" fill="#3E86BB" d="M376.02,315.999c11.768-2.134,23.534-4.27,36.342-6.592
			c-11.091,29.082-21.688,56.868-32.285,84.655c-1.64-0.372-3.279-0.743-4.919-1.114c-3.329-21.263-6.658-42.526-9.986-63.79
			C371.355,326.888,374.276,321.929,376.02,315.999z"/>
		<path fill-rule="evenodd" clip-rule="evenodd" fill="#3F87BB" d="M403.083,402.889c-5.293-0.256-10.586-0.512-15.88-0.768
			c-0.402-1.001-0.803-2.004-1.204-3.006c1.056-3.633,1.872-7.357,3.207-10.885c6.623-17.516,13.374-34.982,20.114-52.453
			c0.518-1.341,1.296-2.581,2.869-3.642C409.153,355.72,406.119,379.304,403.083,402.889z"/>
		<path fill-rule="evenodd" clip-rule="evenodd" fill="#24DD8B" d="M385.999,399.115c0.401,1.002,0.802,2.005,1.204,3.006
			c-1.146,0.053-2.293,0.104-3.44,0.155c-6.202,0.285-10.277,3.007-11.382,7.601c-1.077,4.482,0.932,7.831,6.744,11.234
			c-0.38,0.364-0.761,0.73-1.14,1.093c-3.964-0.341-7.929-0.68-11.894-1.02c-1.35-1.08-2.7-2.158-4.051-3.237
			c-1.015-3.941-2.03-7.882-3.045-11.823c0.693-2.046,1.385-4.09,2.076-6.136c2.682-2.276,5.363-4.554,8.044-6.831
			c2.015-0.07,4.027-0.141,6.042-0.211c1.639,0.372,3.278,0.743,4.918,1.115C382.05,395.746,384.025,397.431,385.999,399.115z"/>
		<path fill-rule="evenodd" clip-rule="evenodd" fill="#3F87BB" d="M374.021,308.872c1.512-5.004,3.022-10.009,4.531-15.013
			c7.729,3.018,15.462,6.036,23.193,9.056c-0.077,0.646-0.155,1.293-0.233,1.94C392.35,306.194,383.185,307.533,374.021,308.872z"/>
		<path fill-rule="evenodd" clip-rule="evenodd" fill="#29DB8B" d="M376.02,315.999c-1.743,5.93-4.664,10.889-10.85,13.157
			c-2.062,0.289-4.123,0.579-6.184,0.869c-1.948-0.735-3.896-1.47-5.846-2.206c2.396-2.963,4.794-5.926,7.189-8.889
			c7.675,0.77,9.319-0.364,13.333-9.193C374.448,311.823,375.234,313.911,376.02,315.999z"/>
		<path fill-rule="evenodd" clip-rule="evenodd" fill="#3E86BB" d="M366.092,421.187c3.965,0.338,7.93,0.677,11.894,1.018
			c4.488,8.88,8.854,17.825,13.525,26.605c2.005,3.767,1.615,5.229-2.859,6.424c-24.458,6.531-48.816,13.43-73.219,20.165
			c-1.414,0.391-2.919,0.452-4.382,0.667l0.017,0.021c3.45-3.303,6.925-6.58,10.347-9.911
			c14.017-13.646,28.033-27.291,41.992-40.996C364.527,424.079,365.207,422.529,366.092,421.187z"/>
		<path fill-rule="evenodd" clip-rule="evenodd" fill="#3E86BB" d="M385.043,421.939c5.024,0.073,10.049,0.146,15.073,0.219
			c-0.729,7.118-1.46,14.236-2.19,21.354c-0.472,0.131-0.943,0.262-1.415,0.393C392.688,436.584,388.865,429.262,385.043,421.939z"
			/>
		<path fill-rule="evenodd" clip-rule="evenodd" fill="#3E86BB" d="M310.071,477.059c-0.058-0.327-0.089-0.657-0.092-0.989
			c0.363,0.006,0.726,0.012,1.088,0.018l-0.017-0.021C310.725,476.396,310.398,476.728,310.071,477.059z"/>
		<path fill-rule="evenodd" clip-rule="evenodd" fill="#2E2F2F" d="M360.33,318.931c-2.396,2.963-4.793,5.925-7.19,8.89
			c-6.213,6.893-12.425,13.784-18.636,20.675c0.486,0.488,2.339,1.852,3.995,3.423c7.624,7.238,14.216,15.259,13.872,26.44
			c-0.171,5.526-1.994,11.001-3.068,16.5c-1.074,2.019-2.146,4.035-3.221,6.054c-8.918,13.108-21.811,13.967-35.6,11.165
			c-13.057-2.652-21.349-10.546-23.506-23.939c-0.84-5.217-0.733-10.587-1.058-15.887c0.578-1.958,1.155-3.915,1.982-6.714
			c-2.185,0.307-3.501,0.491-4.817,0.676c-2.105-0.352-5.5-0.097-6.018-1.196c-0.806-1.711,0.145-4.397,0.726-6.568
			c0.495-1.848,1.521-3.554,2.313-5.323c5.88-14.65,18.927-20.688,31.766-27.571c10.908-5.846,22.687-8.163,34.235-11.593
			c2.721-0.647,5.441-1.295,8.162-1.943C358.686,312.221,361.031,314.24,360.33,318.931z M327.085,370.301
			c0.102-6.535-5.312-12.27-11.712-12.407c-6.774-0.146-12.588,5.389-12.676,12.067c-0.087,6.593,5.19,12.138,11.755,12.354
			C321.192,382.535,326.979,377.03,327.085,370.301z M332.688,391.068c-3.836,0.224-6.155,2.319-6.266,5.874
			c-0.109,3.534,1.921,6.014,5.768,6.062c3.693,0.047,5.941-1.811,6.064-5.681C338.378,393.454,336.102,391.684,332.688,391.068z"/>
		<path fill-rule="evenodd" clip-rule="evenodd" fill="#29DB8B" d="M355.107,302.11c0.286-0.339,0.572-0.677,0.857-1.015
			C355.679,301.433,355.394,301.772,355.107,302.11z"/>
		<path fill-rule="evenodd" clip-rule="evenodd" fill="#81DBDE" d="M259.045,375.172c3.313,1.301,6.625,2.603,9.938,3.904
			c3.505,15.293,7.106,30.566,10.453,45.893c0.947,4.342,1.149,8.846,1.693,13.274c-1.121-0.987-2.2-2.028-3.371-2.953
			c-17.205-13.601-39.466-6.169-44.832,14.992c-1.015,4.005-1.769,8.077-2.643,12.117c-9.777-2.443-19.554-4.886-29.332-7.329
			c-0.662-3.632-1.323-7.262-1.985-10.893c6.918-7.807,13.903-15.558,20.742-23.435
			C232.866,405.592,245.938,390.367,259.045,375.172z"/>
		<path fill-rule="evenodd" clip-rule="evenodd" fill="#81DADC" d="M287.612,470.871c-1.833,1.8-3.667,3.6-5.5,5.4
			c-15.833-4.081-31.666-8.163-47.498-12.244c2.944-7.2,7.365-13.254,13.507-18.118c8.741-6.924,17.155-7.096,24.122,1.362
			C278.175,454.473,282.549,462.956,287.612,470.871z"/>
		<path fill-rule="evenodd" clip-rule="evenodd" fill="#2B3030" d="M287.612,470.871c-5.063-7.915-9.438-16.398-15.369-23.6
			c-6.967-8.458-15.381-8.286-24.122-1.362c-6.142,4.864-10.563,10.918-13.507,18.118c-0.893,1.012-1.784,2.023-3.629,4.116
			c-0.345-2.828-0.523-4.287-0.702-5.744c0.875-4.039,1.628-8.111,2.643-12.116c5.366-21.161,27.627-28.593,44.832-14.992
			c1.17,0.925,2.25,1.966,3.369,2.952c2.364,4.604,5.417,8.999,6.912,13.873c1.668,5.438,1.922,11.311,2.792,16.993
			c-0.497,1.206-0.994,2.412-1.491,3.617C288.765,472.108,288.189,471.49,287.612,470.871z"/>
		<path fill-rule="evenodd" clip-rule="evenodd" fill="#81DBDE" d="M285.918,372.251c0.325,5.3,0.218,10.67,1.058,15.887
			c2.157,13.393,10.449,21.287,23.506,23.939c13.789,2.802,26.682,1.943,35.6-11.164c4.304,1.737,8.608,3.474,12.914,5.211
			c1.015,3.941,2.03,7.882,3.045,11.824c-4.874,4.469-9.837,8.843-14.604,13.42c-13.854,13.304-27.629,26.689-41.434,40.043
			c-3.265-1.146-6.529-2.292-9.794-3.437c-3.895-16.973-7.733-33.958-11.702-50.912c-3.055-13.05-6.275-26.061-9.422-39.089
			c2.326-2.309,4.652-4.619,6.978-6.928C283.348,371.447,284.633,371.849,285.918,372.251z"/>
		<path fill-rule="evenodd" clip-rule="evenodd" fill="#2CADA9" d="M275.085,377.973c3.146,13.028,6.367,26.04,9.422,39.089
			c3.969,16.954,7.807,33.939,11.702,50.912c-1.792,0.378-3.584,0.757-5.377,1.135c-0.871-5.683-1.125-11.555-2.793-16.993
			c-1.495-4.874-4.547-9.269-6.912-13.873c-0.542-4.428-0.745-8.932-1.692-13.273c-3.347-15.327-6.948-30.6-10.453-45.893
			C271.017,378.708,273.051,378.341,275.085,377.973z"/>
		<path fill-rule="evenodd" clip-rule="evenodd" fill="#2BACA9" d="M306.004,471.411c13.805-13.354,27.58-26.739,41.434-40.043
			c4.767-4.577,9.729-8.951,14.604-13.42c1.351,1.078,2.701,2.156,4.051,3.236c-0.885,1.345-1.564,2.895-2.686,3.995
			c-13.959,13.705-27.976,27.351-41.992,40.996c-3.422,3.331-6.896,6.608-10.347,9.911c-0.362-0.006-0.725-0.012-1.088-0.018
			C308.653,474.517,307.328,472.963,306.004,471.411z"/>
		<path fill-rule="evenodd" clip-rule="evenodd" fill="#2BACA9" d="M285.918,372.251c-1.285-0.402-2.57-0.804-3.855-1.206
			c0.339-1.61,0.679-3.222,1.019-4.833c1.316-0.185,2.633-0.369,4.818-0.676C287.074,368.336,286.496,370.293,285.918,372.251z"/>
		<path fill-rule="evenodd" clip-rule="evenodd" fill="#2BACA9" d="M358.986,330.025c2.061-0.29,4.122-0.58,6.184-0.869
			c3.329,21.265,6.658,42.528,9.987,63.791c-2.014,0.069-4.026,0.14-6.041,0.209c-1.503-8.955-3.064-17.899-4.496-26.864
			C362.69,354.212,360.859,342.115,358.986,330.025z"/>
		<path fill-rule="evenodd" clip-rule="evenodd" fill="#81DADC" d="M358.986,330.025c1.873,12.09,3.704,24.187,5.634,36.267
			c1.432,8.965,2.993,17.909,4.496,26.864c-2.681,2.278-5.362,4.556-8.044,6.833c-3.924-1.71-7.847-3.42-11.77-5.131
			c1.074-5.498,2.897-10.973,3.068-16.5c0.344-11.181-6.248-19.202-13.872-26.44c-1.656-1.571-3.509-2.935-3.995-3.423
			c6.211-6.891,12.423-13.782,18.636-20.675C355.09,328.556,357.038,329.29,358.986,330.025z"/>
		<path fill-rule="evenodd" clip-rule="evenodd" fill="#2DAEA9" d="M349.303,394.858c3.923,1.711,7.846,3.421,11.77,5.131
			c-0.691,2.045-1.383,4.089-2.076,6.135c-4.306-1.737-8.61-3.474-12.914-5.211C347.156,398.894,348.229,396.877,349.303,394.858z"
			/>
		<path fill-rule="evenodd" clip-rule="evenodd" fill="#F4F4F4" d="M327.085,370.301c-0.105,6.729-5.893,12.233-12.633,12.014
			c-6.565-0.215-11.843-5.76-11.755-12.354c0.088-6.678,5.902-12.213,12.676-12.067
			C321.773,358.032,327.187,363.767,327.085,370.301z"/>
		<path fill-rule="evenodd" clip-rule="evenodd" fill="#F4F4F4" d="M332.688,391.068c3.413,0.616,5.689,2.386,5.566,6.254
			c-0.123,3.87-2.371,5.728-6.064,5.681c-3.847-0.048-5.877-2.527-5.768-6.062C326.533,393.387,328.853,391.292,332.688,391.068z"/>
	</g>
</g>
</svg>
