<?xml version="1.0" encoding="utf-8"?>
<!-- Generator: Adobe Illustrator 16.0.3, SVG Export Plug-In . SVG Version: 6.00 Build 0)  -->
<!DOCTYPE svg PUBLIC "-//W3C//DTD SVG 1.1//EN" "http://www.w3.org/Graphics/SVG/1.1/DTD/svg11.dtd">
<svg version="1.1" id="Capa_1" xmlns="http://www.w3.org/2000/svg" xmlns:xlink="http://www.w3.org/1999/xlink" x="0px" y="0px"
	 width="612px" height="792px" viewBox="0 0 612 792" enable-background="new 0 0 612 792" xml:space="preserve">
<g>
	<g>
		<path fill-rule="evenodd" clip-rule="evenodd" fill="#FEFEFE" d="M564.116,654.102c-170.99,0.005-341.981,0.005-513.044,0.005
			c0-170.938,0-341.888,0-512.972c170.967,0,342.006,0,513.044,0C564.116,312.103,564.116,483.101,564.116,654.102z
			 M207.879,299.872c-4.718,3.42-9.436,6.84-14.154,10.259c-5.481-1.083-10.922-2.738-16.452-3.122
			c-9.199-0.639-12.267,3.863-9.421,12.754c-3.825,0.813-7.65,1.627-11.476,2.441c-8.416-3.105-16.832-6.21-25.249-9.316
			c-0.695-1.319-1.286-2.707-2.101-3.947c-4.797-7.3-14.446-8.889-21.3-3.553c-6.603,5.141-7.437,14.934-1.709,21.153
			c5.054,5.486,11.156,5.886,17.77,3.37c8.887,3.103,17.775,6.205,26.662,9.307c2.57,6.063,6.845,9.941,13.613,10.626
			c5.131,29.73,10.263,59.461,15.393,89.19c-4.832,3.902-8.964,8.19-8.327,15.107c-8.784,6.754-17.567,13.506-26.351,20.26
			c-1.16-0.101-2.319-0.276-3.48-0.288c-7.859-0.077-14.325,5.456-15.228,12.993c-0.922,7.698,4.354,14.983,12.021,16.596
			c8.449,1.777,15.489-3.969,17.888-14.601c9.729-7.032,19.458-14.064,29.185-21.098c5.769,0.706,9.825-2.009,12.988-6.506
			c9.418,2.483,18.837,4.968,28.255,7.452c-3.528,11.409-7.056,22.817-10.584,34.226c-6.896,2.973-10.619,8.966-9.699,15.614
			c0.903,6.524,6.226,11.895,12.885,12.805c10.764,1.472,20.946-10.416,14.858-21.827c3.74-11.989,7.48-23.979,11.221-35.967
			c11.977,3.08,23.955,6.16,35.932,9.24c1.684,3.527,3.368,7.055,5.052,10.582c0.46,9.228,0.92,18.456,1.38,27.685
			c-1.249,1.741-2.748,3.355-3.702,5.246c-3.364,6.662-1.018,14.642,5.316,18.697c6.067,3.884,14.203,2.61,18.905-2.961
			c5.061-5.994,4.707-12.645-1.079-20.33c-0.291-9.552-0.583-19.104-0.873-28.656c1.708-3.306,3.416-6.609,5.125-9.915
			c19.165-5.235,38.314-10.53,57.505-15.672c6.348-1.7,12.802-3.004,19.208-4.487c3.77,5.891,9.244,7.484,15.828,6.281
			c9.17,8.499,18.341,16.998,27.513,25.496c-0.165,9.62,5.863,16.584,14.488,16.736c7.924,0.141,15.063-6.896,15.066-14.852
			c0.006-8.29-6.688-14.61-15.519-14.656c-5.526-5.252-10.985-10.577-16.602-15.729c-4.383-4.02-8.963-7.823-13.455-11.723
			c-0.863-6.411-3.725-11.366-10.056-13.789c0.668-6.247,1.336-12.492,2.004-18.738c6.979,0.216,13.957,0.432,20.936,0.647
			c0.996,0.874,1.944,1.81,2.996,2.611c6.734,5.144,16.338,3.488,20.993-3.59c4.834-7.349,2.436-16.836-5.298-20.955
			c-6.897-3.674-12.801-1.623-18.224,3.176c-6.217-0.383-12.434-0.766-18.65-1.148c0.249-2.142,0.476-4.288,0.749-6.427
			c3.175-24.851,6.355-49.701,9.534-74.548c7.021-1.498,11.518-5.773,13.77-12.516c6.86-2.95,13.72-5.899,20.58-8.849
			c9.304,2.601,17.238-1.481,19.677-10.124c2.171-7.698-2.233-15.319-10.336-17.883c-7.719-2.442-15.272,1.912-18.102,10.435
			c-6.861,3.358-13.723,6.717-20.584,10.075c-6.502-2.025-12.47-1.722-17.201,3.955c-1.564-0.185-3.267-0.033-4.671-0.608
			c-7.502-3.079-14.929-6.338-22.379-9.535c1.393-5.798,2.786-11.596,4.179-17.395c0.868-0.464,1.773-0.87,2.599-1.4
			c6.755-4.345,8.882-12.815,4.954-19.642c-3.912-6.797-12.336-9.318-19.412-5.811c-7.663,3.8-9.788,11.594-5.817,21.336
			c-1.634,5.003-3.267,10.006-4.899,15.009c-21.247-9.011-42.494-18.023-63.74-27.034c0.72-6.117-1.269-11.185-5.891-15.238
			c-0.687-10.685-1.374-21.37-2.061-32.056c0.497-1.044,1.031-2.073,1.483-3.136c2.476-5.832,1.188-12.171-3.314-16.414
			c-4.639-4.372-10.726-5.212-16.556-2.631c-8.554,3.787-13.308,18.113-0.308,26.579c0.414,9.61,0.829,19.22,1.243,28.831
			c-3.817,4.808-5.909,9.964-3.24,16.08c-1.387,1.16-2.713,2.403-4.171,3.466c-18.778,13.684-37.574,27.342-56.364,41.008
			C209.024,298.975,208.452,299.424,207.879,299.872z"/>
		<path fill-rule="evenodd" clip-rule="evenodd" fill="#2E2F2F" d="M167.849,319.772c-2.843-8.9,0.225-13.402,9.424-12.763
			c5.53,0.384,10.971,2.039,16.455,3.122c1.966,1.366,3.929,2.731,5.893,4.098c2.463,1.725,4.925,3.45,7.387,5.174
			c1.998,1.542,3.996,3.082,5.994,4.624c0.359,0.347,0.718,0.693,1.077,1.04l-0.068-0.061c8.542,8.57,17.141,17.085,25.59,25.746
			c2.514,2.577,4.607,5.565,6.893,8.366c-0.094,1.327-0.188,2.656-0.281,3.983c-0.323,0.659-0.646,1.319-0.968,1.979
			c-0.389,0.407-0.778,0.814-1.167,1.222c-2.247,0.929-4.493,1.858-6.739,2.787c2.186,7.631,0.232,14.815-2.364,21.931l0.03-0.025
			c-0.634,0.694-1.269,1.389-1.903,2.083c-2.376,2.922-4.752,5.844-7.128,8.766c-1.511,0.604-3.082,1.09-4.521,1.831
			c-11.537,5.939-31.676,6.149-41.545-9.714c-3.787-5.822-4.236-12.365-4.113-19.032c2.274-12.331,7.439-22.711,19.964-28.417
			c-1.291-0.706-1.993-1.091-2.695-1.475c-0.683-0.334-1.365-0.669-2.047-1.003l0.028,0.021c-1.364-1.143-2.639-2.416-4.105-3.406
			c-5.833-3.938-11.979-7.496-15.844-13.702C170.012,324.557,168.93,322.165,167.849,319.772z M211.278,367.959
			c0.069-6.863-5.403-12.289-12.392-12.287c-6.618,0.001-12.235,5.338-12.448,11.827c-0.216,6.601,5.482,12.452,12.242,12.567
			C205.53,380.184,211.209,374.725,211.278,367.959z M211.675,391.027c0.285,3.75,2.441,5.887,6.071,5.823
			c3.718-0.066,5.857-2.58,5.709-6.183c-0.137-3.329-2.207-5.577-5.803-5.546C213.897,385.153,211.911,387.243,211.675,391.027z"/>
		<path fill-rule="evenodd" clip-rule="evenodd" fill="#2CAEA9" d="M209.595,298.525c18.792-13.666,37.588-27.324,56.366-41.007
			c1.458-1.063,2.784-2.306,4.171-3.466c2.327-1.527,4.858-2.819,6.938-4.629c3.802-3.31,7.467-4.341,12.115-1.467
			c2.921,1.806,6.375,2.751,9.59,4.081c21.247,9.012,42.494,18.023,63.738,27.034c-0.529,2.008-1.054,4.017-1.579,6.026
			c-1.116-0.272-2.296-0.396-3.342-0.839c-15.88-6.725-31.737-13.5-47.618-20.225c-1.035-0.439-2.204-0.566-3.312-0.837
			c6.45,7.323,13.44,13.544,20.368,19.834c7.708,7,15.359,14.063,23.035,21.099c-1.249,1.632-2.498,3.265-3.748,4.896
			c-0.432-0.246-0.925-0.423-1.285-0.748c-17.682-15.91-35.339-31.847-53.041-47.734c-1.878-1.686-4.011-3.087-6.525-5.002
			c-4.553,31.802-8.968,62.641-13.383,93.479c-1.752,0.043-3.504,0.085-5.257,0.127c-0.34-0.366-0.68-0.732-1.02-1.1
			c4.048-29.86,8.097-59.722,12.318-90.861c-18.903,13.554-36.57,26.221-54.237,38.889c-4.604,1.004-9.208,2.008-13.813,3.012
			C209.918,298.897,209.758,298.71,209.595,298.525z"/>
		<path fill-rule="evenodd" clip-rule="evenodd" fill="#2BACA9" d="M380.911,286.973c7.453,3.197,14.88,6.457,22.382,9.536
			c1.404,0.575,3.106,0.424,4.672,0.607c2.873,1.613,5.576,3.786,8.654,4.707c4.403,1.317,5.697,4.082,5.269,8.098
			c-0.432,4.049-1.14,8.068-1.726,12.101c-3.181,24.849-6.361,49.7-9.536,74.55c-0.273,2.139-0.5,4.285-0.749,6.427
			c-2.265-0.036-4.529-0.073-6.794-0.109c3.036-23.584,6.07-47.169,9.106-70.753c-1.569,1.053-2.351,2.296-2.869,3.642
			c-6.74,17.471-13.491,34.938-20.114,52.453c-1.335,3.528-2.151,7.252-3.207,10.885c-1.974-1.685-3.949-3.37-5.923-5.054
			c10.597-27.787,21.194-55.573,32.285-84.655c-12.808,2.323-24.574,4.458-36.342,6.592c-0.785-2.088-1.571-4.176-2.357-6.263
			c-0.021-0.347,0.099-0.635,0.359-0.864c9.163-1.339,18.328-2.678,27.491-4.017c0.078-0.647,0.156-1.293,0.233-1.94
			c-7.731-3.02-15.464-6.038-23.195-9.057C379.338,291.563,380.125,289.268,380.911,286.973z"/>
		<path fill-rule="evenodd" clip-rule="evenodd" fill="#2CADA9" d="M387.854,463.229c-6.404,1.485-12.858,2.789-19.206,4.489
			c-19.19,5.142-38.34,10.437-57.505,15.671c-0.357-2.109-0.715-4.218-1.073-6.327c0.327-0.332,0.655-0.664,0.981-0.996
			c1.463-0.215,2.968-0.276,4.382-0.667c24.402-6.735,48.761-13.634,73.219-20.165c4.475-1.194,4.864-2.657,2.859-6.424
			c-4.672-8.78-9.037-17.726-13.526-26.604c0.38-0.364,0.761-0.73,1.141-1.095c1.974,0.276,3.945,0.552,5.918,0.828
			c3.822,7.322,7.646,14.645,11.468,21.966c0.472-0.131,0.943-0.262,1.414-0.393c0.731-7.118,1.462-14.236,2.192-21.354
			c2.336,0.033,4.671,0.066,7.007,0.099c-0.668,6.246-1.336,12.491-2.004,18.738c-0.352,2.277-0.864,4.546-1.021,6.838
			c-0.51,7.42-3.423,11.005-10.454,12.958C391.643,461.346,389.78,462.402,387.854,463.229z"/>
		<path fill-rule="evenodd" clip-rule="evenodd" fill="#F9DD8C" d="M407.124,422.257c-2.336-0.032-4.671-0.065-7.008-0.099
			c-5.024-0.072-10.049-0.146-15.073-0.219c-1.973-0.276-3.944-0.552-5.918-0.828c-5.813-3.403-7.821-6.752-6.744-11.234
			c1.104-4.594,5.18-7.315,11.382-7.601c1.147-0.052,2.294-0.103,3.441-0.154c5.293,0.255,10.586,0.511,15.879,0.767
			c2.265,0.036,4.529,0.073,6.794,0.109c6.217,0.383,12.434,0.766,18.649,1.149c-4.102,6.155-4.47,12.401-0.467,18.757
			C421.081,422.688,414.104,422.473,407.124,422.257z"/>
		<path fill-rule="evenodd" clip-rule="evenodd" fill="#F9DC8B" d="M374.021,308.872c-0.261,0.229-0.38,0.517-0.358,0.866
			c-4.014,8.829-5.658,9.963-13.333,9.193c0.701-4.691-1.645-6.71-6.062-6.913c0.297-3.309,0.595-6.617,0.893-9.925l-0.054,0.017
			c0.286-0.338,0.571-0.677,0.856-1.015c1.657-5.333,3.314-10.666,4.971-15.998c0.525-2.009,1.05-4.018,1.579-6.026
			c1.636-5.002,3.269-10.005,4.9-15.01c4.719,5.594,10.537,7.675,17.679,5.519c-1.393,5.798-2.786,11.597-4.18,17.394
			c-0.788,2.295-1.575,4.59-2.36,6.887C377.044,298.863,375.533,303.868,374.021,308.872z"/>
		<path fill-rule="evenodd" clip-rule="evenodd" fill="#2DAEA9" d="M171.093,326.947c3.866,6.208,10.011,9.765,15.844,13.703
			c1.466,0.991,2.742,2.263,4.105,3.406c-6.871-1.302-13.742-2.604-21.751-4.122c2.29,12.323,4.396,23.66,6.502,34.995
			c-0.123,6.667,0.327,13.21,4.114,19.034c-0.094,1.537-0.474,3.118-0.238,4.6c2.098,13.16,4.305,26.302,6.479,39.449
			c-2.231,0.341-4.462,0.682-6.693,1.023c-5.131-29.729-10.262-59.46-15.393-89.189c-0.607-3.87-1.519-7.726-1.713-11.616
			c-0.129-2.581-0.026-5.856,1.422-7.647C165.329,328.656,168.581,328.1,171.093,326.947z"/>
		<path fill-rule="evenodd" clip-rule="evenodd" fill="#FADE8C" d="M185.164,468.006c-9.729,7.032-19.458,14.064-29.187,21.097
			c-0.775-7.155-4.556-12.02-11.201-14.7c8.784-6.754,17.567-13.506,26.35-20.261c1.846-1.08,3.61-2.351,5.557-3.198
			c3.885-1.69,7.773-1.946,11.088,1.299c3.082,3.016,3.694,6.725,1.801,10.479C188.566,464.716,186.663,466.259,185.164,468.006z"/>
		<path fill-rule="evenodd" clip-rule="evenodd" fill="#FBDD8C" d="M215.821,503.177c3.528-11.408,7.056-22.816,10.582-34.227
			c6.226,1.617,12.455,3.234,18.683,4.852c-3.741,11.988-7.481,23.978-11.22,35.97c-3.902,3.211-7.845,6.346-13.325,3.558
			C216.346,511.193,215.729,507.336,215.821,503.177z"/>
		<path fill-rule="evenodd" clip-rule="evenodd" fill="#FBDD8C" d="M415.176,454.784c4.492,3.899,9.072,7.703,13.455,11.723
			c5.616,5.152,11.075,10.478,16.601,15.729c3.02,9.406-1.59,15.656-10.275,13.896c-1.276-0.259-2.508-0.743-3.76-1.125
			c-9.172-8.498-18.343-16.997-27.514-25.494C410.59,467.005,414.299,461.999,415.176,454.784z"/>
		<path fill-rule="evenodd" clip-rule="evenodd" fill="#25DE8C" d="M144.777,474.402c6.645,2.681,10.426,7.545,11.201,14.7
			c-2.399,10.632-9.439,16.378-17.888,14.601c-7.666-1.612-12.942-8.897-12.021-16.596c0.903-7.537,7.369-13.07,15.228-12.993
			C142.458,474.126,143.617,474.302,144.777,474.402z"/>
		<path fill-rule="evenodd" clip-rule="evenodd" fill="#FADE8C" d="M287.45,521.309c-0.46-9.229-0.92-18.457-1.38-27.686
			c0.139-1.319,0.185-2.656,0.432-3.956c1.114-5.858,4.484-8.838,9.729-8.686c4.788,0.139,7.981,3.358,8.974,8.99
			c0.198,1.125,0.537,2.224,0.811,3.335c0.292,9.551,0.584,19.103,0.877,28.655C300.565,517.215,294.081,517.083,287.45,521.309z"/>
		<path fill-rule="evenodd" clip-rule="evenodd" fill="#F9DD8C" d="M454.51,300.659c-6.86,2.95-13.72,5.898-20.578,8.844
			c0.434-7.251-2.643-12.613-8.767-16.341c6.861-3.358,13.723-6.716,20.585-10.076c2.606-1.043,5.195-2.125,7.818-3.121
			c5.767-2.188,10.766-0.666,12.92,3.886c2.313,4.889,0.439,9.846-4.989,13.009C459.208,298.194,456.843,299.396,454.51,300.659z"/>
		<path fill-rule="evenodd" clip-rule="evenodd" fill="#25DE8C" d="M272.13,209.142c-13-8.466-8.246-22.792,0.308-26.579
			c5.83-2.581,11.917-1.741,16.556,2.631c4.502,4.243,5.791,10.583,3.314,16.414c-0.452,1.063-0.987,2.092-1.483,3.137
			C285.542,210.242,279.367,211.947,272.13,209.142z"/>
		<path fill-rule="evenodd" clip-rule="evenodd" fill="#25DE8C" d="M385.093,269.579c-7.142,2.157-12.96,0.075-17.679-5.519
			c-3.969-9.74-1.844-17.534,5.819-21.334c7.076-3.508,15.5-0.987,19.412,5.811c3.928,6.826,1.801,15.297-4.954,19.642
			C386.866,268.709,385.961,269.115,385.093,269.579z"/>
		<path fill-rule="evenodd" clip-rule="evenodd" fill="#25DE8C" d="M428.06,422.904c-4.003-6.355-3.635-12.602,0.467-18.757
			c5.424-4.8,11.327-6.851,18.225-3.177c7.733,4.119,10.132,13.606,5.298,20.955c-4.655,7.078-14.259,8.733-20.993,3.59
			C430.004,424.714,429.056,423.778,428.06,422.904z"/>
		<path fill-rule="evenodd" clip-rule="evenodd" fill="#26DD8C" d="M287.45,521.309c6.631-4.226,13.115-4.094,19.442,0.653
			c5.784,7.685,6.138,14.335,1.077,20.329c-4.702,5.571-12.838,6.845-18.905,2.961c-6.334-4.056-8.681-12.035-5.316-18.697
			C284.703,524.664,286.201,523.05,287.45,521.309z"/>
		<path fill-rule="evenodd" clip-rule="evenodd" fill="#28DE8D" d="M123.787,329.911c-6.614,2.516-12.716,2.117-17.77-3.37
			c-5.728-6.219-4.894-16.013,1.709-21.153c6.854-5.335,16.503-3.747,21.3,3.553c0.814,1.241,1.406,2.628,2.101,3.948
			C132.108,320.043,129.754,325.756,123.787,329.911z"/>
		<path fill-rule="evenodd" clip-rule="evenodd" fill="#2FAEA9" d="M245.086,473.802c-6.229-1.617-12.457-3.234-18.683-4.852
			c-9.416-2.483-18.834-4.968-28.254-7.449c0.934-2.143,1.87-4.287,2.806-6.432c9.777,2.444,19.553,4.888,29.329,7.33
			c0.178,1.457,0.356,2.916,0.702,5.744c1.845-2.093,2.736-3.104,3.628-4.117c15.834,4.084,31.668,8.167,47.503,12.251
			c-0.366,2.255-0.732,4.509-1.099,6.765C269.041,479.962,257.063,476.882,245.086,473.802z"/>
		<path fill-rule="evenodd" clip-rule="evenodd" fill="#28DE8D" d="M431.196,495.008c1.252,0.382,2.483,0.866,3.76,1.125
			c8.686,1.76,13.295-4.49,10.275-13.896c8.832,0.046,15.525,6.366,15.52,14.656c-0.004,7.955-7.143,14.992-15.066,14.852
			C437.06,511.592,431.031,504.628,431.196,495.008z"/>
		<path fill-rule="evenodd" clip-rule="evenodd" fill="#28DE8D" d="M215.821,503.177c-0.092,4.159,0.525,8.017,4.721,10.152
			c5.479,2.788,9.423-0.347,13.325-3.558c6.086,11.408-4.095,23.296-14.859,21.824c-6.659-0.91-11.982-6.28-12.885-12.805
			C205.203,512.143,208.926,506.149,215.821,503.177z"/>
		<path fill-rule="evenodd" clip-rule="evenodd" fill="#FBDD8C" d="M272.13,209.142c7.237,2.805,13.412,1.1,18.695-4.396
			c0.687,10.685,1.374,21.37,2.062,32.057c-6.772-4.1-13.28-3.749-19.515,1.17C272.958,228.362,272.544,218.751,272.13,209.142z"/>
		<path fill-rule="evenodd" clip-rule="evenodd" fill="#FBDD8C" d="M123.787,329.911c5.967-4.155,8.321-9.868,7.34-17.021
			c8.416,3.104,16.833,6.209,25.246,9.316c-5.133,4.572-7.529,10.096-5.924,17.013C141.562,336.116,132.674,333.014,123.787,329.911
			z"/>
		<path fill-rule="evenodd" clip-rule="evenodd" fill="#28DE8D" d="M200.955,455.069c-0.935,2.145-1.871,4.289-2.805,6.432
			c-3.162,4.495-7.218,7.21-12.986,6.505c1.5-1.747,3.403-3.29,4.409-5.285c1.893-3.754,1.281-7.463-1.801-10.479
			c-3.315-3.245-7.203-2.989-11.088-1.299c-1.947,0.848-3.711,2.118-5.557,3.198c-0.637-6.916,3.496-11.204,8.328-15.106
			c2.231-0.342,4.462-0.683,6.693-1.023c2.626,0.731,5.253,1.464,7.879,2.195c1.647,1.325,3.293,2.651,4.941,3.977
			C199.631,447.812,200.293,451.439,200.955,455.069z"/>
		<path fill-rule="evenodd" clip-rule="evenodd" fill="#26DD8C" d="M281.018,483.042c0.367-2.256,0.732-4.51,1.098-6.766
			c1.833-1.801,3.666-3.602,5.498-5.401c0.577,0.617,1.152,1.234,1.728,1.852c0.496-1.205,0.993-2.41,1.49-3.616
			c1.792-0.379,3.583-0.757,5.374-1.136c3.265,1.147,6.529,2.297,9.793,3.444c1.325,1.55,2.65,3.1,3.975,4.649
			c0.005,0.334,0.037,0.664,0.096,0.993c0.358,2.109,0.716,4.218,1.073,6.327c-1.709,3.307-3.417,6.61-5.126,9.917
			c-0.274-1.11-0.613-2.209-0.812-3.334c-0.993-5.632-4.187-8.852-8.974-8.99c-5.245-0.152-8.615,2.827-9.729,8.686
			c-0.248,1.3-0.293,2.637-0.432,3.956C284.386,490.097,282.702,486.569,281.018,483.042z"/>
		<path fill-rule="evenodd" clip-rule="evenodd" fill="#25DE8C" d="M425.165,293.162c6.124,3.728,9.2,9.09,8.767,16.341
			c-2.254,6.748-6.75,11.023-13.771,12.52c0.587-4.033,1.295-8.053,1.727-12.102c0.429-4.016-0.865-6.781-5.269-8.098
			c-3.078-0.921-5.781-3.094-8.654-4.707C412.695,291.439,418.663,291.137,425.165,293.162z"/>
		<path fill-rule="evenodd" clip-rule="evenodd" fill="#25DE8C" d="M415.176,454.784c-0.877,7.215-4.586,12.221-11.493,14.729
			c-6.583,1.201-12.058-0.393-15.827-6.284c1.925-0.827,3.787-1.884,5.789-2.438c7.031-1.953,9.944-5.538,10.454-12.958
			c0.157-2.292,0.67-4.561,1.021-6.838C411.451,443.418,414.313,448.373,415.176,454.784z"/>
		<path fill-rule="evenodd" clip-rule="evenodd" fill="#25DE8C" d="M273.373,237.973c6.234-4.919,12.742-5.27,19.515-1.17
			c4.62,4.051,6.609,9.119,5.889,15.236c-3.216-1.331-6.669-2.276-9.591-4.082c-4.648-2.874-8.313-1.842-12.115,1.467
			c-2.08,1.81-4.611,3.102-6.938,4.629C267.463,247.937,269.555,242.78,273.373,237.973z"/>
		<path fill-rule="evenodd" clip-rule="evenodd" fill="#24DD8B" d="M150.449,339.218c-1.605-6.917,0.791-12.44,5.924-17.013
			c3.828-0.815,7.653-1.628,11.477-2.437c1.081,2.396,2.163,4.788,3.244,7.179c-2.513,1.152-5.765,1.708-7.322,3.635
			c-1.449,1.791-1.552,5.066-1.422,7.647c0.194,3.891,1.106,7.746,1.713,11.616C157.294,349.16,153.019,345.281,150.449,339.218z"/>
		<path fill-rule="evenodd" clip-rule="evenodd" fill="#2FDE8F" d="M454.51,300.659c2.333-1.262,4.698-2.464,6.989-3.799
			c5.429-3.163,7.302-8.12,4.989-13.009c-2.154-4.552-7.153-6.074-12.92-3.886c-2.623,0.996-5.212,2.078-7.818,3.121
			c2.828-8.521,10.382-12.876,18.101-10.434c8.103,2.564,12.507,10.185,10.336,17.883
			C471.748,299.178,463.813,303.26,454.51,300.659z"/>
		<path fill-rule="evenodd" clip-rule="evenodd" fill="#2CAEA9" d="M199.619,314.228c-1.963-1.366-3.926-2.731-5.892-4.097
			c4.715-3.419,9.433-6.839,14.151-10.259l0.333,0.335c-1.073,3.29-2.145,6.581-3.218,9.871
			C203.202,311.461,201.41,312.845,199.619,314.228z"/>
		<path fill-rule="evenodd" clip-rule="evenodd" fill="#2CAEA9" d="M207.879,299.872c0.573-0.448,1.146-0.897,1.717-1.347
			c0.162,0.185,0.322,0.372,0.479,0.563c-0.621,0.373-1.242,0.746-1.863,1.119L207.879,299.872z"/>
		<path fill-rule="evenodd" clip-rule="evenodd" fill="#81DADC" d="M194.027,440.207c-2.626-0.731-5.253-1.464-7.879-2.195
			c-2.174-13.147-4.381-26.289-6.479-39.449c-0.236-1.481,0.145-3.063,0.238-4.6c9.868,15.861,30.007,15.651,41.544,9.712
			c1.439-0.741,3.011-1.227,4.522-1.831c-0.912,1.506-1.638,3.172-2.767,4.491C213.522,417.661,203.764,428.924,194.027,440.207z"/>
		<path fill-rule="evenodd" clip-rule="evenodd" fill="#22DC8B" d="M208.211,300.207c0.621-0.373,1.242-0.746,1.863-1.119
			c4.605-1.004,9.209-2.008,13.814-3.012c6.811,3.581,11.181,8.671,10.458,16.91c-1.534,6.687-5.482,10.941-12.345,12.262
			c-2.664-0.08-5.329-0.161-7.992-0.241l0.068,0.061c-0.359-0.347-0.718-0.693-1.077-1.04c-1.998-1.542-3.996-3.082-5.994-4.625
			c-0.671-3.108-1.343-6.216-2.014-9.324C206.066,306.788,207.139,303.497,208.211,300.207z"/>
		<path fill-rule="evenodd" clip-rule="evenodd" fill="#2CAEA9" d="M194.027,440.207c9.736-11.283,19.495-22.546,29.18-33.872
			c1.129-1.319,1.854-2.985,2.767-4.491c2.375-2.922,4.751-5.844,7.127-8.766c0.634-0.696,1.269-1.389,1.903-2.083
			c0,0-0.03,0.025-0.03,0.024c1.365-1.006,2.94-1.822,4.057-3.053c5.377-5.929,10.63-11.97,15.927-17.972
			c1.363,1.726,2.725,3.452,4.087,5.178c-13.107,15.195-26.181,30.42-39.336,45.573c-6.839,7.878-13.824,15.631-20.742,23.439
			C197.321,442.858,195.674,441.532,194.027,440.207z"/>
		<path fill-rule="evenodd" clip-rule="evenodd" fill="#F7F7F7" d="M211.278,367.959c-0.069,6.766-5.748,12.225-12.597,12.107
			c-6.76-0.115-12.458-5.966-12.242-12.567c0.213-6.489,5.83-11.826,12.448-11.827C205.875,355.67,211.347,361.096,211.278,367.959z
			"/>
		<path fill-rule="evenodd" clip-rule="evenodd" fill="#7FD8DB" d="M175.793,374.929c-2.106-11.335-4.212-22.672-6.502-34.995
			c8.01,1.518,14.88,2.82,21.751,4.122l-0.028-0.021c0.682,0.335,1.364,0.669,2.047,1.003c0.703,0.384,1.405,0.769,2.695,1.475
			C183.232,352.218,178.068,362.598,175.793,374.929z"/>
		<path fill-rule="evenodd" clip-rule="evenodd" fill="#81DADC" d="M254.958,369.994c-5.297,6.002-10.55,12.043-15.927,17.973
			c-1.117,1.231-2.692,2.046-4.057,3.053c2.596-7.115,4.55-14.299,2.364-21.93c2.247-0.929,4.492-1.857,6.738-2.787
			c0.389-0.407,0.778-0.814,1.166-1.222c0.323-0.66,0.646-1.32,0.969-1.979c0.093-1.328,0.187-2.656,0.28-3.983
			c1.32,0.274,2.639,0.549,3.956,0.823c1.225,1.43,2.451,2.861,3.678,4.291C254.404,366.153,254.681,368.073,254.958,369.994z"/>
		<path fill-rule="evenodd" clip-rule="evenodd" fill="#76C7C4" d="M250.451,359.941c-1.319-0.274-2.639-0.549-3.958-0.823
			c-2.286-2.801-4.378-5.79-6.893-8.366c-8.449-8.661-17.048-17.176-25.59-25.746c2.664,0.08,5.328,0.161,7.994,0.24
			c1.87,2.648,3.563,5.444,5.638,7.919C235.175,342.148,242.837,351.024,250.451,359.941z"/>
		<path fill-rule="evenodd" clip-rule="evenodd" fill="#F4F4F4" d="M211.675,391.027c0.236-3.784,2.222-5.874,5.978-5.906
			c3.596-0.031,5.666,2.217,5.803,5.546c0.148,3.603-1.991,6.116-5.709,6.183C214.117,396.914,211.96,394.777,211.675,391.027z"/>
		<path fill-rule="evenodd" clip-rule="evenodd" fill="#7FD8DB" d="M204.994,310.078c0.671,3.108,1.343,6.216,2.014,9.324
			c-2.462-1.723-4.924-3.448-7.387-5.173C201.41,312.845,203.202,311.461,204.994,310.078z"/>
		<path fill-rule="evenodd" clip-rule="evenodd" fill="#76C7C4" d="M244.077,366.302c-2.246,0.929-4.492,1.858-6.738,2.787
			C239.584,368.16,241.831,367.231,244.077,366.302z"/>
		<path fill-rule="evenodd" clip-rule="evenodd" fill="#76C7C4" d="M246.212,363.102c-0.323,0.659-0.646,1.319-0.969,1.979
			C245.566,364.421,245.889,363.761,246.212,363.102z"/>
		<path fill-rule="evenodd" clip-rule="evenodd" fill="#81DADC" d="M235.004,390.995c-0.634,0.694-1.269,1.388-1.903,2.083
			C233.735,392.383,234.37,391.689,235.004,390.995z"/>
		<path fill-rule="evenodd" clip-rule="evenodd" fill="#2DAEA9" d="M193.063,345.038c-0.683-0.334-1.365-0.668-2.047-1.003
			C191.697,344.369,192.379,344.704,193.063,345.038z"/>
		<path fill-rule="evenodd" clip-rule="evenodd" fill="#76C7C4" d="M213.001,324.026c0.359,0.347,0.718,0.693,1.077,1.04
			C213.719,324.72,213.36,324.373,213.001,324.026z"/>
		<path fill-rule="evenodd" clip-rule="evenodd" fill="#81DBDE" d="M272.084,349.02c4.415-30.838,8.83-61.677,13.382-93.479
			c2.515,1.915,4.647,3.316,6.525,5.002c17.702,15.887,35.359,31.825,53.041,47.734c0.36,0.324,0.854,0.502,1.283,0.748
			c-0.071,1.645-0.141,3.291-0.211,4.937c-11.549,3.43-23.327,5.748-34.235,11.593c-12.839,6.882-25.886,12.921-31.766,27.571
			C277.431,351.757,274.757,350.389,272.084,349.02z"/>
		<path fill-rule="evenodd" clip-rule="evenodd" fill="#82DCDE" d="M234.347,312.985c0.723-8.239-3.647-13.329-10.458-16.91
			c17.667-12.668,35.333-25.335,54.236-38.889c-4.221,31.139-8.27,61-12.316,90.863c-3.292-3.712-6.564-7.443-9.882-11.133
			C248.746,328.929,241.542,320.961,234.347,312.985z"/>
		<path fill-rule="evenodd" clip-rule="evenodd" fill="#FADD8B" d="M234.347,312.985c7.194,7.976,14.398,15.943,21.58,23.931
			c3.317,3.69,6.59,7.421,9.882,11.133c0.338,0.365,0.679,0.731,1.019,1.098c2.042,2.588,4.274,5.051,6.08,7.795
			c2.948,4.478,2.236,9.313-1.524,12.521c-3.48,2.968-8.89,2.657-12.655-0.78c-1.576-1.438-3.07-2.964-4.601-4.451
			c-1.227-1.43-2.454-2.861-3.678-4.291c-7.611-8.917-15.273-17.793-22.806-26.776c-2.076-2.475-3.768-5.271-5.638-7.919
			C228.865,323.927,232.813,319.672,234.347,312.985z"/>
		<path fill-rule="evenodd" clip-rule="evenodd" fill="#3F87BB" d="M360.935,285.097c-1.656,5.333-3.313,10.666-4.97,15.998
			c-0.285,0.338-0.571,0.676-0.857,1.015l0.054-0.017c-1.698,0.679-3.396,1.358-5.095,2.036
			c-7.676-7.036-15.327-14.099-23.035-21.099c-6.928-6.29-13.918-12.511-20.368-19.834c1.107,0.271,2.276,0.398,3.312,0.837
			c15.881,6.725,31.738,13.5,47.618,20.225C358.639,284.701,359.818,284.825,360.935,285.097z"/>
		<path fill-rule="evenodd" clip-rule="evenodd" fill="#29DB8B" d="M254.126,364.232c1.531,1.487,3.025,3.014,4.601,4.451
			c3.766,3.437,9.175,3.748,12.655,0.78c3.761-3.208,4.472-8.044,1.524-12.521c-1.806-2.744-4.039-5.207-6.08-7.795
			c1.752-0.042,3.504-0.084,5.257-0.127c2.673,1.369,5.347,2.737,8.02,4.105c-0.791,1.769-1.817,3.475-2.313,5.323
			c-0.582,2.171-1.532,4.856-0.726,6.568c0.517,1.1,3.912,0.845,6.017,1.196c-0.34,1.611-0.68,3.223-1.019,4.833
			c-2.326,2.309-4.652,4.619-6.978,6.928c-2.034,0.368-4.069,0.735-6.103,1.104c-3.313-1.301-6.625-2.603-9.937-3.904
			c-1.362-1.726-2.724-3.452-4.087-5.178C254.681,368.073,254.404,366.153,254.126,364.232z"/>
		<path fill-rule="evenodd" clip-rule="evenodd" fill="#29DB8B" d="M350.066,304.129c1.698-0.678,3.396-1.356,5.095-2.036
			c-0.298,3.309-0.596,6.617-0.894,9.925c-2.721,0.647-5.441,1.295-8.161,1.943c0.069-1.646,0.139-3.292,0.21-4.937
			C347.568,307.394,348.817,305.761,350.066,304.129z"/>
		<path fill-rule="evenodd" clip-rule="evenodd" fill="#3E86BB" d="M376.02,315.999c11.768-2.134,23.534-4.27,36.342-6.592
			c-11.091,29.082-21.688,56.868-32.285,84.655c-1.64-0.372-3.279-0.743-4.919-1.114c-3.329-21.263-6.658-42.526-9.986-63.79
			C371.355,326.888,374.276,321.929,376.02,315.999z"/>
		<path fill-rule="evenodd" clip-rule="evenodd" fill="#3F87BB" d="M403.083,402.889c-5.293-0.256-10.586-0.512-15.88-0.768
			c-0.402-1.001-0.803-2.004-1.204-3.006c1.056-3.633,1.872-7.357,3.207-10.885c6.623-17.516,13.374-34.982,20.114-52.453
			c0.519-1.345,1.3-2.588,2.869-3.642C409.153,355.72,406.119,379.304,403.083,402.889z"/>
		<path fill-rule="evenodd" clip-rule="evenodd" fill="#24DD8B" d="M385.999,399.115c0.401,1.002,0.802,2.005,1.204,3.006
			c-1.146,0.053-2.293,0.104-3.44,0.155c-6.202,0.285-10.277,3.007-11.382,7.601c-1.077,4.482,0.932,7.831,6.744,11.234
			c-0.38,0.364-0.761,0.73-1.14,1.093c-3.964-0.341-7.929-0.68-11.894-1.02c-1.35-1.08-2.7-2.158-4.051-3.237
			c-1.015-3.941-2.03-7.882-3.045-11.823c0.693-2.046,1.385-4.09,2.076-6.136c2.682-2.276,5.363-4.554,8.044-6.831
			c2.015-0.07,4.027-0.141,6.042-0.211c1.639,0.372,3.278,0.743,4.918,1.115C382.05,395.746,384.025,397.431,385.999,399.115z"/>
		<path fill-rule="evenodd" clip-rule="evenodd" fill="#3F87BB" d="M374.021,308.872c1.512-5.004,3.022-10.009,4.531-15.013
			c7.729,3.018,15.462,6.036,23.193,9.056c-0.077,0.646-0.155,1.293-0.233,1.94C392.35,306.194,383.185,307.533,374.021,308.872z"/>
		<path fill-rule="evenodd" clip-rule="evenodd" fill="#29DB8B" d="M376.02,315.999c-1.743,5.93-4.664,10.889-10.85,13.157
			c-2.062,0.289-4.123,0.579-6.184,0.869c-1.948-0.735-3.896-1.47-5.846-2.206c2.396-2.963,4.794-5.926,7.189-8.889
			c7.675,0.77,9.319-0.364,13.333-9.193C374.448,311.823,375.234,313.911,376.02,315.999z"/>
		<path fill-rule="evenodd" clip-rule="evenodd" fill="#3E86BB" d="M366.092,421.187c3.965,0.338,7.93,0.677,11.894,1.018
			c4.488,8.88,8.854,17.825,13.525,26.605c2.005,3.767,1.615,5.229-2.859,6.424c-24.458,6.531-48.816,13.43-73.219,20.165
			c-1.414,0.391-2.919,0.452-4.382,0.667l0.017,0.021c3.45-3.303,6.925-6.58,10.347-9.911
			c14.017-13.646,28.033-27.291,41.992-40.996C364.527,424.079,365.207,422.529,366.092,421.187z"/>
		<path fill-rule="evenodd" clip-rule="evenodd" fill="#3E86BB" d="M385.043,421.939c5.024,0.073,10.049,0.146,15.073,0.219
			c-0.729,7.118-1.46,14.236-2.191,21.354c-0.471,0.131-0.942,0.262-1.414,0.393C392.688,436.584,388.865,429.262,385.043,421.939z"
			/>
		<path fill-rule="evenodd" clip-rule="evenodd" fill="#3E86BB" d="M310.069,477.062c-0.059-0.329-0.091-0.659-0.095-0.993
			c0.365,0.007,0.729,0.013,1.093,0.019l-0.017-0.021C310.725,476.397,310.396,476.729,310.069,477.062z"/>
		<path fill-rule="evenodd" clip-rule="evenodd" fill="#2E2F2F" d="M360.33,318.931c-2.396,2.963-4.793,5.925-7.19,8.89
			c-6.213,6.893-12.425,13.784-18.636,20.675c0.488,0.49,2.341,1.853,3.995,3.423c7.624,7.238,14.216,15.259,13.872,26.44
			c-0.171,5.526-1.994,11.001-3.068,16.5c-1.074,2.019-2.146,4.035-3.221,6.054c-8.918,13.108-21.811,13.967-35.6,11.165
			c-13.057-2.652-21.349-10.546-23.506-23.939c-0.84-5.217-0.733-10.587-1.058-15.887c0.578-1.958,1.155-3.915,1.982-6.714
			c-2.185,0.307-3.501,0.491-4.817,0.676c-2.105-0.352-5.5-0.097-6.018-1.196c-0.806-1.711,0.145-4.397,0.726-6.568
			c0.496-1.848,1.521-3.554,2.313-5.323c5.88-14.65,18.927-20.688,31.766-27.571c10.908-5.846,22.687-8.163,34.235-11.593
			c2.721-0.647,5.441-1.295,8.162-1.943C358.686,312.221,361.031,314.24,360.33,318.931z M327.084,369.992
			c-0.069-6.554-5.62-12.14-12.021-12.097c-6.816,0.045-12.452,5.685-12.367,12.376c0.084,6.608,5.487,12.005,12.065,12.05
			C321.52,382.368,327.156,376.728,327.084,369.992z M338.304,397.085c-0.177-3.778-2.309-5.872-5.944-5.906
			c-3.744-0.036-5.947,2.428-5.938,5.974c0.011,3.543,2.142,5.924,5.982,5.858C336.142,402.948,338.165,400.915,338.304,397.085z"/>
		<path fill-rule="evenodd" clip-rule="evenodd" fill="#29DB8B" d="M355.107,302.11c0.286-0.339,0.572-0.677,0.857-1.015
			C355.679,301.433,355.394,301.772,355.107,302.11z"/>
		<path fill-rule="evenodd" clip-rule="evenodd" fill="#81DBDE" d="M259.045,375.172c3.313,1.301,6.625,2.603,9.938,3.904
			c3.505,15.293,7.106,30.566,10.453,45.893c0.947,4.342,1.149,8.846,1.693,13.274c-1.121-0.987-2.2-2.028-3.371-2.953
			c-17.205-13.601-39.466-6.169-44.832,14.992c-1.015,4.005-1.769,8.077-2.643,12.117c-9.776-2.443-19.552-4.887-29.33-7.331
			c-0.662-3.63-1.324-7.258-1.987-10.886c6.917-7.808,13.902-15.561,20.741-23.438C232.865,405.593,245.938,390.367,259.045,375.172
			z"/>
		<path fill-rule="evenodd" clip-rule="evenodd" fill="#81DADC" d="M287.614,470.875c-1.833,1.8-3.666,3.601-5.498,5.401
			c-15.834-4.083-31.668-8.166-47.501-12.249c2.944-7.201,7.366-13.254,13.508-18.119c8.74-6.923,17.156-7.094,24.123,1.365
			C278.176,454.476,282.551,462.958,287.614,470.875z"/>
		<path fill-rule="evenodd" clip-rule="evenodd" fill="#2B3030" d="M287.614,470.875c-5.063-7.917-9.438-16.399-15.369-23.602
			c-6.967-8.459-15.382-8.288-24.123-1.365c-6.142,4.865-10.564,10.918-13.508,18.119c-0.893,1.012-1.784,2.023-3.629,4.116
			c-0.345-2.828-0.523-4.287-0.702-5.744c0.875-4.039,1.628-8.111,2.643-12.116c5.366-21.161,27.627-28.593,44.832-14.992
			c1.17,0.925,2.25,1.966,3.369,2.952c2.364,4.604,5.417,8.999,6.912,13.873c1.668,5.438,1.922,11.311,2.792,16.994
			c-0.496,1.206-0.993,2.411-1.489,3.616C288.766,472.109,288.191,471.492,287.614,470.875z"/>
		<path fill-rule="evenodd" clip-rule="evenodd" fill="#81DBDE" d="M285.918,372.251c0.325,5.3,0.218,10.67,1.058,15.887
			c2.157,13.393,10.449,21.287,23.506,23.939c13.789,2.802,26.682,1.943,35.6-11.164c4.304,1.737,8.608,3.474,12.914,5.211
			c1.015,3.941,2.03,7.882,3.045,11.824c-4.874,4.47-9.838,8.843-14.605,13.422c-13.854,13.306-27.63,26.693-41.437,40.049
			c-3.265-1.147-6.529-2.297-9.794-3.443c-3.894-16.973-7.729-33.958-11.698-50.913c-3.054-13.05-6.275-26.061-9.421-39.089
			c2.326-2.309,4.652-4.619,6.978-6.928C283.348,371.447,284.633,371.849,285.918,372.251z"/>
		<path fill-rule="evenodd" clip-rule="evenodd" fill="#2CADA9" d="M275.085,377.973c3.146,13.028,6.368,26.04,9.421,39.089
			c3.969,16.955,7.805,33.94,11.698,50.913c-1.79,0.378-3.581,0.756-5.373,1.135c-0.87-5.684-1.125-11.556-2.792-16.994
			c-1.495-4.874-4.547-9.269-6.912-13.873c-0.542-4.428-0.745-8.932-1.692-13.273c-3.347-15.327-6.948-30.6-10.453-45.893
			C271.017,378.708,273.051,378.341,275.085,377.973z"/>
		<path fill-rule="evenodd" clip-rule="evenodd" fill="#2BACA9" d="M305.999,471.419c13.807-13.355,27.582-26.743,41.437-40.049
			c4.768-4.579,9.731-8.952,14.605-13.422c1.351,1.078,2.701,2.156,4.051,3.236c-0.885,1.345-1.564,2.895-2.686,3.995
			c-13.959,13.705-27.976,27.351-41.992,40.996c-3.422,3.331-6.896,6.608-10.347,9.911c-0.363-0.006-0.728-0.012-1.093-0.019
			C308.649,474.519,307.324,472.969,305.999,471.419z"/>
		<path fill-rule="evenodd" clip-rule="evenodd" fill="#2BACA9" d="M285.918,372.251c-1.285-0.402-2.57-0.804-3.855-1.206
			c0.339-1.61,0.679-3.222,1.019-4.833c1.316-0.185,2.633-0.369,4.818-0.676C287.074,368.336,286.496,370.293,285.918,372.251z"/>
		<path fill-rule="evenodd" clip-rule="evenodd" fill="#2BACA9" d="M358.986,330.025c2.061-0.29,4.122-0.58,6.184-0.869
			c3.329,21.265,6.658,42.528,9.987,63.791c-2.014,0.069-4.026,0.14-6.041,0.209c-1.503-8.955-3.064-17.899-4.496-26.864
			C362.69,354.212,360.859,342.115,358.986,330.025z"/>
		<path fill-rule="evenodd" clip-rule="evenodd" fill="#81DADC" d="M358.986,330.025c1.873,12.09,3.704,24.187,5.634,36.267
			c1.432,8.965,2.993,17.909,4.496,26.864c-2.681,2.278-5.362,4.556-8.044,6.833c-3.924-1.71-7.847-3.42-11.77-5.131
			c1.074-5.498,2.897-10.973,3.068-16.5c0.344-11.181-6.248-19.202-13.872-26.44c-1.654-1.57-3.507-2.933-3.995-3.423
			c6.211-6.891,12.423-13.782,18.636-20.675C355.09,328.556,357.038,329.29,358.986,330.025z"/>
		<path fill-rule="evenodd" clip-rule="evenodd" fill="#2DAEA9" d="M349.303,394.858c3.923,1.711,7.846,3.421,11.77,5.131
			c-0.691,2.045-1.383,4.089-2.076,6.135c-4.306-1.737-8.61-3.474-12.914-5.211C347.156,398.894,348.229,396.877,349.303,394.858z"
			/>
		<path fill-rule="evenodd" clip-rule="evenodd" fill="#F4F4F4" d="M327.084,369.992c0.072,6.736-5.564,12.376-12.322,12.329
			c-6.578-0.045-11.981-5.442-12.065-12.05c-0.085-6.691,5.551-12.331,12.367-12.376
			C321.464,357.852,327.015,363.438,327.084,369.992z"/>
		<path fill-rule="evenodd" clip-rule="evenodd" fill="#F4F4F4" d="M338.304,397.085c-0.139,3.83-2.162,5.863-5.899,5.927
			c-3.841,0.065-5.972-2.315-5.982-5.858c-0.01-3.546,2.193-6.01,5.938-5.974C335.995,391.213,338.127,393.307,338.304,397.085z"/>
	</g>
</g>
</svg>
