<?xml version="1.0" encoding="utf-8"?>
<!-- Generator: Adobe Illustrator 16.0.3, SVG Export Plug-In . SVG Version: 6.00 Build 0)  -->
<!DOCTYPE svg PUBLIC "-//W3C//DTD SVG 1.1//EN" "http://www.w3.org/Graphics/SVG/1.1/DTD/svg11.dtd">
<svg version="1.1" id="Capa_1" xmlns="http://www.w3.org/2000/svg" xmlns:xlink="http://www.w3.org/1999/xlink" x="0px" y="0px"
	 width="612px" height="792px" viewBox="0 0 612 792" enable-background="new 0 0 612 792" xml:space="preserve">
<g>
	<g>
		<path fill-rule="evenodd" clip-rule="evenodd" fill="#FEFEFE" d="M51.038,654.116c0-170.971,0-341.943,0-513.016
			c170.892,0,341.822,0,512.915,0c0,170.938,0,341.978,0,513.016C393.07,654.116,222.073,654.116,51.038,654.116z M281.018,483.041
			c1.684,3.528,3.368,7.056,5.052,10.584c0.694,10.65,1.388,21.3,2.083,31.95c-1.135,1.62-2.479,3.135-3.367,4.882
			c-3.379,6.638-1.113,14.623,5.173,18.729c6.022,3.932,14.163,2.736,18.918-2.781c5.48-6.355,4.801-13.634-1.992-21.321
			c-0.289-10.591-0.579-21.183-0.868-31.775c1.708-3.307,3.417-6.612,5.126-9.919c19.165-5.234,38.314-10.53,57.505-15.671
			c6.348-1.7,12.802-3.004,19.208-4.487c3.77,5.891,9.244,7.485,15.828,6.28c9.171,8.5,18.342,16.999,27.514,25.499
			c-0.167,9.617,5.863,16.582,14.488,16.734c7.923,0.14,15.062-6.896,15.066-14.852c0.005-8.29-6.689-14.612-15.52-14.656
			c-5.526-5.252-10.985-10.577-16.602-15.729c-4.383-4.02-8.963-7.823-13.456-11.724c-0.861-6.411-3.724-11.365-10.055-13.788
			c0.669-6.247,1.337-12.492,2.003-18.741c7.715,0.207,15.429,0.414,23.142,0.62c0.814,0.827,1.604,1.679,2.445,2.476
			c4.644,4.395,10.485,5.436,16.129,2.806c5.697-2.656,8.552-7.313,8.748-13.462c0.186-5.771-3.839-11.225-9.428-13.524
			c-5.969-2.456-11.023-0.366-15.847,3.037c-7.479-0.402-14.957-0.805-22.435-1.208c0.248-2.142,0.475-4.287,0.748-6.427
			c3.175-24.851,6.355-49.7,9.534-74.548c7.021-1.497,11.517-5.774,13.771-12.516c6.859-2.949,13.719-5.899,20.579-8.848
			c9.306,2.599,17.238-1.482,19.677-10.125c2.171-7.698-2.233-15.32-10.336-17.883c-7.718-2.442-15.27,1.911-18.104,10.435
			c-6.86,3.358-13.721,6.717-20.581,10.075c-6.502-2.025-12.471-1.723-17.202,3.955c-1.564-0.185-3.268-0.033-4.671-0.608
			c-7.502-3.079-14.929-6.338-22.382-9.537c0.465-2.079,0.884-4.169,1.402-6.234c1.233-4.913,2.515-9.814,3.776-14.721l-0.046,0.023
			c0.334-0.237,0.667-0.473,1-0.709c1.087-0.767,2.239-1.455,3.248-2.313c5.84-4.959,7.007-13.095,2.818-19.337
			c-4.173-6.219-12.158-8.305-18.911-4.938c-7.993,3.985-9.974,12.487-5.172,22.202c-2.17,6.042-4.341,12.085-6.51,18.127
			c-21.248-9.011-42.495-18.023-63.741-27.033c0.722-6.119-1.274-11.187-5.891-15.242c-0.694-11.949-1.388-23.898-2.083-35.847
			c0.608-0.992,1.258-1.961,1.818-2.98c4.26-7.757,1.206-16.942-6.826-20.577c-7.965-3.605-16.876,0.273-19.822,8.689
			c-2.6,7.429,0.664,12.875,6.097,17.541c0.433,11.449,0.867,22.897,1.3,34.347c-3.813,4.811-5.91,9.967-3.238,16.083
			c-1.259,1.06-2.459,2.2-3.785,3.168c-15.439,11.285-30.898,22.544-46.351,33.811c-13.205-2.186-20.23,2.835-20.994,15.002
			c-1.76,1.365-3.52,2.729-5.28,4.094c-5.482-1.082-10.923-2.736-16.454-3.12c-9.197-0.638-12.259,3.86-9.419,12.761
			c-3.823,0.811-7.647,1.62-11.471,2.431c-11.297-4.053-22.595-8.104-33.892-12.156c-1.337-1.686-2.485-3.574-4.045-5.02
			c-5.657-5.24-14.33-5.034-19.847,0.31c-5.48,5.307-5.875,14.016-0.901,19.865c4.854,5.708,11.063,6.518,19.877,2.593
			c10.961,3.811,21.921,7.621,32.881,11.431c2.571,6.06,6.845,9.936,13.61,10.621c5.131,29.73,10.263,59.461,15.393,89.191
			c-4.833,3.902-8.965,8.191-8.328,15.109c-10.779,8.099-21.558,16.197-32.337,24.296c-1.155-0.112-2.309-0.309-3.465-0.324
			c-8.015-0.107-14.595,5.682-15.275,13.399c-0.684,7.754,4.722,14.853,12.379,16.257c8.239,1.511,14.908-3.968,17.571-14.436
			c11.721-8.443,23.441-16.886,35.16-25.33c5.769,0.702,9.828-2.009,12.991-6.509c9.418,2.484,18.837,4.969,28.255,7.452
			c-3.529,11.409-7.057,22.819-10.585,34.228c-6.85,2.951-10.389,8.442-9.739,15.116c0.621,6.389,5.438,11.723,11.952,13.084
			c5.577,1.165,10.235-0.734,13.872-4.887c4.415-5.043,4.838-10.733,1.959-16.722c3.74-11.989,7.48-23.979,11.221-35.969
			C257.063,476.881,269.041,479.961,281.018,483.041z"/>
		<path fill-rule="evenodd" clip-rule="evenodd" fill="#2E2F2F" d="M167.847,319.779c-2.837-8.911,0.225-13.409,9.422-12.771
			c5.53,0.384,10.972,2.038,16.457,3.12c2.457,1.517,4.911,3.034,7.365,4.551c1.977,1.401,3.954,2.801,5.93,4.204
			c10.876,10.605,21.805,21.155,32.588,31.853c2.553,2.533,4.613,5.563,6.9,8.364c-0.096,1.336-0.191,2.671-0.287,4.008
			c-0.319,0.654-0.639,1.309-0.958,1.963c-1.395,0.922-2.791,1.845-4.185,2.767c-1.242,0.425-2.484,0.851-3.726,1.276
			c2.135,7.618,0.241,14.799-2.377,21.903l0.028-0.022c-0.635,0.696-1.271,1.393-1.907,2.09c-2.375,2.92-4.749,5.838-7.123,8.758
			c-1.51,0.604-3.082,1.09-4.521,1.831c-11.537,5.939-31.676,6.15-41.545-9.713c-3.787-5.823-4.236-12.366-4.113-19.033
			c2.274-12.331,7.439-22.711,19.964-28.417c-1.289-0.705-1.992-1.09-2.695-1.475c-0.683-0.334-1.365-0.668-2.047-1.003l0.028,0.021
			c-1.364-1.143-2.64-2.417-4.105-3.406c-5.833-3.938-11.979-7.496-15.846-13.7C170.01,324.56,168.928,322.169,167.847,319.779z
			 M199.05,380.065c6.855-0.08,12.35-5.686,12.228-12.476c-0.122-6.818-5.795-12.114-12.762-11.915
			c-6.615,0.188-12.119,5.744-12.083,12.193C186.472,374.519,192.291,380.146,199.05,380.065z M211.684,390.607
			c0.089,3.904,2.164,6.133,5.783,6.248c3.717,0.117,5.961-2.297,5.988-5.909c0.025-3.343-1.935-5.676-5.52-5.813
			C214.199,384.992,212.089,386.964,211.684,390.607z"/>
		<path fill-rule="evenodd" clip-rule="evenodd" fill="#2CAEA9" d="M219.997,291.032c15.453-11.266,30.912-22.525,46.351-33.811
			c1.326-0.969,2.526-2.108,3.785-3.169c2.327-1.527,4.857-2.82,6.938-4.63c3.802-3.309,7.467-4.34,12.115-1.466
			c2.921,1.806,6.375,2.751,9.59,4.082c21.248,9.011,42.495,18.022,63.74,27.033c-0.528,2.008-1.055,4.017-1.579,6.026
			c-1.117-0.272-2.297-0.396-3.343-0.839c-15.879-6.725-31.737-13.5-47.618-20.225c-1.035-0.439-2.204-0.566-3.312-0.837
			c6.451,7.324,13.441,13.544,20.367,19.834c7.709,7,15.36,14.064,23.036,21.099c-1.249,1.632-2.498,3.264-3.747,4.896
			c-0.432-0.247-0.925-0.423-1.285-0.748c-17.683-15.911-35.34-31.847-53.042-47.734c-1.878-1.686-4.011-3.088-6.526-5.003
			c-4.553,31.803-8.968,62.641-13.383,93.48c-1.752,0.043-3.504,0.085-5.256,0.127c-0.34-0.366-0.681-0.732-1.021-1.1
			c4.056-29.86,8.111-59.722,12.361-91.016c-18.412,13.326-35.489,25.684-52.566,38.042
			C223.734,293.726,221.865,292.379,219.997,291.032z"/>
		<path fill-rule="evenodd" clip-rule="evenodd" fill="#2BACA9" d="M380.911,286.972c7.453,3.198,14.88,6.458,22.382,9.537
			c1.403,0.575,3.106,0.424,4.672,0.607c2.873,1.613,5.576,3.786,8.654,4.707c4.403,1.317,5.697,4.081,5.269,8.098
			c-0.432,4.049-1.14,8.068-1.726,12.101c-3.181,24.85-6.361,49.7-9.536,74.55c-0.273,2.14-0.5,4.285-0.748,6.427
			c-2.266-0.036-4.53-0.072-6.795-0.108c3.036-23.585,6.07-47.17,9.106-70.754c-1.574,1.061-2.352,2.3-2.869,3.642
			c-6.74,17.471-13.491,34.938-20.114,52.453c-1.335,3.528-2.152,7.253-3.208,10.886c-1.974-1.685-3.948-3.37-5.922-5.054
			c10.597-27.787,21.194-55.574,32.284-84.656c-12.807,2.323-24.573,4.458-36.341,6.592c-0.785-2.088-1.572-4.176-2.358-6.264
			c-0.021-0.347,0.099-0.634,0.359-0.863c9.164-1.339,18.329-2.678,27.492-4.016c0.078-0.648,0.156-1.294,0.234-1.941
			c-7.733-3.02-15.466-6.039-23.198-9.058C379.337,291.563,380.124,289.267,380.911,286.972z"/>
		<path fill-rule="evenodd" clip-rule="evenodd" fill="#2CADA9" d="M407.125,422.257c-0.668,6.246-1.336,12.491-2.005,18.738
			c-0.352,2.277-0.864,4.546-1.021,6.838c-0.51,7.42-3.423,11.005-10.454,12.957c-2.002,0.556-3.864,1.612-5.791,2.438
			c-6.404,1.485-12.858,2.789-19.206,4.489c-19.19,5.141-38.34,10.437-57.505,15.671c-0.357-2.11-0.715-4.219-1.072-6.327
			c0.326-0.332,0.654-0.664,0.98-0.996c1.463-0.215,2.968-0.276,4.382-0.667c24.402-6.735,48.762-13.634,73.219-20.165
			c4.475-1.194,4.863-2.658,2.859-6.424c-4.672-8.781-9.036-17.726-13.525-26.604c0.38-0.363,0.76-0.729,1.14-1.093
			c1.973,0.275,3.944,0.551,5.918,0.827c3.822,7.321,7.645,14.644,11.468,21.966c0.471-0.129,0.942-0.258,1.414-0.387
			c0.73-7.121,1.462-14.241,2.192-21.36C402.453,422.19,404.789,422.224,407.125,422.257z"/>
		<path fill-rule="evenodd" clip-rule="evenodd" fill="#F9DD8C" d="M385.043,421.939c-1.974-0.276-3.945-0.552-5.919-0.827
			c-5.813-3.403-7.821-6.752-6.744-11.236c1.104-4.596,5.177-7.316,11.382-7.601c1.147-0.052,2.294-0.103,3.441-0.154
			c5.294,0.256,10.587,0.512,15.88,0.769c2.265,0.036,4.529,0.072,6.795,0.108c7.478,0.403,14.956,0.806,22.435,1.208
			c-4.434,5.813-5.491,11.993-2.048,18.668c-7.713-0.206-15.427-0.413-23.141-0.618c-2.335-0.032-4.671-0.065-7.008-0.098
			C395.092,422.085,390.067,422.013,385.043,421.939z"/>
		<path fill-rule="evenodd" clip-rule="evenodd" fill="#F9DC8B" d="M380.911,286.972c-0.787,2.295-1.574,4.591-2.36,6.887
			c-1.509,5.005-3.019,10.009-4.53,15.014c-0.261,0.229-0.381,0.516-0.358,0.865c-4.012,8.827-5.658,9.963-13.331,9.193
			c0.701-4.691-1.645-6.709-6.062-6.912c0.298-3.309,0.595-6.616,0.893-9.924l-0.055,0.016c0.286-0.338,0.572-0.677,0.857-1.015
			c1.656-5.333,3.313-10.666,4.971-15.998c0.524-2.009,1.051-4.018,1.579-6.026c2.172-6.042,4.343-12.084,6.513-18.125
			c4.661,5.146,10.559,6.131,17.063,5.072c-1.262,4.906-2.543,9.808-3.776,14.721C381.795,282.803,381.376,284.893,380.911,286.972z
			"/>
		<path fill-rule="evenodd" clip-rule="evenodd" fill="#FADE8C" d="M138.79,478.44c10.779-8.099,21.558-16.197,32.336-24.297
			c1.848-1.067,3.654-2.219,5.554-3.185c4.356-2.216,9.415-1.202,12.081,2.329c2.405,3.186,2.104,8.639-0.742,11.979
			c-0.851,1-1.9,1.832-2.858,2.74c-11.721,8.443-23.441,16.886-35.162,25.326C149.238,486.129,145.59,481.098,138.79,478.44z"/>
		<path fill-rule="evenodd" clip-rule="evenodd" fill="#2DAEA9" d="M175.793,374.929c-0.123,6.667,0.327,13.21,4.114,19.034
			c-0.094,1.537-0.474,3.118-0.238,4.6c2.097,13.16,4.304,26.302,6.479,39.448c-2.231,0.342-4.462,0.683-6.693,1.024
			c-5.131-29.73-10.263-59.461-15.394-89.191c-0.606-3.869-1.519-7.724-1.713-11.614c-0.129-2.581-0.027-5.856,1.422-7.647
			c1.557-1.925,4.809-2.481,7.321-3.634c3.868,6.206,10.013,9.763,15.846,13.701c1.466,0.99,2.742,2.263,4.105,3.406
			c-6.871-1.302-13.742-2.604-21.751-4.122C171.582,352.259,173.688,363.595,175.793,374.929z"/>
		<path fill-rule="evenodd" clip-rule="evenodd" fill="#FADE8C" d="M245.086,473.801c-3.74,11.989-7.48,23.979-11.22,35.972
			c-3.901,3.212-7.845,6.346-13.325,3.558c-4.196-2.136-4.813-5.992-4.72-10.152c3.528-11.408,7.057-22.818,10.583-34.228
			C232.63,470.566,238.858,472.184,245.086,473.801z"/>
		<path fill-rule="evenodd" clip-rule="evenodd" fill="#FADE8C" d="M415.175,454.783c4.493,3.9,9.073,7.704,13.456,11.724
			c5.616,5.152,11.075,10.478,16.601,15.729c3.022,9.405-1.588,15.657-10.275,13.897c-1.276-0.259-2.507-0.744-3.759-1.124
			c-9.172-8.5-18.343-16.999-27.515-25.497C410.59,467.004,414.298,461.998,415.175,454.783z"/>
		<path fill-rule="evenodd" clip-rule="evenodd" fill="#FADE8C" d="M306.016,493.309c0.29,10.592,0.58,21.184,0.87,31.775
			c-6.352-3.971-12.593-3.687-18.732,0.491c-0.695-10.65-1.389-21.3-2.083-31.951c0.17-1.314,0.272-2.641,0.523-3.939
			c1.129-5.829,4.138-8.677,9.125-8.704c5.042-0.027,8.474,3.248,9.485,8.999C305.402,491.103,305.741,492.2,306.016,493.309z"/>
		<path fill-rule="evenodd" clip-rule="evenodd" fill="#25DE8C" d="M138.79,478.44c6.8,2.657,10.448,7.688,11.21,14.894
			c-2.664,10.471-9.333,15.949-17.571,14.438c-7.657-1.404-13.063-8.503-12.379-16.257c0.68-7.718,7.26-13.507,15.275-13.399
			C136.481,478.132,137.635,478.328,138.79,478.44z"/>
		<path fill-rule="evenodd" clip-rule="evenodd" fill="#F9DD8C" d="M454.51,300.66c-6.86,2.949-13.72,5.898-20.578,8.843
			c0.435-7.251-2.641-12.614-8.766-16.341c6.86-3.358,13.721-6.716,20.582-10.075c2.606-1.043,5.196-2.124,7.819-3.12
			c5.767-2.189,10.766-0.668,12.92,3.884c2.313,4.889,0.439,9.845-4.99,13.009C459.207,298.193,456.842,299.396,454.51,300.66z"/>
		<path fill-rule="evenodd" clip-rule="evenodd" fill="#25DE8C" d="M272.071,203.623c-5.434-4.666-8.697-10.112-6.097-17.541
			c2.946-8.417,11.857-12.294,19.822-8.689c8.031,3.635,11.086,12.82,6.826,20.577c-0.56,1.019-1.21,1.988-1.817,2.979
			C285.127,205.808,278.899,206.821,272.071,203.623z"/>
		<path fill-rule="evenodd" clip-rule="evenodd" fill="#25DE8C" d="M386.09,266.017c-6.504,1.06-12.401,0.074-17.063-5.072
			c-4.802-9.716-2.821-18.218,5.172-22.203c6.753-3.366,14.738-1.281,18.911,4.938c4.188,6.243,3.021,14.378-2.818,19.337
			c-1.009,0.858-2.161,1.546-3.247,2.312c-0.334,0.236-0.667,0.473-1.001,0.71L386.09,266.017z"/>
		<path fill-rule="evenodd" clip-rule="evenodd" fill="#23DD8C" d="M219.997,291.032c1.869,1.347,3.737,2.694,5.608,4.041
			c1.095,3.616,2.188,7.231,3.279,10.846c-1.759,6.477-5.009,11.587-12.084,13.197c-3.26-0.078-6.52-0.157-9.78-0.235
			c-1.977-1.401-3.954-2.801-5.93-4.202c-0.696-2.88-1.391-5.762-2.087-8.645C199.766,293.867,206.792,288.846,219.997,291.032z"/>
		<path fill-rule="evenodd" clip-rule="evenodd" fill="#25DE8C" d="M430.265,422.874c-3.443-6.675-2.386-12.855,2.048-18.668
			c4.823-3.403,9.878-5.493,15.847-3.037c5.589,2.3,9.613,7.753,9.428,13.524c-0.196,6.148-3.051,10.806-8.748,13.462
			c-5.644,2.63-11.485,1.589-16.129-2.806C431.868,424.553,431.079,423.701,430.265,422.874z"/>
		<path fill-rule="evenodd" clip-rule="evenodd" fill="#26DD8C" d="M288.153,525.575c6.14-4.178,12.381-4.462,18.732-0.491
			c6.792,7.687,7.472,14.965,1.991,21.32c-4.755,5.518-12.896,6.713-18.918,2.781c-6.286-4.105-8.552-12.091-5.173-18.729
			C285.675,528.71,287.018,527.195,288.153,525.575z"/>
		<path fill-rule="evenodd" clip-rule="evenodd" fill="#28DE8D" d="M117.57,327.792c-8.813,3.925-15.023,3.114-19.877-2.593
			c-4.974-5.849-4.58-14.558,0.901-19.865c5.517-5.343,14.19-5.549,19.847-0.31c1.56,1.445,2.708,3.333,4.046,5.02
			C124.394,316.943,122.849,322.885,117.57,327.792z"/>
		<path fill-rule="evenodd" clip-rule="evenodd" fill="#FCDE8D" d="M117.57,327.792c5.278-4.907,6.824-10.849,4.917-17.748
			c11.296,4.052,22.594,8.104,33.889,12.157c-5.136,4.575-7.54,10.1-5.924,17.021C139.491,335.414,128.531,331.603,117.57,327.792z"
			/>
		<path fill-rule="evenodd" clip-rule="evenodd" fill="#FCDE8D" d="M272.071,203.623c6.829,3.198,13.056,2.185,18.734-2.674
			c0.693,11.95,1.387,23.899,2.083,35.849c-6.774-4.1-13.282-3.749-19.517,1.171C272.938,226.521,272.504,215.072,272.071,203.623z"
			/>
		<path fill-rule="evenodd" clip-rule="evenodd" fill="#2FAEA9" d="M245.086,473.801c-6.228-1.617-12.456-3.234-18.682-4.851
			c-9.416-2.483-18.835-4.968-28.254-7.449c0.934-2.143,1.87-4.287,2.806-6.432c9.777,2.444,19.553,4.888,29.329,7.33
			c0.178,1.457,0.356,2.916,0.702,5.744c1.845-2.093,2.736-3.104,3.628-4.117c15.834,4.084,31.668,8.167,47.503,12.251
			c-0.366,2.255-0.732,4.509-1.099,6.764C269.041,479.961,257.063,476.881,245.086,473.801z"/>
		<path fill-rule="evenodd" clip-rule="evenodd" fill="#28DE8D" d="M431.197,495.01c1.252,0.38,2.482,0.865,3.759,1.124
			c8.688,1.76,13.298-4.492,10.275-13.897c8.831,0.044,15.525,6.366,15.521,14.656c-0.005,7.955-7.144,14.991-15.066,14.852
			C437.061,511.592,431.03,504.627,431.197,495.01z"/>
		<path fill-rule="evenodd" clip-rule="evenodd" fill="#28DE8D" d="M215.821,503.178c-0.093,4.16,0.524,8.017,4.72,10.152
			c5.479,2.788,9.423-0.346,13.325-3.558c2.878,5.985,2.455,11.676-1.96,16.719c-3.637,4.152-8.295,6.052-13.872,4.887
			c-6.513-1.361-11.331-6.695-11.952-13.084C205.433,511.62,208.971,506.129,215.821,503.178z"/>
		<path fill-rule="evenodd" clip-rule="evenodd" fill="#28DE8D" d="M200.955,455.069c-0.936,2.145-1.871,4.289-2.805,6.432
			c-3.162,4.497-7.22,7.208-12.988,6.507c0.958-0.908,2.007-1.74,2.858-2.74c2.846-3.341,3.147-8.794,0.742-11.979
			c-2.666-3.531-7.725-4.545-12.081-2.329c-1.9,0.966-3.706,2.117-5.554,3.185c-0.637-6.917,3.496-11.206,8.329-15.108
			c2.231-0.342,4.462-0.683,6.693-1.023c2.626,0.731,5.253,1.464,7.88,2.195c1.646,1.325,3.292,2.65,4.94,3.976
			C199.631,447.811,200.293,451.439,200.955,455.069z"/>
		<path fill-rule="evenodd" clip-rule="evenodd" fill="#26DD8C" d="M281.018,483.041c0.367-2.255,0.732-4.509,1.098-6.765
			c1.833-1.801,3.666-3.602,5.499-5.401c0.576,0.617,1.152,1.234,1.728,1.852c0.496-1.205,0.993-2.41,1.489-3.616
			c1.792-0.378,3.583-0.757,5.374-1.136c3.265,1.148,6.529,2.297,9.794,3.445c1.325,1.549,2.65,3.1,3.976,4.648
			c0.005,0.334,0.036,0.664,0.096,0.993c0.357,2.108,0.715,4.217,1.072,6.327c-1.709,3.307-3.418,6.612-5.127,9.919
			c-0.274-1.107-0.614-2.205-0.811-3.328c-1.012-5.751-4.443-9.026-9.485-8.999c-4.988,0.027-7.997,2.875-9.125,8.704
			c-0.251,1.299-0.353,2.625-0.523,3.939C284.386,490.097,282.702,486.569,281.018,483.041z"/>
		<path fill-rule="evenodd" clip-rule="evenodd" fill="#25DE8C" d="M425.166,293.162c6.125,3.727,9.2,9.09,8.766,16.341
			c-2.255,6.747-6.75,11.024-13.771,12.52c0.587-4.033,1.295-8.053,1.727-12.102c0.429-4.017-0.865-6.781-5.269-8.098
			c-3.078-0.921-5.781-3.094-8.654-4.707C412.695,291.438,418.664,291.137,425.166,293.162z"/>
		<path fill-rule="evenodd" clip-rule="evenodd" fill="#25DE8C" d="M415.175,454.783c-0.877,7.215-4.585,12.221-11.492,14.729
			c-6.583,1.203-12.058-0.392-15.827-6.283c1.925-0.827,3.787-1.884,5.789-2.439c7.031-1.952,9.944-5.537,10.454-12.957
			c0.157-2.292,0.67-4.561,1.021-6.838C411.451,443.418,414.313,448.372,415.175,454.783z"/>
		<path fill-rule="evenodd" clip-rule="evenodd" fill="#25DE8C" d="M273.371,237.97c6.234-4.92,12.743-5.271,19.517-1.171
			c4.615,4.054,6.611,9.122,5.888,15.24c-3.215-1.331-6.669-2.276-9.59-4.082c-4.648-2.874-8.313-1.842-12.115,1.466
			c-2.08,1.81-4.61,3.103-6.938,4.63C267.461,247.937,269.558,242.78,273.371,237.97z"/>
		<path fill-rule="evenodd" clip-rule="evenodd" fill="#23DD8C" d="M150.452,339.223c-1.615-6.922,0.788-12.446,5.924-17.021
			c3.826-0.812,7.65-1.622,11.472-2.427c1.08,2.395,2.162,4.785,3.244,7.175c-2.513,1.151-5.765,1.708-7.321,3.633
			c-1.449,1.791-1.551,5.066-1.422,7.647c0.195,3.891,1.107,7.745,1.713,11.614C157.297,349.159,153.023,345.283,150.452,339.223z"
			/>
		<path fill-rule="evenodd" clip-rule="evenodd" fill="#2FDE8F" d="M454.51,300.66c2.332-1.263,4.697-2.466,6.987-3.8
			c5.43-3.164,7.303-8.12,4.99-13.009c-2.154-4.552-7.153-6.073-12.92-3.884c-2.623,0.996-5.213,2.077-7.819,3.12
			c2.833-8.523,10.385-12.877,18.103-10.435c8.103,2.563,12.507,10.185,10.336,17.883
			C471.748,299.178,463.815,303.259,454.51,300.66z"/>
		<path fill-rule="evenodd" clip-rule="evenodd" fill="#2FAEA9" d="M199.002,306.035c0.696,2.882,1.392,5.764,2.087,8.645
			c-2.454-1.517-4.908-3.034-7.365-4.551C195.482,308.764,197.242,307.399,199.002,306.035z"/>
		<path fill-rule="evenodd" clip-rule="evenodd" fill="#F9DC8B" d="M386.044,266.041c0.334-0.238,0.667-0.474,1.001-0.71
			C386.711,265.567,386.378,265.804,386.044,266.041z"/>
		<path fill-rule="evenodd" clip-rule="evenodd" fill="#81DADC" d="M194.028,440.207c-2.627-0.731-5.254-1.464-7.88-2.195
			c-2.174-13.147-4.381-26.289-6.478-39.449c-0.236-1.481,0.144-3.063,0.238-4.6c9.868,15.862,30.008,15.651,41.544,9.712
			c1.439-0.741,3.011-1.227,4.521-1.831c-0.912,1.506-1.637,3.172-2.767,4.492C213.522,417.661,203.764,428.925,194.028,440.207z"/>
		<path fill-rule="evenodd" clip-rule="evenodd" fill="#2CAEA9" d="M194.028,440.207c9.736-11.282,19.494-22.546,29.179-33.871
			c1.129-1.32,1.854-2.986,2.767-4.492c2.374-2.92,4.748-5.838,7.123-8.759c0.635-0.698,1.271-1.393,1.907-2.089l-0.028,0.022
			c1.365-1.004,2.943-1.815,4.06-3.045c5.379-5.929,10.633-11.971,15.932-17.973c1.36,1.724,2.72,3.448,4.079,5.172
			c-13.107,15.195-26.181,30.419-39.336,45.572c-6.839,7.878-13.823,15.631-20.742,23.439
			C197.321,442.857,195.675,441.532,194.028,440.207z"/>
		<path fill-rule="evenodd" clip-rule="evenodd" fill="#F7F7F7" d="M199.05,380.065c-6.759,0.08-12.579-5.546-12.616-12.197
			c-0.036-6.45,5.468-12.005,12.083-12.193c6.967-0.199,12.64,5.097,12.762,11.915C211.4,374.379,205.906,379.985,199.05,380.065z"
			/>
		<path fill-rule="evenodd" clip-rule="evenodd" fill="#7FD8DB" d="M175.793,374.929c-2.106-11.334-4.211-22.67-6.502-34.995
			c8.01,1.518,14.88,2.82,21.751,4.122c0,0-0.028-0.021-0.028-0.021c0.682,0.334,1.365,0.668,2.047,1.002
			c0.703,0.385,1.406,0.77,2.695,1.475C183.232,352.218,178.068,362.598,175.793,374.929z"/>
		<path fill-rule="evenodd" clip-rule="evenodd" fill="#7FD8DB" d="M254.967,370c-5.299,6.001-10.553,12.043-15.932,17.973
			c-1.116,1.23-2.694,2.041-4.06,3.045c2.618-7.104,4.512-14.285,2.377-21.903c1.242-0.426,2.483-0.852,3.725-1.276
			c1.395-0.922,2.79-1.845,4.185-2.767c0.319-0.655,0.639-1.309,0.958-1.963c0.096-1.336,0.191-2.672,0.287-4.008
			c1.312,0.277,2.624,0.556,3.934,0.833c1.228,1.436,2.458,2.871,3.688,4.306C254.408,366.16,254.687,368.08,254.967,370z"/>
		<path fill-rule="evenodd" clip-rule="evenodd" fill="#79CCC9" d="M250.443,359.934c-1.312-0.277-2.624-0.556-3.936-0.833
			c-2.287-2.802-4.347-5.832-6.9-8.364c-10.783-10.698-21.712-21.248-32.588-31.853c3.261,0.076,6.521,0.155,9.784,0.232
			c3.593,4.676,7.034,9.476,10.805,14.001C235.124,342.136,242.821,351.004,250.443,359.934z"/>
		<path fill-rule="evenodd" clip-rule="evenodd" fill="#F4F4F4" d="M211.684,390.607c0.405-3.643,2.515-5.615,6.251-5.474
			c3.585,0.137,5.545,2.47,5.52,5.813c-0.027,3.612-2.271,6.026-5.988,5.909C213.848,396.74,211.773,394.512,211.684,390.607z"/>
		<path fill-rule="evenodd" clip-rule="evenodd" fill="#79CCC9" d="M241.078,367.839c-1.242,0.425-2.483,0.851-3.725,1.276
			C238.594,368.689,239.835,368.264,241.078,367.839z"/>
		<path fill-rule="evenodd" clip-rule="evenodd" fill="#79CCC9" d="M246.221,363.108c-0.319,0.654-0.639,1.309-0.958,1.963
			C245.582,364.417,245.901,363.763,246.221,363.108z"/>
		<path fill-rule="evenodd" clip-rule="evenodd" fill="#7FD8DB" d="M235.003,390.996c-0.635,0.696-1.271,1.392-1.907,2.089
			C233.731,392.388,234.368,391.692,235.003,390.996z"/>
		<path fill-rule="evenodd" clip-rule="evenodd" fill="#2DAEA9" d="M193.063,345.038c-0.683-0.334-1.365-0.668-2.047-1.002
			C191.697,344.37,192.38,344.704,193.063,345.038z"/>
		<path fill-rule="evenodd" clip-rule="evenodd" fill="#81DBDE" d="M272.084,349.02c4.415-30.839,8.83-61.677,13.382-93.48
			c2.515,1.915,4.648,3.317,6.526,5.003c17.702,15.887,35.359,31.824,53.042,47.734c0.36,0.324,0.854,0.501,1.283,0.748
			c-0.072,1.645-0.142,3.291-0.212,4.937c-11.549,3.43-23.327,5.748-34.235,11.593c-12.839,6.882-25.886,12.921-31.766,27.571
			C277.431,351.757,274.757,350.389,272.084,349.02z"/>
		<path fill-rule="evenodd" clip-rule="evenodd" fill="#82DCDE" d="M228.884,305.919c-1.092-3.615-2.184-7.23-3.279-10.846
			c17.074-12.358,34.151-24.716,52.563-38.042c-4.25,31.294-8.306,61.156-12.36,91.018
			C253.501,334.006,241.193,319.963,228.884,305.919z"/>
		<path fill-rule="evenodd" clip-rule="evenodd" fill="#FADD8B" d="M228.884,305.919c12.309,14.043,24.617,28.086,36.923,42.13
			c0.339,0.365,0.68,0.731,1.02,1.098c2.04,2.585,4.273,5.045,6.075,7.787c2.907,4.424,2.176,9.386-1.528,12.537
			c-3.479,2.958-8.887,2.643-12.647-0.789c-1.574-1.436-3.068-2.959-4.599-4.443c-1.23-1.435-2.459-2.87-3.688-4.306
			c-7.62-8.93-15.317-17.798-22.833-26.816c-3.771-4.525-7.212-9.326-10.805-14.001
			C223.875,317.507,227.125,312.396,228.884,305.919z"/>
		<path fill-rule="evenodd" clip-rule="evenodd" fill="#3F87BB" d="M360.936,285.097c-1.657,5.333-3.314,10.666-4.971,15.998
			c-0.285,0.338-0.571,0.676-0.857,1.015l0.055-0.016c-1.699,0.678-3.396,1.357-5.096,2.035
			c-7.676-7.035-15.327-14.099-23.036-21.099c-6.926-6.29-13.916-12.51-20.367-19.834c1.107,0.271,2.276,0.398,3.312,0.837
			c15.881,6.725,31.739,13.5,47.618,20.225C358.639,284.701,359.818,284.825,360.936,285.097z"/>
		<path fill-rule="evenodd" clip-rule="evenodd" fill="#29DB8B" d="M254.128,364.239c1.531,1.484,3.024,3.008,4.599,4.443
			c3.76,3.432,9.168,3.747,12.647,0.789c3.704-3.151,4.435-8.113,1.528-12.537c-1.802-2.742-4.035-5.202-6.075-7.787
			c1.752-0.042,3.504-0.084,5.256-0.127c2.673,1.369,5.347,2.737,8.021,4.105c-0.791,1.769-1.817,3.475-2.313,5.323
			c-0.582,2.171-1.532,4.856-0.726,6.568c0.517,1.1,3.912,0.845,6.017,1.196c-0.34,1.611-0.68,3.223-1.019,4.833
			c-2.326,2.309-4.652,4.619-6.978,6.928c-2.034,0.368-4.069,0.735-6.103,1.104c-3.313-1.302-6.625-2.603-9.937-3.904
			c-1.359-1.724-2.719-3.448-4.079-5.172C254.687,368.08,254.408,366.16,254.128,364.239z"/>
		<path fill-rule="evenodd" clip-rule="evenodd" fill="#29DB8B" d="M350.066,304.129c1.699-0.678,3.396-1.356,5.096-2.035
			c-0.298,3.309-0.595,6.616-0.894,9.923c-2.722,0.647-5.442,1.296-8.162,1.944c0.069-1.646,0.139-3.292,0.211-4.937
			C347.568,307.393,348.817,305.761,350.066,304.129z"/>
		<path fill-rule="evenodd" clip-rule="evenodd" fill="#3E86BB" d="M376.02,315.999c11.768-2.134,23.534-4.27,36.341-6.592
			c-11.09,29.082-21.688,56.869-32.284,84.656c-1.641-0.372-3.279-0.744-4.92-1.114c-3.329-21.264-6.657-42.527-9.985-63.791
			C371.355,326.888,374.276,321.929,376.02,315.999z"/>
		<path fill-rule="evenodd" clip-rule="evenodd" fill="#3F87BB" d="M403.083,402.89c-5.293-0.257-10.586-0.513-15.881-0.769
			c-0.402-1.002-0.804-2.004-1.204-3.005c1.056-3.633,1.873-7.358,3.208-10.886c6.623-17.515,13.374-34.982,20.114-52.453
			c0.518-1.341,1.295-2.581,2.869-3.642C409.153,355.72,406.119,379.304,403.083,402.89z"/>
		<path fill-rule="evenodd" clip-rule="evenodd" fill="#23DD8C" d="M385.998,399.116c0.4,1.001,0.802,2.003,1.204,3.005
			c-1.146,0.052-2.293,0.103-3.44,0.154c-6.205,0.284-10.278,3.005-11.382,7.601c-1.077,4.484,0.932,7.833,6.744,11.236
			c-0.379,0.364-0.759,0.729-1.138,1.092c-3.965-0.341-7.93-0.68-11.896-1.02c-1.35-1.08-2.698-2.159-4.048-3.237
			c-1.016-3.941-2.031-7.883-3.046-11.823c0.692-2.046,1.384-4.09,2.076-6.135c2.682-2.276,5.363-4.554,8.044-6.831
			c2.014-0.07,4.026-0.141,6.04-0.211c1.64,0.371,3.278,0.743,4.919,1.115C382.05,395.747,384.024,397.432,385.998,399.116z"/>
		<path fill-rule="evenodd" clip-rule="evenodd" fill="#3F87BB" d="M374.021,308.872c1.512-5.005,3.021-10.009,4.53-15.014
			c7.73,3.018,15.463,6.037,23.196,9.057c-0.078,0.646-0.156,1.293-0.234,1.941C392.35,306.194,383.185,307.533,374.021,308.872z"/>
		<path fill-rule="evenodd" clip-rule="evenodd" fill="#29DB8B" d="M376.02,315.999c-1.743,5.93-4.664,10.889-10.85,13.157
			c-2.062,0.289-4.123,0.579-6.184,0.869c-1.948-0.735-3.896-1.47-5.846-2.206c2.396-2.963,4.794-5.927,7.19-8.89
			c7.673,0.77,9.319-0.366,13.331-9.193C374.447,311.823,375.234,313.911,376.02,315.999z"/>
		<path fill-rule="evenodd" clip-rule="evenodd" fill="#3E86BB" d="M366.091,421.186c3.966,0.339,7.931,0.678,11.896,1.019
			c4.488,8.88,8.853,17.824,13.524,26.605c2.004,3.766,1.615,5.229-2.859,6.424c-24.457,6.531-48.816,13.43-73.219,20.165
			c-1.414,0.391-2.919,0.452-4.382,0.667l0.017,0.021c3.45-3.303,6.925-6.58,10.347-9.911
			c14.017-13.646,28.033-27.292,41.992-40.996C364.527,424.079,365.207,422.528,366.091,421.186z"/>
		<path fill-rule="evenodd" clip-rule="evenodd" fill="#3E86BB" d="M385.043,421.939c5.024,0.073,10.049,0.146,15.073,0.219
			c-0.729,7.119-1.461,14.239-2.191,21.36c-0.472,0.129-0.943,0.258-1.414,0.387C392.688,436.583,388.865,429.261,385.043,421.939z"
			/>
		<path fill-rule="evenodd" clip-rule="evenodd" fill="#3E86BB" d="M310.07,477.062c-0.06-0.329-0.091-0.659-0.096-0.993
			c0.365,0.007,0.729,0.013,1.093,0.019l-0.017-0.021C310.725,476.397,310.396,476.729,310.07,477.062z"/>
		<path fill-rule="evenodd" clip-rule="evenodd" fill="#2E2F2F" d="M360.331,318.93c-2.396,2.963-4.794,5.926-7.191,8.891
			c-6.213,6.893-12.425,13.784-18.636,20.675c0.486,0.488,2.339,1.852,3.995,3.423c7.624,7.238,14.216,15.259,13.872,26.44
			c-0.171,5.526-1.994,11.001-3.068,16.5c-1.074,2.019-2.146,4.035-3.221,6.054c-8.918,13.108-21.811,13.967-35.6,11.165
			c-13.057-2.652-21.349-10.546-23.506-23.939c-0.84-5.217-0.733-10.587-1.058-15.887c0.578-1.958,1.155-3.915,1.982-6.714
			c-2.185,0.307-3.501,0.491-4.817,0.676c-2.105-0.352-5.5-0.097-6.018-1.196c-0.806-1.711,0.145-4.397,0.726-6.568
			c0.496-1.848,1.521-3.554,2.313-5.323c5.88-14.65,18.927-20.688,31.766-27.571c10.908-5.846,22.687-8.163,34.235-11.593
			c2.721-0.647,5.441-1.296,8.163-1.944C358.687,312.221,361.032,314.239,360.331,318.93z M314.9,382.321
			c6.747-0.031,12.335-5.75,12.184-12.468c-0.147-6.556-5.767-12.084-12.159-11.958c-6.844,0.134-12.392,5.813-12.229,12.515
			C302.857,377.012,308.328,382.351,314.9,382.321z M338.297,396.742c-0.295-3.59-2.467-5.634-6.109-5.558
			c-3.741,0.077-5.88,2.596-5.766,6.139c0.114,3.54,2.319,5.858,6.155,5.69C336.326,402.85,338.26,400.729,338.297,396.742z"/>
		<path fill-rule="evenodd" clip-rule="evenodd" fill="#29DB8B" d="M355.107,302.11c0.286-0.339,0.572-0.677,0.857-1.015
			C355.68,301.433,355.394,301.772,355.107,302.11z"/>
		<path fill-rule="evenodd" clip-rule="evenodd" fill="#81DBDE" d="M259.045,375.172c3.313,1.301,6.625,2.602,9.938,3.904
			c3.505,15.293,7.106,30.566,10.453,45.893c0.947,4.342,1.149,8.846,1.693,13.274c-1.121-0.987-2.2-2.028-3.371-2.953
			c-17.205-13.601-39.466-6.169-44.832,14.992c-1.015,4.005-1.769,8.077-2.643,12.117c-9.776-2.443-19.552-4.887-29.329-7.331
			c-0.662-3.63-1.324-7.259-1.987-10.887c6.918-7.808,13.902-15.561,20.741-23.438C232.865,405.592,245.938,390.367,259.045,375.172
			z"/>
		<path fill-rule="evenodd" clip-rule="evenodd" fill="#81DADC" d="M287.615,470.875c-1.833,1.8-3.666,3.601-5.499,5.401
			c-15.834-4.083-31.668-8.166-47.501-12.249c2.944-7.201,7.366-13.255,13.508-18.119c8.74-6.923,17.156-7.094,24.123,1.365
			C278.177,454.476,282.552,462.959,287.615,470.875z"/>
		<path fill-rule="evenodd" clip-rule="evenodd" fill="#2B3030" d="M287.615,470.875c-5.063-7.916-9.438-16.399-15.37-23.602
			c-6.967-8.459-15.382-8.288-24.123-1.365c-6.142,4.864-10.564,10.918-13.508,18.119c-0.893,1.012-1.784,2.023-3.629,4.116
			c-0.345-2.828-0.523-4.287-0.702-5.744c0.875-4.039,1.628-8.111,2.643-12.116c5.366-21.161,27.626-28.593,44.832-14.992
			c1.17,0.925,2.25,1.966,3.369,2.952c2.364,4.604,5.417,8.999,6.912,13.873c1.668,5.438,1.922,11.311,2.792,16.994
			c-0.496,1.206-0.993,2.411-1.489,3.616C288.767,472.109,288.191,471.492,287.615,470.875z"/>
		<path fill-rule="evenodd" clip-rule="evenodd" fill="#81DBDE" d="M285.918,372.251c0.325,5.3,0.218,10.67,1.058,15.887
			c2.157,13.393,10.449,21.287,23.506,23.939c13.789,2.802,26.682,1.943,35.6-11.164c4.304,1.737,8.609,3.474,12.914,5.211
			c1.016,3.94,2.031,7.882,3.047,11.824c-4.758,4.353-9.606,8.607-14.254,13.071c-13.973,13.423-27.866,26.928-41.79,40.4
			c-3.265-1.148-6.529-2.297-9.794-3.444c-3.893-16.973-7.729-33.958-11.698-50.913c-3.054-13.05-6.275-26.061-9.421-39.089
			c2.326-2.309,4.652-4.619,6.978-6.928C283.348,371.447,284.633,371.849,285.918,372.251z"/>
		<path fill-rule="evenodd" clip-rule="evenodd" fill="#2CADA9" d="M275.085,377.973c3.146,13.028,6.368,26.04,9.421,39.089
			c3.968,16.955,7.805,33.94,11.698,50.913c-1.79,0.378-3.581,0.757-5.373,1.135c-0.87-5.684-1.124-11.556-2.792-16.994
			c-1.495-4.874-4.547-9.269-6.912-13.873c-0.542-4.428-0.745-8.932-1.692-13.273c-3.347-15.327-6.948-30.6-10.453-45.893
			C271.017,378.708,273.051,378.341,275.085,377.973z"/>
		<path fill-rule="evenodd" clip-rule="evenodd" fill="#2BACA9" d="M305.999,471.42c13.924-13.473,27.817-26.978,41.79-40.4
			c4.647-4.464,9.496-8.719,14.254-13.071c1.35,1.077,2.698,2.156,4.048,3.236c-0.884,1.344-1.563,2.895-2.685,3.995
			c-13.959,13.704-27.976,27.351-41.992,40.996c-3.422,3.331-6.896,6.608-10.347,9.911c-0.363-0.006-0.728-0.012-1.093-0.019
			C308.649,474.52,307.324,472.969,305.999,471.42z"/>
		<path fill-rule="evenodd" clip-rule="evenodd" fill="#2BACA9" d="M285.918,372.251c-1.285-0.402-2.57-0.804-3.855-1.206
			c0.339-1.61,0.679-3.222,1.019-4.833c1.316-0.185,2.633-0.369,4.818-0.676C287.074,368.336,286.496,370.293,285.918,372.251z"/>
		<path fill-rule="evenodd" clip-rule="evenodd" fill="#2BACA9" d="M358.986,330.025c2.061-0.29,4.122-0.58,6.184-0.869
			c3.329,21.265,6.657,42.528,9.986,63.792c-2.013,0.069-4.025,0.14-6.039,0.208c-1.504-8.954-3.065-17.899-4.497-26.864
			C362.69,354.212,360.859,342.115,358.986,330.025z"/>
		<path fill-rule="evenodd" clip-rule="evenodd" fill="#81DADC" d="M358.986,330.025c1.873,12.09,3.704,24.187,5.634,36.267
			c1.432,8.965,2.993,17.91,4.497,26.864c-2.681,2.279-5.362,4.557-8.045,6.834c-3.923-1.71-7.847-3.421-11.77-5.132
			c1.074-5.498,2.897-10.973,3.068-16.5c0.344-11.181-6.248-19.202-13.872-26.44c-1.656-1.571-3.509-2.935-3.995-3.423
			c6.211-6.891,12.423-13.782,18.636-20.675C355.09,328.556,357.038,329.29,358.986,330.025z"/>
		<path fill-rule="evenodd" clip-rule="evenodd" fill="#2DAEA9" d="M349.303,394.858c3.923,1.711,7.847,3.422,11.77,5.132
			c-0.691,2.044-1.383,4.088-2.075,6.134c-4.306-1.737-8.611-3.474-12.915-5.211C347.156,398.894,348.229,396.877,349.303,394.858z"
			/>
		<path fill-rule="evenodd" clip-rule="evenodd" fill="#F4F4F4" d="M314.9,382.321c-6.572,0.03-12.043-5.309-12.204-11.911
			c-0.164-6.702,5.385-12.381,12.229-12.515c6.393-0.126,12.012,5.402,12.159,11.958C327.235,376.571,321.647,382.29,314.9,382.321z
			"/>
		<path fill-rule="evenodd" clip-rule="evenodd" fill="#F4F4F4" d="M338.297,396.742c-0.037,3.987-1.971,6.107-5.72,6.271
			c-3.836,0.168-6.041-2.15-6.155-5.69c-0.114-3.543,2.024-6.062,5.766-6.139C335.83,391.108,338.002,393.152,338.297,396.742z"/>
	</g>
</g>
</svg>
