<?xml version="1.0" encoding="utf-8"?>
<!-- Generator: Adobe Illustrator 16.0.3, SVG Export Plug-In . SVG Version: 6.00 Build 0)  -->
<!DOCTYPE svg PUBLIC "-//W3C//DTD SVG 1.1//EN" "http://www.w3.org/Graphics/SVG/1.1/DTD/svg11.dtd">
<svg version="1.1" id="Capa_1" xmlns="http://www.w3.org/2000/svg" xmlns:xlink="http://www.w3.org/1999/xlink" x="0px" y="0px"
	 width="612px" height="792px" viewBox="0 0 612 792" enable-background="new 0 0 612 792" xml:space="preserve">
<g>
	<g>
		<path fill-rule="evenodd" clip-rule="evenodd" fill="#FEFEFE" d="M51.037,653.903c0-170.874,0-341.889,0-512.866
			c171.051,0,342.066,0,513.08,0c0,170.908,0,341.781,0,512.866C393.078,653.903,222.039,653.903,51.037,653.903z M309.161,553.61
			c13.333-0.951,25.806-1.607,38.226-2.812c7.933-0.769,16.387-1.396,22.303-7.474c7.442-7.644,16.629-11.331,26.478-14.228
			c14.661-4.313,26.938-11.72,35.05-25.443c6.062-10.253,14.287-18.528,24.931-24.646c15.131-8.696,20.961-23.273,16.851-40.51
			c-1.962-8.23-1.171-15.767,1.056-23.924c5.353-19.607,5.123-38.632-10.558-54.431c-3.784-3.812-5.708-8.458-5.719-13.95
			c-0.021-11.107-3.354-21.439-8.982-30.794c-2.734-4.544-6.612-9.13-11.11-11.713c-6.686-3.839-10.321-8.744-11.906-16.13
			c-1.901-8.868-5.921-11.918-14.944-12.563c-4.387-0.313-7.875-1.684-10.503-5.596c-2.96-4.408-6.468-8.466-9.914-12.527
			c-3.863-4.552-8.838-5.871-14.792-5.413c-7.65,0.588-14.641-2.041-19.686-7.769c-3.676-4.174-7.606-5.699-13.011-5.829
			c-13.62-0.326-27.424-0.011-40.779-2.222c-12.289-2.032-23.304-0.664-34.499,4.07c-10.892,4.605-21.55,10.863-34.243,7.619
			c-0.154-0.039-0.332,0.007-0.498,0.024c-8.599,0.914-17.426,0.908-25.743,2.966c-11.754,2.909-22.512,7.898-27.576,20.579
			c-1.495,3.745-5.047,6.676-7.694,9.95c-2.863,3.539-5.806,7.015-8.646,10.572c-2.307,2.889-4.271,6.098-6.848,8.711
			c-1.948,1.975-4.623,3.236-6.978,4.81c-5.968,3.985-9.74,9.191-10.743,16.593c-0.682,5.038-2.29,10-3.932,14.845
			c-2.244,6.615-5.14,13.01-7.35,19.635c-3.809,11.417-6.544,22.832-4.265,35.236c1.636,8.899,1.878,18.191,1.585,27.269
			c-0.277,8.592,0.524,16.727,5.233,23.917c5.406,8.256,7.289,17.379,8.134,26.922c1.807,20.383,10.34,37.301,26.067,50.517
			c7.39,6.211,14.542,12.727,22.177,18.617c3.739,2.884,8.122,5.954,12.586,6.698c16.996,2.835,33.733,7.762,51.256,6.919
			c10.138-0.487,20.308-0.895,30.445-0.628C290.415,551.738,300.186,552.906,309.161,553.61z"/>
		<path fill-rule="evenodd" clip-rule="evenodd" fill="#C878AC" d="M309.161,553.61c-8.976-0.704-18.747-1.872-28.542-2.13
			c-10.137-0.267-20.307,0.141-30.445,0.628c-17.523,0.843-34.261-4.084-51.256-6.919c-4.465-0.744-8.847-3.814-12.586-6.698
			c-7.635-5.891-14.787-12.406-22.177-18.617c-15.727-13.216-24.261-30.134-26.067-50.517c-0.846-9.543-2.728-18.666-8.134-26.922
			c-4.708-7.19-5.51-15.325-5.233-23.917c0.292-9.078,0.05-18.37-1.585-27.269c-2.279-12.404,0.456-23.819,4.265-35.236
			c2.21-6.625,5.106-13.021,7.35-19.635c1.643-4.845,3.25-9.808,3.932-14.845c1.003-7.402,4.775-12.608,10.743-16.593
			c2.355-1.574,5.03-2.835,6.978-4.81c2.578-2.613,4.541-5.822,6.848-8.711c2.841-3.557,5.784-7.033,8.646-10.572
			c2.647-3.274,6.2-6.205,7.694-9.95c5.064-12.681,15.821-17.67,27.576-20.579c8.316-2.058,17.144-2.052,25.743-2.966
			c0.166-0.018,0.344-0.063,0.498-0.024c12.693,3.244,23.351-3.014,34.243-7.619c11.195-4.734,22.209-6.103,34.499-4.07
			c13.355,2.211,27.159,1.896,40.779,2.222c5.404,0.13,9.335,1.655,13.011,5.829c5.045,5.728,12.035,8.356,19.686,7.769
			c5.954-0.458,10.929,0.861,14.792,5.413c3.446,4.062,6.954,8.119,9.914,12.527c2.628,3.912,6.116,5.283,10.503,5.596
			c9.023,0.645,13.043,3.695,14.944,12.563c1.585,7.386,5.221,12.292,11.906,16.13c4.498,2.583,8.376,7.168,11.11,11.713
			c5.628,9.354,8.962,19.687,8.982,30.794c0.011,5.492,1.935,10.138,5.719,13.95c15.681,15.799,15.91,34.823,10.558,54.431
			c-2.227,8.157-3.018,15.693-1.056,23.924c4.11,17.236-1.72,31.813-16.851,40.51c-10.644,6.118-18.869,14.394-24.931,24.646
			c-8.112,13.724-20.389,21.131-35.05,25.443c-9.849,2.896-19.035,6.584-26.478,14.228c-5.916,6.077-14.37,6.705-22.303,7.474
			C334.967,552.003,322.494,552.659,309.161,553.61z M145.952,469.119c0.334,2.244,0.668,4.487,1.003,6.729
			c-0.164,1.061-0.663,2.199-0.44,3.171c3.354,14.63,11.063,26.565,22.559,36.137c7.151,5.954,14.094,12.173,21.46,17.844
			c3.336,2.568,7.27,4.979,11.291,5.911c8.537,1.977,17.445,2.378,25.951,4.452c11.918,2.906,23.788,1.608,35.722,1.168
			c5.816-0.215,11.745-0.851,17.448-0.05c22.445,3.154,44.812,1.631,67.131-0.745c5.74-0.611,12.641-1.857,16.588-5.461
			c9.249-8.445,20.012-12.81,31.547-16.369c11.551-3.563,21.35-9.46,28.054-20.228c6.969-11.191,15.301-21.254,27.267-27.851
			c13.434-7.406,18.078-18.517,14.834-33.587c-1.647-7.654-3.115-15.222-0.283-23.025c1.569-4.325,2.597-8.92,3.277-13.48
			c2.18-14.617,0.369-28.145-11.011-39.082c-4.574-4.396-7.191-10.039-7.252-16.496c-0.104-11.119-3.283-21.347-8.97-30.74
			c-1.825-3.017-4.356-6.328-7.389-7.76c-9.177-4.335-13.864-11.45-15.744-21.058c-0.811-4.143-3.236-6.612-7.962-6.723
			c-6.997-0.166-12.747-2.754-16.752-9.049c-2.656-4.175-5.886-8.129-9.5-11.494c-1.948-1.813-5.314-3.202-7.918-3.02
			c-9.967,0.698-18.366-2.521-25.225-9.366c-3.005-2.998-5.943-4.015-10.047-4.122c-12.273-0.32-24.549-0.924-36.795-1.82
			c-9.023-0.659-17.956-3.796-27.003,0.13c-6.71,2.912-13.66,5.274-20.345,8.24c-5.876,2.607-11.597,4.941-18.212,2.817
			c-1.664-0.534-3.658-0.257-5.471-0.07c-8.908,0.917-18.102,0.855-26.626,3.205c-8.986,2.477-17.681,6.429-21.518,16.762
			c-1.622,4.368-5.281,8.373-8.918,11.488c-3.538,3.031-6.18,6.102-7.989,10.45c-1.322,3.18-4.021,5.948-6.581,8.404
			c-2.249,2.159-5.082,3.756-7.79,5.381c-5.905,3.544-8.722,8.763-9.356,15.535c-0.306,3.264-1.077,6.567-2.188,9.655
			c-2.474,6.882-5.412,13.596-7.947,20.457c-4.597,12.446-7.277,24.869-4.195,38.468c1.874,8.267,1.375,17.211,0.983,25.807
			c-0.298,6.531,0.484,12.555,3.625,18.179c4.489,8.039,8.623,16.125,8.938,25.639C144.266,465.425,145.343,467.265,145.952,469.119
			z"/>
		<path fill-rule="evenodd" clip-rule="evenodd" fill="#E2B9F2" d="M145.952,469.119c-0.609-1.854-1.687-3.694-1.749-5.568
			c-0.315-9.514-4.449-17.6-8.938-25.639c-3.141-5.624-3.922-11.647-3.625-18.179c0.392-8.596,0.891-17.54-0.983-25.807
			c-3.083-13.599-0.402-26.021,4.195-38.468c2.535-6.861,5.473-13.574,7.947-20.457c1.11-3.088,1.882-6.391,2.188-9.655
			c0.634-6.772,3.452-11.991,9.356-15.535c2.708-1.625,5.541-3.223,7.79-5.381c2.56-2.457,5.259-5.225,6.581-8.404
			c1.81-4.349,4.451-7.419,7.989-10.45c3.637-3.115,7.296-7.12,8.918-11.488c3.836-10.333,12.532-14.285,21.518-16.762
			c8.524-2.349,17.718-2.287,26.626-3.205c1.813-0.187,3.807-0.464,5.471,0.07c6.615,2.125,12.336-0.21,18.212-2.817
			c6.685-2.966,13.635-5.329,20.345-8.24c9.047-3.926,17.98-0.789,27.003-0.13c12.246,0.896,24.521,1.5,36.795,1.82
			c4.104,0.107,7.042,1.124,10.047,4.122c6.858,6.845,15.258,10.064,25.225,9.366c2.604-0.182,5.97,1.207,7.918,3.02
			c3.614,3.365,6.844,7.319,9.5,11.494c4.005,6.294,9.755,8.883,16.752,9.049c4.726,0.111,7.151,2.581,7.962,6.723
			c1.88,9.608,6.567,16.723,15.744,21.058c3.032,1.432,5.563,4.743,7.389,7.76c5.687,9.393,8.866,19.621,8.97,30.74
			c0.061,6.457,2.678,12.099,7.252,16.496c11.38,10.938,13.19,24.465,11.011,39.082c-0.681,4.561-1.708,9.155-3.277,13.48
			c-2.832,7.804-1.364,15.371,0.283,23.025c3.244,15.07-1.4,26.181-14.834,33.587c-11.966,6.597-20.298,16.659-27.267,27.851
			c-6.704,10.768-16.503,16.664-28.054,20.228c-11.535,3.56-22.298,7.924-31.547,16.369c-3.947,3.604-10.848,4.85-16.588,5.461
			c-22.319,2.376-44.686,3.899-67.131,0.745c-5.703-0.801-11.632-0.165-17.448,0.05c-11.934,0.44-23.804,1.738-35.722-1.168
			c-8.506-2.074-17.415-2.476-25.951-4.452c-4.021-0.933-7.955-3.343-11.291-5.911c-7.366-5.671-14.309-11.89-21.46-17.844
			c-11.496-9.571-19.205-21.507-22.559-36.137c-0.223-0.972,0.277-2.11,0.441-3.168c0.618,0.539,1.172,1.179,1.861,1.6
			c9.523,5.819,20.017,3.978,30.145,3.131c4.426-0.37,7.948-4.792,7.47-9.317c-0.314-2.979-3.573-5.854-5.986-8.313
			c-1.125-1.146-3.356-1.606-5.11-1.667c-6.584-0.229-13.197-0.489-19.761-0.101C150.793,461.467,147.094,463.972,145.952,469.119z
			 M339.125,469.073c-3.889,1.266-7.804,2.453-11.656,3.817c-3.461,1.228-5.511,3.594-5.335,7.489
			c0.18,3.996,2.281,6.719,6.043,7.557c4.819,1.073,9.765,1.578,14.656,2.327c2.132,8.343,8.186,13.449,16.748,13.785
			c5.155,0.202,10.364,0.413,15.484-0.073c12.11-1.152,24.244-2.699,34.428-10.242c15.357-11.376,26.87-25.699,32.837-44.11
			c7.747-23.907,9.195-48.335,4.153-72.804c-1.656-8.041-5.557-16.308-10.568-22.827c-10.93-14.217-22.21-15.919-40.743-7.557
			c-10.986,4.957-21.063,16.389-15.202,32.003c0.988,2.636,1.88,5.369,2.327,8.138c1.317,8.155,3.979,16.503,3.21,24.496
			c-1.405,14.588-7.897,25.892-23.53,31.263C349.984,446.456,341.361,455.563,339.125,469.073z M332.569,394.112
			c10.026-0.865,16.057-6.313,19.149-14.958c0.826-2.308,1.205-6.919,0.325-7.329c-4.109-1.915-4.139,2.458-5.186,4.686
			c-4.417,9.4-12.303,14.663-21.927,12.381c-6.969-1.652-13.382-1.473-20.128,0.109c-12.418,2.915-22.072,9.22-24.79,22.319
			c-2.787,13.43-1.69,26.721,9.535,36.33c18.928,16.205,46.681,8.232,53.869-15.327c1.442-4.726,3.487-6.54,8.182-7.31
			c7.763-1.271,13.881-5.564,17.569-12.688c0.576-1.114-0.137-2.896-0.254-4.37c-1.409,0.411-3.067,0.491-4.162,1.318
			c-1.277,0.964-2.009,2.624-3.071,3.904c-4.113,4.959-9.729,6.301-15.66,7.136c-0.84-3.876-1.536-7.09-2.299-10.614
			c13.518-2.548,17.275-13.572,21.308-24.228c0.404-1.068-0.854-2.767-1.34-4.174c-1.266,0.784-3.079,1.271-3.696,2.407
			c-2.061,3.795-3.581,7.879-5.521,11.745c-2.305,4.592-6.071,7.501-11.174,8.313c-1.255,0.2-3.13-0.122-3.912-0.959
			C337.045,400.297,335.102,397.415,332.569,394.112z M169.095,413.735c-5.625-2.826-10.651-5.338-11.214-12.172
			c-0.088-1.068-2.136-1.978-3.277-2.959c-0.707,1.462-2.056,2.945-2.012,4.385c0.231,7.742,5.838,11.358,11.688,14.919
			c1.882,1.146,4.124,3.331,4.368,5.272c1.495,11.894,7.426,20.449,18.688,24.306c11.952,4.094,23.527,2.446,33.23-6.112
			c11.758-10.371,13.858-24.486,6.232-37.912c-8.111-14.278-21.532-19.692-37.326-15.057c-6.813,2-12.173-1.136-14.465-8.013
			c-0.549-1.65-2.433-2.854-3.703-4.263c-0.536,1.978-2.118,4.511-1.417,5.834c2.396,4.523,5.595,8.62,8.513,12.918
			c-0.594,0.799-1.662,2.237-2.626,3.535c-4.949-2.084-7.936-5.031-9.056-9.915c-0.251-1.097-2.221-1.8-3.399-2.685
			c-0.669,1.356-1.838,2.698-1.875,4.071c-0.042,1.552,0.551,3.448,1.538,4.641c2.799,3.386,5.94,6.488,9.219,9.993
			C171.333,407.091,170.286,410.199,169.095,413.735z M282.496,474.975c-1.02,1.856-1.651,3.358-2.583,4.64
			c-4.174,5.737-7.831,12.018-12.8,16.973c-8.008,7.984-16.676,7.655-24.475-0.672c-4.724-5.043-8.463-11.031-12.462-16.724
			c-1.822-2.594-3.202-5.497-4.783-8.261c-0.684,0.23-1.367,0.461-2.05,0.692c1.433,7.662,2.281,15.493,4.419,22.952
			c4.946,17.257,26.431,25.288,41.764,16.021c9.517-5.753,16.866-22.585,14.753-33.903
			C284.208,476.313,283.617,476.029,282.496,474.975z"/>
		<path fill-rule="evenodd" clip-rule="evenodd" fill="#E98A8E" d="M145.952,469.119c1.142-5.147,4.841-7.652,9.622-7.935
			c6.564-0.389,13.177-0.128,19.761,0.101c1.754,0.061,3.985,0.521,5.11,1.667c2.413,2.459,5.672,5.334,5.986,8.313
			c0.478,4.525-3.044,8.947-7.47,9.317c-10.128,0.847-20.621,2.688-30.145-3.131c-0.688-0.421-1.243-1.061-1.861-1.6
			C146.621,473.606,146.287,471.363,145.952,469.119z"/>
		<path fill-rule="evenodd" clip-rule="evenodd" fill="#302F30" d="M332.569,394.112c2.532,3.303,4.476,6.185,6.817,8.692
			c0.782,0.837,2.657,1.159,3.912,0.959c5.103-0.812,8.869-3.721,11.174-8.313c1.94-3.866,3.461-7.95,5.521-11.745
			c0.617-1.136,2.431-1.623,3.696-2.407c0.486,1.407,1.744,3.105,1.34,4.174c-4.032,10.655-7.79,21.68-21.308,24.228
			c0.763,3.524,1.459,6.738,2.299,10.614c5.931-0.835,11.547-2.177,15.66-7.136c1.063-1.28,1.794-2.94,3.071-3.904
			c1.095-0.827,2.753-0.907,4.162-1.318c0.117,1.475,0.83,3.256,0.254,4.37c-3.688,7.123-9.807,11.416-17.569,12.688
			c-4.694,0.77-6.739,2.584-8.182,7.31c-7.188,23.56-34.941,31.532-53.869,15.327c-11.225-9.609-12.322-22.9-9.535-36.33
			c2.718-13.1,12.371-19.405,24.79-22.319c6.747-1.583,13.16-1.761,20.128-0.109c9.624,2.282,17.51-2.98,21.927-12.381
			c1.047-2.227,1.076-6.6,5.186-4.686c0.88,0.409,0.501,5.021-0.325,7.329C348.626,387.799,342.596,393.247,332.569,394.112z
			 M307.975,399.9c-6.688-0.066-12.051,5.117-12.259,11.849c-0.21,6.83,5.255,12.535,12.05,12.578
			c6.569,0.043,12.14-5.327,12.315-11.874C320.263,405.718,314.718,399.969,307.975,399.9z M331.299,439.1
			c-0.175-3.776-2.307-5.869-5.938-5.908c-3.742-0.04-5.945,2.424-5.938,5.967c0.008,3.538,2.135,5.922,5.974,5.86
			C329.133,444.958,331.152,442.923,331.299,439.1z"/>
		<path fill-rule="evenodd" clip-rule="evenodd" fill="#302F30" d="M169.095,413.735c1.191-3.536,2.239-6.645,3.104-9.214
			c-3.279-3.505-6.419-6.607-9.219-9.993c-0.987-1.192-1.58-3.088-1.538-4.641c0.037-1.373,1.206-2.715,1.875-4.071
			c1.178,0.884,3.147,1.587,3.399,2.685c1.12,4.884,4.106,7.831,9.056,9.915c0.964-1.298,2.032-2.736,2.626-3.535
			c-2.918-4.298-6.117-8.395-8.513-12.918c-0.701-1.323,0.881-3.856,1.417-5.834c1.27,1.408,3.154,2.613,3.703,4.263
			c2.292,6.877,7.651,10.013,14.465,8.013c15.794-4.635,29.215,0.779,37.326,15.057c7.626,13.426,5.526,27.541-6.232,37.912
			c-9.703,8.559-21.278,10.206-33.23,6.112c-11.262-3.856-17.193-12.412-18.688-24.306c-0.244-1.941-2.485-4.127-4.368-5.272
			c-5.85-3.561-11.457-7.177-11.688-14.919c-0.043-1.439,1.305-2.923,2.012-4.385c1.141,0.981,3.189,1.891,3.277,2.959
			C158.444,408.397,163.469,410.909,169.095,413.735z M191.639,397.707c-6.823,0.124-12.482,5.944-12.199,12.547
			c0.278,6.482,5.933,11.836,12.484,11.819c6.856-0.019,12.404-5.567,12.349-12.351
			C204.218,402.851,198.674,397.578,191.639,397.707z M204.677,433.249c0.343,3.441,2.398,5.664,6.041,5.605
			c3.707-0.061,5.858-2.543,5.724-6.147c-0.124-3.326-2.167-5.581-5.759-5.568C206.931,427.152,204.946,429.233,204.677,433.249z"/>
		<path fill-rule="evenodd" clip-rule="evenodd" fill="#976DFE" d="M339.125,469.073c2.236-13.511,10.859-22.617,22.852-26.738
			c15.633-5.371,22.125-16.675,23.53-31.263c0.77-7.992-1.893-16.341-3.21-24.496c-0.447-2.769-1.339-5.501-2.327-8.138
			c-5.86-15.615,4.216-27.046,15.202-32.003c18.533-8.362,29.813-6.66,40.743,7.557c5.012,6.519,8.912,14.786,10.568,22.827
			c5.042,24.469,3.594,48.896-4.153,72.804c-5.967,18.411-17.479,32.734-32.837,44.11c-10.184,7.543-22.317,9.09-34.428,10.242
			c-5.12,0.486-10.329,0.275-15.484,0.073c-8.563-0.336-14.616-5.442-16.745-13.786c2.397,0.032,4.791,0.065,7.186,0.099
			c2.673,2.23,5.219,6.18,8.043,6.39c11.564,0.857,23.387,1.371,34.555-2.512c20.707-7.199,33.464-22.759,41.527-42.316
			c7.918-19.205,9.319-39.547,7.826-60.034c-0.822-11.273-3.011-22.323-9.862-31.916c-7.308-10.229-16.169-14.047-25.88-10.411
			c-4.037,1.512-7.93,3.442-11.8,5.361c-7.806,3.87-10.86,10.414-8.506,18.996c3.517,12.815,7.037,25.514,6.277,39.094
			c-0.61,10.886-10.892,30.686-24.332,34.279c-10.764,2.879-19.09,10.013-21.798,21.836
			C343.757,469.11,341.44,469.092,339.125,469.073z"/>
		<path fill-rule="evenodd" clip-rule="evenodd" fill="#302F31" d="M282.496,474.975c1.121,1.055,1.712,1.338,1.784,1.719
			c2.113,11.318-5.236,28.15-14.753,33.903c-15.333,9.267-36.817,1.235-41.764-16.021c-2.138-7.459-2.986-15.29-4.419-22.952
			c0.683-0.231,1.367-0.462,2.05-0.692c1.581,2.764,2.96,5.667,4.783,8.261c3.999,5.692,7.738,11.681,12.462,16.724
			c7.798,8.327,16.466,8.656,24.475,0.672c4.969-4.955,8.626-11.235,12.8-16.973C280.845,478.333,281.476,476.831,282.496,474.975z"
			/>
		<path fill-rule="evenodd" clip-rule="evenodd" fill="#E88A8F" d="M339.125,469.073c2.315,0.019,4.632,0.037,6.947,0.056
			c4.264,0.329,8.778-0.093,12.71,1.227c3.032,1.018,6.083,3.768,7.764,6.564c1.944,3.24,0.078,6.462-2.733,9.14
			c-3.978,3.791-8.845,4.008-13.791,4.302c-2.395-0.033-4.788-0.066-7.186-0.099c-4.895-0.748-9.84-1.253-14.659-2.326
			c-3.762-0.838-5.863-3.561-6.043-7.557c-0.176-3.896,1.874-6.262,5.335-7.489C331.321,471.526,335.236,470.339,339.125,469.073z"
			/>
		<path fill-rule="evenodd" clip-rule="evenodd" fill="#F4F4F4" d="M307.975,399.9c6.743,0.068,12.288,5.817,12.106,12.553
			c-0.176,6.547-5.746,11.917-12.315,11.874c-6.795-0.043-12.26-5.748-12.05-12.578C295.923,405.018,301.286,399.834,307.975,399.9z
			"/>
		<path fill-rule="evenodd" clip-rule="evenodd" fill="#F4F4F4" d="M331.299,439.1c-0.146,3.823-2.166,5.858-5.901,5.919
			c-3.839,0.062-5.966-2.322-5.974-5.86c-0.008-3.543,2.195-6.007,5.938-5.967C328.992,433.23,331.124,435.323,331.299,439.1z"/>
		<path fill-rule="evenodd" clip-rule="evenodd" fill="#F7F7F7" d="M191.639,397.707c7.036-0.129,12.579,5.144,12.634,12.016
			c0.055,6.783-5.493,12.332-12.349,12.351c-6.552,0.017-12.206-5.337-12.484-11.819
			C179.156,403.651,184.815,397.831,191.639,397.707z"/>
		<path fill-rule="evenodd" clip-rule="evenodd" fill="#F6F6F6" d="M204.677,433.249c0.269-4.016,2.253-6.097,6.006-6.11
			c3.592-0.013,5.635,2.242,5.759,5.568c0.134,3.604-2.017,6.087-5.724,6.147C207.076,438.913,205.02,436.69,204.677,433.249z"/>
		<path fill-rule="evenodd" clip-rule="evenodd" fill="#AC8BFE" d="M350.021,490.361c4.946-0.294,9.813-0.511,13.791-4.302
			c2.812-2.678,4.678-5.899,2.733-9.14c-1.681-2.797-4.731-5.547-7.764-6.564c-3.932-1.319-8.446-0.897-12.71-1.227
			c2.708-11.823,11.034-18.957,21.798-21.836c13.44-3.594,23.722-23.394,24.332-34.279c0.76-13.58-2.761-26.279-6.277-39.094
			c-2.354-8.582,0.7-15.125,8.506-18.996c3.87-1.918,7.763-3.849,11.8-5.361c9.711-3.636,18.572,0.182,25.88,10.411
			c6.852,9.592,9.04,20.643,9.862,31.916c1.493,20.487,0.092,40.829-7.826,60.034c-8.063,19.558-20.82,35.117-41.527,42.316
			c-11.168,3.883-22.99,3.369-34.555,2.512C355.24,496.541,352.694,492.592,350.021,490.361z"/>
	</g>
</g>
</svg>
