<?xml version="1.0" encoding="utf-8"?>
<!-- Generator: Adobe Illustrator 16.0.3, SVG Export Plug-In . SVG Version: 6.00 Build 0)  -->
<!DOCTYPE svg PUBLIC "-//W3C//DTD SVG 1.1//EN" "http://www.w3.org/Graphics/SVG/1.1/DTD/svg11.dtd">
<svg version="1.1" id="Capa_1" xmlns="http://www.w3.org/2000/svg" xmlns:xlink="http://www.w3.org/1999/xlink" x="0px" y="0px"
	 width="612px" height="792px" viewBox="0 0 612 792" enable-background="new 0 0 612 792" xml:space="preserve">
<g>
	<g>
		<path fill-rule="evenodd" clip-rule="evenodd" fill="#FEFEFE" d="M51.022,654.116c0-170.981,0-341.965,0-513.032
			c170.919,0,341.861,0,512.948,0c0,170.955,0,341.994,0,513.032C393.038,654.116,222.041,654.116,51.022,654.116z M126.435,418.514
			c-0.758,0.104-1.516,0.209-2.274,0.313c1.02,10.074,1.558,20.228,3.188,30.203c1.82,11.14,5.127,21.932,15.342,28.653
			c7.101,4.674,10.627,11.155,11.437,19.462c1.131,11.606,6.656,20.661,15.974,27.675c5.444,4.099,10.602,8.61,15.642,13.206
			c8.25,7.522,17.558,11.579,28.981,11.161c7.79-0.285,15.686,0.131,23.419,1.128c6.533,0.843,13.591,1.707,19.204,4.777
			c14.086,7.71,28.669,10.23,44.345,7.938c10.018-1.465,20.856-1.278,28.913-8.132c9.146-7.78,19.651-9.674,30.882-10.935
			c19.613-2.204,35.928-11.097,49.673-25.238c5.285-5.437,11.274-10.285,17.394-14.79c7.493-5.518,15.656-10.121,23.179-15.6
			c14.269-10.391,24.752-23.753,26.501-41.746c0.92-9.445-1.049-19.163-1.633-28.764c-0.592-9.743-1.709-19.509-1.44-29.231
			c0.257-9.318-1.625-17.47-7.75-24.545c-4.637-5.355-7.01-11.604-7.449-18.664c-0.729-11.691-4.364-22.088-13.15-30.375
			c-4.749-4.479-8.665-9.543-9.919-16.349c-0.424-2.3-1.947-4.771-3.687-6.392c-7.903-7.366-15.78-14.782-26.604-18.009
			c-2.45-0.73-4.711-2.92-6.478-4.945c-3.821-4.379-6.726-9.711-11.049-13.444c-2.972-2.567-7.619-3.402-11.661-4.461
			c-4.237-1.111-8.88-0.94-12.924-2.455c-5.897-2.21-11.488-5.296-17.082-8.249c-6.812-3.596-13.854-5.02-21.636-4.663
			c-4.392,0.202-8.889-1.761-13.329-2.787c-4.15-0.958-8.559-3.375-12.377-2.648c-7.232,1.377-14.064,4.742-21.178,6.899
			c-4.481,1.359-9.131,2.378-13.779,2.914c-7.189,0.828-14.763,0.004-21.564,1.981c-5.331,1.549-10.282,3.192-15.905,2.817
			c-11.514-0.771-21.933,2.821-30.352,10.396c-12.11,10.894-23.5,22.587-35.232,33.905c-13.185,12.718-23.095,26.776-25.982,45.857
			c-1.779,11.751-7.716,22.876-11.803,34.276c-2.386,6.654-3.789,13.257-2.295,20.503
			C123.903,399.518,124.987,409.054,126.435,418.514z"/>
		<path fill-rule="evenodd" clip-rule="evenodd" fill="#C878AB" d="M126.435,418.514c-1.448-9.46-2.532-18.996-4.462-28.356
			c-1.493-7.247-0.09-13.85,2.295-20.503c4.087-11.4,10.024-22.525,11.803-34.276c2.888-19.081,12.798-33.139,25.982-45.857
			c11.731-11.318,23.122-23.011,35.232-33.905c8.419-7.575,18.838-11.167,30.352-10.396c5.623,0.375,10.575-1.268,15.905-2.817
			c6.801-1.977,14.375-1.153,21.564-1.981c4.648-0.536,9.298-1.555,13.779-2.914c7.114-2.157,13.946-5.521,21.178-6.899
			c3.818-0.727,8.227,1.69,12.377,2.648c4.44,1.026,8.938,2.989,13.329,2.787c7.782-0.357,14.824,1.067,21.636,4.663
			c5.594,2.953,11.185,6.039,17.082,8.249c4.044,1.515,8.687,1.344,12.924,2.455c4.042,1.059,8.689,1.894,11.661,4.461
			c4.323,3.733,7.228,9.065,11.049,13.444c1.767,2.025,4.027,4.215,6.478,4.945c10.823,3.228,18.7,10.643,26.604,18.009
			c1.739,1.622,3.263,4.092,3.687,6.392c1.254,6.806,5.17,11.87,9.919,16.349c8.786,8.287,12.422,18.684,13.15,30.375
			c0.439,7.06,2.813,13.308,7.449,18.664c6.125,7.075,8.007,15.227,7.75,24.545c-0.269,9.723,0.849,19.488,1.44,29.231
			c0.584,9.601,2.553,19.318,1.633,28.764c-1.749,17.993-12.232,31.355-26.501,41.746c-7.522,5.479-15.686,10.082-23.179,15.6
			c-6.119,4.505-12.108,9.354-17.394,14.79c-13.745,14.142-30.06,23.034-49.673,25.238c-11.23,1.261-21.735,3.154-30.882,10.935
			c-8.057,6.854-18.895,6.667-28.913,8.132c-15.675,2.293-30.258-0.228-44.345-7.938c-5.612-3.07-12.671-3.935-19.204-4.777
			c-7.733-0.997-15.629-1.413-23.419-1.128c-11.423,0.418-20.731-3.639-28.981-11.161c-5.04-4.596-10.198-9.107-15.642-13.206
			c-9.318-7.014-14.843-16.068-15.974-27.675c-0.809-8.307-4.336-14.788-11.437-19.462c-10.215-6.722-13.522-17.514-15.342-28.653
			c-1.629-9.976-2.167-20.129-3.188-30.203C124.919,418.723,125.677,418.618,126.435,418.514z M145.075,470.403
			c0.346,6.945,6.375,8.039,10.949,10.631c1.656,5.188,3.999,10.272,4.811,15.59c1.269,8.303,4.427,15.254,10.879,20.644
			c7.779,6.496,15.341,13.291,23.478,19.307c3.6,2.662,8.248,4.692,12.656,5.301c7.866,1.086,15.908,0.972,23.88,1.18
			c11.782,0.307,23.036,2.387,33.606,8.022c4.329,2.307,9.203,4.402,13.993,4.853c8.027,0.755,16.256,0.764,24.269-0.116
			c8.477-0.932,17.602-1.189,24.425-7.355c9.412-8.504,20.933-10.046,32.757-11.376c17.868-2.009,32.711-10.001,45.188-22.964
			c5.374-5.583,11.47-10.578,17.721-15.185c7.346-5.412,15.381-9.88,22.818-15.176c11.688-8.324,20.39-18.934,24.313-33.107
			c3.012-10.88-0.354-21.451-1.145-32.125c-0.72-9.708-3.503-19.188-1.745-29.158c1.304-7.396,0.067-14.574-5.422-20.493
			c-6.136-6.614-8.839-14.641-9.481-23.574c-0.604-8.401-2.447-16.428-8.619-22.817c-6.472-6.7-12.98-13.392-14.673-23.168
			c-0.182-1.047-1.042-2.152-1.887-2.883c-7.023-6.081-13.818-12.328-22.939-15.569c-3.944-1.401-7.366-4.715-10.549-7.672
			c-2.136-1.986-3.236-5.038-5.149-7.321c-3.844-4.585-7.532-9.76-14.928-7.084c-0.677,0.245-1.667-0.089-2.42-0.387
			c-7.686-3.049-15.563-5.718-22.965-9.352c-7.268-3.567-14.306-7.007-22.733-6.014c-6.479,0.762-12.463-0.604-18.099-4.202
			c-2.06-1.316-5.305-2.12-7.569-1.512c-6.361,1.706-12.711,3.807-18.654,6.62c-5.886,2.785-11.563,4.396-18.189,3.58
			c-5.199-0.639-11.408-1.623-15.67,0.522c-7.803,3.928-15.7,3.228-23.694,4.28c-7.169,0.945-15.527,2.769-20.683,7.271
			c-15.983,13.961-31.108,28.987-45.679,44.438c-5.536,5.87-10.853,13.573-12.404,21.223c-2.896,14.28-6.51,28.048-12.613,41.273
			c-2.964,6.422-6.588,13.166-4.31,20.54c3.406,11.024,3.93,22.208,3.354,33.559c-0.613,12.065,0.784,23.93,4.139,35.488
			C137.687,461.603,139.322,467.382,145.075,470.403z"/>
		<path fill-rule="evenodd" clip-rule="evenodd" fill="#E2B9F3" d="M145.075,470.403c-5.752-3.021-7.388-8.801-8.982-14.293
			c-3.355-11.559-4.752-23.423-4.139-35.488c0.576-11.351,0.052-22.535-3.354-33.559c-2.279-7.374,1.346-14.118,4.31-20.54
			c6.103-13.225,9.717-26.993,12.613-41.273c1.551-7.65,6.868-15.353,12.404-21.223c14.571-15.451,29.696-30.477,45.679-44.438
			c5.155-4.502,13.513-6.326,20.683-7.271c7.994-1.053,15.891-0.353,23.694-4.28c4.262-2.145,10.471-1.161,15.67-0.522
			c6.626,0.815,12.303-0.795,18.189-3.58c5.943-2.813,12.293-4.914,18.654-6.62c2.264-0.607,5.51,0.196,7.569,1.512
			c5.636,3.598,11.619,4.964,18.099,4.202c8.428-0.993,15.466,2.447,22.733,6.014c7.402,3.633,15.279,6.302,22.965,9.352
			c0.753,0.298,1.743,0.632,2.42,0.387c7.396-2.675,11.084,2.5,14.928,7.084c1.913,2.283,3.014,5.335,5.149,7.321
			c3.183,2.958,6.604,6.271,10.549,7.672c9.121,3.241,15.916,9.489,22.939,15.569c0.845,0.731,1.705,1.836,1.887,2.883
			c1.692,9.777,8.201,16.469,14.673,23.168c6.172,6.389,8.016,14.417,8.619,22.817c0.643,8.933,3.346,16.96,9.481,23.574
			c5.489,5.919,6.726,13.098,5.422,20.493c-1.758,9.97,1.025,19.45,1.745,29.158c0.791,10.674,4.156,21.245,1.145,32.125
			c-3.924,14.174-12.626,24.783-24.313,33.107c-7.438,5.296-15.473,9.764-22.818,15.176c-6.251,4.606-12.347,9.602-17.721,15.185
			c-12.478,12.963-27.32,20.955-45.188,22.964c-11.824,1.33-23.345,2.872-32.757,11.376c-6.823,6.166-15.948,6.424-24.425,7.355
			c-8.013,0.88-16.242,0.871-24.269,0.116c-4.79-0.45-9.664-2.546-13.993-4.853c-10.571-5.636-21.825-7.716-33.606-8.022
			c-7.972-0.208-16.014-0.094-23.88-1.18c-4.408-0.608-9.056-2.639-12.656-5.301c-8.136-6.016-15.698-12.811-23.478-19.307
			c-6.452-5.39-9.61-12.341-10.879-20.644c-0.813-5.317-3.155-10.401-4.811-15.59c6.654,0.037,13.311,0.192,19.963,0.072
			c5.48-0.1,9.83-4.091,10.65-9.375c0.57-3.677-2.796-8.444-7.944-9.489c-5.959-1.208-12.143-1.881-18.216-1.807
			C153.582,460.521,147.154,462.381,145.075,470.403z M338.969,469.826c-3.835,1.014-7.72,1.872-11.49,3.085
			c-3.503,1.128-5.53,3.586-5.345,7.491c0.19,4.009,2.312,6.75,6.092,7.543c5.168,1.084,10.458,1.591,15.695,2.346
			c2.058,6.987,6.949,10.844,13.948,11.676c4.386,0.521,8.884,0.185,13.329,0.114c37.437-0.592,59.893-25.692,69.668-55.786
			c6.007-18.494,7.577-37.726,5.158-57.15c-1.507-12.107-3.718-23.945-10.63-34.438c-7.028-10.668-15.75-18.546-29.444-16.479
			c-5.93,0.896-11.836,3.377-17.219,6.167c-11.632,6.029-17.851,17.574-12.704,30.872c1.319,3.41,2.438,6.913,3.4,10.442
			c3.027,11.122,5.916,22.363,1.621,33.746c-2.822,7.479-6.072,14.717-14.269,18.359c-5.555,2.469-10.997,5.445-15.942,8.965
			C343.075,452.304,339.208,460.227,338.969,469.826z M230.792,478.248c0.446,3.956,0.702,7.944,1.375,11.862
			c1.849,10.769,11.009,18.84,22.099,19.688c10.085,0.771,18.124-5.149,22.211-15.723c5.042-13.04,2.356-24.849-5.398-35.749
			c-6.988-9.822-19.672-11.204-28.875-3.453C234.997,460.942,230.414,468.357,230.792,478.248z M334.553,393.734
			c11.077-1.349,15.307-9.019,18.427-17.579c0.474-1.297-0.607-3.161-0.97-4.763c-1.372,0.832-3.176,1.362-4.019,2.565
			c-1.509,2.152-2.314,4.78-3.634,7.084c-3.396,5.938-12.697,9.531-19.022,7.045c-8.163-3.208-15.561-1.774-20.748,4.847
			c-4.847,6.187-8.39,13.441-12.118,20.434c-1.321,2.478-4.181,6.313,0.129,8.141c4.328,1.835,4.521-3.063,5.984-5.541
			c3.695-6.255,6.737-13.013,11.177-18.678c4.122-5.257,8.902-5.184,14.767-1.99c6.677,3.635,10.428,9.652,13.385,16.261
			c1.965,4.394,3.52,8.969,5.314,13.44c0.95,2.368,2.355,4.245,5.276,2.861c3.372-1.598,7.001-2.938,9.895-5.191
			c3.983-3.103,7.513-6.836,10.908-10.595c0.618-0.684-0.335-2.787-0.563-4.235c-1.291,0.358-2.87,0.374-3.806,1.158
			c-1.366,1.146-2.226,2.88-3.384,4.297c-3.346,4.094-7.855,5.691-13.11,6.478c-1.294-3.643-2.428-6.832-3.627-10.208
			c13.046-3.503,16.547-14.219,20.358-24.575c0.342-0.931-0.917-2.452-1.432-3.699c-1.207,0.609-2.853,0.917-3.526,1.893
			c-1.205,1.748-1.556,4.079-2.743,5.844c-2.997,4.459-5.809,9.192-9.566,12.941c-2.812,2.806-6.533,2.919-8.722-1.855
			C338.238,398.056,336.499,396.361,334.553,393.734z M165.184,410.987c-5.194-1.406-6.226-5.146-7.226-9.194
			c-0.314-1.271-2.322-2.124-3.555-3.168c-0.635,1.5-1.918,3.06-1.789,4.489c0.455,4.992,2.46,9.229,7.096,11.923
			c1.079,0.627,1.741,2.068,2.438,3.229c0.912,1.517,1.669,3.126,2.492,4.696c1.496-1.302,3.536-2.319,4.39-3.956
			c2.993-5.735,5.363-11.796,8.378-17.517c2.988-5.667,8.316-8.25,14.457-8.149c6.019,0.099,10.172,3.824,12.636,9.162
			c2.016,4.366,3.445,9.012,5.591,13.306c0.699,1.396,2.839,2.074,4.319,3.08c0.615-1.798,2.166-3.917,1.678-5.335
			c-1.936-5.635-4.077-11.287-6.945-16.489c-4.534-8.225-13.688-11.961-22.541-9.964c-6.49,1.462-9.422-0.477-11.634-6.96
			c-0.54-1.582-2.548-2.663-3.881-3.975c-0.506,1.866-1.908,4.082-1.342,5.529c1.458,3.727,3.786,7.113,5.916,10.902
			c-0.922,1.035-2.097,2.352-4.142,4.646c-1.725-3.096-2.934-5.689-4.548-7.998c-0.954-1.364-2.55-2.278-3.857-3.394
			c-0.538,1.719-1.996,3.854-1.443,5.083c1.78,3.958,4.301,7.582,7.049,12.196C167.925,404.901,166.579,407.891,165.184,410.987z"/>
		<path fill-rule="evenodd" clip-rule="evenodd" fill="#E98A8E" d="M145.075,470.403c2.079-8.022,8.507-9.883,15.401-9.968
			c6.074-0.074,12.257,0.599,18.216,1.807c5.148,1.045,8.515,5.813,7.944,9.489c-0.82,5.284-5.169,9.275-10.65,9.375
			c-6.652,0.12-13.309-0.035-19.963-0.072C151.45,478.442,145.421,477.349,145.075,470.403z"/>
		<path fill-rule="evenodd" clip-rule="evenodd" fill="#966BFD" d="M338.969,469.826c0.239-9.6,4.106-17.522,11.869-23.048
			c4.945-3.52,10.388-6.496,15.942-8.965c8.196-3.643,11.446-10.881,14.269-18.359c4.295-11.383,1.406-22.624-1.621-33.746
			c-0.962-3.529-2.081-7.032-3.4-10.442c-5.146-13.298,1.072-24.843,12.704-30.872c5.383-2.79,11.289-5.271,17.219-6.167
			c13.694-2.067,22.416,5.811,29.444,16.479c6.912,10.493,9.123,22.33,10.63,34.438c2.419,19.425,0.849,38.656-5.158,57.15
			c-9.775,30.094-32.231,55.194-69.668,55.786c-4.445,0.07-8.943,0.407-13.329-0.114c-6.999-0.832-11.891-4.688-13.946-11.678
			c2.696,0.011,5.391,0.023,8.084,0.035c1.106,3.644,3.939,4.703,7.328,4.752c4.663,0.066,9.383,0.472,13.979-0.086
			c10.02-1.212,20.37-2.061,29.013-7.843c16.648-11.138,27.667-26.577,32.729-46.017c4.157-15.965,6.267-32.104,4.127-48.686
			c-1.489-11.558-2.67-23.107-9.064-33.26c-5.484-8.709-12.296-15.988-23.678-13.917c-5.536,1.007-10.765,4.093-15.937,6.634
			c-8,3.933-11.067,11.594-8.353,19.959c1.334,4.109,2.808,8.176,4.06,12.31c4.22,13.93,6.223,27.924-0.274,41.726
			c-3.405,7.234-7.282,14.176-15.14,17.82c-5.075,2.353-10.089,4.933-14.824,7.898c-6.332,3.966-9.297,10.137-9.941,17.483
			C343.678,469.342,341.323,469.584,338.969,469.826z"/>
		<path fill-rule="evenodd" clip-rule="evenodd" fill="#2F2E2F" d="M230.792,478.248c-0.378-9.891,4.205-17.306,11.412-23.375
			c9.203-7.751,21.887-6.369,28.875,3.453c7.754,10.9,10.44,22.709,5.398,35.749c-4.087,10.573-12.126,16.493-22.211,15.723
			c-11.09-0.848-20.25-8.919-22.099-19.688C231.494,486.192,231.238,482.204,230.792,478.248z"/>
		<path fill-rule="evenodd" clip-rule="evenodd" fill="#343235" d="M334.553,393.734c1.946,2.627,3.686,4.321,4.631,6.381
			c2.188,4.774,5.91,4.661,8.722,1.855c3.758-3.749,6.569-8.482,9.566-12.941c1.188-1.765,1.538-4.097,2.743-5.844
			c0.674-0.977,2.319-1.284,3.526-1.893c0.515,1.248,1.773,2.768,1.432,3.699c-3.812,10.356-7.313,21.072-20.358,24.575
			c1.199,3.376,2.333,6.565,3.627,10.208c5.255-0.786,9.765-2.384,13.11-6.478c1.158-1.417,2.018-3.151,3.384-4.297
			c0.936-0.784,2.515-0.8,3.806-1.158c0.229,1.448,1.182,3.552,0.563,4.235c-3.396,3.759-6.925,7.492-10.908,10.595
			c-2.894,2.253-6.522,3.594-9.895,5.191c-2.921,1.384-4.326-0.493-5.276-2.861c-1.795-4.472-3.35-9.047-5.314-13.44
			c-2.957-6.609-6.708-12.626-13.385-16.261c-5.864-3.194-10.645-3.268-14.767,1.99c-4.44,5.665-7.481,12.423-11.177,18.678
			c-1.463,2.478-1.656,7.376-5.984,5.541c-4.31-1.827-1.45-5.663-0.129-8.141c3.728-6.992,7.271-14.247,12.118-20.434
			c5.187-6.621,12.584-8.055,20.748-4.847c6.325,2.486,15.626-1.107,19.022-7.045c1.319-2.304,2.125-4.933,3.634-7.084
			c0.843-1.203,2.646-1.733,4.019-2.565c0.362,1.602,1.443,3.465,0.97,4.763C349.859,384.716,345.63,392.385,334.553,393.734z"/>
		<path fill-rule="evenodd" clip-rule="evenodd" fill="#353336" d="M165.184,410.987c1.395-3.097,2.742-6.086,3.539-7.857
			c-2.748-4.614-5.269-8.238-7.049-12.196c-0.553-1.23,0.905-3.364,1.443-5.083c1.307,1.116,2.904,2.03,3.857,3.394
			c1.614,2.309,2.823,4.902,4.548,7.998c2.045-2.294,3.22-3.611,4.142-4.646c-2.13-3.789-4.458-7.175-5.916-10.902
			c-0.566-1.447,0.836-3.664,1.342-5.529c1.333,1.312,3.341,2.393,3.881,3.975c2.211,6.484,5.144,8.423,11.634,6.96
			c8.853-1.997,18.007,1.74,22.541,9.964c2.868,5.202,5.009,10.854,6.945,16.489c0.487,1.418-1.063,3.537-1.678,5.335
			c-1.48-1.006-3.62-1.684-4.319-3.08c-2.146-4.294-3.576-8.939-5.591-13.306c-2.463-5.338-6.617-9.063-12.636-9.162
			c-6.14-0.101-11.469,2.482-14.457,8.149c-3.016,5.721-5.385,11.781-8.378,17.517c-0.854,1.637-2.894,2.654-4.39,3.956
			c-0.823-1.57-1.58-3.18-2.492-4.696c-0.698-1.161-1.36-2.603-2.438-3.229c-4.636-2.693-6.642-6.931-7.096-11.923
			c-0.13-1.43,1.153-2.989,1.789-4.489c1.233,1.044,3.241,1.897,3.555,3.168C158.958,405.842,159.99,409.581,165.184,410.987z"/>
		<path fill-rule="evenodd" clip-rule="evenodd" fill="#E88A8F" d="M338.969,469.826c2.354-0.242,4.709-0.484,7.063-0.728
			c4.111,0.327,8.225,0.63,12.332,0.986c4.53,0.393,7.32,3.105,8.472,7.234c1.146,4.112-0.206,7.766-4.184,9.578
			c-3.37,1.534-7.084,2.313-10.646,3.427c-2.693-0.012-5.388-0.024-8.084-0.035c-5.239-0.753-10.529-1.26-15.697-2.344
			c-3.78-0.793-5.901-3.534-6.092-7.543c-0.186-3.905,1.842-6.363,5.345-7.491C331.249,471.698,335.134,470.84,338.969,469.826z"/>
		<path fill-rule="evenodd" clip-rule="evenodd" fill="#AC8BFE" d="M352.007,490.324c3.562-1.113,7.275-1.893,10.646-3.427
			c3.978-1.813,5.329-5.466,4.184-9.578c-1.151-4.129-3.941-6.842-8.472-7.234c-4.107-0.356-8.221-0.659-12.332-0.986
			c0.645-7.347,3.609-13.518,9.941-17.483c4.735-2.966,9.749-5.546,14.824-7.898c7.857-3.645,11.734-10.586,15.14-17.82
			c6.497-13.802,4.494-27.796,0.274-41.726c-1.252-4.134-2.726-8.2-4.06-12.31c-2.715-8.365,0.353-16.026,8.353-19.959
			c5.172-2.542,10.4-5.627,15.937-6.634c11.382-2.072,18.193,5.208,23.678,13.917c6.395,10.153,7.575,21.702,9.064,33.26
			c2.14,16.583,0.03,32.721-4.127,48.686c-5.063,19.439-16.081,34.879-32.729,46.017c-8.643,5.782-18.993,6.631-29.013,7.843
			c-4.597,0.558-9.316,0.152-13.979,0.086C355.946,495.027,353.113,493.968,352.007,490.324z"/>
	</g>
</g>
</svg>
