<?xml version="1.0" encoding="utf-8"?>
<!-- Generator: Adobe Illustrator 16.0.3, SVG Export Plug-In . SVG Version: 6.00 Build 0)  -->
<!DOCTYPE svg PUBLIC "-//W3C//DTD SVG 1.1//EN" "http://www.w3.org/Graphics/SVG/1.1/DTD/svg11.dtd">
<svg version="1.1" id="Capa_1" xmlns="http://www.w3.org/2000/svg" xmlns:xlink="http://www.w3.org/1999/xlink" x="0px" y="0px"
	 width="612px" height="792px" viewBox="0 0 612 792" enable-background="new 0 0 612 792" xml:space="preserve">
<g>
	<g>
		<path fill-rule="evenodd" clip-rule="evenodd" fill="#FEFEFE" d="M51.05,654.116c0-170.963,0-341.928,0-513.004
			c170.873,0,341.796,0,512.892,0c0,170.927,0,341.966,0,513.004C393.094,654.116,222.097,654.116,51.05,654.116z M487.722,561.797
			c0.422,0.85,0.845,1.698,1.268,2.549c3.383-1.59,6.735-3.25,10.16-4.742c2.21-0.962,4.478-2.184,6.806-2.409
			c7.947-0.77,11.984-5.717,9.168-13.034c-1.447-3.762-0.465-5.894,1.676-8.388c0.753-0.874,1.905-1.823,1.972-2.801
			c0.52-7.586,2.37-15.528,0.796-22.698c-2.037-9.28-6.196-18.299-10.675-26.779c-4.507-8.535-11.669-14.232-22.352-13.486
			c-4.271,0.298-8.629-0.339-12.853,0.2c-2.551,0.325-5.625,1.482-7.224,3.335c-3.366,3.901-7.334,6.393-12.256,6.588
			c-8.813,0.35-15.523,3.857-20.051,11.46c-0.164,0.276-0.44,0.508-0.708,0.698c-9.588,6.804-15.156,15.494-15.988,27.767
			c-0.517,7.613-0.022,14.11,5.135,19.877c1.546,1.729,2.899,3.636,4.477,5.335c6.623,7.143,13.83,12.794,24.61,11.045
			c1.543-0.25,4.126,1.7,5.172,3.316c5.678,8.772,15.595,11.521,22.803,6.25C482.057,564.125,485.017,563.135,487.722,561.797z
			 M493.114,228.872c0.502-8.797-0.527-16.58-6.104-23.303c-2-2.41-3.539-5.328-4.733-8.242c-1.165-2.845-1.32-6.102-2.482-8.948
			c-0.944-2.312-2.249-5.301-4.219-6.221c-6.926-3.233-13.862-6.482-22.112-5.27c-11.733,1.724-21.682,5.118-26.703,17.421
			c-2.649,6.492-7.295,12.143-10.577,18.415c-1.383,2.642-2.442,5.999-2.149,8.877c1.149,11.294,6.102,21.374,11.798,30.953
			c1.112,1.871,4.968,2.438,7.681,2.948c3.501,0.658,7.222,0.248,10.671,1.056c3.354,0.785,6.444,2.639,9.723,3.826
			c7.713,2.792,12.128,1.403,17.437-4.85c1.202-1.416,3.091-2.476,4.872-3.135C487.854,248.089,493.022,240.836,493.114,228.872z
			 M143.897,250.133c-5.117,1.155-9.359,0.98-12.028,2.943c-6.07,4.465-11.848,8.88-19.258,11.284
			c-5.045,1.637-7.796,6.468-8.801,11.929c-1.195,6.497-4.249,13.207-3.379,19.385c1.085,7.703,5.352,14.959,8.252,22.406
			c0.057,0.145,0.212,0.254,0.33,0.372c3.043,3.035,6.464,5.781,9.055,9.162c5.587,7.293,14.581,7.661,21.269,6.805
			c11.918-1.523,23.959-5.483,30.938-17.354c5.015-8.528,9.761-16.988,8.79-27.405c-0.584-6.263-0.71-12.576-1.479-18.812
			c-1.191-9.666-4.767-12.557-14.556-12.906c-1.836-0.065-3.692-0.993-5.444-1.743C152.696,254.106,147.855,251.896,143.897,250.133
			z M146.303,513.88c-9.502-0.898-18.236,1.021-26.341,6.36c-6.308,4.155-8.206,7.854-6.75,14.84
			c1.003,4.814,1.381,9.78,1.745,14.699c0.502,6.777,0.485,13.6,1.207,20.349c0.242,2.267,1.575,4.882,3.244,6.448
			c5.979,5.612,12.577,10.719,21.095,11.254c4.811,0.302,10.417,0.229,14.393-1.972c3.844-2.129,6.889-3.002,11.028-2.203
			c3.665,0.707,6.178-0.851,6.083-5.107c-0.092-4.125,1.401-7.153,5.138-9.479c3.423-2.131,5.985-4.99,4.235-10
			c-0.812-2.322-0.207-5.506,0.656-7.984c3.672-10.549,3.735-13.834-3.469-19.732c-2.312-1.894-4.615-3.802-6.831-5.804
			C164.449,518.964,156.031,514.79,146.303,513.88z"/>
		<path fill-rule="evenodd" clip-rule="evenodd" fill="#FCAACD" d="M487.722,561.797c-2.705,1.338-5.665,2.328-8.064,4.082
			c-7.208,5.271-17.125,2.522-22.803-6.25c-1.046-1.616-3.629-3.566-5.172-3.316c-10.78,1.749-17.987-3.902-24.61-11.045
			c-1.577-1.699-2.931-3.605-4.477-5.335c-5.157-5.767-5.651-12.264-5.135-19.877c0.832-12.272,6.4-20.963,15.988-27.767
			c0.268-0.19,0.544-0.422,0.708-0.698c4.527-7.603,11.238-11.11,20.051-11.46c4.922-0.195,8.89-2.687,12.256-6.588
			c1.599-1.853,4.673-3.01,7.224-3.335c4.224-0.539,8.582,0.098,12.853-0.2c10.683-0.746,17.845,4.951,22.352,13.486
			c4.479,8.48,8.638,17.499,10.675,26.779c1.574,7.17-0.276,15.112-0.796,22.698c-0.066,0.978-1.219,1.927-1.972,2.801
			c-2.141,2.494-3.123,4.626-1.676,8.388c2.816,7.317-1.221,12.265-9.168,13.034c-2.328,0.226-4.596,1.447-6.806,2.409
			c-3.425,1.492-6.777,3.152-10.16,4.742C488.566,563.495,488.144,562.646,487.722,561.797z M483.276,473.058
			c-3.871,0-6.396-0.222-8.854,0.083c-1.478,0.183-3.397,0.796-4.179,1.887c-3.563,4.975-8.549,6.896-14.268,8.207
			c-4.974,1.139-10.65,0.057-14.633,4.949c-4.182,5.137-9.215,9.575-13.455,14.67c-2.24,2.691-4.031,5.969-5.212,9.271
			c-1.321,3.692-2.261,7.7-2.354,11.595c-0.079,3.271,0.378,7.255,2.209,9.731c4.118,5.574,8.783,10.961,14.12,15.33
			c3.072,2.516,8.1,4.409,11.875,3.889c5.784-0.798,8.93,0.495,11.733,5.496c3.831,6.832,11.799,8.025,18.156,3.939
			c2.579-1.658,5.94-2.668,9.013-2.852c4.222-0.253,8.099-0.088,11.225-3.85c1.172-1.41,3.818-1.957,5.876-2.204
			c7.77-0.935,8.625-2.197,7.146-10.239c-0.395-2.15-0.608-5.246,0.582-6.606c3.705-4.233,4.279-8.613,2.94-13.795
			c-0.428-1.656,0.354-3.594,0.389-5.406c0.063-3.114,0.787-6.526-0.21-9.292c-2.683-7.441-5.614-14.891-9.399-21.817
			C500.917,476.783,493.37,470.993,483.276,473.058z"/>
		<path fill-rule="evenodd" clip-rule="evenodd" fill="#FCA9CC" d="M493.114,228.872c-0.092,11.965-5.261,19.217-16.9,23.528
			c-1.781,0.659-3.67,1.719-4.872,3.135c-5.309,6.252-9.724,7.642-17.437,4.85c-3.278-1.187-6.369-3.041-9.723-3.826
			c-3.449-0.808-7.17-0.397-10.671-1.056c-2.713-0.511-6.568-1.078-7.681-2.948c-5.696-9.579-10.648-19.659-11.798-30.953
			c-0.293-2.878,0.767-6.235,2.149-8.877c3.282-6.272,7.928-11.923,10.577-18.415c5.021-12.303,14.97-15.697,26.703-17.421
			c8.25-1.212,15.187,2.037,22.112,5.27c1.97,0.92,3.274,3.909,4.219,6.221c1.162,2.846,1.317,6.103,2.482,8.948
			c1.194,2.914,2.733,5.832,4.733,8.242C492.587,212.292,493.616,220.075,493.114,228.872z M491.158,228.289
			c-1.606-5.83-1.794-12.716-5.159-17.235c-4.849-6.511-7.786-13.336-9.724-20.934c-0.39-1.526-0.939-3.718-2.052-4.236
			c-6.229-2.897-12.254-5.93-19.776-5.077c-12.757,1.447-21.776,6.868-26.124,19.425c-1.385,4.002-3.532,7.929-6.12,11.28
			c-3.935,5.095-6.672,9.723-3.252,16.446c3.215,6.321,5.253,13.231,8.051,19.779c1.143,2.672,2.889,3.983,6.578,3.651
			c4.257-0.384,8.752,0.94,13.028,1.993c4.002,0.984,7.778,2.964,11.801,3.751c2.021,0.396,4.639-0.422,6.518-1.504
			c4.235-2.441,8.067-5.573,12.265-8.088C484.479,243.174,490.247,237.917,491.158,228.289z"/>
		<path fill-rule="evenodd" clip-rule="evenodd" fill="#FCAACC" d="M143.897,250.133c3.958,1.762,8.799,3.973,13.689,6.067
			c1.752,0.75,3.608,1.677,5.444,1.743c9.789,0.35,13.365,3.241,14.556,12.906c0.769,6.236,0.895,12.549,1.479,18.812
			c0.971,10.417-3.775,18.877-8.79,27.405c-6.979,11.87-19.02,15.83-30.938,17.354c-6.688,0.856-15.681,0.488-21.269-6.805
			c-2.591-3.381-6.012-6.127-9.055-9.162c-0.118-0.118-0.273-0.228-0.33-0.372c-2.901-7.446-7.167-14.703-8.252-22.406
			c-0.87-6.179,2.185-12.889,3.379-19.385c1.005-5.461,3.756-10.292,8.801-11.929c7.411-2.404,13.188-6.819,19.258-11.284
			C134.538,251.113,138.78,251.288,143.897,250.133z M176.417,288.12c-1.167-6.443-2.238-13.655-3.842-20.746
			c-0.981-4.335-3.958-6.263-8.757-6.538c-3.933-0.225-7.796-2.088-11.629-3.403c-1.383-0.474-2.513-1.671-3.89-2.181
			c-7.539-2.793-13.933-0.681-19.701,4.567c-2.396,2.18-4.982,5.114-7.847,5.616c-6.119,1.072-12.546,5.974-13.668,12.128
			c-1.034,5.67-2.203,11.327-2.913,17.039c-0.217,1.748,0.771,3.703,1.417,5.486c1.04,2.875,2.271,5.679,3.388,8.525
			c0.829,2.11,1.048,4.794,2.505,6.263c6.313,6.364,10.994,15.385,22.102,14.619c1.077-0.074,2.194,0.894,3.321,0.977
			c2.101,0.156,4.356,0.47,6.309-0.099c4.136-1.204,8.427-2.404,12.11-4.543C169.387,317.665,174.622,304.314,176.417,288.12z"/>
		<path fill-rule="evenodd" clip-rule="evenodd" fill="#FCAACC" d="M146.303,513.88c9.728,0.91,18.146,5.084,25.432,11.669
			c2.216,2.002,4.519,3.91,6.831,5.804c7.204,5.898,7.141,9.184,3.469,19.732c-0.863,2.479-1.467,5.662-0.656,7.984
			c1.75,5.01-0.812,7.869-4.235,10c-3.737,2.325-5.229,5.354-5.138,9.479c0.095,4.257-2.418,5.814-6.083,5.107
			c-4.139-0.799-7.185,0.074-11.028,2.203c-3.976,2.2-9.582,2.273-14.393,1.972c-8.518-0.535-15.116-5.642-21.095-11.254
			c-1.669-1.566-3.002-4.182-3.244-6.448c-0.721-6.749-0.705-13.571-1.207-20.349c-0.364-4.919-0.742-9.885-1.745-14.699
			c-1.456-6.986,0.443-10.685,6.75-14.84C128.067,514.9,136.801,512.981,146.303,513.88z M168.371,579.792
			c1.571-7.974,1.661-7.878,8.71-14.518c1.224-1.152,2.167-3.692,1.799-5.25c-1.314-5.562,0.523-10.386,2.243-15.43
			c0.604-1.773,0.6-4.953-0.503-5.919c-7.697-6.744-14.891-14.974-23.906-19.079c-12.597-5.735-25.904-4.031-37.466,5.191
			c-2.605,2.078-4.05,4.293-3.138,7.144c1.933,6.042,2.79,11.903,2.217,18.398c-0.571,6.48,0.911,13.158,1.698,19.726
			c0.182,1.522,0.831,3.317,1.887,4.354c7.541,7.401,16.382,11.74,27.264,10.678c1.107-0.107,2.622-0.275,3.187-1.004
			c3.521-4.546,7.907-5.614,13.254-4.015C166.461,580.321,167.511,579.895,168.371,579.792z"/>
		<path fill-rule="evenodd" clip-rule="evenodd" fill="#F6DBEB" d="M483.276,473.058c10.094-2.064,17.641,3.726,22.7,12.985
			c3.785,6.927,6.717,14.376,9.399,21.817c0.997,2.766,0.272,6.178,0.21,9.292c-0.035,1.813-0.816,3.75-0.389,5.406
			c1.339,5.182,0.765,9.562-2.94,13.795c-1.19,1.36-0.977,4.456-0.582,6.606c1.479,8.042,0.623,9.305-7.146,10.239
			c-2.058,0.247-4.704,0.794-5.876,2.204c-3.126,3.762-7.003,3.597-11.225,3.85c-3.072,0.184-6.434,1.193-9.013,2.852
			c-6.357,4.086-14.325,2.893-18.156-3.939c-2.804-5.001-5.949-6.294-11.733-5.496c-3.775,0.521-8.803-1.373-11.875-3.889
			c-5.337-4.369-10.002-9.756-14.12-15.33c-1.831-2.477-2.288-6.46-2.209-9.731c0.094-3.895,1.033-7.902,2.354-11.595
			c1.181-3.302,2.972-6.579,5.212-9.271c4.24-5.095,9.273-9.533,13.455-14.67c3.982-4.893,9.659-3.811,14.633-4.949
			c5.719-1.311,10.704-3.232,14.268-8.207c0.781-1.091,2.701-1.704,4.179-1.887C476.881,472.836,479.405,473.058,483.276,473.058z"
			/>
		<path fill-rule="evenodd" clip-rule="evenodd" fill="#F6DBEB" d="M491.158,228.289c-0.911,9.628-6.679,14.885-13.967,19.251
			c-4.197,2.515-8.029,5.647-12.265,8.088c-1.879,1.082-4.496,1.9-6.518,1.504c-4.022-0.787-7.799-2.767-11.801-3.751
			c-4.276-1.052-8.771-2.376-13.028-1.993c-3.689,0.332-5.436-0.979-6.578-3.651c-2.798-6.547-4.836-13.458-8.051-19.779
			c-3.42-6.723-0.683-11.351,3.252-16.446c2.588-3.351,4.735-7.278,6.12-11.28c4.348-12.558,13.367-17.979,26.124-19.425
			c7.522-0.853,13.547,2.18,19.776,5.077c1.112,0.518,1.662,2.71,2.052,4.236c1.938,7.598,4.875,14.422,9.724,20.934
			C489.364,215.573,489.552,222.459,491.158,228.289z"/>
		<path fill-rule="evenodd" clip-rule="evenodd" fill="#F6DBEB" d="M176.417,288.12c-1.794,16.195-7.03,29.545-21.094,37.711
			c-3.684,2.139-7.974,3.339-12.11,4.543c-1.953,0.569-4.208,0.254-6.309,0.099c-1.127-0.083-2.244-1.051-3.321-0.977
			c-11.108,0.767-15.789-8.255-22.102-14.619c-1.458-1.469-1.676-4.153-2.505-6.263c-1.118-2.846-2.349-5.65-3.388-8.525
			c-0.646-1.783-1.635-3.739-1.417-5.486c0.709-5.712,1.879-11.369,2.913-17.039c1.122-6.154,7.549-11.056,13.668-12.128
			c2.865-0.502,5.451-3.436,7.847-5.616c5.768-5.249,12.162-7.36,19.701-4.567c1.377,0.51,2.506,1.707,3.89,2.181
			c3.833,1.314,7.696,3.178,11.629,3.403c4.8,0.274,7.776,2.203,8.757,6.538C174.179,274.465,175.25,281.677,176.417,288.12z"/>
		<path fill-rule="evenodd" clip-rule="evenodd" fill="#F6DBEB" d="M168.371,579.792c-0.86,0.103-1.909,0.529-2.754,0.276
			c-5.348-1.6-9.734-0.531-13.254,4.015c-0.565,0.729-2.08,0.896-3.187,1.004c-10.882,1.063-19.723-3.276-27.264-10.678
			c-1.056-1.036-1.705-2.831-1.887-4.354c-0.788-6.567-2.27-13.245-1.698-19.726c0.573-6.495-0.284-12.356-2.217-18.398
			c-0.912-2.851,0.533-5.065,3.138-7.144c11.563-9.223,24.87-10.927,37.466-5.191c9.016,4.105,16.209,12.335,23.906,19.079
			c1.103,0.966,1.107,4.146,0.503,5.919c-1.719,5.044-3.557,9.868-2.243,15.43c0.368,1.558-0.575,4.098-1.799,5.25
			C170.031,571.914,169.942,571.818,168.371,579.792z"/>
	</g>
</g>
</svg>
