<?xml version="1.0" encoding="utf-8"?>
<!-- Generator: Adobe Illustrator 16.0.3, SVG Export Plug-In . SVG Version: 6.00 Build 0)  -->
<!DOCTYPE svg PUBLIC "-//W3C//DTD SVG 1.1//EN" "http://www.w3.org/Graphics/SVG/1.1/DTD/svg11.dtd">
<svg version="1.1" id="Capa_1" xmlns="http://www.w3.org/2000/svg" xmlns:xlink="http://www.w3.org/1999/xlink" x="0px" y="0px"
	 width="612px" height="792px" viewBox="0 0 612 792" enable-background="new 0 0 612 792" xml:space="preserve">
<g>
	<g>
		<path fill-rule="evenodd" clip-rule="evenodd" fill="#FEFEFE" d="M51.013,654.116c-0.004-170.99-0.004-341.982-0.004-513.045
			c170.941,0,341.892,0,512.974,0c0,170.968,0,342.007,0,513.045C393.012,654.116,222.015,654.116,51.013,654.116z M147.837,477.102
			c1.724,8.087,4.23,16.101,4.981,24.276c1.008,10.981,5.376,19.118,15.518,23.683c7.402,3.332,12.881,8.482,17.169,15.386
			c6.822,10.98,13.516,13.446,26.232,10.889c18.577-3.736,36.958-4.906,54.575,4.294c2.452,1.28,5.344,1.92,8.112,2.358
			c23.8,3.771,47.419,3.288,70.706-3.468c9.962-2.89,20.016-5.76,26.035-15.31c4.105-6.514,9.8-9.446,17.55-9.338
			c9.153,0.129,17.214-3.085,22.419-10.888c5.129-7.688,12.066-12.374,20.825-14.349c14.118-3.184,22.505-11.637,26.245-25.65
			c1.047-3.921,4.939-7.118,7.648-10.551c2.742-3.476,6.844-6.398,8.251-10.317c5.751-16.021,8.107-32.262-0.162-48.417
			c-2.88-5.629-3.08-11.598-2.093-17.972c1.179-7.619,2.333-15.613,1.274-23.133c-2.635-18.745-12.706-33.744-26.844-45.977
			c-5.896-5.101-9.188-10.827-9.464-18.892c-0.157-4.562-2.073-9.472-4.469-13.461c-5.007-8.342-12.591-14.146-21.51-17.991
			c-7.725-3.331-15.021-6.939-19.78-14.463c-2.944-4.654-7.798-6.219-13.323-6.601c-4.652-0.322-9.271-1.536-13.832-2.655
			c-3.989-0.979-7.804-3.029-11.82-3.468c-12.365-1.355-24.335-4.035-35.252-10.053c-8.555-4.715-16.869-5.864-26.272-2.434
			c-12.595,4.595-25.174,9.638-39.25,7.687c-2.737-0.379-5.882,2.454-8.889,3.682c-3.56,1.454-7.075,3.499-10.785,4.006
			c-8.383,1.145-16.883,1.407-25.313,2.259c-1.701,0.172-3.655,0.99-4.883,2.153c-6.521,6.174-12.596,12.837-19.311,18.784
			c-6.8,6.024-13.691,12.196-21.417,16.855c-7.799,4.704-12.709,10.477-13.679,19.5c-0.777,7.236-3.021,13.64-7.704,19.585
			c-5.682,7.212-8.15,15.559-6.679,25.271c1.538,10.146,1.778,20.441-1.254,30.658c-3.113,10.488-5.763,21.159-7.802,31.906
			c-1.671,8.807-2.787,18.012,2.306,26.25c6.105,9.874,12.623,19.494,18.963,29.221
			C145.854,472.643,146.845,474.873,147.837,477.102z"/>
		<path fill-rule="evenodd" clip-rule="evenodd" fill="#C878AC" d="M144.861,470.417c-6.339-9.729-12.856-19.35-18.962-29.224
			c-5.093-8.238-3.977-17.443-2.306-26.25c2.039-10.747,4.688-21.418,7.802-31.906c3.032-10.217,2.792-20.513,1.254-30.658
			c-1.471-9.711,0.997-18.058,6.679-25.271c4.683-5.946,6.926-12.35,7.704-19.585c0.97-9.022,5.879-14.795,13.679-19.5
			c7.725-4.659,14.616-10.832,21.417-16.855c6.715-5.947,12.79-12.609,19.311-18.784c1.228-1.163,3.182-1.981,4.883-2.153
			c8.429-0.853,16.93-1.114,25.313-2.259c3.71-0.507,7.226-2.552,10.785-4.006c3.007-1.229,6.152-4.062,8.889-3.682
			c14.076,1.952,26.655-3.092,39.25-7.687c9.403-3.43,17.717-2.281,26.272,2.434c10.917,6.018,22.887,8.698,35.252,10.053
			c4.017,0.439,7.831,2.489,11.82,3.468c4.561,1.12,9.18,2.333,13.832,2.655c5.525,0.382,10.379,1.947,13.323,6.601
			c4.76,7.524,12.056,11.132,19.78,14.463c8.919,3.845,16.503,9.649,21.51,17.991c2.396,3.989,4.312,8.899,4.469,13.461
			c0.276,8.065,3.568,13.791,9.464,18.892c14.138,12.233,24.209,27.232,26.844,45.977c1.059,7.521-0.096,15.514-1.274,23.133
			c-0.987,6.375-0.787,12.343,2.093,17.972c8.27,16.155,5.913,32.396,0.162,48.417c-1.407,3.919-5.509,6.842-8.251,10.317
			c-2.709,3.433-6.602,6.63-7.648,10.551c-3.74,14.014-12.127,22.467-26.245,25.65c-8.759,1.975-15.696,6.66-20.825,14.349
			c-5.205,7.803-13.266,11.017-22.419,10.888c-7.75-0.108-13.444,2.824-17.55,9.338c-6.02,9.55-16.073,12.42-26.035,15.31
			c-23.286,6.756-46.906,7.238-70.706,3.468c-2.768-0.438-5.66-1.078-8.112-2.358c-17.617-9.2-35.998-8.03-54.575-4.294
			c-12.717,2.558-19.411,0.092-26.232-10.889c-4.288-6.903-9.767-12.054-17.169-15.386c-10.141-4.564-14.509-12.701-15.518-23.683
			c-0.751-8.176-3.257-16.189-4.981-24.276c3.046,1.266,6.091,2.53,9.136,3.795c1.003,7.05,2.354,14.07,2.914,21.154
			c0.591,7.467,3.475,13.029,10.423,16.246c8.991,4.16,16.072,10.351,21.284,18.924c4.874,8.019,9.312,9.539,18.668,7.614
			c1.626-0.334,3.218-1.129,4.836-1.158c12.565-0.23,25.191-1.096,37.674-0.141c6.363,0.487,12.299,5.094,18.722,6.509
			c26.879,5.925,53.46,4.262,79.579-4.476c6.496-2.173,11.939-5.698,15.673-11.658c4.995-7.976,12.594-10.934,21.679-10.823
			c7.752,0.095,13.933-3.044,18.273-9.408c5.646-8.279,13.502-13.221,23.052-15.494c10.899-2.593,18.689-8.131,21.234-19.76
			c1.557-7.106,5.501-12.74,12.041-16.393c1.241-0.693,2.535-1.86,3.094-3.123c6.09-13.748,9.25-27.938,3.076-42.396
			c-4.267-9.992-5.988-19.673-3.159-30.461c1.422-5.423,1.345-11.656,0.327-17.227c-3.243-17.748-13.056-31.691-26.749-43.155
			c-4.549-3.808-7.811-8.497-8.655-14.679c-0.956-6.985-0.4-14.684-6.369-19.893c-5.089-4.44-10.33-8.952-16.185-12.211
			c-8.431-4.692-17.325-8.288-23.04-16.86c-1.43-2.144-5.425-3.911-8.037-3.667c-6.134,0.572-11.405-1.06-16.723-3.577
			c-2.513-1.189-5.195-2.452-7.899-2.734c-13.846-1.443-27.288-4.41-39.535-11.147c-7.129-3.922-13.719-4.338-21.406-1.513
			c-12.579,4.624-25.215,9.534-39.228,7.791c-2.288-0.285-4.878,2.194-7.385,3.261c-3.72,1.583-7.377,3.573-11.272,4.407
			c-3.508,0.751-7.38-0.303-10.948,0.299c-6.586,1.109-13.896,1.449-19.372,4.695c-6.247,3.703-10.576,10.504-16.18,15.459
			c-7.417,6.557-14.852,13.247-23.066,18.693c-5.528,3.665-9.572,7.289-10.427,14.103c-1.061,8.457-3.296,16.272-9.132,23.217
			c-4.952,5.894-6.444,13.259-5.301,21.572c1.156,8.417,1.206,17.384-0.405,25.694c-2.798,14.439-8.276,28.265-9.616,43.146
			c-0.755,8.392,1.267,15.112,6.292,21.737c4.673,6.161,8.272,13.137,12.344,19.753C146.999,465.618,145.93,468.017,144.861,470.417
			z"/>
		<path fill-rule="evenodd" clip-rule="evenodd" fill="#E98A8E" d="M156.973,480.896c-3.045-1.265-6.09-2.529-9.136-3.795
			c-0.992-2.229-1.983-4.459-2.976-6.687c1.069-2.398,2.137-4.797,3.206-7.198c9.771-3.432,19.687-3.595,29.689-1.23
			c5.488,1.296,9.32,5.63,8.834,9.816c-0.582,5.02-5.09,9.153-10.719,9.287C169.577,481.24,163.273,480.979,156.973,480.896z"/>
		<path fill-rule="evenodd" clip-rule="evenodd" fill="#E1B9F2" d="M156.973,480.896c6.3,0.082,12.604,0.344,18.898,0.193
			c5.629-0.134,10.137-4.268,10.719-9.287c0.486-4.187-3.346-8.521-8.834-9.816c-10.002-2.364-19.918-2.201-29.689,1.23
			c-4.071-6.614-7.671-13.59-12.344-19.751c-5.025-6.625-7.046-13.346-6.292-21.737c1.34-14.881,6.818-28.707,9.616-43.146
			c1.61-8.311,1.561-17.277,0.405-25.694c-1.143-8.313,0.349-15.678,5.301-21.572c5.836-6.945,8.072-14.76,9.132-23.217
			c0.855-6.814,4.898-10.438,10.427-14.103c8.214-5.446,15.649-12.136,23.066-18.693c5.604-4.955,9.934-11.757,16.18-15.459
			c5.476-3.246,12.786-3.586,19.372-4.695c3.567-0.602,7.44,0.452,10.948-0.299c3.895-0.834,7.553-2.824,11.272-4.407
			c2.507-1.067,5.097-3.546,7.385-3.261c14.013,1.743,26.649-3.167,39.228-7.791c7.687-2.825,14.277-2.409,21.406,1.513
			c12.247,6.737,25.689,9.704,39.535,11.147c2.704,0.282,5.387,1.544,7.899,2.734c5.317,2.517,10.589,4.149,16.723,3.577
			c2.612-0.244,6.607,1.523,8.037,3.667c5.715,8.572,14.609,12.167,23.04,16.86c5.854,3.259,11.096,7.771,16.185,12.211
			c5.969,5.209,5.413,12.908,6.369,19.893c0.845,6.182,4.106,10.872,8.655,14.679c13.693,11.464,23.506,25.407,26.749,43.155
			c1.018,5.571,1.095,11.804-0.327,17.227c-2.829,10.788-1.107,20.469,3.159,30.461c6.174,14.458,3.014,28.648-3.076,42.396
			c-0.559,1.263-1.853,2.43-3.094,3.123c-6.54,3.652-10.484,9.286-12.041,16.393c-2.545,11.629-10.335,17.167-21.234,19.76
			c-9.55,2.273-17.405,7.215-23.052,15.494c-4.341,6.364-10.521,9.503-18.273,9.408c-9.085-0.11-16.684,2.848-21.679,10.823
			c-3.733,5.96-9.177,9.485-15.673,11.658c-26.119,8.737-52.7,10.4-79.579,4.476c-6.422-1.415-12.359-6.021-18.722-6.509
			c-12.483-0.955-25.109-0.09-37.674,0.141c-1.618,0.029-3.21,0.824-4.836,1.158c-9.357,1.925-13.795,0.404-18.668-7.614
			c-5.212-8.573-12.292-14.764-21.284-18.924c-6.949-3.217-9.833-8.779-10.423-16.246
			C159.327,494.967,157.976,487.946,156.973,480.896z M339.058,469.813c-3.839,1.006-7.71,1.904-11.507,3.048
			c-3.896,1.174-5.531,4.164-5.352,8.025c0.176,3.771,2.45,6.301,6.016,7.066c4.845,1.041,9.797,1.576,14.703,2.328
			c1.817,6.967,6.495,11.486,13.284,12.688c15.428,2.731,30.681,0.56,44.836-5.634c16.156-7.07,27.34-20.199,34.998-35.657
			c11.771-23.765,14.036-49.206,10.687-75.332c-1.436-11.196-4.133-21.824-10.649-31.264c-6.423-9.303-14.558-15.787-26.431-14.828
			c-4.666,0.376-9.232,2.446-13.758,3.995c-16.103,5.515-22.562,17.957-17.581,34.018c3.356,10.824,6.478,21.613,5.91,33.171
			c-0.653,13.309-8.283,23.832-20.473,29.034C350.739,446.021,340.76,454.545,339.058,469.813z M329.505,388.585
			c-0.267-0.318-0.533-0.636-0.8-0.955c7.434-7.855,15.038-15.563,22.167-23.687c1.517-1.728,2.278-5.321,1.533-7.385
			c-0.458-1.268-4.6-2.115-6.813-1.696c-16.896,3.193-32.795,8.873-48.45,16.391c-14.336,6.883-21.206,18.522-27.594,31.392
			c-0.601,1.21-0.401,3.538,0.417,4.529c0.804,0.975,2.894,1.295,4.376,1.205c2.063-0.124,4.086-0.897,6.628-1.516
			c-0.501,2.039-0.954,3.416-1.167,4.828c-2.026,13.386-1.372,26.402,9.673,35.907c19.233,16.552,47.381,8.078,54.28-16.127
			c1.124-3.942,2.741-5.573,6.762-6.201c7.921-1.235,14.425-5.167,18.342-12.426c0.683-1.263,0.122-3.196,0.136-4.821
			c-1.515,0.494-3.26,0.676-4.481,1.571c-1.287,0.942-2.012,2.621-3.094,3.885c-4.066,4.751-9.577,5.984-15.36,6.839
			c-0.86-3.801-1.587-7.01-2.408-10.638c13.268-2.316,17.126-13.102,21.186-23.563c0.493-1.269-0.617-3.159-0.984-4.762
			c-1.363,0.867-3.294,1.417-3.985,2.658c-2.102,3.769-3.595,7.87-5.564,11.72c-2.349,4.587-6.229,7.338-11.318,8.121
			c-1.125,0.173-2.825-0.136-3.503-0.896c-2.354-2.646-4.376-5.59-6.701-8.653c1.352-0.336,2.146-0.596,2.962-0.727
			c10.278-1.647,14.372-9.368,17.365-17.976c0.395-1.131-0.778-2.808-1.226-4.231c-1.28,0.739-2.704,1.316-3.788,2.277
			c-0.675,0.6-0.882,1.762-1.219,2.701C343.944,384.494,338.278,388.74,329.505,388.585z M169.138,413.828
			c-5.355-2.918-10.597-5.11-11.213-11.998c-0.103-1.144-2.307-2.1-3.54-3.142c-0.611,1.511-1.84,3.073-1.721,4.523
			c0.414,5.043,2.468,9.413,7.241,11.785c5.794,2.88,8.806,6.817,10.182,13.715c2.288,11.467,10.762,18.363,22.271,20.153
			c13.23,2.056,24.839-1.479,33.081-12.822c5.687-7.825,7.135-16.59,5.139-24.414c3.309-2.425,6.654-3.749,8.085-6.192
			c2.118-3.616-0.29-6.922-3.059-9.674c-8.034-7.987-15.666-16.42-24.108-23.946c-7.542-6.724-15.783-12.715-24.04-18.573
			c-6.105-4.332-13.417-4.768-20.66-4.244c-4.947,0.357-7.837,4.129-6.963,9.006c0.431,2.404,1.561,4.712,2.567,6.978
			c2.684,6.041,7.745,10.67,8.053,18.294c0.156,3.862,5.215,7.525,8.303,11.601c-0.726,0.798-1.926,2.117-3.178,3.494
			c-4.521-1.943-7.649-4.741-8.795-9.648c-0.275-1.18-2.124-1.993-3.249-2.974c-0.727,1.47-2.025,2.938-2.031,4.41
			c-0.006,1.706,0.819,3.625,1.821,5.083c2.335,3.398,4.992,6.576,7.518,9.843c0.518-0.428,1.037-0.855,1.555-1.282
			C171.381,406.925,170.367,410.047,169.138,413.828z M282.252,515.02c0.498-0.173,0.996-0.346,1.494-0.518
			c-1.042-10.846-0.131-22.479-7.389-31.585c-7.358-9.232-17.234-14.746-29.867-11.75c-14.882,3.529-26.369,22.119-22.854,36.891
			c0.062,0.259,0.479,0.432,1.297,1.125c0.993-1.458,1.874-2.903,2.903-4.235c4.339-5.617,8.114-11.845,13.225-16.647
			c8.46-7.952,17.091-7.272,24.79,1.572c4.438,5.098,7.938,11.029,11.69,16.698C279.316,509.251,280.694,512.195,282.252,515.02z"/>
		<path fill-rule="evenodd" clip-rule="evenodd" fill="#2F2F30" d="M329.505,388.585c8.773,0.155,14.439-4.091,17.37-12.237
			c0.337-0.939,0.544-2.101,1.219-2.701c1.084-0.96,2.508-1.538,3.788-2.277c0.447,1.424,1.62,3.1,1.226,4.231
			c-2.993,8.607-7.087,16.329-17.365,17.976c-0.815,0.131-1.61,0.391-2.962,0.727c2.325,3.063,4.347,6.007,6.701,8.653
			c0.678,0.761,2.378,1.069,3.503,0.896c5.09-0.782,8.97-3.533,11.318-8.121c1.97-3.85,3.463-7.951,5.564-11.72
			c0.691-1.241,2.622-1.791,3.985-2.658c0.367,1.603,1.478,3.493,0.984,4.762c-4.06,10.462-7.918,21.247-21.186,23.563
			c0.821,3.628,1.548,6.837,2.408,10.638c5.783-0.854,11.294-2.088,15.36-6.839c1.082-1.264,1.807-2.942,3.094-3.885
			c1.222-0.896,2.967-1.077,4.481-1.571c-0.014,1.625,0.547,3.559-0.136,4.821c-3.917,7.259-10.421,11.19-18.342,12.426
			c-4.021,0.628-5.638,2.259-6.762,6.201c-6.899,24.205-35.047,32.679-54.28,16.127c-11.045-9.505-11.7-22.521-9.673-35.907
			c0.214-1.412,0.667-2.789,1.167-4.828c-2.542,0.618-4.565,1.392-6.628,1.516c-1.483,0.09-3.572-0.23-4.376-1.205
			c-0.818-0.991-1.018-3.319-0.417-4.529c6.388-12.869,13.257-24.508,27.594-31.392c15.655-7.518,31.554-13.198,48.45-16.391
			c2.213-0.419,6.354,0.428,6.813,1.696c0.745,2.064-0.017,5.657-1.533,7.385c-7.129,8.124-14.733,15.832-22.166,23.688
			c-0.404,0.263-0.809,0.524-1.214,0.786C328.163,388.474,328.834,388.529,329.505,388.585z M307.954,424.328
			c6.745-0.063,12.314-5.812,12.128-12.519c-0.184-6.557-5.833-12.065-12.211-11.903c-6.883,0.175-12.347,5.824-12.157,12.568
			C295.9,419.106,301.355,424.388,307.954,424.328z M331.299,439.278c-0.118-3.881-2.231-5.998-5.857-6.09
			c-3.743-0.094-5.976,2.35-6.018,5.89c-0.041,3.54,2.052,5.954,5.894,5.939C329.047,445.002,331.109,443.01,331.299,439.278z"/>
		<path fill-rule="evenodd" clip-rule="evenodd" fill="#2F2F2F" d="M169.138,413.828c1.229-3.781,2.244-6.903,3.258-10.024
			c-0.518,0.427-1.037,0.854-1.555,1.282c-2.526-3.268-5.183-6.445-7.518-9.843c-1.001-1.458-1.827-3.377-1.821-5.083
			c0.006-1.473,1.304-2.94,2.031-4.41c1.125,0.981,2.974,1.793,3.249,2.974c1.146,4.907,4.273,7.705,8.795,9.648
			c1.252-1.377,2.452-2.696,3.178-3.494c-3.087-4.076-8.147-7.739-8.303-11.601c-0.308-7.624-5.369-12.253-8.053-18.294
			c-1.006-2.265-2.136-4.574-2.567-6.978c-0.874-4.877,2.017-8.648,6.963-9.006c7.243-0.523,14.555-0.088,20.66,4.244
			c8.256,5.858,16.497,11.849,24.04,18.573c8.442,7.526,16.074,15.958,24.108,23.946c2.769,2.752,5.177,6.058,3.059,9.674
			c-1.431,2.443-4.776,3.768-8.085,6.192c1.996,7.824,0.548,16.589-5.139,24.414c-8.242,11.343-19.851,14.878-33.081,12.822
			c-11.509-1.79-19.984-8.687-22.271-20.153c-1.376-6.897-4.388-10.835-10.182-13.715c-4.773-2.372-6.827-6.742-7.241-11.785
			c-0.119-1.45,1.109-3.013,1.721-4.523c1.233,1.042,3.437,1.998,3.54,3.142C158.541,408.718,163.782,410.91,169.138,413.828z
			 M192.135,397.691c-6.833-0.126-12.643,5.394-12.7,12.067c-0.055,6.42,5.445,12.065,11.993,12.312
			c6.831,0.255,12.643-5.107,12.844-11.851C204.478,403.351,199.119,397.819,192.135,397.691z M204.662,432.978
			c0.223,3.573,2.259,5.836,5.887,5.887c3.703,0.053,5.928-2.373,5.895-5.99c-0.031-3.335-2.005-5.647-5.597-5.73
			C207.108,427.058,205.039,429.063,204.662,432.978z M188.8,388.375c-4.709-3.04-8.713-5.625-12.717-8.209
			C178.6,388.117,182.996,390.63,188.8,388.375z"/>
		<path fill-rule="evenodd" clip-rule="evenodd" fill="#976CFE" d="M339.057,469.81c1.703-15.265,11.683-23.789,24.685-29.338
			c12.189-5.202,19.819-15.726,20.473-29.034c0.567-11.559-2.554-22.348-5.91-33.171c-4.98-16.061,1.479-28.502,17.581-34.018
			c4.525-1.549,9.092-3.619,13.758-3.995c11.873-0.959,20.008,5.525,26.431,14.828c6.517,9.439,9.214,20.068,10.649,31.264
			c3.35,26.126,1.085,51.567-10.687,75.332c-7.658,15.458-18.842,28.587-34.998,35.657c-14.155,6.193-29.408,8.365-44.836,5.634
			c-6.789-1.201-11.467-5.721-13.282-12.688c2.396,0.02,4.79,0.041,7.184,0.062c3.499,5.139,8.294,7.386,14.524,6.772
			c4.778-0.47,9.61-0.469,14.366-1.083c9.246-1.195,18.439-2.769,26.152-8.631c16.307-12.398,27.321-28.242,32.013-48.409
			c3.912-16.82,5.091-33.724,2.901-50.858c-1.423-11.123-3.911-21.75-10.839-31.087c-5.287-7.126-16.51-12.83-25.357-8.44
			c-3.721,1.845-7.587,3.394-11.307,5.237c-7.516,3.725-10.849,10.854-8.66,18.996c3.392,12.622,7.959,24.878,7.322,38.408
			c-0.753,15.979-10.708,30.08-25.464,35.921c-9.896,3.918-17.613,10.62-19.691,21.955
			C343.729,469.352,341.393,469.58,339.057,469.81z"/>
		<path fill-rule="evenodd" clip-rule="evenodd" fill="#302E30" d="M282.252,515.02c-1.558-2.824-2.936-5.769-4.711-8.449
			c-3.753-5.669-7.253-11.601-11.69-16.698c-7.699-8.845-16.33-9.524-24.79-1.572c-5.111,4.803-8.886,11.03-13.225,16.647
			c-1.029,1.332-1.91,2.777-2.903,4.235c-0.818-0.693-1.236-0.866-1.297-1.125c-3.515-14.771,7.973-33.361,22.854-36.891
			c12.633-2.996,22.508,2.518,29.867,11.75c7.258,9.106,6.347,20.739,7.389,31.585C283.248,514.674,282.75,514.847,282.252,515.02z"
			/>
		<path fill-rule="evenodd" clip-rule="evenodd" fill="#E88A8F" d="M350.104,490.341c-2.394-0.021-4.787-0.042-7.184-0.062
			c-4.908-0.751-9.86-1.286-14.705-2.327c-3.565-0.766-5.84-3.296-6.016-7.066c-0.18-3.861,1.455-6.852,5.352-8.025
			c3.797-1.144,7.668-2.042,11.507-3.049c2.335-0.231,4.671-0.46,7.007-0.689c4.302,0.334,8.865-0.104,12.819,1.249
			c3.04,1.04,6.045,3.896,7.729,6.734c1.813,3.058,0.033,6.207-2.645,8.81C359.991,489.782,355.113,490.099,350.104,490.341z"/>
		<path fill-rule="evenodd" clip-rule="evenodd" fill="#F4F4F4" d="M307.954,424.328c-6.599,0.06-12.054-5.222-12.24-11.854
			c-0.19-6.744,5.274-12.394,12.157-12.568c6.378-0.162,12.027,5.347,12.211,11.903
			C320.269,418.517,314.699,424.266,307.954,424.328z"/>
		<path fill-rule="evenodd" clip-rule="evenodd" fill="#F4F4F4" d="M331.299,439.278c-0.189,3.731-2.252,5.724-5.981,5.739
			c-3.842,0.015-5.935-2.399-5.894-5.939c0.042-3.54,2.274-5.983,6.018-5.89C329.067,433.28,331.181,435.397,331.299,439.278z"/>
		<path fill-rule="evenodd" clip-rule="evenodd" fill="#E1B9F2" d="M329.505,388.585c-0.671-0.056-1.342-0.111-2.013-0.167
			c0.405-0.262,0.81-0.523,1.214-0.786C328.972,387.949,329.238,388.267,329.505,388.585z"/>
		<path fill-rule="evenodd" clip-rule="evenodd" fill="#F7F7F7" d="M192.135,397.691c6.984,0.128,12.343,5.659,12.137,12.528
			c-0.201,6.743-6.013,12.105-12.844,11.851c-6.548-0.246-12.048-5.892-11.993-12.312
			C179.492,403.085,185.302,397.565,192.135,397.691z"/>
		<path fill-rule="evenodd" clip-rule="evenodd" fill="#F6F6F6" d="M204.662,432.978c0.377-3.915,2.446-5.92,6.185-5.834
			c3.592,0.083,5.566,2.396,5.597,5.73c0.034,3.617-2.192,6.043-5.895,5.99C206.921,438.813,204.885,436.551,204.662,432.978z"/>
		<path fill-rule="evenodd" clip-rule="evenodd" fill="#D1ACE0" d="M188.8,388.375c-5.804,2.255-10.2-0.258-12.717-8.209
			C180.086,382.75,184.091,385.335,188.8,388.375z"/>
		<path fill-rule="evenodd" clip-rule="evenodd" fill="#AC8BFE" d="M350.104,490.341c5.01-0.242,9.888-0.559,13.865-4.426
			c2.678-2.603,4.457-5.752,2.645-8.81c-1.685-2.839-4.689-5.694-7.729-6.734c-3.954-1.353-8.518-0.915-12.819-1.249
			c2.078-11.335,9.796-18.037,19.691-21.955c14.756-5.841,24.711-19.941,25.464-35.921c0.637-13.53-3.931-25.786-7.322-38.408
			c-2.188-8.142,1.145-15.271,8.66-18.996c3.72-1.843,7.586-3.392,11.307-5.237c8.848-4.39,20.07,1.314,25.357,8.44
			c6.928,9.337,9.416,19.964,10.839,31.087c2.189,17.134,1.011,34.038-2.901,50.858c-4.691,20.167-15.706,36.011-32.013,48.409
			c-7.713,5.862-16.906,7.436-26.152,8.631c-4.756,0.614-9.588,0.613-14.366,1.083C358.397,497.727,353.603,495.479,350.104,490.341
			z"/>
	</g>
</g>
</svg>
