<?xml version="1.0" encoding="utf-8"?>
<!-- Generator: Adobe Illustrator 16.0.3, SVG Export Plug-In . SVG Version: 6.00 Build 0)  -->
<!DOCTYPE svg PUBLIC "-//W3C//DTD SVG 1.1//EN" "http://www.w3.org/Graphics/SVG/1.1/DTD/svg11.dtd">
<svg version="1.1" id="Capa_1" xmlns="http://www.w3.org/2000/svg" xmlns:xlink="http://www.w3.org/1999/xlink" x="0px" y="0px"
	 width="612px" height="792px" viewBox="0 0 612 792" enable-background="new 0 0 612 792" xml:space="preserve">
<g>
	<g>
		<path fill-rule="evenodd" clip-rule="evenodd" fill="#FEFEFE" d="M51.037,653.903c0-170.874,0-341.889,0-512.866
			c171.051,0,342.066,0,513.08,0c0,170.908,0,341.781,0,512.866C393.078,653.903,222.039,653.903,51.037,653.903z M309.09,553.615
			c13.15-0.941,25.459-1.578,37.71-2.785c8.082-0.796,16.754-1.233,22.817-7.451c7.574-7.766,16.95-11.404,26.942-14.402
			c14.262-4.278,26.33-11.445,34.31-24.846c6.169-10.36,14.374-18.884,25.199-25.078c15.188-8.689,21.085-23.283,16.926-40.46
			c-1.998-8.255-1.186-15.773,1.038-23.92c5.405-19.809,4.922-38.777-10.632-54.997c-3.122-3.255-4.946-8.764-5.35-13.408
			c-0.867-9.974-2.874-19.562-7.854-28.113c-3.095-5.31-7.032-10.932-12.049-14.122c-6.707-4.266-10.922-8.976-12.5-16.847
			c-1.709-8.529-5.953-11.613-14.701-12.178c-4.617-0.299-8.182-1.841-10.842-5.926c-2.623-4.031-5.852-7.678-8.908-11.416
			c-4.138-5.062-9.41-6.619-15.968-6.165c-7.404,0.514-14.314-2.137-19.232-7.735c-3.657-4.164-7.543-5.786-12.971-5.908
			c-13.454-0.301-27.093,0.03-40.283-2.155c-12.78-2.117-24.36-0.841-35.931,4.332c-10.569,4.725-21.044,10.159-33.304,7.286
			c-0.155-0.036-0.332,0.007-0.498,0.024c-8.766,0.925-17.804,0.813-26.23,3.029c-11.467,3.016-22.16,7.926-27.169,20.431
			c-1.553,3.878-5.31,6.869-8.042,10.279c-2.739,3.418-5.472,6.844-8.182,10.286c-2.292,2.912-4.264,6.147-6.906,8.69
			c-2.363,2.275-5.508,3.719-8.201,5.677c-5.357,3.897-8.686,8.941-9.478,15.745c-0.475,4.082-1.54,8.166-2.89,12.06
			c-2.234,6.442-5.165,12.646-7.348,19.103c-4.161,12.305-7.905,24.545-5.53,38.044c1.626,9.244,1.935,18.846,1.69,28.257
			c-0.223,8.602,0.701,16.696,5.425,23.873c5.135,7.802,7.125,16.423,7.843,25.464c1.68,21.168,10.463,38.612,26.855,52.206
			c7.302,6.057,14.313,12.477,21.798,18.292c3.474,2.698,7.558,5.544,11.721,6.262c16.816,2.901,33.398,7.676,50.721,7.063
			c10.478-0.371,20.975-0.897,31.445-0.638C290.328,551.713,300.099,552.903,309.09,553.615z"/>
		<path fill-rule="evenodd" clip-rule="evenodd" fill="#C878AC" d="M309.09,553.615c-8.991-0.712-18.762-1.902-28.556-2.146
			c-10.471-0.26-20.967,0.267-31.445,0.638c-17.322,0.612-33.905-4.162-50.721-7.063c-4.163-0.718-8.247-3.563-11.721-6.262
			c-7.485-5.815-14.496-12.235-21.798-18.292c-16.392-13.594-25.175-31.038-26.855-52.206c-0.717-9.041-2.708-17.662-7.843-25.464
			c-4.724-7.177-5.648-15.271-5.425-23.873c0.245-9.411-0.063-19.013-1.69-28.257c-2.375-13.499,1.369-25.74,5.53-38.044
			c2.184-6.458,5.114-12.661,7.348-19.103c1.35-3.894,2.415-7.978,2.89-12.06c0.792-6.803,4.121-11.847,9.478-15.745
			c2.692-1.958,5.837-3.402,8.201-5.677c2.642-2.543,4.614-5.778,6.906-8.69c2.71-3.442,5.442-6.868,8.182-10.286
			c2.732-3.41,6.489-6.401,8.042-10.279c5.009-12.505,15.702-17.415,27.169-20.431c8.426-2.215,17.464-2.104,26.23-3.029
			c0.166-0.018,0.342-0.061,0.498-0.024c12.259,2.873,22.735-2.561,33.304-7.286c11.57-5.173,23.15-6.449,35.931-4.332
			c13.19,2.186,26.829,1.854,40.283,2.155c5.428,0.122,9.313,1.744,12.971,5.908c4.918,5.598,11.828,8.249,19.232,7.735
			c6.558-0.454,11.83,1.103,15.968,6.165c3.057,3.738,6.285,7.384,8.908,11.416c2.66,4.085,6.225,5.627,10.842,5.926
			c8.748,0.565,12.992,3.649,14.701,12.178c1.578,7.871,5.793,12.581,12.5,16.847c5.017,3.189,8.954,8.812,12.049,14.122
			c4.98,8.551,6.987,18.139,7.854,28.113c0.403,4.645,2.228,10.153,5.35,13.408c15.554,16.22,16.037,35.188,10.632,54.997
			c-2.224,8.146-3.036,15.665-1.038,23.92c4.159,17.177-1.738,31.771-16.926,40.46c-10.825,6.194-19.03,14.718-25.199,25.078
			c-7.979,13.4-20.048,20.567-34.31,24.846c-9.992,2.998-19.368,6.637-26.942,14.402c-6.063,6.218-14.735,6.655-22.817,7.451
			C334.549,552.037,322.24,552.674,309.09,553.615z M145.952,469.12c0.323,2.246,0.646,4.491,0.969,6.735
			c-0.208,0.91-0.761,1.898-0.574,2.72c3.333,14.621,10.956,26.654,22.34,36.316c4.813,4.086,10.099,7.659,14.63,12.024
			c7.741,7.456,16.051,13.385,27.264,13.891c2.482,0.112,4.964,0.428,7.421,0.809c10.636,1.651,21.072,4.23,32.069,3.664
			c12.745-0.657,25.625-1.031,38.311,0.055c19.525,1.672,38.874,0.501,58.231-1.373c6.344-0.614,13.456-0.437,18.259-5.477
			c8.685-9.113,19.835-13,31.358-16.591c11.347-3.534,21.196-9.141,27.714-19.86c7.882-12.965,18.319-23.371,31.797-30.948
			c9.588-5.39,13.742-18.085,10.87-29.911c-2.413-9.932-1.802-19.225,1.072-29.235c4.906-17.09,4.446-33.935-9.697-47.684
			c-4.414-4.29-6.905-9.867-6.882-16.136c0.043-11.172-3.408-21.314-8.999-30.731c-1.796-3.026-4.363-6.321-7.398-7.75
			c-9.197-4.327-13.826-11.484-15.725-21.074c-0.767-3.877-2.948-6.585-7.49-6.636c-8.123-0.092-14.121-3.704-18.433-10.734
			c-2.32-3.782-5.337-7.302-8.657-10.242c-1.887-1.669-5.091-2.842-7.584-2.657c-9.967,0.746-18.365-2.524-25.211-9.38
			c-3.011-3.015-5.976-3.976-10.062-4.086c-12.274-0.332-24.551-0.927-36.797-1.828c-9.024-0.664-17.958-3.794-27.001,0.151
			c-7.009,3.057-14.199,5.703-21.253,8.659c-4.777,2.003-9.42,4.054-14.88,2.972c-3.058-0.605-6.299-0.857-9.396-0.581
			c-8.255,0.737-16.729,0.915-24.646,3.051c-9.243,2.496-18.023,6.366-21.956,16.863c-1.636,4.366-5.295,8.366-8.937,11.478
			c-3.547,3.029-6.162,6.118-7.974,10.462c-1.325,3.178-4.035,5.938-6.599,8.393c-2.252,2.156-5.086,3.751-7.792,5.379
			c-5.903,3.551-8.604,8.796-9.359,15.547c-0.436,3.897-1.641,7.771-2.959,11.493c-2.939,8.301-6.386,16.427-9.219,24.763
			c-3.238,9.525-4.527,19.164-2.779,29.4c1.524,8.931,2.227,18.209,1.658,27.231c-0.518,8.213,1.209,15.196,4.916,22.331
			c3.032,5.834,5.024,12.238,7.159,18.498C144.829,462.313,145.234,465.771,145.952,469.12z"/>
		<path fill-rule="evenodd" clip-rule="evenodd" fill="#E1B9F2" d="M145.952,469.12c-0.718-3.349-1.123-6.807-2.221-10.026
			c-2.135-6.26-4.127-12.664-7.159-18.498c-3.707-7.135-5.433-14.118-4.916-22.331c0.569-9.021-0.134-18.3-1.658-27.231
			c-1.748-10.237-0.458-19.875,2.779-29.4c2.833-8.336,6.28-16.462,9.219-24.763c1.318-3.722,2.523-7.596,2.959-11.493
			c0.754-6.751,3.456-11.997,9.359-15.547c2.707-1.628,5.54-3.224,7.792-5.379c2.563-2.455,5.273-5.215,6.599-8.393
			c1.812-4.344,4.426-7.433,7.974-10.462c3.642-3.111,7.301-7.111,8.937-11.478c3.933-10.497,12.713-14.367,21.956-16.863
			c7.917-2.137,16.391-2.314,24.646-3.051c3.097-0.276,6.338-0.024,9.396,0.581c5.46,1.082,10.103-0.969,14.88-2.972
			c7.055-2.957,14.244-5.602,21.253-8.659c9.044-3.945,17.978-0.815,27.001-0.151c12.247,0.9,24.523,1.496,36.797,1.828
			c4.086,0.11,7.051,1.071,10.062,4.086c6.846,6.856,15.244,10.126,25.211,9.38c2.493-0.186,5.697,0.987,7.584,2.657
			c3.32,2.939,6.337,6.459,8.657,10.242c4.312,7.03,10.31,10.642,18.433,10.734c4.542,0.051,6.724,2.759,7.49,6.636
			c1.898,9.59,6.527,16.747,15.725,21.074c3.035,1.428,5.603,4.724,7.398,7.75c5.591,9.417,9.042,19.559,8.999,30.731
			c-0.023,6.269,2.468,11.846,6.882,16.136c14.144,13.749,14.604,30.594,9.697,47.684c-2.874,10.011-3.485,19.304-1.072,29.235
			c2.872,11.826-1.282,24.521-10.87,29.911c-13.478,7.577-23.915,17.983-31.797,30.948c-6.518,10.72-16.367,16.326-27.714,19.86
			c-11.523,3.591-22.674,7.478-31.358,16.591c-4.803,5.04-11.915,4.862-18.259,5.477c-19.357,1.874-38.706,3.045-58.231,1.373
			c-12.686-1.086-25.566-0.712-38.311-0.055c-10.997,0.566-21.434-2.013-32.069-3.664c-2.457-0.381-4.939-0.696-7.421-0.809
			c-11.213-0.506-19.523-6.435-27.264-13.891c-4.532-4.365-9.817-7.938-14.63-12.024c-11.384-9.662-19.006-21.695-22.34-36.316
			c-0.187-0.821,0.366-1.81,0.576-2.717c4.044,1.757,7.948,4.375,12.164,5.052c5.499,0.882,11.251,0.39,16.883,0.186
			c5.599-0.203,10.135-4.393,10.647-9.384c0.405-3.948-3.101-8.55-8.463-9.623c-5.628-1.125-11.482-1.928-17.183-1.671
			C154.809,460.697,148.046,461.243,145.952,469.12z M339.125,469.073c-3.429,1.061-6.866,2.092-10.284,3.187
			c-3.97,1.273-6.75,3.652-6.665,8.156c0.085,4.499,2.813,7.005,6.978,7.808c4.523,0.872,9.118,1.376,13.681,2.04
			c2.036,7.98,7.714,13.503,15.748,13.639c9.104,0.153,18.307-0.182,27.322-1.389c24.045-3.217,39.101-19.027,50.134-38.794
			c12.393-22.201,14.396-46.808,12.808-71.683c-0.73-11.444-2.829-22.732-9.124-32.806c-5.29-8.464-11.567-15.604-22.02-17.186
			c-12.22-1.851-22.553,3.04-31.542,10.556c-6.483,5.421-9.21,12.739-7.199,21.474c2.339,10.161,4.531,20.361,6.476,30.603
			c2.679,14.104-7.153,30.8-20.269,36.094c-5.322,2.148-10.397,5.329-14.952,8.858C343.987,454.456,340.517,461.274,339.125,469.073
			z M329.505,388.585c-0.267-0.318-0.533-0.636-0.8-0.955c7.434-7.855,15.038-15.563,22.167-23.687
			c1.517-1.728,2.278-5.321,1.533-7.385c-0.458-1.268-4.6-2.115-6.813-1.697c-16.896,3.194-32.795,8.874-48.45,16.392
			c-14.336,6.883-21.206,18.522-27.594,31.392c-0.601,1.21-0.401,3.538,0.417,4.529c0.804,0.975,2.894,1.295,4.376,1.205
			c2.063-0.124,4.086-0.897,6.628-1.516c-0.501,2.039-0.954,3.416-1.167,4.828c-2.026,13.386-1.372,26.402,9.673,35.907
			c19.233,16.552,47.381,8.078,54.28-16.127c1.124-3.942,2.741-5.573,6.762-6.201c7.921-1.235,14.425-5.167,18.342-12.426
			c0.683-1.263,0.122-3.196,0.136-4.821c-1.515,0.494-3.26,0.676-4.481,1.571c-1.287,0.942-2.012,2.621-3.094,3.885
			c-4.066,4.751-9.577,5.984-15.36,6.839c-0.86-3.801-1.587-7.01-2.408-10.638c13.268-2.316,17.126-13.102,21.186-23.563
			c0.493-1.269-0.617-3.159-0.984-4.762c-1.363,0.867-3.294,1.417-3.985,2.658c-2.102,3.769-3.595,7.87-5.564,11.72
			c-2.349,4.587-6.229,7.338-11.318,8.121c-1.125,0.173-2.825-0.136-3.503-0.896c-2.354-2.646-4.376-5.59-6.701-8.653
			c1.352-0.336,2.146-0.596,2.962-0.727c10.278-1.647,14.372-9.368,17.365-17.976c0.395-1.131-0.778-2.808-1.226-4.231
			c-1.28,0.739-2.704,1.316-3.788,2.277c-0.675,0.6-0.882,1.762-1.219,2.701C343.944,384.494,338.278,388.74,329.505,388.585z
			 M175.601,398.364c-4.597-1.984-7.555-4.742-8.777-9.403c-0.332-1.266-2.315-2.1-3.54-3.133c-0.63,1.53-2.053,3.261-1.725,4.545
			c0.68,2.665,1.88,5.433,3.625,7.525c1.958,2.346,4.754,3.994,7.271,6.014c-1.164,3.33-2.28,6.526-3.416,9.778
			c-8.261-4.26-8.168-4.294-11.105-12.093c-0.466-1.24-2.185-2.008-3.325-2.993c-0.708,1.462-2.116,2.983-1.999,4.377
			c0.437,5.206,2.511,9.787,7.518,12.144c5.799,2.729,8.327,6.822,9.839,13.359c4.25,18.38,26.386,27,43.951,17.19
			c5.382-3.006,9.992-8.216,13.601-13.365c4.546-6.487,4.679-14.328,3.021-20.586c3.282-2.508,6.765-3.956,8.184-6.536
			c2.152-3.916-0.822-7.15-3.656-9.965c-5.674-5.636-10.976-11.682-16.953-16.969c-9.199-8.137-18.715-15.932-28.331-23.576
			c-6.454-5.13-14.26-6.177-22.255-5.76c-5.902,0.308-9.005,4.576-7.494,10.329c0.583,2.22,1.79,4.278,2.732,6.402
			c2.549,5.74,8.079,10.037,7.432,17.439c-0.19,2.172,2.664,4.755,4.421,6.908c1.306,1.599,3.092,2.807,4.752,4.266
			C178.02,395.733,176.905,396.945,175.601,398.364z M282.121,514.976c0.649-0.195,1.298-0.39,1.947-0.585
			c-0.958-6.824-1.879-13.653-2.885-20.471c-1-6.78-4.616-11.942-9.854-16.241c-14.988-12.298-37.344-7.976-43.61,8.894
			c-2.291,6.168-3.086,12.901-4.413,19.407c-0.178,0.871,0.527,1.923,1.23,4.221c1.598-2.586,2.383-4.151,3.436-5.51
			c4.348-5.609,8.194-11.775,13.311-16.581c8.101-7.609,16.644-7.054,24.081,1.253c4.506,5.031,8.068,10.935,11.836,16.591
			C279.091,508.794,280.496,511.958,282.121,514.976z"/>
		<path fill-rule="evenodd" clip-rule="evenodd" fill="#E98A8E" d="M145.952,469.12c2.094-7.877,8.856-8.423,15.019-8.702
			c5.701-0.257,11.555,0.546,17.183,1.671c5.362,1.073,8.869,5.675,8.463,9.623c-0.512,4.991-5.048,9.181-10.647,9.384
			c-5.632,0.204-11.385,0.696-16.883-0.186c-4.216-0.677-8.12-3.295-12.164-5.052C146.599,473.611,146.275,471.366,145.952,469.12z"
			/>
		<path fill-rule="evenodd" clip-rule="evenodd" fill="#2F2F30" d="M329.505,388.585c8.773,0.155,14.439-4.091,17.37-12.237
			c0.337-0.939,0.544-2.101,1.219-2.701c1.084-0.96,2.508-1.538,3.788-2.277c0.447,1.424,1.62,3.1,1.226,4.231
			c-2.993,8.607-7.087,16.329-17.365,17.976c-0.815,0.131-1.61,0.391-2.962,0.727c2.325,3.063,4.347,6.007,6.701,8.653
			c0.678,0.761,2.378,1.069,3.503,0.896c5.09-0.782,8.97-3.533,11.318-8.121c1.97-3.85,3.463-7.951,5.564-11.72
			c0.691-1.241,2.622-1.791,3.985-2.658c0.367,1.603,1.478,3.493,0.984,4.762c-4.06,10.462-7.918,21.247-21.186,23.563
			c0.821,3.628,1.548,6.837,2.408,10.638c5.783-0.854,11.294-2.088,15.36-6.839c1.082-1.264,1.807-2.942,3.094-3.885
			c1.222-0.896,2.967-1.077,4.481-1.571c-0.014,1.625,0.547,3.559-0.136,4.821c-3.917,7.259-10.421,11.19-18.342,12.426
			c-4.021,0.628-5.638,2.259-6.762,6.201c-6.899,24.205-35.047,32.679-54.28,16.127c-11.045-9.505-11.7-22.521-9.673-35.907
			c0.214-1.412,0.667-2.789,1.167-4.828c-2.542,0.618-4.565,1.392-6.628,1.516c-1.482,0.09-3.572-0.23-4.376-1.205
			c-0.818-0.991-1.018-3.319-0.417-4.529c6.388-12.869,13.257-24.508,27.594-31.392c15.655-7.518,31.554-13.198,48.45-16.392
			c2.213-0.418,6.354,0.429,6.813,1.697c0.745,2.064-0.017,5.657-1.533,7.385c-7.129,8.124-14.733,15.832-22.166,23.688
			c-0.404,0.263-0.809,0.524-1.214,0.786C328.163,388.474,328.834,388.529,329.505,388.585z M320.082,411.954
			c-0.104-6.559-5.678-12.124-12.067-12.048c-6.878,0.081-12.411,5.67-12.301,12.425c0.108,6.626,5.506,11.979,12.096,11.997
			C314.562,424.348,320.188,418.675,320.082,411.954z M326.109,445.082c3.025-0.504,5.293-2.231,5.142-6.13
			c-0.149-3.842-2.446-5.808-6.058-5.753c-3.738,0.057-5.874,2.584-5.771,6.126C319.525,442.876,321.754,445.035,326.109,445.082z"
			/>
		<path fill-rule="evenodd" clip-rule="evenodd" fill="#2F2F2F" d="M175.601,398.364c1.304-1.419,2.419-2.631,3.772-4.104
			c-1.66-1.459-3.446-2.667-4.752-4.266c-1.757-2.153-4.611-4.735-4.421-6.908c0.647-7.403-4.883-11.7-7.432-17.439
			c-0.942-2.124-2.149-4.182-2.732-6.402c-1.511-5.752,1.592-10.021,7.494-10.329c7.995-0.417,15.801,0.63,22.255,5.76
			c9.616,7.644,19.132,15.439,28.331,23.576c5.977,5.287,11.279,11.333,16.953,16.969c2.834,2.815,5.808,6.049,3.656,9.965
			c-1.419,2.58-4.902,4.028-8.184,6.536c1.659,6.258,1.525,14.099-3.021,20.586c-3.609,5.149-8.219,10.359-13.601,13.365
			c-17.565,9.81-39.701,1.189-43.951-17.19c-1.512-6.537-4.041-10.63-9.839-13.359c-5.007-2.356-7.081-6.938-7.518-12.144
			c-0.117-1.394,1.291-2.915,1.999-4.377c1.14,0.985,2.858,1.753,3.325,2.993c2.937,7.799,2.844,7.833,11.105,12.093
			c1.136-3.252,2.252-6.448,3.416-9.778c-2.516-2.02-5.313-3.668-7.271-6.014c-1.745-2.092-2.945-4.86-3.625-7.525
			c-0.328-1.284,1.095-3.015,1.725-4.545c1.225,1.033,3.208,1.867,3.54,3.133C168.046,393.622,171.003,396.38,175.601,398.364z
			 M191.971,422.074c6.854-0.04,12.383-5.611,12.304-12.397c-0.079-6.83-5.7-12.142-12.682-11.985
			c-6.625,0.147-12.133,5.635-12.158,12.11C179.41,416.436,185.208,422.113,191.971,422.074z M212.908,427.069
			c-5.205,0.019-7.764,1.419-8.129,5.289c-0.358,3.8,1.723,6.116,5.315,6.479c3.728,0.377,6.408-1.997,6.209-5.489
			C216.169,430.971,213.861,428.716,212.908,427.069z M188.664,388.288c-4.407-2.833-8.502-5.466-12.597-8.1
			c-0.25,0.41-0.499,0.819-0.749,1.229C178.891,388.314,183.163,390.689,188.664,388.288z"/>
		<path fill-rule="evenodd" clip-rule="evenodd" fill="#976DFE" d="M339.125,469.073c1.392-7.799,4.862-14.617,11.091-19.443
			c4.555-3.529,9.63-6.71,14.952-8.858c13.115-5.294,22.947-21.99,20.269-36.094c-1.944-10.242-4.137-20.442-6.476-30.603
			c-2.011-8.734,0.716-16.053,7.199-21.474c8.989-7.517,19.322-12.407,31.542-10.556c10.452,1.582,16.729,8.722,22.02,17.186
			c6.295,10.074,8.394,21.362,9.124,32.806c1.588,24.875-0.415,49.482-12.808,71.683c-11.033,19.767-26.089,35.577-50.134,38.794
			c-9.016,1.207-18.219,1.542-27.322,1.389c-8.034-0.136-13.712-5.658-15.744-13.64c2.396,0.032,4.79,0.065,7.184,0.099
			c2.671,2.231,5.123,6.007,8.054,6.424c11.676,1.663,23.588,1.112,34.755-2.673c20.563-6.972,33.256-22.517,41.229-41.918
			c7.947-19.338,9.505-39.81,7.924-60.476c-0.732-9.576-2.322-19.055-7.328-27.641c-8.632-14.806-18.652-20.404-35.386-11.638
			c-1.769,0.926-3.578,1.778-5.354,2.689c-7.1,3.641-10.298,10.489-8.123,18.357c3.582,12.962,7.196,25.809,6.408,39.559
			c-0.625,10.888-10.9,30.662-24.342,34.254c-10.758,2.875-19.081,10.012-21.786,21.831
			C343.757,469.11,341.441,469.092,339.125,469.073z"/>
		<path fill-rule="evenodd" clip-rule="evenodd" fill="#302E30" d="M282.121,514.976c-1.625-3.018-3.03-6.182-4.922-9.022
			c-3.768-5.656-7.33-11.56-11.836-16.591c-7.437-8.307-15.98-8.862-24.081-1.253c-5.116,4.806-8.962,10.972-13.311,16.581
			c-1.053,1.358-1.838,2.924-3.436,5.51c-0.704-2.298-1.409-3.35-1.23-4.221c1.327-6.506,2.122-13.239,4.413-19.407
			c6.266-16.869,28.622-21.191,43.61-8.894c5.238,4.299,8.854,9.461,9.854,16.241c1.006,6.817,1.927,13.646,2.885,20.471
			C283.419,514.586,282.77,514.78,282.121,514.976z"/>
		<path fill-rule="evenodd" clip-rule="evenodd" fill="#E88A8F" d="M339.125,469.073c2.316,0.019,4.632,0.037,6.947,0.056
			c4.101,0.317,8.201,0.621,12.3,0.956c4.296,0.352,6.964,2.889,8.327,6.734c1.302,3.675-0.076,6.564-2.888,9.241
			c-3.978,3.79-8.844,4.007-13.79,4.301c-2.394-0.033-4.787-0.066-7.184-0.099c-4.566-0.663-9.161-1.167-13.685-2.039
			c-4.164-0.803-6.893-3.309-6.978-7.808c-0.085-4.504,2.695-6.883,6.665-8.156C332.259,471.165,335.696,470.134,339.125,469.073z"
			/>
		<path fill-rule="evenodd" clip-rule="evenodd" fill="#F4F4F4" d="M320.082,411.954c0.105,6.721-5.521,12.394-12.272,12.374
			c-6.59-0.019-11.987-5.371-12.096-11.997c-0.11-6.755,5.422-12.344,12.301-12.425C314.404,399.83,319.979,405.396,320.082,411.954
			z"/>
		<path fill-rule="evenodd" clip-rule="evenodd" fill="#F4F4F4" d="M326.109,445.082c-4.355-0.047-6.584-2.206-6.688-5.757
			c-0.103-3.542,2.033-6.069,5.771-6.126c3.611-0.055,5.908,1.911,6.058,5.753C331.402,442.851,329.135,444.578,326.109,445.082z"/>
		<path fill-rule="evenodd" clip-rule="evenodd" fill="#E1B9F2" d="M329.505,388.585c-0.671-0.056-1.342-0.111-2.013-0.167
			c0.405-0.262,0.81-0.523,1.214-0.786C328.972,387.949,329.238,388.267,329.505,388.585z"/>
		<path fill-rule="evenodd" clip-rule="evenodd" fill="#F7F7F7" d="M191.971,422.074c-6.762,0.039-12.561-5.639-12.536-12.272
			c0.025-6.476,5.533-11.963,12.158-12.11c6.982-0.156,12.603,5.155,12.682,11.985C204.354,416.463,198.825,422.034,191.971,422.074
			z"/>
		<path fill-rule="evenodd" clip-rule="evenodd" fill="#F6F6F6" d="M212.908,427.069c0.953,1.646,3.261,3.901,3.396,6.278
			c0.199,3.492-2.481,5.866-6.209,5.489c-3.592-0.362-5.674-2.679-5.315-6.479C205.145,428.488,207.703,427.088,212.908,427.069z"/>
		<path fill-rule="evenodd" clip-rule="evenodd" fill="#D1ACE0" d="M188.664,388.288c-5.501,2.402-9.773,0.026-13.346-6.871
			c0.25-0.41,0.499-0.819,0.749-1.229C180.162,382.822,184.257,385.455,188.664,388.288z"/>
		<path fill-rule="evenodd" clip-rule="evenodd" fill="#AC8BFE" d="M350.021,490.361c4.946-0.294,9.813-0.511,13.79-4.301
			c2.812-2.677,4.189-5.566,2.888-9.241c-1.363-3.846-4.031-6.383-8.327-6.734c-4.099-0.335-8.199-0.639-12.3-0.956
			c2.705-11.819,11.028-18.956,21.786-21.831c13.441-3.592,23.717-23.366,24.342-34.254c0.788-13.75-2.826-26.596-6.408-39.559
			c-2.175-7.869,1.023-14.717,8.123-18.357c1.776-0.911,3.586-1.763,5.354-2.689c16.733-8.766,26.754-3.168,35.386,11.638
			c5.006,8.586,6.596,18.065,7.328,27.641c1.581,20.667,0.023,41.138-7.924,60.476c-7.974,19.401-20.666,34.946-41.229,41.918
			c-11.167,3.785-23.079,4.336-34.755,2.673C355.145,496.368,352.692,492.593,350.021,490.361z"/>
	</g>
</g>
</svg>
