<?xml version="1.0" encoding="utf-8"?>
<!-- Generator: Adobe Illustrator 16.0.3, SVG Export Plug-In . SVG Version: 6.00 Build 0)  -->
<!DOCTYPE svg PUBLIC "-//W3C//DTD SVG 1.1//EN" "http://www.w3.org/Graphics/SVG/1.1/DTD/svg11.dtd">
<svg version="1.1" id="Capa_1" xmlns="http://www.w3.org/2000/svg" xmlns:xlink="http://www.w3.org/1999/xlink" x="0px" y="0px"
	 width="612px" height="792px" viewBox="0 0 612 792" enable-background="new 0 0 612 792" xml:space="preserve">
<g>
	<g>
		<path fill-rule="evenodd" clip-rule="evenodd" fill="#FEFEFE" d="M51,141c171.039,0,342.078,0,513.116,0
			c0,171.039,0,342.078,0,513.116c-171.038,0-342.077,0-513.116,0C51,483.078,51,312.039,51,141z M228.647,246.428
			c-0.137-0.451-0.274-0.901-0.411-1.351c-11.972-0.434-22.821,2.941-31.638,11.063c-11.863,10.928-23.254,22.37-34.796,33.646
			c-12.958,12.658-22.875,26.556-25.705,45.494c-1.756,11.751-7.612,22.914-11.818,34.271c-2.914,7.866-3.706,15.554-1.491,23.908
			c1.718,6.479,1.888,13.411,2.365,20.169c0.808,11.428,0.67,22.961,2.132,34.295c1.459,11.315,4.608,22.461,14.938,29.375
			c7.365,4.932,11.114,11.527,11.964,20.24c1.113,11.411,6.666,20.324,15.837,27.214c5.183,3.894,10.172,8.099,14.905,12.529
			c8.687,8.134,18.505,12.512,30.699,11.917c7.61-0.372,15.349,0.158,22.917,1.15c6.369,0.836,13.251,1.689,18.72,4.692
			c14.066,7.727,28.646,10.317,44.332,7.994c9.851-1.459,20.594-1.241,28.492-7.869c9.762-8.192,20.922-9.862,32.801-11.364
			c18.59-2.351,34.616-10.597,47.396-24.43c6.279-6.797,12.942-12.835,21.148-17.287c5.684-3.084,10.998-6.898,16.279-10.665
			c13.128-9.361,23.851-20.524,29.008-36.449c3.949-12.197,1.073-24.104-0.099-36.091c-1-10.233-3.416-20.289-1.711-30.741
			c1.477-9.061-1.461-17.13-7.475-24.027c-4.669-5.354-7.015-11.552-7.488-18.623c-0.73-10.894-3.6-20.945-11.712-28.934
			c-5.233-5.151-10.188-10.509-11.436-18.284c-0.296-1.84-1.546-3.803-2.91-5.152c-7.818-7.737-15.843-15.136-26.727-18.651
			c-2.72-0.878-5.216-3.222-7.201-5.441c-3.762-4.207-6.514-9.49-10.767-13.026c-3.148-2.618-7.934-3.457-12.127-4.573
			c-4.237-1.128-8.854-1.047-12.923-2.537c-5.286-1.935-10.13-5.046-15.29-7.372c-4.384-1.976-8.966-5.065-13.425-5.007
			c-10.487,0.138-20.048-2.115-29.952-5.409c-9.042-3.007-17.926,1.802-25.991,6.208c-4.722,2.58-9.321,3.498-14.734,3.338
			c-7.193-0.212-14.482,0.598-21.623,1.678C238.209,243.071,233.469,245.018,228.647,246.428z"/>
		<path fill-rule="evenodd" clip-rule="evenodd" fill="#C878AB" d="M228.647,246.428c4.821-1.41,9.562-3.356,14.484-4.101
			c7.14-1.081,14.43-1.89,21.623-1.678c5.413,0.16,10.012-0.758,14.734-3.338c8.065-4.406,16.949-9.216,25.991-6.208
			c9.904,3.294,19.464,5.546,29.952,5.409c4.459-0.059,9.041,3.031,13.425,5.007c5.16,2.326,10.004,5.437,15.29,7.372
			c4.069,1.489,8.686,1.408,12.923,2.537c4.193,1.116,8.979,1.956,12.127,4.573c4.253,3.536,7.005,8.819,10.767,13.026
			c1.985,2.219,4.481,4.563,7.201,5.441c10.884,3.515,18.908,10.914,26.727,18.651c1.364,1.349,2.614,3.312,2.91,5.152
			c1.248,7.775,6.202,13.133,11.436,18.284c8.112,7.988,10.981,18.04,11.712,28.934c0.474,7.071,2.819,13.27,7.488,18.623
			c6.014,6.897,8.951,14.966,7.475,24.027c-1.705,10.452,0.711,20.507,1.711,30.741c1.172,11.987,4.048,23.894,0.099,36.091
			c-5.157,15.925-15.88,27.088-29.008,36.449c-5.281,3.767-10.596,7.581-16.279,10.665c-8.206,4.452-14.869,10.49-21.148,17.287
			c-12.779,13.833-28.806,22.079-47.396,24.43c-11.879,1.502-23.039,3.172-32.801,11.364c-7.897,6.628-18.641,6.41-28.492,7.869
			c-15.686,2.323-30.265-0.268-44.332-7.994c-5.469-3.003-12.351-3.856-18.72-4.692c-7.568-0.992-15.307-1.522-22.917-1.15
			c-12.194,0.595-22.012-3.783-30.699-11.917c-4.733-4.431-9.722-8.636-14.905-12.529c-9.172-6.89-14.724-15.803-15.837-27.214
			c-0.85-8.713-4.599-15.309-11.964-20.24c-10.33-6.914-13.479-18.06-14.938-29.375c-1.461-11.334-1.324-22.867-2.132-34.295
			c-0.478-6.758-0.647-13.689-2.365-20.169c-2.214-8.354-1.423-16.042,1.491-23.908c4.206-11.356,10.062-22.519,11.818-34.271
			c2.83-18.938,12.748-32.835,25.705-45.494c11.542-11.276,22.933-22.718,34.796-33.646c8.817-8.122,19.667-11.497,31.638-11.063
			C228.374,245.527,228.51,245.977,228.647,246.428z M145.075,470.403c0.347,6.944,6.375,8.039,10.948,10.63
			c1.599,4.693,4.124,9.293,4.608,14.099c1.104,10.954,6.278,18.893,14.956,25.288c5.738,4.229,10.816,9.346,16.302,13.931
			c5.892,4.923,12.386,8.034,20.442,7.888c8.295-0.15,16.632,0.284,24.904,1.002c9.293,0.808,18.439,2.494,26.737,7.25
			c2.587,1.483,5.374,2.653,8.153,3.755c11.149,4.423,22.643,3.079,33.935,1.194c7.097-1.185,15.349-2.13,20.593-6.308
			c10.477-8.346,22.125-10.586,34.629-12.101c18.174-2.198,33.282-10.439,45.749-23.997c4.895-5.324,10.785-9.844,16.666-14.119
			c7.384-5.366,15.422-9.83,22.819-15.18c11.574-8.371,20.605-18.704,24.311-33.056c2.858-11.07-0.602-21.76-1.192-32.62
			c-0.521-9.552-1.505-19.106-1.435-28.653c0.059-7.917-0.535-15.153-6.297-21.319c-4.885-5.229-8.246-11.711-8.36-18.816
			c-0.242-14.936-6.749-26.359-17.537-36.034c-1.858-1.665-3.228-4.394-3.817-6.87c-3.317-13.935-14.732-19.72-25.995-24.775
			c-5.651-2.537-9.703-5.484-13.242-10.407c-4.741-6.595-8.518-15.546-19.634-12.429c-0.417,0.117-0.971-0.178-1.44-0.339
			c-4.376-1.5-8.995-2.527-13.073-4.611c-12.481-6.377-24.685-13.111-39.613-10.947c-2.609,0.378-5.813-1.323-8.328-2.779
			c-4.567-2.642-9.145-4.09-14.243-2.118c-5.242,2.027-10.467,4.12-15.588,6.43c-5.062,2.284-9.979,3.819-15.817,3.076
			c-5.69-0.724-12.337-1.63-17.197,0.566c-8.02,3.625-16.036,3.283-24.225,4.294c-6.996,0.864-15.139,2.808-20.177,7.231
			c-15.952,14.006-31.105,29.004-45.679,44.455c-5.538,5.872-10.859,13.573-12.413,21.225c-2.897,14.281-6.507,28.053-12.612,41.28
			c-2.965,6.423-6.589,13.169-4.31,20.544c3.406,11.026,3.905,22.211,3.36,33.565c-0.579,12.059,0.648,23.943,4.122,35.495
			C137.73,461.607,139.173,467.481,145.075,470.403z"/>
		<path fill-rule="evenodd" clip-rule="evenodd" fill="#E1B9F2" d="M145.075,470.403c-5.901-2.922-7.345-8.796-8.993-14.279
			c-3.474-11.552-4.701-23.437-4.122-35.495c0.545-11.354,0.046-22.539-3.36-33.565c-2.279-7.375,1.345-14.121,4.31-20.544
			c6.105-13.227,9.715-26.999,12.612-41.28c1.553-7.652,6.875-15.353,12.413-21.225c14.574-15.451,29.727-30.449,45.679-44.455
			c5.039-4.424,13.182-6.368,20.177-7.231c8.189-1.011,16.205-0.669,24.225-4.294c4.86-2.197,11.507-1.29,17.197-0.566
			c5.838,0.743,10.755-0.792,15.817-3.076c5.122-2.31,10.347-4.402,15.588-6.43c5.099-1.972,9.676-0.524,14.243,2.118
			c2.515,1.457,5.719,3.157,8.328,2.779c14.929-2.165,27.132,4.569,39.613,10.947c4.078,2.084,8.697,3.112,13.073,4.611
			c0.47,0.161,1.023,0.456,1.44,0.339c11.116-3.118,14.893,5.833,19.634,12.429c3.539,4.923,7.591,7.87,13.242,10.407
			c11.263,5.055,22.678,10.84,25.995,24.775c0.59,2.476,1.959,5.205,3.817,6.87c10.788,9.674,17.295,21.098,17.537,36.034
			c0.114,7.104,3.476,13.587,8.36,18.816c5.762,6.167,6.355,13.402,6.297,21.319c-0.07,9.547,0.914,19.102,1.435,28.653
			c0.591,10.86,4.051,21.55,1.192,32.62c-3.705,14.352-12.736,24.685-24.311,33.056c-7.397,5.35-15.436,9.813-22.819,15.18
			c-5.881,4.275-11.771,8.795-16.666,14.119c-12.467,13.558-27.575,21.799-45.749,23.997c-12.504,1.515-24.152,3.755-34.629,12.101
			c-5.244,4.178-13.496,5.123-20.593,6.308c-11.292,1.885-22.786,3.229-33.935-1.194c-2.779-1.102-5.566-2.271-8.153-3.755
			c-8.298-4.756-17.444-6.442-26.737-7.25c-8.271-0.718-16.608-1.152-24.904-1.002c-8.057,0.146-14.55-2.965-20.442-7.888
			c-5.486-4.585-10.564-9.701-16.302-13.931c-8.678-6.396-13.852-14.334-14.956-25.288c-0.484-4.806-3.009-9.405-4.608-14.099
			c6.31,0.045,12.622,0.191,18.929,0.104c6.342-0.089,11.11-4.056,11.664-9.42c0.438-4.246-3.43-8.772-9.427-9.919
			c-5.165-0.987-10.52-1.633-15.754-1.443C154.344,460.611,147.308,461.84,145.075,470.403z M338.973,469.83
			c-3.835,1.012-7.721,1.868-11.492,3.081c-3.503,1.127-5.531,3.584-5.347,7.49c0.19,4.009,2.312,6.75,6.092,7.543
			c5.169,1.084,10.459,1.592,15.697,2.346c2.082,6.807,7.537,11.604,14.426,11.703c7.122,0.103,14.309-0.087,21.377-0.916
			c33.446-3.924,51.274-25.78,61.189-55.379c6.114-18.252,7.524-37.373,5.106-56.621c-1.519-12.1-3.732-23.93-10.65-34.411
			c-7.035-10.657-15.767-18.512-29.448-16.438c-5.927,0.9-11.842,3.363-17.202,6.18c-11.017,5.791-18.047,17.029-12.688,30.876
			c1.318,3.407,2.439,6.909,3.399,10.435c3.021,11.116,5.91,22.352,1.619,33.729c-2.82,7.475-6.064,14.711-14.253,18.356
			c-5.55,2.472-11.021,5.408-15.928,8.964C343.195,452.33,339.336,460.279,338.973,469.83z M212.36,399.731
			c5.063,2.851,10.138,5.682,15.187,8.559c3.737,2.13,7.427,2.528,10.303-1.14c2.667-3.4,1.976-7.082-0.953-9.945
			c-14.85-14.522-28.112-30.74-45.988-42.027c-7.077-4.469-14.439-6.618-22.66-6.316c-6.888,0.254-10.485,5.145-7.815,11.563
			c1.954,4.697,5.039,8.924,7.641,13.349c0.567,0.966,1.933,2.085,1.729,2.786c-1.961,6.764,2.208,10.918,6.473,15.343
			c-1.355,1.532-2.625,2.967-4.681,5.292c-1.718-2.888-2.94-5.303-4.516-7.461c-1.073-1.471-2.641-2.58-3.988-3.851
			c-0.469,1.895-1.861,4.208-1.229,5.605c1.723,3.805,4.301,7.221,6.981,11.494c-0.98,2.108-2.405,5.174-3.719,8.002
			c-5.23-1.41-6.173-5.215-7.203-9.236c-0.317-1.239-2.371-2.035-3.63-3.033c-0.621,1.37-1.892,2.813-1.747,4.097
			c0.558,4.929,2.274,9.334,6.958,12.043c1.137,0.657,1.976,1.974,2.716,3.137c1.006,1.579,1.787,3.303,2.663,4.965
			c1.435-1.389,3.34-2.531,4.218-4.21c3.079-5.886,5.307-12.261,8.768-17.891c6.634-10.793,20.442-10.144,26.297,1.013
			c1.923,3.665,3.207,7.661,4.9,11.452c1.13,2.531,1.356,6.958,5.581,5.257c4.036-1.626,1.499-5.119,0.598-7.775
			c-1.174-3.459-2.603-6.83-3.922-10.238C211.668,400.285,212.014,400.008,212.36,399.731z M329.52,388.565
			c-0.273-0.293-0.547-0.586-0.819-0.88c7.638-8.116,15.415-16.11,22.785-24.463c1.309-1.484,1.829-4.87,1.034-6.614
			c-0.614-1.35-4.082-2.469-5.887-2.039c-14.84,3.54-29.57,6.876-43.605,13.753c-14.809,7.256-26.429,16.414-32.239,32.033
			c-0.791,2.126-0.724,4.57-1.053,6.866c2.309,0.236,4.685,0.939,6.914,0.619c6.256-0.899,12.452-2.22,19.649-3.557
			c-1.921,4.499-3.299,7.685-4.642,10.885c-0.981,2.341-2.306,5.271,0.982,6.25c1.257,0.375,4.08-1.989,5.078-3.739
			c2.877-5.044,4.352-11.081,7.903-15.503c6.712-8.36,14.587-12.531,23.376-3.599c3.648,3.708,6.403,8.459,8.893,13.096
			c2.265,4.218,3.583,8.939,5.388,13.41c0.971,2.405,2.447,4.103,5.346,2.661c3.052-1.517,6.393-2.7,9.015-4.776
			c4.212-3.334,8.039-7.185,11.761-11.073c0.582-0.607-0.252-2.57-0.431-3.907c-1.313,0.247-2.873,0.14-3.876,0.834
			c-1.166,0.809-1.85,2.316-2.733,3.526c-3.37,4.609-8.088,6.624-13.813,7.354c-1.327-3.388-2.587-6.604-3.988-10.18
			c12.854-2.884,16.373-13.499,20.347-23.59c0.473-1.2-0.772-3.078-1.221-4.642c-1.331,0.94-3.185,1.59-3.896,2.874
			c-2.013,3.627-2.974,7.966-5.451,11.173c-2.504,3.241-6.225,5.611-9.659,8.008c-0.734,0.513-3.04-0.062-3.741-0.885
			c-2.184-2.561-3.944-5.48-6.203-8.745c11.128-1.465,15.347-9.31,18.383-18.113c0.393-1.136-0.775-2.811-1.22-4.236
			c-1.284,0.732-2.712,1.302-3.798,2.258c-0.677,0.596-0.884,1.76-1.222,2.699C343.946,384.463,338.297,388.729,329.52,388.565z
			 M230.784,478.387c0.486,4.118,0.712,8.287,1.511,12.344c2.08,10.56,11.231,18.329,22.106,19.076
			c10.092,0.693,18.058-5.246,22.124-15.859c4.925-12.854,2.286-24.513-5.227-35.333c-7.001-10.083-19.875-11.582-29.2-3.657
			C234.917,461.061,230.37,468.496,230.784,478.387z"/>
		<path fill-rule="evenodd" clip-rule="evenodd" fill="#E98A8E" d="M145.075,470.403c2.233-8.563,9.269-9.792,16.36-10.049
			c5.234-0.189,10.589,0.456,15.754,1.443c5.998,1.146,9.865,5.673,9.427,9.919c-0.554,5.364-5.322,9.331-11.664,9.42
			c-6.308,0.088-12.619-0.059-18.929-0.104C151.45,478.442,145.421,477.348,145.075,470.403z"/>
		<path fill-rule="evenodd" clip-rule="evenodd" fill="#313032" d="M329.52,388.565c8.777,0.163,14.427-4.103,17.355-12.241
			c0.338-0.939,0.545-2.103,1.222-2.699c1.086-0.957,2.514-1.526,3.798-2.258c0.444,1.426,1.612,3.1,1.22,4.236
			c-3.036,8.804-7.255,16.648-18.383,18.113c2.259,3.265,4.02,6.185,6.203,8.745c0.701,0.823,3.007,1.397,3.741,0.885
			c3.435-2.397,7.155-4.768,9.659-8.008c2.478-3.207,3.438-7.546,5.451-11.173c0.711-1.284,2.564-1.934,3.896-2.874
			c0.448,1.564,1.693,3.441,1.221,4.642c-3.974,10.091-7.493,20.706-20.347,23.59c1.401,3.576,2.661,6.792,3.988,10.18
			c5.726-0.729,10.443-2.744,13.813-7.354c0.884-1.21,1.567-2.718,2.733-3.526c1.003-0.694,2.563-0.587,3.876-0.834
			c0.179,1.337,1.013,3.3,0.431,3.907c-3.722,3.889-7.549,7.739-11.761,11.073c-2.622,2.076-5.963,3.26-9.015,4.776
			c-2.898,1.441-4.375-0.256-5.346-2.661c-1.805-4.471-3.123-9.192-5.388-13.41c-2.489-4.637-5.244-9.388-8.893-13.096
			c-8.789-8.933-16.664-4.762-23.376,3.599c-3.551,4.422-5.026,10.459-7.903,15.503c-0.999,1.75-3.821,4.114-5.078,3.739
			c-3.289-0.979-1.964-3.909-0.982-6.25c1.343-3.2,2.721-6.386,4.642-10.885c-7.197,1.337-13.393,2.657-19.649,3.557
			c-2.229,0.32-4.604-0.383-6.914-0.619c0.33-2.296,0.262-4.74,1.053-6.866c5.81-15.619,17.43-24.777,32.239-32.033
			c14.035-6.876,28.765-10.213,43.605-13.753c1.805-0.431,5.272,0.688,5.887,2.039c0.795,1.744,0.274,5.13-1.034,6.614
			c-7.37,8.354-15.147,16.347-22.784,24.464c-0.166,0.324-0.332,0.646-0.499,0.97C328.642,388.626,329.08,388.596,329.52,388.565z"
			/>
		<path fill-rule="evenodd" clip-rule="evenodd" fill="#313031" d="M211.322,400.563c1.319,3.408,2.748,6.779,3.922,10.238
			c0.901,2.656,3.438,6.149-0.598,7.775c-4.224,1.701-4.451-2.726-5.581-5.257c-1.693-3.791-2.977-7.787-4.9-11.452
			c-5.855-11.156-19.664-11.806-26.297-1.013c-3.46,5.63-5.689,12.005-8.768,17.891c-0.878,1.679-2.784,2.821-4.218,4.21
			c-0.876-1.662-1.657-3.386-2.663-4.965c-0.74-1.163-1.579-2.479-2.716-3.137c-4.684-2.709-6.4-7.114-6.958-12.043
			c-0.145-1.283,1.126-2.727,1.747-4.097c1.259,0.998,3.313,1.794,3.63,3.033c1.03,4.021,1.972,7.826,7.203,9.236
			c1.313-2.828,2.739-5.894,3.719-8.002c-2.68-4.272-5.258-7.689-6.981-11.494c-0.632-1.397,0.76-3.71,1.229-5.605
			c1.347,1.271,2.915,2.379,3.988,3.851c1.575,2.158,2.797,4.573,4.516,7.461c2.056-2.325,3.326-3.761,4.681-5.292
			c-4.265-4.425-8.434-8.579-6.473-15.343c0.203-0.7-1.162-1.82-1.729-2.786c-2.602-4.425-5.687-8.652-7.641-13.349
			c-2.67-6.418,0.927-11.309,7.815-11.563c8.221-0.302,15.583,1.847,22.66,6.316c17.876,11.288,31.138,27.505,45.988,42.027
			c2.929,2.863,3.62,6.545,0.953,9.945c-2.876,3.668-6.566,3.27-10.303,1.14c-5.048-2.877-10.123-5.708-15.187-8.559
			c-0.39-0.13-0.779-0.261-1.169-0.392C211.235,399.747,211.278,400.154,211.322,400.563z M186.583,386.773
			c-4.078-2.415-7.402-4.383-10.726-6.351C178.516,387.652,180.774,388.962,186.583,386.773z"/>
		<path fill-rule="evenodd" clip-rule="evenodd" fill="#966BFD" d="M338.97,469.827c0.366-9.548,4.226-17.497,11.901-23.059
			c4.907-3.556,10.378-6.492,15.928-8.964c8.188-3.646,11.433-10.882,14.253-18.356c4.291-11.377,1.402-22.612-1.619-33.729
			c-0.96-3.526-2.081-7.028-3.399-10.435c-5.359-13.847,1.671-25.085,12.688-30.876c5.36-2.817,11.275-5.28,17.202-6.18
			c13.682-2.075,22.413,5.781,29.448,16.438c6.918,10.481,9.132,22.312,10.65,34.411c2.418,19.248,1.008,38.369-5.106,56.621
			c-9.915,29.599-27.743,51.455-61.189,55.379c-7.068,0.829-14.255,1.019-21.377,0.916c-6.889-0.1-12.344-4.896-14.424-11.704
			c2.695,0.011,5.389,0.022,8.082,0.035c1.106,3.644,3.939,4.703,7.329,4.752c4.663,0.066,9.479,0.76,13.961-0.146
			c9.516-1.922,20.004-2.767,28.044-7.52c18.812-11.12,29.955-28.702,34.776-50.116c3.479-15.455,5.235-31.023,2.966-46.839
			c-1.529-10.667-2.754-21.411-8.713-30.849c-5.483-8.685-12.015-16.26-23.439-14.343c-5.694,0.956-11.11,4.063-16.431,6.651
			c-8.029,3.906-11.068,11.567-8.345,19.958c1.335,4.11,2.859,8.164,4.05,12.314c3.363,11.726,5.951,23.55,1.878,35.648
			c-3.919,11.641-9.354,21.373-22.437,25.841c-10.472,3.575-18.637,10.97-19.614,23.422
			C343.678,469.343,341.324,469.585,338.97,469.827z"/>
		<path fill-rule="evenodd" clip-rule="evenodd" fill="#2F2E2F" d="M230.784,478.387c-0.415-9.891,4.133-17.326,11.314-23.43
			c9.325-7.925,22.199-6.426,29.2,3.657c7.513,10.82,10.152,22.479,5.227,35.333c-4.066,10.613-12.031,16.553-22.124,15.859
			c-10.875-0.747-20.027-8.517-22.106-19.076C231.496,486.674,231.271,482.505,230.784,478.387z"/>
		<path fill-rule="evenodd" clip-rule="evenodd" fill="#E88A8F" d="M352.007,490.324c-2.693-0.013-5.387-0.024-8.082-0.035
			c-5.24-0.753-10.53-1.261-15.699-2.345c-3.78-0.793-5.901-3.534-6.092-7.543c-0.185-3.906,1.844-6.363,5.347-7.49
			c3.771-1.213,7.657-2.069,11.491-3.083c2.353-0.243,4.706-0.485,7.061-0.729c4.104,0.327,8.206,0.649,12.309,0.981
			c4.301,0.349,6.979,2.871,8.351,6.718c1.311,3.675,0.405,7.241-2.986,9.078C360.069,487.847,355.928,488.882,352.007,490.324z"/>
		<path fill-rule="evenodd" clip-rule="evenodd" fill="#E1B9F2" d="M329.52,388.565c-0.439,0.03-0.878,0.061-1.317,0.091
			c0.167-0.324,0.333-0.646,0.499-0.97C328.973,387.979,329.246,388.272,329.52,388.565z"/>
		<path fill-rule="evenodd" clip-rule="evenodd" fill="#D1ACE1" d="M186.583,386.773c-5.809,2.189-8.067,0.879-10.726-6.351
			C179.18,382.39,182.504,384.358,186.583,386.773z"/>
		<path fill-rule="evenodd" clip-rule="evenodd" fill="#E1B9F2" d="M211.322,400.563c-0.044-0.409-0.087-0.816-0.131-1.224
			c0.39,0.131,0.779,0.262,1.169,0.392C212.014,400.008,211.668,400.285,211.322,400.563z"/>
		<path fill-rule="evenodd" clip-rule="evenodd" fill="#AC8BFE" d="M352.007,490.324c3.921-1.442,8.063-2.478,11.698-4.448
			c3.392-1.837,4.297-5.403,2.986-9.078c-1.372-3.847-4.05-6.369-8.351-6.718c-4.103-0.332-8.205-0.654-12.309-0.981
			c0.978-12.452,9.143-19.847,19.614-23.422c13.083-4.468,18.518-14.2,22.437-25.841c4.073-12.099,1.485-23.922-1.878-35.648
			c-1.19-4.15-2.715-8.204-4.05-12.314c-2.724-8.391,0.315-16.052,8.345-19.958c5.32-2.588,10.736-5.695,16.431-6.651
			c11.425-1.917,17.956,5.659,23.439,14.343c5.959,9.438,7.184,20.182,8.713,30.849c2.27,15.815,0.514,31.384-2.966,46.839
			c-4.821,21.414-15.965,38.996-34.776,50.116c-8.04,4.753-18.528,5.598-28.044,7.52c-4.482,0.905-9.298,0.212-13.961,0.146
			C355.946,495.027,353.113,493.968,352.007,490.324z"/>
	</g>
</g>
</svg>
