<?xml version="1.0" encoding="utf-8"?>
<!-- Generator: Adobe Illustrator 16.0.3, SVG Export Plug-In . SVG Version: 6.00 Build 0)  -->
<!DOCTYPE svg PUBLIC "-//W3C//DTD SVG 1.1//EN" "http://www.w3.org/Graphics/SVG/1.1/DTD/svg11.dtd">
<svg version="1.1" id="Capa_1" xmlns="http://www.w3.org/2000/svg" xmlns:xlink="http://www.w3.org/1999/xlink" x="0px" y="0px"
	 width="612px" height="792px" viewBox="0 0 612 792" enable-background="new 0 0 612 792" xml:space="preserve">
<g>
	<g>
		<path fill-rule="evenodd" clip-rule="evenodd" fill="#FEFEFE" d="M51.047,654.116c0-170.965,0-341.932,0-513.007
			c170.877,0,341.802,0,512.897,0c0,170.93,0,341.969,0,513.007C393.089,654.116,222.091,654.116,51.047,654.116z M144.862,470.414
			c0.992,2.229,1.983,4.459,2.975,6.688c1.776,9.084,3.798,18.13,5.256,27.265c1.378,8.634,5.031,15.745,13.063,19.461
			c9.141,4.229,15.903,10.542,21.058,19.122c3.975,6.614,10.223,9.932,18.139,9.199c3.462-0.32,6.881-1.097,10.329-1.601
			c16.085-2.347,32.078-4.037,47.402,3.821c3.356,1.722,7.15,2.92,10.878,3.527c25.67,4.182,51.076,3.278,75.985-4.784
			c8.321-2.693,16.358-5.96,21.249-13.919c4.034-6.567,9.805-9.43,17.548-9.323c9.155,0.125,17.207-3.106,22.406-10.91
			c5.128-7.695,12.081-12.363,20.835-14.335c14.131-3.184,22.48-11.668,26.227-25.668c1.048-3.919,4.908-7.146,7.677-10.527
			c2.391-2.92,6.148-5.188,7.424-8.474c6.229-16.035,9.202-32.372,1.17-48.841c-3.343-6.854-3.693-13.766-2.237-21.339
			c1.323-6.887,1.932-14.289,0.914-21.177c-2.765-18.732-12.726-33.757-26.881-45.969c-5.931-5.118-9.074-10.916-9.454-18.912
			c-0.218-4.576-2.088-9.472-4.482-13.462c-5.006-8.342-12.563-14.168-21.507-17.99c-7.735-3.307-15.012-6.943-19.783-14.458
			c-3.066-4.831-8.112-6.301-13.823-6.609c-4.482-0.242-8.936-1.551-13.338-2.644c-4.146-1.027-8.134-2.958-12.32-3.499
			c-11.966-1.549-23.717-3.902-34.305-9.816c-8.871-4.954-17.443-6.136-27.193-2.495c-12.408,4.634-24.873,9.476-38.771,7.538
			c-2.737-0.382-6.318,1.869-8.789,3.819c-3.47,2.738-6.958,3.968-11.378,4.129c-8.46,0.308-16.905,1.191-25.334,2.05
			c-1.533,0.156-3.263,1.027-4.391,2.104c-6.494,6.203-12.598,12.833-19.294,18.801c-6.663,5.937-13.352,12.146-20.977,16.617
			c-8.211,4.816-13.215,10.794-14.189,20.232c-0.71,6.877-2.864,13.001-7.36,18.669c-5.944,7.492-8.509,16.145-6.927,26.193
			c1.626,10.329,1.601,20.762-1.538,31.122c-3.122,10.306-5.657,20.841-7.637,31.426c-1.651,8.831-2.566,18.012,2.6,26.226
			C132.18,451.359,138.589,460.845,144.862,470.414z"/>
		<path fill-rule="evenodd" clip-rule="evenodd" fill="#C878AC" d="M144.861,470.417c-6.271-9.572-12.681-19.058-18.772-28.742
			c-5.166-8.214-4.251-17.395-2.6-26.226c1.98-10.585,4.515-21.12,7.637-31.426c3.139-10.36,3.164-20.793,1.538-31.122
			c-1.582-10.048,0.983-18.702,6.927-26.193c4.497-5.668,6.65-11.792,7.36-18.669c0.975-9.438,5.978-15.416,14.189-20.232
			c7.625-4.472,14.314-10.68,20.977-16.617c6.697-5.968,12.8-12.599,19.294-18.801c1.128-1.077,2.857-1.948,4.391-2.104
			c8.429-0.859,16.874-1.743,25.334-2.05c4.419-0.161,7.908-1.391,11.378-4.129c2.471-1.95,6.051-4.201,8.789-3.819
			c13.899,1.938,26.363-2.904,38.771-7.538c9.75-3.642,18.322-2.459,27.193,2.495c10.588,5.914,22.339,8.267,34.305,9.816
			c4.187,0.541,8.175,2.471,12.32,3.499c4.402,1.092,8.855,2.401,13.338,2.644c5.711,0.308,10.757,1.778,13.823,6.609
			c4.771,7.515,12.048,11.152,19.783,14.458c8.943,3.822,16.501,9.648,21.507,17.99c2.395,3.99,4.265,8.886,4.482,13.462
			c0.38,7.996,3.523,13.794,9.454,18.912c14.155,12.212,24.116,27.237,26.881,45.969c1.018,6.888,0.409,14.29-0.914,21.177
			c-1.456,7.573-1.105,14.485,2.237,21.339c8.032,16.469,5.059,32.806-1.17,48.841c-1.275,3.285-5.033,5.554-7.424,8.474
			c-2.769,3.382-6.629,6.608-7.677,10.527c-3.746,14-12.096,22.484-26.227,25.668c-8.754,1.972-15.707,6.64-20.835,14.335
			c-5.199,7.804-13.251,11.035-22.406,10.91c-7.743-0.106-13.514,2.756-17.548,9.323c-4.891,7.959-12.928,11.226-21.249,13.919
			c-24.909,8.063-50.315,8.966-75.985,4.784c-3.728-0.607-7.522-1.806-10.878-3.527c-15.325-7.858-31.317-6.168-47.402-3.821
			c-3.448,0.504-6.867,1.28-10.329,1.601c-7.916,0.732-14.164-2.585-18.139-9.199c-5.155-8.58-11.917-14.893-21.058-19.122
			c-8.032-3.716-11.685-10.827-13.063-19.461c-1.458-9.135-3.48-18.181-5.255-27.265c3.045,1.266,6.09,2.53,9.135,3.794
			c1.003,7.05,2.354,14.071,2.915,21.156c0.591,7.466,3.477,13.028,10.425,16.244c8.991,4.161,16.071,10.352,21.283,18.925
			c4.873,8.018,9.312,9.538,18.669,7.612c1.626-0.334,3.218-1.129,4.836-1.158c12.565-0.23,25.191-1.096,37.674-0.14
			c6.363,0.487,12.3,5.094,18.722,6.509c26.879,5.924,53.46,4.261,79.58-4.479c6.497-2.173,11.938-5.7,15.672-11.659
			c4.995-7.977,12.597-10.93,21.681-10.82c7.752,0.094,13.93-3.049,18.271-9.412c5.538-8.119,13.198-13.156,22.572-15.354
			c11.32-2.653,19.275-8.328,21.859-20.38c1.446-6.738,5.391-11.98,11.434-15.707c1.974-1.218,3.861-3.397,4.669-5.556
			c5.112-13.662,7.964-27.545,1.417-41.598c-4.389-9.422-5.678-18.973-2.428-29.016c0.651-2.015,0.86-4.239,0.905-6.374
			c0.462-21.884-10.159-38.506-25.763-52.354c-6.921-6.143-10.801-13.06-11.381-22.3c-0.237-3.793-1.188-8.358-3.557-11.029
			c-4.764-5.374-10.178-10.613-16.315-14.22c-9-5.29-18.928-8.846-25.134-18.165c-1.332-2-5.002-2.75-7.755-3.433
			c-5.341-1.327-10.829-2.057-16.19-3.314c-2.863-0.672-5.531-2.533-8.39-2.817c-13.869-1.379-27.256-4.512-39.528-11.175
			c-6.944-3.771-13.395-4.403-20.935-1.646c-12.745,4.66-25.51,9.74-39.7,7.927c-2.172-0.277-4.638,1.988-7.011,2.972
			c-4.02,1.668-7.961,3.738-12.15,4.719c-3.32,0.778-7.045-0.298-10.445,0.292c-6.581,1.14-13.857,1.507-19.368,4.726
			c-6.126,3.578-11.001,9.643-15.705,15.228c-6.874,8.163-14.836,14.817-24.315,19.534c-5.603,2.789-8.694,6.918-9.52,13.028
			c-1.165,8.624-3.298,16.615-9.247,23.7c-4.953,5.901-6.366,13.274-5.259,21.581c1.141,8.561,1.119,17.666-0.521,26.121
			c-2.8,14.436-8.317,28.232-9.46,43.177c-0.635,8.298,1.434,14.743,6.252,21.214c4.622,6.208,8.263,13.146,12.335,19.763
			C146.999,465.618,145.93,468.017,144.861,470.417z"/>
		<path fill-rule="evenodd" clip-rule="evenodd" fill="#E98A8E" d="M156.973,480.896c-3.045-1.264-6.09-2.528-9.135-3.794
			c-0.993-2.229-1.984-4.46-2.977-6.688c1.069-2.398,2.137-4.797,3.206-7.199c9.924-3.791,20.058-3.597,30.17-1.163
			c5.358,1.29,8.813,5.755,8.356,9.74c-0.575,5.018-5.088,9.162-10.716,9.298C169.581,481.241,163.275,480.979,156.973,480.896z"/>
		<path fill-rule="evenodd" clip-rule="evenodd" fill="#E2B9F2" d="M156.973,480.896c6.302,0.083,12.608,0.345,18.904,0.194
			c5.628-0.136,10.142-4.28,10.716-9.298c0.457-3.985-2.998-8.45-8.356-9.74c-10.112-2.434-20.246-2.628-30.17,1.163
			c-4.072-6.614-7.713-13.553-12.335-19.761c-4.819-6.471-6.887-12.916-6.252-21.214c1.144-14.945,6.661-28.741,9.46-43.177
			c1.64-8.455,1.663-17.561,0.521-26.121c-1.107-8.307,0.306-15.68,5.259-21.581c5.948-7.084,8.082-15.076,9.247-23.7
			c0.826-6.11,3.917-10.24,9.52-13.028c9.479-4.717,17.441-11.371,24.315-19.534c4.704-5.585,9.579-11.65,15.705-15.228
			c5.51-3.219,12.787-3.586,19.368-4.726c3.4-0.589,7.125,0.486,10.445-0.292c4.189-0.98,8.13-3.05,12.15-4.719
			c2.373-0.984,4.839-3.25,7.011-2.972c14.19,1.813,26.955-3.267,39.7-7.927c7.541-2.757,13.991-2.125,20.935,1.646
			c12.272,6.664,25.659,9.796,39.528,11.175c2.858,0.284,5.526,2.145,8.39,2.817c5.361,1.257,10.85,1.988,16.19,3.314
			c2.753,0.684,6.423,1.433,7.755,3.433c6.206,9.319,16.134,12.875,25.134,18.165c6.138,3.607,11.552,8.847,16.315,14.22
			c2.368,2.67,3.319,7.236,3.557,11.029c0.58,9.24,4.46,16.157,11.381,22.3c15.604,13.848,26.225,30.471,25.763,52.354
			c-0.045,2.134-0.254,4.358-0.905,6.374c-3.25,10.043-1.961,19.594,2.428,29.016c6.547,14.053,3.695,27.936-1.417,41.598
			c-0.808,2.158-2.695,4.338-4.669,5.556c-6.043,3.727-9.987,8.969-11.434,15.707c-2.584,12.052-10.539,17.727-21.859,20.38
			c-9.374,2.198-17.034,7.235-22.572,15.354c-4.342,6.363-10.52,9.506-18.271,9.412c-9.084-0.109-16.686,2.844-21.681,10.82
			c-3.733,5.959-9.175,9.486-15.672,11.659c-26.119,8.739-52.7,10.402-79.58,4.479c-6.422-1.415-12.359-6.021-18.722-6.509
			c-12.483-0.956-25.109-0.091-37.674,0.14c-1.618,0.029-3.21,0.824-4.836,1.158c-9.357,1.926-13.796,0.405-18.669-7.612
			c-5.212-8.573-12.292-14.764-21.283-18.925c-6.948-3.216-9.833-8.778-10.425-16.244
			C159.327,494.968,157.976,487.946,156.973,480.896z M342.917,490.281c2.066,7.651,9.395,13.564,17.63,13.64
			c5.966,0.055,11.951-0.38,17.902-0.891c15.58-1.337,28.987-7.081,40.481-18.151c20.454-19.698,27.431-44.678,28.895-71.677
			c0.6-11.025-0.68-22.238-1.996-33.259c-1.392-11.653-6.53-21.977-14.349-30.747c-9.881-11.082-25.859-11.994-41.104-2.655
			c-12.426,7.612-16.186,16.587-12.317,30.739c3.065,11.215,6.741,22.232,6.153,34.136c-0.635,12.835-8.726,24.026-20.469,29.051
			c-12.998,5.562-22.984,14.075-24.688,29.341c-3.806,0.991-7.663,1.823-11.403,3.021c-3.656,1.17-5.799,3.693-5.51,7.789
			c0.279,3.96,2.459,6.572,6.202,7.371C333.146,489.014,338.055,489.54,342.917,490.281z M332.569,394.113
			c10.028-0.866,16.058-6.316,19.15-14.961c0.825-2.308,1.202-6.919,0.323-7.329c-4.11-1.909-4.139,2.461-5.186,4.689
			c-4.416,9.398-12.307,14.662-21.928,12.379c-6.97-1.654-13.383-1.473-20.129,0.11c-12.417,2.916-22.071,9.221-24.788,22.32
			c-2.785,13.43-1.688,26.721,9.538,36.33c18.93,16.203,46.681,8.229,53.869-15.332c1.442-4.727,3.491-6.537,8.184-7.307
			c7.762-1.272,13.879-5.566,17.567-12.689c0.576-1.113-0.139-2.896-0.257-4.369c-1.408,0.412-3.066,0.494-4.162,1.321
			c-1.276,0.964-2.009,2.624-3.071,3.904c-4.113,4.959-9.729,6.297-15.658,7.136c-0.84-3.88-1.536-7.094-2.299-10.616
			c13.519-2.55,17.277-13.573,21.309-24.229c0.404-1.068-0.855-2.766-1.343-4.172c-1.265,0.784-3.078,1.273-3.695,2.409
			c-2.061,3.795-3.581,7.879-5.521,11.745c-2.305,4.591-6.072,7.5-11.175,8.312c-1.255,0.199-3.13-0.125-3.911-0.962
			C337.044,400.295,335.101,397.413,332.569,394.113z M169.112,413.797c-5.458-2.902-10.651-5.217-11.221-12.113
			c-0.089-1.075-2.373-1.97-3.642-2.947c-0.6,1.379-1.76,2.782-1.706,4.136c0.308,7.683,5.614,11.619,11.695,14.87
			c2.725,1.457,4.486,3.142,4.85,6.772c1.066,10.641,6.942,18.195,16.711,22.466c12.908,5.643,29.167,1.712,38.251-9.006
			c9.012-10.632,9.574-23.931,1.546-36.561c-7.904-12.433-20.85-17.232-35.526-13.169c-7.714,2.135-12.652-0.689-15.12-8.228
			c-0.5-1.528-2.318-2.625-3.529-3.921c-0.633,1.791-2.315,4.13-1.715,5.274c2.45,4.679,5.596,8.993,8.75,13.847
			c-0.48,0.514-1.69,1.814-2.924,3.137c-4.571-1.979-7.652-4.833-8.779-9.735c-0.262-1.141-2.169-1.904-3.318-2.84
			c-0.714,1.328-2.004,2.658-1.998,3.983c0.008,1.724,0.636,3.779,1.719,5.099c2.689,3.276,5.789,6.217,9.038,9.619
			C171.364,406.986,170.333,410.104,169.112,413.797z M282.482,475.109c-0.941,1.667-1.592,3.13-2.512,4.396
			c-4.168,5.742-7.799,12.044-12.768,16.996c-8.176,8.149-17.042,7.877-24.789-0.883c-5.667-6.408-9.987-14.008-14.906-21.077
			c-0.823-1.184-1.637-2.374-2.455-3.562c-0.67,0.27-1.341,0.538-2.013,0.808c1.895,8.671,3.703,17.362,5.758,25.994
			c0.405,1.701,1.594,3.308,2.711,4.73c8.757,11.152,23.463,15.1,35.268,9.549c11.712-5.506,20.226-23.037,17.297-35.676
			C284.018,476.138,283.588,475.978,282.482,475.109z"/>
		<path fill-rule="evenodd" clip-rule="evenodd" fill="#302F30" d="M332.569,394.113c2.531,3.3,4.475,6.182,6.816,8.689
			c0.781,0.837,2.656,1.161,3.911,0.962c5.103-0.812,8.87-3.721,11.175-8.312c1.94-3.866,3.461-7.95,5.521-11.745
			c0.617-1.136,2.431-1.625,3.695-2.409c0.487,1.406,1.747,3.104,1.343,4.172c-4.031,10.656-7.79,21.68-21.309,24.229
			c0.763,3.522,1.459,6.736,2.299,10.616c5.929-0.839,11.545-2.177,15.658-7.136c1.063-1.28,1.795-2.94,3.071-3.904
			c1.096-0.827,2.754-0.909,4.162-1.321c0.118,1.474,0.833,3.256,0.257,4.369c-3.688,7.123-9.806,11.417-17.567,12.689
			c-4.692,0.77-6.741,2.58-8.184,7.307c-7.188,23.562-34.938,31.535-53.869,15.332c-11.226-9.609-12.323-22.9-9.538-36.33
			c2.717-13.1,12.371-19.405,24.788-22.32c6.746-1.583,13.159-1.764,20.129-0.11c9.621,2.283,17.512-2.98,21.928-12.379
			c1.047-2.228,1.075-6.598,5.186-4.689c0.879,0.409,0.502,5.021-0.323,7.329C348.627,387.797,342.598,393.247,332.569,394.113z
			 M308.066,424.326c6.581-0.123,12.006-5.618,12.015-12.173c0.01-6.773-5.623-12.337-12.406-12.254
			c-6.827,0.084-12.191,5.758-11.957,12.647C295.944,419.195,301.452,424.449,308.066,424.326z M325.292,445.1
			c3.529-0.262,5.87-1.877,5.958-5.776c0.086-3.84-2.087-5.962-5.689-6.134c-3.737-0.178-6.013,2.233-6.137,5.771
			C319.299,442.518,321.412,444.779,325.292,445.1z"/>
		<path fill-rule="evenodd" clip-rule="evenodd" fill="#302F30" d="M169.112,413.797c1.221-3.692,2.252-6.811,3.081-9.316
			c-3.249-3.402-6.348-6.343-9.038-9.619c-1.083-1.319-1.711-3.375-1.719-5.099c-0.006-1.326,1.284-2.656,1.998-3.983
			c1.149,0.936,3.056,1.699,3.318,2.84c1.127,4.902,4.208,7.756,8.779,9.735c1.233-1.323,2.444-2.624,2.924-3.137
			c-3.153-4.854-6.3-9.168-8.75-13.847c-0.6-1.145,1.082-3.484,1.715-5.274c1.211,1.296,3.029,2.393,3.529,3.921
			c2.468,7.539,7.406,10.363,15.12,8.228c14.676-4.063,27.622,0.737,35.526,13.169c8.028,12.63,7.466,25.929-1.546,36.561
			c-9.084,10.718-25.343,14.648-38.251,9.006c-9.769-4.271-15.645-11.825-16.711-22.466c-0.364-3.631-2.125-5.315-4.85-6.772
			c-6.081-3.251-11.387-7.188-11.695-14.87c-0.054-1.354,1.106-2.757,1.706-4.136c1.269,0.978,3.553,1.872,3.642,2.947
			C158.461,408.58,163.654,410.895,169.112,413.797z M204.272,409.834c0.002-6.892-5.478-12.198-12.522-12.127
			c-6.631,0.065-12.182,5.446-12.313,11.937c-0.135,6.612,5.614,12.387,12.376,12.43
			C198.664,422.116,204.271,416.609,204.272,409.834z M210.467,427.015c-3.239,0.396-5.684,1.963-5.705,5.864
			c-0.021,3.828,2.253,5.905,5.852,5.984c3.473,0.076,5.663-2.216,5.827-5.561C216.618,429.699,214.545,427.47,210.467,427.015z"/>
		<path fill-rule="evenodd" clip-rule="evenodd" fill="#976CFE" d="M339.056,469.809c1.704-15.266,11.69-23.779,24.688-29.341
			c11.743-5.024,19.834-16.216,20.469-29.051c0.588-11.903-3.088-22.921-6.153-34.136c-3.868-14.152-0.108-23.127,12.317-30.739
			c15.244-9.339,31.223-8.427,41.104,2.655c7.818,8.77,12.957,19.093,14.349,30.747c1.316,11.021,2.596,22.233,1.996,33.259
			c-1.464,26.999-8.44,51.979-28.895,71.677c-11.494,11.07-24.901,16.814-40.481,18.151c-5.951,0.511-11.937,0.945-17.902,0.891
			c-8.235-0.075-15.563-5.988-17.628-13.641c2.396,0.02,4.791,0.04,7.185,0.061c3.499,5.139,8.294,7.386,14.524,6.772
			c4.778-0.47,9.61-0.469,14.366-1.083c9.246-1.196,18.439-2.769,26.152-8.631c16.307-12.399,27.321-28.242,32.013-48.41
			c3.912-16.82,5.091-33.724,2.901-50.858c-1.423-11.123-3.911-21.75-10.84-31.087c-5.286-7.125-16.509-12.829-25.357-8.439
			c-3.571,1.771-7.293,3.235-10.866,5.002c-8.104,4.01-11.242,10.858-8.997,19.722c0.936,3.698,2.102,7.343,3.281,10.973
			c3.647,11.221,5.665,22.708,2.606,34.266c-3.078,11.631-8.106,22.157-20.36,27.309c-4.979,2.094-9.857,4.703-14.268,7.809
			c-5.191,3.655-8.067,9.134-9.195,15.438C343.729,469.352,341.392,469.58,339.056,469.809z"/>
		<path fill-rule="evenodd" clip-rule="evenodd" fill="#302F31" d="M282.482,475.109c1.106,0.868,1.535,1.028,1.592,1.275
			c2.929,12.639-5.585,30.17-17.297,35.676c-11.805,5.551-26.51,1.604-35.268-9.549c-1.117-1.423-2.306-3.029-2.711-4.73
			c-2.056-8.632-3.863-17.323-5.758-25.994c0.671-0.27,1.342-0.538,2.013-0.808c0.818,1.188,1.632,2.378,2.455,3.562
			c4.918,7.069,9.239,14.669,14.906,21.077c7.747,8.76,16.613,9.032,24.789,0.883c4.968-4.952,8.6-11.254,12.768-16.996
			C280.89,478.239,281.542,476.776,282.482,475.109z"/>
		<path fill-rule="evenodd" clip-rule="evenodd" fill="#E88A8F" d="M339.056,469.809c2.336-0.229,4.673-0.457,7.009-0.687
			c4.301,0.333,8.864-0.104,12.816,1.248c3.041,1.04,6.046,3.895,7.731,6.733c1.813,3.058,0.036,6.207-2.643,8.811
			c-3.978,3.868-8.856,4.185-13.866,4.427c-2.394-0.021-4.788-0.041-7.185-0.061c-4.864-0.74-9.772-1.267-14.574-2.291
			c-3.743-0.799-5.923-3.411-6.202-7.371c-0.289-4.096,1.854-6.619,5.51-7.789C331.393,471.632,335.25,470.8,339.056,469.809z"/>
		<path fill-rule="evenodd" clip-rule="evenodd" fill="#F4F4F4" d="M308.066,424.326c-6.615,0.123-12.123-5.131-12.348-11.779
			c-0.234-6.89,5.129-12.563,11.957-12.647c6.783-0.083,12.416,5.48,12.406,12.254C320.072,418.708,314.647,424.203,308.066,424.326
			z"/>
		<path fill-rule="evenodd" clip-rule="evenodd" fill="#F4F4F4" d="M325.292,445.1c-3.88-0.32-5.993-2.582-5.868-6.14
			c0.124-3.537,2.399-5.948,6.137-5.771c3.603,0.172,5.775,2.294,5.689,6.134C331.162,443.223,328.821,444.838,325.292,445.1z"/>
		<path fill-rule="evenodd" clip-rule="evenodd" fill="#F7F7F7" d="M204.272,409.834c-0.002,6.775-5.608,12.282-12.46,12.239
			c-6.762-0.043-12.511-5.817-12.376-12.43c0.132-6.49,5.683-11.871,12.313-11.937C198.795,397.636,204.275,402.942,204.272,409.834
			z"/>
		<path fill-rule="evenodd" clip-rule="evenodd" fill="#F6F6F6" d="M210.467,427.015c4.078,0.455,6.151,2.685,5.975,6.288
			c-0.164,3.345-2.354,5.637-5.827,5.561c-3.599-0.079-5.873-2.156-5.852-5.984C204.783,428.978,207.228,427.41,210.467,427.015z"/>
		<path fill-rule="evenodd" clip-rule="evenodd" fill="#AC8BFE" d="M350.104,490.341c5.01-0.242,9.889-0.559,13.866-4.427
			c2.679-2.604,4.456-5.753,2.643-8.811c-1.686-2.839-4.69-5.693-7.731-6.733c-3.952-1.352-8.516-0.915-12.816-1.248
			c1.128-6.304,4.004-11.782,9.195-15.438c4.41-3.105,9.288-5.715,14.268-7.809c12.254-5.151,17.282-15.678,20.36-27.309
			c3.059-11.558,1.041-23.044-2.606-34.266c-1.18-3.63-2.346-7.274-3.281-10.973c-2.245-8.864,0.893-15.712,8.997-19.722
			c3.573-1.767,7.295-3.231,10.866-5.002c8.849-4.39,20.071,1.314,25.357,8.439c6.929,9.337,9.417,19.964,10.84,31.087
			c2.189,17.134,1.011,34.038-2.901,50.858c-4.691,20.168-15.706,36.011-32.013,48.41c-7.713,5.862-16.906,7.435-26.152,8.631
			c-4.756,0.614-9.588,0.613-14.366,1.083C358.397,497.727,353.603,495.479,350.104,490.341z"/>
	</g>
</g>
</svg>
