<?xml version="1.0" encoding="utf-8"?>
<!-- Generator: Adobe Illustrator 16.0.3, SVG Export Plug-In . SVG Version: 6.00 Build 0)  -->
<!DOCTYPE svg PUBLIC "-//W3C//DTD SVG 1.1//EN" "http://www.w3.org/Graphics/SVG/1.1/DTD/svg11.dtd">
<svg version="1.1" id="Capa_1" xmlns="http://www.w3.org/2000/svg" xmlns:xlink="http://www.w3.org/1999/xlink" x="0px" y="0px"
	 width="612px" height="792px" viewBox="0 0 612 792" enable-background="new 0 0 612 792" xml:space="preserve">
<g>
	<g>
		<path fill-rule="evenodd" clip-rule="evenodd" fill="#FEFEFE" d="M51,141c171.039,0,342.078,0,513.116,0
			c0,171.039,0,342.078,0,513.116c-171.038,0-342.077,0-513.116,0C51,483.078,51,312.039,51,141z M310.412,553.507
			c12.233-0.888,24.213-1.548,36.146-2.695c8.607-0.827,17.521-1.552,24.056-8.256c6.403-6.571,14.198-10.221,22.873-12.59
			c16.462-4.496,30.116-12.734,38.987-28.104c5.467-9.472,13.296-16.83,22.97-22.436c15.755-9.128,21.712-23.187,17.482-41.127
			c-1.953-8.284-0.972-15.783,1.159-23.923c5.031-19.22,5.241-38.054-10.176-53.628c-4.476-4.522-6.345-9.993-6.377-16.283
			c-0.06-11.714-4.327-22.185-10.464-31.833c-2.238-3.52-5.508-6.996-9.143-8.886c-6.802-3.536-10.528-8.462-12.143-15.922
			c-2.027-9.375-5.643-12.118-15.207-12.844c-4.471-0.34-7.868-1.906-10.436-5.746c-2.584-3.869-5.63-7.432-8.521-11.092
			c-4.039-5.112-9.196-7.077-15.801-6.598c-7.816,0.566-14.962-2.067-20.12-8.022c-3.525-4.07-7.387-5.503-12.584-5.654
			c-13.952-0.408-28.051-0.22-41.785-2.299c-11.565-1.75-22.091-0.885-32.591,3.781c-5.93,2.634-11.935,5.114-17.994,7.433
			c-2.114,0.809-4.486,1.237-6.753,1.294c-6.799,0.172-13.625-0.252-20.405,0.152c-12.193,0.728-24.475,1.949-34.192,10.407
			c-3.735,3.251-6.314,7.832-9.406,11.818c-2.677,3.451-4.834,7.53-8.127,10.223c-4.009,3.278-7.095,6.703-8.975,11.606
			c-1.054,2.75-3.297,5.281-5.568,7.268c-2.987,2.613-7.046,4.111-9.697,6.967c-3.284,3.54-7.301,7.716-7.98,12.087
			c-1.46,9.396-5.086,17.849-8.312,26.561c-2.482,6.704-5.264,13.435-6.559,20.404c-1.406,7.567-2.557,15.618-1.457,23.111
			c1.613,10.983,2.209,21.799,1.403,32.814c-0.522,7.125,0.828,14.079,4.792,20.089c5.701,8.645,7.795,18.204,8.682,28.298
			c1.828,20.807,11.091,37.743,27.144,51.051c7.177,5.948,13.973,12.407,21.502,17.861c4.45,3.223,9.779,5.799,15.097,7.128
			c8.521,2.13,17.351,3.058,26.072,4.349c5.24,0.776,10.515,1.737,15.786,1.816c15.138,0.227,30.285-0.103,45.425,0.091
			C296.359,552.268,303.494,553.052,310.412,553.507z"/>
		<path fill-rule="evenodd" clip-rule="evenodd" fill="#F82B82" d="M310.412,553.507c-6.918-0.455-14.053-1.239-21.196-1.33
			c-15.14-0.193-30.287,0.136-45.425-0.091c-5.271-0.079-10.545-1.04-15.786-1.816c-8.721-1.291-17.55-2.219-26.072-4.349
			c-5.318-1.329-10.647-3.905-15.097-7.128c-7.529-5.454-14.325-11.913-21.502-17.861c-16.053-13.308-25.315-30.244-27.144-51.051
			c-0.887-10.094-2.981-19.653-8.682-28.298c-3.963-6.01-5.313-12.964-4.792-20.089c0.806-11.016,0.21-21.831-1.403-32.814
			c-1.1-7.493,0.051-15.544,1.457-23.111c1.294-6.969,4.076-13.701,6.559-20.404c3.226-8.712,6.851-17.164,8.312-26.561
			c0.679-4.371,4.696-8.547,7.98-12.087c2.651-2.856,6.71-4.354,9.697-6.967c2.271-1.987,4.514-4.519,5.568-7.268
			c1.88-4.904,4.966-8.328,8.975-11.606c3.293-2.693,5.45-6.772,8.127-10.223c3.091-3.986,5.671-8.567,9.406-11.818
			c9.717-8.458,21.999-9.679,34.192-10.407c6.78-0.404,13.605,0.02,20.405-0.152c2.268-0.057,4.64-0.485,6.753-1.294
			c6.06-2.318,12.064-4.798,17.994-7.433c10.5-4.666,21.025-5.531,32.591-3.781c13.734,2.079,27.833,1.891,41.785,2.299
			c5.197,0.151,9.059,1.584,12.584,5.654c5.158,5.956,12.304,8.589,20.12,8.022c6.604-0.479,11.762,1.486,15.801,6.598
			c2.892,3.66,5.938,7.223,8.521,11.092c2.567,3.84,5.965,5.406,10.436,5.746c9.564,0.726,13.18,3.468,15.207,12.844
			c1.614,7.46,5.341,12.386,12.143,15.922c3.635,1.89,6.904,5.366,9.143,8.886c6.137,9.649,10.404,20.119,10.464,31.833
			c0.032,6.291,1.901,11.761,6.377,16.283c15.417,15.575,15.207,34.408,10.176,53.628c-2.131,8.14-3.112,15.639-1.159,23.923
			c4.229,17.94-1.728,31.999-17.482,41.127c-9.674,5.605-17.503,12.964-22.97,22.436c-8.871,15.37-22.525,23.608-38.987,28.104
			c-8.675,2.369-16.47,6.019-22.873,12.59c-6.535,6.704-15.448,7.429-24.056,8.256C334.625,551.959,322.646,552.619,310.412,553.507
			z M437.5,484.042c3.536-2.685,7.073-5.367,10.609-8.052c4.414-3.215,9.588-5.769,13.075-9.787
			c6.271-7.227,7.516-16.317,5.284-25.453c-2.362-9.661-1.654-18.626,1.06-28.325c4.824-17.244,4.769-34.298-9.563-48.271
			c-4.515-4.402-6.896-10.108-6.982-16.639c-0.132-9.836-2.442-19.219-7.533-27.611c-2.425-3.999-5.478-8.427-9.391-10.547
			c-8.336-4.52-13.281-10.829-14.859-19.982c-0.871-5.055-3.734-7.429-8.902-7.567c-6.731-0.18-12.043-2.946-15.873-8.81
			c-2.717-4.16-5.838-8.196-9.439-11.585c-1.938-1.823-5.318-3.147-7.958-3.004c-10.131,0.543-18.729-2.703-25.688-9.736
			c-2.893-2.922-5.731-3.778-9.622-3.909c-13.782-0.465-27.697-0.338-41.276-2.354c-9.991-1.485-18.923-0.872-28.209,2.824
			c-12.153,4.834-23.76,12.628-37.972,8.901c-0.154-0.04-0.333,0.001-0.499,0.019c-8.759,0.949-17.782,0.897-26.206,3.117
			c-9.228,2.433-17.991,6.438-21.959,16.882c-1.657,4.36-5.686,7.874-8.857,11.584c-1.697,1.985-5.042,3.252-5.614,5.388
			c-2.537,9.477-9.576,14.44-17.281,19.007c-5.79,3.433-8.171,8.76-8.884,15.301c-0.408,3.739-1.579,7.452-2.821,11.033
			c-3.38,9.743-7.528,19.255-10.299,29.159c-1.799,6.429-3.135,13.597-2.167,20.057c1.666,11.1,2.965,22.091,2.107,33.271
			c-0.62,8.078,0.79,15.579,5.31,22.398c5.329,8.039,7.051,17.208,7.778,26.537c1.504,19.29,9.497,35.066,24.459,47.372
			c7.325,6.025,14.319,12.462,21.783,18.304c3.057,2.393,6.782,4.375,10.516,5.354c5.591,1.465,11.547,1.494,17.189,2.813
			c14.896,3.484,29.842,4.357,45.064,2.732c6.085-0.649,12.394-0.592,18.458,0.215c18.632,2.48,37.221,1.433,55.834,0.221
			c13.303-0.866,25.634-3.32,35.823-13.567c4.22-4.242,11.436-5.852,17.564-7.778c14.192-4.458,26.786-10.64,34.482-24.418
			C429.092,493.675,433.636,489.048,437.5,484.042z"/>
		<path fill-rule="evenodd" clip-rule="evenodd" fill="#EAA7CD" d="M437.5,484.042c-3.864,5.006-8.408,9.633-11.459,15.094
			c-7.696,13.778-20.29,19.96-34.482,24.418c-6.129,1.927-13.345,3.536-17.564,7.778c-10.189,10.247-22.521,12.701-35.823,13.567
			c-18.613,1.212-37.202,2.26-55.834-0.221c-6.064-0.807-12.373-0.864-18.458-0.215c-15.222,1.625-30.168,0.752-45.064-2.732
			c-5.642-1.319-11.598-1.349-17.189-2.813c-3.733-0.979-7.459-2.961-10.516-5.354c-7.464-5.842-14.458-12.278-21.783-18.304
			c-14.962-12.306-22.955-28.082-24.459-47.372c-0.727-9.329-2.449-18.498-7.778-26.537c-4.52-6.819-5.93-14.32-5.31-22.398
			c0.858-11.181-0.441-22.172-2.107-33.271c-0.969-6.46,0.367-13.628,2.167-20.057c2.771-9.904,6.919-19.417,10.299-29.159
			c1.242-3.581,2.414-7.293,2.821-11.033c0.713-6.542,3.094-11.869,8.884-15.301c7.705-4.567,14.744-9.53,17.281-19.007
			c0.572-2.135,3.917-3.403,5.614-5.388c3.171-3.71,7.2-7.224,8.857-11.584c3.968-10.444,12.732-14.449,21.959-16.882
			c8.424-2.22,17.447-2.168,26.206-3.117c0.166-0.018,0.345-0.059,0.499-0.019c14.211,3.727,25.819-4.067,37.972-8.901
			c9.286-3.695,18.218-4.309,28.209-2.824c13.579,2.016,27.494,1.889,41.276,2.354c3.891,0.131,6.729,0.986,9.622,3.909
			c6.96,7.033,15.558,10.279,25.688,9.736c2.64-0.143,6.021,1.181,7.958,3.004c3.602,3.389,6.723,7.425,9.439,11.585
			c3.83,5.863,9.142,8.63,15.873,8.81c5.168,0.138,8.031,2.512,8.902,7.567c1.578,9.154,6.523,15.463,14.859,19.982
			c3.913,2.121,6.966,6.548,9.391,10.547c5.091,8.393,7.401,17.775,7.533,27.611c0.087,6.53,2.468,12.236,6.982,16.639
			c14.331,13.972,14.387,31.027,9.563,48.271c-2.714,9.699-3.422,18.664-1.06,28.325c2.231,9.136,0.986,18.227-5.284,25.453
			c-3.487,4.019-8.661,6.572-13.075,9.787c-1.285-7.237-4.141-11.431-9.545-11.681c-7.495-0.347-15.096-0.132-22.548,0.736
			c-6.05,0.704-9.97,5.372-9.549,9.617c0.537,5.411,5.28,9.357,11.612,9.434C424.552,484.174,431.026,484.068,437.5,484.042z
			 M280.678,366.996c0.74-2.354,1.34-4.764,2.247-7.051c2.364-5.961,1.417-11.629-2.158-16.584
			c-2.801-3.881-6.253-7.373-9.793-10.626c-9.328-8.572-16.586-8.004-25.054,1.67c-1.092,1.249-1.918,2.746-3.087,3.906
			c-0.853,0.845-2.047,1.838-3.123,1.879c-5.107,0.196-10.226,0.088-15.484,0.088c-0.401-4.213-0.678-7.671-1.074-11.116
			c-0.391-3.407-0.476-6.139,3.748-7.811c1.882-0.744,3.464-4.136,3.789-6.516c0.602-4.413,0.559-9.005,0.103-13.452
			c-0.833-8.142-6.628-13.447-14.646-14.545c-3.593-0.492-7.066-1.803-10.64-2.515c-3.538-0.704-7.258-1.994-10.681-1.504
			c-11.053,1.581-18.476,14.008-15.4,24.916c0.857,3.037,1.977,6.018,2.598,9.101c1.588,7.884,6.632,12.618,14.659,13.165
			c3.284,0.224,6.596,0.037,9.797,0.037c3.193,9.712,4.749,18.802-1.667,27.533c-1.825,2.483-3.055,3.777-6.712,2.982
			c-8.542-1.857-15.156,3.088-20.937,8.364c-4.786,4.367-2.053,9.886-0.32,14.929c0.432,1.258,0.844,2.523,1.273,3.782
			c2.688,7.89,7.611,13.552,15.892,15.786c4.17,1.125,8.361,2.181,12.567,3.162c5.304,1.236,16.228-4.849,17.244-10.117
			c1.298-6.732,0.779-13.401-4.562-18.584c-1.525-1.48-3.595-2.398-5.791-3.817c4.739-5.887,8.006-10.508,11.855-14.578
			c4.294-4.539,11.362-4.765,14.977-1.043c-1.483,3.545-0.367,6.43,2.15,9.069c7.337,7.695,14.624,15.439,21.931,23.163
			c-0.25,0.293-0.499,0.586-0.748,0.88c-9.082,0.276-14.47-4.415-17.691-12.583c-0.734-1.862-3.781-4.681-4.557-4.337
			c-3.567,1.582-1.305,4.444-0.421,6.76c3.364,8.811,9.079,14.963,19.75,15.743c-1.917,2.34-3.29,3.958-4.599,5.625
			c-4.015,5.111-6.623,5.704-11.873,1.743c-2.431-1.834-4.49-4.434-6.053-7.078c-2.019-3.418-3.193-7.328-5.12-10.811
			c-0.613-1.11-2.465-1.535-3.751-2.273c-0.443,1.428-1.634,3.144-1.212,4.24c4.083,10.611,7.795,21.675,21.366,24.108
			c-0.87,3.718-1.647,7.038-2.464,10.535c-7.599-0.771-13.618-3.496-17.903-9.825c-0.89-1.315-3.288-1.609-4.992-2.373
			c0.2,1.903-0.166,4.126,0.696,5.657c4.071,7.236,10.907,10.596,18.752,11.817c3.31,0.515,4.673,1.779,5.55,5.008
			c5.225,19.261,15.954,26.511,35.713,24.512c17.489-1.771,28.042-12.368,29.083-29.856c0.35-5.856-0.479-11.783-0.781-17.941
			c1.05,0.218,2.612,0.799,4.177,0.804c1.992,0.007,5.192,0.159,5.705-0.852c0.832-1.637,0.383-4.355-0.367-6.293
			c-6.026-15.58-16.774-26.432-32.604-32.194C286.779,370.5,283.791,368.578,280.678,366.996z M362.575,414.846
			c-3.401,17.264,7.002,33.327,24.923,36.906c17.277,3.451,33.676-5.832,36.065-21.579c0.897-5.915,3.553-8.776,8.1-11.132
			c5.276-2.735,8.467-6.992,8.831-12.945c0.089-1.441-1.216-2.967-1.879-4.453c-1.202,1.097-3.323,2.093-3.455,3.307
			c-0.739,6.803-5.809,9.058-11.201,11.771c-1.152-3.576-2.194-6.809-3.236-10.042c0.521,0.232,1.041,0.466,1.561,0.698
			c3.146-4.642,6.47-9.18,9.277-14.017c0.513-0.883-1.076-2.984-1.694-4.523c-1.236,1.013-3.233,1.818-3.574,3.074
			c-1.3,4.799-4.236,7.687-8.907,9.365c-1.228-1.425-2.377-2.758-2.818-3.27c3.146-4.485,7.982-8.327,8.256-12.469
			c0.429-6.507,4.2-10.579,6.856-15.566c1.093-2.051,2.205-4.125,2.991-6.303c2.463-6.821-0.861-11.567-8.076-11.806
			c-8.241-0.272-15.536,2.029-22.605,6.471c-17.185,10.799-29.895,26.38-44.256,40.203c-2.763,2.66-5.441,5.907-3.38,9.582
			C355.806,410.707,359.205,412.203,362.575,414.846z M310.93,517.934c0.783-1.389,1.483-2.834,2.362-4.159
			c4.766-7.186,8.967-14.859,14.522-21.377c7.234-8.489,15.951-8.913,24.022-1.259c5.21,4.94,9.084,11.292,13.54,17.024
			c0.996,1.281,1.925,2.617,3.46,4.715c0.61-1.95,1.169-2.764,1.023-3.421c-1.576-7.126-2.51-14.517-5.1-21.268
			c-3.854-10.05-18.296-17.063-28.697-14.284C314.701,479.612,309.539,492.901,310.93,517.934z M247.11,493.696
			c5.401-0.742,10.833-1.315,16.194-2.28c4.258-0.768,7.646-3.021,7.627-7.852c-0.018-4.634-3.183-7.038-7.256-8.471
			c-9.979-3.513-20.28-3.39-30.411-1.59c-2.693,0.478-5.715,4.146-6.786,7.022c-0.766,2.057,0.833,5.738,2.487,7.811
			C233.645,494.199,240.579,493.053,247.11,493.696z"/>
		<path fill-rule="evenodd" clip-rule="evenodd" fill="#E98A8E" d="M437.5,484.042c-6.474,0.026-12.948,0.132-19.42,0.055
			c-6.332-0.076-11.075-4.022-11.612-9.434c-0.421-4.245,3.499-8.913,9.549-9.617c7.452-0.868,15.053-1.083,22.548-0.736
			c5.404,0.25,8.26,4.443,9.545,11.681C444.573,478.675,441.036,481.357,437.5,484.042z"/>
		<path fill-rule="evenodd" clip-rule="evenodd" fill="#2F2E2F" d="M264.38,390.669c-7.307-7.724-14.594-15.468-21.931-23.163
			c-2.517-2.64-3.633-5.524-2.151-9.071c1.244-0.468,2.487-0.933,3.73-1.398c10.593,2.395,21.186,4.79,31.779,7.185
			c1.624,0.925,3.247,1.849,4.871,2.774c3.112,1.582,6.101,3.503,9.358,4.689c15.829,5.763,26.577,16.615,32.604,32.194
			c0.75,1.938,1.199,4.656,0.367,6.293c-0.513,1.011-3.713,0.858-5.705,0.852c-1.564-0.005-3.127-0.586-4.177-0.804
			c0.303,6.158,1.131,12.085,0.781,17.941c-1.042,17.488-11.594,28.086-29.083,29.856c-19.76,1.999-30.488-5.251-35.713-24.512
			c-0.876-3.229-2.24-4.493-5.55-5.008c-7.845-1.222-14.682-4.581-18.752-11.817c-0.861-1.531-0.496-3.754-0.696-5.657
			c1.704,0.764,4.102,1.058,4.992,2.373c4.286,6.329,10.304,9.055,17.903,9.825c0.817-3.497,1.594-6.817,2.464-10.535
			c-13.571-2.434-17.283-13.497-21.366-24.108c-0.421-1.096,0.77-2.813,1.212-4.24c1.286,0.738,3.138,1.163,3.751,2.273
			c1.927,3.483,3.101,7.393,5.12,10.811c1.563,2.645,3.622,5.244,6.053,7.078c5.25,3.961,7.858,3.368,11.873-1.743
			c1.31-1.667,2.682-3.285,4.599-5.625c-10.672-0.78-16.387-6.933-19.75-15.743c-0.884-2.316-3.146-5.179,0.421-6.76
			c0.776-0.344,3.823,2.475,4.557,4.337c3.222,8.168,8.609,12.859,17.693,12.58c0.605,0.051,1.208,0.104,1.812,0.158
			C265.091,391.359,264.735,391.014,264.38,390.669z M285.138,427.331c6.603,0.071,12.065-5.201,12.262-11.836
			c0.2-6.744-5.262-12.409-12.139-12.591c-6.383-0.168-12.044,5.332-12.232,11.886C272.836,421.503,278.393,427.258,285.138,427.331
			z M267.251,448.075c4.083-0.024,6.318-2.177,6.437-5.725c0.119-3.541-2.008-6.075-5.745-6.147
			c-3.608-0.07-5.933,1.881-6.077,5.724C261.723,445.78,263.868,447.641,267.251,448.075z"/>
		<path fill-rule="evenodd" clip-rule="evenodd" fill="#2F2E2F" d="M362.575,414.846c-3.37-2.643-6.77-4.139-8.223-6.728
			c-2.062-3.675,0.617-6.922,3.38-9.582c14.361-13.822,27.071-29.403,44.256-40.203c7.069-4.442,14.364-6.744,22.605-6.471
			c7.215,0.239,10.539,4.985,8.076,11.806c-0.786,2.178-1.898,4.252-2.991,6.303c-2.656,4.987-6.428,9.059-6.856,15.566
			c-0.273,4.142-5.109,7.983-8.256,12.469c0.441,0.512,1.591,1.845,2.818,3.27c4.671-1.678,7.607-4.565,8.907-9.365
			c0.341-1.255,2.338-2.061,3.574-3.074c0.618,1.539,2.207,3.64,1.694,4.523c-2.808,4.837-6.131,9.375-9.277,14.017
			c-0.52-0.232-1.04-0.466-1.561-0.698c1.042,3.233,2.084,6.466,3.236,10.042c5.393-2.714,10.462-4.969,11.201-11.771
			c0.132-1.214,2.253-2.21,3.455-3.307c0.663,1.486,1.968,3.012,1.879,4.453c-0.364,5.953-3.555,10.21-8.831,12.945
			c-4.547,2.355-7.202,5.217-8.1,11.132c-2.39,15.747-18.788,25.03-36.065,21.579C369.577,448.173,359.174,432.109,362.575,414.846z
			 M401.11,425.074c6.762,0.056,12.571-5.602,12.567-12.241c-0.004-6.467-5.519-11.99-12.126-12.147
			c-6.97-0.165-12.619,5.149-12.715,11.96C388.741,419.435,394.255,425.019,401.11,425.074z M388.438,435.642
			c-0.357-3.528-2.427-5.545-6.139-5.496c-3.592,0.047-5.581,2.36-5.631,5.695c-0.054,3.615,2.154,6.063,5.86,6.021
			C386.141,441.823,388.263,439.639,388.438,435.642z M404.521,391.272c5.58,2.508,11.397-1.011,12.563-8.219
			C412.483,386.063,408.635,388.581,404.521,391.272z"/>
		<path fill-rule="evenodd" clip-rule="evenodd" fill="#AD1658" d="M280.678,366.996c-1.624-0.925-3.247-1.849-4.869-2.775
			c2.122-5.539,5.905-11.392,1.677-16.978c-4.125-5.447-9.49-9.987-14.538-14.681c-1.006-0.935-3.303-1.457-4.562-0.986
			c-7.961,2.978-18.321,15.306-14.358,25.46c-1.243,0.465-2.486,0.93-3.73,1.398c-3.614-3.72-10.682-3.494-14.976,1.045
			c-3.849,4.069-7.117,8.69-11.855,14.578c2.196,1.419,4.266,2.337,5.791,3.817c5.341,5.184,5.86,11.852,4.562,18.584
			c-1.016,5.269-11.94,11.354-17.244,10.117c-4.207-0.981-8.397-2.037-12.567-3.162c-8.28-2.233-13.204-7.896-15.892-15.786
			c-0.429-1.259-0.841-2.524-1.273-3.782c-1.732-5.043-4.466-10.562,0.32-14.929c5.781-5.276,12.395-10.222,20.937-8.364
			c3.657,0.795,4.887-0.499,6.712-2.982c6.417-8.73,4.86-17.82,1.667-27.533c-3.201,0-6.513,0.187-9.797-0.037
			c-8.026-0.547-13.07-5.281-14.659-13.165c-0.621-3.083-1.741-6.064-2.598-9.101c-3.076-10.908,4.347-23.335,15.4-24.916
			c3.423-0.489,7.143,0.8,10.681,1.504c3.573,0.712,7.047,2.023,10.64,2.515c8.018,1.098,13.813,6.404,14.646,14.545
			c0.456,4.447,0.499,9.039-0.103,13.452c-0.325,2.38-1.907,5.772-3.789,6.516c-4.224,1.671-4.139,4.403-3.748,7.811
			c0.396,3.444,0.673,6.903,1.074,11.116c5.258,0,10.377,0.108,15.484-0.088c1.076-0.041,2.271-1.034,3.123-1.879
			c1.169-1.16,1.995-2.658,3.087-3.906c8.468-9.674,15.727-10.242,25.054-1.67c3.54,3.253,6.992,6.745,9.793,10.626
			c3.575,4.955,4.522,10.623,2.158,16.584C282.018,362.232,281.418,364.642,280.678,366.996z M226.054,307.473
			c0.412-0.147,0.823-0.295,1.234-0.442c-1.499-4.223-2.49-8.732-4.662-12.575c-1.693-2.997-25.369-7.754-28.73-6.525
			c-7.229,2.642-11.827,11.32-9.899,18.839c0.904,3.524,2.256,6.954,2.913,10.517c0.815,4.426,3.718,7.014,7.573,7.517
			c5.866,0.767,11.848,1.023,17.343-2.556c2.849-1.856,6.229-3.157,9.551-3.952c3.404-0.815,4.85-2.47,4.692-5.836
			C225.99,310.799,226.054,309.134,226.054,307.473z M195.531,363.557c-5.375,3.177-10.814,5.449-14.992,9.147
			c-3.671,3.25-0.037,7.364,1.213,10.998c0.485,1.41,0.852,2.863,1.375,4.258c2.925,7.78,19.646,16.198,27.391,13.804
			c0.471-0.146,0.915-0.395,1.354-0.625c9.367-4.92,10.815-13.143,3.578-21.055c-3.024-3.308-6.139-6.583-9.556-9.467
			C202.968,368.146,199.551,366.254,195.531,363.557z M211.433,369.215c0.942-1.461,1.67-2.717,2.519-3.884
			c5.212-7.164,10.297-14.625,20.653-14.196c4.995,0.207,5.057-2.188,3.641-6.123c-3.613,0-7.093-0.016-10.573,0.003
			c-7.784,0.042-8.403-0.646-8.661-8.476c-0.126-3.814-0.637-7.617-0.978-11.478c-7.289,1.166-7.085,5.268-5.549,9.682
			c3.212,9.228,1.647,17.792-3.746,25.586C205.963,364.341,207.144,366.639,211.433,369.215z"/>
		<path fill-rule="evenodd" clip-rule="evenodd" fill="#302E2F" d="M310.93,517.934c-1.391-25.032,3.771-38.321,25.134-44.028
			c10.401-2.778,24.844,4.234,28.697,14.284c2.59,6.751,3.523,14.142,5.1,21.268c0.146,0.657-0.413,1.471-1.023,3.421
			c-1.535-2.098-2.464-3.434-3.46-4.715c-4.456-5.732-8.33-12.084-13.54-17.024c-8.071-7.654-16.788-7.23-24.022,1.259
			c-5.556,6.518-9.757,14.191-14.522,21.377C312.413,515.1,311.713,516.545,310.93,517.934z"/>
		<path fill-rule="evenodd" clip-rule="evenodd" fill="#E98A8E" d="M247.11,493.696c-6.532-0.644-13.466,0.503-18.145-5.359
			c-1.654-2.072-3.253-5.754-2.487-7.811c1.071-2.876,4.092-6.545,6.786-7.022c10.13-1.8,20.431-1.923,30.411,1.59
			c4.073,1.433,7.238,3.837,7.256,8.471c0.019,4.83-3.369,7.084-7.627,7.852C257.943,492.381,252.512,492.954,247.11,493.696z"/>
		<path fill-rule="evenodd" clip-rule="evenodd" fill="#661246" d="M244.028,357.037c-3.962-10.154,6.397-22.482,14.358-25.46
			c1.259-0.471,3.556,0.051,4.562,0.986c5.048,4.693,10.413,9.233,14.538,14.681c4.229,5.585,0.445,11.438-1.677,16.978
			C265.214,361.827,254.621,359.432,244.028,357.037z"/>
		<path fill-rule="evenodd" clip-rule="evenodd" fill="#F4F4F4" d="M285.138,427.331c-6.745-0.073-12.302-5.828-12.109-12.541
			c0.188-6.554,5.849-12.054,12.232-11.886c6.876,0.182,12.339,5.847,12.139,12.591C297.204,422.13,291.741,427.402,285.138,427.331
			z"/>
		<path fill-rule="evenodd" clip-rule="evenodd" fill="#F5F5F5" d="M267.251,448.075c-3.384-0.435-5.528-2.295-5.385-6.148
			c0.144-3.843,2.468-5.794,6.077-5.724c3.737,0.072,5.864,2.606,5.745,6.147C273.57,445.898,271.334,448.051,267.251,448.075z"/>
		<path fill-rule="evenodd" clip-rule="evenodd" fill="#EAA7CD" d="M264.38,390.669c0.355,0.345,0.71,0.69,1.066,1.036
			c-0.604-0.054-1.207-0.107-1.812-0.158C263.881,391.255,264.131,390.962,264.38,390.669z"/>
		<path fill-rule="evenodd" clip-rule="evenodd" fill="#F7F7F7" d="M401.11,425.074c-6.855-0.056-12.369-5.64-12.273-12.429
			c0.096-6.811,5.745-12.125,12.715-11.96c6.607,0.157,12.122,5.681,12.126,12.147C413.682,419.473,407.872,425.13,401.11,425.074z"
			/>
		<path fill-rule="evenodd" clip-rule="evenodd" fill="#F6F6F6" d="M388.438,435.642c-0.175,3.997-2.297,6.182-5.909,6.221
			c-3.706,0.041-5.914-2.406-5.86-6.021c0.05-3.335,2.039-5.648,5.631-5.695C386.011,430.097,388.08,432.113,388.438,435.642z"/>
		<path fill-rule="evenodd" clip-rule="evenodd" fill="#D89BBE" d="M404.521,391.272c4.114-2.691,7.963-5.209,12.563-8.219
			C415.918,390.261,410.101,393.78,404.521,391.272z"/>
		<path fill-rule="evenodd" clip-rule="evenodd" fill="#661246" d="M226.054,307.473c0,1.662-0.064,3.327,0.014,4.985
			c0.158,3.366-1.288,5.021-4.692,5.836c-3.321,0.795-6.702,2.096-9.551,3.952c-5.495,3.58-11.477,3.323-17.343,2.556
			c-3.854-0.503-6.758-3.091-7.573-7.517c-0.657-3.563-2.009-6.993-2.913-10.517c-1.928-7.52,2.671-16.197,9.899-18.839
			c3.361-1.229,27.037,3.528,28.73,6.525c2.171,3.843,3.163,8.353,4.662,12.575C226.876,307.178,226.465,307.325,226.054,307.473z"
			/>
		<path fill-rule="evenodd" clip-rule="evenodd" fill="#671246" d="M195.531,363.557c4.02,2.698,7.437,4.589,10.364,7.06
			c3.417,2.884,6.531,6.16,9.556,9.467c7.237,7.912,5.789,16.135-3.578,21.055c-0.44,0.23-0.883,0.479-1.354,0.625
			c-7.745,2.394-24.466-6.024-27.391-13.804c-0.524-1.395-0.89-2.848-1.375-4.258c-1.25-3.633-4.885-7.748-1.213-10.998
			C184.717,369.006,190.156,366.734,195.531,363.557z"/>
		<path fill-rule="evenodd" clip-rule="evenodd" fill="#681246" d="M211.433,369.215c-4.289-2.576-5.47-4.874-2.693-8.886
			c5.393-7.793,6.958-16.358,3.746-25.586c-1.536-4.414-1.74-8.516,5.549-9.682c0.341,3.861,0.852,7.664,0.978,11.478
			c0.257,7.83,0.876,8.518,8.661,8.476c3.479-0.019,6.959-0.003,10.573-0.003c1.417,3.935,1.354,6.33-3.641,6.123
			c-10.355-0.429-15.441,7.032-20.653,14.196C213.103,366.498,212.375,367.754,211.433,369.215z"/>
	</g>
</g>
</svg>
