<?xml version="1.0" encoding="utf-8"?>
<!-- Generator: Adobe Illustrator 16.0.3, SVG Export Plug-In . SVG Version: 6.00 Build 0)  -->
<!DOCTYPE svg PUBLIC "-//W3C//DTD SVG 1.1//EN" "http://www.w3.org/Graphics/SVG/1.1/DTD/svg11.dtd">
<svg version="1.1" id="Capa_1" xmlns="http://www.w3.org/2000/svg" xmlns:xlink="http://www.w3.org/1999/xlink" x="0px" y="0px"
	 width="612px" height="792px" viewBox="0 0 612 792" enable-background="new 0 0 612 792" xml:space="preserve">
<g>
	<g>
		<path fill-rule="evenodd" clip-rule="evenodd" fill="#FEFEFE" d="M51,141c171.039,0,342.078,0,513.116,0
			c0,171.039,0,342.078,0,513.116c-171.038,0-342.077,0-513.116,0C51,483.078,51,312.039,51,141z M124.347,422.869
			c0.969,7.704,1.945,18.975,3.919,30.069c1.716,9.643,5.292,18.741,14.09,24.413c7.292,4.701,10.979,11.266,11.797,19.788
			c1.116,11.615,6.679,20.724,16.013,27.668c3.873,2.883,7.939,5.669,11.217,9.156c10.632,11.311,23.238,15.926,38.929,15.417
			c12.654-0.41,26.044-0.597,37.626,5.871c13.587,7.589,27.768,9.844,42.906,7.794c10.199-1.38,21.209-1.177,29.475-8.037
			c9.334-7.746,19.898-9.833,31.351-11.109c19.6-2.186,35.859-11.251,49.68-25.329c5.872-5.98,12.781-11.004,19.524-16.056
			c8.913-6.679,18.705-12.293,27.083-19.56c15.206-13.188,23.119-29.821,20.183-50.548c-1.051-7.417-2.068-14.845-2.772-22.299
			c-0.562-5.947-1.497-12.056-0.72-17.886c1.479-11.117-0.97-20.462-7.92-29.386c-3.39-4.353-5.908-10.356-6.375-15.822
			c-1.197-14.001-6.108-25.714-16.479-35.263c-2.245-2.067-4.433-4.868-5.225-7.726c-4.479-16.147-17.506-22.889-31.023-29.38
			c-2.966-1.423-5.774-3.603-8.001-6.034c-3.585-3.913-6.155-8.846-10.053-12.348c-2.746-2.467-7.048-4.694-10.537-4.53
			c-7.233,0.341-13.405-1.743-19.543-4.916c-4.881-2.524-9.822-4.929-14.748-7.362c-5.82-2.875-11.896-3.584-18.414-3.34
			c-4.419,0.164-9.244-0.864-13.287-2.689c-5.402-2.439-10.65-3.941-16.387-2.396c-4.804,1.293-10.08,2.126-14.099,4.761
			c-7.399,4.851-15.044,5.081-23.387,4.689c-5.619-0.265-11.344,1.403-17.001,2.331c-4.494,0.736-8.994,2.522-13.427,2.333
			c-11.551-0.491-22.103,2.397-30.583,9.853c-12.104,10.642-23.148,22.481-35.005,33.42c-8.563,7.899-15.63,16.859-21.242,26.959
			c-1.818,3.271-3.154,7.026-3.754,10.715c-1.688,10.381-3.563,20.623-8.26,30.201c-2.485,5.067-5.018,10.301-6.232,15.749
			c-1.306,5.861-2.518,12.384-1.229,18.038C124.651,399.795,126.205,409.324,124.347,422.869z"/>
		<path fill-rule="evenodd" clip-rule="evenodd" fill="#F82B82" d="M124.347,422.869c1.858-13.545,0.304-23.074-1.912-32.79
			c-1.29-5.654-0.078-12.177,1.229-18.038c1.214-5.448,3.747-10.682,6.232-15.749c4.697-9.578,6.572-19.82,8.26-30.201
			c0.6-3.689,1.936-7.444,3.754-10.715c5.612-10.1,12.679-19.06,21.242-26.959c11.856-10.939,22.9-22.779,35.005-33.42
			c8.48-7.456,19.032-10.344,30.583-9.853c4.433,0.188,8.933-1.597,13.427-2.333c5.657-0.927,11.382-2.595,17.001-2.331
			c8.343,0.392,15.988,0.162,23.387-4.689c4.019-2.634,9.294-3.467,14.099-4.761c5.737-1.545,10.985-0.043,16.387,2.396
			c4.043,1.826,8.868,2.854,13.287,2.689c6.519-0.244,12.594,0.465,18.414,3.34c4.926,2.433,9.867,4.838,14.748,7.362
			c6.138,3.173,12.31,5.257,19.543,4.916c3.489-0.164,7.791,2.063,10.537,4.53c3.897,3.502,6.468,8.435,10.053,12.348
			c2.227,2.431,5.035,4.61,8.001,6.034c13.518,6.492,26.545,13.233,31.023,29.38c0.792,2.857,2.979,5.659,5.225,7.726
			c10.371,9.549,15.282,21.262,16.479,35.263c0.467,5.466,2.985,11.47,6.375,15.822c6.95,8.924,9.398,18.27,7.92,29.386
			c-0.777,5.831,0.158,11.939,0.72,17.886c0.704,7.454,1.722,14.882,2.772,22.299c2.937,20.727-4.977,37.359-20.183,50.548
			c-8.378,7.267-18.17,12.881-27.083,19.56c-6.743,5.052-13.652,10.075-19.524,16.056c-13.82,14.078-30.08,23.144-49.68,25.329
			c-11.452,1.276-22.017,3.363-31.351,11.109c-8.266,6.86-19.276,6.657-29.475,8.037c-15.138,2.05-29.319-0.205-42.906-7.794
			c-11.582-6.468-24.972-6.281-37.626-5.871c-15.69,0.509-28.297-4.106-38.929-15.417c-3.278-3.487-7.344-6.273-11.217-9.156
			c-9.333-6.944-14.896-16.053-16.013-27.668c-0.818-8.522-4.505-15.087-11.797-19.788c-8.797-5.672-12.374-14.771-14.09-24.413
			C126.292,441.844,125.316,430.573,124.347,422.869z M133.304,417.859c-0.739,0.1-1.478,0.198-2.216,0.298
			c0.998,10.071,1.551,20.212,3.124,30.193c1.435,9.103,4.006,18.141,12.355,23.677c9.039,5.995,13.397,14.389,14.492,24.951
			c0.94,9.073,5.389,16.258,12.516,21.944c5.851,4.668,11.601,9.476,17.203,14.438c6.633,5.875,13.976,9.15,23.096,8.913
			c8.129-0.21,16.355,0.082,24.408,1.142c7.184,0.945,14.894,1.917,21.129,5.222c13.552,7.181,27.419,9.829,42.406,7.463
			c8.659-1.368,18.119-0.984,25.12-7.004c9.693-8.334,21.009-10.787,33.139-11.952c18.53-1.778,33.688-10.263,46.534-23.624
			c5.366-5.582,11.574-10.441,17.812-15.073c6.129-4.551,12.9-8.225,19.179-12.587c12.427-8.635,22.492-19.069,26.938-34.199
			c3.311-11.265-0.031-22.146-0.891-33.141c-0.787-10.067-3.426-19.943-1.64-30.223c1.319-7.59-0.839-14.379-6.159-20.28
			c-5.524-6.126-8.238-13.591-8.74-21.845c-0.58-9.554-2.979-18.423-10.097-25.349c-6.042-5.878-11.416-12.099-12.926-20.812
			c-0.21-1.213-1.106-2.526-2.063-3.356c-7.265-6.307-14.166-12.982-23.822-16.01c-3.627-1.136-6.882-4.319-9.618-7.219
			c-3.632-3.848-6.333-8.571-9.958-12.427c-1.494-1.588-4.503-2.911-6.554-2.596c-6.148,0.944-11.524-0.773-16.839-3.306
			c-6.465-3.081-12.717-6.715-19.4-9.193c-4.681-1.736-10.017-2.972-14.905-2.566c-6.54,0.543-12.029-1.087-17.669-3.845
			c-2.718-1.329-6.219-2.716-8.913-2.1c-6.25,1.431-12.554,3.434-18.222,6.384c-5.892,3.067-11.652,4.388-18.179,3.671
			c-7.628-0.837-15.086-1.068-22.337,2.978c-3.183,1.776-7.693,1.912-11.523,1.651c-10.463-0.712-20.261,1.352-27.898,8.398
			c-14.789,13.643-29.382,27.567-43.112,42.258c-5.869,6.279-11.738,14.271-13.437,22.36c-3.101,14.769-7.058,28.951-13.258,42.688
			c-2.961,6.562-5.379,13.391-3.612,21.224C130.905,398.482,131.845,408.229,133.304,417.859z"/>
		<path fill-rule="evenodd" clip-rule="evenodd" fill="#EAA7CD" d="M133.304,417.859c-1.459-9.631-2.399-19.377-4.538-28.853
			c-1.768-7.833,0.65-14.662,3.612-21.224c6.2-13.737,10.157-27.919,13.258-42.688c1.699-8.09,7.568-16.082,13.437-22.36
			c13.73-14.691,28.323-28.615,43.112-42.258c7.637-7.046,17.435-9.11,27.898-8.398c3.83,0.261,8.34,0.125,11.523-1.651
			c7.251-4.046,14.709-3.815,22.337-2.978c6.527,0.717,12.287-0.604,18.179-3.671c5.667-2.951,11.971-4.953,18.222-6.384
			c2.694-0.616,6.195,0.771,8.913,2.1c5.64,2.758,11.129,4.388,17.669,3.845c4.889-0.406,10.225,0.83,14.905,2.566
			c6.684,2.478,12.936,6.112,19.4,9.193c5.314,2.533,10.69,4.25,16.839,3.306c2.051-0.314,5.06,1.008,6.554,2.596
			c3.625,3.855,6.326,8.579,9.958,12.427c2.736,2.9,5.991,6.083,9.618,7.219c9.656,3.027,16.558,9.703,23.822,16.01
			c0.957,0.83,1.854,2.143,2.063,3.356c1.51,8.713,6.884,14.933,12.926,20.812c7.118,6.925,9.517,15.794,10.097,25.349
			c0.502,8.254,3.216,15.718,8.74,21.845c5.32,5.901,7.479,12.689,6.159,20.28c-1.786,10.28,0.853,20.156,1.64,30.223
			c0.859,10.994,4.201,21.876,0.891,33.141c-4.445,15.13-14.511,25.564-26.938,34.199c-6.278,4.362-13.05,8.036-19.179,12.587
			c-6.237,4.632-12.445,9.491-17.812,15.073c-12.846,13.361-28.004,21.846-46.534,23.624c-12.13,1.165-23.445,3.618-33.139,11.952
			c-7.001,6.02-16.461,5.636-25.12,7.004c-14.987,2.366-28.854-0.282-42.406-7.463c-6.235-3.305-13.945-4.276-21.129-5.222
			c-8.053-1.06-16.279-1.352-24.408-1.142c-9.12,0.237-16.463-3.038-23.096-8.913c-5.603-4.962-11.352-9.77-17.203-14.438
			c-7.126-5.687-11.576-12.871-12.516-21.944c-1.095-10.563-5.453-18.956-14.492-24.951c-8.349-5.536-10.92-14.574-12.355-23.677
			c-1.573-9.981-2.126-20.122-3.124-30.193C131.826,418.058,132.565,417.959,133.304,417.859z M286.275,337.609
			c-0.583-0.24-1.167-0.481-1.75-0.722c-1.821-0.692-3.642-1.383-5.462-2.075c-2.797-1.806-5.595-3.611-8.393-5.417
			c-1.91-0.699-3.819-1.4-5.729-2.099c-1.486,0.188-2.972,0.375-4.458,0.563c-3.429,1.411-8.143,1.863-10.045,4.413
			c-5.595,7.502-12.953,8.134-21.07,7.64c-1.155-0.071-2.327,0.115-3.491,0.183c-0.33-0.997-0.66-1.993-0.99-2.989
			c-0.136-1.354-0.272-2.707-0.409-4.061c-0.21-1.307-0.419-2.614-0.629-3.922c-0.221-1.365-0.442-2.729-0.664-4.093
			c0.019-0.661,0.037-1.323,0.057-1.984c1.094-1.241,2.108-2.564,3.295-3.709c6.268-6.044,6.604-10.863,1.155-17.64
			c-0.338-0.608-0.675-1.218-1.013-1.828c-1.416-3.31-2.233-7.083-4.364-9.841c-5.279-6.837-12.587-9.77-21.28-8.972
			c-1.002,0.012-2.006,0.024-3.009,0.036c-5.104-0.607-9.34,1.039-12.857,4.782c-3.109,3.309-6.216,6.635-9.521,9.743
			c-5.73,5.391-6.258,13.126-1.134,19.127c2.908,3.406,5.963,6.708,8.62,10.302c3.441,4.654,7.873,6.295,13.472,5.591
			c2.906-0.365,5.85-0.432,8.476-0.613c4.362,10.683,6.524,20.721-1.198,30.254c-0.085,0.104-0.027,0.324-0.035,0.491
			c-6.632,1.745-13.192,3.875-19.915,5.136c-7.607,1.427-11.238,4.479-10.732,12.205c1.196,18.244,11.976,31.545,32.625,30.812
			c9.692-0.346,20.609-11.369,21.201-20.937c1.112,2.169,2.396,4.27,3.304,6.521c3.429,8.506,8.169,15.68,18.163,18.069
			c-1.391,3.544-2.647,6.744-3.926,10.001c-7.394-0.597-12.248-4.406-16.066-10.12c-0.675-1.009-2.668-1.138-4.052-1.673
			c-0.178,1.583-1.03,3.516-0.42,4.688c3.046,5.861,7.87,9.792,14.25,11.754c1.565,0.481,3.256,0.917,4.552,1.844
			c4.424,3.168,5.239,2.92,7.381-1.943c3.076-6.986,5.417-14.565,9.792-20.654c10.23-14.24,21.141-13.636,29.114,1.282
			c2.584,4.836,4.512,10.026,7.143,14.834c0.627,1.146,2.869,1.406,4.367,2.073c0.561-1.405,1.957-3.144,1.55-4.164
			c-3.802-9.563-7.097-19.476-15.399-26.443c-5.447-4.571-11.395-5.758-18.168-3.281c-1.93,0.706-4.173,0.81-6.265,0.772
			c-9.237-0.164-13.872-5.899-16.879-13.853c-0.546-1.443-2.661-2.294-4.052-3.418c-0.399,1.847-1.613,3.993-1.063,5.491
			c3.092,8.423,7.568,15.72,18.134,17.024c-1.611,2.148-2.809,3.678-3.933,5.259c-3.88,5.464-6.202,5.969-11.344,1.689
			c-2.102-1.749-3.794-4.174-5.156-6.583c-1.793-3.178-2.921-6.728-4.659-9.942c-0.684-1.265-2.241-2.058-3.4-3.065
			c-0.967,1.301-1.934,2.604-2.901,3.905c-1.198-3.141-1.886-6.62-3.692-9.36c-5.104-7.745-5.276-7.836,1.081-14.903
			c1.223-1.358,2.486-2.68,3.755-3.995c5.878-6.095,14.393-5.455,18.891,1.501c1.705,2.637,3.249,5.392,4.689,8.185
			c2.874,5.575,7.164,8.53,13.626,7.998c1.634-0.135,3.306,0.141,4.957,0.271c13.462,1.073,19.336-2.155,23.331-12.84
			c0.264-1.62,0.528-3.241,0.793-4.861c-0.039-2.003-0.078-4.007-0.117-6.01c-0.73-3.168-1.459-6.337-2.189-9.504
			c-1.344-1.938-2.688-3.877-4.033-5.814C287.549,338.352,286.912,337.98,286.275,337.609z M362.059,483.005
			c0.074-11.731-3.146-18.584-11.192-25.202c-9.284-7.639-21.918-6.252-28.882,3.584c-7.736,10.924-10.373,22.735-5.33,35.767
			c3.26,8.424,8.525,14.186,17.807,15.367c9.217,1.172,16.551-2.181,22.179-9.529C361.511,496.63,361.566,489.089,362.059,483.005z
			 M417.371,395.575c2.249-3.838,4.567-6.923,5.865-10.391c0.607-1.622-0.76-3.982-1.232-6.008
			c-1.359,1.481-3.337,2.739-3.966,4.483c-2.066,5.733-5.43,7.923-11.111,6.534c-9.19-2.246-18.661,1.731-23.286,10.372
			c-2.656,4.96-4.728,10.281-6.537,15.618c-0.521,1.538,0.775,3.692,1.238,5.564c1.669-1.153,4.035-1.94,4.869-3.531
			c2.308-4.4,3.667-9.296,5.961-13.705c4.099-7.879,12.253-10.649,19.788-6.093c3.594,2.173,6.502,6.07,8.715,9.786
			c2.79,4.681,4.379,10.062,6.872,14.942c0.658,1.29,2.734,1.856,4.159,2.755c0.782-1.305,1.585-2.599,2.343-3.917
			c0.735-1.284,1.1-3.122,2.193-3.798c4.327-2.673,6.764-6.445,7.092-11.388c0.11-1.656-0.949-3.392-1.474-5.09
			c-1.33,1.299-3.412,2.389-3.844,3.938c-1.082,3.896-2.519,7.104-7.071,8.334c-1.375-3.035-2.729-6.021-3.456-7.628
			c2.808-5.096,5.286-9.097,7.15-13.366c0.411-0.942-1.356-2.835-2.121-4.29c-1.116,1.005-2.514,1.83-3.292,3.051
			c-1.596,2.506-2.859,5.224-4.568,8.433C419.545,397.91,418.331,396.606,417.371,395.575z M246.837,493.662
			c5.412-0.698,10.857-1.2,16.223-2.156c4.184-0.746,7.758-2.839,7.863-7.682c0.106-4.893-3.203-7.317-7.476-8.797
			c-9.83-3.404-19.962-3.165-29.93-1.564c-2.727,0.439-5.841,3.976-6.997,6.815c-0.826,2.03,0.651,5.785,2.264,7.872
			C233.375,494.087,240.291,493.118,246.837,493.662z M426.323,484.808c4.444-0.819,9.711-1.396,14.727-2.843
			c3.751-1.082,7.256-3.707,6.661-8.178c-0.623-4.694-3.548-8.431-8.457-9.405c-8.536-1.693-17.273-1.706-25.436,1.221
			c-3.017,1.082-6.241,4.879-7.034,8.027c-0.983,3.904,1.621,7.972,5.954,9.174C416.815,483.935,421.162,484.092,426.323,484.808z"
			/>
		<path fill-rule="evenodd" clip-rule="evenodd" fill="#2F2E2F" d="M362.059,483.005c-0.492,6.084-0.548,13.625-5.419,19.986
			c-5.628,7.349-12.962,10.701-22.179,9.529c-9.281-1.182-14.547-6.943-17.807-15.367c-5.043-13.031-2.406-24.843,5.33-35.767
			c6.964-9.836,19.598-11.223,28.882-3.584C358.912,464.421,362.133,471.273,362.059,483.005z"/>
		<path fill-rule="evenodd" clip-rule="evenodd" fill="#AD1355" d="M227.697,301.695c5.445,6.781,5.108,11.6-1.16,17.644
			c-1.187,1.145-2.202,2.468-3.293,3.709c-0.018,0.661-0.038,1.323-0.059,1.984c0.222,1.364,0.443,2.728,0.665,4.093
			c0.209,1.307,0.419,2.615,0.629,3.922c0.136,1.354,0.272,2.707,0.409,4.061c0.33,0.996,0.66,1.992,0.99,2.989
			c1.164-0.067,2.336-0.254,3.491-0.183c8.118,0.494,15.475-0.138,21.07-7.64c1.902-2.55,6.616-3.002,10.047-4.413
			c1.486-0.188,2.97-0.375,4.455-0.563c1.909,0.699,3.819,1.4,5.725,2.101c-0.229,0.203-0.436,0.421-0.626,0.654
			c-3.307-0.002-6.66-0.321-9.902,0.138c-1.453,0.205-2.686,1.971-4.019,3.029c-5.254,4.777-9.773,9.924-8.951,17.763
			c0.29,0.688,0.579,1.376,0.868,2.065c1.068,2.287,2.136,4.573,3.205,6.86c-2.511,4.463,0.791,4.689,3.759,5.158
			c1.683,2.342,3.365,4.684,5.047,7.025c1.346,3.789,4.061,4.163,7.001,0.963c1.582,0.625,3.163,1.25,4.744,1.875
			c2.747-0.637,6.248,2.104,8.256-1.842c1.332-0.679,2.664-1.357,3.995-2.037c0.637-0.685,1.273-1.369,1.911-2.053
			c1.04-1.981,2.081-3.963,3.122-5.945c0.986-0.805,2.824-1.622,2.813-2.413c-0.054-4.119-0.425-8.256-1.061-12.328
			c-0.137-0.878-1.82-1.515-2.791-2.263c-0.735-1.623-1.471-3.245-2.206-4.866c0.784-0.82,1.569-1.639,2.354-2.459
			c1.344,1.939,2.688,3.878,4.033,5.818c0.729,3.168,1.459,6.335,2.189,9.502c0.039,2.003,0.078,4.006,0.118,6.009
			c-0.264,1.622-0.529,3.242-0.794,4.862c-3.995,10.685-9.869,13.913-23.331,12.84c-1.65-0.131-3.323-0.406-4.957-0.271
			c-6.462,0.533-10.752-2.422-13.626-7.998c-1.44-2.793-2.984-5.547-4.689-8.185c-4.498-6.957-13.012-7.597-18.891-1.501
			c-1.269,1.315-2.533,2.637-3.755,3.995c-6.357,7.067-6.185,7.158-1.081,14.903c1.806,2.741,2.494,6.219,3.692,9.36l-0.066-0.067
			c-0.592,9.568-11.509,20.591-21.201,20.937c-20.649,0.733-31.43-12.568-32.625-30.812c-0.506-7.727,3.125-10.778,10.732-12.205
			c6.723-1.261,13.282-3.391,19.915-5.136c0.719,0.069,1.659,0.459,2.113,0.145c1.141-0.787,2.063-1.892,3.073-2.869
			c0.679,0.003,1.359,0.007,2.039,0.01c-0.579,1.154-1.361,2.254-1.685,3.477c-0.372,1.401-0.953,3.793-0.363,4.205
			c1.703,1.188,3.95,1.597,5.984,2.312c3.228-0.765,5.739-2.098,4.855-6.124c3.555-6.247,8.404-10.415,16.093-10.028
			c1.957,1.436,3.826,2.305,5.08-0.788c1.083-2.555,2.708-5.188-0.996-7.069c-1.674-3.191-3.341-3.196-5.001,0.012
			c-2.669,0.292-5.338,0.583-8.008,0.875c-0.426-0.572-0.851-1.145-1.276-1.717c-0.571,0.583-1.142,1.166-1.712,1.749
			c-1.024-1.271-2.048-2.543-3.073-3.815c0.934-4.281,3.342-8.796-1.908-12.103c-2.498,0-4.995,0-7.872,0c0,2.034,0,3.482,0,4.931
			c-0.385,0.356-0.771,0.713-1.156,1.071c-2-2.669-4-5.337-6.001-8.006c0.667-0.671,1.333-1.342,2-2.012
			c7.525,0.242,12.493-3.695,17.067-9.307c2.926-3.587,3.755-6.657,1.845-10.656C225.864,303.941,226.78,302.818,227.697,301.695z
			 M190.049,401.025c2.995,1.009,5.99,2.018,8.984,3.026c2.667,3.241,5.335,3.24,8.003,0.001
			c9.66-3.336,14.161-10.114,13.908-20.945c1.078-3.734-2.816-8.105-8.02-9.004c-3.297-2.03-6.594-4.059-9.891-6.088
			c-0.68-0.293-1.361-0.586-2.042-0.879c-0.985-0.025-1.972-0.051-2.957-0.075c-2.336-2.898-3.283-2.699-5.004,1.054
			c-1.668,0.653-3.285,1.566-5.016,1.917c-8.961,1.82-9.286,2.079-8.993,11.157c0.073,2.256,0.712,4.494,1.091,6.742
			c-1.539,3.251-1.572,5.778,2.942,6.118c0.684,0.989,1.367,1.979,2.05,2.969C184.819,400.753,186.345,401.99,190.049,401.025z"/>
		<path fill-rule="evenodd" clip-rule="evenodd" fill="#353133" d="M227.096,388.056c0.967-1.302,1.934-2.604,2.901-3.905
			c1.159,1.007,2.716,1.8,3.4,3.065c1.738,3.214,2.865,6.764,4.659,9.942c1.361,2.409,3.054,4.834,5.156,6.583
			c5.142,4.279,7.464,3.774,11.344-1.689c1.124-1.581,2.322-3.11,3.933-5.259c-10.565-1.304-15.042-8.601-18.134-17.024
			c-0.55-1.498,0.664-3.644,1.063-5.491c1.391,1.124,3.506,1.975,4.052,3.418c3.007,7.954,7.642,13.689,16.879,13.853
			c2.092,0.037,4.335-0.066,6.265-0.772c6.773-2.478,12.722-1.291,18.168,3.281c8.302,6.968,11.597,16.88,15.399,26.443
			c0.406,1.021-0.99,2.759-1.55,4.164c-1.499-0.667-3.74-0.928-4.367-2.073c-2.63-4.808-4.558-9.998-7.143-14.834
			c-7.974-14.918-18.884-15.522-29.114-1.282c-4.375,6.089-6.715,13.668-9.792,20.654c-2.142,4.863-2.957,5.111-7.381,1.943
			c-1.296-0.927-2.987-1.362-4.552-1.844c-6.38-1.962-11.204-5.893-14.25-11.754c-0.61-1.173,0.242-3.105,0.42-4.688
			c1.384,0.535,3.377,0.664,4.052,1.673c3.819,5.714,8.673,9.523,16.066,10.12c1.278-3.257,2.535-6.457,3.926-10.001
			c-9.994-2.39-14.733-9.563-18.163-18.069c-0.908-2.251-2.192-4.352-3.304-6.521L227.096,388.056z"/>
		<path fill-rule="evenodd" clip-rule="evenodd" fill="#353234" d="M417.371,395.575c0.96,1.032,2.174,2.335,4.287,4.607
			c1.709-3.209,2.973-5.927,4.568-8.433c0.778-1.221,2.176-2.046,3.292-3.051c0.765,1.455,2.532,3.348,2.121,4.29
			c-1.864,4.27-4.343,8.271-7.15,13.366c0.728,1.606,2.081,4.593,3.456,7.628c4.553-1.229,5.989-4.438,7.071-8.334
			c0.432-1.55,2.514-2.64,3.844-3.938c0.524,1.698,1.584,3.434,1.474,5.09c-0.328,4.942-2.765,8.715-7.092,11.388
			c-1.094,0.676-1.458,2.514-2.193,3.798c-0.758,1.318-1.561,2.612-2.343,3.917c-1.425-0.898-3.501-1.465-4.159-2.755
			c-2.493-4.881-4.082-10.262-6.872-14.942c-2.213-3.716-5.121-7.613-8.715-9.786c-7.535-4.557-15.689-1.786-19.788,6.093
			c-2.294,4.409-3.653,9.305-5.961,13.705c-0.834,1.591-3.2,2.378-4.869,3.531c-0.463-1.872-1.76-4.026-1.238-5.564
			c1.81-5.337,3.881-10.658,6.537-15.618c4.625-8.641,14.096-12.618,23.286-10.372c5.682,1.389,9.045-0.801,11.111-6.534
			c0.629-1.745,2.606-3.002,3.966-4.483c0.473,2.026,1.84,4.387,1.232,6.008C421.938,388.651,419.62,391.737,417.371,395.575z"/>
		<path fill-rule="evenodd" clip-rule="evenodd" fill="#E98A8E" d="M246.837,493.662c-6.546-0.544-13.461,0.425-18.051-5.512
			c-1.613-2.087-3.09-5.842-2.264-7.872c1.156-2.84,4.27-6.376,6.997-6.815c9.967-1.601,20.1-1.84,29.93,1.564
			c4.273,1.479,7.582,3.904,7.476,8.797c-0.105,4.843-3.68,6.936-7.863,7.682C257.694,492.462,252.249,492.964,246.837,493.662z"/>
		<path fill-rule="evenodd" clip-rule="evenodd" fill="#E98A8E" d="M426.323,484.808c-5.161-0.716-9.508-0.873-13.585-2.004
			c-4.333-1.202-6.938-5.27-5.954-9.174c0.793-3.148,4.018-6.945,7.034-8.027c8.162-2.927,16.899-2.914,25.436-1.221
			c4.909,0.975,7.834,4.711,8.457,9.405c0.595,4.471-2.91,7.096-6.661,8.178C436.034,483.411,430.768,483.988,426.323,484.808z"/>
		<path fill-rule="evenodd" clip-rule="evenodd" fill="#AA0E51" d="M204.035,327.04c2,2.668,4,5.337,6.001,8.006
			c1.893,7.764,2.66,15.48-1,23.003c-1.01,0.977-1.932,2.083-3.073,2.869c-0.455,0.314-1.394-0.075-2.113-0.145
			c0.008-0.167-0.05-0.386,0.035-0.491c7.722-9.533,5.561-19.571,1.198-30.254c-2.626,0.181-5.57,0.248-8.476,0.613
			c-5.599,0.704-10.03-0.937-13.472-5.591c-2.657-3.594-5.712-6.896-8.62-10.302c-5.124-6.001-4.596-13.736,1.134-19.127
			c3.306-3.108,6.412-6.434,9.521-9.743c3.517-3.743,7.752-5.389,12.857-4.782c-0.316,0.55-0.679,1.6-0.942,1.575
			c-6.264-0.58-8.781,4.424-12.263,8.038c-2.076,2.154-4.222,4.268-6.533,6.16c-4.553,3.729-5.978,10.317-2.565,15.134
			c3.058,4.315,6.379,8.553,10.2,12.175c2.091,1.981,5.364,3.276,8.272,3.684C197.375,328.308,200.747,327.373,204.035,327.04z"/>
		<path fill-rule="evenodd" clip-rule="evenodd" fill="#AC1557" d="M204.035,327.04c-3.288,0.333-6.66,1.268-9.837,0.821
			c-2.908-0.408-6.181-1.703-8.272-3.684c-3.821-3.622-7.143-7.859-10.2-12.175c-3.413-4.817-1.988-11.406,2.565-15.134
			c2.311-1.892,4.457-4.006,6.533-6.16c3.482-3.614,5.999-8.618,12.263-8.038c0.263,0.024,0.626-1.025,0.942-1.575
			c1.003-0.012,2.006-0.024,3.009-0.036c1.271,0.659,2.477,1.667,3.825,1.92c8.249,1.548,15.421,4.271,18.009,13.504
			c0.386,1.377,2.497,2.271,3.81,3.388c0.337,0.61,0.675,1.219,1.015,1.826c-0.915,1.122-1.831,2.245-2.747,3.368
			c-1.465-2.368-3.709-4.57-4.257-7.135c-1.829-8.564-8.224-11.353-15.492-12.532c-5.438-0.882-11.261-1.809-15.633,3.615
			c-2.893,3.589-6.209,6.883-9.624,9.996c-3.953,3.604-4.614,9.197-1.186,13.222c3.225,3.785,6.235,7.782,9.731,11.295
			c1.322,1.33,3.724,2.125,5.664,2.185c3.95,0.124,7.921-0.417,11.883-0.684C205.368,325.697,204.702,326.369,204.035,327.04z"/>
		<path fill-rule="evenodd" clip-rule="evenodd" fill="#AA0E51" d="M226.68,299.871c-1.313-1.117-3.424-2.011-3.81-3.388
			c-2.587-9.234-9.76-11.956-18.009-13.504c-1.348-0.253-2.553-1.261-3.825-1.92c8.692-0.798,16,2.134,21.28,8.972
			C224.447,292.789,225.265,296.561,226.68,299.871z"/>
		<path fill-rule="evenodd" clip-rule="evenodd" fill="#AD1355" d="M284.525,336.888c0.583,0.24,1.167,0.481,1.75,0.723
			c-2.09,0.531-4.179,1.062-6.268,1.592c-2.984-1.683-5.97-3.365-8.954-5.048c-0.337-1.366-0.675-2.734-1.013-4.101
			c0.19-0.234,0.398-0.452,0.626-0.655c2.801,1.803,5.599,3.608,8.396,5.413C280.883,335.501,282.704,336.194,284.525,336.888z"/>
		<path fill-rule="evenodd" clip-rule="evenodd" fill="#AC1557" d="M280.007,339.203c2.089-0.531,4.178-1.061,6.268-1.592
			c0.637,0.37,1.274,0.741,1.912,1.112c-0.785,0.819-1.569,1.638-2.351,2.456C283.895,340.519,281.951,339.861,280.007,339.203z"/>
		<path fill-rule="evenodd" clip-rule="evenodd" fill="#AF1859" d="M294.409,354.042c-0.73-3.167-1.459-6.334-2.189-9.502
			C292.95,347.705,293.679,350.874,294.409,354.042z"/>
		<path fill-rule="evenodd" clip-rule="evenodd" fill="#AF1859" d="M293.733,364.913c0.265-1.62,0.53-3.241,0.794-4.862
			C294.262,361.672,293.998,363.293,293.733,364.913z"/>
		<path fill-rule="evenodd" clip-rule="evenodd" fill="#AF1859" d="M284.525,336.888c-1.821-0.694-3.642-1.386-5.463-2.077
			C280.883,335.504,282.704,336.196,284.525,336.888z"/>
		<path fill-rule="evenodd" clip-rule="evenodd" fill="#AF1859" d="M224.479,333.046c-0.21-1.307-0.419-2.615-0.629-3.922
			C224.06,330.432,224.269,331.739,224.479,333.046z"/>
		<path fill-rule="evenodd" clip-rule="evenodd" fill="#AF1859" d="M264.941,327.297c-1.485,0.188-2.969,0.375-4.455,0.563
			C261.97,327.672,263.455,327.485,264.941,327.297z"/>
		<path fill-rule="evenodd" clip-rule="evenodd" fill="#AF1859" d="M225.877,340.095c-0.33-0.997-0.66-1.993-0.99-2.989
			C225.217,338.103,225.548,339.099,225.877,340.095z"/>
		<path fill-rule="evenodd" clip-rule="evenodd" fill="#AF1859" d="M223.186,325.031c0.021-0.661,0.041-1.323,0.059-1.984
			C223.223,323.708,223.204,324.37,223.186,325.031z"/>
		<path fill-rule="evenodd" clip-rule="evenodd" fill="#651145" d="M206.035,325.027c-3.962,0.267-7.933,0.808-11.883,0.684
			c-1.94-0.061-4.341-0.855-5.664-2.185c-3.496-3.513-6.506-7.51-9.731-11.295c-3.428-4.024-2.768-9.618,1.186-13.222
			c3.414-3.112,6.73-6.407,9.624-9.996c4.372-5.424,10.195-4.497,15.633-3.615c7.268,1.179,13.663,3.967,15.492,12.532
			c0.548,2.564,2.792,4.767,4.257,7.135c1.91,3.999,1.081,7.069-1.845,10.656C218.528,321.332,213.561,325.27,206.035,325.027z"/>
		<path fill-rule="evenodd" clip-rule="evenodd" fill="#661145" d="M280.007,339.203c1.944,0.658,3.888,1.316,5.829,1.976
			c0.732,1.623,1.468,3.246,2.203,4.868c0.346,5.668,0.692,11.335,1.038,17.004c-1.041,1.982-2.082,3.964-3.121,5.945
			c-0.637,0.685-1.274,1.37-1.912,2.053c-1.332,0.679-2.663,1.358-3.995,2.037c-2.751,0.614-5.504,1.228-8.256,1.842
			c-1.582-0.625-3.163-1.25-4.744-1.875c-2.333-0.321-4.667-0.642-7.001-0.963c-1.682-2.341-3.364-4.683-5.046-7.025
			c-1.253-1.719-2.507-3.438-3.76-5.158c-1.069-2.287-2.137-4.573-3.205-6.86c-0.289-0.688-0.579-1.376-0.868-2.065
			c-0.822-7.839,3.697-12.985,8.951-17.765c5.104-1.715,10.105-1.763,14.934,0.937C274.037,335.837,277.022,337.52,280.007,339.203z
			"/>
		<path fill-rule="evenodd" clip-rule="evenodd" fill="#661145" d="M185.106,397.018c-0.684-0.99-1.367-1.979-2.05-2.969
			c-0.981-2.04-1.962-4.079-2.942-6.118c-0.379-2.248-1.018-4.485-1.091-6.742c-0.293-9.078,0.032-9.337,8.993-11.157
			c1.73-0.352,3.347-1.264,5.016-1.918c1.668-0.352,3.336-0.702,5.004-1.053c0.985,0.024,1.972,0.05,2.958,0.074
			c0.681,0.293,1.361,0.587,2.041,0.88c3.297,2.03,6.594,4.059,9.893,6.087c2.673,3.001,5.346,6.003,8.019,9.005
			c0.253,10.831-4.248,17.609-13.908,20.945c-2.667-0.001-5.335-0.001-8.003-0.001c-2.994-1.009-5.989-2.018-8.984-3.026
			C188.401,399.689,186.754,398.354,185.106,397.018z"/>
		<path fill-rule="evenodd" clip-rule="evenodd" fill="#671145" d="M240.042,344.043c3.704,1.881,2.079,4.514,0.997,7.068
			c-1.693,0.263-3.387,0.526-5.08,0.789c-7.688-0.387-12.538,3.781-16.091,10.03c-1.618,2.042-3.238,4.081-4.857,6.122
			c-2.034-0.715-4.281-1.125-5.984-2.312c-0.59-0.412-0.009-2.804,0.363-4.205c0.324-1.222,1.105-2.323,1.684-3.477
			c6.002-7.999,4.455-16.034,0.118-24.083c0-1.448,0-2.897,0-4.931c2.877,0,5.374,0,7.872,0c0.636,4.034,1.272,8.068,1.908,12.103
			c1.024,1.271,2.048,2.543,3.073,3.816c0.996-0.011,1.993-0.021,2.989-0.032c2.67-0.292,5.339-0.583,8.008-0.875
			C236.708,344.051,238.376,344.047,240.042,344.043z"/>
		<path fill-rule="evenodd" clip-rule="evenodd" fill="#AC1557" d="M211.192,333.975c4.337,8.05,5.884,16.085-0.118,24.083
			c-0.679-0.003-1.359-0.007-2.038-0.01c3.66-7.523,2.893-15.239,1-23.003C210.421,334.688,210.807,334.331,211.192,333.975z"/>
		<path fill-rule="evenodd" clip-rule="evenodd" fill="#AC1557" d="M289.077,363.051c-0.346-5.668-0.691-11.336-1.038-17.004
			c0.971,0.748,2.653,1.385,2.791,2.263c0.636,4.072,1.007,8.209,1.061,12.328C291.9,361.429,290.063,362.246,289.077,363.051z"/>
		<path fill-rule="evenodd" clip-rule="evenodd" fill="#AC1557" d="M271.053,334.154c-4.828-2.7-9.829-2.652-14.934-0.937
			c1.333-1.056,2.566-2.822,4.019-3.027c3.242-0.459,6.595-0.14,9.902-0.138C270.377,331.42,270.715,332.788,271.053,334.154z"/>
		<path fill-rule="evenodd" clip-rule="evenodd" fill="#AC1557" d="M220.944,383.108c-2.672-3.001-5.345-6.003-8.019-9.005
			C218.127,375.002,222.021,379.374,220.944,383.108z"/>
		<path fill-rule="evenodd" clip-rule="evenodd" fill="#AC1557" d="M220.972,341.146c-0.636-4.034-1.272-8.068-1.908-12.103
			C224.313,332.35,221.905,336.865,220.972,341.146z"/>
		<path fill-rule="evenodd" clip-rule="evenodd" fill="#AC1557" d="M215.011,368.052c1.619-2.041,3.239-4.08,4.857-6.122
			C220.75,365.954,218.239,367.287,215.011,368.052z"/>
		<path fill-rule="evenodd" clip-rule="evenodd" fill="#AC1557" d="M260.048,372.09c2.334,0.321,4.668,0.642,7.001,0.963
			C264.108,376.253,261.394,375.879,260.048,372.09z"/>
		<path fill-rule="evenodd" clip-rule="evenodd" fill="#AC1557" d="M251.242,359.907c1.253,1.719,2.507,3.438,3.76,5.158
			C252.032,364.597,248.731,364.37,251.242,359.907z"/>
		<path fill-rule="evenodd" clip-rule="evenodd" fill="#AC1557" d="M271.793,374.928c2.752-0.614,5.504-1.229,8.256-1.842
			C278.041,377.032,274.541,374.292,271.793,374.928z"/>
		<path fill-rule="evenodd" clip-rule="evenodd" fill="#AC1557" d="M199.033,404.052c2.668,0,5.335,0,8.003,0.001
			C204.368,407.292,201.7,407.293,199.033,404.052z"/>
		<path fill-rule="evenodd" clip-rule="evenodd" fill="#AC1557" d="M180.113,387.931c0.98,2.039,1.961,4.078,2.942,6.118
			C178.541,393.709,178.574,391.182,180.113,387.931z"/>
		<path fill-rule="evenodd" clip-rule="evenodd" fill="#AC1557" d="M185.106,397.018c1.648,1.336,3.295,2.672,4.943,4.008
			C186.345,401.99,184.819,400.753,185.106,397.018z"/>
		<path fill-rule="evenodd" clip-rule="evenodd" fill="#AC1557" d="M198.034,367.062c-1.668,0.351-3.336,0.701-5.004,1.053
			C194.751,364.362,195.698,364.163,198.034,367.062z"/>
		<path fill-rule="evenodd" clip-rule="evenodd" fill="#AC1557" d="M240.042,344.043c-1.667,0.004-3.334,0.008-5.001,0.012
			C236.701,340.847,238.369,340.852,240.042,344.043z"/>
		<path fill-rule="evenodd" clip-rule="evenodd" fill="#AC1557" d="M235.959,351.9c1.693-0.263,3.387-0.526,5.08-0.789
			C239.785,354.205,237.916,353.336,235.959,351.9z"/>
		<path fill-rule="evenodd" clip-rule="evenodd" fill="#AC1557" d="M227.033,344.93c-0.996,0.011-1.993,0.021-2.989,0.032
			c0.571-0.584,1.141-1.166,1.712-1.75C226.182,343.786,226.607,344.358,227.033,344.93z"/>
		<path fill-rule="evenodd" clip-rule="evenodd" fill="#AC1557" d="M284.044,371.049c0.637-0.684,1.274-1.368,1.912-2.053
			C285.318,369.68,284.681,370.365,284.044,371.049z"/>
		<path fill-rule="evenodd" clip-rule="evenodd" fill="#AC1557" d="M247.168,350.982c0.29,0.688,0.579,1.377,0.868,2.065
			C247.747,352.359,247.458,351.671,247.168,350.982z"/>
		<path fill-rule="evenodd" clip-rule="evenodd" fill="#AC1557" d="M203.033,368.016c-0.68-0.293-1.36-0.587-2.041-0.88
			C201.672,367.43,202.353,367.723,203.033,368.016z"/>
	</g>
</g>
</svg>
