<?xml version="1.0" encoding="utf-8"?>
<!-- Generator: Adobe Illustrator 16.0.3, SVG Export Plug-In . SVG Version: 6.00 Build 0)  -->
<!DOCTYPE svg PUBLIC "-//W3C//DTD SVG 1.1//EN" "http://www.w3.org/Graphics/SVG/1.1/DTD/svg11.dtd">
<svg version="1.1" id="Capa_1" xmlns="http://www.w3.org/2000/svg" xmlns:xlink="http://www.w3.org/1999/xlink" x="0px" y="0px"
	 width="612px" height="792px" viewBox="0 0 612 792" enable-background="new 0 0 612 792" xml:space="preserve">
<g>
	<g>
		<path fill-rule="evenodd" clip-rule="evenodd" fill="#FEFEFE" d="M51.037,653.903c0-170.874,0-341.889,0-512.866
			c171.051,0,342.066,0,513.08,0c0,170.908,0,341.781,0,512.866C393.078,653.903,222.039,653.903,51.037,653.903z M310.402,553.508
			c12.229-0.888,24.209-1.548,36.142-2.695c8.606-0.826,17.522-1.546,24.058-8.247c6.405-6.569,14.195-10.225,22.87-12.597
			c16.457-4.499,30.12-12.724,38.993-28.095c5.466-9.47,13.288-16.837,22.965-22.439c15.64-9.054,21.605-22.847,17.575-40.624
			c-1.952-8.609-0.995-16.416,1.2-24.901c4.925-19.038,5.008-37.748-10.284-53.15c-4.481-4.513-6.359-9.986-6.388-16.278
			c-0.052-11.715-4.303-22.199-10.464-31.83c-2.33-3.644-5.769-7.204-9.551-9.161c-6.712-3.475-10.112-8.456-11.718-15.651
			c-2.093-9.38-5.655-12.132-15.206-12.861c-4.465-0.341-7.876-1.907-10.448-5.741c-2.593-3.864-5.632-7.431-8.522-11.091
			c-4.038-5.112-9.193-7.083-15.799-6.603c-7.817,0.567-14.963-2.065-20.122-8.017c-3.525-4.068-7.383-5.509-12.581-5.66
			c-13.952-0.407-28.051-0.219-41.784-2.298c-11.565-1.75-22.091-0.889-32.591,3.776c-5.929,2.634-11.934,5.114-17.993,7.434
			c-2.114,0.809-4.485,1.241-6.753,1.298c-6.799,0.172-13.624-0.24-20.405,0.147c-12.204,0.7-24.471,1.969-34.198,10.403
			c-3.739,3.242-6.315,7.829-9.406,11.815c-2.676,3.453-4.829,7.534-8.121,10.228c-4.007,3.278-7.101,6.697-8.981,11.602
			c-1.054,2.75-3.292,5.285-5.562,7.272c-2.986,2.614-7.046,4.111-9.698,6.967c-3.286,3.539-7.332,7.72-7.983,12.08
			c-1.432,9.589-5.263,18.147-8.499,27.027c-2.392,6.561-5.133,13.128-6.377,19.938c-1.383,7.574-2.558,15.618-1.459,23.111
			c1.611,10.983,2.214,21.798,1.405,32.813c-0.523,7.125,0.817,14.085,4.785,20.09c5.712,8.645,7.791,18.212,8.683,28.301
			c1.84,20.804,11.088,37.744,27.14,51.052c7.176,5.95,13.973,12.407,21.501,17.863c4.45,3.224,9.776,5.804,15.094,7.133
			c8.521,2.132,17.351,3.058,26.071,4.349c5.24,0.776,10.514,1.741,15.785,1.819c15.139,0.227,30.286-0.103,45.426,0.09
			C296.347,552.267,303.481,553.052,310.402,553.508z"/>
		<path fill-rule="evenodd" clip-rule="evenodd" fill="#F82B82" d="M310.402,553.508c-6.921-0.456-14.056-1.241-21.2-1.332
			c-15.14-0.192-30.287,0.137-45.426-0.09c-5.271-0.078-10.545-1.043-15.785-1.819c-8.721-1.291-17.55-2.217-26.071-4.349
			c-5.318-1.329-10.645-3.909-15.094-7.133c-7.528-5.456-14.325-11.913-21.501-17.863c-16.052-13.308-25.3-30.248-27.14-51.052
			c-0.892-10.089-2.971-19.656-8.683-28.301c-3.968-6.005-5.308-12.965-4.785-20.09c0.809-11.016,0.206-21.83-1.405-32.813
			c-1.099-7.493,0.076-15.537,1.459-23.111c1.244-6.81,3.985-13.377,6.377-19.938c3.236-8.879,7.067-17.438,8.499-27.027
			c0.651-4.36,4.697-8.541,7.983-12.08c2.652-2.856,6.711-4.354,9.698-6.967c2.27-1.987,4.508-4.521,5.562-7.272
			c1.88-4.905,4.974-8.323,8.981-11.602c3.292-2.694,5.445-6.775,8.121-10.228c3.091-3.986,5.667-8.573,9.406-11.815
			c9.727-8.434,21.994-9.703,34.198-10.403c6.781-0.388,13.605,0.024,20.405-0.147c2.268-0.057,4.639-0.489,6.753-1.298
			c6.059-2.319,12.064-4.799,17.993-7.434c10.5-4.665,21.026-5.526,32.591-3.776c13.733,2.079,27.832,1.891,41.784,2.298
			c5.198,0.151,9.056,1.592,12.581,5.66c5.159,5.952,12.305,8.584,20.122,8.017c6.605-0.48,11.761,1.491,15.799,6.603
			c2.891,3.66,5.93,7.227,8.522,11.091c2.572,3.834,5.983,5.4,10.448,5.741c9.551,0.729,13.113,3.481,15.206,12.861
			c1.605,7.195,5.006,12.176,11.718,15.651c3.782,1.958,7.221,5.517,9.551,9.161c6.161,9.63,10.412,20.114,10.464,31.83
			c0.028,6.292,1.906,11.765,6.388,16.278c15.292,15.402,15.209,34.112,10.284,53.15c-2.195,8.485-3.152,16.292-1.2,24.901
			c4.03,17.777-1.936,31.57-17.575,40.624c-9.677,5.603-17.499,12.97-22.965,22.439c-8.873,15.371-22.536,23.596-38.993,28.095
			c-8.675,2.372-16.465,6.027-22.87,12.597c-6.535,6.701-15.451,7.421-24.058,8.247C334.611,551.96,322.632,552.62,310.402,553.508z
			 M448.109,475.989c4.608-3.481,10.1-6.245,13.633-10.6c6.526-8.045,6.798-17.825,4.181-27.566
			c-2.244-8.35-1.04-16.14,1.306-24.409c4.95-17.458,5.364-34.543-8.902-48.819c-4.59-4.593-7.237-10.285-7.337-17.005
			c-0.147-9.826-2.414-19.215-7.495-27.609c-2.432-4.018-5.482-8.465-9.406-10.609c-8.293-4.532-13.371-10.722-14.883-19.938
			c-0.826-5.04-3.654-7.482-8.842-7.622c-6.72-0.181-12.074-2.874-15.889-8.759c-2.612-4.03-5.513-8.088-9.097-11.197
			c-2.33-2.02-6.118-3.265-9.256-3.274c-9.651-0.029-18.125-2.938-24.771-9.713c-2.894-2.951-5.56-3.978-9.471-4.101
			c-13.445-0.421-27.086,0.003-40.255-2.235c-11.647-1.98-21.866-0.567-32.432,3.999c-10.986,4.746-21.665,9.896-34.778,8.009
			c-8.768-1.261-18.401,0.436-27.125,2.766c-9.184,2.454-17.97,6.523-21.809,17.081c-1.582,4.349-5.855,7.718-8.899,11.537
			c-2.41,3.023-4.806,6.058-7.217,9.08c-2.737,3.433-5.28,7.051-8.303,10.211c-1.798,1.878-4.296,3.129-6.584,4.488
			c-5.9,3.502-8.787,8.642-9.506,15.455c-0.411,3.899-1.635,7.772-2.925,11.507c-3.366,9.744-7.493,19.256-10.291,29.151
			c-1.773,6.27-3.176,13.301-2.149,19.565c1.902,11.594,2.919,23.078,2.152,34.754c-0.46,6.997,0.479,13.682,4.488,19.59
			c6.019,8.868,7.803,18.953,8.727,29.302c1.167,13.083,4.803,25.503,13.805,35.149c8.116,8.697,18.163,15.578,26.418,24.165
			c7.41,7.707,15.938,11.67,26.3,12.501c2.483,0.199,5.016,0.298,7.42,0.88c14.861,3.6,29.827,4.351,45.04,2.736
			c6.082-0.646,12.385-0.568,18.448,0.231c18.624,2.458,37.203,1.403,55.809,0.203c13.313-0.858,25.741-3.216,35.76-13.629
			c3.619-3.761,9.858-5.425,15.208-7.016c15.211-4.522,28.932-10.69,37.154-25.529c2.95-5.32,7.397-9.812,11.162-14.681
			C441.036,481.357,444.573,478.674,448.109,475.989z"/>
		<path fill-rule="evenodd" clip-rule="evenodd" fill="#EAA7CE" d="M437.5,484.042c-3.765,4.869-8.212,9.36-11.162,14.681
			c-8.223,14.839-21.943,21.007-37.154,25.529c-5.35,1.591-11.589,3.255-15.208,7.016c-10.019,10.413-22.447,12.771-35.76,13.629
			c-18.606,1.2-37.185,2.255-55.809-0.203c-6.063-0.8-12.367-0.877-18.448-0.231c-15.213,1.614-30.179,0.863-45.04-2.736
			c-2.404-0.582-4.937-0.681-7.42-0.88c-10.362-0.831-18.89-4.794-26.3-12.501c-8.255-8.587-18.302-15.468-26.418-24.165
			c-9.002-9.646-12.638-22.066-13.805-35.149c-0.923-10.349-2.708-20.434-8.727-29.302c-4.009-5.908-4.948-12.593-4.488-19.59
			c0.767-11.676-0.25-23.16-2.152-34.754c-1.027-6.264,0.376-13.295,2.149-19.565c2.797-9.895,6.924-19.408,10.291-29.151
			c1.29-3.735,2.514-7.608,2.925-11.507c0.719-6.813,3.606-11.952,9.506-15.455c2.288-1.359,4.786-2.61,6.584-4.488
			c3.022-3.16,5.565-6.779,8.303-10.211c2.411-3.022,4.808-6.057,7.217-9.08c3.043-3.819,7.317-7.188,8.899-11.537
			c3.839-10.558,12.625-14.627,21.809-17.081c8.723-2.331,18.357-4.027,27.125-2.766c13.113,1.887,23.792-3.263,34.778-8.009
			c10.566-4.566,20.785-5.979,32.432-3.999c13.169,2.238,26.81,1.813,40.255,2.235c3.911,0.123,6.577,1.149,9.471,4.101
			c6.646,6.775,15.12,9.684,24.771,9.713c3.138,0.01,6.926,1.254,9.256,3.274c3.584,3.109,6.484,7.167,9.097,11.197
			c3.814,5.885,9.169,8.578,15.889,8.759c5.188,0.14,8.016,2.582,8.842,7.622c1.512,9.215,6.59,15.405,14.883,19.938
			c3.924,2.144,6.975,6.591,9.406,10.609c5.081,8.395,7.348,17.783,7.495,27.609c0.1,6.72,2.747,12.412,7.337,17.005
			c14.267,14.276,13.853,31.362,8.902,48.819c-2.346,8.27-3.55,16.06-1.306,24.409c2.617,9.741,2.346,19.521-4.181,27.566
			c-3.533,4.354-9.024,7.118-13.633,10.601c-1.286-7.238-4.141-11.431-9.545-11.681c-7.496-0.347-15.096-0.132-22.548,0.736
			c-6.051,0.703-9.97,5.372-9.549,9.617c0.537,5.411,5.28,9.358,11.612,9.434C424.552,484.175,431.026,484.068,437.5,484.042z
			 M260.63,397.112c-1.842,2.294-3.178,3.932-4.485,5.591c-3.963,5.032-6.756,5.673-11.859,1.831
			c-2.434-1.833-4.492-4.427-6.074-7.063c-1.955-3.262-3.038-7.038-4.914-10.357c-0.717-1.269-2.584-1.887-3.927-2.802
			c-0.422,1.576-1.624,3.458-1.144,4.682c4.089,10.43,7.794,21.343,21.212,23.651c-0.871,3.786-1.635,7.105-2.438,10.594
			c-7.355-0.87-13.467-3.207-17.532-9.519c-1.178-1.829-2.549-4.856-5.195-2.482c-0.849,0.761-0.138,4.208,0.82,5.873
			c4.05,7.039,10.835,10.198,18.478,11.388c3.338,0.519,4.64,1.841,5.525,5.035c5.358,19.347,15.887,26.448,35.741,24.484
			c16.299-1.611,25.971-10.479,28.78-26.388c4.465-25.267-16.47-46.38-40.608-40.955c-14.822,3.331-21.034,0.319-27.541-12.988
			c-0.707-1.445-2.692-2.266-4.084-3.375c-0.368,1.864-1.523,4.006-0.976,5.544C243.703,389.118,249.102,396.339,260.63,397.112z
			 M414.599,398.125c3.252-4.743,6.329-8.577,8.563-12.853c0.752-1.441-0.096-5.369-1.158-5.793
			c-3.158-1.261-3.424,1.809-4.065,4.052c-1.962,6.85-7.433,9.484-14.503,7.907c-4.812-1.073-9.987-2.101-14.765-1.44
			c-14.184,1.961-26.676,16.964-26.874,31.231c-0.201,14.56,10.896,27.665,25.884,30.566c17.316,3.354,33.524-6.026,35.966-21.766
			c0.864-5.57,3.129-8.603,7.728-10.86c5.277-2.593,8.759-6.707,9.032-12.758c0.071-1.577-1.261-3.218-1.947-4.829
			c-1.159,1.17-3.183,2.239-3.333,3.527c-0.788,6.794-5.836,8.944-11.153,11.544c-1.179-3.571-2.207-6.682-3.331-10.085
			c1.58-1.056,3.455-1.77,4.507-3.124c2.387-3.074,4.68-6.314,6.329-9.81c0.517-1.093-1.15-3.217-1.817-4.868
			c-1.182,1.104-3.056,2.02-3.421,3.349c-1.274,4.639-4.262,7.351-8.713,9.189C416.334,400.011,415.134,398.707,414.599,398.125z
			 M213.667,373.758c4.626-5.645,8.044-10.577,12.233-14.731c5.158-5.117,12.389-3.78,15.8,2.337
			c0.891,1.599,2.16,3.133,2.526,4.854c2.045,9.584,9.561,12.836,17.533,15.84c4.212,1.586,7.749,0.901,11.208-1.726
			c7.003-5.318,13.557-25.221,9.682-32.994c-2.664-5.344-7.025-10.074-11.393-14.286c-9.473-9.135-17.05-8.396-25.729,1.792
			c-0.969,1.137-1.711,2.477-2.736,3.553c-0.738,0.775-1.755,1.773-2.677,1.803c-5.273,0.171-10.555,0.083-15.987,0.083
			c-0.487-6.112-0.906-11.381-1.326-16.651c0.543,0.246,1.085,0.492,1.628,0.737c2.146-3.21,5.237-6.166,6.189-9.698
			c1.089-4.042,0.583-8.621,0.224-12.922c-0.611-7.325-6.113-13.462-12.321-14.684c-5.203-1.023-10.43-2.075-15.498-3.604
			c-5.889-1.778-11.18-1.155-16.036,2.588c-6.871,5.297-9.697,14.405-7.184,22.74c0.815,2.704,1.696,5.407,2.239,8.171
			c1.528,7.784,6.716,12.536,14.778,13.052c3.28,0.21,6.584,0.035,9.927,0.035c0.61,2.745,0.954,5.061,1.646,7.267
			c2.534,8.082,0.213,15.139-4.64,21.535c-0.836,1.102-3.077,2.108-4.307,1.784c-7.75-2.043-13.582,1.879-19.403,5.807
			c-6.333,4.273-6.692,7.337-2.671,19.008c0.163,0.473,0.39,0.923,0.536,1.4c3.8,12.369,19.962,22.218,32.828,19.989
			c0.488-0.085,0.977-0.231,1.431-0.43c13.4-5.836,16.111-16.093,7.589-27.954C218.455,376.646,216.103,375.592,213.667,373.758z
			 M368.382,472.95c-1.478,2.464-2.222,3.892-3.137,5.199c-4.942,7.049-9.306,14.634-15.052,20.958
			c-7.502,8.257-16.264,8.406-24.064,0.578c-5.067-5.086-8.776-11.525-13.08-17.369c-0.953-1.294-1.845-2.631-2.765-3.947
			c-0.423,0.153-0.846,0.308-1.269,0.462c-0.081,1.215-0.384,2.463-0.206,3.64c0.744,4.928,1.344,9.904,2.521,14.735
			c4.167,17.115,23.577,25.538,39.138,17.132C363.651,507.217,370.934,491.191,368.382,472.95z M247.116,493.697
			c5.401-0.743,10.833-1.318,16.194-2.284c4.259-0.768,7.643-3.025,7.621-7.855c-0.021-4.633-3.189-7.034-7.262-8.466
			c-9.98-3.512-20.282-3.365-30.412-1.586c-2.689,0.473-5.711,4.15-6.78,7.026c-0.765,2.058,0.837,5.738,2.492,7.81
			C233.651,494.202,240.586,493.052,247.116,493.697z"/>
		<path fill-rule="evenodd" clip-rule="evenodd" fill="#E98A8E" d="M437.5,484.042c-6.474,0.026-12.948,0.133-19.42,0.055
			c-6.332-0.075-11.075-4.022-11.612-9.434c-0.421-4.245,3.498-8.914,9.549-9.617c7.452-0.868,15.052-1.083,22.548-0.736
			c5.404,0.25,8.259,4.442,9.545,11.681C444.573,478.674,441.036,481.357,437.5,484.042z"/>
		<path fill-rule="evenodd" clip-rule="evenodd" fill="#302F2F" d="M260.63,397.112c-11.528-0.773-16.927-7.994-20.219-17.256
			c-0.547-1.539,0.608-3.681,0.976-5.544c1.392,1.109,3.377,1.93,4.084,3.375c6.506,13.307,12.719,16.319,27.541,12.988
			c24.138-5.425,45.073,15.688,40.608,40.955c-2.81,15.908-12.481,24.776-28.78,26.388c-19.854,1.964-30.383-5.138-35.741-24.484
			c-0.885-3.194-2.188-4.517-5.525-5.035c-7.643-1.189-14.428-4.349-18.478-11.388c-0.958-1.665-1.669-5.112-0.82-5.873
			c2.646-2.374,4.017,0.653,5.195,2.482c4.065,6.312,10.177,8.648,17.532,9.519c0.803-3.488,1.566-6.808,2.438-10.594
			c-13.418-2.309-17.123-13.222-21.212-23.651c-0.479-1.223,0.722-3.105,1.144-4.682c1.343,0.915,3.21,1.533,3.927,2.802
			c1.876,3.319,2.959,7.095,4.914,10.357c1.582,2.636,3.64,5.229,6.074,7.063c5.103,3.842,7.896,3.201,11.859-1.831
			C257.452,401.044,258.788,399.406,260.63,397.112z M297.397,415.077c-0.029-6.729-5.275-12.082-11.933-12.178
			c-6.774-0.097-12.427,5.461-12.434,12.227c-0.007,6.743,5.72,12.343,12.485,12.204
			C292.138,427.195,297.426,421.74,297.397,415.077z M267.888,448.102c3.863-0.355,5.958-2.639,5.8-6.193
			c-0.157-3.53-2.445-5.928-6.188-5.717c-3.611,0.204-5.752,2.354-5.638,6.185C261.979,446.279,264.345,447.867,267.888,448.102z"/>
		<path fill-rule="evenodd" clip-rule="evenodd" fill="#302F2F" d="M414.599,398.125c0.535,0.582,1.735,1.886,2.927,3.181
			c4.451-1.838,7.438-4.55,8.713-9.189c0.365-1.329,2.239-2.245,3.421-3.349c0.667,1.651,2.334,3.775,1.817,4.868
			c-1.649,3.495-3.942,6.735-6.329,9.81c-1.052,1.354-2.927,2.068-4.507,3.124c1.124,3.403,2.152,6.514,3.331,10.085
			c5.317-2.6,10.365-4.75,11.153-11.544c0.15-1.288,2.174-2.357,3.333-3.527c0.687,1.611,2.019,3.252,1.947,4.829
			c-0.273,6.051-3.755,10.165-9.032,12.758c-4.599,2.258-6.863,5.29-7.728,10.86c-2.441,15.739-18.649,25.119-35.966,21.766
			c-14.987-2.901-26.085-16.007-25.884-30.566c0.198-14.268,12.69-29.27,26.874-31.231c4.777-0.661,9.953,0.367,14.765,1.44
			c7.07,1.577,12.541-1.057,14.503-7.907c0.642-2.243,0.907-5.313,4.065-4.052c1.063,0.424,1.91,4.353,1.158,5.793
			C420.928,389.548,417.851,393.382,414.599,398.125z M401.184,425.074c6.757,0.021,12.549-5.687,12.492-12.313
			c-0.053-6.488-5.561-11.931-12.197-12.055c-7.037-0.13-12.582,5.139-12.641,12.012
			C388.78,419.503,394.326,425.053,401.184,425.074z M388.409,435.623c-0.388-3.611-2.467-5.604-6.208-5.476
			c-3.586,0.122-5.538,2.451-5.533,5.785c0.005,3.614,2.252,6.025,5.95,5.93C386.229,441.769,388.313,439.547,388.409,435.623z"/>
		<path fill-rule="evenodd" clip-rule="evenodd" fill="#AD1659" d="M213.667,373.758c2.436,1.833,4.788,2.887,6.088,4.696
			c8.522,11.861,5.811,22.118-7.589,27.954c-0.454,0.198-0.943,0.345-1.431,0.43c-12.865,2.229-29.027-7.62-32.828-19.989
			c-0.146-0.477-0.373-0.927-0.536-1.4c-4.021-11.671-3.661-14.735,2.671-19.008c5.821-3.928,11.652-7.85,19.403-5.807
			c1.23,0.324,3.471-0.682,4.307-1.784c4.853-6.396,7.173-13.454,4.64-21.535c-0.692-2.206-1.036-4.521-1.646-7.267
			c-3.342,0-6.646,0.175-9.927-0.035c-8.062-0.516-13.25-5.268-14.778-13.052c-0.542-2.764-1.423-5.467-2.239-8.171
			c-2.513-8.335,0.313-17.443,7.184-22.74c4.856-3.743,10.147-4.366,16.036-2.588c5.068,1.529,10.294,2.581,15.498,3.604
			c6.208,1.222,11.71,7.359,12.321,14.684c0.359,4.301,0.865,8.88-0.224,12.922c-0.952,3.532-4.043,6.488-6.189,9.698
			c-0.543-0.245-1.085-0.491-1.628-0.737c0.42,5.27,0.839,10.54,1.326,16.651c5.432,0,10.714,0.088,15.987-0.083
			c0.921-0.03,1.938-1.028,2.677-1.803c1.025-1.076,1.768-2.417,2.736-3.553c8.679-10.189,16.256-10.927,25.729-1.792
			c4.368,4.212,8.729,8.942,11.393,14.286c3.875,7.773-2.679,27.676-9.682,32.994c-3.459,2.626-6.996,3.312-11.208,1.726
			c-7.972-3.004-15.488-6.256-17.533-15.84c-0.367-1.72-1.635-3.254-2.526-4.854c-3.411-6.118-10.642-7.454-15.8-2.337
			C221.711,363.182,218.293,368.113,213.667,373.758z M226.049,307.758c0.008,0,0.017,0,0.025,0c0-1.164,0.006-2.327-0.001-3.49
			c-0.046-8.078-2.758-11.293-10.71-12.985c-4.68-0.995-9.409-1.91-13.946-3.383c-3.86-1.254-7.091-0.65-10.341,1.471
			c-5.653,3.689-8.726,11.156-7.052,17.611c0.914,3.521,1.406,7.323,3.135,10.412c1.625,2.907,4.287,6.57,7.094,7.195
			c5.517,1.229,11.434,1.329,16.881-1.962c3.336-2.017,7.41-2.788,10.853-4.668c1.704-0.931,3.163-2.924,3.928-4.77
			C226.562,311.627,226.049,309.586,226.049,307.758z M279.29,354.003c-0.474-8.221-5.424-12.868-10.532-17.003
			c-9.276-7.511-13.536-7.116-20.46,2.645c-2.801,3.949-6.029,10.41-4.622,13.975c3.511,8.894,5.497,19.611,17.255,23.137
			c6.528,1.957,12.969-0.902,14.139-7.786c0.494-2.908,1.478-5.735,2.29-8.586C278.035,358.015,278.784,355.667,279.29,354.003z
			 M196.099,363.965c-3.931,1.786-7.132,3.052-10.158,4.649c-7.403,3.911-8.035,5.802-4.955,13.379
			c0.686,1.687,1.297,3.406,1.905,5.125c3.021,8.544,18.522,16.953,27.269,14.758c0.635-0.159,1.24-0.479,1.822-0.793
			c9.331-5.048,10.682-13.179,3.388-21.087c-3.039-3.296-6.14-6.584-9.562-9.461C202.88,368.072,199.456,366.2,196.099,363.965z
			 M211.463,369.221c0.953-1.502,1.666-2.78,2.521-3.953c5.225-7.155,10.333-14.624,20.688-14.121
			c4.668,0.227,4.859-2.065,3.765-6.142c-3.439,0-6.892-0.016-10.344,0.003c-8.359,0.045-8.856-0.536-9.091-9.045
			c-0.101-3.636-0.654-7.259-1.008-10.96c-7.257,1.315-7.043,5.376-5.492,9.813c3.226,9.228,1.583,17.787-3.801,25.576
			C205.9,364.443,207.238,366.689,211.463,369.221z"/>
		<path fill-rule="evenodd" clip-rule="evenodd" fill="#312E30" d="M368.382,472.95c2.552,18.241-4.73,34.267-17.914,41.388
			c-15.561,8.406-34.971-0.017-39.138-17.132c-1.177-4.831-1.776-9.808-2.521-14.735c-0.178-1.177,0.125-2.425,0.206-3.64
			c0.423-0.154,0.846-0.309,1.269-0.462c0.92,1.316,1.812,2.653,2.765,3.947c4.304,5.844,8.013,12.283,13.08,17.369
			c7.801,7.828,16.563,7.679,24.064-0.578c5.746-6.324,10.109-13.909,15.052-20.958C366.16,476.842,366.904,475.414,368.382,472.95z
			"/>
		<path fill-rule="evenodd" clip-rule="evenodd" fill="#E98A8E" d="M247.116,493.697c-6.53-0.646-13.465,0.505-18.146-5.355
			c-1.655-2.071-3.257-5.752-2.492-7.81c1.069-2.876,4.091-6.554,6.78-7.026c10.13-1.779,20.431-1.926,30.412,1.586
			c4.073,1.432,7.24,3.833,7.262,8.466c0.022,4.83-3.361,7.088-7.621,7.855C257.949,492.379,252.517,492.954,247.116,493.697z"/>
		<path fill-rule="evenodd" clip-rule="evenodd" fill="#F4F4F4" d="M297.397,415.077c0.029,6.663-5.26,12.118-11.882,12.253
			c-6.765,0.139-12.493-5.461-12.485-12.204c0.007-6.766,5.66-12.323,12.434-12.227
			C292.122,402.995,297.369,408.349,297.397,415.077z"/>
		<path fill-rule="evenodd" clip-rule="evenodd" fill="#F4F4F4" d="M267.888,448.102c-3.542-0.234-5.909-1.822-6.026-5.726
			c-0.114-3.831,2.026-5.98,5.638-6.185c3.743-0.211,6.031,2.187,6.188,5.717C273.846,445.463,271.751,447.746,267.888,448.102z"/>
		<path fill-rule="evenodd" clip-rule="evenodd" fill="#F7F7F7" d="M401.184,425.074c-6.857-0.021-12.403-5.571-12.346-12.356
			c0.059-6.873,5.604-12.142,12.641-12.012c6.637,0.124,12.145,5.566,12.197,12.055C413.732,419.388,407.94,425.095,401.184,425.074
			z"/>
		<path fill-rule="evenodd" clip-rule="evenodd" fill="#F6F6F6" d="M388.409,435.623c-0.096,3.924-2.181,6.146-5.791,6.239
			c-3.698,0.096-5.945-2.315-5.95-5.93c-0.005-3.334,1.947-5.663,5.533-5.785C385.942,430.019,388.021,432.012,388.409,435.623z"/>
		<path fill-rule="evenodd" clip-rule="evenodd" fill="#661246" d="M226.049,307.758c0,1.829,0.513,3.869-0.133,5.43
			c-0.766,1.846-2.224,3.839-3.928,4.77c-3.443,1.88-7.517,2.651-10.853,4.668c-5.448,3.292-11.365,3.191-16.881,1.962
			c-2.808-0.625-5.469-4.288-7.094-7.195c-1.729-3.089-2.222-6.891-3.135-10.412c-1.674-6.455,1.399-13.921,7.052-17.611
			c3.25-2.121,6.48-2.725,10.341-1.471c4.537,1.474,9.267,2.388,13.946,3.383c7.952,1.692,10.665,4.908,10.71,12.985
			c0.007,1.164,0.001,2.327,0.001,3.49C226.065,307.758,226.057,307.758,226.049,307.758z"/>
		<path fill-rule="evenodd" clip-rule="evenodd" fill="#661246" d="M279.29,354.003c-0.506,1.664-1.255,4.012-1.93,6.381
			c-0.813,2.851-1.796,5.678-2.29,8.586c-1.17,6.884-7.611,9.743-14.139,7.786c-11.759-3.526-13.745-14.244-17.255-23.137
			c-1.407-3.565,1.821-10.025,4.622-13.975c6.925-9.761,11.184-10.156,20.46-2.645C273.866,341.136,278.816,345.782,279.29,354.003z
			"/>
		<path fill-rule="evenodd" clip-rule="evenodd" fill="#671246" d="M196.099,363.965c3.357,2.235,6.781,4.107,9.708,6.57
			c3.421,2.877,6.522,6.166,9.562,9.461c7.294,7.908,5.943,16.039-3.388,21.087c-0.582,0.314-1.187,0.634-1.822,0.793
			c-8.746,2.194-24.248-6.214-27.269-14.758c-0.607-1.718-1.219-3.438-1.905-5.125c-3.08-7.577-2.448-9.468,4.955-13.379
			C188.967,367.017,192.167,365.75,196.099,363.965z"/>
		<path fill-rule="evenodd" clip-rule="evenodd" fill="#681246" d="M211.463,369.221c-4.225-2.532-5.563-4.777-2.761-8.829
			c5.385-7.789,7.027-16.348,3.801-25.576c-1.551-4.437-1.765-8.498,5.492-9.813c0.354,3.701,0.907,7.325,1.008,10.96
			c0.235,8.509,0.732,9.09,9.091,9.045c3.452-0.019,6.905-0.003,10.344-0.003c1.094,4.077,0.903,6.369-3.765,6.142
			c-10.355-0.503-15.463,6.965-20.688,14.121C213.128,366.441,212.416,367.719,211.463,369.221z"/>
	</g>
</g>
</svg>
