<?xml version="1.0" encoding="utf-8"?>
<!-- Generator: Adobe Illustrator 16.0.3, SVG Export Plug-In . SVG Version: 6.00 Build 0)  -->
<!DOCTYPE svg PUBLIC "-//W3C//DTD SVG 1.1//EN" "http://www.w3.org/Graphics/SVG/1.1/DTD/svg11.dtd">
<svg version="1.1" id="Capa_1" xmlns="http://www.w3.org/2000/svg" xmlns:xlink="http://www.w3.org/1999/xlink" x="0px" y="0px"
	 width="612px" height="792px" viewBox="0 0 612 792" enable-background="new 0 0 612 792" xml:space="preserve">
<g>
	<g>
		<path fill-rule="evenodd" clip-rule="evenodd" fill="#FEFEFE" d="M51.016,654.116c-0.005-170.989-0.005-341.979-0.005-513.043
			c170.938,0,341.887,0,512.97,0c0,170.966,0,342.005,0,513.043C393.017,654.116,222.019,654.116,51.016,654.116z M392.299,382.772
			c-10.376,1.419-20.979,1.926-31.077,4.455c-19.2,4.81-33.624,15.52-39.134,35.822c-1.109,4.086-3.238,8.055-5.6,11.609
			c-5.588,8.415-6.132,16.561-1.749,25.895c2.266,4.825,3.197,11.057,2.46,16.335c-1.207,8.638-3.957,17.115-6.631,25.477
			c-2.953,9.235-2.334,17.796,1.849,26.597c3.189,6.71,5.279,13.957,7.65,21.034c2.324,6.936,4.255,14.004,6.599,20.932
			c2.877,8.506,8.433,15.054,15.725,20.138c7.785,5.428,15.67,10.714,23.485,16.099c7.805,5.376,16.487,7.554,25.656,5.508
			c11.828-2.642,23.687-5.468,35.149-9.344c16.971-5.739,29.505-16.5,34.273-34.634c1.233-4.687,4.449-6.194,9.135-6.943
			c6.284-1.005,12.886-2.265,18.449-5.152c21.002-10.9,22.528-20.318,17.499-37.327c-1.718-5.812-0.535-10.8,2.803-15.555
			c1.243-1.772,2.333-3.665,3.698-5.336c4.369-5.346,5.587-10.964,2.893-17.628c-3.294-8.148-2.924-16.264,1.864-23.934
			c0.786-1.26,1.287-2.702,1.863-4.084c2.028-4.863,1.354-9.621-2.734-12.688c-4.701-3.526-9.853-7.219-15.381-8.698
			c-9.014-2.414-15.231-6.62-18.051-15.829c-1.936-6.316-6.913-10.182-13.468-10.147c-9.81,0.051-15.844-5.935-22.13-11.953
			c-1.374-1.317-2.963-2.839-4.703-3.278C426.19,385.98,409.55,382.694,392.299,382.772z M302.176,510.739
			c0.761-8.655-2.1-16.474-5.613-24.072c-4.458-9.641-8.651-19.456-13.894-28.663c-4.942-8.68-13.314-11.698-23.138-10.229
			c-4.929,0.738-9.776,2.076-14.718,2.662c-3.91,0.463-8.208,1.171-11.81,0.065c-10.714-3.288-21.606-3.467-32.611-3.673
			c-8.63-0.162-17.461,0.005-25.82-1.775c-11.486-2.448-20.67-0.046-28.432,8.573c-1.67,1.854-3.405,3.683-5.309,5.286
			c-16.181,13.635-23.691,31.607-26.749,52.054c-1.648,11.023-1.77,21.111,7.697,29.286c1.891,1.633,2.539,5.8,2.238,8.638
			c-0.538,5.079-2.272,10.026-3.433,15.047c-2.208,9.549,0.449,14.851,10.046,15.422c12.526,0.746,19.543,6.466,23.932,17.928
			c3.973,10.377,12.696,13.978,23.804,13.428c5.457-0.271,11.175,1.096,16.49,2.677c4.728,1.406,9.168,3.937,13.55,6.312
			c11.315,6.136,21.76,5.331,31.131-3.714c15.325-14.793,30.635-29.604,45.704-44.655c2.741-2.736,4.8-6.446,6.317-10.067
			C298.325,545.124,301.019,528.068,302.176,510.739z M182.215,429.326c30.393-2.404,56.372-17.052,79.414-37.748
			c5.782-5.194,6.288-12.563,3.899-19.528c-3.262-9.512-2.406-18.424,0.896-27.741c6.591-18.598,1.458-34.473-13.015-47.305
			c-4.042-3.585-9.08-6.144-13.902-8.72c-3.571-1.908-6.534-3.662-6.214-8.433c0.099-1.47-0.819-3.343-1.862-4.501
			c-9.616-10.681-20.761-17.626-36.035-14.712c-12.389,2.364-24.833,4.438-37.262,6.594c-5.284,0.917-9.549,3.286-11.35,8.564
			c-1.87,5.482-5.65,8.837-10.744,11.102c-9.563,4.252-16.228,11.414-20.759,20.741c-4.291,8.833-8.708,17.605-13.018,26.429
			c-3.045,6.236-3.538,12.688-1.883,19.457c0.899,3.678,1.882,7.597,1.503,11.27c-0.878,8.507,1.729,15.779,6.371,22.55
			c4.23,6.17,8.17,12.632,13.103,18.2c4.119,4.647,8.988,9.123,14.407,12.029C149.745,425.075,165.103,428.1,182.215,429.326z
			 M498.762,261.941c0.082-7.132-3.318-12.38-8.18-16.755c-6.407-5.766-10.702-12.579-14.381-20.517
			c-10.382-22.403-26.057-38.133-53.364-36.004c-1.327,0.104-2.668,0.16-3.994,0.09c-12.792-0.672-23.624,3.232-33.214,12.097
			c-3.897,3.603-9.818,5.403-15.13,6.983c-5.696,1.696-11.748,2.229-17.662,3.164c-5.105,0.807-8.423,3.452-9.972,8.509
			c-1.314,4.287-2.951,8.481-4.57,12.668c-4.156,10.748-4.915,21.657-1.799,32.795c1.522,5.444,3.121,10.869,4.503,16.349
			c4.013,15.912,13.202,27.521,27.662,35.485c14.841,8.174,29.864,16.131,42.417,27.938c5.513,5.186,12.755,6.403,20.154,5.034
			c16.759-3.102,32.918-8.198,48.305-15.553c9.71-4.642,11.742-8.768,9.012-19.193c-1.764-6.73-1.502-13.115,0.72-19.59
			c2.052-5.977,4.166-11.942,5.904-18.013C496.631,272.341,497.585,267.109,498.762,261.941z"/>
		<path fill-rule="evenodd" clip-rule="evenodd" fill="#F82B82" d="M392.299,382.772c17.251-0.078,33.892,3.208,50.394,7.369
			c1.74,0.439,3.329,1.961,4.703,3.278c6.286,6.019,12.32,12.004,22.13,11.953c6.555-0.034,11.532,3.831,13.468,10.147
			c2.819,9.209,9.037,13.415,18.051,15.829c5.528,1.479,10.68,5.172,15.381,8.698c4.089,3.066,4.763,7.824,2.734,12.688
			c-0.576,1.382-1.077,2.824-1.863,4.084c-4.788,7.67-5.158,15.785-1.864,23.934c2.694,6.664,1.477,12.282-2.893,17.628
			c-1.365,1.671-2.455,3.563-3.698,5.336c-3.338,4.755-4.521,9.743-2.803,15.555c5.029,17.009,3.503,26.427-17.499,37.327
			c-5.563,2.888-12.165,4.147-18.449,5.152c-4.686,0.749-7.901,2.257-9.135,6.943c-4.769,18.134-17.303,28.895-34.273,34.634
			c-11.463,3.876-23.321,6.702-35.149,9.344c-9.169,2.046-17.852-0.132-25.656-5.508c-7.815-5.385-15.7-10.671-23.485-16.099
			c-7.292-5.084-12.848-11.632-15.725-20.138c-2.344-6.928-4.274-13.996-6.599-20.932c-2.371-7.077-4.461-14.324-7.65-21.034
			c-4.183-8.801-4.802-17.361-1.849-26.597c2.674-8.361,5.424-16.839,6.631-25.477c0.737-5.278-0.194-11.51-2.46-16.335
			c-4.383-9.334-3.839-17.479,1.749-25.895c2.361-3.555,4.49-7.523,5.6-11.609c5.51-20.302,19.934-31.012,39.134-35.822
			C371.319,384.698,381.923,384.191,392.299,382.772z M397.226,388.913c-13.116,2.031-26.222,2.824-38.577,6.292
			c-14.711,4.128-25.753,13.378-29.837,29.341c-1.248,4.882-3.905,9.556-6.638,13.869c-4.018,6.344-4.936,12.338-1.092,19.133
			c3.536,6.248,4.781,13.171,3.103,20.266c-1.944,8.216-4.099,16.389-6.432,24.503c-1.902,6.62-3.442,13.01-0.842,19.936
			c4.372,11.646,8.803,23.319,12.196,35.27c4.007,14.111,10.864,25.512,24.162,32.665c5.093,2.739,9.648,6.511,14.328,9.976
			c7.548,5.587,15.879,7.601,24.996,5.397c9.684-2.338,19.375-4.72,28.9-7.617c16.601-5.047,28.703-14.856,33.496-32.405
			c1.876-6.868,6.717-10.506,13.639-10.304c8.739,0.256,15.871-3.516,22.684-7.998c10.046-6.61,12.213-11.639,8.689-23.312
			c-3.229-10.695-1.115-19.66,5.84-27.835c3.766-4.428,4.968-8.886,2.732-14.603c-3.512-8.978-2.737-17.776,1.977-26.422
			c4.326-7.936,3.396-10.217-4.594-14.655c-1.867-1.038-3.899-1.992-5.972-2.42c-11.247-2.323-19.661-7.769-23.082-19.448
			c-1.098-3.75-3.859-6.505-8.027-6.42c-9.032,0.185-15.836-4.149-22.175-9.905c-2.539-2.307-5.256-5.342-8.323-5.982
			C424.754,393.387,410.974,391.288,397.226,388.913z"/>
		<path fill-rule="evenodd" clip-rule="evenodd" fill="#F82B82" d="M302.176,510.739c-1.157,17.329-3.851,34.385-10.617,50.528
			c-1.517,3.621-3.576,7.331-6.317,10.067c-15.069,15.052-30.379,29.862-45.704,44.655c-9.371,9.045-19.815,9.85-31.131,3.714
			c-4.382-2.375-8.822-4.905-13.55-6.312c-5.315-1.581-11.033-2.947-16.49-2.677c-11.108,0.55-19.831-3.051-23.804-13.428
			c-4.389-11.462-11.406-17.182-23.932-17.928c-9.597-0.571-12.253-5.873-10.046-15.422c1.16-5.021,2.895-9.968,3.433-15.047
			c0.3-2.838-0.347-7.005-2.238-8.638c-9.467-8.175-9.345-18.263-7.697-29.286c3.057-20.446,10.568-38.419,26.749-52.054
			c1.904-1.604,3.639-3.433,5.309-5.286c7.762-8.619,16.946-11.021,28.432-8.573c8.358,1.78,17.189,1.613,25.82,1.775
			c11.005,0.206,21.897,0.385,32.611,3.673c3.603,1.105,7.9,0.397,11.81-0.065c4.941-0.586,9.789-1.924,14.718-2.662
			c9.823-1.47,18.196,1.549,23.138,10.229c5.243,9.207,9.436,19.022,13.894,28.663C300.076,494.266,302.937,502.084,302.176,510.739
			z M295.411,509.649c-0.23-2.279,0.171-5.875-1.025-8.823c-5.119-12.608-10.39-25.178-16.257-37.45
			c-3.08-6.44-8.857-9.93-16.37-9.061c-4.113,0.476-8.14,1.898-12.25,2.143c-6.871,0.405-13.803,0.599-20.663,0.156
			c-7.079-0.458-14.079-2.042-21.156-2.667c-12.88-1.139-25.799-1.836-38.685-2.918c-5.208-0.437-10.015,0.175-14.05,3.689
			c-16.892,14.712-31.27,30.976-33.63,54.657c-0.858,8.61-4.137,17.519,4.156,24.638c6.045,5.188,6.654,11.934,4.875,19.188
			c-1.069,4.358-2.21,8.7-3.288,13.057c-0.952,3.848,0.481,6.135,4.488,6.624c1.485,0.182,2.987,0.216,4.472,0.397
			c9.849,1.206,17.905,4.887,21.608,15.052c1.072,2.941,2.819,5.646,4.351,8.409c3.243,5.85,8.416,7.481,14.767,6.927
			c3.115-0.271,6.543-0.701,9.379,0.264c8.925,3.036,17.833,6.272,26.374,10.238c8.226,3.821,15.367,3.478,21.974-2.852
			c14.778-14.159,29.646-28.229,44.191-42.623c2.982-2.952,5.325-6.921,6.911-10.846
			C291.675,542.76,294.372,526.896,295.411,509.649z"/>
		<path fill-rule="evenodd" clip-rule="evenodd" fill="#F82B82" d="M182.215,429.326c-17.112-1.227-32.47-4.251-46.452-11.75
			c-5.419-2.906-10.288-7.382-14.407-12.029c-4.933-5.567-8.873-12.029-13.103-18.2c-4.642-6.771-7.249-14.043-6.371-22.55
			c0.379-3.673-0.604-7.592-1.503-11.27c-1.655-6.769-1.162-13.221,1.883-19.457c4.31-8.823,8.727-17.596,13.018-26.429
			c4.531-9.327,11.196-16.489,20.759-20.741c5.093-2.265,8.874-5.62,10.744-11.102c1.801-5.278,6.066-7.648,11.35-8.564
			c12.428-2.156,24.873-4.23,37.262-6.594c15.274-2.914,26.419,4.031,36.035,14.712c1.042,1.158,1.96,3.031,1.862,4.501
			c-0.319,4.771,2.644,6.525,6.214,8.433c4.823,2.576,9.86,5.135,13.902,8.72c14.472,12.832,19.605,28.707,13.015,47.305
			c-3.302,9.316-4.158,18.229-0.896,27.741c2.388,6.964,1.883,14.334-3.899,19.528C238.587,412.274,212.607,426.922,182.215,429.326
			z M109.385,364.426c-1.847,7.952,0.825,13.662,4.461,18.994c4.212,6.178,8.313,12.493,13.144,18.167
			c3.263,3.834,7.241,7.627,11.699,9.78c24.08,11.628,48.832,15.303,74.077,3.651c15.29-7.057,30.159-14.927,42.584-26.613
			c3.784-3.558,5.752-7.898,3.854-13.057c-4.439-12.066-2.711-23.597,1.355-35.505c4.466-13.08,1.302-25.3-8.873-34.72
			c-5.272-4.881-11.832-8.435-18.033-12.225c-3.922-2.397-7.11-4.777-6.825-10.019c0.08-1.465-0.773-3.346-1.818-4.45
			c-8.103-8.564-17.428-13.463-29.847-10.855c-11.974,2.514-23.554,7.127-36.161,6.706c-2.012-0.067-5.124,2.697-6.02,4.861
			c-2.747,6.626-7.445,10.811-13.719,13.761c-6.276,2.951-11.881,6.82-15.148,13.227c-5.597,10.975-11.349,21.883-16.492,33.068
			c-1.342,2.917-1.16,6.808-0.82,10.164C107.354,354.774,108.614,360.114,109.385,364.426z"/>
		<path fill-rule="evenodd" clip-rule="evenodd" fill="#F82B82" d="M498.762,261.941c-1.177,5.168-2.131,10.4-3.589,15.488
			c-1.738,6.071-3.853,12.036-5.904,18.013c-2.222,6.475-2.483,12.86-0.72,19.59c2.73,10.425,0.698,14.551-9.012,19.193
			c-15.387,7.354-31.546,12.451-48.305,15.553c-7.399,1.369-14.642,0.152-20.154-5.034c-12.553-11.807-27.576-19.764-42.417-27.938
			c-14.46-7.964-23.649-19.574-27.662-35.485c-1.382-5.48-2.98-10.905-4.503-16.349c-3.116-11.138-2.357-22.048,1.799-32.795
			c1.619-4.187,3.256-8.381,4.57-12.668c1.549-5.057,4.866-7.702,9.972-8.509c5.914-0.935,11.966-1.467,17.662-3.164
			c5.312-1.581,11.232-3.381,15.13-6.983c9.59-8.865,20.422-12.77,33.214-12.097c1.326,0.07,2.667,0.014,3.994-0.09
			c27.308-2.129,42.982,13.601,53.364,36.004c3.679,7.938,7.974,14.75,14.381,20.517
			C495.443,249.561,498.844,254.809,498.762,261.941z M424.413,195.773c0,0.058,0,0.115,0,0.173c-4.498,0-9.167-0.766-13.451,0.193
			c-5.351,1.199-11.354,2.668-15.361,6.05c-9.412,7.94-19.678,13.002-31.896,13.825c-8.781,0.592-15.841,2.861-16.968,13.234
			c-0.225,2.073-1.587,4.005-2.299,6.046c-2.722,7.802-4.243,15.734-2.195,23.967c1.443,5.804,3.076,11.563,4.447,17.383
			c3.763,15.973,12.439,27.695,27.354,35.458c14.571,7.583,29.05,15.576,41.066,27.241c4.196,4.073,9.927,4.697,15.53,3.605
			c16.562-3.228,32.553-8.244,47.707-15.786c3.617-1.801,5.482-4.205,4.013-8.375c-3.835-10.882-1.393-21.289,2.364-31.628
			c1.702-4.688,3.124-9.476,4.696-14.211c3.318-9.989,2.568-18.594-6.356-25.985c-4.435-3.673-7.596-9.092-10.685-14.12
			c-2.763-4.496-4.015-9.973-7.014-14.261c-9.415-13.461-20.346-24.83-38.955-22.819
			C425.753,195.835,425.08,195.773,424.413,195.773z"/>
		<path fill-rule="evenodd" clip-rule="evenodd" fill="#EAA7CE" d="M397.226,388.913c13.748,2.375,27.528,4.474,41.152,7.321
			c3.067,0.641,5.784,3.676,8.323,5.982c6.339,5.756,13.143,10.09,22.175,9.905c4.168-0.085,6.93,2.67,8.027,6.42
			c3.421,11.68,11.835,17.125,23.082,19.448c2.072,0.428,4.104,1.382,5.972,2.42c7.989,4.438,8.92,6.72,4.594,14.655
			c-4.714,8.646-5.488,17.444-1.977,26.422c2.235,5.717,1.033,10.175-2.732,14.603c-6.955,8.175-9.069,17.14-5.84,27.835
			c3.523,11.673,1.356,16.701-8.689,23.312c-6.813,4.482-13.944,8.254-22.684,7.998c-6.922-0.202-11.763,3.436-13.639,10.304
			c-4.793,17.549-16.896,27.358-33.496,32.405c-9.525,2.897-19.217,5.279-28.9,7.617c-9.117,2.203-17.448,0.189-24.996-5.397
			c-4.68-3.465-9.235-7.236-14.328-9.976c-13.298-7.153-20.155-18.554-24.162-32.665c-3.394-11.95-7.824-23.623-12.196-35.27
			c-2.601-6.926-1.061-13.315,0.842-19.936c2.333-8.114,4.487-16.287,6.432-24.503c1.679-7.095,0.434-14.018-3.103-20.266
			c-3.844-6.795-2.926-12.789,1.092-19.133c2.732-4.313,5.39-8.987,6.638-13.869c4.084-15.963,15.126-25.213,29.837-29.341
			C371.004,391.737,384.109,390.944,397.226,388.913z"/>
		<path fill-rule="evenodd" clip-rule="evenodd" fill="#EAA7CE" d="M295.411,509.649c-1.04,17.247-3.736,33.11-9.83,48.199
			c-1.585,3.925-3.928,7.894-6.911,10.846c-14.544,14.395-29.413,28.464-44.191,42.623c-6.606,6.329-13.748,6.673-21.974,2.852
			c-8.54-3.966-17.449-7.202-26.374-10.238c-2.836-0.965-6.264-0.535-9.379-0.264c-6.351,0.555-11.524-1.077-14.767-6.927
			c-1.531-2.763-3.278-5.468-4.351-8.409c-3.703-10.165-11.759-13.846-21.608-15.052c-1.485-0.182-2.987-0.216-4.472-0.397
			c-4.006-0.489-5.439-2.776-4.488-6.624c1.077-4.356,2.219-8.698,3.288-13.057c1.779-7.254,1.17-13.999-4.875-19.188
			c-8.293-7.119-5.014-16.027-4.156-24.638c2.361-23.682,16.739-39.945,33.63-54.657c4.035-3.515,8.842-4.126,14.05-3.689
			c12.886,1.082,25.805,1.779,38.685,2.918c7.077,0.625,14.077,2.209,21.156,2.667c6.859,0.442,13.792,0.249,20.663-0.156
			c4.11-0.244,8.137-1.667,12.25-2.143c7.513-0.869,13.291,2.62,16.37,9.061c5.868,12.272,11.139,24.842,16.257,37.45
			C295.583,503.774,295.181,507.37,295.411,509.649z"/>
		<path fill-rule="evenodd" clip-rule="evenodd" fill="#EAA7CE" d="M109.385,364.426c-0.771-4.312-2.031-9.651-2.581-15.064
			c-0.34-3.356-0.522-7.247,0.82-10.164c5.143-11.186,10.896-22.093,16.492-33.068c3.268-6.407,8.872-10.276,15.148-13.227
			c6.274-2.95,10.973-7.134,13.719-13.761c0.896-2.164,4.007-4.928,6.02-4.861c12.607,0.421,24.188-4.191,36.161-6.706
			c12.419-2.608,21.745,2.291,29.847,10.855c1.045,1.104,1.898,2.985,1.818,4.45c-0.286,5.242,2.903,7.622,6.825,10.019
			c6.201,3.79,12.761,7.343,18.033,12.225c10.174,9.42,13.339,21.64,8.873,34.72c-4.066,11.908-5.794,23.439-1.355,35.505
			c1.898,5.159-0.07,9.499-3.854,13.057c-12.425,11.686-27.294,19.556-42.584,26.613c-25.246,11.651-49.998,7.977-74.077-3.651
			c-4.458-2.153-8.436-5.946-11.699-9.78c-4.831-5.674-8.931-11.989-13.144-18.167C110.209,378.087,107.538,372.378,109.385,364.426
			z"/>
		<path fill-rule="evenodd" clip-rule="evenodd" fill="#EAA7CE" d="M424.413,195.773c0.667,0,1.34,0.062,1.998-0.01
			c18.609-2.01,29.54,9.358,38.955,22.819c2.999,4.288,4.251,9.765,7.014,14.261c3.089,5.028,6.25,10.447,10.685,14.12
			c8.925,7.391,9.675,15.997,6.356,25.985c-1.572,4.735-2.994,9.523-4.696,14.211c-3.757,10.339-6.199,20.746-2.364,31.628
			c1.47,4.17-0.396,6.574-4.013,8.375c-15.154,7.542-31.146,12.558-47.707,15.786c-5.604,1.092-11.334,0.468-15.53-3.605
			c-12.017-11.665-26.495-19.658-41.066-27.241c-14.915-7.763-23.592-19.485-27.354-35.458c-1.371-5.821-3.004-11.579-4.447-17.383
			c-2.048-8.233-0.526-16.166,2.195-23.967c0.712-2.041,2.074-3.973,2.299-6.046c1.127-10.373,8.187-12.642,16.968-13.234
			c12.219-0.823,22.484-5.885,31.896-13.825c4.008-3.382,10.011-4.852,15.361-6.05c4.284-0.959,8.953-0.193,13.451-0.193
			C424.413,195.889,424.413,195.831,424.413,195.773z"/>
	</g>
</g>
</svg>
