<?xml version="1.0" encoding="utf-8"?>
<!-- Generator: Adobe Illustrator 16.0.3, SVG Export Plug-In . SVG Version: 6.00 Build 0)  -->
<!DOCTYPE svg PUBLIC "-//W3C//DTD SVG 1.1//EN" "http://www.w3.org/Graphics/SVG/1.1/DTD/svg11.dtd">
<svg version="1.1" id="Capa_1" xmlns="http://www.w3.org/2000/svg" xmlns:xlink="http://www.w3.org/1999/xlink" x="0px" y="0px"
	 width="612px" height="792px" viewBox="0 0 612 792" enable-background="new 0 0 612 792" xml:space="preserve">
<g>
	<g>
		<path fill-rule="evenodd" clip-rule="evenodd" fill="#FEFEFE" d="M563.939,654.116c-170.841,0-341.713,0-512.762,0
			c0-170.92,0-341.842,0-512.939c170.744,0,341.666,0,512.762,0C563.939,311.921,563.939,482.843,563.939,654.116z M399.156,380.283
			c-4.152,0.286-8.363,0.223-12.445,0.921c-15.424,2.639-28.41,9.089-36.192,23.625c-2.572,4.805-5.311,9.634-8.715,13.854
			c-5.181,6.42-6.356,12.877-4.096,20.925c1.457,5.186,1.688,11.346,0.363,16.531c-1.826,7.152-5.461,13.881-8.647,20.636
			c-3.258,6.91-4.203,13.794-2.268,21.321c2.396,9.319,4.558,18.738,6.098,28.231c2.152,13.271,5.36,25.751,16.622,34.645
			c5.612,4.433,10.877,9.316,16.186,14.122c7.166,6.488,15.472,9.941,25.137,8.863c11.563-1.29,23.215-2.411,34.561-4.85
			c14.551-3.128,25.819-11.199,31.844-25.461c1.568-3.716,4.256-5.932,8.621-5.179c9.418,1.625,17.793-1.703,25.855-5.824
			c10.54-5.389,14.521-11.969,12.507-23.542c-1.534-8.804,0.998-15.255,7.104-21.01c1.209-1.139,2.687-2.281,3.271-3.732
			c1.185-2.941,3.047-6.33,2.504-9.121c-1.891-9.711-0.963-18.282,5.526-26.291c3.927-4.847,3.439-9.636-1.153-13.898
			c-3.818-3.545-8.312-6.728-13.057-8.82c-6.729-2.969-11.57-6.771-12.979-14.429c-1.146-6.214-4.841-10.888-11.383-11.767
			c-8.67-1.167-13.655-6.936-18.572-13.156c-1.172-1.483-2.734-2.973-4.438-3.669C441.472,385.066,420.844,380.167,399.156,380.283z
			 M280.279,504.018c-1.555-7.81-1.514-18.028-5.685-26.059c-5.975-11.506-14.55-21.811-22.927-31.868
			c-5.801-6.966-14.267-8.9-22.789-5.165c-12.076,5.292-24.323,8.806-37.649,7.371c-1.116-0.12-2.292,0.35-3.443,0.532
			c-12.144,1.934-24.231,4.68-36.452,5.54c-9.784,0.688-16.908,3.974-22.879,11.805c-12.396,16.258-20.728,33.553-19.085,54.734
			c0.79,10.182,1.9,19.495,12.216,25.007c1.938,1.036,3.287,4.559,3.534,7.069c0.437,4.432-0.187,8.968-0.36,13.461
			c-0.317,8.219,2.958,11.631,11.268,11.51c2.65-0.038,5.292-0.529,7.944-0.727c8.063-0.604,12.143,4.91,16.28,10.501
			c6.01,8.123,13.914,11.143,23.712,7.953c6.583-2.144,13.098-1.866,19.69-0.227c4.2,1.044,8.414,2.044,12.647,2.944
			c8.692,1.848,16.506,0.095,21.942-7.207c11.421-15.342,22.674-30.819,33.513-46.575c2.922-4.248,4.95-9.532,5.899-14.619
			C279.144,522.029,279.364,513.822,280.279,504.018z M165.471,407.697c8.886-1.521,18.061-1.948,26.447-4.741
			c24.796-8.256,42.647-25.905,58.439-45.858c4.949-6.252,5.374-13.529,1.145-20.122c-5.195-8.097-6.038-16.443-5.073-25.753
			c1.095-10.563-1.188-20.468-9.18-28.475c-7.314-7.328-15.853-12.004-26.043-13.737c-3.854-0.655-7.284-1.519-8.358-6.367
			c-0.417-1.885-2.805-3.646-4.69-4.843c-12.235-7.769-24.688-8.547-37.854-1.78c-8.534,4.388-17.602,7.756-26.512,11.382
			c-5.091,2.072-9.196,4.93-9.882,10.786c-0.611,5.227-3.683,8.585-7.402,11.918c-3.68,3.296-8.406,6.742-9.79,11.047
			c-4.559,14.191-7.997,28.757-11.436,43.28c-0.87,3.675,9.489,31.599,12.321,34.176c7.855,7.15,15.869,14.14,24.072,20.887
			c2.232,1.836,5.24,3.147,8.09,3.733C148.191,404.965,156.716,406.214,165.471,407.697z M381.534,199.721
			c-2.374,0-5.809-0.521-8.989,0.154c-2.887,0.614-6.491,1.814-8.066,3.993c-10.203,14.12-16.358,29.115-13.348,47.52
			c2.743,16.768,7.248,31.496,21.897,41.916c12.738,9.06,25.11,18.685,35.217,30.891c3.751,4.531,9.236,6.557,15.127,6.747
			c17.103,0.552,33.932-1.587,50.433-5.983c8.115-2.163,10.572-6.029,9.552-14.414c-0.694-5.704,0.212-10.882,3.064-15.85
			c3.4-5.919,6.661-11.919,9.916-17.92c5.557-10.246,5.477-19.633-2.768-28.936c-3.554-4.009-6.004-9.589-7.331-14.864
			c-3.865-15.367-12.904-26.843-25.162-36.167c-1.651-1.255-3.88-1.936-5.95-2.417c-5.027-1.166-10.092-2.217-15.188-3.025
			c-9.734-1.542-19.723-3.53-28.758,2.065C402.243,198.966,392.727,200.753,381.534,199.721z"/>
		<path fill-rule="evenodd" clip-rule="evenodd" fill="#F8418E" d="M399.156,380.283c21.688-0.116,42.315,4.783,62.253,12.925
			c1.704,0.696,3.267,2.186,4.438,3.669c4.917,6.221,9.902,11.989,18.572,13.156c6.542,0.879,10.237,5.553,11.383,11.767
			c1.409,7.657,6.251,11.46,12.979,14.429c4.745,2.093,9.238,5.275,13.057,8.82c4.593,4.263,5.08,9.052,1.153,13.898
			c-6.489,8.009-7.417,16.58-5.526,26.291c0.543,2.791-1.319,6.18-2.504,9.121c-0.585,1.451-2.063,2.594-3.271,3.732
			c-6.106,5.755-8.639,12.206-7.104,21.01c2.015,11.573-1.967,18.153-12.507,23.542c-8.063,4.121-16.438,7.449-25.855,5.824
			c-4.365-0.753-7.053,1.463-8.621,5.179c-6.024,14.262-17.293,22.333-31.844,25.461c-11.346,2.438-22.998,3.56-34.561,4.85
			c-9.665,1.078-17.971-2.375-25.137-8.863c-5.309-4.806-10.573-9.689-16.186-14.122c-11.262-8.894-14.47-21.374-16.622-34.645
			c-1.54-9.493-3.702-18.912-6.098-28.231c-1.936-7.527-0.99-14.411,2.268-21.321c3.187-6.755,6.821-13.483,8.647-20.636
			c1.324-5.186,1.094-11.346-0.363-16.531c-2.261-8.048-1.085-14.505,4.096-20.925c3.404-4.22,6.143-9.049,8.715-13.854
			c7.782-14.536,20.769-20.986,36.192-23.625C390.793,380.506,395.004,380.569,399.156,380.283z M400.841,386.976
			c-3.631,0-6.832-0.306-9.958,0.052c-15.875,1.818-29.187,7.496-35.917,23.542c-1.642,3.911-4.201,7.665-7.11,10.766
			c-4.905,5.229-5.634,10.557-3.792,17.405c1.411,5.246,2.044,11.376,0.727,16.524c-2.075,8.112-5.906,15.809-9.325,23.534
			c-2.415,5.457-3.878,10.774-2.461,16.843c2.826,12.103,5.525,24.246,7.804,36.461c1.669,8.95,4.767,16.937,11.771,23.048
			c5.514,4.811,11.168,9.47,16.503,14.469c6.178,5.789,13.433,8.923,21.749,8.265c10.079-0.798,20.184-1.975,30.104-3.88
			c13.653-2.623,24.947-8.982,30.714-22.656c2.854-6.768,8.03-10.12,15.464-9.12c6.916,0.932,13.186-1.04,19.34-3.73
			c9.949-4.35,12.209-7.988,11.826-18.821c-0.07-1.998,0.136-4.078-0.35-5.976c-1.346-5.262,0.817-9.46,3.717-13.431
			c1.66-2.274,3.397-4.61,5.538-6.394c3.992-3.326,4.547-7.184,3.578-12.049c-1.537-7.715-0.826-15.063,4.068-21.866
			c5.781-8.037,4.74-11.334-4.035-16.192c-1.164-0.646-2.342-1.339-3.601-1.729c-9.749-3.021-15.788-9.167-17.903-19.442
			c-0.5-2.433-3.386-5.939-5.514-6.203c-9.693-1.202-15.663-7.471-21.734-13.967c-1.656-1.771-3.589-3.646-5.775-4.502
			C438.317,390.906,419.861,386.23,400.841,386.976z"/>
		<path fill-rule="evenodd" clip-rule="evenodd" fill="#F8418E" d="M280.279,504.018c-0.915,9.805-1.136,18.012-2.623,25.981
			c-0.949,5.087-2.977,10.371-5.899,14.619c-10.838,15.756-22.091,31.233-33.513,46.575c-5.436,7.302-13.25,9.055-21.942,7.207
			c-4.233-0.9-8.447-1.9-12.647-2.944c-6.592-1.64-13.107-1.917-19.69,0.227c-9.799,3.189-17.703,0.17-23.712-7.953
			c-4.137-5.591-8.216-11.104-16.28-10.501c-2.652,0.197-5.293,0.688-7.944,0.727c-8.31,0.121-11.585-3.291-11.268-11.51
			c0.173-4.493,0.797-9.029,0.36-13.461c-0.247-2.511-1.596-6.033-3.534-7.069c-10.315-5.512-11.426-14.825-12.216-25.007
			c-1.643-21.182,6.688-38.477,19.085-54.734c5.971-7.831,13.095-11.116,22.879-11.805c12.22-0.86,24.308-3.606,36.452-5.54
			c1.151-0.183,2.327-0.652,3.443-0.532c13.326,1.435,25.573-2.079,37.649-7.371c8.522-3.735,16.988-1.801,22.789,5.165
			c8.377,10.058,16.952,20.362,22.927,31.868C278.766,485.989,278.724,496.208,280.279,504.018z M273.074,509.899
			c0.482-0.078,0.965-0.156,1.448-0.233c-1.956-10.201-2.144-21.213-6.344-30.388c-4.599-10.046-12.803-18.471-19.624-27.461
			c-5.386-7.099-12.475-7.163-20.239-4.519c-7.815,2.663-15.611,5.654-23.662,7.27c-6.717,1.349-13.847,0.493-20.696,1.373
			c-10.198,1.313-20.29,4.478-30.465,4.654c-9.994,0.173-17.03,3.149-21.675,11.915c-0.925,1.746-2.23,3.312-3.484,4.859
			c-11.708,14.468-13.56,31.386-12.223,49.087c0.436,5.772,2.526,10.424,8.046,13.391c5.639,3.03,8.021,8.248,7.699,14.612
			c-0.193,3.814-0.693,7.614-0.831,11.43c-0.193,5.309,1.444,6.843,6.462,5.943c10.963-1.963,19.981,0.36,26.316,10.424
			c4.869,7.732,11.863,9.54,20.82,7.224c5.119-1.323,10.847-0.938,16.221-0.446c5.423,0.495,10.817,1.815,16.098,3.241
			c6.914,1.867,12.682,0.282,16.907-5.335c9.189-12.219,17.737-24.934,27.233-36.901
			C270.55,538.108,273.609,524.639,273.074,509.899z"/>
		<path fill-rule="evenodd" clip-rule="evenodd" fill="#F8418E" d="M165.471,407.697c-8.755-1.483-17.28-2.732-25.705-4.465
			c-2.851-0.586-5.858-1.897-8.09-3.733c-8.203-6.748-16.216-13.737-24.072-20.887c-2.832-2.577-13.191-30.501-12.321-34.176
			c3.439-14.523,6.877-29.089,11.436-43.28c1.384-4.306,6.109-7.751,9.79-11.047c3.719-3.333,6.792-6.691,7.402-11.918
			c0.686-5.855,4.791-8.714,9.882-10.786c8.91-3.626,17.978-6.995,26.512-11.382c13.166-6.767,25.619-5.989,37.854,1.78
			c1.885,1.196,4.272,2.958,4.69,4.843c1.074,4.848,4.503,5.711,8.358,6.367c10.19,1.733,18.729,6.41,26.043,13.737
			c7.993,8.007,10.275,17.912,9.18,28.475c-0.965,9.31-0.122,17.656,5.073,25.753c4.229,6.592,3.804,13.869-1.145,20.122
			c-15.792,19.953-33.644,37.602-58.439,45.858C183.531,405.749,174.357,406.177,165.471,407.697z M166.002,400.583
			c0.103,0.319,0.206,0.64,0.309,0.959c9.05-1.859,18.449-2.732,27.08-5.779c19.427-6.858,33.271-21.467,47.115-35.992
			c7.581-7.953,8.876-15.76,2.628-25.038c-3.966-5.891-4.27-12.574-3.405-19.668c1.486-12.187-0.175-23.342-11.185-31.654
			c-6.835-5.161-14.455-7.323-22.372-9.177c-4.213-0.986-7.298-2.692-8.604-7.217c-0.497-1.722-2.107-3.537-3.702-4.461
			c-9.162-5.314-18.578-6.533-28.584-1.861c-9.914,4.629-20.142,8.581-30.084,13.149c-2.007,0.922-4.597,3.146-4.79,4.992
			c-0.75,7.166-4.985,11.767-10.001,16.087c-5.116,4.406-9.488,9.317-11.112,16.174c-2.108,8.895-4.194,17.801-6.593,26.619
			c-1.631,5.995-0.823,11.402,2.099,16.806c1.639,3.031,3.431,6.363,3.688,9.674c0.513,6.588,3.837,11.239,8.472,15.258
			c4.889,4.24,9.579,8.901,15.059,12.215c5.406,3.267,11.526,5.704,17.646,7.333C154.881,400.393,160.54,400.119,166.002,400.583z"
			/>
		<path fill-rule="evenodd" clip-rule="evenodd" fill="#F8418E" d="M381.534,199.721c11.192,1.032,20.709-0.754,29.646-6.289
			c9.035-5.595,19.023-3.607,28.758-2.065c5.096,0.808,10.16,1.859,15.188,3.025c2.07,0.481,4.299,1.162,5.95,2.417
			c12.258,9.324,21.297,20.8,25.162,36.167c1.327,5.275,3.777,10.855,7.331,14.864c8.244,9.303,8.324,18.69,2.768,28.936
			c-3.255,6.001-6.516,12-9.916,17.92c-2.853,4.968-3.759,10.146-3.064,15.85c1.021,8.385-1.437,12.251-9.552,14.414
			c-16.501,4.396-33.33,6.535-50.433,5.983c-5.891-0.189-11.376-2.215-15.127-6.747c-10.106-12.206-22.479-21.832-35.217-30.891
			c-14.649-10.419-19.154-25.148-21.897-41.916c-3.011-18.405,3.145-33.399,13.348-47.52c1.575-2.179,5.18-3.379,8.066-3.993
			C375.726,199.199,379.16,199.721,381.534,199.721z M385.38,205.878c-4.585,0-8.091-0.131-11.579,0.066
			c-1.353,0.076-3.32,0.502-3.887,1.443c-3.853,6.397-7.69,12.835-10.981,19.532c-3.902,7.94-1.414,16.364-0.902,24.591
			c0.975,15.736,6.746,28.545,20.247,38.085c11.752,8.302,23.513,16.898,32.492,28.565c3.508,4.557,8.667,7.352,14.391,6.791
			c15.17-1.488,30.326-3.284,45.387-5.618c6.424-0.996,6.784-3.236,6.575-9.549c-0.158-4.801,0.326-10.013,2.107-14.4
			c2.859-7.044,6.91-13.623,10.672-20.279c4.672-8.265,5.897-16.034-1.58-23.56c-4.779-4.811-6.988-10.907-8.893-17.498
			c-2.08-7.202-5.32-14.533-9.851-20.428c-4.17-5.425-10.295-9.793-16.371-13.157c-4.298-2.377-9.914-2.623-15.011-3.25
			c-8.346-1.029-16.828-3.175-24.787,1.942C404.542,204.854,394.775,207.01,385.38,205.878z"/>
		<path fill-rule="evenodd" clip-rule="evenodd" fill="#ECB0D3" d="M400.841,386.976c19.021-0.746,37.477,3.93,55.428,10.95
			c2.187,0.855,4.119,2.731,5.775,4.502c6.071,6.496,12.041,12.765,21.734,13.967c2.128,0.264,5.014,3.771,5.514,6.203
			c2.115,10.275,8.154,16.422,17.903,19.442c1.259,0.39,2.437,1.083,3.601,1.729c8.775,4.858,9.816,8.155,4.035,16.192
			c-4.895,6.804-5.605,14.151-4.068,21.866c0.969,4.865,0.414,8.723-3.578,12.049c-2.141,1.783-3.878,4.119-5.538,6.394
			c-2.899,3.971-5.063,8.169-3.717,13.431c0.485,1.897,0.279,3.978,0.35,5.976c0.383,10.833-1.877,14.472-11.826,18.821
			c-6.154,2.69-12.424,4.662-19.34,3.73c-7.434-1-12.61,2.353-15.464,9.12c-5.767,13.674-17.061,20.033-30.714,22.656
			c-9.921,1.905-20.025,3.082-30.104,3.88c-8.316,0.658-15.571-2.476-21.749-8.265c-5.335-4.999-10.989-9.658-16.503-14.469
			c-7.005-6.111-10.103-14.098-11.771-23.048c-2.278-12.215-4.978-24.358-7.804-36.461c-1.417-6.068,0.046-11.386,2.461-16.843
			c3.419-7.726,7.25-15.422,9.325-23.534c1.317-5.148,0.685-11.278-0.727-16.524c-1.842-6.849-1.113-12.177,3.792-17.405
			c2.909-3.101,5.469-6.854,7.11-10.766c6.73-16.046,20.042-21.724,35.917-23.542C394.009,386.67,397.21,386.976,400.841,386.976z"
			/>
		<path fill-rule="evenodd" clip-rule="evenodd" fill="#ECB0D3" d="M273.074,509.899c0.535,14.739-2.524,28.209-11.992,40.14
			c-9.496,11.968-18.044,24.683-27.233,36.901c-4.225,5.617-9.993,7.202-16.907,5.335c-5.281-1.426-10.674-2.746-16.098-3.241
			c-5.374-0.491-11.103-0.877-16.221,0.446c-8.958,2.316-15.952,0.509-20.82-7.224c-6.335-10.063-15.354-12.387-26.316-10.424
			c-5.019,0.899-6.655-0.635-6.462-5.943c0.138-3.815,0.638-7.615,0.831-11.43c0.323-6.364-2.06-11.582-7.699-14.612
			c-5.52-2.967-7.61-7.618-8.046-13.391c-1.337-17.701,0.515-34.619,12.223-49.087c1.254-1.548,2.559-3.113,3.484-4.859
			c4.645-8.766,11.681-11.742,21.675-11.915c10.175-0.177,20.267-3.342,30.465-4.654c6.849-0.88,13.979-0.024,20.696-1.373
			c8.051-1.615,15.847-4.606,23.662-7.27c7.765-2.645,14.853-2.58,20.239,4.519c6.821,8.99,15.025,17.415,19.624,27.461
			c4.2,9.175,4.388,20.187,6.344,30.388C274.04,509.743,273.557,509.821,273.074,509.899z"/>
		<path fill-rule="evenodd" clip-rule="evenodd" fill="#ECB0D3" d="M166.002,400.583c-5.462-0.464-11.121-0.19-16.336-1.581
			c-6.119-1.63-12.239-4.066-17.646-7.333c-5.48-3.313-10.17-7.975-15.059-12.215c-4.634-4.02-7.958-8.67-8.472-15.258
			c-0.257-3.311-2.049-6.643-3.688-9.674c-2.922-5.404-3.73-10.811-2.099-16.806c2.399-8.818,4.485-17.725,6.593-26.619
			c1.625-6.856,5.997-11.768,11.112-16.174c5.016-4.32,9.251-8.921,10.001-16.087c0.193-1.846,2.783-4.07,4.79-4.992
			c9.943-4.568,20.171-8.521,30.084-13.149c10.007-4.672,19.422-3.453,28.584,1.861c1.595,0.924,3.205,2.739,3.702,4.461
			c1.305,4.525,4.391,6.231,8.604,7.217c7.917,1.854,15.537,4.017,22.372,9.177c11.009,8.312,12.671,19.467,11.185,31.654
			c-0.865,7.095-0.562,13.778,3.405,19.668c6.248,9.278,4.953,17.085-2.628,25.038c-13.845,14.525-27.688,29.134-47.115,35.992
			c-8.631,3.046-18.03,3.919-27.08,5.779C166.208,401.223,166.105,400.902,166.002,400.583z"/>
		<path fill-rule="evenodd" clip-rule="evenodd" fill="#ECB0D3" d="M385.38,205.878c9.396,1.132,19.162-1.024,28.029-6.723
			c7.959-5.117,16.441-2.971,24.787-1.942c5.097,0.627,10.713,0.872,15.011,3.25c6.076,3.364,12.201,7.732,16.371,13.157
			c4.53,5.895,7.771,13.226,9.851,20.428c1.904,6.591,4.113,12.688,8.893,17.498c7.478,7.526,6.252,15.295,1.58,23.56
			c-3.762,6.656-7.813,13.234-10.672,20.279c-1.781,4.387-2.266,9.599-2.107,14.4c0.209,6.313-0.151,8.553-6.575,9.549
			c-15.061,2.333-30.217,4.13-45.387,5.618c-5.724,0.562-10.883-2.234-14.391-6.791c-8.979-11.667-20.74-20.263-32.492-28.565
			c-13.501-9.54-19.272-22.349-20.247-38.085c-0.512-8.227-3-16.65,0.902-24.591c3.291-6.697,7.129-13.135,10.981-19.532
			c0.566-0.941,2.534-1.367,3.887-1.443C377.289,205.747,380.795,205.878,385.38,205.878z"/>
	</g>
</g>
</svg>
