<?xml version="1.0" encoding="utf-8"?>
<!-- Generator: Adobe Illustrator 16.0.3, SVG Export Plug-In . SVG Version: 6.00 Build 0)  -->
<!DOCTYPE svg PUBLIC "-//W3C//DTD SVG 1.1//EN" "http://www.w3.org/Graphics/SVG/1.1/DTD/svg11.dtd">
<svg version="1.1" id="Capa_1" xmlns="http://www.w3.org/2000/svg" xmlns:xlink="http://www.w3.org/1999/xlink" x="0px" y="0px"
	 width="612px" height="792px" viewBox="0 0 612 792" enable-background="new 0 0 612 792" xml:space="preserve">
<g>
	<g>
		<path fill-rule="evenodd" clip-rule="evenodd" fill="#FEFEFE" d="M564.116,654.089c-170.979,0-341.957,0-513.026,0
			c0-170.909,0-341.847,0-512.937c170.949,0,341.988,0,513.026,0C564.116,312.067,564.116,483.064,564.116,654.089z
			 M356.561,508.789c-1.041,15.709,0.387,28.03,9.678,38.236c4.141,4.549,7.945,9.407,11.815,14.194
			c4.585,5.671,10.254,9.795,17.584,10.395c8.773,0.717,17.626,1.138,26.414,0.834c15.643-0.54,28.865-5.858,37.164-20.352
			c0.923-1.612,4.812-2.816,6.822-2.289c8.059,2.113,15.448,0.232,22.951-2.276c9.309-3.114,14.018-9.719,13.562-19.211
			c-0.392-8.143,2.881-13.677,9.227-18.052c4.438-3.061,6.695-7.103,6.077-12.761c-0.693-6.345,0.732-12.073,5.26-17.066
			c7.27-8.019,7.026-12.157-0.594-19.989c-1.606-1.649-3.406-3.316-5.443-4.302c-6.479-3.132-9.868-7.951-10.145-15.271
			c-0.198-5.243-2.976-9.463-8.081-10.956c-7.161-2.094-10.648-7.481-13.997-13.368c-1.002-1.76-2.53-3.484-4.239-4.539
			c-18.634-11.493-38.871-18.532-60.785-19.02c-14.477-0.322-26.971,4.887-35.051,18.102c-2.13,3.483-5.128,6.529-8.106,9.38
			c-4.64,4.442-7.684,9.602-6.158,15.996c2.4,10.055-1.417,18.283-6.467,26.333c-2.211,3.522-5.347,6.694-6.637,10.507
			c-1.703,5.041-2.768,10.56-2.729,15.862C354.737,496.609,356.062,504.033,356.561,508.789z M215.396,580.052
			c2.681,0,4.351-0.074,6.012,0.012c10.079,0.522,17.431-3.534,21.527-12.906c5.793-13.256,11.729-26.457,17.144-39.867
			c2.275-5.636,4.477-11.688,4.797-17.651c0.826-15.381-3.388-30.017-9.134-44.142c-1.342-3.299-3.642-6.449-6.193-8.966
			c-5.919-5.84-11.997-11.581-18.486-16.765c-12.983-10.373-20.982-10.537-34.088-0.508c-5.997,4.589-12.279,7.652-19.734,8.863
			c-4.213,0.684-8.305,2.322-12.347,3.813c-11.21,4.138-22.536,8.039-33.46,12.844c-4.301,1.893-8.961,5.182-11.227,9.119
			c-11.756,20.425-15.436,41.96-6.576,64.662c2.019,5.172,4.55,9.91,10.228,11.444c6.571,1.775,8.986,6.223,9.468,12.433
			c0.154,1.985,0.565,3.95,0.887,5.92c1.474,9.007,5.823,12.204,14.293,8.923c8.693-3.369,15.427-2.278,22.197,4.289
			c6.055,5.873,13.732,7.694,21.604,3.243C199.891,580.523,207.932,579.381,215.396,580.052z M99.398,333.201
			c-0.066,0-0.133,0-0.2,0c0,1.165,0.127,2.347-0.02,3.493c-1.183,9.234,0.404,17.547,7.494,24.266
			c1.146,1.085,1.912,2.77,2.393,4.32c1.885,6.083,5.778,10.407,11.256,13.42c6.119,3.365,12.137,6.95,18.439,9.931
			c3.397,1.606,7.261,2.871,10.975,3.051c16.43,0.801,32.378-1.915,46.642-10.301c20.089-11.812,32.709-30.366,42.941-50.69
			c3.278-6.511,2.042-12.845-3.09-17.917c-5.826-5.757-7.864-12.669-8.641-20.597c-1.183-12.061-6.846-21.727-18.534-26.331
			c-5.916-2.331-12.375-3.556-18.706-4.463c-4.261-0.61-8.589,0.297-10.882-4.865c-0.591-1.33-2.931-2.083-4.615-2.697
			c-11.819-4.309-22.693-3.094-32.902,4.862c-7.18,5.595-14.96,10.427-22.544,15.493c-3.975,2.656-6.211,5.887-6.704,10.958
			c-0.377,3.887-1.78,8.293-4.214,11.241c-6.548,7.928-8.982,16.905-9.082,26.834C99.37,326.54,99.398,329.87,99.398,333.201z
			 M490.935,240.696c0.571-0.154,1.141-0.31,1.71-0.464c-0.894-5.059-1.2-10.314-2.812-15.133
			c-2.863-8.565-6.575-17.329-14.367-22.241c-7.37-4.646-15.794-7.985-24.169-10.534c-4.982-1.516-10.964-1.331-16.143-0.238
			c-7.253,1.531-14.144,1.579-21.174-0.412c-3.844-1.088-7.657-2.516-11.582-3.001c-2.404-0.297-5.599,0.134-7.403,1.553
			c-13.153,10.347-21.007,23.374-21.888,40.748c-0.63,12.415,0.4,23.556,8.346,33.866c8.803,11.423,16.422,23.753,24.914,35.429
			c2.355,3.24,5.53,6.736,9.099,8.096c15.756,6.005,32.354,7.35,49.081,6.938c4.704-0.117,7.938-3.052,8.426-7.762
			c0.788-7.601,4.471-13.404,9.834-18.496c2.893-2.747,5.558-5.736,8.285-8.653c8.445-9.028,9.093-13.889,4.299-25.236
			C493.438,250.533,492.394,245.527,490.935,240.696z"/>
		<path fill-rule="evenodd" clip-rule="evenodd" fill="#F9569C" d="M356.561,508.789c-0.499-4.756-1.823-12.18-1.878-19.613
			c-0.039-5.303,1.025-10.821,2.729-15.862c1.29-3.813,4.426-6.984,6.637-10.507c5.05-8.05,8.867-16.278,6.467-26.333
			c-1.525-6.395,1.519-11.554,6.158-15.996c2.979-2.851,5.977-5.896,8.106-9.38c8.08-13.215,20.574-18.423,35.051-18.102
			c21.914,0.487,42.151,7.526,60.785,19.02c1.709,1.055,3.237,2.779,4.239,4.539c3.349,5.887,6.836,11.274,13.997,13.368
			c5.105,1.493,7.883,5.713,8.081,10.956c0.276,7.32,3.665,12.14,10.145,15.271c2.037,0.985,3.837,2.652,5.443,4.302
			c7.62,7.832,7.863,11.971,0.594,19.989c-4.527,4.993-5.953,10.722-5.26,17.066c0.618,5.658-1.639,9.7-6.077,12.761
			c-6.346,4.375-9.618,9.909-9.227,18.052c0.456,9.492-4.253,16.097-13.562,19.211c-7.503,2.509-14.893,4.39-22.951,2.276
			c-2.011-0.527-5.899,0.677-6.822,2.289c-8.299,14.493-21.521,19.812-37.164,20.352c-8.788,0.304-17.641-0.117-26.414-0.834
			c-7.33-0.6-12.999-4.724-17.584-10.395c-3.87-4.787-7.675-9.646-11.815-14.194C356.947,536.819,355.52,524.498,356.561,508.789z
			 M362.493,511.182c-2.229,14.423,1.225,26.021,10.9,35.732c3.499,3.511,6.285,7.723,9.492,11.534
			c3.809,4.525,8.687,7.268,14.605,7.691c6.786,0.486,13.604,1.054,20.394,0.894c15.005-0.354,28.604-3.55,36.787-18.282
			c2.397-4.314,7.098-6.456,12.53-4.725c7.642,2.435,14.705,0.392,21.724-2.633c5.602-2.412,8.63-6.829,8.051-12.537
			c-1.086-10.702,4.19-17.6,11.911-23.696c1.601-1.264,3.244-3.843,3.117-5.694c-0.681-9.918,2.081-18.317,9.136-25.42
			c0.995-1.003,1.618-3.712,0.979-4.74c-1.709-2.75-3.732-5.955-6.46-7.302c-8.876-4.384-13.833-10.863-14.57-20.89
			c-0.155-2.106-2.385-5.255-4.287-5.825c-7.729-2.317-11.688-8.31-16.055-14.231c-1.979-2.683-4.591-5.242-7.477-6.856
			c-16.316-9.134-33.72-14.889-52.576-15.367c-12.616-0.321-23.393,3.319-30.748,14.527c-2.711,4.129-5.938,8.054-9.529,11.434
			c-3.988,3.755-5.451,8.015-4.15,13.036c1.694,6.551,0.38,12.613-2.449,18.377c-2.26,4.605-5.005,8.997-7.815,13.3
			c-3.78,5.786-7.163,11.472-6.024,18.937C361.178,496.299,361.75,504.249,362.493,511.182z"/>
		<path fill-rule="evenodd" clip-rule="evenodd" fill="#F9579C" d="M215.396,580.052c-7.464-0.671-15.505,0.472-23.089,4.761
			c-7.872,4.451-15.549,2.63-21.604-3.243c-6.771-6.567-13.504-7.658-22.197-4.289c-8.47,3.281-12.819,0.084-14.293-8.923
			c-0.322-1.97-0.733-3.935-0.887-5.92c-0.482-6.21-2.897-10.657-9.468-12.433c-5.678-1.534-8.209-6.272-10.228-11.444
			c-8.859-22.702-5.18-44.237,6.576-64.662c2.266-3.938,6.926-7.227,11.227-9.119c10.924-4.805,22.25-8.706,33.46-12.844
			c4.042-1.491,8.133-3.13,12.347-3.813c7.456-1.211,13.738-4.274,19.734-8.863c13.105-10.029,21.104-9.865,34.088,0.508
			c6.49,5.184,12.567,10.925,18.486,16.765c2.551,2.517,4.851,5.667,6.193,8.966c5.746,14.125,9.96,28.761,9.134,44.142
			c-0.32,5.964-2.521,12.016-4.797,17.651c-5.415,13.41-11.35,26.611-17.144,39.867c-4.096,9.372-11.449,13.429-21.527,12.906
			C219.747,579.978,218.077,580.052,215.396,580.052z M213.69,574.209c2.902,0,4.419-0.15,5.897,0.024
			c9.613,1.139,15.856-2.944,19.494-11.847c5.845-14.304,12.75-28.225,17.767-42.805c6.322-18.369,0.365-36.142-7.456-52.424
			c-6.094-12.686-18.127-21.082-30.416-27.905c-2.915-1.62-7.765-0.802-11.372,0.186c-3.214,0.88-6.301,3.157-8.81,5.499
			c-5.771,5.385-12.849,7.329-20.22,8.888c-3.226,0.682-6.464,1.487-9.541,2.652c-11.483,4.347-22.79,9.189-34.398,13.16
			c-4.647,1.59-8.184,3.897-10.043,8.147c-3.127,7.146-6.466,14.325-8.44,21.827c-3.562,13.53-0.724,26.766,4.429,39.413
			c1.029,2.525,4.1,4.982,6.774,5.926c6.776,2.392,10.292,6.946,11.465,13.729c0.367,2.125,0.709,4.254,1.026,6.388
			c1.215,8.173,1.642,8.521,9.436,5.938c8.091-2.681,15.625-3.019,22.126,3.766c1.583,1.651,3.749,2.738,5.609,4.134
			c4.035,3.028,8.398,3.282,12.649,0.89C197.616,575.322,206.018,573.336,213.69,574.209z"/>
		<path fill-rule="evenodd" clip-rule="evenodd" fill="#F9579C" d="M99.398,333.201c0-3.331-0.028-6.662,0.005-9.993
			c0.1-9.929,2.533-18.906,9.082-26.834c2.434-2.948,3.836-7.354,4.214-11.241c0.493-5.07,2.729-8.301,6.704-10.958
			c7.584-5.065,15.364-9.897,22.544-15.493c10.209-7.957,21.083-9.171,32.902-4.862c1.684,0.614,4.024,1.367,4.615,2.697
			c2.293,5.162,6.622,4.255,10.882,4.865c6.331,0.907,12.79,2.132,18.706,4.463c11.688,4.604,17.351,14.27,18.534,26.331
			c0.777,7.928,2.815,14.84,8.641,20.597c5.132,5.073,6.368,11.406,3.09,17.917c-10.232,20.324-22.852,38.878-42.941,50.69
			c-14.264,8.387-30.212,11.102-46.642,10.301c-3.713-0.181-7.578-1.445-10.975-3.051c-6.302-2.981-12.32-6.566-18.439-9.931
			c-5.479-3.013-9.371-7.336-11.256-13.42c-0.48-1.55-1.247-3.235-2.393-4.32c-7.09-6.718-8.677-15.032-7.494-24.266
			c0.147-1.146,0.02-2.328,0.02-3.493C99.265,333.201,99.332,333.201,99.398,333.201z M105.027,333.683
			c-0.146,13.139-1.56,14.992,6.821,24.091c1.307,1.419,2.313,3.354,2.822,5.225c1.364,5.019,4.483,8.47,8.882,10.896
			c2.756,1.521,5.857,2.518,8.383,4.336c10.528,7.577,22.011,9.443,34.598,6.962c11.325-2.232,22.307-4.954,31.974-11.799
			c14.961-10.594,24.703-25.445,33.688-40.835c4.856-8.319,4.019-11.509-2.659-18.66c-4.634-4.962-6.847-10.785-7.453-17.503
			c-1.416-15.696-7.164-23.568-21.848-28.06c-4.646-1.422-9.856-1.212-14.818-1.333c-4.001-0.098-6.87-1.434-9.304-4.73
			c-1.334-1.807-3.702-3.229-5.893-3.96c-9.765-3.253-18.141-0.164-26.036,5.826c-6.844,5.192-14.227,9.674-21.075,14.861
			c-1.947,1.474-3.977,4.287-4.031,6.533c-0.143,5.913-2.906,10.248-5.948,14.956c-3.064,4.742-5.82,10.112-6.945,15.572
			C104.793,322.82,105.22,329.954,105.027,333.683z"/>
		<path fill-rule="evenodd" clip-rule="evenodd" fill="#F9569B" d="M490.935,240.696c1.459,4.831,2.503,9.837,4.456,14.459
			c4.794,11.347,4.146,16.208-4.299,25.236c-2.728,2.917-5.393,5.907-8.285,8.653c-5.363,5.091-9.046,10.895-9.834,18.496
			c-0.488,4.71-3.722,7.645-8.426,7.762c-16.728,0.411-33.325-0.933-49.081-6.938c-3.568-1.359-6.743-4.855-9.099-8.096
			c-8.492-11.675-16.111-24.005-24.914-35.429c-7.945-10.31-8.976-21.451-8.346-33.866c0.881-17.374,8.734-30.4,21.888-40.748
			c1.805-1.419,4.999-1.85,7.403-1.553c3.925,0.485,7.738,1.914,11.582,3.001c7.03,1.991,13.921,1.943,21.174,0.412
			c5.179-1.093,11.16-1.277,16.143,0.238c8.375,2.549,16.799,5.888,24.169,10.534c7.792,4.912,11.504,13.675,14.367,22.241
			c1.611,4.819,1.918,10.074,2.812,15.133C492.075,240.386,491.506,240.542,490.935,240.696z M485.187,241.231
			c1.175-19.579-6.667-31.892-23.653-39.571c-9.249-4.182-18.284-7.047-28.808-3.885c-5.097,1.531-11.137,0.449-16.668-0.174
			c-4.076-0.459-7.98-2.292-12.043-3.111c-1.773-0.357-4.441-0.436-5.524,0.597c-8.13,7.752-17.424,14.841-18.239,27.5
			c-0.171,2.644-0.627,5.27-0.983,7.899c-1.581,11.725-0.534,22.585,7.452,32.375c9.01,11.044,18.335,21.903,24.61,35.024
			c1.524,3.188,6.127,6.187,9.759,6.854c12.858,2.36,25.913,3.639,38.884,5.395c5.419,0.732,7.104-2.271,8.31-6.946
			c1.082-4.196,2.804-8.505,5.318-11.987c3.382-4.682,7.766-8.647,11.773-12.87c8.407-8.859,8.76-11.753,4.01-23.04
			C487.498,250.809,486.558,245.929,485.187,241.231z"/>
		<path fill-rule="evenodd" clip-rule="evenodd" fill="#EEB8D8" d="M362.493,511.182c-0.743-6.933-1.315-14.883-2.515-22.737
			c-1.139-7.465,2.244-13.15,6.024-18.937c2.811-4.303,5.556-8.694,7.815-13.3c2.829-5.764,4.144-11.826,2.449-18.377
			c-1.301-5.021,0.162-9.281,4.15-13.036c3.592-3.38,6.818-7.305,9.529-11.434c7.355-11.208,18.132-14.849,30.748-14.527
			c18.856,0.479,36.26,6.233,52.576,15.367c2.886,1.614,5.498,4.174,7.477,6.856c4.366,5.922,8.325,11.914,16.055,14.231
			c1.902,0.57,4.132,3.719,4.287,5.825c0.737,10.026,5.694,16.506,14.57,20.89c2.728,1.347,4.751,4.552,6.46,7.302
			c0.639,1.028,0.016,3.737-0.979,4.74c-7.055,7.103-9.816,15.502-9.136,25.42c0.127,1.852-1.517,4.431-3.117,5.694
			c-7.721,6.097-12.997,12.994-11.911,23.696c0.579,5.708-2.449,10.125-8.051,12.537c-7.019,3.024-14.082,5.067-21.724,2.633
			c-5.433-1.731-10.133,0.41-12.53,4.725c-8.184,14.732-21.782,17.929-36.787,18.282c-6.789,0.16-13.607-0.407-20.394-0.894
			c-5.919-0.424-10.797-3.166-14.605-7.691c-3.207-3.812-5.993-8.023-9.492-11.534C363.718,537.203,360.265,525.604,362.493,511.182
			z"/>
		<path fill-rule="evenodd" clip-rule="evenodd" fill="#EEB8D8" d="M213.69,574.209c-7.673-0.873-16.074,1.113-24.022,5.585
			c-4.251,2.393-8.615,2.139-12.649-0.89c-1.861-1.396-4.026-2.482-5.609-4.134c-6.501-6.784-14.035-6.446-22.126-3.766
			c-7.794,2.583-8.221,2.235-9.436-5.938c-0.317-2.134-0.659-4.263-1.026-6.388c-1.173-6.782-4.689-11.337-11.465-13.729
			c-2.674-0.943-5.745-3.4-6.774-5.926c-5.153-12.647-7.991-25.883-4.429-39.413c1.975-7.502,5.313-14.681,8.44-21.827
			c1.859-4.25,5.396-6.558,10.043-8.147c11.608-3.971,22.915-8.813,34.398-13.16c3.076-1.165,6.315-1.971,9.541-2.652
			c7.372-1.559,14.449-3.503,20.22-8.888c2.509-2.342,5.596-4.619,8.81-5.499c3.607-0.987,8.457-1.806,11.372-0.186
			c12.289,6.823,24.321,15.22,30.416,27.905c7.821,16.282,13.778,34.055,7.456,52.424c-5.017,14.58-11.922,28.501-17.767,42.805
			c-3.638,8.902-9.881,12.985-19.494,11.847C218.109,574.059,216.592,574.209,213.69,574.209z"/>
		<path fill-rule="evenodd" clip-rule="evenodd" fill="#EEB8D8" d="M105.027,333.683c0.192-3.729-0.234-10.863,1.158-17.622
			c1.125-5.459,3.88-10.83,6.945-15.572c3.042-4.708,5.806-9.042,5.948-14.956c0.054-2.246,2.084-5.059,4.031-6.533
			c6.849-5.187,14.231-9.668,21.075-14.861c7.895-5.99,16.271-9.079,26.036-5.826c2.19,0.73,4.559,2.153,5.893,3.96
			c2.434,3.296,5.303,4.633,9.304,4.73c4.962,0.12,10.171-0.09,14.818,1.333c14.685,4.492,20.433,12.364,21.848,28.06
			c0.605,6.718,2.819,12.541,7.453,17.503c6.678,7.151,7.516,10.34,2.659,18.66c-8.984,15.39-18.727,30.241-33.688,40.835
			c-9.667,6.845-20.648,9.567-31.974,11.799c-12.587,2.481-24.07,0.614-34.598-6.962c-2.525-1.818-5.627-2.815-8.383-4.336
			c-4.399-2.426-7.519-5.877-8.882-10.896c-0.508-1.871-1.515-3.806-2.822-5.225C103.468,348.674,104.882,346.821,105.027,333.683z"
			/>
		<path fill-rule="evenodd" clip-rule="evenodd" fill="#EEB8D8" d="M485.187,241.231c1.371,4.698,2.312,9.578,4.197,14.06
			c4.75,11.287,4.397,14.181-4.01,23.04c-4.008,4.223-8.392,8.188-11.773,12.87c-2.515,3.482-4.236,7.791-5.318,11.987
			c-1.206,4.675-2.891,7.678-8.31,6.946c-12.971-1.755-26.025-3.035-38.884-5.395c-3.632-0.667-8.234-3.665-9.759-6.854
			c-6.275-13.121-15.601-23.98-24.61-35.024c-7.986-9.791-9.033-20.651-7.452-32.375c0.356-2.629,0.813-5.256,0.983-7.899
			c0.815-12.659,10.109-19.748,18.239-27.5c1.083-1.033,3.751-0.955,5.524-0.597c4.063,0.819,7.967,2.652,12.043,3.111
			c5.531,0.623,11.571,1.705,16.668,0.174c10.523-3.162,19.559-0.297,28.808,3.885C478.52,209.339,486.361,221.652,485.187,241.231z
			"/>
	</g>
</g>
</svg>
