<?xml version="1.0" encoding="utf-8"?>
<!-- Generator: Adobe Illustrator 16.0.3, SVG Export Plug-In . SVG Version: 6.00 Build 0)  -->
<!DOCTYPE svg PUBLIC "-//W3C//DTD SVG 1.1//EN" "http://www.w3.org/Graphics/SVG/1.1/DTD/svg11.dtd">
<svg version="1.1" id="Capa_1" xmlns="http://www.w3.org/2000/svg" xmlns:xlink="http://www.w3.org/1999/xlink" x="0px" y="0px"
	 width="612px" height="792px" viewBox="0 0 612 792" enable-background="new 0 0 612 792" xml:space="preserve">
<g>
	<g>
		<path fill-rule="evenodd" clip-rule="evenodd" fill="#FEFEFE" d="M563.966,654.116c-170.921,0-341.918,0-512.94,0
			c0-170.979,0-341.96,0-513.028c170.914,0,341.853,0,512.94,0C563.966,312.039,563.966,483.078,563.966,654.116z M474.816,558.52
			c0.051-0.238,0.101-0.477,0.15-0.715c1.499,0,3.02,0.169,4.492-0.027c10.943-1.461,17.487-4.409,19.066-15.991
			c0.897-6.584,4.683-10.479,10.247-13.7c2.882-1.669,6.315-4.902,6.736-7.827c1.143-7.928,4.118-14.182,10.654-18.877
			c3.459-2.485,4.024-6.298,2.202-9.845c-1.789-3.485-3.868-7.284-6.863-9.587c-5.041-3.871-7.034-8.243-6.789-14.53
			c0.115-2.971-1.055-7.39-3.192-8.793c-6.795-4.462-11.283-10.062-13.125-17.937c-0.194-0.829-1.24-1.526-2.004-2.148
			c-10.383-8.441-21.426-15.754-34.042-20.539c-12.013-4.557-24.855-9.62-36.638-2.891c-13.492,7.705-29.854,14.397-29.842,34.551
			c0.001,2.456-1.405,5.185-2.856,7.312c-2.604,3.817-5.624,7.37-8.675,10.855c-4.63,5.287-9.254,10.426-9.714,18.039
			c-0.468,7.76-1.013,15.547-2.176,23.225c-1.529,10.097-2.076,19.839,3.816,28.935c3.254,5.024,6.171,10.268,9.171,15.452
			c3.435,5.936,8.388,9.998,15.088,11.375c8.456,1.735,16.957,3.572,25.53,4.349c11.397,1.031,21.808-1.762,29.497-11.119
			c2.563-3.12,5.39-3.805,9.265-2.142C467.943,557.283,471.469,557.695,474.816,558.52z M235.487,520.531
			c-0.988-7.608-0.547-18.438-4.089-27.751c-4.114-10.819-11.275-20.617-17.94-30.287c-6.266-9.09-16.978-11.941-26.503-16.143
			c-14.67-6.469-21.207-4.227-29.424,9.422c-0.857,1.426-1.537,2.995-2.587,4.257c-1.468,1.763-3.105,3.42-4.851,4.908
			c-6.05,5.159-12.246,10.146-18.257,15.348c-5.389,4.664-10.886,9.261-15.789,14.408c-2.604,2.733-5.246,6.382-5.816,9.945
			c-3.397,21.22,0.826,40.782,14.9,57.485c2.505,2.973,6.392,6.278,9.896,6.595c6.986,0.629,10.949,3.775,13.423,9.835
			c0.625,1.53,1.504,2.971,2.375,4.385c3.934,6.387,7.667,7.279,13.33,2.2c5.706-5.115,11.051-6.011,18.061-2.423
			c7.654,3.918,12.591,2.621,18.212-3.87c4.213-4.865,9.301-7.927,15.3-9.819c2.535-0.802,5.058-1.676,7.508-2.703
			c5.659-2.374,9.257-6.578,9.82-12.743C233.979,543.491,234.563,533.37,235.487,520.531z M148.666,252.796
			c-0.155,0.446-0.311,0.892-0.466,1.337c-10.02-0.775-17.113,4.205-23.271,11.377c-5.184,6.037-10.634,11.848-16.048,17.683
			c-3.095,3.336-4.9,6.737-3.887,11.679c0.614,2.998,0.313,6.77-1.028,9.474c-4.08,8.225-4.61,16.537-2.544,25.271
			c1.302,5.506,2.476,11.043,3.644,16.58c1.12,5.313,3.827,9.403,8.413,12.473c2.438,1.631,4.25,4.165,6.544,6.048
			c3.02,2.479,5.917,5.624,9.438,6.869c6.86,2.428,14.094,3.838,21.224,5.449c2.398,0.542,5.03,0.906,7.417,0.511
			c15.112-2.5,28.847-8.404,40.147-18.783c15.317-14.068,22.436-32.745,27.38-52.334c1.658-6.573-0.457-12.197-6.656-15.776
			c-5.762-3.326-9.154-8.319-11.425-14.564c-3.118-8.573-8.273-15.424-17.624-18.423c-8.263-2.65-16.345-2.32-24.583-0.26
			c-1.66,0.415-3.653,0.585-5.221,0.06C156.218,256.158,152.474,254.383,148.666,252.796z M388.554,227.287
			c1.337,4.669,2.409,9.358,4.022,13.854c4.256,11.869,8.412,23.794,13.321,35.396c1.78,4.209,4.805,9.155,8.606,11.013
			c11.899,5.817,24.337,10.605,36.782,15.207c5.442,2.013,8.72,0.383,10.956-4.851c2.463-5.77,6.714-9.317,11.942-12.155
			c2.925-1.587,5.824-3.23,8.682-4.938c10.506-6.282,11.873-9.615,10.23-21.719c-0.494-3.639,0.242-7.466,0.58-11.193
			c0.479-5.27,1.765-10.552,1.549-15.781c-0.563-13.742-7.947-23.489-19.185-30.852c-5.584-3.66-10.811-8.228-17.873-8.079
			c-8.887,0.188-16.894-2.319-23.854-7.442c-6.668-4.909-12.216-4.234-19.568-0.644
			C396.837,193.851,393.133,210.374,388.554,227.287z"/>
		<path fill-rule="evenodd" clip-rule="evenodd" fill="#FA6CA8" d="M474.816,558.52c-3.348-0.824-6.873-1.236-10-2.576
			c-3.875-1.663-6.701-0.979-9.265,2.142c-7.689,9.357-18.1,12.15-29.497,11.119c-8.573-0.776-17.074-2.613-25.53-4.349
			c-6.7-1.377-11.653-5.439-15.088-11.375c-3-5.185-5.917-10.428-9.171-15.452c-5.893-9.096-5.346-18.838-3.816-28.935
			c1.163-7.678,1.708-15.465,2.176-23.225c0.46-7.613,5.084-12.752,9.714-18.039c3.051-3.485,6.07-7.038,8.675-10.855
			c1.451-2.127,2.857-4.855,2.856-7.312c-0.013-20.153,16.35-26.846,29.842-34.551c11.782-6.729,24.625-1.666,36.638,2.891
			c12.616,4.785,23.659,12.098,34.042,20.539c0.764,0.622,1.81,1.319,2.004,2.148c1.842,7.875,6.33,13.475,13.125,17.937
			c2.138,1.403,3.308,5.822,3.192,8.793c-0.245,6.287,1.748,10.659,6.789,14.53c2.995,2.303,5.074,6.102,6.863,9.587
			c1.822,3.547,1.257,7.359-2.202,9.845c-6.536,4.695-9.512,10.949-10.654,18.877c-0.421,2.925-3.854,6.158-6.736,7.827
			c-5.564,3.222-9.35,7.116-10.247,13.7c-1.579,11.582-8.123,14.53-19.066,15.991c-1.473,0.196-2.993,0.027-4.492,0.027
			C474.917,558.043,474.867,558.281,474.816,558.52z M511.354,469.857c-1.673-3.091-2.596-7.369-5.187-9.004
			c-4.347-2.743-7.335-6.003-9.429-10.512c-1.451-3.126-2.557-6.969-5.041-8.965c-15.218-12.223-31.847-21.774-51.799-23.617
			c-8.022-0.742-15.436,1.44-21.611,6.875c-3.842,3.38-7.332,7.193-11.375,10.298c-3.857,2.96-5.659,6.245-6.049,11.263
			c-0.385,4.93-1.848,10.143-4.243,14.449c-2.61,4.691-6.821,8.497-10.367,12.661c-3.132,3.679-6.048,7.252-6.384,12.562
			c-0.532,8.409-1.576,16.797-2.696,25.155c-1.362,10.175-0.825,19.786,5.836,28.342c2.326,2.987,4.102,6.449,5.82,9.85
			c2.61,5.168,6.396,8.896,12.04,10.366c4.964,1.294,9.981,2.42,15.023,3.371c14.365,2.711,27.819,2.156,38.288-10.232
			c3.024-3.578,7.291-3.056,11.577-1.83c3.771,1.079,7.868,2.455,11.6,1.976c12.039-1.55,14.962-3.001,16.55-13.417
			c1.045-6.857,4.555-11.574,10.703-14.585c4.14-2.025,6.416-5.02,6.858-10.058c0.501-5.702,3.287-10.723,8.128-14.344
			c5.678-4.247,5.914-6.7,1.295-12.155c-1.175-1.388-2.472-2.783-3.98-3.76C511.778,481.222,509.577,476.576,511.354,469.857z"/>
		<path fill-rule="evenodd" clip-rule="evenodd" fill="#FA6AA7" d="M235.487,520.531c-0.924,12.839-1.509,22.96-2.432,33.049
			c-0.563,6.165-4.162,10.369-9.82,12.743c-2.45,1.027-4.973,1.901-7.508,2.703c-5.999,1.893-11.086,4.954-15.3,9.819
			c-5.621,6.491-10.558,7.788-18.212,3.87c-7.009-3.588-12.355-2.692-18.061,2.423c-5.663,5.079-9.396,4.187-13.33-2.2
			c-0.872-1.414-1.751-2.854-2.375-4.385c-2.474-6.06-6.437-9.206-13.423-9.835c-3.504-0.316-7.392-3.622-9.896-6.595
			c-14.074-16.703-18.297-36.266-14.9-57.485c0.571-3.563,3.212-7.212,5.816-9.945c4.903-5.147,10.399-9.744,15.789-14.408
			c6.011-5.202,12.207-10.188,18.257-15.348c1.746-1.488,3.382-3.146,4.851-4.908c1.051-1.262,1.73-2.831,2.587-4.257
			c8.217-13.648,14.753-15.891,29.424-9.422c9.526,4.201,20.238,7.053,26.503,16.143c6.666,9.67,13.827,19.468,17.94,30.287
			C234.94,502.094,234.499,512.923,235.487,520.531z M114.825,518.199c-0.106,0.008-0.212,0.016-0.318,0.023
			c0.365,4.792,0.395,9.639,1.165,14.365c1.654,10.151,7.614,18.256,13.233,26.499c2.347,3.442,5.289,5.324,9.596,5.077
			c4.719-0.271,8.365,1.722,10.756,5.857c1.581,2.734,3.205,5.444,4.688,8.23c3.028,5.685,3.915,6.056,8.662,1.654
			c4.404-4.082,9.314-5.771,15.078-4.543c2.569,0.548,5.01,1.763,7.456,2.798c4.396,1.86,8.201,1.128,11.161-2.633
			c5.178-6.577,12.195-10.153,19.98-12.465c10.682-3.169,12.289-6.076,12.723-17.817c0.41-11.094-0.268-22.235,0.33-33.313
			c0.583-10.783-1.977-20.504-7.976-29.23c-5.243-7.626-9.863-16.46-16.977-21.808c-7.853-5.904-18.175-8.589-27.542-12.381
			c-3.768-1.525-7.325-0.183-9.824,2.984c-2.358,2.988-4.144,6.443-6.599,9.339c-3.069,3.618-6.41,7.046-9.922,10.238
			c-3.173,2.885-6.93,5.13-10.083,8.032c-5.994,5.515-11.228,12.002-17.747,16.756c-5.631,4.106-8.513,8.496-7.875,15.344
			C115.007,513.519,114.825,515.866,114.825,518.199z"/>
		<path fill-rule="evenodd" clip-rule="evenodd" fill="#FA6CA8" d="M148.666,252.796c3.808,1.587,7.552,3.362,11.453,4.67
			c1.568,0.525,3.562,0.355,5.221-0.06c8.237-2.06,16.319-2.39,24.583,0.26c9.35,2.999,14.506,9.85,17.624,18.423
			c2.271,6.245,5.663,11.238,11.425,14.564c6.199,3.579,8.314,9.203,6.656,15.776c-4.945,19.589-12.063,38.267-27.38,52.334
			c-11.3,10.379-25.035,16.284-40.147,18.783c-2.387,0.395-5.019,0.031-7.417-0.511c-7.13-1.611-14.364-3.021-21.224-5.449
			c-3.521-1.246-6.418-4.39-9.438-6.869c-2.295-1.883-4.107-4.417-6.544-6.048c-4.585-3.069-7.292-7.16-8.413-12.473
			c-1.167-5.537-2.341-11.074-3.644-16.58c-2.065-8.733-1.536-17.046,2.544-25.271c1.341-2.704,1.642-6.476,1.028-9.474
			c-1.013-4.942,0.792-8.343,3.887-11.679c5.414-5.835,10.864-11.646,16.048-17.683c6.158-7.172,13.252-12.153,23.271-11.377
			C148.355,253.688,148.511,253.242,148.666,252.796z M153.99,372.834c16.933-2.285,30.288-8.219,41.386-18.561
			c14.061-13.103,20.195-30.471,24.873-48.523c1.29-4.979-0.281-8.514-4.512-10.921c-6.717-3.822-10.76-9.521-13.227-16.771
			c-3.277-9.631-9.997-15.866-20.319-16.684c-5.336-0.423-10.871,0.545-16.202,1.514c-4.161,0.757-7.733,1.084-10.965-2.35
			c-0.962-1.021-2.94-1.407-4.489-1.504c-9.367-0.586-16.604,3.224-22.436,10.543c-4.517,5.67-9.534,10.956-14.517,16.235
			c-2.557,2.708-4.004,5.144-3.005,9.276c0.719,2.972,0.146,6.736-1.098,9.607c-2.778,6.412-4.687,12.781-3.262,19.786
			c1.189,5.847,2.656,11.645,3.628,17.526c0.978,5.919,3.444,10.52,8.79,13.688c2.186,1.295,3.648,3.792,5.495,5.689
			c1.495,1.536,2.827,3.78,4.655,4.351C137.602,368.49,146.563,370.785,153.99,372.834z"/>
		<path fill-rule="evenodd" clip-rule="evenodd" fill="#FA6CA8" d="M388.554,227.287c4.579-16.913,8.283-33.436,26.192-42.183
			c7.353-3.591,12.9-4.266,19.568,0.644c6.96,5.124,14.967,7.63,23.854,7.442c7.063-0.149,12.289,4.419,17.873,8.079
			c11.237,7.363,18.621,17.11,19.185,30.852c0.216,5.229-1.07,10.511-1.549,15.781c-0.338,3.727-1.074,7.554-0.58,11.193
			c1.643,12.104,0.275,15.437-10.23,21.719c-2.857,1.708-5.757,3.351-8.682,4.938c-5.229,2.837-9.479,6.385-11.942,12.155
			c-2.236,5.234-5.514,6.864-10.956,4.851c-12.445-4.602-24.883-9.389-36.782-15.207c-3.802-1.858-6.826-6.804-8.606-11.013
			c-4.909-11.602-9.065-23.527-13.321-35.396C390.963,236.645,389.891,231.956,388.554,227.287z M490.489,234.613
			c-1.168-7.878-1.862-16.101-8.356-22.073c-3.535-3.253-7.381-6.187-11.22-9.089c-4.891-3.697-10.269-5.592-16.624-5.731
			c-4.66-0.101-9.469-1.546-13.866-3.271c-4.607-1.807-8.785-4.697-13.193-7.033c-0.953-0.505-2.455-1.271-3.082-0.891
			c-6.344,3.846-13.852,6.806-18.447,12.212c-4.739,5.577-6.948,13.463-9.635,20.577c-2.694,7.137-1.396,14.144,1.521,21.223
			c4.664,11.313,8.332,23.037,13.01,34.345c1.48,3.579,4.198,7.749,7.463,9.286c10.923,5.145,22.326,9.28,33.6,13.662
			c2.646,1.029,4.893,0.229,6.051-2.687c2.604-6.559,7.798-10.443,13.738-13.802c5.032-2.846,9.955-6.025,14.398-9.697
			c1.622-1.339,2.487-4.563,2.367-6.858c-0.362-6.917-2.039-13.734,0.807-20.632C490.182,241.34,490.016,237.978,490.489,234.613z"
			/>
		<path fill-rule="evenodd" clip-rule="evenodd" fill="#F0C1DC" d="M511.354,469.857c-1.777,6.719,0.424,11.364,5.558,14.688
			c1.509,0.977,2.806,2.372,3.98,3.76c4.619,5.455,4.383,7.908-1.295,12.155c-4.841,3.621-7.627,8.642-8.128,14.344
			c-0.442,5.038-2.719,8.032-6.858,10.058c-6.148,3.011-9.658,7.728-10.703,14.585c-1.588,10.416-4.511,11.867-16.55,13.417
			c-3.731,0.479-7.829-0.896-11.6-1.976c-4.286-1.226-8.553-1.748-11.577,1.83c-10.469,12.389-23.923,12.943-38.288,10.232
			c-5.042-0.951-10.06-2.077-15.023-3.371c-5.645-1.47-9.43-5.198-12.04-10.366c-1.719-3.4-3.494-6.862-5.82-9.85
			c-6.661-8.556-7.198-18.167-5.836-28.342c1.12-8.358,2.164-16.746,2.696-25.155c0.336-5.31,3.252-8.883,6.384-12.562
			c3.546-4.164,7.757-7.97,10.367-12.661c2.396-4.307,3.858-9.52,4.243-14.449c0.39-5.018,2.191-8.303,6.049-11.263
			c4.043-3.104,7.533-6.918,11.375-10.298c6.176-5.435,13.589-7.617,21.611-6.875c19.952,1.843,36.581,11.395,51.799,23.617
			c2.484,1.996,3.59,5.839,5.041,8.965c2.094,4.509,5.082,7.769,9.429,10.512C508.759,462.488,509.682,466.767,511.354,469.857z"/>
		<path fill-rule="evenodd" clip-rule="evenodd" fill="#F0C1DC" d="M114.825,518.199c0-2.333,0.182-4.681-0.034-6.992
			c-0.638-6.848,2.244-11.237,7.875-15.344c6.519-4.754,11.753-11.241,17.747-16.756c3.154-2.902,6.91-5.147,10.083-8.032
			c3.512-3.192,6.854-6.62,9.922-10.238c2.455-2.896,4.24-6.351,6.599-9.339c2.5-3.167,6.056-4.51,9.824-2.984
			c9.366,3.792,19.688,6.477,27.542,12.381c7.114,5.348,11.734,14.182,16.977,21.808c5.999,8.727,8.559,18.447,7.976,29.23
			c-0.598,11.078,0.08,22.22-0.33,33.313c-0.434,11.741-2.041,14.648-12.723,17.817c-7.785,2.312-14.802,5.888-19.98,12.465
			c-2.96,3.761-6.766,4.493-11.161,2.633c-2.446-1.035-4.887-2.25-7.456-2.798c-5.764-1.229-10.674,0.461-15.078,4.543
			c-4.747,4.401-5.634,4.03-8.662-1.654c-1.483-2.786-3.108-5.496-4.688-8.23c-2.391-4.136-6.038-6.129-10.756-5.857
			c-4.308,0.247-7.25-1.635-9.596-5.077c-5.62-8.243-11.58-16.348-13.233-26.499c-0.771-4.727-0.8-9.573-1.165-14.365
			C114.613,518.215,114.719,518.207,114.825,518.199z"/>
		<path fill-rule="evenodd" clip-rule="evenodd" fill="#F0C1DC" d="M153.99,372.834c-7.428-2.049-16.389-4.344-25.206-7.098
			c-1.829-0.57-3.16-2.815-4.655-4.351c-1.846-1.897-3.309-4.394-5.495-5.689c-5.346-3.168-7.812-7.769-8.79-13.688
			c-0.972-5.881-2.439-11.68-3.628-17.526c-1.424-7.005,0.484-13.374,3.262-19.786c1.243-2.871,1.817-6.635,1.098-9.607
			c-1-4.133,0.448-6.568,3.005-9.276c4.983-5.28,10-10.565,14.517-16.235c5.832-7.32,13.069-11.129,22.436-10.543
			c1.549,0.098,3.527,0.483,4.489,1.504c3.232,3.435,6.804,3.107,10.965,2.35c5.331-0.969,10.865-1.937,16.202-1.514
			c10.323,0.818,17.042,7.053,20.319,16.684c2.467,7.25,6.51,12.949,13.227,16.771c4.23,2.408,5.802,5.943,4.512,10.921
			c-4.678,18.052-10.812,35.42-24.873,48.523C184.278,364.615,170.923,370.549,153.99,372.834z"/>
		<path fill-rule="evenodd" clip-rule="evenodd" fill="#F0C1DC" d="M490.489,234.613c-0.474,3.364-0.308,6.727-1.469,9.543
			c-2.846,6.897-1.169,13.714-0.807,20.632c0.12,2.294-0.745,5.519-2.367,6.858c-4.443,3.672-9.366,6.851-14.398,9.697
			c-5.94,3.359-11.134,7.243-13.738,13.802c-1.158,2.916-3.404,3.716-6.051,2.687c-11.273-4.382-22.677-8.518-33.6-13.662
			c-3.265-1.538-5.982-5.708-7.463-9.286c-4.678-11.308-8.346-23.032-13.01-34.345c-2.918-7.079-4.216-14.085-1.521-21.223
			c2.687-7.114,4.896-15,9.635-20.577c4.596-5.406,12.104-8.366,18.447-12.212c0.627-0.38,2.129,0.386,3.082,0.891
			c4.408,2.335,8.586,5.226,13.193,7.033c4.397,1.724,9.206,3.17,13.866,3.271c6.355,0.139,11.733,2.034,16.624,5.731
			c3.839,2.902,7.685,5.836,11.22,9.089C488.627,218.513,489.321,226.735,490.489,234.613z"/>
	</g>
</g>
</svg>
