<?xml version="1.0" encoding="utf-8"?>
<!-- Generator: Adobe Illustrator 16.0.3, SVG Export Plug-In . SVG Version: 6.00 Build 0)  -->
<!DOCTYPE svg PUBLIC "-//W3C//DTD SVG 1.1//EN" "http://www.w3.org/Graphics/SVG/1.1/DTD/svg11.dtd">
<svg version="1.1" id="Capa_1" xmlns="http://www.w3.org/2000/svg" xmlns:xlink="http://www.w3.org/1999/xlink" x="0px" y="0px"
	 width="612px" height="792px" viewBox="0 0 612 792" enable-background="new 0 0 612 792" xml:space="preserve">
<g>
	<g>
		<path fill-rule="evenodd" clip-rule="evenodd" fill="#FEFEFE" d="M51,141c171.039,0,342.078,0,513.116,0
			c0,171.039,0,342.078,0,513.116c-171.038,0-342.077,0-513.116,0C51,483.078,51,312.039,51,141z M451.052,425.133
			c-5.575,1.909-11.347,3.394-16.668,5.854c-4.768,2.203-9.298,5.152-13.437,8.403c-2.697,2.119-5.965,5.134-6.448,8.152
			c-1.541,9.614-7.18,15.664-14.615,21.01c-5.106,3.672-9.937,7.793-11.462,14.576c-1.674,7.44-3.163,15.018-5.838,22.12
			c-6.71,17.822,2.709,31.852,10.036,46.454c0.419,0.834,1.341,1.512,2.173,2.028c12.677,7.873,26.281,13.106,41.394,11.977
			c4.889-0.365,10.149-2.473,14.215-5.272c4.13-2.845,6.842-3.731,11.465-0.936c12.676,7.668,27.217,2.743,32.433-10.771
			c1.817-4.707,5.341-6.562,9.516-7.934c4.758-1.564,8.038-4.214,9.244-9.442c1.027-4.46,3.524-8.045,7.828-10.433
			c8.064-4.474,8.906-7.464,4.833-15.714c-1.015-2.053-2.479-3.968-4.063-5.634c-3.134-3.296-4.354-6.858-3.091-11.385
			c1.253-4.489,0.567-9.076-3.311-11.78c-4.598-3.206-5.943-7.709-7.286-12.564c-0.589-2.128-1.355-4.621-2.891-6.006
			c-7.989-7.202-15.737-14.854-24.566-20.889C471.942,431.093,462.538,425.96,451.052,425.133z M151.623,363.513
			c4.434-0.716,11.287-0.549,17.02-3.002c13.683-5.852,25.067-15.025,32.971-27.96c7.405-12.117,9.823-25.765,11.047-39.529
			c1.164-13.086-0.771-14.951-12.85-20.142c-3.289-1.414-6.482-4.223-8.504-7.213c-9.751-14.419-24.038-15.989-38.219-9.937
			c-4.179,1.783-8.057,4.977-12.942,1.605c-0.779-0.537-2.295-0.182-3.434,0c-10.721,1.706-18.763,6.971-23.672,16.999
			c-2.833,5.789-6.357,11.254-9.778,16.734c-2.443,3.913-3.501,7.537-1.203,12.1c1.153,2.289,1.435,5.69,0.673,8.143
			c-2.362,7.605-0.702,14.423,2.716,21.146c1.358,2.673,3.185,5.22,3.968,8.054c3.651,13.2,16.008,15.979,25.901,21.289
			C139.204,363.887,144.736,362.91,151.623,363.513z M161.997,472.185c-15.511-0.316-18.463,1.787-22.655,12.506
			c-1.489,3.809-3.184,7.642-5.449,11.019c-3.405,5.078-7.49,9.695-11.108,14.639c-3.725,5.088-7.551,10.149-10.711,15.585
			c-1.653,2.843-3.07,6.588-2.711,9.709c2.019,17.591,9.944,31.811,25.138,41.633c3.623,2.341,7.109,2.937,11.331,2.296
			c2.288-0.347,5.004,0.622,7.204,1.674c1.875,0.895,3.355,2.688,4.892,4.204c6.191,6.105,9.339,6.084,14.411-0.867
			c2.665-3.653,5.75-5.298,10.19-4.705c1.807,0.24,3.66,0.137,5.491,0.208c5.752,0.225,9.571-2.385,12.594-7.312
			c2.188-3.568,5.379-6.615,8.498-9.487c2.296-2.115,5.275-3.468,7.814-5.347c3.679-2.724,6.525-6.528,5.527-11.038
			c-3.228-14.589-7.046-29.046-10.7-43.539c-0.276-1.096-0.9-2.183-1.609-3.079C196.797,483.416,181.085,470.897,161.997,472.185z
			 M495.982,229.814c1.086-5.908-1.279-11.655-5.915-16.407c-5.384-5.52-10.184-12.824-16.813-15.632
			c-9.914-4.2-18.388-9.558-26.153-16.753c-1.823-1.69-5.357-2.303-8.042-2.167c-14.473,0.733-24.657,8.382-32.427,20.263
			c-4.334,6.627-6.183,13.245-4.884,21.168c1.844,11.259,2.735,22.673,4.517,33.945c0.513,3.248,1.857,7.275,4.235,9.159
			c9.984,7.914,20.41,15.288,30.882,22.562c3.709,2.577,7.783,2.041,10.666-1.714c3.521-4.583,8.387-6.265,13.721-7.296
			c3.098-0.6,6.185-1.286,9.236-2.087c10.337-2.717,12.335-5.391,13.072-15.929c0.188-2.692,1.097-5.591,2.499-7.892
			C494.414,244.735,496.745,238.163,495.982,229.814z"/>
		<path fill-rule="evenodd" clip-rule="evenodd" fill="#FA81B5" d="M451.052,425.133c11.486,0.827,20.891,5.96,29.461,11.815
			c8.829,6.034,16.577,13.687,24.566,20.889c1.535,1.385,2.302,3.878,2.891,6.006c1.343,4.855,2.688,9.358,7.286,12.564
			c3.878,2.704,4.563,7.291,3.311,11.78c-1.264,4.526-0.043,8.089,3.091,11.385c1.584,1.666,3.048,3.581,4.063,5.634
			c4.073,8.25,3.231,11.24-4.833,15.714c-4.304,2.388-6.801,5.973-7.828,10.433c-1.206,5.229-4.486,7.878-9.244,9.442
			c-4.175,1.372-7.698,3.227-9.516,7.934c-5.216,13.514-19.757,18.438-32.433,10.771c-4.623-2.796-7.335-1.909-11.465,0.936
			c-4.065,2.8-9.326,4.907-14.215,5.272c-15.112,1.13-28.717-4.104-41.394-11.977c-0.832-0.517-1.754-1.194-2.173-2.028
			c-7.327-14.603-16.746-28.632-10.036-46.454c2.675-7.103,4.164-14.68,5.838-22.12c1.525-6.783,6.355-10.904,11.462-14.576
			c7.436-5.346,13.074-11.396,14.615-21.01c0.483-3.019,3.751-6.033,6.448-8.152c4.139-3.251,8.669-6.2,13.437-8.403
			C439.705,428.526,445.477,427.042,451.052,425.133z M451.05,430.017c-4.649,1.534-9.522,2.608-13.889,4.726
			c-4.73,2.293-9.169,5.32-13.376,8.502c-2.041,1.545-4.223,3.989-4.671,6.345c-1.267,6.657-4.188,12.207-9.013,16.771
			c-2.278,2.153-5.061,3.768-7.388,5.876c-3.748,3.398-8.26,6.086-9.559,11.677c-1.911,8.226-4.626,16.279-6.24,24.555
			c-1.052,5.39-1.787,11.236-0.794,16.527c1.143,6.082,4.431,11.746,6.637,17.648c1.926,5.155,5.273,8.826,10.491,10.628
			c7.521,2.598,14.919,5.846,22.653,7.436c8.267,1.699,16.572,0.667,23.488-5.276c4.142-3.561,8.372-3.263,13.354-1.079
			c4.564,2.001,9.724,3.208,14.703,3.543c5.375,0.362,9.729-2.439,11.246-8.019c1.975-7.253,6.481-11.853,13.653-13.743
			c3.7-0.975,5.396-3.352,6.308-6.852c1.402-5.395,4.699-9.397,9.559-12.179c5.91-3.385,6.342-5.773,2.215-11.359
			c-0.985-1.334-1.924-2.724-3.055-3.928c-3.847-4.096-4.855-8.656-3.733-14.246c0.497-2.475-0.256-6.461-1.983-7.868
			c-4.171-3.397-6.094-7.6-7.733-12.416c-1.133-3.329-2.594-7.084-5.099-9.307c-7.418-6.584-15.049-13.078-23.319-18.506
			C468.352,434.775,460.514,430.696,451.05,430.017z"/>
		<path fill-rule="evenodd" clip-rule="evenodd" fill="#FA81B5" d="M151.623,363.513c-6.887-0.603-12.419,0.374-16.307-1.712
			c-9.893-5.31-22.25-8.089-25.901-21.289c-0.784-2.833-2.61-5.381-3.968-8.054c-3.417-6.723-5.078-13.541-2.716-21.146
			c0.762-2.452,0.48-5.854-0.673-8.143c-2.298-4.563-1.24-8.187,1.203-12.1c3.421-5.48,6.945-10.946,9.778-16.734
			c4.909-10.028,12.951-15.293,23.672-16.999c1.138-0.182,2.654-0.537,3.434,0c4.885,3.371,8.764,0.177,12.942-1.605
			c14.181-6.052,28.468-4.482,38.219,9.937c2.022,2.99,5.215,5.799,8.504,7.213c12.078,5.191,14.013,7.056,12.85,20.142
			c-1.224,13.764-3.642,27.412-11.047,39.529c-7.904,12.935-19.288,22.108-32.971,27.96
			C162.91,362.964,156.057,362.797,151.623,363.513z M148.903,357.782c4.984,0,9.654,1.077,13.57-0.188
			c16.276-5.254,28.826-15.416,36.799-30.755c6.114-11.762,7.315-24.74,8.692-37.605c0.629-5.875-1.362-8.699-7.044-10.372
			c-6.246-1.837-10.918-5.437-14.36-10.863c-7.699-12.142-20.518-12.864-32.012-7.778c-5.163,2.284-10.034,5.599-15.875,1.89
			c-0.478-0.303-1.335-0.194-1.963-0.047c-7.674,1.797-14.38,4.72-18.178,12.501c-3.184,6.522-7.416,12.527-10.737,18.991
			c-1.053,2.047-0.941,4.839-0.878,7.278c0.092,3.521,1.603,7.274,0.802,10.506c-3.643,14.698,6.15,24.846,11.624,36.464
			c0.191,0.407,0.699,0.787,1.141,0.936C130.14,351.97,137.713,361.697,148.903,357.782z"/>
		<path fill-rule="evenodd" clip-rule="evenodd" fill="#FA81B5" d="M161.997,472.185c19.088-1.287,34.8,11.231,48.146,28.098
			c0.709,0.896,1.333,1.983,1.609,3.079c3.654,14.493,7.473,28.95,10.7,43.539c0.999,4.51-1.848,8.314-5.527,11.038
			c-2.539,1.879-5.518,3.231-7.814,5.347c-3.119,2.872-6.31,5.919-8.498,9.487c-3.023,4.927-6.842,7.536-12.594,7.312
			c-1.831-0.071-3.684,0.032-5.491-0.208c-4.44-0.593-7.525,1.052-10.19,4.705c-5.072,6.951-8.219,6.973-14.411,0.867
			c-1.537-1.517-3.017-3.31-4.892-4.204c-2.2-1.052-4.917-2.021-7.204-1.674c-4.222,0.641-7.708,0.045-11.331-2.296
			c-15.194-9.822-23.119-24.042-25.138-41.633c-0.358-3.121,1.058-6.866,2.711-9.709c3.16-5.436,6.986-10.497,10.711-15.585
			c3.618-4.943,7.703-9.561,11.108-14.639c2.265-3.377,3.959-7.21,5.449-11.019C143.534,473.972,146.486,471.868,161.997,472.185z
			 M219.102,547.09c-0.338-0.242-0.676-0.485-1.014-0.728c-0.039-0.832,0.06-1.698-0.138-2.489
			c-3.017-12.069-4.316-24.961-9.542-35.988c-7.278-15.354-19.604-26.642-37.453-29.803c-3.585-0.637-7.212-1.044-10.822-1.542
			c-10.827-1.494-13.739,1.96-16.422,9.479c-1.535,4.301-3.66,8.5-6.169,12.316c-3.347,5.091-7.416,9.701-11.006,14.639
			c-3.018,4.15-5.372,8.864-8.804,12.608c-3.145,3.431-4.344,6.972-3.747,11.323c1.993,14.536,8.663,26.313,20.604,35.041
			c3.705,2.709,7.423,4.253,12.064,2.585c1.109-0.399,2.851-0.251,3.817,0.384c3.546,2.327,7.269,4.592,10.208,7.585
			c3.241,3.301,5.657,3.11,7.943-0.469c4.345-6.801,10.635-7.354,17.896-6.724c2.821,0.244,7.462-1.045,8.496-3.062
			c4.217-8.226,11.563-12.546,18.582-17.576C216.002,552.944,217.297,549.661,219.102,547.09z"/>
		<path fill-rule="evenodd" clip-rule="evenodd" fill="#FA80B4" d="M495.982,229.814c0.763,8.349-1.568,14.92-5.406,21.219
			c-1.402,2.301-2.311,5.2-2.499,7.892c-0.737,10.538-2.735,13.212-13.072,15.929c-3.052,0.802-6.139,1.487-9.236,2.087
			c-5.334,1.031-10.2,2.713-13.721,7.296c-2.883,3.755-6.957,4.291-10.666,1.714c-10.472-7.274-20.897-14.648-30.882-22.562
			c-2.378-1.884-3.723-5.911-4.235-9.159c-1.781-11.272-2.673-22.686-4.517-33.945c-1.299-7.923,0.55-14.542,4.884-21.168
			c7.77-11.881,17.954-19.529,32.427-20.263c2.685-0.136,6.219,0.478,8.042,2.167c7.766,7.195,16.239,12.553,26.153,16.753
			c6.63,2.808,11.43,10.113,16.813,15.632C494.703,218.159,497.068,223.907,495.982,229.814z M411.371,248.798
			c-1.186,6.466-0.023,11.007,4.042,14.007c8.792,6.486,17.848,12.614,26.8,18.883c2.652,1.857,4.887,1.423,6.893-1.124
			c3.591-4.56,8.58-6.489,14.096-7.731c5.148-1.16,10.309-2.562,15.167-4.575c1.948-0.809,4.495-3.631,4.378-5.375
			c-0.533-7.881,3.92-13.807,6.526-20.551c3.693-9.559,4.614-19.331-3.73-27.614c-1.745-1.733-2.746-4.247-4.566-5.868
			c-3.295-2.936-6.564-6.704-10.525-7.932c-9.882-3.062-17.957-8.32-24.867-15.828c-1.069-1.163-3.226-2.141-4.713-1.946
			c-4.244,0.556-8.531,1.389-12.568,2.786c-9.237,3.196-13.93,11.278-19.172,18.707c-3.409,4.833-3.585,10.096-2.561,15.708
			C408.381,230.266,409.938,240.232,411.371,248.798z"/>
		<path fill-rule="evenodd" clip-rule="evenodd" fill="#F2C9E1" d="M451.05,430.017c9.464,0.68,17.302,4.759,24.455,9.455
			c8.271,5.428,15.901,11.922,23.319,18.506c2.505,2.223,3.966,5.978,5.099,9.307c1.64,4.816,3.563,9.019,7.733,12.416
			c1.728,1.407,2.48,5.394,1.983,7.868c-1.122,5.59-0.113,10.15,3.733,14.246c1.131,1.204,2.069,2.594,3.055,3.928
			c4.127,5.586,3.695,7.975-2.215,11.359c-4.859,2.781-8.156,6.784-9.559,12.179c-0.911,3.5-2.607,5.877-6.308,6.852
			c-7.172,1.891-11.679,6.49-13.653,13.743c-1.518,5.579-5.871,8.381-11.246,8.019c-4.979-0.335-10.139-1.542-14.703-3.543
			c-4.981-2.184-9.212-2.481-13.354,1.079c-6.916,5.943-15.222,6.976-23.488,5.276c-7.734-1.59-15.133-4.838-22.653-7.436
			c-5.218-1.802-8.565-5.473-10.491-10.628c-2.206-5.902-5.494-11.566-6.637-17.648c-0.993-5.291-0.258-11.138,0.794-16.527
			c1.614-8.275,4.329-16.329,6.24-24.555c1.299-5.591,5.811-8.278,9.559-11.677c2.327-2.108,5.109-3.723,7.388-5.876
			c4.825-4.563,7.746-10.113,9.013-16.771c0.448-2.355,2.63-4.8,4.671-6.345c4.207-3.182,8.646-6.209,13.376-8.502
			C441.527,432.625,446.4,431.551,451.05,430.017z"/>
		<path fill-rule="evenodd" clip-rule="evenodd" fill="#F2C9E1" d="M148.903,357.782c-11.189,3.915-18.763-5.812-28.42-9.041
			c-0.442-0.148-0.95-0.528-1.141-0.936c-5.474-11.618-15.267-21.766-11.624-36.464c0.801-3.232-0.71-6.985-0.802-10.506
			c-0.063-2.439-0.175-5.231,0.878-7.278c3.321-6.463,7.554-12.468,10.737-18.991c3.798-7.782,10.503-10.704,18.178-12.501
			c0.627-0.147,1.485-0.256,1.963,0.047c5.842,3.708,10.712,0.394,15.875-1.89c11.494-5.086,24.313-4.363,32.012,7.778
			c3.442,5.427,8.115,9.026,14.36,10.863c5.683,1.672,7.674,4.497,7.044,10.372c-1.377,12.865-2.579,25.844-8.692,37.605
			c-7.973,15.339-20.523,25.501-36.799,30.755C158.557,358.858,153.887,357.782,148.903,357.782z"/>
		<path fill-rule="evenodd" clip-rule="evenodd" fill="#F2C9E1" d="M219.102,547.09c-1.804,2.571-3.099,5.854-5.508,7.581
			c-7.018,5.03-14.364,9.351-18.582,17.576c-1.033,2.017-5.675,3.306-8.496,3.062c-7.261-0.63-13.551-0.077-17.896,6.724
			c-2.287,3.579-4.703,3.77-7.943,0.469c-2.939-2.993-6.661-5.258-10.208-7.585c-0.967-0.635-2.708-0.783-3.817-0.384
			c-4.641,1.668-8.359,0.124-12.064-2.585c-11.94-8.729-18.611-20.505-20.604-35.041c-0.597-4.352,0.602-7.893,3.747-11.323
			c3.433-3.744,5.786-8.458,8.804-12.608c3.59-4.938,7.659-9.548,11.006-14.639c2.51-3.816,4.635-8.016,6.169-12.316
			c2.683-7.52,5.595-10.974,16.422-9.479c3.61,0.498,7.236,0.905,10.822,1.542c17.849,3.161,30.175,14.448,37.453,29.803
			c5.226,11.027,6.526,23.919,9.542,35.988c0.198,0.791,0.099,1.657,0.138,2.489C218.425,546.604,218.763,546.848,219.102,547.09z"
			/>
		<path fill-rule="evenodd" clip-rule="evenodd" fill="#F2C9E1" d="M411.371,248.798c-1.433-8.566-2.99-18.533-4.802-28.453
			c-1.024-5.611-0.849-10.875,2.561-15.708c5.242-7.428,9.935-15.51,19.172-18.707c4.037-1.396,8.324-2.23,12.568-2.786
			c1.487-0.195,3.644,0.783,4.713,1.946c6.91,7.507,14.985,12.766,24.867,15.828c3.961,1.228,7.23,4.996,10.525,7.932
			c1.82,1.621,2.821,4.135,4.566,5.868c8.345,8.283,7.424,18.055,3.73,27.614c-2.606,6.745-7.06,12.67-6.526,20.551
			c0.117,1.745-2.43,4.566-4.378,5.375c-4.858,2.014-10.019,3.416-15.167,4.575c-5.516,1.242-10.505,3.171-14.096,7.731
			c-2.006,2.546-4.24,2.98-6.893,1.124c-8.952-6.269-18.008-12.397-26.8-18.883C411.348,259.806,410.186,255.265,411.371,248.798z"
			/>
	</g>
</g>
</svg>
