<?xml version="1.0" encoding="utf-8"?>
<!-- Generator: Adobe Illustrator 16.0.3, SVG Export Plug-In . SVG Version: 6.00 Build 0)  -->
<!DOCTYPE svg PUBLIC "-//W3C//DTD SVG 1.1//EN" "http://www.w3.org/Graphics/SVG/1.1/DTD/svg11.dtd">
<svg version="1.1" id="Capa_1" xmlns="http://www.w3.org/2000/svg" xmlns:xlink="http://www.w3.org/1999/xlink" x="0px" y="0px"
	 width="612px" height="792px" viewBox="0 0 612 792" enable-background="new 0 0 612 792" xml:space="preserve">
<g>
	<g>
		<path fill-rule="evenodd" clip-rule="evenodd" fill="#FEFEFE" d="M51.014,654.116c-0.004-170.99-0.004-341.981-0.004-513.045
			c170.94,0,341.89,0,512.973,0c0,170.968,0,342.007,0,513.045C393.013,654.116,222.016,654.116,51.014,654.116z M395.856,514.284
			c0.403,3.94,1.051,7.874,1.159,11.823c0.2,7.302,2.021,13.874,8.17,18.347c6.149,4.474,12.332,9,18.946,12.71
			c5.239,2.939,11.1,3.992,17.33,2.122c6.331-1.899,11.683-2.042,17.762,3.463c8.641,7.824,17.958,5.494,25.996-3.285
			c1.924-2.101,5.031-3.251,7.768-4.444c3.917-1.707,9.05-0.402,11.67-5.379c2.237-4.252,5.722-6.991,10.715-8.189
			c3.569-0.855,7.691-2.5,6.655-7.699c-0.773-3.874-1.354-7.968-3.099-11.42c-1.723-3.41-1.394-5.98,0.659-8.71
			c3.276-4.358,2.093-8.171-0.785-12.281c-1.48-2.116-2.132-4.963-2.63-7.58c-0.632-3.322,0.262-7.284-1.233-10.028
			c-5.227-9.588-11.174-18.688-19.232-26.386c-11.735-11.21-24.678-14.78-39.955-8.479c-1.498,0.618-3.326,0.516-4.74,1.249
			c-3.242,1.681-7.849,2.934-9.179,5.678c-3.788,7.813-10.021,11.641-17.651,14.292c-5.249,1.823-9.765,4.439-12.503,9.849
			c-3.143,6.207-6.965,12.084-10.674,17.988C397.846,502.95,395.197,508.049,395.856,514.284z M129.613,260.947
			c-8.453-1.28-17.13,3.864-20.364,11.495c-3.23,7.621-6.221,15.35-9.03,23.135c-0.599,1.663-0.201,3.819,0.162,5.665
			c0.715,3.626,2.22,7.152,2.529,10.793c1.145,13.541,9.88,22.342,18.826,31.055c0.654,0.637,1.806,0.78,2.744,1.103
			c4.047,1.394,8.092,2.795,12.158,4.134c1.081,0.355,2.292,0.849,3.343,0.675c6.833-1.136,13.722-2.098,20.43-3.77
			c9.17-2.286,15.375-9.072,21.263-15.827c8.536-9.794,12.725-21.32,12.435-34.466c-0.133-6.066,0.313-12.148,0.59-18.22
			c0.25-5.459-3.99-11.258-9.68-11.382c-5.85-0.128-9.296-3.466-13.281-6.756c-3.263-2.692-7.021-6.153-10.833-6.533
			c-8.705-0.867-17.638-0.534-24.991,5.829C134.206,259.355,131.733,259.948,129.613,260.947z M462.278,273.458
			c9.322,1.16,15.166-2.569,17.786-11.625c0.437-1.509,1.454-3.248,2.728-4.052c7.564-4.779,10.271-12.593,12.914-20.37
			c0.813-2.392,1.111-5.311,0.558-7.74c-0.97-4.245-2.459-8.451-4.319-12.396c-2.477-5.249-4.377-10.684-9.396-14.698
			c-4.924-3.938-9.268-8.983-12.69-14.298c-3.4-5.278-5.632-9.511-13.528-9.843c-9.086-0.383-17.24-0.352-25.16,4.686
			c-8.847,5.627-15.153,12.466-16.365,23.49c-0.901,8.203-2.438,16.405-4.541,24.383c-1.576,5.977-2.04,11.631,1.505,16.689
			c6.076,8.672,12.549,17.074,19.056,25.432c2.734,3.511,6.138,3.475,10.255,1.631c3.5-1.566,7.555-2.271,11.419-2.527
			C455.716,272.008,459.015,273,462.278,273.458z M205.472,543.562c-0.529-2.233-0.656-4.669-1.661-6.662
			c-3.355-6.654-7.086-13.118-10.562-19.713c-7.138-13.546-19.064-20.498-33.467-23.107c-6.498-1.177-13.572-1.11-20.073,0.086
			c-13.24,2.438-15.065,5.358-15.784,19.141c-0.118,2.25-0.999,4.503-1.774,6.666c-1.888,5.268-3.953,10.47-5.883,15.722
			c-1.371,3.73-3.129,7.412-3.812,11.275c-0.655,3.709-1.274,8.076,0.047,11.371c4.916,12.26,13.703,20.904,26.219,25.829
			c3.806,1.498,7.46,2.438,10.845,0.469c4.046-2.354,7.255-1.176,10.692,0.826c1.439,0.838,2.955,1.543,4.423,2.33
			c3.568,1.913,6.529,0.836,7.644-2.73c2.185-6.989,7.475-8.757,13.765-10.313c2.639-0.652,6.145-3.88,6.52-6.353
			c0.788-5.192,3.592-8.617,6.546-12.442C201.927,552.369,207.119,549.661,205.472,543.562z"/>
		<path fill-rule="evenodd" clip-rule="evenodd" fill="#FB95C0" d="M395.856,514.284c-0.659-6.235,1.989-11.334,5.148-16.361
			c3.709-5.904,7.531-11.781,10.674-17.988c2.738-5.409,7.254-8.025,12.503-9.849c7.631-2.651,13.863-6.479,17.651-14.292
			c1.33-2.744,5.937-3.997,9.179-5.678c1.414-0.733,3.242-0.631,4.74-1.249c15.277-6.301,28.22-2.73,39.955,8.479
			c8.059,7.698,14.006,16.798,19.232,26.386c1.495,2.744,0.602,6.706,1.233,10.028c0.498,2.617,1.149,5.464,2.63,7.58
			c2.878,4.11,4.062,7.923,0.785,12.281c-2.053,2.729-2.382,5.3-0.659,8.71c1.744,3.452,2.325,7.546,3.099,11.42
			c1.036,5.199-3.086,6.844-6.655,7.699c-4.993,1.198-8.478,3.938-10.715,8.189c-2.62,4.977-7.753,3.672-11.67,5.379
			c-2.736,1.193-5.844,2.344-7.768,4.444c-8.038,8.779-17.355,11.109-25.996,3.285c-6.079-5.505-11.431-5.362-17.762-3.463
			c-6.23,1.87-12.091,0.817-17.33-2.122c-6.614-3.71-12.797-8.236-18.946-12.71c-6.148-4.473-7.97-11.045-8.17-18.347
			C396.907,522.158,396.26,518.225,395.856,514.284z M399.506,511.653c1.007,6.851,2.249,11.912,2.363,16.999
			c0.118,5.286,1.835,9.563,5.891,12.59c5.556,4.148,11.255,8.187,17.26,11.631c6.107,3.501,12.953,4.754,19.646,1.778
			c5.686-2.528,9.876-1.582,14.322,2.761c7.658,7.479,17.035,7.418,22.278-0.217c3.574-5.205,8.256-6.551,13.922-7.215
			c2.092-0.245,4.729-1.687,5.831-3.406c3.186-4.966,7.48-8.17,13.088-9.15c3.994-0.697,4.405-2.985,3.938-6.031
			c-0.245-1.602-0.878-3.195-1.603-4.662c-2.562-5.197-3.49-10.305-0.345-15.689c0.741-1.268,1.222-3.666,0.535-4.631
			c-4.104-5.775-4.808-12.209-4.69-18.973c0.021-1.191-0.98-2.424-1.585-3.598c-4.781-9.272-11.533-16.935-18.924-24.238
			c-6.498-6.421-14.414-12.018-22.811-9.967c-9.248,2.258-21.166,0.994-26.327,13.35c-2.722,6.519-10.406,8.145-16.508,11.139
			c-3.7,1.815-7.462,4.443-9.9,7.682c-4.157,5.522-7.468,11.718-10.801,17.813C402.752,503.883,400.972,508.45,399.506,511.653z"/>
		<path fill-rule="evenodd" clip-rule="evenodd" fill="#FB94C0" d="M129.613,260.947c2.121-0.999,4.593-1.592,6.301-3.07
			c7.354-6.363,16.287-6.696,24.991-5.829c3.812,0.38,7.57,3.841,10.833,6.533c3.985,3.29,7.432,6.628,13.281,6.756
			c5.69,0.124,9.929,5.922,9.68,11.382c-0.278,6.071-0.724,12.154-0.59,18.22c0.29,13.146-3.899,24.672-12.435,34.466
			c-5.888,6.754-12.093,13.541-21.263,15.827c-6.708,1.671-13.598,2.634-20.43,3.77c-1.051,0.174-2.262-0.319-3.343-0.675
			c-4.066-1.338-8.111-2.74-12.158-4.134c-0.938-0.323-2.09-0.466-2.744-1.103c-8.946-8.713-17.681-17.514-18.826-31.055
			c-0.309-3.642-1.814-7.167-2.529-10.793c-0.363-1.845-0.761-4.002-0.162-5.665c2.809-7.785,5.8-15.514,9.03-23.135
			C112.482,264.812,121.16,259.667,129.613,260.947z M107.529,308.05c-1.853,8.264,2.47,12.995,5.538,18.265
			c7.031,12.076,17.494,18.009,31.369,17.678c19.786-0.473,32.796-11.533,41.142-28.268c6.405-12.846,6.37-26.948,4.013-40.847
			c-0.374-2.207-3.78-5.26-6.064-5.526c-6.787-0.791-11.725-4.103-16.32-8.698c-4.346-4.346-9.669-6.735-15.792-4.646
			c-4.942,1.685-9.599,4.202-14.389,6.335c-1.917,0.854-3.903,2.481-5.769,2.363c-10.448-0.662-16.032,2.871-19.529,12.661
			c-2.164,6.056-4.693,11.981-6.874,18.031c-0.452,1.252-0.394,2.879-0.042,4.191C105.68,302.835,106.854,305.999,107.529,308.05z"
			/>
		<path fill-rule="evenodd" clip-rule="evenodd" fill="#FB94BF" d="M462.278,273.458c-3.264-0.458-6.563-1.45-9.78-1.236
			c-3.864,0.256-7.919,0.961-11.419,2.527c-4.117,1.843-7.521,1.879-10.255-1.631c-6.507-8.357-12.979-16.76-19.056-25.432
			c-3.545-5.059-3.081-10.712-1.505-16.689c2.104-7.978,3.64-16.18,4.541-24.383c1.212-11.024,7.519-17.862,16.365-23.49
			c7.92-5.037,16.074-5.068,25.16-4.686c7.896,0.332,10.128,4.564,13.528,9.843c3.423,5.315,7.767,10.361,12.69,14.298
			c5.019,4.014,6.919,9.449,9.396,14.698c1.86,3.944,3.35,8.15,4.319,12.396c0.554,2.429,0.256,5.348-0.558,7.74
			c-2.644,7.777-5.35,15.591-12.914,20.37c-1.273,0.804-2.291,2.542-2.728,4.052C477.444,270.889,471.601,274.618,462.278,273.458z
			 M449.855,181.792c-7.521,0.217-10.845,1.654-17.883,6.62c-5.404,3.813-10.471,7.7-11.892,14.617
			c-2.322,11.301-4.656,22.602-6.779,33.941c-0.344,1.839-0.266,4.323,0.718,5.755c6.362,9.267,12.964,18.373,19.7,27.373
			c0.671,0.898,3.228,1.477,4.14,0.928c7.146-4.305,14.646-2.993,22.289-2.264c8.493,0.811,13.26,0.41,15.503-8.245
			c0.688-2.659,2.854-5.4,5.098-7.116c17.352-13.259,12.458-34.557,0.442-46.128c-6.58-6.335-12.682-12.394-16.816-20.501
			c-0.799-1.568-2.566-3.232-4.201-3.66C456.848,182.242,453.308,182.186,449.855,181.792z"/>
		<path fill-rule="evenodd" clip-rule="evenodd" fill="#FB95C0" d="M205.472,543.562c1.647,6.1-3.545,8.808-6.316,12.395
			c-2.954,3.825-5.759,7.25-6.546,12.442c-0.375,2.473-3.88,5.7-6.52,6.353c-6.29,1.556-11.58,3.323-13.765,10.313
			c-1.115,3.566-4.076,4.644-7.644,2.73c-1.468-0.787-2.984-1.492-4.423-2.33c-3.437-2.002-6.646-3.18-10.692-0.826
			c-3.385,1.97-7.039,1.029-10.845-0.469c-12.516-4.925-21.303-13.569-26.219-25.829c-1.321-3.295-0.702-7.662-0.047-11.371
			c0.683-3.863,2.44-7.545,3.812-11.275c1.93-5.252,3.996-10.454,5.883-15.722c0.775-2.163,1.657-4.416,1.774-6.666
			c0.719-13.782,2.544-16.703,15.784-19.141c6.501-1.196,13.575-1.263,20.073-0.086c14.403,2.609,26.329,9.562,33.467,23.107
			c3.475,6.595,7.207,13.059,10.562,19.713C204.816,538.893,204.943,541.328,205.472,543.562z M114.783,552.702
			c0.235,1.139,0.262,2.36,0.731,3.38c5.023,10.917,12.052,19.914,23.902,23.994c2.582,0.889,5.811,2.354,7.976,1.532
			c5.955-2.261,11.172-2.149,16.494,1.406c2.735,1.827,5.188,1.941,6.436-2.135c1.749-5.716,5.804-8.407,11.852-8.945
			c2.317-0.206,6.025-1.951,6.424-3.632c1.898-7.979,7.111-13.707,11.543-20.1c1.433-2.068,1.345-6.029,0.496-8.651
			c-1.418-4.379-3.693-8.579-6.176-12.493c-4.156-6.552-7.664-14.12-13.397-18.938c-12.486-10.493-27.243-14.633-43.619-9.78
			c-4.508,1.337-9.33,3.056-8.999,8.446c0.542,8.81-3.651,15.983-6.445,23.698c-2.256,6.229-4.388,12.504-6.521,18.777
			C115.111,550.344,115.015,551.519,114.783,552.702z"/>
		<path fill-rule="evenodd" clip-rule="evenodd" fill="#F4D2E6" d="M399.506,511.653c1.466-3.203,3.246-7.771,5.58-12.036
			c3.333-6.095,6.644-12.29,10.801-17.813c2.438-3.238,6.2-5.866,9.9-7.682c6.102-2.994,13.786-4.62,16.508-11.139
			c5.161-12.355,17.079-11.092,26.327-13.35c8.396-2.051,16.313,3.546,22.811,9.967c7.391,7.304,14.143,14.966,18.924,24.238
			c0.604,1.174,1.605,2.406,1.585,3.598c-0.117,6.764,0.586,13.197,4.69,18.973c0.687,0.965,0.206,3.363-0.535,4.631
			c-3.146,5.385-2.217,10.492,0.345,15.689c0.725,1.467,1.357,3.061,1.603,4.662c0.468,3.046,0.057,5.334-3.938,6.031
			c-5.607,0.98-9.902,4.185-13.088,9.15c-1.103,1.72-3.739,3.161-5.831,3.406c-5.666,0.664-10.348,2.01-13.922,7.215
			c-5.243,7.635-14.62,7.696-22.278,0.217c-4.446-4.343-8.637-5.289-14.322-2.761c-6.692,2.976-13.538,1.723-19.646-1.778
			c-6.005-3.444-11.704-7.482-17.26-11.631c-4.056-3.026-5.772-7.304-5.891-12.59C401.755,523.565,400.513,518.504,399.506,511.653z
			"/>
		<path fill-rule="evenodd" clip-rule="evenodd" fill="#F4D2E6" d="M107.529,308.05c-0.675-2.051-1.849-5.215-2.718-8.461
			c-0.351-1.313-0.409-2.939,0.042-4.191c2.181-6.05,4.71-11.975,6.874-18.031c3.497-9.791,9.081-13.323,19.529-12.661
			c1.866,0.118,3.853-1.509,5.769-2.363c4.791-2.133,9.447-4.65,14.389-6.335c6.123-2.088,11.446,0.301,15.792,4.646
			c4.596,4.596,9.533,7.907,16.32,8.698c2.284,0.266,5.69,3.319,6.064,5.526c2.357,13.899,2.393,28.001-4.013,40.847
			c-8.345,16.735-21.356,27.795-41.142,28.268c-13.875,0.331-24.338-5.602-31.369-17.678
			C109.999,321.045,105.677,316.313,107.529,308.05z"/>
		<path fill-rule="evenodd" clip-rule="evenodd" fill="#F4D3E6" d="M449.855,181.792c3.452,0.393,6.992,0.45,10.318,1.32
			c1.635,0.428,3.402,2.092,4.201,3.66c4.135,8.107,10.236,14.166,16.816,20.501c12.016,11.571,16.909,32.869-0.442,46.128
			c-2.244,1.715-4.409,4.457-5.098,7.116c-2.243,8.655-7.01,9.056-15.503,8.245c-7.644-0.729-15.144-2.041-22.289,2.264
			c-0.912,0.549-3.469-0.03-4.14-0.928c-6.736-9-13.338-18.106-19.7-27.373c-0.983-1.432-1.062-3.916-0.718-5.755
			c2.123-11.339,4.457-22.64,6.779-33.941c1.421-6.917,6.487-10.804,11.892-14.617C439.011,183.446,442.334,182.01,449.855,181.792z
			"/>
		<path fill-rule="evenodd" clip-rule="evenodd" fill="#F4D2E6" d="M114.783,552.702c0.232-1.184,0.329-2.358,0.696-3.439
			c2.133-6.273,4.265-12.549,6.521-18.777c2.794-7.715,6.987-14.889,6.445-23.698c-0.332-5.391,4.491-7.109,8.999-8.446
			c16.376-4.853,31.133-0.713,43.619,9.78c5.733,4.817,9.241,12.386,13.397,18.938c2.483,3.914,4.758,8.114,6.176,12.493
			c0.849,2.622,0.937,6.583-0.496,8.651c-4.432,6.393-9.646,12.121-11.543,20.1c-0.399,1.681-4.107,3.426-6.424,3.632
			c-6.048,0.538-10.103,3.229-11.852,8.945c-1.248,4.076-3.701,3.962-6.436,2.135c-5.321-3.556-10.539-3.667-16.494-1.406
			c-2.165,0.821-5.394-0.644-7.976-1.532c-11.85-4.08-18.879-13.077-23.902-23.994C115.045,555.063,115.018,553.841,114.783,552.702
			z"/>
	</g>
</g>
</svg>
