<?xml version="1.0" encoding="utf-8"?>
<!-- Generator: Adobe Illustrator 16.0.3, SVG Export Plug-In . SVG Version: 6.00 Build 0)  -->
<!DOCTYPE svg PUBLIC "-//W3C//DTD SVG 1.1//EN" "http://www.w3.org/Graphics/SVG/1.1/DTD/svg11.dtd">
<svg version="1.1" id="Capa_1" xmlns="http://www.w3.org/2000/svg" xmlns:xlink="http://www.w3.org/1999/xlink" x="0px" y="0px"
	 width="612px" height="792px" viewBox="0 0 612 792" enable-background="new 0 0 612 792" xml:space="preserve">
<g>
	<g>
		<path fill-rule="evenodd" clip-rule="evenodd" fill="#FEFEFE" d="M51,141c171.039,0,342.078,0,513.116,0
			c0,171.039,0,342.078,0,513.116c-171.038,0-342.077,0-513.116,0C51,483.078,51,312.039,51,141z M472.379,493.311
			c-4.924,1.584-9.95,3.821-15.21,4.772c-12.764,2.312-17.079,12.538-21.932,22.348c-0.532,1.075-0.428,2.722-0.063,3.938
			c1.567,5.238,2.595,10.844,5.269,15.48c2.273,3.945,6.062,7.605,10.056,9.788c3.264,1.785,5.008,3.222,5.747,6.957
			c1.603,8.087,8.383,11.86,16.593,10.016c1.173-0.264,2.52,0.073,3.754,0.305c3.658,0.688,7.28,1.592,10.956,2.155
			c2.44,0.374,5.049-0.081,7.406,0.521c5.454,1.391,8.192-0.32,9.88-5.4c0.933-2.81,3.37-5.136,5.206-7.622
			c1.087-1.474,2.606-2.691,3.416-4.286c0.964-1.901,0.79-4.646,2.132-6.042c4.636-4.818,4.68-10.674,4.549-16.613
			c-0.095-4.282-1.005-8.586-0.735-12.829c0.512-8.052-3.675-13.492-9.482-17.843c-2.487-1.861-6.296-1.901-8.924-3.644
			c-3.726-2.471-7.332-2.831-10.601-0.223c-3.785,3.023-7.324,1.078-10.954,0.409C477.256,495.094,475.164,494.193,472.379,493.311z
			 M100.998,294.596c0.188,0.375,0.796,2.018,1.756,3.419c1.806,2.639,3.816,5.137,5.741,7.695c1.083,1.438,1.867,3.368,3.296,4.232
			c6.843,4.138,12.945,10.513,22.204,8.128c0.625-0.161,1.33-0.083,1.991-0.029c10.1,0.813,24.148-7.97,28.584-17.136
			c3.362-6.947,4.729-13.818,4.831-21.658c0.119-9.212-4.085-16.326-7.828-23.779c-2.02-4.021-5.854-5.258-10.699-3.547
			c-2.451,0.866-5.59,0.161-8.342-0.292c-4.563-0.753-9.127-3.96-13.678-1.097c-4.544,2.858-8.573,6.534-12.842,9.833
			c-1.654,1.277-3.248,2.675-5.041,3.722c-5.912,3.449-10.266,7.779-10.003,15.295C101.129,283.963,100.998,288.555,100.998,294.596
			z M463.365,176.976c-2.297,1.016-6.894,2.033-10.142,4.693c-6.766,5.542-12.865,11.904-19.116,18.053
			c-0.987,0.972-1.863,2.583-1.893,3.917c-0.175,7.929-0.445,15.887,0.067,23.787c0.254,3.922,1.883,7.525,7.291,7.842
			c2.502,0.147,5.005,2.324,7.271,3.916c2.436,1.71,4.533,3.894,6.893,5.724c2.364,1.834,4.661,3.146,7.966,1.295
			c3.254-1.823,6.969-3.896,10.505-3.939c10.31-0.125,15.856-5.781,18.451-14.734c1.284-4.427,2.455-9.835,1.047-13.883
			c-2.445-7.023-2.749-13.839-2.392-20.991c0.092-1.834-0.478-4.067-1.544-5.534C482.294,179.599,473.983,178.105,463.365,176.976z
			 M165.703,577.422c-0.061-0.842,0.087-1.727-0.211-2.42c-1.721-3.999-0.799-7.195,2.164-10.358
			c1.111-1.188,1.462-3.606,1.286-5.378c-0.418-4.207-1.675-8.338-2.002-12.544c-0.352-4.536-2.176-7.549-6.57-8.91
			c-1.412-0.438-2.816-0.915-4.187-1.467c-8.148-3.282-15.58-6.986-25.479-4.742c-10.019,2.271-16.373,7.559-21.336,15.477
			c-1.068,1.703-0.846,4.957,0.002,6.986c3.031,7.258,6.599,14.292,9.934,21.424c0.631,1.349,1.555,2.745,1.607,4.146
			c0.146,3.907,2.697,5.562,5.78,6.658c3.438,1.223,7.093,3.274,10.456,2.945c5.756-0.564,12.792-1.133,16.616-4.627
			C157.461,581.235,161.225,579.237,165.703,577.422z"/>
		<path fill-rule="evenodd" clip-rule="evenodd" fill="#FBAACD" d="M472.379,493.311c2.785,0.883,4.877,1.783,7.062,2.187
			c3.63,0.669,7.169,2.614,10.954-0.409c3.269-2.608,6.875-2.248,10.601,0.223c2.628,1.742,6.437,1.782,8.924,3.644
			c5.808,4.351,9.994,9.791,9.482,17.843c-0.27,4.243,0.641,8.547,0.735,12.829c0.131,5.939,0.087,11.795-4.549,16.613
			c-1.342,1.396-1.168,4.141-2.132,6.042c-0.81,1.595-2.329,2.813-3.416,4.286c-1.836,2.486-4.273,4.813-5.206,7.622
			c-1.688,5.08-4.426,6.791-9.88,5.4c-2.357-0.602-4.966-0.146-7.406-0.521c-3.676-0.563-7.298-1.468-10.956-2.155
			c-1.234-0.231-2.581-0.568-3.754-0.305c-8.21,1.845-14.99-1.929-16.593-10.016c-0.739-3.735-2.483-5.172-5.747-6.957
			c-3.994-2.183-7.782-5.843-10.056-9.788c-2.674-4.637-3.701-10.242-5.269-15.48c-0.364-1.216-0.469-2.862,0.063-3.938
			c4.853-9.81,9.168-20.036,21.932-22.348C462.429,497.132,467.455,494.895,472.379,493.311z M518.446,526.485
			c-1.018-5.532-1.558-11.362-3.222-16.851c-2.549-8.414-10.789-9.676-17.646-12.168c-2.225-0.808-5.217,0.522-7.861,0.846
			c-2.286,0.279-5.082,1.493-6.782,0.612c-8.959-4.635-16.949-1.18-25.062,2.162c-0.15,0.063-0.326,0.066-0.491,0.088
			c-9.973,1.334-21.207,17.15-18.28,25.866c1.109,3.301,2.084,6.658,3.419,9.865c2.054,4.934,5.232,8.807,10.667,10.417
			c3.111,0.922,4.854,2.759,5.027,6.472c0.337,7.203,6.388,11.362,13.434,10.045c1.995-0.373,4.67-0.671,6.13,0.324
			c3.975,2.705,7.789,3.124,12.067,1.225c0.563-0.25,1.322-0.202,1.965-0.107c2.706,0.397,6.102,2.052,7.912,0.985
			c1.941-1.144,2.384-4.825,3.489-7.396c0.131-0.305,0.235-0.703,0.479-0.865c4.976-3.314,6.365-8.982,9.405-13.521
			C516.975,538.691,516.607,532.629,518.446,526.485z"/>
		<path fill-rule="evenodd" clip-rule="evenodd" fill="#FCA9CC" d="M100.998,294.596c0-6.041,0.131-10.632-0.03-15.213
			c-0.263-7.517,4.091-11.847,10.003-15.295c1.793-1.046,3.387-2.444,5.041-3.722c4.269-3.299,8.298-6.974,12.842-9.833
			c4.55-2.863,9.115,0.344,13.678,1.097c2.752,0.453,5.892,1.158,8.342,0.292c4.845-1.711,8.679-0.475,10.699,3.547
			c3.743,7.453,7.947,14.566,7.828,23.779c-0.102,7.84-1.468,14.711-4.831,21.658c-4.437,9.166-18.484,17.949-28.584,17.136
			c-0.661-0.054-1.365-0.132-1.991,0.029c-9.259,2.385-15.361-3.99-22.204-8.128c-1.429-0.864-2.213-2.794-3.296-4.232
			c-1.925-2.558-3.935-5.057-5.741-7.695C101.794,296.614,101.186,294.971,100.998,294.596z M104.083,284.663
			c0.273,5.098-1.855,10.987,4.87,14.06c1.146,0.522,1.399,2.884,2.192,4.327c0.79,1.437,1.411,3.409,2.671,4.071
			c7.071,3.713,12.75,9.82,22.475,8.269c10.46-1.669,18.527-5.917,24.316-14.37c8.697-12.697,8.145-30.904-1.412-42.947
			c-1.479-1.864-5.051-2.375-7.772-2.87c-3.792-0.689-7.882-0.149-11.507-1.248c-6.799-2.058-12.471-0.725-17.415,4.066
			c-3.836,3.718-6.34,9.057-12.549,9.793c-0.626,0.074-1.085,1.202-1.706,1.743C103.534,273.664,103.525,279.076,104.083,284.663z"
			/>
		<path fill-rule="evenodd" clip-rule="evenodd" fill="#FCA9CC" d="M463.365,176.976c10.618,1.129,18.929,2.623,24.405,10.146
			c1.066,1.467,1.636,3.7,1.544,5.534c-0.357,7.152-0.054,13.968,2.392,20.991c1.408,4.048,0.237,9.457-1.047,13.883
			c-2.595,8.953-8.142,14.609-18.451,14.734c-3.536,0.043-7.251,2.116-10.505,3.939c-3.305,1.851-5.602,0.54-7.966-1.295
			c-2.359-1.831-4.457-4.014-6.893-5.724c-2.267-1.592-4.77-3.769-7.271-3.916c-5.408-0.317-7.037-3.92-7.291-7.842
			c-0.513-7.899-0.242-15.857-0.067-23.787c0.029-1.334,0.905-2.945,1.893-3.917c6.251-6.149,12.351-12.512,19.116-18.053
			C456.472,179.009,461.068,177.992,463.365,176.976z M433.447,214.284c0.833,4.706,1.531,9.441,2.599,14.092
			c0.262,1.142,1.568,2.254,2.665,2.958c4.385,2.81,8.83,5.533,13.346,8.126c2.621,1.505,5.595,4.08,8.102,3.761
			c5.621-0.715,11.093-2.806,16.532-4.617c1.993-0.663,3.985-1.835,5.526-3.264c6.934-6.42,7.555-14.65,6.421-23.383
			c-0.668-5.154-1.016-10.348-1.552-15.52c-0.217-2.082,0.204-4.873-0.967-6.095c-4.084-4.262-8.236-8.665-14.841-9.156
			c-7.145-0.53-13.859-0.704-18.962,5.863c-3.042,3.916-6.552,7.758-10.604,10.532C435.593,201.771,433.177,207.048,433.447,214.284
			z"/>
		<path fill-rule="evenodd" clip-rule="evenodd" fill="#FBADCE" d="M165.703,577.422c-4.478,1.815-8.242,3.813-11.939,7.19
			c-3.824,3.494-10.86,4.063-16.616,4.627c-3.363,0.329-7.019-1.723-10.456-2.945c-3.083-1.097-5.634-2.751-5.78-6.658
			c-0.052-1.401-0.976-2.798-1.607-4.146c-3.335-7.132-6.903-14.166-9.934-21.424c-0.848-2.029-1.07-5.283-0.002-6.986
			c4.963-7.918,11.317-13.206,21.336-15.477c9.899-2.244,17.331,1.46,25.479,4.742c1.371,0.552,2.775,1.029,4.187,1.467
			c4.394,1.361,6.218,4.374,6.57,8.91c0.327,4.206,1.583,8.337,2.002,12.544c0.176,1.771-0.175,4.19-1.286,5.378
			c-2.963,3.163-3.885,6.359-2.164,10.358C165.79,575.695,165.642,576.58,165.703,577.422z M139.58,532.826
			c-10.604,1.198-18.787,3.209-24.615,10.757c-4.891,6.334-5.067,7.388-0.26,13.78c0.79,1.05,1.531,2.201,1.997,3.421
			c1.714,4.485,3.817,8.907,4.824,13.56c1.731,8,7.087,11.113,14.388,11.878c6.808,0.713,13.38,0.647,17.923-6.088
			c1.077-1.596,3.737-2.449,5.834-2.946c2.389-0.567,3.822-1.317,2.927-3.949c-1.269-3.732-0.163-6.675,2.267-9.646
			c1.034-1.265,1.34-3.555,1.157-5.294c-0.374-3.557-1.176-7.085-2.049-10.564c-0.541-2.156-0.977-5.424-2.423-6.086
			C153.89,538.143,145.926,535.305,139.58,532.826z"/>
		<path fill-rule="evenodd" clip-rule="evenodd" fill="#F6DBEB" d="M518.446,526.485c-1.839,6.144-1.472,12.206-5.35,17.998
			c-3.04,4.539-4.43,10.207-9.405,13.521c-0.244,0.162-0.349,0.561-0.479,0.865c-1.105,2.571-1.548,6.253-3.489,7.396
			c-1.811,1.066-5.206-0.588-7.912-0.985c-0.643-0.095-1.401-0.143-1.965,0.107c-4.278,1.899-8.093,1.48-12.067-1.225
			c-1.46-0.995-4.135-0.697-6.13-0.324c-7.046,1.317-13.097-2.842-13.434-10.045c-0.174-3.713-1.916-5.55-5.027-6.472
			c-5.435-1.61-8.613-5.483-10.667-10.417c-1.335-3.207-2.31-6.564-3.419-9.865c-2.927-8.716,8.308-24.532,18.28-25.866
			c0.165-0.021,0.341-0.025,0.491-0.088c8.112-3.342,16.103-6.797,25.062-2.162c1.7,0.881,4.496-0.333,6.782-0.612
			c2.645-0.323,5.637-1.653,7.861-0.846c6.857,2.492,15.098,3.754,17.646,12.168C516.889,515.123,517.429,520.953,518.446,526.485z"
			/>
		<path fill-rule="evenodd" clip-rule="evenodd" fill="#F6DBEB" d="M104.083,284.663c-0.558-5.587-0.549-10.999,4.164-15.105
			c0.621-0.541,1.08-1.668,1.706-1.743c6.209-0.736,8.713-6.075,12.549-9.793c4.944-4.791,10.615-6.125,17.415-4.066
			c3.625,1.098,7.715,0.559,11.507,1.248c2.721,0.494,6.293,1.006,7.772,2.87c9.556,12.043,10.108,30.25,1.412,42.947
			c-5.789,8.452-13.856,12.7-24.316,14.37c-9.725,1.552-15.404-4.555-22.475-8.269c-1.26-0.663-1.882-2.635-2.671-4.071
			c-0.792-1.443-1.046-3.805-2.192-4.327C102.228,295.649,104.356,289.761,104.083,284.663z"/>
		<path fill-rule="evenodd" clip-rule="evenodd" fill="#F6DBEB" d="M433.447,214.284c-0.271-7.236,2.146-12.513,8.265-16.704
			c4.053-2.774,7.563-6.616,10.604-10.532c5.103-6.567,11.817-6.393,18.962-5.863c6.604,0.491,10.757,4.895,14.841,9.156
			c1.171,1.222,0.75,4.014,0.967,6.095c0.536,5.171,0.884,10.366,1.552,15.52c1.134,8.732,0.513,16.962-6.421,23.383
			c-1.541,1.428-3.533,2.601-5.526,3.264c-5.439,1.811-10.911,3.902-16.532,4.617c-2.507,0.319-5.48-2.255-8.102-3.761
			c-4.516-2.593-8.961-5.316-13.346-8.126c-1.097-0.703-2.403-1.815-2.665-2.958C434.979,223.725,434.28,218.99,433.447,214.284z"/>
		<path fill-rule="evenodd" clip-rule="evenodd" fill="#F6DBEB" d="M139.58,532.826c6.346,2.479,14.31,5.316,21.97,8.821
			c1.446,0.662,1.882,3.93,2.423,6.086c0.873,3.479,1.675,7.008,2.049,10.564c0.183,1.739-0.123,4.029-1.157,5.294
			c-2.43,2.972-3.536,5.914-2.267,9.646c0.895,2.632-0.538,3.382-2.927,3.949c-2.097,0.497-4.757,1.351-5.834,2.946
			c-4.543,6.735-11.115,6.801-17.923,6.088c-7.301-0.765-12.657-3.878-14.388-11.878c-1.006-4.652-3.11-9.074-4.824-13.56
			c-0.466-1.22-1.207-2.371-1.997-3.421c-4.807-6.393-4.63-7.446,0.26-13.78C120.793,536.035,128.976,534.024,139.58,532.826z"/>
	</g>
</g>
</svg>
